<svg xmlns="http://www.w3.org/2000/svg" width="820" height="284.598" viewBox="0 0 820 284.598">
  <g id="Grupo_57933" data-name="Grupo 57933" transform="translate(-390 -2019.952)">
    <path id="Trazado_101053" data-name="Trazado 101053" d="M0,0H210.514V284.6H0Z" transform="translate(390 2019.952)" fill="#f6f6f6"/>
    <path id="Trazado_105774" data-name="Trazado 105774" d="M-32.961-5.43a6.867,6.867,0,0,1-.594,2.945,4.472,4.472,0,0,1-1.7,1.953,4.7,4.7,0,0,1-2.535.688,4.732,4.732,0,0,1-2.523-.68,4.515,4.515,0,0,1-1.719-1.941,6.67,6.67,0,0,1-.617-2.9V-5.93a6.831,6.831,0,0,1,.605-2.957,4.508,4.508,0,0,1,1.711-1.961,4.706,4.706,0,0,1,2.527-.684,4.706,4.706,0,0,1,2.527.684,4.508,4.508,0,0,1,1.711,1.961,6.811,6.811,0,0,1,.605,2.949Zm-2.375-.516a4.787,4.787,0,0,0-.641-2.719,2.088,2.088,0,0,0-1.828-.93,2.088,2.088,0,0,0-1.82.918,4.732,4.732,0,0,0-.648,2.691v.555a4.847,4.847,0,0,0,.641,2.7,2.082,2.082,0,0,0,1.844.961,2.064,2.064,0,0,0,1.813-.926,4.819,4.819,0,0,0,.641-2.7Zm11.539,1.8a5.07,5.07,0,0,1-.887,3.129A2.843,2.843,0,0,1-27.078.156a2.633,2.633,0,0,1-2.07-.891V3.25h-2.258v-11.7h2.094l.078.828a2.654,2.654,0,0,1,2.141-.984,2.862,2.862,0,0,1,2.43,1.156A5.207,5.207,0,0,1-23.8-4.266Zm-2.258-.172a3.345,3.345,0,0,0-.418-1.826,1.36,1.36,0,0,0-1.215-.643,1.478,1.478,0,0,0-1.461.815V-2.5a1.5,1.5,0,0,0,1.477.839Q-26.055-1.664-26.055-4.321ZM-18.508.156A4.15,4.15,0,0,1-21.535-.984,4.054,4.054,0,0,1-22.7-4.023v-.219a5.106,5.106,0,0,1,.492-2.277,3.612,3.612,0,0,1,1.395-1.547,3.914,3.914,0,0,1,2.059-.543,3.508,3.508,0,0,1,2.73,1.094,4.444,4.444,0,0,1,1,3.1v.922h-5.383a2.1,2.1,0,0,0,.66,1.328,2,2,0,0,0,1.395.5,2.437,2.437,0,0,0,2.039-.945l1.109,1.242A3.389,3.389,0,0,1-16.586-.246,4.511,4.511,0,0,1-18.508.156Zm-.258-6.945a1.411,1.411,0,0,0-1.09.455,2.357,2.357,0,0,0-.535,1.3h3.141v-.181a1.681,1.681,0,0,0-.406-1.165A1.456,1.456,0,0,0-18.766-6.789ZM-9-6.336A6.134,6.134,0,0,0-9.812-6.4a1.654,1.654,0,0,0-1.68.867V0H-13.75V-8.453h2.133l.063,1.008A2.092,2.092,0,0,1-9.672-8.609a2.366,2.366,0,0,1,.7.1ZM-3.25,0a2.507,2.507,0,0,1-.227-.758A2.732,2.732,0,0,1-5.609.156,3,3,0,0,1-7.668-.562a2.312,2.312,0,0,1-.816-1.812,2.389,2.389,0,0,1,1-2.062,4.915,4.915,0,0,1,2.879-.727H-3.57v-.484a1.393,1.393,0,0,0-.3-.937,1.183,1.183,0,0,0-.949-.352,1.345,1.345,0,0,0-.895.273.929.929,0,0,0-.324.75H-8.3a2.268,2.268,0,0,1,.453-1.359,3,3,0,0,1,1.281-.98A4.669,4.669,0,0,1-4.7-8.609a3.689,3.689,0,0,1,2.48.785A2.747,2.747,0,0,1-1.3-5.617v3.664A4.041,4.041,0,0,0-.969-.133V0ZM-5.117-1.57A1.945,1.945,0,0,0-4.2-1.793a1.462,1.462,0,0,0,.625-.6V-3.844h-.844q-1.7,0-1.8,1.172l-.008.133a.9.9,0,0,0,.3.7A1.153,1.153,0,0,0-5.117-1.57Zm9.063-.094a1.481,1.481,0,0,0,1.016-.344,1.2,1.2,0,0,0,.406-.914H7.484a2.9,2.9,0,0,1-.469,1.574A3.093,3.093,0,0,1,5.754-.238a3.949,3.949,0,0,1-1.77.395A3.67,3.67,0,0,1,1.125-1,4.56,4.56,0,0,1,.078-4.18v-.148A4.508,4.508,0,0,1,1.117-7.445,3.627,3.627,0,0,1,3.969-8.609a3.555,3.555,0,0,1,2.543.9,3.2,3.2,0,0,1,.973,2.4H5.367a1.551,1.551,0,0,0-.406-1.072A1.354,1.354,0,0,0,3.93-6.789a1.36,1.36,0,0,0-1.191.575,3.333,3.333,0,0,0-.4,1.866v.235a3.375,3.375,0,0,0,.4,1.878A1.377,1.377,0,0,0,3.945-1.664ZM11.156,0H8.891V-8.453h2.266Zm-2.4-10.641a1.112,1.112,0,0,1,.34-.836,1.277,1.277,0,0,1,.926-.328,1.28,1.28,0,0,1,.922.328,1.105,1.105,0,0,1,.344.836,1.108,1.108,0,0,1-.348.844,1.283,1.283,0,0,1-.918.328A1.283,1.283,0,0,1,9.105-9.8,1.108,1.108,0,0,1,8.758-10.641ZM12.664-4.3a5.013,5.013,0,0,1,.484-2.242A3.546,3.546,0,0,1,14.543-8.07a4.069,4.069,0,0,1,2.113-.539,3.849,3.849,0,0,1,2.793,1.047,4.2,4.2,0,0,1,1.207,2.844l.016.578A4.418,4.418,0,0,1,19.586-1.02,3.775,3.775,0,0,1,16.672.156a3.793,3.793,0,0,1-2.918-1.172A4.5,4.5,0,0,1,12.664-4.2Zm2.258.16A3.16,3.16,0,0,0,15.375-2.3a1.5,1.5,0,0,0,1.3.638,1.5,1.5,0,0,0,1.281-.63,3.457,3.457,0,0,0,.461-2.015,3.128,3.128,0,0,0-.461-1.831,1.5,1.5,0,0,0-1.3-.649,1.474,1.474,0,0,0-1.281.646A3.516,3.516,0,0,0,14.922-4.144ZM17.1-12h2.461L17.4-9.578H15.563Zm7.039,3.547.07.977a2.951,2.951,0,0,1,2.43-1.133,2.453,2.453,0,0,1,2,.789,3.682,3.682,0,0,1,.672,2.359V0H27.055V-5.419a1.47,1.47,0,0,0-.312-1.045A1.4,1.4,0,0,0,25.7-6.789a1.553,1.553,0,0,0-1.43.814V0H22.016V-8.453ZM40.4,0H38.141V-8.715l-2.7.832V-9.7l4.711-1.687H40.4Z" transform="translate(461 2073.578)"/>
    <path id="Trazado_105775" data-name="Trazado 105775" d="M6.624,0H29.858V29.858H0V6.624A6.624,6.624,0,0,1,6.624,0Z" transform="translate(542.092 2053.973)" fill="#ff8a5b"/>
    <path id="Trazado_105777" data-name="Trazado 105777" d="M-32.961-5.43a6.867,6.867,0,0,1-.594,2.945,4.472,4.472,0,0,1-1.7,1.953,4.7,4.7,0,0,1-2.535.688,4.732,4.732,0,0,1-2.523-.68,4.515,4.515,0,0,1-1.719-1.941,6.67,6.67,0,0,1-.617-2.9V-5.93a6.831,6.831,0,0,1,.605-2.957,4.508,4.508,0,0,1,1.711-1.961,4.706,4.706,0,0,1,2.527-.684,4.706,4.706,0,0,1,2.527.684,4.508,4.508,0,0,1,1.711,1.961,6.811,6.811,0,0,1,.605,2.949Zm-2.375-.516a4.787,4.787,0,0,0-.641-2.719,2.088,2.088,0,0,0-1.828-.93,2.088,2.088,0,0,0-1.82.918,4.732,4.732,0,0,0-.648,2.691v.555a4.847,4.847,0,0,0,.641,2.7,2.082,2.082,0,0,0,1.844.961,2.064,2.064,0,0,0,1.813-.926,4.819,4.819,0,0,0,.641-2.7Zm11.539,1.8a5.07,5.07,0,0,1-.887,3.129A2.843,2.843,0,0,1-27.078.156a2.633,2.633,0,0,1-2.07-.891V3.25h-2.258v-11.7h2.094l.078.828a2.654,2.654,0,0,1,2.141-.984,2.862,2.862,0,0,1,2.43,1.156A5.207,5.207,0,0,1-23.8-4.266Zm-2.258-.172a3.345,3.345,0,0,0-.418-1.826,1.36,1.36,0,0,0-1.215-.643,1.478,1.478,0,0,0-1.461.815V-2.5a1.5,1.5,0,0,0,1.477.839Q-26.055-1.664-26.055-4.321ZM-18.508.156A4.15,4.15,0,0,1-21.535-.984,4.054,4.054,0,0,1-22.7-4.023v-.219a5.106,5.106,0,0,1,.492-2.277,3.612,3.612,0,0,1,1.395-1.547,3.914,3.914,0,0,1,2.059-.543,3.508,3.508,0,0,1,2.73,1.094,4.444,4.444,0,0,1,1,3.1v.922h-5.383a2.1,2.1,0,0,0,.66,1.328,2,2,0,0,0,1.395.5,2.437,2.437,0,0,0,2.039-.945l1.109,1.242A3.389,3.389,0,0,1-16.586-.246,4.511,4.511,0,0,1-18.508.156Zm-.258-6.945a1.411,1.411,0,0,0-1.09.455,2.357,2.357,0,0,0-.535,1.3h3.141v-.181a1.681,1.681,0,0,0-.406-1.165A1.456,1.456,0,0,0-18.766-6.789ZM-9-6.336A6.134,6.134,0,0,0-9.812-6.4a1.654,1.654,0,0,0-1.68.867V0H-13.75V-8.453h2.133l.063,1.008A2.092,2.092,0,0,1-9.672-8.609a2.366,2.366,0,0,1,.7.1ZM-3.25,0a2.507,2.507,0,0,1-.227-.758A2.732,2.732,0,0,1-5.609.156,3,3,0,0,1-7.668-.562a2.312,2.312,0,0,1-.816-1.812,2.389,2.389,0,0,1,1-2.062,4.915,4.915,0,0,1,2.879-.727H-3.57v-.484a1.393,1.393,0,0,0-.3-.937,1.183,1.183,0,0,0-.949-.352,1.345,1.345,0,0,0-.895.273.929.929,0,0,0-.324.75H-8.3a2.268,2.268,0,0,1,.453-1.359,3,3,0,0,1,1.281-.98A4.669,4.669,0,0,1-4.7-8.609a3.689,3.689,0,0,1,2.48.785A2.747,2.747,0,0,1-1.3-5.617v3.664A4.041,4.041,0,0,0-.969-.133V0ZM-5.117-1.57A1.945,1.945,0,0,0-4.2-1.793a1.462,1.462,0,0,0,.625-.6V-3.844h-.844q-1.7,0-1.8,1.172l-.008.133a.9.9,0,0,0,.3.7A1.153,1.153,0,0,0-5.117-1.57Zm9.063-.094a1.481,1.481,0,0,0,1.016-.344,1.2,1.2,0,0,0,.406-.914H7.484a2.9,2.9,0,0,1-.469,1.574A3.093,3.093,0,0,1,5.754-.238a3.949,3.949,0,0,1-1.77.395A3.67,3.67,0,0,1,1.125-1,4.56,4.56,0,0,1,.078-4.18v-.148A4.508,4.508,0,0,1,1.117-7.445,3.627,3.627,0,0,1,3.969-8.609a3.555,3.555,0,0,1,2.543.9,3.2,3.2,0,0,1,.973,2.4H5.367a1.551,1.551,0,0,0-.406-1.072A1.354,1.354,0,0,0,3.93-6.789a1.36,1.36,0,0,0-1.191.575,3.333,3.333,0,0,0-.4,1.866v.235a3.375,3.375,0,0,0,.4,1.878A1.377,1.377,0,0,0,3.945-1.664ZM11.156,0H8.891V-8.453h2.266Zm-2.4-10.641a1.112,1.112,0,0,1,.34-.836,1.277,1.277,0,0,1,.926-.328,1.28,1.28,0,0,1,.922.328,1.105,1.105,0,0,1,.344.836,1.108,1.108,0,0,1-.348.844,1.283,1.283,0,0,1-.918.328A1.283,1.283,0,0,1,9.105-9.8,1.108,1.108,0,0,1,8.758-10.641ZM12.664-4.3a5.013,5.013,0,0,1,.484-2.242A3.546,3.546,0,0,1,14.543-8.07a4.069,4.069,0,0,1,2.113-.539,3.849,3.849,0,0,1,2.793,1.047,4.2,4.2,0,0,1,1.207,2.844l.016.578A4.418,4.418,0,0,1,19.586-1.02,3.775,3.775,0,0,1,16.672.156a3.793,3.793,0,0,1-2.918-1.172A4.5,4.5,0,0,1,12.664-4.2Zm2.258.16A3.16,3.16,0,0,0,15.375-2.3a1.5,1.5,0,0,0,1.3.638,1.5,1.5,0,0,0,1.281-.63,3.457,3.457,0,0,0,.461-2.015,3.128,3.128,0,0,0-.461-1.831,1.5,1.5,0,0,0-1.3-.649,1.474,1.474,0,0,0-1.281.646A3.516,3.516,0,0,0,14.922-4.144ZM17.1-12h2.461L17.4-9.578H15.563Zm7.039,3.547.07.977a2.951,2.951,0,0,1,2.43-1.133,2.453,2.453,0,0,1,2,.789,3.682,3.682,0,0,1,.672,2.359V0H27.055V-5.419a1.47,1.47,0,0,0-.312-1.045A1.4,1.4,0,0,0,25.7-6.789a1.553,1.553,0,0,0-1.43.814V0H22.016V-8.453ZM42.711,0h-7.8V-1.547l3.68-3.922a9.078,9.078,0,0,0,1.121-1.445,2.322,2.322,0,0,0,.363-1.172A1.738,1.738,0,0,0,39.7-9.277,1.382,1.382,0,0,0,38.6-9.711a1.49,1.49,0,0,0-1.207.527A2.089,2.089,0,0,0,36.953-7.8H34.688a3.729,3.729,0,0,1,.5-1.9,3.5,3.5,0,0,1,1.4-1.348,4.262,4.262,0,0,1,2.055-.488,4.036,4.036,0,0,1,2.73.844A2.985,2.985,0,0,1,42.344-8.3a3.825,3.825,0,0,1-.437,1.719,9.551,9.551,0,0,1-1.5,2.039L37.82-1.82h4.891Z" transform="translate(461 2122.333)"/>
    <path id="Trazado_105776" data-name="Trazado 105776" d="M6.624,0H29.858V29.858H0V6.624A6.624,6.624,0,0,1,6.624,0Z" transform="translate(542.092 2102.729)" fill="#ea526f"/>
    <path id="Trazado_105780" data-name="Trazado 105780" d="M-32.961-5.43a6.867,6.867,0,0,1-.594,2.945,4.472,4.472,0,0,1-1.7,1.953,4.7,4.7,0,0,1-2.535.688,4.732,4.732,0,0,1-2.523-.68,4.515,4.515,0,0,1-1.719-1.941,6.67,6.67,0,0,1-.617-2.9V-5.93a6.831,6.831,0,0,1,.605-2.957,4.508,4.508,0,0,1,1.711-1.961,4.706,4.706,0,0,1,2.527-.684,4.706,4.706,0,0,1,2.527.684,4.508,4.508,0,0,1,1.711,1.961,6.811,6.811,0,0,1,.605,2.949Zm-2.375-.516a4.787,4.787,0,0,0-.641-2.719,2.088,2.088,0,0,0-1.828-.93,2.088,2.088,0,0,0-1.82.918,4.732,4.732,0,0,0-.648,2.691v.555a4.847,4.847,0,0,0,.641,2.7,2.082,2.082,0,0,0,1.844.961,2.064,2.064,0,0,0,1.813-.926,4.819,4.819,0,0,0,.641-2.7Zm11.539,1.8a5.07,5.07,0,0,1-.887,3.129A2.843,2.843,0,0,1-27.078.156a2.633,2.633,0,0,1-2.07-.891V3.25h-2.258v-11.7h2.094l.078.828a2.654,2.654,0,0,1,2.141-.984,2.862,2.862,0,0,1,2.43,1.156A5.207,5.207,0,0,1-23.8-4.266Zm-2.258-.172a3.345,3.345,0,0,0-.418-1.826,1.36,1.36,0,0,0-1.215-.643,1.478,1.478,0,0,0-1.461.815V-2.5a1.5,1.5,0,0,0,1.477.839Q-26.055-1.664-26.055-4.321ZM-18.508.156A4.15,4.15,0,0,1-21.535-.984,4.054,4.054,0,0,1-22.7-4.023v-.219a5.106,5.106,0,0,1,.492-2.277,3.612,3.612,0,0,1,1.395-1.547,3.914,3.914,0,0,1,2.059-.543,3.508,3.508,0,0,1,2.73,1.094,4.444,4.444,0,0,1,1,3.1v.922h-5.383a2.1,2.1,0,0,0,.66,1.328,2,2,0,0,0,1.395.5,2.437,2.437,0,0,0,2.039-.945l1.109,1.242A3.389,3.389,0,0,1-16.586-.246,4.511,4.511,0,0,1-18.508.156Zm-.258-6.945a1.411,1.411,0,0,0-1.09.455,2.357,2.357,0,0,0-.535,1.3h3.141v-.181a1.681,1.681,0,0,0-.406-1.165A1.456,1.456,0,0,0-18.766-6.789ZM-9-6.336A6.134,6.134,0,0,0-9.812-6.4a1.654,1.654,0,0,0-1.68.867V0H-13.75V-8.453h2.133l.063,1.008A2.092,2.092,0,0,1-9.672-8.609a2.366,2.366,0,0,1,.7.1ZM-3.25,0a2.507,2.507,0,0,1-.227-.758A2.732,2.732,0,0,1-5.609.156,3,3,0,0,1-7.668-.562a2.312,2.312,0,0,1-.816-1.812,2.389,2.389,0,0,1,1-2.062,4.915,4.915,0,0,1,2.879-.727H-3.57v-.484a1.393,1.393,0,0,0-.3-.937,1.183,1.183,0,0,0-.949-.352,1.345,1.345,0,0,0-.895.273.929.929,0,0,0-.324.75H-8.3a2.268,2.268,0,0,1,.453-1.359,3,3,0,0,1,1.281-.98A4.669,4.669,0,0,1-4.7-8.609a3.689,3.689,0,0,1,2.48.785A2.747,2.747,0,0,1-1.3-5.617v3.664A4.041,4.041,0,0,0-.969-.133V0ZM-5.117-1.57A1.945,1.945,0,0,0-4.2-1.793a1.462,1.462,0,0,0,.625-.6V-3.844h-.844q-1.7,0-1.8,1.172l-.008.133a.9.9,0,0,0,.3.7A1.153,1.153,0,0,0-5.117-1.57Zm9.063-.094a1.481,1.481,0,0,0,1.016-.344,1.2,1.2,0,0,0,.406-.914H7.484a2.9,2.9,0,0,1-.469,1.574A3.093,3.093,0,0,1,5.754-.238a3.949,3.949,0,0,1-1.77.395A3.67,3.67,0,0,1,1.125-1,4.56,4.56,0,0,1,.078-4.18v-.148A4.508,4.508,0,0,1,1.117-7.445,3.627,3.627,0,0,1,3.969-8.609a3.555,3.555,0,0,1,2.543.9,3.2,3.2,0,0,1,.973,2.4H5.367a1.551,1.551,0,0,0-.406-1.072A1.354,1.354,0,0,0,3.93-6.789a1.36,1.36,0,0,0-1.191.575,3.333,3.333,0,0,0-.4,1.866v.235a3.375,3.375,0,0,0,.4,1.878A1.377,1.377,0,0,0,3.945-1.664ZM11.156,0H8.891V-8.453h2.266Zm-2.4-10.641a1.112,1.112,0,0,1,.34-.836,1.277,1.277,0,0,1,.926-.328,1.28,1.28,0,0,1,.922.328,1.105,1.105,0,0,1,.344.836,1.108,1.108,0,0,1-.348.844,1.283,1.283,0,0,1-.918.328A1.283,1.283,0,0,1,9.105-9.8,1.108,1.108,0,0,1,8.758-10.641ZM12.664-4.3a5.013,5.013,0,0,1,.484-2.242A3.546,3.546,0,0,1,14.543-8.07a4.069,4.069,0,0,1,2.113-.539,3.849,3.849,0,0,1,2.793,1.047,4.2,4.2,0,0,1,1.207,2.844l.016.578A4.418,4.418,0,0,1,19.586-1.02,3.775,3.775,0,0,1,16.672.156a3.793,3.793,0,0,1-2.918-1.172A4.5,4.5,0,0,1,12.664-4.2Zm2.258.16A3.16,3.16,0,0,0,15.375-2.3a1.5,1.5,0,0,0,1.3.638,1.5,1.5,0,0,0,1.281-.63,3.457,3.457,0,0,0,.461-2.015,3.128,3.128,0,0,0-.461-1.831,1.5,1.5,0,0,0-1.3-.649,1.474,1.474,0,0,0-1.281.646A3.516,3.516,0,0,0,14.922-4.144ZM17.1-12h2.461L17.4-9.578H15.563Zm7.039,3.547.07.977a2.951,2.951,0,0,1,2.43-1.133,2.453,2.453,0,0,1,2,.789,3.682,3.682,0,0,1,.672,2.359V0H27.055V-5.419a1.47,1.47,0,0,0-.312-1.045A1.4,1.4,0,0,0,25.7-6.789a1.553,1.553,0,0,0-1.43.814V0H22.016V-8.453Zm13.07,1.766h1.2a1.7,1.7,0,0,0,1.273-.43A1.574,1.574,0,0,0,40.1-8.258a1.392,1.392,0,0,0-.41-1.07,1.59,1.59,0,0,0-1.129-.383,1.666,1.666,0,0,0-1.086.355,1.137,1.137,0,0,0-.437.926H34.781a2.777,2.777,0,0,1,.48-1.6,3.2,3.2,0,0,1,1.344-1.105,4.485,4.485,0,0,1,1.9-.4,4.253,4.253,0,0,1,2.828.863,2.945,2.945,0,0,1,1.023,2.379,2.394,2.394,0,0,1-.477,1.438,3.1,3.1,0,0,1-1.25,1.008,2.826,2.826,0,0,1,1.434,1.031,2.8,2.8,0,0,1,.473,1.625,2.994,2.994,0,0,1-1.105,2.43,4.445,4.445,0,0,1-2.926.914,4.214,4.214,0,0,1-2.785-.9,2.934,2.934,0,0,1-1.082-2.375H36.9a1.308,1.308,0,0,0,.48,1.047,1.771,1.771,0,0,0,1.184.406,1.779,1.779,0,0,0,1.262-.426,1.47,1.47,0,0,0,.457-1.129q0-1.7-1.875-1.7h-1.2Z" transform="translate(461 2168.255)"/>
    <path id="Trazado_105778" data-name="Trazado 105778" d="M6.624,0H29.858V29.858H0V6.624A6.624,6.624,0,0,1,6.624,0Z" transform="translate(542.092 2148.649)" fill="#0075a4"/>
    <path id="Trazado_105787" data-name="Trazado 105787" d="M-32.961-5.43a6.867,6.867,0,0,1-.594,2.945,4.472,4.472,0,0,1-1.7,1.953,4.7,4.7,0,0,1-2.535.688,4.732,4.732,0,0,1-2.523-.68,4.515,4.515,0,0,1-1.719-1.941,6.67,6.67,0,0,1-.617-2.9V-5.93a6.831,6.831,0,0,1,.605-2.957,4.508,4.508,0,0,1,1.711-1.961,4.706,4.706,0,0,1,2.527-.684,4.706,4.706,0,0,1,2.527.684,4.508,4.508,0,0,1,1.711,1.961,6.811,6.811,0,0,1,.605,2.949Zm-2.375-.516a4.787,4.787,0,0,0-.641-2.719,2.088,2.088,0,0,0-1.828-.93,2.088,2.088,0,0,0-1.82.918,4.732,4.732,0,0,0-.648,2.691v.555a4.847,4.847,0,0,0,.641,2.7,2.082,2.082,0,0,0,1.844.961,2.064,2.064,0,0,0,1.813-.926,4.819,4.819,0,0,0,.641-2.7Zm11.539,1.8a5.07,5.07,0,0,1-.887,3.129A2.843,2.843,0,0,1-27.078.156a2.633,2.633,0,0,1-2.07-.891V3.25h-2.258v-11.7h2.094l.078.828a2.654,2.654,0,0,1,2.141-.984,2.862,2.862,0,0,1,2.43,1.156A5.207,5.207,0,0,1-23.8-4.266Zm-2.258-.172a3.345,3.345,0,0,0-.418-1.826,1.36,1.36,0,0,0-1.215-.643,1.478,1.478,0,0,0-1.461.815V-2.5a1.5,1.5,0,0,0,1.477.839Q-26.055-1.664-26.055-4.321ZM-18.508.156A4.15,4.15,0,0,1-21.535-.984,4.054,4.054,0,0,1-22.7-4.023v-.219a5.106,5.106,0,0,1,.492-2.277,3.612,3.612,0,0,1,1.395-1.547,3.914,3.914,0,0,1,2.059-.543,3.508,3.508,0,0,1,2.73,1.094,4.444,4.444,0,0,1,1,3.1v.922h-5.383a2.1,2.1,0,0,0,.66,1.328,2,2,0,0,0,1.395.5,2.437,2.437,0,0,0,2.039-.945l1.109,1.242A3.389,3.389,0,0,1-16.586-.246,4.511,4.511,0,0,1-18.508.156Zm-.258-6.945a1.411,1.411,0,0,0-1.09.455,2.357,2.357,0,0,0-.535,1.3h3.141v-.181a1.681,1.681,0,0,0-.406-1.165A1.456,1.456,0,0,0-18.766-6.789ZM-9-6.336A6.134,6.134,0,0,0-9.812-6.4a1.654,1.654,0,0,0-1.68.867V0H-13.75V-8.453h2.133l.063,1.008A2.092,2.092,0,0,1-9.672-8.609a2.366,2.366,0,0,1,.7.1ZM-3.25,0a2.507,2.507,0,0,1-.227-.758A2.732,2.732,0,0,1-5.609.156,3,3,0,0,1-7.668-.562a2.312,2.312,0,0,1-.816-1.812,2.389,2.389,0,0,1,1-2.062,4.915,4.915,0,0,1,2.879-.727H-3.57v-.484a1.393,1.393,0,0,0-.3-.937,1.183,1.183,0,0,0-.949-.352,1.345,1.345,0,0,0-.895.273.929.929,0,0,0-.324.75H-8.3a2.268,2.268,0,0,1,.453-1.359,3,3,0,0,1,1.281-.98A4.669,4.669,0,0,1-4.7-8.609a3.689,3.689,0,0,1,2.48.785A2.747,2.747,0,0,1-1.3-5.617v3.664A4.041,4.041,0,0,0-.969-.133V0ZM-5.117-1.57A1.945,1.945,0,0,0-4.2-1.793a1.462,1.462,0,0,0,.625-.6V-3.844h-.844q-1.7,0-1.8,1.172l-.008.133a.9.9,0,0,0,.3.7A1.153,1.153,0,0,0-5.117-1.57Zm9.063-.094a1.481,1.481,0,0,0,1.016-.344,1.2,1.2,0,0,0,.406-.914H7.484a2.9,2.9,0,0,1-.469,1.574A3.093,3.093,0,0,1,5.754-.238a3.949,3.949,0,0,1-1.77.395A3.67,3.67,0,0,1,1.125-1,4.56,4.56,0,0,1,.078-4.18v-.148A4.508,4.508,0,0,1,1.117-7.445,3.627,3.627,0,0,1,3.969-8.609a3.555,3.555,0,0,1,2.543.9,3.2,3.2,0,0,1,.973,2.4H5.367a1.551,1.551,0,0,0-.406-1.072A1.354,1.354,0,0,0,3.93-6.789a1.36,1.36,0,0,0-1.191.575,3.333,3.333,0,0,0-.4,1.866v.235a3.375,3.375,0,0,0,.4,1.878A1.377,1.377,0,0,0,3.945-1.664ZM11.156,0H8.891V-8.453h2.266Zm-2.4-10.641a1.112,1.112,0,0,1,.34-.836,1.277,1.277,0,0,1,.926-.328,1.28,1.28,0,0,1,.922.328,1.105,1.105,0,0,1,.344.836,1.108,1.108,0,0,1-.348.844,1.283,1.283,0,0,1-.918.328A1.283,1.283,0,0,1,9.105-9.8,1.108,1.108,0,0,1,8.758-10.641ZM12.664-4.3a5.013,5.013,0,0,1,.484-2.242A3.546,3.546,0,0,1,14.543-8.07a4.069,4.069,0,0,1,2.113-.539,3.849,3.849,0,0,1,2.793,1.047,4.2,4.2,0,0,1,1.207,2.844l.016.578A4.418,4.418,0,0,1,19.586-1.02,3.775,3.775,0,0,1,16.672.156a3.793,3.793,0,0,1-2.918-1.172A4.5,4.5,0,0,1,12.664-4.2Zm2.258.16A3.16,3.16,0,0,0,15.375-2.3a1.5,1.5,0,0,0,1.3.638,1.5,1.5,0,0,0,1.281-.63,3.457,3.457,0,0,0,.461-2.015,3.128,3.128,0,0,0-.461-1.831,1.5,1.5,0,0,0-1.3-.649,1.474,1.474,0,0,0-1.281.646A3.516,3.516,0,0,0,14.922-4.144ZM17.1-12h2.461L17.4-9.578H15.563Zm7.039,3.547.07.977a2.951,2.951,0,0,1,2.43-1.133,2.453,2.453,0,0,1,2,.789,3.682,3.682,0,0,1,.672,2.359V0H27.055V-5.419a1.47,1.47,0,0,0-.312-1.045A1.4,1.4,0,0,0,25.7-6.789a1.553,1.553,0,0,0-1.43.814V0H22.016V-8.453ZM41.594-4.281h1.289v1.82H41.594V0H39.336V-2.461H34.672l-.1-1.422,4.742-7.492h2.281Zm-4.773,0h2.516V-8.3l-.148.258Z" transform="translate(461 2214.176)"/>
    <path id="Trazado_105786" data-name="Trazado 105786" d="M6.624,0H29.858V29.858H0V6.624A6.624,6.624,0,0,1,6.624,0Z" transform="translate(542.092 2194.571)" fill="#25ced1"/>
    <path id="Trazado_105797" data-name="Trazado 105797" d="M-32.961-5.43a6.867,6.867,0,0,1-.594,2.945,4.472,4.472,0,0,1-1.7,1.953,4.7,4.7,0,0,1-2.535.688,4.732,4.732,0,0,1-2.523-.68,4.515,4.515,0,0,1-1.719-1.941,6.67,6.67,0,0,1-.617-2.9V-5.93a6.831,6.831,0,0,1,.605-2.957,4.508,4.508,0,0,1,1.711-1.961,4.706,4.706,0,0,1,2.527-.684,4.706,4.706,0,0,1,2.527.684,4.508,4.508,0,0,1,1.711,1.961,6.811,6.811,0,0,1,.605,2.949Zm-2.375-.516a4.787,4.787,0,0,0-.641-2.719,2.088,2.088,0,0,0-1.828-.93,2.088,2.088,0,0,0-1.82.918,4.732,4.732,0,0,0-.648,2.691v.555a4.847,4.847,0,0,0,.641,2.7,2.082,2.082,0,0,0,1.844.961,2.064,2.064,0,0,0,1.813-.926,4.819,4.819,0,0,0,.641-2.7Zm11.539,1.8a5.07,5.07,0,0,1-.887,3.129A2.843,2.843,0,0,1-27.078.156a2.633,2.633,0,0,1-2.07-.891V3.25h-2.258v-11.7h2.094l.078.828a2.654,2.654,0,0,1,2.141-.984,2.862,2.862,0,0,1,2.43,1.156A5.207,5.207,0,0,1-23.8-4.266Zm-2.258-.172a3.345,3.345,0,0,0-.418-1.826,1.36,1.36,0,0,0-1.215-.643,1.478,1.478,0,0,0-1.461.815V-2.5a1.5,1.5,0,0,0,1.477.839Q-26.055-1.664-26.055-4.321ZM-18.508.156A4.15,4.15,0,0,1-21.535-.984,4.054,4.054,0,0,1-22.7-4.023v-.219a5.106,5.106,0,0,1,.492-2.277,3.612,3.612,0,0,1,1.395-1.547,3.914,3.914,0,0,1,2.059-.543,3.508,3.508,0,0,1,2.73,1.094,4.444,4.444,0,0,1,1,3.1v.922h-5.383a2.1,2.1,0,0,0,.66,1.328,2,2,0,0,0,1.395.5,2.437,2.437,0,0,0,2.039-.945l1.109,1.242A3.389,3.389,0,0,1-16.586-.246,4.511,4.511,0,0,1-18.508.156Zm-.258-6.945a1.411,1.411,0,0,0-1.09.455,2.357,2.357,0,0,0-.535,1.3h3.141v-.181a1.681,1.681,0,0,0-.406-1.165A1.456,1.456,0,0,0-18.766-6.789ZM-9-6.336A6.134,6.134,0,0,0-9.812-6.4a1.654,1.654,0,0,0-1.68.867V0H-13.75V-8.453h2.133l.063,1.008A2.092,2.092,0,0,1-9.672-8.609a2.366,2.366,0,0,1,.7.1ZM-3.25,0a2.507,2.507,0,0,1-.227-.758A2.732,2.732,0,0,1-5.609.156,3,3,0,0,1-7.668-.562a2.312,2.312,0,0,1-.816-1.812,2.389,2.389,0,0,1,1-2.062,4.915,4.915,0,0,1,2.879-.727H-3.57v-.484a1.393,1.393,0,0,0-.3-.937,1.183,1.183,0,0,0-.949-.352,1.345,1.345,0,0,0-.895.273.929.929,0,0,0-.324.75H-8.3a2.268,2.268,0,0,1,.453-1.359,3,3,0,0,1,1.281-.98A4.669,4.669,0,0,1-4.7-8.609a3.689,3.689,0,0,1,2.48.785A2.747,2.747,0,0,1-1.3-5.617v3.664A4.041,4.041,0,0,0-.969-.133V0ZM-5.117-1.57A1.945,1.945,0,0,0-4.2-1.793a1.462,1.462,0,0,0,.625-.6V-3.844h-.844q-1.7,0-1.8,1.172l-.008.133a.9.9,0,0,0,.3.7A1.153,1.153,0,0,0-5.117-1.57Zm9.063-.094a1.481,1.481,0,0,0,1.016-.344,1.2,1.2,0,0,0,.406-.914H7.484a2.9,2.9,0,0,1-.469,1.574A3.093,3.093,0,0,1,5.754-.238a3.949,3.949,0,0,1-1.77.395A3.67,3.67,0,0,1,1.125-1,4.56,4.56,0,0,1,.078-4.18v-.148A4.508,4.508,0,0,1,1.117-7.445,3.627,3.627,0,0,1,3.969-8.609a3.555,3.555,0,0,1,2.543.9,3.2,3.2,0,0,1,.973,2.4H5.367a1.551,1.551,0,0,0-.406-1.072A1.354,1.354,0,0,0,3.93-6.789a1.36,1.36,0,0,0-1.191.575,3.333,3.333,0,0,0-.4,1.866v.235a3.375,3.375,0,0,0,.4,1.878A1.377,1.377,0,0,0,3.945-1.664ZM11.156,0H8.891V-8.453h2.266Zm-2.4-10.641a1.112,1.112,0,0,1,.34-.836,1.277,1.277,0,0,1,.926-.328,1.28,1.28,0,0,1,.922.328,1.105,1.105,0,0,1,.344.836,1.108,1.108,0,0,1-.348.844,1.283,1.283,0,0,1-.918.328A1.283,1.283,0,0,1,9.105-9.8,1.108,1.108,0,0,1,8.758-10.641ZM12.664-4.3a5.013,5.013,0,0,1,.484-2.242A3.546,3.546,0,0,1,14.543-8.07a4.069,4.069,0,0,1,2.113-.539,3.849,3.849,0,0,1,2.793,1.047,4.2,4.2,0,0,1,1.207,2.844l.016.578A4.418,4.418,0,0,1,19.586-1.02,3.775,3.775,0,0,1,16.672.156a3.793,3.793,0,0,1-2.918-1.172A4.5,4.5,0,0,1,12.664-4.2Zm2.258.16A3.16,3.16,0,0,0,15.375-2.3a1.5,1.5,0,0,0,1.3.638,1.5,1.5,0,0,0,1.281-.63,3.457,3.457,0,0,0,.461-2.015,3.128,3.128,0,0,0-.461-1.831,1.5,1.5,0,0,0-1.3-.649,1.474,1.474,0,0,0-1.281.646A3.516,3.516,0,0,0,14.922-4.144ZM17.1-12h2.461L17.4-9.578H15.563Zm7.039,3.547.07.977a2.951,2.951,0,0,1,2.43-1.133,2.453,2.453,0,0,1,2,.789,3.682,3.682,0,0,1,.672,2.359V0H27.055V-5.419a1.47,1.47,0,0,0-.312-1.045A1.4,1.4,0,0,0,25.7-6.789a1.553,1.553,0,0,0-1.43.814V0H22.016V-8.453ZM35.25-5.594l.656-5.781h6.375v1.883H37.758l-.281,2.445a3.58,3.58,0,0,1,1.711-.43,3.279,3.279,0,0,1,2.547,1.008,4.026,4.026,0,0,1,.922,2.82,4.124,4.124,0,0,1-.465,1.973A3.281,3.281,0,0,1,40.859-.324a4.158,4.158,0,0,1-2.047.48A4.416,4.416,0,0,1,36.9-.262,3.4,3.4,0,0,1,35.5-1.437a3.2,3.2,0,0,1-.543-1.727H37.2a1.669,1.669,0,0,0,.5,1.105,1.573,1.573,0,0,0,1.113.395,1.388,1.388,0,0,0,1.18-.551A2.551,2.551,0,0,0,40.4-3.773a2.11,2.11,0,0,0-.477-1.484,1.749,1.749,0,0,0-1.352-.516,1.954,1.954,0,0,0-1.3.422l-.219.2Z" transform="translate(461 2260.097)"/>
    <path id="Trazado_105796" data-name="Trazado 105796" d="M6.624,0H29.858V29.858H0V6.624A6.624,6.624,0,0,1,6.624,0Z" transform="translate(542.092 2240.492)" fill="#7ed36c"/>
    <path id="Trazado_105782" data-name="Trazado 105782" d="M-24.621-4.453V0h-1.5V-11.375h4.2A4.215,4.215,0,0,1-19-10.422,3.231,3.231,0,0,1-17.941-7.9a3.189,3.189,0,0,1-1.035,2.551,4.4,4.4,0,0,1-2.965.895Zm0-1.227h2.7a2.7,2.7,0,0,0,1.844-.567,2.075,2.075,0,0,0,.641-1.64,2.143,2.143,0,0,0-.641-1.628,2.525,2.525,0,0,0-1.758-.634h-2.781ZM-11.035-.836a3.07,3.07,0,0,1-2.477.992A2.628,2.628,0,0,1-15.57-.629a3.4,3.4,0,0,1-.715-2.324v-5.5h1.445v5.461q0,1.922,1.563,1.922a2.163,2.163,0,0,0,2.2-1.234V-8.453h1.445V0H-11Zm4.969-7.617.047,1.063A3.08,3.08,0,0,1-3.488-8.609q2.68,0,2.7,3.023V0H-2.23V-5.594a1.946,1.946,0,0,0-.418-1.352,1.675,1.675,0,0,0-1.277-.437,2.086,2.086,0,0,0-1.234.375,2.546,2.546,0,0,0-.828.984V0H-7.434V-8.453ZM3.355-10.5v2.047H4.934v1.117H3.355v5.249a1.173,1.173,0,0,0,.211.763.888.888,0,0,0,.719.254,3.5,3.5,0,0,0,.688-.094V0A4.215,4.215,0,0,1,3.863.156,1.8,1.8,0,0,1,2.4-.43,2.517,2.517,0,0,1,1.91-2.094V-7.336H.371V-8.453H1.91V-10.5ZM6.082-4.3A4.993,4.993,0,0,1,6.57-6.539,3.643,3.643,0,0,1,7.93-8.07a3.7,3.7,0,0,1,1.988-.539,3.565,3.565,0,0,1,2.793,1.2,4.6,4.6,0,0,1,1.066,3.18v.1A5.036,5.036,0,0,1,13.3-1.918,3.589,3.589,0,0,1,11.953-.391a3.743,3.743,0,0,1-2.02.547,3.556,3.556,0,0,1-2.785-1.2A4.575,4.575,0,0,1,6.082-4.2Zm1.453.172a3.616,3.616,0,0,0,.652,2.258,2.088,2.088,0,0,0,1.746.852,2.075,2.075,0,0,0,1.75-.863A3.955,3.955,0,0,0,12.332-4.3a3.61,3.61,0,0,0-.66-2.254,2.1,2.1,0,0,0-1.754-.863,2.075,2.075,0,0,0-1.727.852A3.925,3.925,0,0,0,7.535-4.133ZM24.152,0H22.7V-9.633l-2.914,1.07V-9.875l4.141-1.555h.227Z" transform="translate(704.126 2087.044)"/>
    <path id="Trazado_105783" data-name="Trazado 105783" d="M6.624,0h24.9V31.529H0V6.624A6.624,6.624,0,0,1,6.624,0Z" transform="translate(662.534 2168.528)" fill="#ff8a5b"/>
    <path id="Trazado_105779" data-name="Trazado 105779" d="M6.624,0h24.9V31.529H0V6.624A6.624,6.624,0,0,1,6.624,0Z" transform="translate(662.534 2121.439)" fill="#ea526f"/>
    <path id="Trazado_105784" data-name="Trazado 105784" d="M6.624,0h24.9V31.529H0V6.624A6.624,6.624,0,0,1,6.624,0Z" transform="translate(716.213 2121.439)" fill="#0075a4"/>
    <path id="Trazado_105785" data-name="Trazado 105785" d="M6.624,0h24.9V31.529H0V6.624A6.624,6.624,0,0,1,6.624,0Z" transform="translate(716.213 2168.528)" fill="#25ced1"/>
    <path id="Trazado_105792" data-name="Trazado 105792" d="M6.624,0h24.9V31.529H0V6.624A6.624,6.624,0,0,1,6.624,0Z" transform="translate(716.213 2215.617)" fill="#7ed36c"/>
    <path id="Trazado_105781" data-name="Trazado 105781" d="M0,0H84.21" transform="translate(663.531 2095.493)" fill="none" stroke="#000" stroke-width="1"/>
    <path id="Trazado_105791" data-name="Trazado 105791" d="M-24.621-4.453V0h-1.5V-11.375h4.2A4.215,4.215,0,0,1-19-10.422,3.231,3.231,0,0,1-17.941-7.9a3.189,3.189,0,0,1-1.035,2.551,4.4,4.4,0,0,1-2.965.895Zm0-1.227h2.7a2.7,2.7,0,0,0,1.844-.567,2.075,2.075,0,0,0,.641-1.64,2.143,2.143,0,0,0-.641-1.628,2.525,2.525,0,0,0-1.758-.634h-2.781ZM-11.035-.836a3.07,3.07,0,0,1-2.477.992A2.628,2.628,0,0,1-15.57-.629a3.4,3.4,0,0,1-.715-2.324v-5.5h1.445v5.461q0,1.922,1.563,1.922a2.163,2.163,0,0,0,2.2-1.234V-8.453h1.445V0H-11Zm4.969-7.617.047,1.063A3.08,3.08,0,0,1-3.488-8.609q2.68,0,2.7,3.023V0H-2.23V-5.594a1.946,1.946,0,0,0-.418-1.352,1.675,1.675,0,0,0-1.277-.437,2.086,2.086,0,0,0-1.234.375,2.546,2.546,0,0,0-.828.984V0H-7.434V-8.453ZM3.355-10.5v2.047H4.934v1.117H3.355v5.249a1.173,1.173,0,0,0,.211.763.888.888,0,0,0,.719.254,3.5,3.5,0,0,0,.688-.094V0A4.215,4.215,0,0,1,3.863.156,1.8,1.8,0,0,1,2.4-.43,2.517,2.517,0,0,1,1.91-2.094V-7.336H.371V-8.453H1.91V-10.5ZM6.082-4.3A4.993,4.993,0,0,1,6.57-6.539,3.643,3.643,0,0,1,7.93-8.07a3.7,3.7,0,0,1,1.988-.539,3.565,3.565,0,0,1,2.793,1.2,4.6,4.6,0,0,1,1.066,3.18v.1A5.036,5.036,0,0,1,13.3-1.918,3.589,3.589,0,0,1,11.953-.391a3.743,3.743,0,0,1-2.02.547,3.556,3.556,0,0,1-2.785-1.2A4.575,4.575,0,0,1,6.082-4.2Zm1.453.172a3.616,3.616,0,0,0,.652,2.258,2.088,2.088,0,0,0,1.746.852,2.075,2.075,0,0,0,1.75-.863A3.955,3.955,0,0,0,12.332-4.3a3.61,3.61,0,0,0-.66-2.254,2.1,2.1,0,0,0-1.754-.863,2.075,2.075,0,0,0-1.727.852A3.925,3.925,0,0,0,7.535-4.133ZM26.855,0H19.4V-1.039L23.34-5.414a9.354,9.354,0,0,0,1.207-1.613,2.693,2.693,0,0,0,.332-1.285,2.041,2.041,0,0,0-.539-1.461,1.885,1.885,0,0,0-1.437-.57,2.232,2.232,0,0,0-1.676.613,2.343,2.343,0,0,0-.6,1.707H19.184A3.355,3.355,0,0,1,20.2-10.562a3.751,3.751,0,0,1,2.707-.969,3.6,3.6,0,0,1,2.508.832,2.838,2.838,0,0,1,.922,2.215q0,1.68-2.141,4l-3.047,3.3h5.711Z" transform="translate(875.44 2087.044)"/>
    <path id="Trazado_105788" data-name="Trazado 105788" d="M6.624,0h24.9V31.529H0V6.624A6.624,6.624,0,0,1,6.624,0Z" transform="translate(833.848 2168.528)" fill="#ff8a5b"/>
    <path id="Trazado_105789" data-name="Trazado 105789" d="M6.624,0h24.9V31.529H0V6.624A6.624,6.624,0,0,1,6.624,0Z" transform="translate(833.848 2121.439)" fill="#ea526f"/>
    <path id="Trazado_105793" data-name="Trazado 105793" d="M6.624,0h24.9V31.529H0V6.624A6.624,6.624,0,0,1,6.624,0Z" transform="translate(887.527 2121.439)" fill="#0075a4"/>
    <path id="Trazado_105794" data-name="Trazado 105794" d="M6.624,0h24.9V31.529H0V6.624A6.624,6.624,0,0,1,6.624,0Z" transform="translate(887.527 2168.528)" fill="#25ced1"/>
    <path id="Trazado_105795" data-name="Trazado 105795" d="M6.624,0h24.9V31.529H0V6.624A6.624,6.624,0,0,1,6.624,0Z" transform="translate(887.527 2215.617)" fill="#7ed36c"/>
    <path id="Trazado_105790" data-name="Trazado 105790" d="M0,0H84.21" transform="translate(834.845 2095.493)" fill="none" stroke="#000" stroke-width="1"/>
    <path id="Trazado_105801" data-name="Trazado 105801" d="M-24.621-4.453V0h-1.5V-11.375h4.2A4.215,4.215,0,0,1-19-10.422,3.231,3.231,0,0,1-17.941-7.9a3.189,3.189,0,0,1-1.035,2.551,4.4,4.4,0,0,1-2.965.895Zm0-1.227h2.7a2.7,2.7,0,0,0,1.844-.567,2.075,2.075,0,0,0,.641-1.64,2.143,2.143,0,0,0-.641-1.628,2.525,2.525,0,0,0-1.758-.634h-2.781ZM-11.035-.836a3.07,3.07,0,0,1-2.477.992A2.628,2.628,0,0,1-15.57-.629a3.4,3.4,0,0,1-.715-2.324v-5.5h1.445v5.461q0,1.922,1.563,1.922a2.163,2.163,0,0,0,2.2-1.234V-8.453h1.445V0H-11Zm4.969-7.617.047,1.063A3.08,3.08,0,0,1-3.488-8.609q2.68,0,2.7,3.023V0H-2.23V-5.594a1.946,1.946,0,0,0-.418-1.352,1.675,1.675,0,0,0-1.277-.437,2.086,2.086,0,0,0-1.234.375,2.546,2.546,0,0,0-.828.984V0H-7.434V-8.453ZM3.355-10.5v2.047H4.934v1.117H3.355v5.249a1.173,1.173,0,0,0,.211.763.888.888,0,0,0,.719.254,3.5,3.5,0,0,0,.688-.094V0A4.215,4.215,0,0,1,3.863.156,1.8,1.8,0,0,1,2.4-.43,2.517,2.517,0,0,1,1.91-2.094V-7.336H.371V-8.453H1.91V-10.5ZM6.082-4.3A4.993,4.993,0,0,1,6.57-6.539,3.643,3.643,0,0,1,7.93-8.07a3.7,3.7,0,0,1,1.988-.539,3.565,3.565,0,0,1,2.793,1.2,4.6,4.6,0,0,1,1.066,3.18v.1A5.036,5.036,0,0,1,13.3-1.918,3.589,3.589,0,0,1,11.953-.391a3.743,3.743,0,0,1-2.02.547,3.556,3.556,0,0,1-2.785-1.2A4.575,4.575,0,0,1,6.082-4.2Zm1.453.172a3.616,3.616,0,0,0,.652,2.258,2.088,2.088,0,0,0,1.746.852,2.075,2.075,0,0,0,1.75-.863A3.955,3.955,0,0,0,12.332-4.3a3.61,3.61,0,0,0-.66-2.254,2.1,2.1,0,0,0-1.754-.863,2.075,2.075,0,0,0-1.727.852A3.925,3.925,0,0,0,7.535-4.133ZM21.5-6.391H22.59A2.387,2.387,0,0,0,24.2-6.93a1.8,1.8,0,0,0,.586-1.414,1.764,1.764,0,0,0-1.992-2,2.072,2.072,0,0,0-1.5.535,1.873,1.873,0,0,0-.559,1.418H19.293a2.9,2.9,0,0,1,.988-2.246,3.6,3.6,0,0,1,2.512-.895,3.558,3.558,0,0,1,2.523.852,3.076,3.076,0,0,1,.914,2.367,2.5,2.5,0,0,1-.48,1.438,2.9,2.9,0,0,1-1.309,1.039,2.8,2.8,0,0,1,1.449.984,2.734,2.734,0,0,1,.512,1.68,3.1,3.1,0,0,1-1,2.43,3.745,3.745,0,0,1-2.6.9A3.844,3.844,0,0,1,20.2-.711a2.877,2.877,0,0,1-1-2.289h1.453a1.859,1.859,0,0,0,.586,1.438,2.229,2.229,0,0,0,1.57.539,2.187,2.187,0,0,0,1.6-.547,2.108,2.108,0,0,0,.555-1.57,1.912,1.912,0,0,0-.609-1.523,2.655,2.655,0,0,0-1.758-.547H21.5Z" transform="translate(1016.422 2087.044)"/>
    <path id="Trazado_105798" data-name="Trazado 105798" d="M6.624,0h24.9V31.529H0V6.624A6.624,6.624,0,0,1,6.624,0Z" transform="translate(974.83 2168.528)" fill="#ff8a5b"/>
    <path id="Trazado_105799" data-name="Trazado 105799" d="M6.624,0h24.9V31.529H0V6.624A6.624,6.624,0,0,1,6.624,0Z" transform="translate(974.83 2121.439)" fill="#ea526f"/>
    <path id="Trazado_105802" data-name="Trazado 105802" d="M6.624,0h24.9V31.529H0V6.624A6.624,6.624,0,0,1,6.624,0Z" transform="translate(1028.509 2121.439)" fill="#0075a4"/>
    <path id="Trazado_105803" data-name="Trazado 105803" d="M6.624,0h24.9V31.529H0V6.624A6.624,6.624,0,0,1,6.624,0Z" transform="translate(1028.509 2168.528)" fill="#25ced1"/>
    <path id="Trazado_105804" data-name="Trazado 105804" d="M6.624,0h24.9V31.529H0V6.624A6.624,6.624,0,0,1,6.624,0Z" transform="translate(1028.509 2215.617)" fill="#7ed36c"/>
    <path id="Trazado_105800" data-name="Trazado 105800" d="M0,0H84.21" transform="translate(975.828 2095.493)" fill="none" stroke="#000" stroke-width="1"/>
    <path id="Trazado_105808" data-name="Trazado 105808" d="M-24.621-4.453V0h-1.5V-11.375h4.2A4.215,4.215,0,0,1-19-10.422,3.231,3.231,0,0,1-17.941-7.9a3.189,3.189,0,0,1-1.035,2.551,4.4,4.4,0,0,1-2.965.895Zm0-1.227h2.7a2.7,2.7,0,0,0,1.844-.567,2.075,2.075,0,0,0,.641-1.64,2.143,2.143,0,0,0-.641-1.628,2.525,2.525,0,0,0-1.758-.634h-2.781ZM-11.035-.836a3.07,3.07,0,0,1-2.477.992A2.628,2.628,0,0,1-15.57-.629a3.4,3.4,0,0,1-.715-2.324v-5.5h1.445v5.461q0,1.922,1.563,1.922a2.163,2.163,0,0,0,2.2-1.234V-8.453h1.445V0H-11Zm4.969-7.617.047,1.063A3.08,3.08,0,0,1-3.488-8.609q2.68,0,2.7,3.023V0H-2.23V-5.594a1.946,1.946,0,0,0-.418-1.352,1.675,1.675,0,0,0-1.277-.437,2.086,2.086,0,0,0-1.234.375,2.546,2.546,0,0,0-.828.984V0H-7.434V-8.453ZM3.355-10.5v2.047H4.934v1.117H3.355v5.249a1.173,1.173,0,0,0,.211.763.888.888,0,0,0,.719.254,3.5,3.5,0,0,0,.688-.094V0A4.215,4.215,0,0,1,3.863.156,1.8,1.8,0,0,1,2.4-.43,2.517,2.517,0,0,1,1.91-2.094V-7.336H.371V-8.453H1.91V-10.5ZM6.082-4.3A4.993,4.993,0,0,1,6.57-6.539,3.643,3.643,0,0,1,7.93-8.07a3.7,3.7,0,0,1,1.988-.539,3.565,3.565,0,0,1,2.793,1.2,4.6,4.6,0,0,1,1.066,3.18v.1A5.036,5.036,0,0,1,13.3-1.918,3.589,3.589,0,0,1,11.953-.391a3.743,3.743,0,0,1-2.02.547,3.556,3.556,0,0,1-2.785-1.2A4.575,4.575,0,0,1,6.082-4.2Zm1.453.172a3.616,3.616,0,0,0,.652,2.258,2.088,2.088,0,0,0,1.746.852,2.075,2.075,0,0,0,1.75-.863A3.955,3.955,0,0,0,12.332-4.3a3.61,3.61,0,0,0-.66-2.254,2.1,2.1,0,0,0-1.754-.863,2.075,2.075,0,0,0-1.727.852A3.925,3.925,0,0,0,7.535-4.133ZM25.5-3.82h1.578v1.18H25.5V0H24.051V-2.641h-5.18v-.852l5.094-7.883H25.5Zm-4.992,0h3.539V-9.4l-.172.313Z" transform="translate(1166.384 2087.044)"/>
    <path id="Trazado_105805" data-name="Trazado 105805" d="M6.624,0h24.9V31.529H0V6.624A6.624,6.624,0,0,1,6.624,0Z" transform="translate(1124.792 2168.528)" fill="#ff8a5b"/>
    <path id="Trazado_105806" data-name="Trazado 105806" d="M6.624,0h24.9V31.529H0V6.624A6.624,6.624,0,0,1,6.624,0Z" transform="translate(1124.792 2121.439)" fill="#ea526f"/>
    <path id="Trazado_105809" data-name="Trazado 105809" d="M6.624,0h24.9V31.529H0V6.624A6.624,6.624,0,0,1,6.624,0Z" transform="translate(1178.471 2121.439)" fill="#0075a4"/>
    <path id="Trazado_105810" data-name="Trazado 105810" d="M6.624,0h24.9V31.529H0V6.624A6.624,6.624,0,0,1,6.624,0Z" transform="translate(1178.471 2168.528)" fill="#25ced1"/>
    <path id="Trazado_105811" data-name="Trazado 105811" d="M6.624,0h24.9V31.529H0V6.624A6.624,6.624,0,0,1,6.624,0Z" transform="translate(1178.471 2215.617)" fill="#7ed36c"/>
    <path id="Trazado_105807" data-name="Trazado 105807" d="M0,0H84.21" transform="translate(1125.79 2095.493)" fill="none" stroke="#000" stroke-width="1"/>
  </g>
</svg>
