<svg xmlns="http://www.w3.org/2000/svg" width="573" height="298" viewBox="0 0 573 298">
  <g id="Grupo_56630" data-name="Grupo 56630" transform="translate(-3848.39 928.386)">
    <path id="Rectángulo_5242" data-name="Rectángulo 5242" d="M0,0H573V298H0Z" transform="translate(3848.39 -928.385)" fill="none"/>
    <g id="Grupo_56629" data-name="Grupo 56629">
      <path id="Trazado_102268" data-name="Trazado 102268" d="M3848.39-630.385l32.363-46.087h505.984l34.653,46.087Z" fill="#0075a4"/>
      <g id="Grupo_56588" data-name="Grupo 56588">
        <path id="Trazado_102269" data-name="Trazado 102269" d="M4359.676-666.767H3918.239c-2.742,0-5.427-.109-8.046-.31v16.562c0,1.372,2.435,2.484,5.441,2.484h446.647c3.006,0,5.441-1.112,5.441-2.484v-16.562c-2.619.2-5.3.31-8.046.31Z" fill="#25ced1"/>
        <path id="Trazado_102270" data-name="Trazado 102270" d="M3960-650.515v-16.252h-41.759c-2.742,0-5.427-.109-8.046-.31v16.562c0,1.372,2.435,2.484,5.441,2.484h49.8C3962.434-648.031,3960-649.143,3960-650.515Z" fill="#27b7b7"/>
        <g id="Grupo_56564" data-name="Grupo 56564">
          <path id="Trazado_102271" data-name="Trazado 102271" d="M4364.048-666.285H3898.679a22.688,22.688,0,0,1-22.688-22.688v-3.3a22.688,22.688,0,0,1,22.688-22.688h465.369a22.688,22.688,0,0,1,22.688,22.688v3.3A22.688,22.688,0,0,1,4364.048-666.285Z" fill="#596c76"/>
        </g>
        <g id="Grupo_56565" data-name="Grupo 56565">
          <path id="Trazado_102272" data-name="Trazado 102272" d="M3896.247-676.353a14.439,14.439,0,0,1-12.361-14.27,14.44,14.44,0,0,1,12.361-14.27,22.664,22.664,0,0,1,18.855-10.068H3894.98a22.688,22.688,0,0,0-22.688,22.688v3.3a22.688,22.688,0,0,0,22.688,22.688H3915.1a22.664,22.664,0,0,1-18.855-10.068Z" fill="#465a61"/>
        </g>
        <g id="Grupo_56587" data-name="Grupo 56587">
          <g id="Grupo_56566" data-name="Grupo 56566">
            <circle id="Elipse_4117" data-name="Elipse 4117" cx="10.802" cy="10.802" r="10.802" transform="translate(3899.39 -701.425)" fill="#fff"/>
          </g>
          <g id="Grupo_56567" data-name="Grupo 56567">
            <path id="Trazado_102273" data-name="Trazado 102273" d="M3909.766-690.623a10.8,10.8,0,0,1,5.614-9.475,10.75,10.75,0,0,0-5.188-1.327,10.8,10.8,0,0,0-10.8,10.8,10.8,10.8,0,0,0,10.8,10.8,10.749,10.749,0,0,0,5.188-1.326A10.8,10.8,0,0,1,3909.766-690.623Z" fill="#f2fbff"/>
          </g>
          <g id="Grupo_56568" data-name="Grupo 56568">
            <path id="Trazado_102274" data-name="Trazado 102274" d="M3910.193-676.2a14.435,14.435,0,0,1-14.419-14.419,14.436,14.436,0,0,1,14.419-14.419,14.436,14.436,0,0,1,14.419,14.419A14.436,14.436,0,0,1,3910.193-676.2Zm0-21.6a7.193,7.193,0,0,0-7.185,7.185,7.193,7.193,0,0,0,7.185,7.184,7.192,7.192,0,0,0,7.184-7.184A7.193,7.193,0,0,0,3910.193-697.808Z" fill="#8d9ca8"/>
          </g>
          <g id="Grupo_56569" data-name="Grupo 56569">
            <circle id="Elipse_4118" data-name="Elipse 4118" cx="10.802" cy="10.802" r="10.802" transform="translate(3972.913 -701.425)" fill="#fff"/>
          </g>
          <g id="Grupo_56570" data-name="Grupo 56570">
            <circle id="Elipse_4119" data-name="Elipse 4119" cx="10.802" cy="10.802" r="10.802" transform="translate(4125.624 -701.425)" fill="#fff"/>
          </g>
          <g id="Grupo_56571" data-name="Grupo 56571">
            <path id="Trazado_102275" data-name="Trazado 102275" d="M4136-690.623a10.8,10.8,0,0,1,5.614-9.475,10.748,10.748,0,0,0-5.188-1.327,10.8,10.8,0,0,0-10.8,10.8,10.8,10.8,0,0,0,10.8,10.8,10.747,10.747,0,0,0,5.188-1.326A10.8,10.8,0,0,1,4136-690.623Z" fill="#f2fbff"/>
          </g>
          <g id="Grupo_56572" data-name="Grupo 56572">
            <path id="Trazado_102276" data-name="Trazado 102276" d="M4136.426-676.2a14.435,14.435,0,0,1-14.419-14.419,14.436,14.436,0,0,1,14.419-14.419,14.436,14.436,0,0,1,14.418,14.419A14.435,14.435,0,0,1,4136.426-676.2Zm0-21.6a7.193,7.193,0,0,0-7.185,7.185,7.192,7.192,0,0,0,7.185,7.184,7.192,7.192,0,0,0,7.184-7.184A7.192,7.192,0,0,0,4136.426-697.808Z" fill="#8d9ca8"/>
          </g>
          <g id="Grupo_56573" data-name="Grupo 56573">
            <circle id="Elipse_4120" data-name="Elipse 4120" cx="10.802" cy="10.802" r="10.802" transform="translate(4048.604 -701.425)" fill="#fff"/>
          </g>
          <g id="Grupo_56574" data-name="Grupo 56574">
            <path id="Trazado_102277" data-name="Trazado 102277" d="M4058.979-690.623a10.8,10.8,0,0,1,5.614-9.475,10.751,10.751,0,0,0-5.188-1.327,10.8,10.8,0,0,0-10.8,10.8,10.8,10.8,0,0,0,10.8,10.8,10.75,10.75,0,0,0,5.188-1.326A10.8,10.8,0,0,1,4058.979-690.623Z" fill="#f2fbff"/>
          </g>
          <g id="Grupo_56575" data-name="Grupo 56575">
            <path id="Trazado_102278" data-name="Trazado 102278" d="M4059.406-676.2a14.435,14.435,0,0,1-14.419-14.419,14.436,14.436,0,0,1,14.419-14.419,14.435,14.435,0,0,1,14.418,14.419A14.435,14.435,0,0,1,4059.406-676.2Zm0-21.6a7.193,7.193,0,0,0-7.185,7.185,7.193,7.193,0,0,0,7.185,7.184,7.193,7.193,0,0,0,7.184-7.184A7.193,7.193,0,0,0,4059.406-697.808Z" fill="#8d9ca8"/>
          </g>
          <g id="Grupo_56576" data-name="Grupo 56576">
            <circle id="Elipse_4121" data-name="Elipse 4121" cx="10.802" cy="10.802" r="10.802" transform="translate(4198.941 -701.425)" fill="#fff"/>
          </g>
          <g id="Grupo_56577" data-name="Grupo 56577">
            <path id="Trazado_102279" data-name="Trazado 102279" d="M4209.317-690.623a10.8,10.8,0,0,1,5.614-9.475,10.751,10.751,0,0,0-5.188-1.327,10.8,10.8,0,0,0-10.8,10.8,10.8,10.8,0,0,0,10.8,10.8,10.75,10.75,0,0,0,5.188-1.326A10.8,10.8,0,0,1,4209.317-690.623Z" fill="#f2fbff"/>
          </g>
          <g id="Grupo_56578" data-name="Grupo 56578">
            <path id="Trazado_102280" data-name="Trazado 102280" d="M4209.743-676.2a14.435,14.435,0,0,1-14.419-14.419,14.435,14.435,0,0,1,14.419-14.419,14.436,14.436,0,0,1,14.419,14.419A14.436,14.436,0,0,1,4209.743-676.2Zm0-21.6a7.193,7.193,0,0,0-7.185,7.185,7.193,7.193,0,0,0,7.185,7.184,7.192,7.192,0,0,0,7.184-7.184A7.192,7.192,0,0,0,4209.743-697.808Z" fill="#8d9ca8"/>
          </g>
          <g id="Grupo_56579" data-name="Grupo 56579">
            <circle id="Elipse_4122" data-name="Elipse 4122" cx="10.802" cy="10.802" r="10.802" transform="translate(4271.888 -701.425)" fill="#fff"/>
          </g>
          <g id="Grupo_56580" data-name="Grupo 56580">
            <path id="Trazado_102281" data-name="Trazado 102281" d="M4282.264-690.623a10.8,10.8,0,0,1,5.614-9.475,10.754,10.754,0,0,0-5.188-1.327,10.8,10.8,0,0,0-10.8,10.8,10.8,10.8,0,0,0,10.8,10.8,10.753,10.753,0,0,0,5.188-1.326A10.8,10.8,0,0,1,4282.264-690.623Z" fill="#f2fbff"/>
          </g>
          <g id="Grupo_56581" data-name="Grupo 56581">
            <path id="Trazado_102282" data-name="Trazado 102282" d="M4282.689-676.2a14.435,14.435,0,0,1-14.418-14.419,14.435,14.435,0,0,1,14.418-14.419,14.435,14.435,0,0,1,14.419,14.419A14.435,14.435,0,0,1,4282.689-676.2Zm0-21.6a7.193,7.193,0,0,0-7.184,7.185,7.193,7.193,0,0,0,7.184,7.184,7.193,7.193,0,0,0,7.185-7.184A7.193,7.193,0,0,0,4282.689-697.808Z" fill="#8d9ca8"/>
          </g>
          <g id="Grupo_56582" data-name="Grupo 56582">
            <circle id="Elipse_4123" data-name="Elipse 4123" cx="10.802" cy="10.802" r="10.802" transform="translate(4349.921 -701.425)" fill="#fff"/>
          </g>
          <g id="Grupo_56583" data-name="Grupo 56583">
            <path id="Trazado_102283" data-name="Trazado 102283" d="M3983.288-690.623a10.8,10.8,0,0,1,5.614-9.475,10.751,10.751,0,0,0-5.188-1.327,10.8,10.8,0,0,0-10.8,10.8,10.8,10.8,0,0,0,10.8,10.8,10.75,10.75,0,0,0,5.188-1.326A10.8,10.8,0,0,1,3983.288-690.623Z" fill="#f2fbff"/>
          </g>
          <g id="Grupo_56584" data-name="Grupo 56584">
            <path id="Trazado_102284" data-name="Trazado 102284" d="M3983.715-676.2a14.435,14.435,0,0,1-14.419-14.419,14.436,14.436,0,0,1,14.419-14.419,14.436,14.436,0,0,1,14.419,14.419A14.436,14.436,0,0,1,3983.715-676.2Zm0-21.6a7.193,7.193,0,0,0-7.185,7.185,7.193,7.193,0,0,0,7.185,7.184,7.192,7.192,0,0,0,7.184-7.184A7.192,7.192,0,0,0,3983.715-697.808Z" fill="#8d9ca8"/>
          </g>
          <g id="Grupo_56585" data-name="Grupo 56585">
            <path id="Trazado_102285" data-name="Trazado 102285" d="M4360.3-690.623a10.8,10.8,0,0,1,5.613-9.475,10.751,10.751,0,0,0-5.188-1.327,10.8,10.8,0,0,0-10.8,10.8,10.8,10.8,0,0,0,10.8,10.8,10.75,10.75,0,0,0,5.188-1.326A10.8,10.8,0,0,1,4360.3-690.623Z" fill="#f2fbff"/>
          </g>
          <g id="Grupo_56586" data-name="Grupo 56586">
            <path id="Trazado_102286" data-name="Trazado 102286" d="M4360.723-676.2a14.435,14.435,0,0,1-14.419-14.419,14.436,14.436,0,0,1,14.419-14.419,14.436,14.436,0,0,1,14.419,14.419A14.435,14.435,0,0,1,4360.723-676.2Zm0-21.6a7.192,7.192,0,0,0-7.184,7.185,7.193,7.193,0,0,0,7.184,7.184,7.193,7.193,0,0,0,7.185-7.184A7.193,7.193,0,0,0,4360.723-697.808Z" fill="#8d9ca8"/>
          </g>
        </g>
      </g>
      <g id="Grupo_56606" data-name="Grupo 56606">
        <g id="Grupo_56605" data-name="Grupo 56605">
          <g id="Grupo_56593" data-name="Grupo 56593">
            <g id="Grupo_56591" data-name="Grupo 56591">
              <path id="Trazado_102287" data-name="Trazado 102287" d="M4042.593-786.931v-74.656a1.233,1.233,0,0,0-1.233-1.232h-72.99a1.231,1.231,0,0,0-1.232,1.232v74.656Z" fill="#ea9b58"/>
              <g id="Grupo_56589" data-name="Grupo 56589">
                <path id="Trazado_102288" data-name="Trazado 102288" d="M3982.286-862.819H3968.37a1.231,1.231,0,0,0-1.232,1.232v74.223h13.915v-74.223A1.233,1.233,0,0,1,3982.286-862.819Z" fill="#d88a55"/>
              </g>
              <path id="Trazado_102289" data-name="Trazado 102289" d="M4098.792-787.364H3950.346a1.232,1.232,0,0,0-1.232,1.233v71.042h150.91v-71.042a1.233,1.233,0,0,0-1.232-1.233Z" fill="#fed2a4"/>
              <g id="Grupo_56590" data-name="Grupo 56590">
                <path id="Trazado_102290" data-name="Trazado 102290" d="M3994.909-862.819v15.365a1.289,1.289,0,0,0,1.288,1.288h17.337a1.288,1.288,0,0,0,1.288-1.288v-15.365Z" fill="#fd4755"/>
              </g>
              <path id="Trazado_102291" data-name="Trazado 102291" d="M4003.674-847.454v-15.365h-8.765v15.365a1.289,1.289,0,0,0,1.288,1.288h8.765A1.288,1.288,0,0,1,4003.674-847.454Z" fill="#fb2b3a"/>
            </g>
            <g id="Grupo_56592" data-name="Grupo 56592">
              <path id="Trazado_102292" data-name="Trazado 102292" d="M3994.334-822.8a3.248,3.248,0,0,0,4.579-.338l2.706-3.137v12.641a3.246,3.246,0,0,0,3.246,3.246,3.247,3.247,0,0,0,3.247-3.246v-12.641l2.706,3.137a3.235,3.235,0,0,0,2.459,1.126,3.238,3.238,0,0,0,2.12-.788,3.247,3.247,0,0,0,.337-4.579l-8.411-9.75a3.244,3.244,0,0,0-2.458-1.125,3.245,3.245,0,0,0-2.458,1.125l-8.411,9.75a3.246,3.246,0,0,0,.338,4.579Z" fill="#ffbd86"/>
              <path id="Trazado_102293" data-name="Trazado 102293" d="M4013.986-806.062h-18.242a3.246,3.246,0,0,0-3.246,3.246,3.247,3.247,0,0,0,3.246,3.247h18.242a3.247,3.247,0,0,0,3.247-3.247A3.246,3.246,0,0,0,4013.986-806.062Z" fill="#ffbd86"/>
            </g>
          </g>
          <g id="Grupo_56604" data-name="Grupo 56604">
            <g id="Grupo_56598" data-name="Grupo 56598">
              <g id="Grupo_56596" data-name="Grupo 56596">
                <g id="Grupo_56594" data-name="Grupo 56594">
                  <path id="Trazado_102294" data-name="Trazado 102294" d="M3964.356-787.364h-14.01a1.232,1.232,0,0,0-1.232,1.233v71.042h14.01v-71.042a1.233,1.233,0,0,1,1.232-1.233Z" fill="#ffbd86"/>
                </g>
                <g id="Grupo_56595" data-name="Grupo 56595">
                  <path id="Trazado_102295" data-name="Trazado 102295" d="M3976.885-787.364V-772a1.288,1.288,0,0,0,1.288,1.288h17.337A1.289,1.289,0,0,0,3996.8-772v-15.365Z" fill="#fd4755"/>
                </g>
                <path id="Trazado_102296" data-name="Trazado 102296" d="M3985.926-772v-15.365h-9.041V-772a1.288,1.288,0,0,0,1.288,1.288h9.041A1.288,1.288,0,0,1,3985.926-772Z" fill="#fb2b3a"/>
              </g>
              <path id="Trazado_102297" data-name="Trazado 102297" d="M3997.711-751.923l-8.411-9.749a3.247,3.247,0,0,0-2.458-1.126,3.247,3.247,0,0,0-2.459,1.126l-8.411,9.749a3.247,3.247,0,0,0,.337,4.579,3.233,3.233,0,0,0,2.12.789,3.239,3.239,0,0,0,2.459-1.126l2.707-3.137v12.64a3.246,3.246,0,0,0,3.246,3.246,3.246,3.246,0,0,0,3.247-3.246v-12.64l2.706,3.136a3.247,3.247,0,0,0,4.579.338,3.246,3.246,0,0,0,.338-4.579Z" fill="#ea9b58"/>
              <g id="Grupo_56597" data-name="Grupo 56597">
                <path id="Trazado_102298" data-name="Trazado 102298" d="M3995.962-724.114H3977.72a3.247,3.247,0,0,1-3.246-3.247,3.246,3.246,0,0,1,3.246-3.246h18.242a3.247,3.247,0,0,1,3.247,3.246A3.247,3.247,0,0,1,3995.962-724.114Z" fill="#ea9b58"/>
              </g>
            </g>
            <g id="Grupo_56603" data-name="Grupo 56603">
              <g id="Grupo_56601" data-name="Grupo 56601">
                <g id="Grupo_56599" data-name="Grupo 56599">
                  <path id="Trazado_102299" data-name="Trazado 102299" d="M4024.569-787.364h13.919v72.275h-13.919Z" fill="#ffbd86"/>
                </g>
                <g id="Grupo_56600" data-name="Grupo 56600">
                  <path id="Trazado_102300" data-name="Trazado 102300" d="M4052.341-787.364V-772a1.288,1.288,0,0,0,1.287,1.288h17.337a1.288,1.288,0,0,0,1.288-1.288v-15.365Z" fill="#fd4755"/>
                </g>
                <path id="Trazado_102301" data-name="Trazado 102301" d="M4061.246-772v-15.365h-8.905V-772a1.288,1.288,0,0,0,1.287,1.288h8.906A1.288,1.288,0,0,1,4061.246-772Z" fill="#fb2b3a"/>
              </g>
              <g id="Grupo_56602" data-name="Grupo 56602">
                <path id="Trazado_102302" data-name="Trazado 102302" d="M4051.765-747.344a3.234,3.234,0,0,0,2.119.788,3.241,3.241,0,0,0,2.46-1.126l2.706-3.137v12.64a3.247,3.247,0,0,0,3.247,3.247,3.246,3.246,0,0,0,3.246-3.247v-12.64l2.706,3.137a3.246,3.246,0,0,0,4.579.337,3.247,3.247,0,0,0,.338-4.579l-8.411-9.749a3.249,3.249,0,0,0-2.458-1.126,3.249,3.249,0,0,0-2.459,1.126l-8.411,9.749a3.248,3.248,0,0,0,.338,4.58Z" fill="#ea9b58"/>
                <path id="Trazado_102303" data-name="Trazado 102303" d="M4071.417-730.607h-18.241a3.247,3.247,0,0,0-3.247,3.246,3.247,3.247,0,0,0,3.247,3.247h18.241a3.247,3.247,0,0,0,3.247-3.247A3.247,3.247,0,0,0,4071.417-730.607Z" fill="#ea9b58"/>
              </g>
            </g>
          </g>
        </g>
      </g>
      <g id="Grupo_56628" data-name="Grupo 56628">
        <g id="Grupo_56609" data-name="Grupo 56609">
          <path id="Trazado_102304" data-name="Trazado 102304" d="M4324.554-864.6h-59.5v33.919a1.218,1.218,0,0,1-1.218,1.218h-24.693a1.219,1.219,0,0,1-1.218-1.218V-864.6h-59.5a2.03,2.03,0,0,0-2.03,2.03v67.978a47.426,47.426,0,0,1,40.45,46.85,47.2,47.2,0,0,1-13.746,33.327h121.451a2.03,2.03,0,0,0,2.03-2.03V-862.569a2.03,2.03,0,0,0-2.03-2.03Z" fill="#ea9b58"/>
          <path id="Trazado_102305" data-name="Trazado 102305" d="M4197.639-786.321v-76.248a2.03,2.03,0,0,1,2.031-2.03h-21.241a2.031,2.031,0,0,0-2.031,2.03V-795a47.492,47.492,0,0,1,21.241,8.677Z" fill="#d88a55"/>
          <g id="Grupo_56607" data-name="Grupo 56607">
            <path id="Trazado_102306" data-name="Trazado 102306" d="M4237.927-864.6v33.919a1.218,1.218,0,0,0,1.218,1.218h24.692a1.219,1.219,0,0,0,1.219-1.218V-864.6Z" fill="#fd4755"/>
          </g>
          <g id="Grupo_56608" data-name="Grupo 56608">
            <path id="Trazado_102307" data-name="Trazado 102307" d="M4250.842-830.68V-864.6h-12.915v33.919a1.218,1.218,0,0,0,1.218,1.218h12.915A1.218,1.218,0,0,1,4250.842-830.68Z" fill="#fb2b3a"/>
          </g>
        </g>
        <g id="Grupo_56612" data-name="Grupo 56612">
          <g id="Grupo_56610" data-name="Grupo 56610">
            <path id="Trazado_102308" data-name="Trazado 102308" d="M4310.948-740.3h-41.979a3,3,0,0,1-3-3,3,3,0,0,1,3-3h41.979a3,3,0,0,1,3,3A3,3,0,0,1,4310.948-740.3Z" fill="#ffbd86"/>
          </g>
          <g id="Grupo_56611" data-name="Grupo 56611">
            <path id="Trazado_102309" data-name="Trazado 102309" d="M4310.69-728.071h-41.979a3,3,0,0,1-3-3,3,3,0,0,1,3-3h41.979a3,3,0,0,1,3,3A3,3,0,0,1,4310.69-728.071Z" fill="#ffbd86"/>
          </g>
        </g>
        <g id="Grupo_56619" data-name="Grupo 56619">
          <g id="Grupo_56613" data-name="Grupo 56613">
            <circle id="Elipse_4124" data-name="Elipse 4124" cx="47.755" cy="47.755" r="47.755" transform="translate(4121.739 -795.497)" fill="#25ced1"/>
          </g>
          <g id="Grupo_56614" data-name="Grupo 56614">
            <path id="Trazado_102310" data-name="Trazado 102310" d="M4130.723-747.741a38.831,38.831,0,0,1,24.13-35.9,47.591,47.591,0,0,1,23.068-11.116,48.045,48.045,0,0,0-8.427-.741,47.754,47.754,0,0,0-47.755,47.755,47.755,47.755,0,0,0,47.755,47.755,48.145,48.145,0,0,0,8.427-.741,47.591,47.591,0,0,1-23.069-11.117A38.832,38.832,0,0,1,4130.723-747.741Z" fill="#25ced1"/>
          </g>
          <g id="Grupo_56615" data-name="Grupo 56615">
            <circle id="Elipse_4125" data-name="Elipse 4125" cx="35.765" cy="35.765" r="35.765" transform="translate(4133.71 -783.516)" fill="#fff"/>
          </g>
          <g id="Grupo_56616" data-name="Grupo 56616">
            <path id="Trazado_102311" data-name="Trazado 102311" d="M4150.777-747.741a35.831,35.831,0,0,1,27.243-34.74,35.723,35.723,0,0,0-8.526-1.03,35.811,35.811,0,0,0-35.77,35.77,35.81,35.81,0,0,0,35.77,35.77,35.723,35.723,0,0,0,8.526-1.03A35.831,35.831,0,0,1,4150.777-747.741Z" fill="#f2fbff"/>
          </g>
          <g id="Grupo_56617" data-name="Grupo 56617">
            <path id="Trazado_102312" data-name="Trazado 102312" d="M4169.494-708.971a38.815,38.815,0,0,1-38.771-38.77,38.815,38.815,0,0,1,38.771-38.771,38.815,38.815,0,0,1,38.77,38.771A38.814,38.814,0,0,1,4169.494-708.971Zm0-71.539a32.806,32.806,0,0,0-32.769,32.769,32.806,32.806,0,0,0,32.769,32.769,32.806,32.806,0,0,0,32.769-32.769A32.806,32.806,0,0,0,4169.494-780.51Z" fill="#16a3a3"/>
          </g>
          <g id="Grupo_56618" data-name="Grupo 56618">
            <path id="Trazado_102313" data-name="Trazado 102313" d="M4169.494-744.741a2.99,2.99,0,0,1-1.441-.369,3,3,0,0,1-1.56-2.631v-26.687a3,3,0,0,1,3-3,3,3,0,0,1,3,3v21.207l12.348-7.9a3,3,0,0,1,4.145.912,3,3,0,0,1-.912,4.144l-16.965,10.847a3,3,0,0,1-1.616.472Z" fill="#465a61"/>
          </g>
        </g>
        <g id="Grupo_56620" data-name="Grupo 56620">
          <path id="Trazado_102314" data-name="Trazado 102314" d="M4194.066-842.387h-69.327a3,3,0,0,1-3-3,3,3,0,0,1,3-3h69.327a3,3,0,0,1,3,3A3,3,0,0,1,4194.066-842.387Z" fill="#fd4755"/>
        </g>
        <g id="Grupo_56621" data-name="Grupo 56621">
          <path id="Trazado_102315" data-name="Trazado 102315" d="M4202.513-826.436h-65.5a3,3,0,0,1-3-3,3,3,0,0,1,3-3h65.5a3,3,0,0,1,3,3A3,3,0,0,1,4202.513-826.436Z" fill="#fd4755"/>
        </g>
        <g id="Grupo_56622" data-name="Grupo 56622">
          <path id="Trazado_102316" data-name="Trazado 102316" d="M4210.635-810.485H4149.28a3,3,0,0,1-3-3,3,3,0,0,1,3-3h61.355a3,3,0,0,1,3,3A3,3,0,0,1,4210.635-810.485Z" fill="#fd4755"/>
        </g>
        <g id="Grupo_56627" data-name="Grupo 56627">
          <g id="Grupo_56623" data-name="Grupo 56623">
            <path id="Trazado_102317" data-name="Trazado 102317" d="M4309.73-755.894h-39.8a1.219,1.219,0,0,1-1.218-1.219V-809.1a1.218,1.218,0,0,1,1.218-1.218h39.8a1.218,1.218,0,0,1,1.218,1.218v51.984A1.219,1.219,0,0,1,4309.73-755.894Z" fill="#fff"/>
          </g>
          <g id="Grupo_56624" data-name="Grupo 56624">
            <path id="Trazado_102318" data-name="Trazado 102318" d="M4280.9-757.113V-809.1a1.217,1.217,0,0,1,1.218-1.218h-12.184a1.218,1.218,0,0,0-1.218,1.218v51.984a1.218,1.218,0,0,0,1.218,1.219h12.184A1.218,1.218,0,0,1,4280.9-757.113Z" fill="#f2fbff"/>
          </g>
          <g id="Grupo_56626" data-name="Grupo 56626">
            <path id="Trazado_102319" data-name="Trazado 102319" d="M4301.041-791.81l-8.939-10.361a3,3,0,0,0-2.272-1.041,3,3,0,0,0-2.273,1.041l-8.939,10.361a3,3,0,0,0,.312,4.233,3,3,0,0,0,4.232-.313l3.667-4.249v14.644a3,3,0,0,0,3,3,3,3,0,0,0,3-3v-14.644l3.667,4.249a2.989,2.989,0,0,0,2.273,1.041,3,3,0,0,0,1.959-.728,3,3,0,0,0,.312-4.233Z" fill="#68ca44"/>
            <g id="Grupo_56625" data-name="Grupo 56625">
              <path id="Trazado_102320" data-name="Trazado 102320" d="M4299.523-763h-19.387a3,3,0,0,1-3-3,3,3,0,0,1,3-3h19.387a3,3,0,0,1,3,3A3,3,0,0,1,4299.523-763Z" fill="#68ca44"/>
            </g>
          </g>
        </g>
      </g>
    </g>
  </g>
</svg>
