<svg xmlns="http://www.w3.org/2000/svg" width="611.5" height="390.456" viewBox="0 0 611.5 390.456">
  <g id="Grupo_57933" data-name="Grupo 57933" transform="translate(-493.5 -1827)">
    <path id="Trazado_102162" data-name="Trazado 102162" d="M-3222.418-179.808l-118.351-79.147,5.154,34.317h-108.629v90.045h108.629l-5.154,34.317,118.351-79.147-.24-.192Z" transform="translate(3939.244 2201.844)" fill="#e4f7ff" stroke="#0075a4" stroke-miterlimit="10" stroke-width="3"/>
    <path id="Trazado_105771" data-name="Trazado 105771" d="M3.508,0H1.164V-11.375H3.508Zm4.1-8.453.07.977a2.951,2.951,0,0,1,2.43-1.133,2.453,2.453,0,0,1,2,.789,3.682,3.682,0,0,1,.672,2.359V0H10.523V-5.419a1.47,1.47,0,0,0-.312-1.045,1.4,1.4,0,0,0-1.039-.325,1.553,1.553,0,0,0-1.43.814V0H5.484V-8.453Zm10.4,6.789a1.481,1.481,0,0,0,1.016-.344,1.2,1.2,0,0,0,.406-.914h2.117a2.9,2.9,0,0,1-.469,1.574A3.093,3.093,0,0,1,19.816-.238a3.949,3.949,0,0,1-1.77.395A3.67,3.67,0,0,1,15.188-1,4.56,4.56,0,0,1,14.141-4.18v-.148A4.508,4.508,0,0,1,15.18-7.445a3.627,3.627,0,0,1,2.852-1.164,3.555,3.555,0,0,1,2.543.9,3.2,3.2,0,0,1,.973,2.4H19.43a1.551,1.551,0,0,0-.406-1.072,1.354,1.354,0,0,0-1.031-.412,1.36,1.36,0,0,0-1.191.575,3.333,3.333,0,0,0-.4,1.866v.235a3.375,3.375,0,0,0,.4,1.878A1.377,1.377,0,0,0,18.008-1.664ZM25.219,0H22.953V-8.453h2.266Zm-2.4-10.641a1.112,1.112,0,0,1,.34-.836,1.277,1.277,0,0,1,.926-.328,1.28,1.28,0,0,1,.922.328,1.105,1.105,0,0,1,.344.836A1.108,1.108,0,0,1,25-9.8a1.283,1.283,0,0,1-.918.328,1.283,1.283,0,0,1-.918-.328A1.108,1.108,0,0,1,22.82-10.641Zm3.906,6.352a5.094,5.094,0,0,1,.887-3.148,2.877,2.877,0,0,1,2.426-1.172,2.589,2.589,0,0,1,2.039.922V-12h2.266V0H32.3L32.2-.9A2.657,2.657,0,0,1,30.023.156,2.869,2.869,0,0,1,27.629-1.02,5.258,5.258,0,0,1,26.727-4.289Zm2.258.161A3.355,3.355,0,0,0,29.4-2.3a1.348,1.348,0,0,0,1.2.636,1.51,1.51,0,0,0,1.477-.887V-5.9a1.489,1.489,0,0,0-1.461-.887Q28.984-6.789,28.984-4.128Zm11,4.285A4.15,4.15,0,0,1,36.957-.984a4.054,4.054,0,0,1-1.168-3.039v-.219a5.106,5.106,0,0,1,.492-2.277,3.612,3.612,0,0,1,1.395-1.547,3.914,3.914,0,0,1,2.059-.543,3.508,3.508,0,0,1,2.73,1.094,4.444,4.444,0,0,1,1,3.1v.922H38.078a2.1,2.1,0,0,0,.66,1.328,2,2,0,0,0,1.395.5,2.437,2.437,0,0,0,2.039-.945l1.109,1.242A3.389,3.389,0,0,1,41.906-.246,4.511,4.511,0,0,1,39.984.156Zm-.258-6.945a1.411,1.411,0,0,0-1.09.455,2.357,2.357,0,0,0-.535,1.3h3.141v-.181a1.681,1.681,0,0,0-.406-1.165A1.456,1.456,0,0,0,39.727-6.789ZM46.82-8.453l.07.977a2.951,2.951,0,0,1,2.43-1.133,2.453,2.453,0,0,1,2,.789,3.682,3.682,0,0,1,.672,2.359V0H49.734V-5.419a1.47,1.47,0,0,0-.312-1.045,1.4,1.4,0,0,0-1.039-.325,1.553,1.553,0,0,0-1.43.814V0H44.7V-8.453Zm9.586-2.078v2.078h1.445V-6.8H56.406v4.219a1.007,1.007,0,0,0,.18.672.9.9,0,0,0,.688.2,3.6,3.6,0,0,0,.664-.055V-.047a4.648,4.648,0,0,1-1.367.2,2.156,2.156,0,0,1-2.422-2.4V-6.8H52.914V-8.453h1.234v-2.078ZM63,.156A4.15,4.15,0,0,1,59.973-.984,4.054,4.054,0,0,1,58.8-4.023v-.219A5.106,5.106,0,0,1,59.3-6.52a3.612,3.612,0,0,1,1.395-1.547,3.914,3.914,0,0,1,2.059-.543,3.508,3.508,0,0,1,2.73,1.094,4.444,4.444,0,0,1,1,3.1v.922H61.094a2.1,2.1,0,0,0,.66,1.328,2,2,0,0,0,1.395.5,2.437,2.437,0,0,0,2.039-.945L66.3-1.367A3.389,3.389,0,0,1,64.922-.246,4.511,4.511,0,0,1,63,.156Zm-.258-6.945a1.411,1.411,0,0,0-1.09.455,2.357,2.357,0,0,0-.535,1.3h3.141v-.181a1.681,1.681,0,0,0-.406-1.165A1.456,1.456,0,0,0,62.742-6.789Z" transform="translate(544.146 2028.899)" fill="#12263f"/>
    <path id="Elipse_4078" data-name="Elipse 4078" d="M76.484,0A76.484,76.484,0,1,1,0,76.484,76.484,76.484,0,0,1,76.484,0Z" transform="translate(770.429 1854.19)" fill="#fce5e9" stroke="#e9526f" stroke-width="2"/>
    <path id="Trazado_102163" data-name="Trazado 102163" d="M-3116.448-162.054h0a99.948,99.948,0,0,1-99.835-99.834,99.957,99.957,0,0,1,99.835-99.842h.1A99.155,99.155,0,0,1-3038.6-324.4l-2.725,2.183a95.683,95.683,0,0,0-75.028-36.019h-.1a96.46,96.46,0,0,0-96.345,96.35,96.452,96.452,0,0,0,96.343,96.343,96.452,96.452,0,0,0,96.345-96.342h3.493A99.954,99.954,0,0,1-3116.448-162.054Z" transform="translate(3962.26 2191.467)" fill="#999"/>
    <path id="Trazado_102163-2" data-name="Trazado 102163" d="M-3207.666-261.644h-11.1a101.9,101.9,0,0,1,30.041-72.529,101.9,101.9,0,0,1,72.53-30.043v11.1A91.572,91.572,0,0,0-3207.666-261.644Z" transform="translate(3962.009 2191.217)" fill="#ea526f"/>
    <path id="Elipse_4080" data-name="Elipse 4080" d="M76.484,0A76.484,76.484,0,1,1,0,76.484,76.484,76.484,0,0,1,76.484,0Z" transform="translate(923.643 1934.078)" fill="#ffe8de" stroke="#ff8a5b" stroke-width="2"/>
    <path id="Trazado_102166" data-name="Trazado 102166" d="M-3074.536-188.492a98.1,98.1,0,0,0,98.09,98.089,98.09,98.09,0,0,0,98.09-98.088h0a98.1,98.1,0,0,0-98.09-98.1,97.636,97.636,0,0,0-56.01,17.554" transform="translate(3976.571 2199.054)" fill="none" stroke="#999" stroke-linecap="round" stroke-linejoin="round" stroke-width="3.171"/>
    <path id="Trazado_102167" data-name="Trazado 102167" d="M-2983.35-280.75v-11.1a101.9,101.9,0,0,1,72.53,30.042,101.906,101.906,0,0,1,30.043,72.53h-11.1A91.573,91.573,0,0,0-2983.35-280.75Z" transform="translate(3985.777 2198.522)" fill="#ff8a5b"/>
    <path id="Trazado_105773" data-name="Trazado 105773" d="M1.156,0V-11.375H4.516a5.269,5.269,0,0,1,2.676.672A4.581,4.581,0,0,1,9-8.8a6.051,6.051,0,0,1,.641,2.828v.57A6.026,6.026,0,0,1,9-2.555,4.526,4.526,0,0,1,7.16-.664,5.513,5.513,0,0,1,4.43,0ZM3.133-9.781v8.188H4.422a2.971,2.971,0,0,0,2.387-.971,4.223,4.223,0,0,0,.848-2.788v-.632a4.333,4.333,0,0,0-.8-2.823,2.855,2.855,0,0,0-2.336-.975ZM15.148.156A3.928,3.928,0,0,1,12.223-.98,4.124,4.124,0,0,1,11.1-4.008v-.234A5.072,5.072,0,0,1,11.59-6.5a3.716,3.716,0,0,1,1.371-1.551,3.625,3.625,0,0,1,1.969-.555,3.318,3.318,0,0,1,2.668,1.1,4.658,4.658,0,0,1,.941,3.117v.766H13.016a2.539,2.539,0,0,0,.7,1.656,2.1,2.1,0,0,0,1.543.609,2.571,2.571,0,0,0,2.125-1.055l1.023.977A3.418,3.418,0,0,1,17.051-.262,4.244,4.244,0,0,1,15.148.156Zm-.227-7.242a1.6,1.6,0,0,0-1.262.547,2.835,2.835,0,0,0-.613,1.523h3.617v-.141A2.307,2.307,0,0,0,16.156-6.6,1.586,1.586,0,0,0,14.922-7.086Zm7.469-3.422v2.055h1.492v1.406H22.391v4.719a1.039,1.039,0,0,0,.191.7.888.888,0,0,0,.684.215,2.924,2.924,0,0,0,.664-.078V-.023a4.676,4.676,0,0,1-1.25.18q-2.188,0-2.187-2.414V-7.047H19.1V-8.453h1.391v-2.055ZM29.055.156A3.928,3.928,0,0,1,26.129-.98a4.124,4.124,0,0,1-1.121-3.027v-.234A5.072,5.072,0,0,1,25.5-6.5a3.716,3.716,0,0,1,1.371-1.551,3.625,3.625,0,0,1,1.969-.555,3.318,3.318,0,0,1,2.668,1.1,4.658,4.658,0,0,1,.941,3.117v.766H26.922a2.539,2.539,0,0,0,.7,1.656,2.1,2.1,0,0,0,1.543.609,2.571,2.571,0,0,0,2.125-1.055l1.023.977A3.418,3.418,0,0,1,30.957-.262,4.244,4.244,0,0,1,29.055.156Zm-.227-7.242a1.6,1.6,0,0,0-1.262.547,2.835,2.835,0,0,0-.613,1.523H30.57v-.141A2.307,2.307,0,0,0,30.063-6.6,1.586,1.586,0,0,0,28.828-7.086ZM35.68-8.453l.055.977A3.039,3.039,0,0,1,38.2-8.609q2.641,0,2.688,3.023V0h-1.9V-5.477a1.741,1.741,0,0,0-.348-1.191A1.462,1.462,0,0,0,37.5-7.055a1.829,1.829,0,0,0-1.711,1.039V0h-1.9V-8.453ZM46.539.156A3.928,3.928,0,0,1,43.613-.98a4.124,4.124,0,0,1-1.121-3.027v-.234A5.072,5.072,0,0,1,42.98-6.5a3.716,3.716,0,0,1,1.371-1.551,3.625,3.625,0,0,1,1.969-.555,3.318,3.318,0,0,1,2.668,1.1,4.658,4.658,0,0,1,.941,3.117v.766H44.406a2.539,2.539,0,0,0,.7,1.656,2.1,2.1,0,0,0,1.543.609,2.571,2.571,0,0,0,2.125-1.055l1.023.977A3.418,3.418,0,0,1,48.441-.262,4.244,4.244,0,0,1,46.539.156Zm-.227-7.242a1.6,1.6,0,0,0-1.262.547,2.835,2.835,0,0,0-.613,1.523h3.617v-.141A2.307,2.307,0,0,0,47.547-6.6,1.586,1.586,0,0,0,46.313-7.086Zm9.516.367a4.7,4.7,0,0,0-.773-.062,1.741,1.741,0,0,0-1.758,1V0H51.4V-8.453h1.813l.047.945a2.139,2.139,0,0,1,1.906-1.1,1.777,1.777,0,0,1,.672.109ZM64.734.156A3.928,3.928,0,0,1,61.809-.98a4.124,4.124,0,0,1-1.121-3.027v-.234A5.072,5.072,0,0,1,61.176-6.5a3.716,3.716,0,0,1,1.371-1.551,3.625,3.625,0,0,1,1.969-.555,3.318,3.318,0,0,1,2.668,1.1,4.658,4.658,0,0,1,.941,3.117v.766H62.6a2.539,2.539,0,0,0,.7,1.656,2.1,2.1,0,0,0,1.543.609,2.571,2.571,0,0,0,2.125-1.055l1.023.977A3.418,3.418,0,0,1,66.637-.262,4.244,4.244,0,0,1,64.734.156Zm-.227-7.242a1.6,1.6,0,0,0-1.262.547,2.835,2.835,0,0,0-.613,1.523H66.25v-.141A2.307,2.307,0,0,0,65.742-6.6,1.586,1.586,0,0,0,64.508-7.086ZM71.617,0h-1.9V-12h1.9Z" transform="translate(810.886 1928.874)"/>
    <path id="Trazado_105774" data-name="Trazado 105774" d="M8.375-4.141a5.033,5.033,0,0,1-.891,3.129A2.852,2.852,0,0,1,5.094.156,2.871,2.871,0,0,1,2.867-.758V3.25H.969v-11.7h1.75l.078.859A2.788,2.788,0,0,1,5.07-8.609,2.881,2.881,0,0,1,7.5-7.457a5.167,5.167,0,0,1,.879,3.2ZM6.484-4.3a3.526,3.526,0,0,0-.5-2.008,1.638,1.638,0,0,0-1.441-.742,1.747,1.747,0,0,0-1.672.961v3.75a1.763,1.763,0,0,0,1.688.984,1.636,1.636,0,0,0,1.418-.73A3.881,3.881,0,0,0,6.484-4.3Zm7.922-2.414a4.7,4.7,0,0,0-.773-.062,1.741,1.741,0,0,0-1.758,1V0h-1.9V-8.453h1.813l.047.945a2.139,2.139,0,0,1,1.906-1.1,1.777,1.777,0,0,1,.672.109ZM14.969-4.3a4.984,4.984,0,0,1,.492-2.238,3.6,3.6,0,0,1,1.383-1.531,3.9,3.9,0,0,1,2.047-.535,3.692,3.692,0,0,1,2.777,1.1A4.333,4.333,0,0,1,22.82-4.586l.008.445a5.029,5.029,0,0,1-.48,2.234A3.551,3.551,0,0,1,20.973-.383a3.925,3.925,0,0,1-2.066.539,3.667,3.667,0,0,1-2.863-1.191,4.563,4.563,0,0,1-1.074-3.176Zm1.9.164A3.406,3.406,0,0,0,17.406-2.1a1.752,1.752,0,0,0,1.5.738,1.733,1.733,0,0,0,1.5-.75,3.762,3.762,0,0,0,.535-2.2,3.362,3.362,0,0,0-.551-2.031,1.759,1.759,0,0,0-1.5-.75,1.743,1.743,0,0,0-1.477.738A3.691,3.691,0,0,0,16.867-4.141ZM27.906-1.359a1.716,1.716,0,0,0,1.18-.414,1.415,1.415,0,0,0,.5-1.023h1.789a2.789,2.789,0,0,1-.492,1.473,3.228,3.228,0,0,1-1.25,1.082,3.725,3.725,0,0,1-1.7.4A3.6,3.6,0,0,1,25.117-.992a4.555,4.555,0,0,1-1.039-3.172v-.2a4.479,4.479,0,0,1,1.031-3.09,3.571,3.571,0,0,1,2.813-1.16,3.473,3.473,0,0,1,2.457.879,3.148,3.148,0,0,1,1,2.309H29.586a1.738,1.738,0,0,0-.5-1.2,1.6,1.6,0,0,0-1.184-.469,1.671,1.671,0,0,0-1.422.668,3.408,3.408,0,0,0-.508,2.027v.3a3.465,3.465,0,0,0,.5,2.051A1.669,1.669,0,0,0,27.906-1.359ZM36.531.156A3.928,3.928,0,0,1,33.605-.98a4.124,4.124,0,0,1-1.121-3.027v-.234A5.072,5.072,0,0,1,32.973-6.5a3.716,3.716,0,0,1,1.371-1.551,3.625,3.625,0,0,1,1.969-.555,3.318,3.318,0,0,1,2.668,1.1,4.658,4.658,0,0,1,.941,3.117v.766H34.4a2.539,2.539,0,0,0,.7,1.656,2.1,2.1,0,0,0,1.543.609,2.571,2.571,0,0,0,2.125-1.055l1.023.977A3.418,3.418,0,0,1,38.434-.262,4.244,4.244,0,0,1,36.531.156ZM36.3-7.086a1.6,1.6,0,0,0-1.262.547,2.835,2.835,0,0,0-.613,1.523h3.617v-.141A2.307,2.307,0,0,0,37.539-6.6,1.586,1.586,0,0,0,36.3-7.086ZM46.133-2.3a.861.861,0,0,0-.418-.773,4.445,4.445,0,0,0-1.387-.469,7.129,7.129,0,0,1-1.617-.516,2.158,2.158,0,0,1-1.422-1.992,2.25,2.25,0,0,1,.922-1.828,3.644,3.644,0,0,1,2.344-.734A3.792,3.792,0,0,1,47-7.859a2.38,2.38,0,0,1,.934,1.945h-1.9a1.17,1.17,0,0,0-.406-.91,1.557,1.557,0,0,0-1.078-.363,1.682,1.682,0,0,0-1.02.289.911.911,0,0,0-.395.773.769.769,0,0,0,.367.68,5.049,5.049,0,0,0,1.484.488,7.027,7.027,0,0,1,1.754.586,2.484,2.484,0,0,1,.945.816A2.082,2.082,0,0,1,48-2.4a2.2,2.2,0,0,1-.945,1.848,4.031,4.031,0,0,1-2.477.707,4.371,4.371,0,0,1-1.852-.375A3.047,3.047,0,0,1,41.461-1.25a2.441,2.441,0,0,1-.453-1.414h1.844a1.338,1.338,0,0,0,.508,1.035,1.973,1.973,0,0,0,1.242.363,1.92,1.92,0,0,0,1.141-.285A.883.883,0,0,0,46.133-2.3ZM49.3-4.3a4.984,4.984,0,0,1,.492-2.238,3.6,3.6,0,0,1,1.383-1.531,3.9,3.9,0,0,1,2.047-.535A3.692,3.692,0,0,1,56-7.508a4.333,4.333,0,0,1,1.152,2.922l.008.445a5.029,5.029,0,0,1-.48,2.234A3.551,3.551,0,0,1,55.3-.383a3.925,3.925,0,0,1-2.066.539,3.667,3.667,0,0,1-2.863-1.191A4.563,4.563,0,0,1,49.3-4.211Zm1.9.164A3.406,3.406,0,0,0,51.734-2.1a1.752,1.752,0,0,0,1.5.738,1.733,1.733,0,0,0,1.5-.75,3.762,3.762,0,0,0,.535-2.2,3.362,3.362,0,0,0-.551-2.031,1.759,1.759,0,0,0-1.5-.75,1.743,1.743,0,0,0-1.477.738A3.691,3.691,0,0,0,51.2-4.141Z" transform="translate(819.1 1946.332)"/>
    <path id="Trazado_105775" data-name="Trazado 105775" d="M7.523-2.648H3.117L2.2,0H.141l4.3-11.375H6.211L10.516,0H8.453ZM3.672-4.242h3.3L5.32-8.961ZM15.094-1.359a1.716,1.716,0,0,0,1.18-.414,1.415,1.415,0,0,0,.5-1.023h1.789a2.789,2.789,0,0,1-.492,1.473A3.228,3.228,0,0,1,16.82-.242a3.725,3.725,0,0,1-1.7.4A3.6,3.6,0,0,1,12.3-.992a4.555,4.555,0,0,1-1.039-3.172v-.2A4.479,4.479,0,0,1,12.3-7.449a3.571,3.571,0,0,1,2.813-1.16,3.473,3.473,0,0,1,2.457.879,3.148,3.148,0,0,1,1,2.309H16.773a1.738,1.738,0,0,0-.5-1.2,1.6,1.6,0,0,0-1.184-.469,1.671,1.671,0,0,0-1.422.668,3.408,3.408,0,0,0-.508,2.027v.3a3.465,3.465,0,0,0,.5,2.051A1.669,1.669,0,0,0,15.094-1.359Zm8.375,0a1.716,1.716,0,0,0,1.18-.414,1.415,1.415,0,0,0,.5-1.023h1.789a2.789,2.789,0,0,1-.492,1.473A3.228,3.228,0,0,1,25.2-.242a3.725,3.725,0,0,1-1.7.4A3.6,3.6,0,0,1,20.68-.992a4.555,4.555,0,0,1-1.039-3.172v-.2a4.479,4.479,0,0,1,1.031-3.09,3.571,3.571,0,0,1,2.813-1.16,3.473,3.473,0,0,1,2.457.879,3.148,3.148,0,0,1,1,2.309H25.148a1.738,1.738,0,0,0-.5-1.2,1.6,1.6,0,0,0-1.184-.469,1.671,1.671,0,0,0-1.422.668,3.408,3.408,0,0,0-.508,2.027v.3a3.465,3.465,0,0,0,.5,2.051A1.669,1.669,0,0,0,23.469-1.359ZM30.391,0h-1.9V-8.453h1.9ZM28.375-10.656a1.02,1.02,0,0,1,.277-.732,1.043,1.043,0,0,1,.793-.291,1.056,1.056,0,0,1,.8.291,1.012,1.012,0,0,1,.281.732.988.988,0,0,1-.281.72,1.064,1.064,0,0,1-.8.287,1.051,1.051,0,0,1-.793-.287A1,1,0,0,1,28.375-10.656ZM32.1-4.289a5.026,5.026,0,0,1,.906-3.137,2.9,2.9,0,0,1,2.43-1.184,2.759,2.759,0,0,1,2.172.938V-12h1.9V0H37.789L37.7-.875A2.8,2.8,0,0,1,35.422.156a2.887,2.887,0,0,1-2.4-1.2A5.21,5.21,0,0,1,32.1-4.289Zm1.9.164a3.519,3.519,0,0,0,.5,2.012,1.61,1.61,0,0,0,1.41.723,1.793,1.793,0,0,0,1.7-1.039V-6.039a1.766,1.766,0,0,0-1.687-1.016,1.622,1.622,0,0,0-1.422.73A3.919,3.919,0,0,0,34-4.125ZM45.211.156A3.928,3.928,0,0,1,42.285-.98a4.124,4.124,0,0,1-1.121-3.027v-.234A5.072,5.072,0,0,1,41.652-6.5a3.716,3.716,0,0,1,1.371-1.551,3.625,3.625,0,0,1,1.969-.555,3.318,3.318,0,0,1,2.668,1.1A4.658,4.658,0,0,1,48.6-4.391v.766H43.078a2.539,2.539,0,0,0,.7,1.656,2.1,2.1,0,0,0,1.543.609,2.571,2.571,0,0,0,2.125-1.055l1.023.977A3.418,3.418,0,0,1,47.113-.262,4.244,4.244,0,0,1,45.211.156Zm-.227-7.242a1.6,1.6,0,0,0-1.262.547,2.835,2.835,0,0,0-.613,1.523h3.617v-.141A2.307,2.307,0,0,0,46.219-6.6,1.586,1.586,0,0,0,44.984-7.086Zm6.852-1.367.055.977a3.039,3.039,0,0,1,2.461-1.133q2.641,0,2.688,3.023V0h-1.9V-5.477a1.741,1.741,0,0,0-.348-1.191,1.462,1.462,0,0,0-1.137-.387,1.829,1.829,0,0,0-1.711,1.039V0h-1.9V-8.453Zm9.516-2.055v2.055h1.492v1.406H61.352v4.719a1.039,1.039,0,0,0,.191.7.888.888,0,0,0,.684.215,2.924,2.924,0,0,0,.664-.078V-.023a4.676,4.676,0,0,1-1.25.18q-2.187,0-2.187-2.414V-7.047H58.063V-8.453h1.391v-2.055ZM68.016.156A3.928,3.928,0,0,1,65.09-.98a4.124,4.124,0,0,1-1.121-3.027v-.234A5.072,5.072,0,0,1,64.457-6.5a3.716,3.716,0,0,1,1.371-1.551A3.625,3.625,0,0,1,67.8-8.609a3.318,3.318,0,0,1,2.668,1.1,4.658,4.658,0,0,1,.941,3.117v.766H65.883a2.539,2.539,0,0,0,.7,1.656,2.1,2.1,0,0,0,1.543.609A2.571,2.571,0,0,0,70.25-2.414l1.023.977A3.418,3.418,0,0,1,69.918-.262,4.244,4.244,0,0,1,68.016.156Zm-.227-7.242a1.6,1.6,0,0,0-1.262.547,2.835,2.835,0,0,0-.613,1.523h3.617v-.141A2.307,2.307,0,0,0,69.023-6.6,1.586,1.586,0,0,0,67.789-7.086Z" transform="translate(967.544 2018.599)"/>
    <path id="Elipse_4080-2" data-name="Elipse 4080" d="M76.484,0A76.484,76.484,0,1,1,0,76.484,76.484,76.484,0,0,1,76.484,0Z" transform="translate(760.504 2035.069)" fill="#dbfafa" stroke="#25ced1" stroke-width="2"/>
    <path id="Trazado_102166-2" data-name="Trazado 102166" d="M-3155.853-190.13a97.976,97.976,0,0,0-62.578,65.223A98.091,98.091,0,0,0-3151.99-3.133h0a98.1,98.1,0,0,0,121.78-66.44,97.633,97.633,0,0,0-1.044-58.687" transform="translate(3961.639 2208.793)" fill="none" stroke="#999" stroke-linecap="round" stroke-linejoin="round" stroke-width="3.171"/>
    <path id="Trazado_102167-2" data-name="Trazado 102167" d="M-3115.108-12.861l1.277,11.031a101.9,101.9,0,0,1-75.5-21.5,101.9,101.9,0,0,1-38.186-68.594l11.03-1.277A91.572,91.572,0,0,0-3115.108-12.861Z" transform="translate(3961.125 2218.578)" fill="#25ced1"/>
    <path id="Trazado_105772" data-name="Trazado 105772" d="M-5.887-3.7A4.107,4.107,0,0,1-7.23-.863,4.581,4.581,0,0,1-10.348.156a4.436,4.436,0,0,1-2.395-.645,4.231,4.231,0,0,1-1.6-1.832,6.611,6.611,0,0,1-.586-2.758V-6.141a6.659,6.659,0,0,1,.57-2.836,4.3,4.3,0,0,1,1.637-1.891,4.566,4.566,0,0,1,2.465-.664,4.4,4.4,0,0,1,3.031,1.02A4.26,4.26,0,0,1-5.887-7.625H-7.855a2.81,2.81,0,0,0-.715-1.77,2.363,2.363,0,0,0-1.684-.543A2.308,2.308,0,0,0-12.234-9a4.709,4.709,0,0,0-.707,2.764v1.009a5,5,0,0,0,.66,2.815,2.191,2.191,0,0,0,1.934.97A2.555,2.555,0,0,0-8.6-1.961,2.729,2.729,0,0,0-7.855-3.7ZM.746,0A2.93,2.93,0,0,1,.527-.789,2.955,2.955,0,0,1-1.691.156,2.982,2.982,0,0,1-3.77-.57a2.325,2.325,0,0,1-.8-1.8,2.4,2.4,0,0,1,1-2.074A4.865,4.865,0,0,1-.7-5.164H.465v-.555A1.481,1.481,0,0,0,.1-6.77,1.456,1.456,0,0,0-1.02-7.164a1.672,1.672,0,0,0-1.062.324,1,1,0,0,0-.414.824h-1.9a2.107,2.107,0,0,1,.461-1.3A3.071,3.071,0,0,1-2.68-8.266,4.4,4.4,0,0,1-.91-8.609a3.547,3.547,0,0,1,2.367.746,2.661,2.661,0,0,1,.906,2.1v3.813a4.321,4.321,0,0,0,.32,1.82V0ZM-1.34-1.367A2.159,2.159,0,0,0-.281-1.641a1.827,1.827,0,0,0,.746-.734V-3.969H-.559A2.8,2.8,0,0,0-2.145-3.6a1.189,1.189,0,0,0-.531,1.039,1.109,1.109,0,0,0,.363.871A1.407,1.407,0,0,0-1.34-1.367ZM9.09-2.3a.861.861,0,0,0-.418-.773,4.445,4.445,0,0,0-1.387-.469,7.129,7.129,0,0,1-1.617-.516A2.158,2.158,0,0,1,4.246-6.047a2.25,2.25,0,0,1,.922-1.828,3.644,3.644,0,0,1,2.344-.734,3.792,3.792,0,0,1,2.449.75,2.38,2.38,0,0,1,.934,1.945H9a1.17,1.17,0,0,0-.406-.91,1.557,1.557,0,0,0-1.078-.363,1.682,1.682,0,0,0-1.02.289.911.911,0,0,0-.395.773.769.769,0,0,0,.367.68,5.049,5.049,0,0,0,1.484.488A7.027,7.027,0,0,1,9.7-4.371a2.484,2.484,0,0,1,.945.816A2.082,2.082,0,0,1,10.957-2.4a2.2,2.2,0,0,1-.945,1.848A4.031,4.031,0,0,1,7.535.156,4.371,4.371,0,0,1,5.684-.219,3.047,3.047,0,0,1,4.418-1.25a2.441,2.441,0,0,1-.453-1.414H5.809a1.338,1.338,0,0,0,.508,1.035,1.973,1.973,0,0,0,1.242.363A1.92,1.92,0,0,0,8.7-1.551.883.883,0,0,0,9.09-2.3ZM14.629,0h-1.9V-8.453h1.9ZM12.613-10.656a1.02,1.02,0,0,1,.277-.732,1.043,1.043,0,0,1,.793-.291,1.056,1.056,0,0,1,.8.291,1.012,1.012,0,0,1,.281.732.988.988,0,0,1-.281.72,1.064,1.064,0,0,1-.8.287,1.051,1.051,0,0,1-.793-.287A1,1,0,0,1,12.613-10.656ZM-28.43,14.352h-4.406L-33.758,17h-2.055l4.3-11.375h1.773L-25.437,17H-27.5Zm-3.852-1.594h3.3l-1.648-4.719Zm11.422,2.883a1.716,1.716,0,0,0,1.18-.414,1.415,1.415,0,0,0,.5-1.023h1.789a2.789,2.789,0,0,1-.492,1.473,3.228,3.228,0,0,1-1.25,1.082,3.725,3.725,0,0,1-1.7.4,3.6,3.6,0,0,1-2.812-1.148,4.555,4.555,0,0,1-1.039-3.172v-.2a4.479,4.479,0,0,1,1.031-3.09,3.571,3.571,0,0,1,2.813-1.16,3.473,3.473,0,0,1,2.457.879,3.148,3.148,0,0,1,1,2.309H-19.18a1.738,1.738,0,0,0-.5-1.2,1.6,1.6,0,0,0-1.184-.469,1.671,1.671,0,0,0-1.422.668,3.408,3.408,0,0,0-.508,2.027v.3a3.465,3.465,0,0,0,.5,2.051A1.669,1.669,0,0,0-20.859,15.641Zm8.375,0a1.716,1.716,0,0,0,1.18-.414,1.415,1.415,0,0,0,.5-1.023h1.789a2.789,2.789,0,0,1-.492,1.473,3.228,3.228,0,0,1-1.25,1.082,3.725,3.725,0,0,1-1.7.4,3.6,3.6,0,0,1-2.812-1.148,4.555,4.555,0,0,1-1.039-3.172v-.2a4.479,4.479,0,0,1,1.031-3.09,3.571,3.571,0,0,1,2.813-1.16,3.473,3.473,0,0,1,2.457.879,3.148,3.148,0,0,1,1,2.309H-10.8a1.738,1.738,0,0,0-.5-1.2,1.6,1.6,0,0,0-1.184-.469,1.671,1.671,0,0,0-1.422.668,3.408,3.408,0,0,0-.508,2.027v.3a3.465,3.465,0,0,0,.5,2.051A1.669,1.669,0,0,0-12.484,15.641ZM-5.562,17h-1.9V8.547h1.9ZM-7.578,6.344A1.02,1.02,0,0,1-7.3,5.612a1.043,1.043,0,0,1,.793-.291,1.056,1.056,0,0,1,.8.291,1.012,1.012,0,0,1,.281.732.988.988,0,0,1-.281.72,1.064,1.064,0,0,1-.8.287A1.051,1.051,0,0,1-7.3,7.064,1,1,0,0,1-7.578,6.344Zm3.727,6.367a5.026,5.026,0,0,1,.906-3.137A2.9,2.9,0,0,1-.516,8.391a2.759,2.759,0,0,1,2.172.938V5h1.9V17H1.836l-.094-.875A2.8,2.8,0,0,1-.531,17.156a2.887,2.887,0,0,1-2.4-1.2A5.21,5.21,0,0,1-3.852,12.711Zm1.9.164a3.519,3.519,0,0,0,.5,2.012,1.61,1.61,0,0,0,1.41.723,1.793,1.793,0,0,0,1.7-1.039V10.961A1.766,1.766,0,0,0-.031,9.945a1.622,1.622,0,0,0-1.422.73A3.918,3.918,0,0,0-1.953,12.875ZM9.258,17.156A3.928,3.928,0,0,1,6.332,16.02a4.124,4.124,0,0,1-1.121-3.027v-.234A5.072,5.072,0,0,1,5.7,10.5,3.716,3.716,0,0,1,7.07,8.945a3.625,3.625,0,0,1,1.969-.555,3.318,3.318,0,0,1,2.668,1.1,4.658,4.658,0,0,1,.941,3.117v.766H7.125a2.539,2.539,0,0,0,.7,1.656,2.1,2.1,0,0,0,1.543.609,2.571,2.571,0,0,0,2.125-1.055l1.023.977a3.418,3.418,0,0,1-1.355,1.176A4.244,4.244,0,0,1,9.258,17.156ZM9.031,9.914a1.6,1.6,0,0,0-1.262.547,2.835,2.835,0,0,0-.613,1.523h3.617v-.141a2.307,2.307,0,0,0-.508-1.441A1.586,1.586,0,0,0,9.031,9.914Zm6.852-1.367.055.977A3.039,3.039,0,0,1,18.4,8.391q2.641,0,2.688,3.023V17h-1.9V11.523a1.741,1.741,0,0,0-.348-1.191A1.462,1.462,0,0,0,17.7,9.945a1.829,1.829,0,0,0-1.711,1.039V17h-1.9V8.547ZM25.4,6.492V8.547h1.492V9.953H25.4v4.719a1.039,1.039,0,0,0,.191.7.888.888,0,0,0,.684.215,2.925,2.925,0,0,0,.664-.078v1.469a4.676,4.676,0,0,1-1.25.18q-2.188,0-2.187-2.414V9.953H22.109V8.547H23.5V6.492Zm6.664,10.664a3.928,3.928,0,0,1-2.926-1.137,4.124,4.124,0,0,1-1.121-3.027v-.234A5.072,5.072,0,0,1,28.5,10.5a3.716,3.716,0,0,1,1.371-1.551,3.625,3.625,0,0,1,1.969-.555,3.318,3.318,0,0,1,2.668,1.1,4.658,4.658,0,0,1,.941,3.117v.766H29.93a2.539,2.539,0,0,0,.7,1.656,2.1,2.1,0,0,0,1.543.609A2.571,2.571,0,0,0,34.3,14.586l1.023.977a3.418,3.418,0,0,1-1.355,1.176A4.244,4.244,0,0,1,32.063,17.156Zm-.227-7.242a1.6,1.6,0,0,0-1.262.547,2.835,2.835,0,0,0-.613,1.523h3.617v-.141A2.307,2.307,0,0,0,33.07,10.4,1.586,1.586,0,0,0,31.836,9.914Z" transform="translate(838.354 2108.457)"/>
  </g>
</svg>
