<svg xmlns="http://www.w3.org/2000/svg" width="295.761" height="94.044" viewBox="0 0 295.761 94.044">
  <g id="Grupo_57928" data-name="Grupo 57928" transform="translate(-653 -1596)">
    <rect id="Rectángulo_5267-5" data-name="Rectángulo 5267-5" width="26.194" height="9.051" transform="translate(653.001 1596)" fill="#ff8a5b"/>
    <g id="Grupo_57927" data-name="Grupo 57927">
      <rect id="Rectángulo_5264-5" data-name="Rectángulo 5264-5" width="252.897" height="61.442" transform="translate(676.4 1614.476)" fill="#ffe8de"/>
      <rect id="Rectángulo_5265-5" data-name="Rectángulo 5265-5" width="290.201" height="89.194" transform="translate(657.799 1600.09)" fill="none" stroke="#ff8a5b" stroke-miterlimit="10" stroke-width="1.522"/>
      <rect id="Rectángulo_5266-5" data-name="Rectángulo 5266-5" width="9.051" height="26.194" transform="translate(653 1598.057)" fill="#ff8a5b"/>
      <g id="Descripción_Detallada_del_Escenario" data-name="Descripción Detallada del Escenario" transform="translate(-3060.524 438.967)" style="isolation: isolate">
        <path id="Trazado_105675" data-name="Trazado 105675" d="M-30.547-2.49h-4.366L-35.743,0h-2.648l4.5-12.086h2.308L-27.061,0h-2.648Zm-3.694-2.017h3.021l-1.519-4.524Zm11.887,2.739a1.573,1.573,0,0,0,1.079-.365,1.28,1.28,0,0,0,.432-.971h2.25a3.077,3.077,0,0,1-.5,1.673A3.286,3.286,0,0,1-20.432-.253a4.2,4.2,0,0,1-1.88.419,3.9,3.9,0,0,1-3.038-1.224,4.845,4.845,0,0,1-1.112-3.383V-4.6a4.79,4.79,0,0,1,1.1-3.312,3.854,3.854,0,0,1,3.03-1.237,3.778,3.778,0,0,1,2.7.959,3.4,3.4,0,0,1,1.033,2.552h-2.25a1.648,1.648,0,0,0-.432-1.139,1.439,1.439,0,0,0-1.1-.438,1.445,1.445,0,0,0-1.266.611,3.541,3.541,0,0,0-.427,1.983v.249a3.586,3.586,0,0,0,.423,2A1.463,1.463,0,0,0-22.354-1.768Zm8.865,0a1.573,1.573,0,0,0,1.079-.365,1.28,1.28,0,0,0,.432-.971h2.25a3.077,3.077,0,0,1-.5,1.673A3.286,3.286,0,0,1-11.567-.253a4.2,4.2,0,0,1-1.88.419,3.9,3.9,0,0,1-3.038-1.224A4.845,4.845,0,0,1-17.6-4.441V-4.6a4.79,4.79,0,0,1,1.1-3.312,3.854,3.854,0,0,1,3.03-1.237,3.778,3.778,0,0,1,2.7.959A3.4,3.4,0,0,1-9.729-5.636h-2.25a1.648,1.648,0,0,0-.432-1.139,1.439,1.439,0,0,0-1.1-.438,1.445,1.445,0,0,0-1.266.611A3.541,3.541,0,0,0-15.2-4.62v.249a3.586,3.586,0,0,0,.423,2A1.463,1.463,0,0,0-13.489-1.768ZM-5.827,0H-8.234V-8.981h2.407ZM-8.375-11.306a1.181,1.181,0,0,1,.361-.888,1.356,1.356,0,0,1,.984-.349,1.36,1.36,0,0,1,.979.349,1.175,1.175,0,0,1,.365.888,1.178,1.178,0,0,1-.369.9,1.363,1.363,0,0,1-.975.349,1.363,1.363,0,0,1-.975-.349A1.178,1.178,0,0,1-8.375-11.306Zm4.15,6.749A5.413,5.413,0,0,1-3.283-7.9,3.057,3.057,0,0,1-.706-9.147a2.751,2.751,0,0,1,2.167.979V-12.75H3.868V0H1.7L1.585-.955A2.823,2.823,0,0,1-.722.166,3.049,3.049,0,0,1-3.266-1.083,5.587,5.587,0,0,1-4.225-4.557Zm2.4.171a3.565,3.565,0,0,0,.44,1.943,1.432,1.432,0,0,0,1.278.675A1.6,1.6,0,0,0,1.461-2.71V-6.271A1.582,1.582,0,0,0-.091-7.213Q-1.826-7.213-1.826-4.386ZM9.861.166A4.409,4.409,0,0,1,6.645-1.046,4.308,4.308,0,0,1,5.4-4.275v-.232a5.426,5.426,0,0,1,.523-2.42A3.838,3.838,0,0,1,7.408-8.571,4.159,4.159,0,0,1,9.6-9.147a3.727,3.727,0,0,1,2.9,1.162,4.722,4.722,0,0,1,1.058,3.3v.979H7.836a2.229,2.229,0,0,0,.7,1.411,2.12,2.12,0,0,0,1.482.531,2.589,2.589,0,0,0,2.167-1l1.179,1.32A3.6,3.6,0,0,1,11.9-.261,4.793,4.793,0,0,1,9.861.166ZM9.587-7.213a1.5,1.5,0,0,0-1.158.484,2.5,2.5,0,0,0-.569,1.384H11.2v-.192a1.786,1.786,0,0,0-.432-1.238A1.547,1.547,0,0,0,9.587-7.213Zm7.537-1.768L17.2-7.944a3.136,3.136,0,0,1,2.582-1.2,2.606,2.606,0,0,1,2.125.838A3.912,3.912,0,0,1,22.62-5.8V0h-2.4V-5.757a1.562,1.562,0,0,0-.332-1.111,1.484,1.484,0,0,0-1.1-.345,1.65,1.65,0,0,0-1.519.865V0h-2.4V-8.981ZM27.31-11.189v2.208h1.536v1.76H27.31v4.482a1.07,1.07,0,0,0,.191.714.959.959,0,0,0,.73.216,3.826,3.826,0,0,0,.706-.058V-.05a4.939,4.939,0,0,1-1.453.216,2.29,2.29,0,0,1-2.573-2.548V-7.222H23.6v-1.76h1.312v-2.208ZM34.315.166A4.409,4.409,0,0,1,31.1-1.046a4.308,4.308,0,0,1-1.241-3.229v-.232a5.426,5.426,0,0,1,.523-2.42,3.838,3.838,0,0,1,1.482-1.644,4.159,4.159,0,0,1,2.187-.577,3.727,3.727,0,0,1,2.9,1.162,4.722,4.722,0,0,1,1.058,3.3v.979H32.29a2.229,2.229,0,0,0,.7,1.411,2.12,2.12,0,0,0,1.482.531,2.589,2.589,0,0,0,2.167-1l1.179,1.32A3.6,3.6,0,0,1,36.357-.261,4.793,4.793,0,0,1,34.315.166Zm-.274-7.379a1.5,1.5,0,0,0-1.158.484,2.5,2.5,0,0,0-.569,1.384h3.337v-.192a1.786,1.786,0,0,0-.432-1.238A1.547,1.547,0,0,0,34.042-7.213Z" transform="translate(3861.524 1211.675)" fill="#12263f"/>
      </g>
    </g>
  </g>
</svg>
