<svg xmlns="http://www.w3.org/2000/svg" width="1030.761" height="94.045" viewBox="0 0 1030.761 94.045">
  <g id="Grupo_57932" data-name="Grupo 57932" transform="translate(-285 -1596)">
    <g id="Grupo_55771-5" data-name="Grupo 55771-5" transform="translate(285 1596)">
      <rect id="Rectángulo_5264-5" data-name="Rectángulo 5264-5" width="252.897" height="61.442" transform="translate(23.401 18.476)" fill="#dbfafa"/>
      <rect id="Rectángulo_5265-5" data-name="Rectángulo 5265-5" width="290.201" height="89.194" transform="translate(4.799 4.09)" fill="none" stroke="#52d0d3" stroke-miterlimit="10" stroke-width="1.522"/>
      <rect id="Rectángulo_5266-5" data-name="Rectángulo 5266-5" width="9.051" height="26.194" transform="translate(0 2.057)" fill="#25ced1"/>
      <rect id="Rectángulo_5267-5" data-name="Rectángulo 5267-5" width="26.194" height="9.051" transform="translate(0.001)" fill="#25ced1"/>
    </g>
    <g id="Grupo_55771-5-2" data-name="Grupo 55771-5" transform="translate(1020 1596)">
      <path id="Rectángulo_5264-5-2" data-name="Rectángulo 5264-5" d="M0,0H252.9V61.442H0Z" transform="translate(23.401 18.476)" fill="#fce5e9"/>
      <rect id="Rectángulo_5265-5-2" data-name="Rectángulo 5265-5" width="290.201" height="89.194" transform="translate(4.799 4.09)" fill="none" stroke="#ea526f" stroke-miterlimit="10" stroke-width="1.522"/>
      <rect id="Rectángulo_5266-5-2" data-name="Rectángulo 5266-5" width="9.051" height="26.194" transform="translate(0 2.057)" fill="#ea526f"/>
      <rect id="Rectángulo_5267-5-2" data-name="Rectángulo 5267-5" width="26.194" height="9.051" transform="translate(0.001)" fill="#ea526f"/>
    </g>
    <g id="Grupo_55771-5-3" data-name="Grupo 55771-5" transform="translate(653 1596)">
      <rect id="Rectángulo_5264-5-3" data-name="Rectángulo 5264-5" width="252.897" height="61.442" transform="translate(23.401 18.476)" fill="#ffe8de"/>
      <rect id="Rectángulo_5265-5-3" data-name="Rectángulo 5265-5" width="290.201" height="89.194" transform="translate(4.799 4.09)" fill="none" stroke="#ff8a5b" stroke-miterlimit="10" stroke-width="1.522"/>
      <rect id="Rectángulo_5266-5-3" data-name="Rectángulo 5266-5" width="9.051" height="26.194" transform="translate(0 2.057)" fill="#ff8a5b"/>
      <rect id="Rectángulo_5267-5-3" data-name="Rectángulo 5267-5" width="26.194" height="9.051" transform="translate(0.001)" fill="#ff8a5b"/>
    </g>
    <path id="Trazado_105770" data-name="Trazado 105770" d="M-31.809,0H-34.3V-12.086h2.49Zm4.358-8.981.075,1.038a3.136,3.136,0,0,1,2.582-1.2,2.606,2.606,0,0,1,2.125.838A3.912,3.912,0,0,1-21.956-5.8V0h-2.4V-5.757a1.562,1.562,0,0,0-.332-1.111,1.484,1.484,0,0,0-1.1-.345,1.65,1.65,0,0,0-1.519.865V0h-2.4V-8.981ZM-16.4-1.768a1.573,1.573,0,0,0,1.079-.365,1.28,1.28,0,0,0,.432-.971h2.25a3.077,3.077,0,0,1-.5,1.673A3.286,3.286,0,0,1-14.481-.253a4.2,4.2,0,0,1-1.88.419A3.9,3.9,0,0,1-19.4-1.058a4.845,4.845,0,0,1-1.112-3.383V-4.6a4.79,4.79,0,0,1,1.1-3.312,3.854,3.854,0,0,1,3.03-1.237,3.778,3.778,0,0,1,2.7.959,3.4,3.4,0,0,1,1.033,2.552h-2.25a1.648,1.648,0,0,0-.432-1.139,1.439,1.439,0,0,0-1.1-.438,1.445,1.445,0,0,0-1.266.611,3.541,3.541,0,0,0-.427,1.983v.249a3.586,3.586,0,0,0,.423,2A1.463,1.463,0,0,0-16.4-1.768ZM-8.741,0h-2.407V-8.981h2.407Zm-2.548-11.306a1.181,1.181,0,0,1,.361-.888,1.356,1.356,0,0,1,.984-.349,1.36,1.36,0,0,1,.979.349,1.175,1.175,0,0,1,.365.888,1.178,1.178,0,0,1-.369.9,1.363,1.363,0,0,1-.975.349,1.363,1.363,0,0,1-.975-.349A1.178,1.178,0,0,1-11.289-11.306Zm4.15,6.749A5.413,5.413,0,0,1-6.2-7.9,3.057,3.057,0,0,1-3.619-9.147a2.751,2.751,0,0,1,2.167.979V-12.75H.955V0H-1.212l-.116-.955A2.823,2.823,0,0,1-3.636.166,3.049,3.049,0,0,1-6.18-1.083,5.587,5.587,0,0,1-7.139-4.557Zm2.4.171A3.565,3.565,0,0,0-4.3-2.444a1.432,1.432,0,0,0,1.278.675A1.6,1.6,0,0,0-1.453-2.71V-6.271A1.582,1.582,0,0,0-3-7.213Q-4.74-7.213-4.74-4.386ZM6.948.166A4.409,4.409,0,0,1,3.731-1.046,4.308,4.308,0,0,1,2.49-4.275v-.232a5.426,5.426,0,0,1,.523-2.42A3.838,3.838,0,0,1,4.495-8.571a4.159,4.159,0,0,1,2.187-.577,3.727,3.727,0,0,1,2.9,1.162,4.722,4.722,0,0,1,1.058,3.3v.979H4.922a2.229,2.229,0,0,0,.7,1.411,2.12,2.12,0,0,0,1.482.531,2.589,2.589,0,0,0,2.167-1l1.179,1.32A3.6,3.6,0,0,1,8.99-.261,4.793,4.793,0,0,1,6.948.166ZM6.674-7.213a1.5,1.5,0,0,0-1.158.484,2.5,2.5,0,0,0-.569,1.384H8.284v-.192a1.786,1.786,0,0,0-.432-1.238A1.547,1.547,0,0,0,6.674-7.213Zm7.537-1.768.075,1.038a3.136,3.136,0,0,1,2.582-1.2,2.606,2.606,0,0,1,2.125.838A3.912,3.912,0,0,1,19.706-5.8V0h-2.4V-5.757a1.562,1.562,0,0,0-.332-1.111,1.484,1.484,0,0,0-1.1-.345,1.65,1.65,0,0,0-1.519.865V0h-2.4V-8.981ZM24.4-11.189v2.208h1.536v1.76H24.4v4.482a1.07,1.07,0,0,0,.191.714.959.959,0,0,0,.73.216,3.826,3.826,0,0,0,.706-.058V-.05A4.939,4.939,0,0,1,24.57.166,2.29,2.29,0,0,1,22-2.382V-7.222H20.686v-1.76H22v-2.208ZM31.4.166a4.409,4.409,0,0,1-3.217-1.212,4.308,4.308,0,0,1-1.241-3.229v-.232a5.426,5.426,0,0,1,.523-2.42,3.838,3.838,0,0,1,1.482-1.644,4.159,4.159,0,0,1,2.187-.577,3.727,3.727,0,0,1,2.9,1.162A4.722,4.722,0,0,1,35.1-4.69v.979H29.376a2.229,2.229,0,0,0,.7,1.411,2.12,2.12,0,0,0,1.482.531,2.589,2.589,0,0,0,2.167-1L34.9-1.453A3.6,3.6,0,0,1,33.444-.261,4.793,4.793,0,0,1,31.4.166Zm-.274-7.379a1.5,1.5,0,0,0-1.158.484A2.5,2.5,0,0,0,29.4-5.346h3.337v-.192a1.786,1.786,0,0,0-.432-1.238A1.547,1.547,0,0,0,31.128-7.213Z" transform="translate(433 1650.642)" fill="#12263f"/>
    <path id="Trazado_105769" data-name="Trazado 105769" d="M-30.547-2.49h-4.366L-35.743,0h-2.648l4.5-12.086h2.308L-27.061,0h-2.648Zm-3.694-2.017h3.021l-1.519-4.524Zm11.887,2.739a1.573,1.573,0,0,0,1.079-.365,1.28,1.28,0,0,0,.432-.971h2.25a3.077,3.077,0,0,1-.5,1.673A3.286,3.286,0,0,1-20.432-.253a4.2,4.2,0,0,1-1.88.419,3.9,3.9,0,0,1-3.038-1.224,4.845,4.845,0,0,1-1.112-3.383V-4.6a4.79,4.79,0,0,1,1.1-3.312,3.854,3.854,0,0,1,3.03-1.237,3.778,3.778,0,0,1,2.7.959,3.4,3.4,0,0,1,1.033,2.552h-2.25a1.648,1.648,0,0,0-.432-1.139,1.439,1.439,0,0,0-1.1-.438,1.445,1.445,0,0,0-1.266.611,3.541,3.541,0,0,0-.427,1.983v.249a3.586,3.586,0,0,0,.423,2A1.463,1.463,0,0,0-22.354-1.768Zm8.865,0a1.573,1.573,0,0,0,1.079-.365,1.28,1.28,0,0,0,.432-.971h2.25a3.077,3.077,0,0,1-.5,1.673A3.286,3.286,0,0,1-11.567-.253a4.2,4.2,0,0,1-1.88.419,3.9,3.9,0,0,1-3.038-1.224A4.845,4.845,0,0,1-17.6-4.441V-4.6a4.79,4.79,0,0,1,1.1-3.312,3.854,3.854,0,0,1,3.03-1.237,3.778,3.778,0,0,1,2.7.959A3.4,3.4,0,0,1-9.729-5.636h-2.25a1.648,1.648,0,0,0-.432-1.139,1.439,1.439,0,0,0-1.1-.438,1.445,1.445,0,0,0-1.266.611A3.541,3.541,0,0,0-15.2-4.62v.249a3.586,3.586,0,0,0,.423,2A1.463,1.463,0,0,0-13.489-1.768ZM-5.827,0H-8.234V-8.981h2.407ZM-8.375-11.306a1.181,1.181,0,0,1,.361-.888,1.356,1.356,0,0,1,.984-.349,1.36,1.36,0,0,1,.979.349,1.175,1.175,0,0,1,.365.888,1.178,1.178,0,0,1-.369.9,1.363,1.363,0,0,1-.975.349,1.363,1.363,0,0,1-.975-.349A1.178,1.178,0,0,1-8.375-11.306Zm4.15,6.749A5.413,5.413,0,0,1-3.283-7.9,3.057,3.057,0,0,1-.706-9.147a2.751,2.751,0,0,1,2.167.979V-12.75H3.868V0H1.7L1.585-.955A2.823,2.823,0,0,1-.722.166,3.049,3.049,0,0,1-3.266-1.083,5.587,5.587,0,0,1-4.225-4.557Zm2.4.171a3.565,3.565,0,0,0,.44,1.943,1.432,1.432,0,0,0,1.278.675A1.6,1.6,0,0,0,1.461-2.71V-6.271A1.582,1.582,0,0,0-.091-7.213Q-1.826-7.213-1.826-4.386ZM9.861.166A4.409,4.409,0,0,1,6.645-1.046,4.308,4.308,0,0,1,5.4-4.275v-.232a5.426,5.426,0,0,1,.523-2.42A3.838,3.838,0,0,1,7.408-8.571,4.159,4.159,0,0,1,9.6-9.147a3.727,3.727,0,0,1,2.9,1.162,4.722,4.722,0,0,1,1.058,3.3v.979H7.836a2.229,2.229,0,0,0,.7,1.411,2.12,2.12,0,0,0,1.482.531,2.589,2.589,0,0,0,2.167-1l1.179,1.32A3.6,3.6,0,0,1,11.9-.261,4.793,4.793,0,0,1,9.861.166ZM9.587-7.213a1.5,1.5,0,0,0-1.158.484,2.5,2.5,0,0,0-.569,1.384H11.2v-.192a1.786,1.786,0,0,0-.432-1.238A1.547,1.547,0,0,0,9.587-7.213Zm7.537-1.768L17.2-7.944a3.136,3.136,0,0,1,2.582-1.2,2.606,2.606,0,0,1,2.125.838A3.912,3.912,0,0,1,22.62-5.8V0h-2.4V-5.757a1.562,1.562,0,0,0-.332-1.111,1.484,1.484,0,0,0-1.1-.345,1.65,1.65,0,0,0-1.519.865V0h-2.4V-8.981ZM27.31-11.189v2.208h1.536v1.76H27.31v4.482a1.07,1.07,0,0,0,.191.714.959.959,0,0,0,.73.216,3.826,3.826,0,0,0,.706-.058V-.05a4.939,4.939,0,0,1-1.453.216,2.29,2.29,0,0,1-2.573-2.548V-7.222H23.6v-1.76h1.312v-2.208ZM34.315.166A4.409,4.409,0,0,1,31.1-1.046a4.308,4.308,0,0,1-1.241-3.229v-.232a5.426,5.426,0,0,1,.523-2.42,3.838,3.838,0,0,1,1.482-1.644,4.159,4.159,0,0,1,2.187-.577,3.727,3.727,0,0,1,2.9,1.162,4.722,4.722,0,0,1,1.058,3.3v.979H32.29a2.229,2.229,0,0,0,.7,1.411,2.12,2.12,0,0,0,1.482.531,2.589,2.589,0,0,0,2.167-1l1.179,1.32A3.6,3.6,0,0,1,36.357-.261,4.793,4.793,0,0,1,34.315.166Zm-.274-7.379a1.5,1.5,0,0,0-1.158.484,2.5,2.5,0,0,0-.569,1.384h3.337v-.192a1.786,1.786,0,0,0-.432-1.238A1.547,1.547,0,0,0,34.042-7.213Z" transform="translate(801 1650.642)" fill="#12263f"/>
    <path id="Trazado_105768" data-name="Trazado 105768" d="M-23.57-4.258V0h-2.49V-12.086h4.715a5.455,5.455,0,0,1,2.395.5,3.67,3.67,0,0,1,1.59,1.415A3.946,3.946,0,0,1-16.8-8.085a3.47,3.47,0,0,1-1.216,2.8,5.065,5.065,0,0,1-3.366,1.025Zm0-2.017h2.225a2.187,2.187,0,0,0,1.507-.465,1.691,1.691,0,0,0,.519-1.328A1.994,1.994,0,0,0-19.843-9.5a1.953,1.953,0,0,0-1.444-.564H-23.57ZM-11.227.166a4.409,4.409,0,0,1-3.217-1.212,4.308,4.308,0,0,1-1.241-3.229v-.232a5.426,5.426,0,0,1,.523-2.42A3.838,3.838,0,0,1-13.68-8.571a4.159,4.159,0,0,1,2.187-.577,3.727,3.727,0,0,1,2.9,1.162,4.722,4.722,0,0,1,1.058,3.3v.979h-5.719a2.229,2.229,0,0,0,.7,1.411,2.12,2.12,0,0,0,1.482.531,2.589,2.589,0,0,0,2.167-1l1.179,1.32A3.6,3.6,0,0,1-9.185-.261,4.793,4.793,0,0,1-11.227.166ZM-11.5-7.213a1.5,1.5,0,0,0-1.158.484,2.5,2.5,0,0,0-.569,1.384H-9.89v-.192a1.786,1.786,0,0,0-.432-1.238A1.547,1.547,0,0,0-11.5-7.213ZM-3.64,0H-6.047V-12.75H-3.64ZM.867,0H-1.54V-8.981H.867ZM-1.681-11.306a1.181,1.181,0,0,1,.361-.888,1.356,1.356,0,0,1,.984-.349,1.36,1.36,0,0,1,.979.349,1.175,1.175,0,0,1,.365.888,1.178,1.178,0,0,1-.369.9,1.363,1.363,0,0,1-.975.349,1.363,1.363,0,0,1-.975-.349A1.178,1.178,0,0,1-1.681-11.306ZM2.494-4.557a5.264,5.264,0,0,1,.984-3.329A3.187,3.187,0,0,1,6.13-9.147a2.8,2.8,0,0,1,2.3,1.013l.1-.847H10.7V-.3a3.839,3.839,0,0,1-.535,2.05A3.439,3.439,0,0,1,8.662,3.08a5.3,5.3,0,0,1-2.274.457,4.925,4.925,0,0,1-1.926-.394A3.418,3.418,0,0,1,3.042,2.125L4.1.664a2.81,2.81,0,0,0,2.175,1,2.057,2.057,0,0,0,1.486-.51A1.915,1.915,0,0,0,8.3-.291V-.772A2.775,2.775,0,0,1,6.114.166,3.179,3.179,0,0,1,3.495-1.1a5.262,5.262,0,0,1-1-3.358Zm2.4.171a3.3,3.3,0,0,0,.49,1.922,1.557,1.557,0,0,0,1.345.7A1.665,1.665,0,0,0,8.3-2.594V-6.388a1.661,1.661,0,0,0-1.552-.826A1.566,1.566,0,0,0,5.387-6.5,3.715,3.715,0,0,0,4.893-4.386Zm12.7-2.345A6.517,6.517,0,0,0,16.73-6.8a1.757,1.757,0,0,0-1.785.921V0h-2.4V-8.981h2.266l.066,1.071a2.223,2.223,0,0,1,2-1.237,2.514,2.514,0,0,1,.747.108Zm.481,2.158a5.327,5.327,0,0,1,.515-2.382,3.768,3.768,0,0,1,1.482-1.619,4.323,4.323,0,0,1,2.245-.573,4.09,4.09,0,0,1,2.968,1.112,4.464,4.464,0,0,1,1.282,3.021l.017.614a4.694,4.694,0,0,1-1.154,3.316,4.011,4.011,0,0,1-3.1,1.249,4.031,4.031,0,0,1-3.1-1.245,4.777,4.777,0,0,1-1.158-3.387Zm2.4.17a3.357,3.357,0,0,0,.481,1.958,1.588,1.588,0,0,0,1.378.678,1.592,1.592,0,0,0,1.361-.669,3.674,3.674,0,0,0,.49-2.141,3.324,3.324,0,0,0-.49-1.945,1.592,1.592,0,0,0-1.378-.69,1.566,1.566,0,0,0-1.361.686A3.735,3.735,0,0,0,20.474-4.4Z" transform="translate(1168 1650.642)" fill="#12263f"/>
  </g>
</svg>
