<svg xmlns="http://www.w3.org/2000/svg" width="295.761" height="94.045" viewBox="0 0 295.761 94.045">
  <g id="Grupo_57926" data-name="Grupo 57926" transform="translate(-1020 -1596)">
    <g id="Grupo_55771-5" data-name="Grupo 55771-5" transform="translate(1020 1596)">
      <path id="Rectángulo_5264-5" data-name="Rectángulo 5264-5" d="M0,0H252.9V61.442H0Z" transform="translate(23.401 18.476)" fill="#fce5e9"/>
      <rect id="Rectángulo_5265-5" data-name="Rectángulo 5265-5" width="290.201" height="89.194" transform="translate(4.799 4.09)" fill="none" stroke="#ea526f" stroke-miterlimit="10" stroke-width="1.522"/>
      <rect id="Rectángulo_5266-5" data-name="Rectángulo 5266-5" width="9.051" height="26.194" transform="translate(0 2.057)" fill="#ea526f"/>
      <rect id="Rectángulo_5267-5" data-name="Rectángulo 5267-5" width="26.194" height="9.051" transform="translate(0.001)" fill="#ea526f"/>
    </g>
    <g id="Descripción_Detallada_del_Escenario" data-name="Descripción Detallada del Escenario" transform="translate(-2693.524 438.967)" style="isolation: isolate">
      <g id="Grupo_57925" data-name="Grupo 57925">
        <path id="Trazado_105676" data-name="Trazado 105676" d="M-23.57-4.258V0h-2.49V-12.086h4.715a5.455,5.455,0,0,1,2.395.5,3.67,3.67,0,0,1,1.59,1.415A3.946,3.946,0,0,1-16.8-8.085a3.47,3.47,0,0,1-1.216,2.8,5.065,5.065,0,0,1-3.366,1.025Zm0-2.017h2.225a2.187,2.187,0,0,0,1.507-.465,1.691,1.691,0,0,0,.519-1.328A1.994,1.994,0,0,0-19.843-9.5a1.953,1.953,0,0,0-1.444-.564H-23.57ZM-11.227.166a4.409,4.409,0,0,1-3.217-1.212,4.308,4.308,0,0,1-1.241-3.229v-.232a5.426,5.426,0,0,1,.523-2.42A3.838,3.838,0,0,1-13.68-8.571a4.159,4.159,0,0,1,2.187-.577,3.727,3.727,0,0,1,2.9,1.162,4.722,4.722,0,0,1,1.058,3.3v.979h-5.719a2.229,2.229,0,0,0,.7,1.411,2.12,2.12,0,0,0,1.482.531,2.589,2.589,0,0,0,2.167-1l1.179,1.32A3.6,3.6,0,0,1-9.185-.261,4.793,4.793,0,0,1-11.227.166ZM-11.5-7.213a1.5,1.5,0,0,0-1.158.484,2.5,2.5,0,0,0-.569,1.384H-9.89v-.192a1.786,1.786,0,0,0-.432-1.238A1.547,1.547,0,0,0-11.5-7.213ZM-3.64,0H-6.047V-12.75H-3.64ZM.867,0H-1.54V-8.981H.867ZM-1.681-11.306a1.181,1.181,0,0,1,.361-.888,1.356,1.356,0,0,1,.984-.349,1.36,1.36,0,0,1,.979.349,1.175,1.175,0,0,1,.365.888,1.178,1.178,0,0,1-.369.9,1.363,1.363,0,0,1-.975.349,1.363,1.363,0,0,1-.975-.349A1.178,1.178,0,0,1-1.681-11.306ZM2.494-4.557a5.264,5.264,0,0,1,.984-3.329A3.187,3.187,0,0,1,6.13-9.147a2.8,2.8,0,0,1,2.3,1.013l.1-.847H10.7V-.3a3.839,3.839,0,0,1-.535,2.05A3.439,3.439,0,0,1,8.662,3.08a5.3,5.3,0,0,1-2.274.457,4.925,4.925,0,0,1-1.926-.394A3.418,3.418,0,0,1,3.042,2.125L4.1.664a2.81,2.81,0,0,0,2.175,1,2.057,2.057,0,0,0,1.486-.51A1.915,1.915,0,0,0,8.3-.291V-.772A2.775,2.775,0,0,1,6.114.166,3.179,3.179,0,0,1,3.495-1.1a5.262,5.262,0,0,1-1-3.358Zm2.4.171a3.3,3.3,0,0,0,.49,1.922,1.557,1.557,0,0,0,1.345.7A1.665,1.665,0,0,0,8.3-2.594V-6.388a1.661,1.661,0,0,0-1.552-.826A1.566,1.566,0,0,0,5.387-6.5,3.715,3.715,0,0,0,4.893-4.386Zm12.7-2.345A6.517,6.517,0,0,0,16.73-6.8a1.757,1.757,0,0,0-1.785.921V0h-2.4V-8.981h2.266l.066,1.071a2.223,2.223,0,0,1,2-1.237,2.514,2.514,0,0,1,.747.108Zm.481,2.158a5.327,5.327,0,0,1,.515-2.382,3.768,3.768,0,0,1,1.482-1.619,4.323,4.323,0,0,1,2.245-.573,4.09,4.09,0,0,1,2.968,1.112,4.464,4.464,0,0,1,1.282,3.021l.017.614a4.694,4.694,0,0,1-1.154,3.316,4.011,4.011,0,0,1-3.1,1.249,4.031,4.031,0,0,1-3.1-1.245,4.777,4.777,0,0,1-1.158-3.387Zm2.4.17a3.357,3.357,0,0,0,.481,1.958,1.588,1.588,0,0,0,1.378.678,1.592,1.592,0,0,0,1.361-.669,3.674,3.674,0,0,0,.49-2.141,3.324,3.324,0,0,0-.49-1.945,1.592,1.592,0,0,0-1.378-.69,1.566,1.566,0,0,0-1.361.686A3.735,3.735,0,0,0,20.474-4.4Z" transform="translate(3861.524 1211.675)" fill="#12263f"/>
      </g>
    </g>
  </g>
</svg>
