<svg xmlns="http://www.w3.org/2000/svg" width="295.761" height="94.045" viewBox="0 0 295.761 94.045">
  <g id="Grupo_57929" data-name="Grupo 57929" transform="translate(-285 -1596)">
    <g id="Grupo_55771-5" data-name="Grupo 55771-5" transform="translate(285 1596)">
      <rect id="Rectángulo_5264-5" data-name="Rectángulo 5264-5" width="252.897" height="61.442" transform="translate(23.401 18.476)" fill="#dbfafa"/>
      <rect id="Rectángulo_5265-5" data-name="Rectángulo 5265-5" width="290.201" height="89.194" transform="translate(4.799 4.09)" fill="none" stroke="#52d0d3" stroke-miterlimit="10" stroke-width="1.522"/>
      <rect id="Rectángulo_5266-5" data-name="Rectángulo 5266-5" width="9.051" height="26.194" transform="translate(0 2.057)" fill="#25ced1"/>
      <rect id="Rectángulo_5267-5" data-name="Rectángulo 5267-5" width="26.194" height="9.051" transform="translate(0.001)" fill="#25ced1"/>
    </g>
    <path id="Trazado_105674" data-name="Trazado 105674" d="M-31.809,0H-34.3V-12.086h2.49Zm4.358-8.981.075,1.038a3.136,3.136,0,0,1,2.582-1.2,2.606,2.606,0,0,1,2.125.838A3.912,3.912,0,0,1-21.956-5.8V0h-2.4V-5.757a1.562,1.562,0,0,0-.332-1.111,1.484,1.484,0,0,0-1.1-.345,1.65,1.65,0,0,0-1.519.865V0h-2.4V-8.981ZM-16.4-1.768a1.573,1.573,0,0,0,1.079-.365,1.28,1.28,0,0,0,.432-.971h2.25a3.077,3.077,0,0,1-.5,1.673A3.286,3.286,0,0,1-14.481-.253a4.2,4.2,0,0,1-1.88.419A3.9,3.9,0,0,1-19.4-1.058a4.845,4.845,0,0,1-1.112-3.383V-4.6a4.79,4.79,0,0,1,1.1-3.312,3.854,3.854,0,0,1,3.03-1.237,3.778,3.778,0,0,1,2.7.959,3.4,3.4,0,0,1,1.033,2.552h-2.25a1.648,1.648,0,0,0-.432-1.139,1.439,1.439,0,0,0-1.1-.438,1.445,1.445,0,0,0-1.266.611,3.541,3.541,0,0,0-.427,1.983v.249a3.586,3.586,0,0,0,.423,2A1.463,1.463,0,0,0-16.4-1.768ZM-8.741,0h-2.407V-8.981h2.407Zm-2.548-11.306a1.181,1.181,0,0,1,.361-.888,1.356,1.356,0,0,1,.984-.349,1.36,1.36,0,0,1,.979.349,1.175,1.175,0,0,1,.365.888,1.178,1.178,0,0,1-.369.9,1.363,1.363,0,0,1-.975.349,1.363,1.363,0,0,1-.975-.349A1.178,1.178,0,0,1-11.289-11.306Zm4.15,6.749A5.413,5.413,0,0,1-6.2-7.9,3.057,3.057,0,0,1-3.619-9.147a2.751,2.751,0,0,1,2.167.979V-12.75H.955V0H-1.212l-.116-.955A2.823,2.823,0,0,1-3.636.166,3.049,3.049,0,0,1-6.18-1.083,5.587,5.587,0,0,1-7.139-4.557Zm2.4.171A3.565,3.565,0,0,0-4.3-2.444a1.432,1.432,0,0,0,1.278.675A1.6,1.6,0,0,0-1.453-2.71V-6.271A1.582,1.582,0,0,0-3-7.213Q-4.74-7.213-4.74-4.386ZM6.948.166A4.409,4.409,0,0,1,3.731-1.046,4.308,4.308,0,0,1,2.49-4.275v-.232a5.426,5.426,0,0,1,.523-2.42A3.838,3.838,0,0,1,4.495-8.571a4.159,4.159,0,0,1,2.187-.577,3.727,3.727,0,0,1,2.9,1.162,4.722,4.722,0,0,1,1.058,3.3v.979H4.922a2.229,2.229,0,0,0,.7,1.411,2.12,2.12,0,0,0,1.482.531,2.589,2.589,0,0,0,2.167-1l1.179,1.32A3.6,3.6,0,0,1,8.99-.261,4.793,4.793,0,0,1,6.948.166ZM6.674-7.213a1.5,1.5,0,0,0-1.158.484,2.5,2.5,0,0,0-.569,1.384H8.284v-.192a1.786,1.786,0,0,0-.432-1.238A1.547,1.547,0,0,0,6.674-7.213Zm7.537-1.768.075,1.038a3.136,3.136,0,0,1,2.582-1.2,2.606,2.606,0,0,1,2.125.838A3.912,3.912,0,0,1,19.706-5.8V0h-2.4V-5.757a1.562,1.562,0,0,0-.332-1.111,1.484,1.484,0,0,0-1.1-.345,1.65,1.65,0,0,0-1.519.865V0h-2.4V-8.981ZM24.4-11.189v2.208h1.536v1.76H24.4v4.482a1.07,1.07,0,0,0,.191.714.959.959,0,0,0,.73.216,3.826,3.826,0,0,0,.706-.058V-.05A4.939,4.939,0,0,1,24.57.166,2.29,2.29,0,0,1,22-2.382V-7.222H20.686v-1.76H22v-2.208ZM31.4.166a4.409,4.409,0,0,1-3.217-1.212,4.308,4.308,0,0,1-1.241-3.229v-.232a5.426,5.426,0,0,1,.523-2.42,3.838,3.838,0,0,1,1.482-1.644,4.159,4.159,0,0,1,2.187-.577,3.727,3.727,0,0,1,2.9,1.162A4.722,4.722,0,0,1,35.1-4.69v.979H29.376a2.229,2.229,0,0,0,.7,1.411,2.12,2.12,0,0,0,1.482.531,2.589,2.589,0,0,0,2.167-1L34.9-1.453A3.6,3.6,0,0,1,33.444-.261,4.793,4.793,0,0,1,31.4.166Zm-.274-7.379a1.5,1.5,0,0,0-1.158.484A2.5,2.5,0,0,0,29.4-5.346h3.337v-.192a1.786,1.786,0,0,0-.432-1.238A1.547,1.547,0,0,0,31.128-7.213Z" transform="translate(433 1650.642)" fill="#12263f"/>
  </g>
</svg>
