<svg xmlns="http://www.w3.org/2000/svg" xmlns:xlink="http://www.w3.org/1999/xlink" width="820" height="144.122" viewBox="0 0 820 144.122">
  <defs>
    <linearGradient id="linear-gradient" y1="0.5" x2="1" y2="0.5" gradientUnits="objectBoundingBox">
      <stop offset="0" stop-color="#fff"/>
      <stop offset="1" stop-color="#f2f2f2"/>
    </linearGradient>
  </defs>
  <g id="Grupo_57925" data-name="Grupo 57925" transform="translate(-390 -1246.04)">
    <g id="Grupo_57924" data-name="Grupo 57924" transform="translate(1518.762 788.824)">
      <path id="Trazado_105668" data-name="Trazado 105668" d="M-597.346,521.688l-72.15-60.159a9.89,9.89,0,0,0-16.224,7.6v19.967a46.293,46.293,0,0,0-9.646-1.02H-781.2L-793.23,570.5h97.935a46.12,46.12,0,0,0,9.575-1.021v19.968a9.89,9.89,0,0,0,16.224,7.6l72.15-60.159A9.891,9.891,0,0,0-597.346,521.688Z" transform="translate(-1.142 -0.007)" fill="url(#linear-gradient)"/>
      <path id="Trazado_105669" data-name="Trazado 105669" d="M-596.087,520.15l-72.149-60.159a11.777,11.777,0,0,0-12.65-1.635,11.776,11.776,0,0,0-6.844,10.762v17.456h-93.754a1.994,1.994,0,0,0-1.993,1.993,1.993,1.993,0,0,0,1.993,1.993h95.747a1.993,1.993,0,0,0,1.993-1.993v-19.45a7.726,7.726,0,0,1,4.548-7.152,7.728,7.728,0,0,1,8.4,1.086l72.151,60.159a7.877,7.877,0,0,1,2.838,6.064,7.875,7.875,0,0,1-2.839,6.065l-72.15,60.159a7.725,7.725,0,0,1-8.4,1.086,7.727,7.727,0,0,1-4.548-7.152V571.17c0-.054-.011-.1-.016-.155s.016-.1.016-.156a1.993,1.993,0,0,0-1.993-1.993l-112.3.534c-1.1,0,2.046.358,2.046,1.459s-3.218,1.48-2.117,1.48l110.377.513v16.583a11.776,11.776,0,0,0,6.844,10.762,11.942,11.942,0,0,0,5.069,1.14,11.806,11.806,0,0,0,7.581-2.776l72.148-60.159a11.845,11.845,0,0,0,4.273-9.127A11.847,11.847,0,0,0-596.087,520.15Z" transform="translate(-1.125 0)" fill="#ff8a5b"/>
      <path id="Trazado_105670" data-name="Trazado 105670" d="M-312.178,521.688l-72.149-60.159a9.89,9.89,0,0,0-16.224,7.6v19.967a46.285,46.285,0,0,0-9.646-1.02h-79.851L-502.081,570.5h91.955a46.113,46.113,0,0,0,9.575-1.021v19.968a9.89,9.89,0,0,0,16.224,7.6l72.149-60.159A9.891,9.891,0,0,0-312.178,521.688Z" transform="translate(-2.134 -0.007)" fill="url(#linear-gradient)"/>
      <path id="Trazado_105671" data-name="Trazado 105671" d="M-310.939,520.15l-72.15-60.159a11.775,11.775,0,0,0-12.649-1.635,11.775,11.775,0,0,0-6.845,10.762v17.456h-90.764a1.994,1.994,0,0,0-1.993,1.993,1.993,1.993,0,0,0,1.993,1.993h92.757a1.993,1.993,0,0,0,1.993-1.993v-19.45a7.726,7.726,0,0,1,4.548-7.152,7.728,7.728,0,0,1,8.4,1.086l72.151,60.159a7.878,7.878,0,0,1,2.839,6.064,7.876,7.876,0,0,1-2.84,6.065l-72.15,60.159a7.725,7.725,0,0,1-8.4,1.086,7.727,7.727,0,0,1-4.548-7.152V571.17c0-.054-.011-.1-.015-.155s.015-.1.015-.156a1.993,1.993,0,0,0-1.993-1.993l-112.3.534c-1.1,0,2.046.358,2.046,1.459s-3.217,1.48-2.117,1.48l110.377.513v16.583a11.775,11.775,0,0,0,6.845,10.762,11.934,11.934,0,0,0,5.068,1.14,11.806,11.806,0,0,0,7.581-2.776L-310.94,538.4a11.846,11.846,0,0,0,4.274-9.127A11.848,11.848,0,0,0-310.939,520.15Z" transform="translate(-2.096 0)" fill="#25ced1"/>
      <path id="Trazado_103017" data-name="Trazado 103017" d="M-1107.8,505.76h-.259l-15.975,7.474-3.22-14.433,22.162-10.127h16.233v82.291H-1107.8Z" transform="translate(-0.005 -0.107)" fill="#ea526f" opacity="0.2" style="isolation: isolate"/>
      <path id="Trazado_103018" data-name="Trazado 103018" d="M-1088.872,572.437a1.5,1.5,0,0,1-1.5-1.478V490.141h-14.4l-20.766,9.492,2.558,11.461,14.27-6.671a1.511,1.511,0,0,1,.646-.142h.257a1.488,1.488,0,0,1,1.5,1.475h0v65.2a1.5,1.5,0,0,1-1.5,1.5,1.5,1.5,0,0,1-1.5-1.5h0V507.97l-14.083,6.585a1.537,1.537,0,0,1-1.307-.007,1.49,1.49,0,0,1-.808-1.008l-3.22-14.434a1.471,1.471,0,0,1,.834-1.654l22.161-10.125a1.492,1.492,0,0,1,.633-.137h16.235a1.488,1.488,0,0,1,1.495,1.47v82.291a1.5,1.5,0,0,1-1.495,1.485Z" transform="translate(0 -0.102)" fill="#ea526f"/>
      <path id="Trazado_103019" data-name="Trazado 103019" d="M-986.386,572.859h-102.353a1.477,1.477,0,0,1-1.515-1.438,1.477,1.477,0,0,1,1.438-1.515h102.43" transform="translate(-0.131 -0.384)" fill="#ea526f"/>
      <path id="Trazado_105672" data-name="Trazado 105672" d="M-891.272,521.688l-72.149-60.159a9.89,9.89,0,0,0-16.224,7.6v19.967a46.287,46.287,0,0,0-9.646-1.02h-85.831l-12.034,82.425h97.935a46.114,46.114,0,0,0,9.575-1.021v19.968a9.89,9.89,0,0,0,16.224,7.6l72.149-60.159A9.891,9.891,0,0,0-891.272,521.688Z" transform="translate(-0.142 -0.007)" fill="url(#linear-gradient)"/>
      <g id="Grupo_54975" data-name="Grupo 54975" transform="translate(-560.149 484.63)">
        <path id="Trazado_103013" data-name="Trazado 103013" d="M-552.819,550.8c3.407,1.766,11.229,5.047,19.051,5.047,9.966,0,15.014-4.795,15.014-10.977,0-8.072-8.073-11.733-16.528-11.733H-543.1V519.382h7.445c6.434-.127,14.635-2.524,14.635-9.468,0-4.921-4.037-8.58-12.112-8.58-6.687,0-13.753,2.9-17.158,4.921l-3.91-13.878c4.919-3.153,14.761-6.179,25.358-6.179,17.535,0,27.25,9.21,27.25,20.438,0,8.705-4.92,15.518-15.012,19.05v.253c9.84,1.765,17.789,9.21,17.789,19.932,0,14.508-12.742,25.106-33.559,25.106-10.6,0-19.554-2.776-24.349-5.8Z" transform="translate(558.201 -484.729)" fill="#25ced1" opacity="0.2" style="isolation: isolate"/>
        <path id="Trazado_103015" data-name="Trazado 103015" d="M-532.385,572.451c-11.49,0-20.518-3.115-25.135-6.031a1.473,1.473,0,0,1-.634-1.63l3.91-14.383a1.47,1.47,0,0,1,1.8-1.034,1.441,1.441,0,0,1,.3.117c1.573.815,9.845,4.883,18.373,4.883,8.352,0,13.543-3.643,13.543-9.5,0-7.574-8.111-10.265-15.057-10.265H-543.1a1.472,1.472,0,0,1-1.472-1.472h0V519.377a1.47,1.47,0,0,1,1.47-1.472h7.447c1.32-.026,13.163-.474,13.163-7.991,0-4.45-3.978-7.108-10.641-7.108-6.685,0-13.653,3.089-16.408,4.715a1.471,1.471,0,0,1-2.015-.515,1.47,1.47,0,0,1-.15-.353l-3.91-13.878a1.472,1.472,0,0,1,.622-1.637c4.983-3.189,15-6.414,26.153-6.414,19.84,0,28.723,11,28.723,21.91,0,8.344-4.32,14.931-12.258,18.876,9.145,3.127,15.043,10.913,15.043,20.36a24.852,24.852,0,0,1-.552,5.25,1.473,1.473,0,0,1-1.792,1.06,1.474,1.474,0,0,1-1.083-1.684,21.927,21.927,0,0,0,.485-4.626c0-10.714-8.326-17-16.577-18.484a1.473,1.473,0,0,1-1.211-1.448v-.253a1.472,1.472,0,0,1,.989-1.388c9.178-3.21,14.027-9.319,14.027-17.661,0-11.345-10.36-18.966-25.778-18.966-9.824,0-18.854,2.7-23.637,5.393l3.106,11.023c3.708-1.873,10-4.22,16.244-4.22,10.015,0,13.583,5.191,13.583,10.05,0,7.838-8.66,10.788-16.077,10.936h-6V531.66h6.35c8.959,0,18,4.085,18,13.2,0,7.562-6.471,12.448-16.485,12.448-7.5,0-14.755-2.88-18.1-4.419L-555,564.479c4.371,2.43,12.525,5.026,22.632,5.026a1.473,1.473,0,0,1,1.433,1.51,1.472,1.472,0,0,1-1.433,1.433Z" transform="translate(558.206 -484.724)" fill="#25ced1"/>
        <path id="Trazado_103016" data-name="Trazado 103016" d="M-508.168,572.74h-24.1a1.47,1.47,0,0,1-1.509-1.433,1.472,1.472,0,0,1,1.433-1.51h24.171" transform="translate(558.123 -485.014)" fill="#25ced1"/>
      </g>
      <g id="Grupo_53884" data-name="Grupo 53884" transform="translate(-853.392 486.141)">
        <g id="Grupo_54978" data-name="Grupo 54978">
          <path id="Trazado_103021" data-name="Trazado 103021" d="M-850.968,570.96v-11.59l10.656-9.567c18.009-16,26.765-25.191,27.021-34.763,0-6.677-4.06-11.966-13.574-11.966-7.1,0-13.319,3.527-17.633,6.8l-5.454-13.727c6.216-4.66,15.856-8.439,27.02-8.439,18.646,0,28.922,10.833,28.922,25.7,0,13.729-10.021,24.687-21.945,35.269l-7.611,6.3v.25h31.079v15.747Z" transform="translate(852.446 -486.245)" fill="#ff8a5b" opacity="0.2" style="isolation: isolate"/>
          <path id="Trazado_103023" data-name="Trazado 103023" d="M-792.492,572.427h-58.48a1.474,1.474,0,0,1-1.479-1.469V559.368a1.467,1.467,0,0,1,.485-1.09l10.656-9.567c18.16-16.128,26.3-24.82,26.534-33.713,0-6.731-4.3-10.459-12.095-10.459-5.423,0-11.054,2.187-16.734,6.5a1.482,1.482,0,0,1-1.3.25,1.468,1.468,0,0,1-.979-.876l-5.455-13.73a1.463,1.463,0,0,1,.485-1.711c7.4-5.551,17.577-8.735,27.911-8.735,18.468,0,30.4,10.664,30.4,27.163,0,14.461-10.785,26.023-22.439,36.363l-4.817,3.986h27.3a1.47,1.47,0,0,1,1.473,1.465,1.47,1.47,0,0,1-1.465,1.473h-31.087a1.473,1.473,0,0,1-1.48-1.468h0v-.25a1.463,1.463,0,0,1,.533-1.129l7.61-6.3c12.84-11.391,21.414-21.574,21.414-34.138,0-14.943-10.517-24.226-27.443-24.226-9.287,0-18.408,2.718-25.223,7.487l4.33,10.9c5.688-3.956,11.385-5.962,16.96-5.962,9.422,0,15.049,5.023,15.049,13.436-.266,10.016-8.7,19.153-27.515,35.857l-10.165,9.129V569.5H-792.5a1.47,1.47,0,0,1,1.435,1.5,1.469,1.469,0,0,1-1.427,1.435h-.008Z" transform="translate(852.451 -486.24)" fill="#ff8a5b"/>
          <path id="Trazado_103024" data-name="Trazado 103024" d="M-800.635,572.711a1.468,1.468,0,0,1-1.479-1.458,1.471,1.471,0,0,1,1.459-1.48h.013" transform="translate(852.28 -486.524)" fill="#ff8a5b"/>
        </g>
      </g>
      <path id="Trazado_105673" data-name="Trazado 105673" d="M-890.005,520.15l-72.149-60.159a11.777,11.777,0,0,0-12.65-1.635,11.776,11.776,0,0,0-6.844,10.762v17.456H-1075.4a1.994,1.994,0,0,0-1.993,1.993,1.993,1.993,0,0,0,1.993,1.993h95.747a1.993,1.993,0,0,0,1.993-1.993v-19.45a7.726,7.726,0,0,1,4.549-7.152,7.728,7.728,0,0,1,8.4,1.086l72.152,60.159a7.877,7.877,0,0,1,2.838,6.064,7.875,7.875,0,0,1-2.839,6.065L-964.709,595.5a7.725,7.725,0,0,1-8.4,1.086,7.727,7.727,0,0,1-4.549-7.152V571.17c0-.054-.011-.1-.016-.155s.016-.1.016-.156a1.993,1.993,0,0,0-1.993-1.993h-108.26a1.993,1.993,0,0,0-1.993,1.993,1.994,1.994,0,0,0,1.993,1.993h106.267v16.583A11.776,11.776,0,0,0-974.8,600.2a11.942,11.942,0,0,0,5.069,1.14,11.807,11.807,0,0,0,7.581-2.776l72.148-60.159a11.845,11.845,0,0,0,4.273-9.127A11.847,11.847,0,0,0-890.005,520.15Z" transform="translate(-0.132 0)" fill="#ea526f"/>
    </g>
    <g id="Guía_de_Implementación_del_escenario" data-name="Guía de Implementación del escenario" transform="translate(-3529.835 112.07)" style="isolation: isolate">
      <text id="Creación_de_valor_Valor_agregado_" data-name="Creación de valor
(Valor agregado)" transform="translate(4277.225 1201.675)" fill="#151615" font-size="16" font-family="Roboto-Bold, Roboto" font-weight="700" style="isolation: isolate"><tspan x="0" y="0">Creación de valor</tspan><tspan x="0" y="20.4">(Valor agregado)</tspan></text>
    </g>
    <path id="Trazado_105674" data-name="Trazado 105674" d="M-19.1,0h-2.344V-11.375H-19.1ZM-15-8.453l.07.977A2.951,2.951,0,0,1-12.5-8.609a2.453,2.453,0,0,1,2,.789,3.682,3.682,0,0,1,.672,2.359V0h-2.258V-5.419A1.47,1.47,0,0,0-12.4-6.464a1.4,1.4,0,0,0-1.039-.325,1.553,1.553,0,0,0-1.43.814V0h-2.258V-8.453Zm14.492,4.3A5.07,5.07,0,0,1-1.395-1.02,2.843,2.843,0,0,1-3.789.156a2.633,2.633,0,0,1-2.07-.891V3.25H-8.117v-11.7h2.094l.078.828A2.654,2.654,0,0,1-3.8-8.609a2.862,2.862,0,0,1,2.43,1.156A5.207,5.207,0,0,1-.508-4.266Zm-2.258-.172a3.345,3.345,0,0,0-.418-1.826A1.36,1.36,0,0,0-4.4-6.789a1.478,1.478,0,0,0-1.461.815V-2.5a1.5,1.5,0,0,0,1.477.839Q-2.766-1.664-2.766-4.321ZM5.953-.859A2.831,2.831,0,0,1,3.641.156,2.67,2.67,0,0,1,1.566-.625a3.335,3.335,0,0,1-.73-2.289V-8.453H3.094v5.467q0,1.322,1.2,1.322a1.63,1.63,0,0,0,1.578-.8V-8.453H8.141V0H6.016Zm6.594-9.672v2.078h1.445V-6.8H12.547v4.219a1.007,1.007,0,0,0,.18.672.9.9,0,0,0,.688.2,3.6,3.6,0,0,0,.664-.055V-.047a4.648,4.648,0,0,1-1.367.2,2.156,2.156,0,0,1-2.422-2.4V-6.8H9.055V-8.453h1.234v-2.078Zm7.281,8.2a.727.727,0,0,0-.41-.652A4.659,4.659,0,0,0,18.1-3.414q-3.016-.633-3.016-2.562a2.323,2.323,0,0,1,.934-1.879,3.766,3.766,0,0,1,2.441-.754,4.053,4.053,0,0,1,2.574.758A2.388,2.388,0,0,1,22-5.883H19.742a1.092,1.092,0,0,0-.312-.8A1.322,1.322,0,0,0,18.453-7a1.351,1.351,0,0,0-.883.258.814.814,0,0,0-.312.656.7.7,0,0,0,.355.605,3.657,3.657,0,0,0,1.2.4,9.8,9.8,0,0,1,1.422.379A2.336,2.336,0,0,1,22.023-2.43a2.2,2.2,0,0,1-.992,1.871,4.28,4.28,0,0,1-2.562.715,4.47,4.47,0,0,1-1.887-.379,3.166,3.166,0,0,1-1.293-1.039,2.414,2.414,0,0,1-.469-1.426h2.141a1.179,1.179,0,0,0,.445.922,1.766,1.766,0,0,0,1.109.32,1.635,1.635,0,0,0,.98-.246A.766.766,0,0,0,19.828-2.336ZM-36.344,15.775a11.99,11.99,0,0,1,.477-3.406,8.989,8.989,0,0,1,1.406-2.863,5.251,5.251,0,0,1,2.016-1.73l.438,1.219A5.438,5.438,0,0,0-33.789,11.6a12.082,12.082,0,0,0-.641,4.125v.242a12.313,12.313,0,0,0,.633,4.141,5.544,5.544,0,0,0,1.789,2.648l-.437,1.2a5.253,5.253,0,0,1-1.98-1.684,8.838,8.838,0,0,1-1.4-2.785,11.918,11.918,0,0,1-.516-3.3Zm12.508-.32h-4.5v3.063h5.281V20.4H-30.68V9.025h7.609v1.9h-5.266v2.711h4.5Zm4.086-3.508.07.977a2.951,2.951,0,0,1,2.43-1.133,2.453,2.453,0,0,1,2,.789,3.682,3.682,0,0,1,.672,2.359V20.4h-2.258V14.981a1.47,1.47,0,0,0-.312-1.045,1.4,1.4,0,0,0-1.039-.325,1.553,1.553,0,0,0-1.43.814V20.4h-2.258V11.947Zm9.586-2.078v2.078h1.445V13.6h-1.445v4.219a1.007,1.007,0,0,0,.18.672.9.9,0,0,0,.688.2,3.6,3.6,0,0,0,.664-.055v1.711a4.648,4.648,0,0,1-1.367.2,2.156,2.156,0,0,1-2.422-2.4V13.6h-1.234V11.947h1.234V9.869Zm7.453,4.2A6.134,6.134,0,0,0-3.523,14a1.654,1.654,0,0,0-1.68.867V20.4H-7.461V11.947h2.133l.063,1.008a2.092,2.092,0,0,1,1.883-1.164,2.366,2.366,0,0,1,.7.1ZM3.039,20.4a2.507,2.507,0,0,1-.227-.758,2.732,2.732,0,0,1-2.133.914,3,3,0,0,1-2.059-.719A2.312,2.312,0,0,1-2.2,18.025a2.389,2.389,0,0,1,1-2.062,4.915,4.915,0,0,1,2.879-.727H2.719v-.484a1.393,1.393,0,0,0-.3-.937,1.183,1.183,0,0,0-.949-.352,1.345,1.345,0,0,0-.895.273.929.929,0,0,0-.324.75H-2.008a2.268,2.268,0,0,1,.453-1.359,3,3,0,0,1,1.281-.98,4.669,4.669,0,0,1,1.859-.355,3.689,3.689,0,0,1,2.48.785,2.747,2.747,0,0,1,.918,2.207v3.664a4.041,4.041,0,0,0,.336,1.82V20.4ZM1.172,18.83a1.945,1.945,0,0,0,.922-.223,1.462,1.462,0,0,0,.625-.6V16.556H1.875q-1.7,0-1.8,1.172l-.008.133a.9.9,0,0,0,.3.7A1.153,1.153,0,0,0,1.172,18.83Zm5.2-2.719a5.094,5.094,0,0,1,.887-3.148A2.877,2.877,0,0,1,9.68,11.791a2.589,2.589,0,0,1,2.039.922V8.4h2.266v12H11.945l-.109-.9a2.657,2.657,0,0,1-2.172,1.055A2.869,2.869,0,0,1,7.27,19.38,5.258,5.258,0,0,1,6.367,16.111Zm2.258.161A3.355,3.355,0,0,0,9.039,18.1a1.348,1.348,0,0,0,1.2.636,1.51,1.51,0,0,0,1.477-.887V14.5a1.489,1.489,0,0,0-1.461-.887Q8.625,13.611,8.625,16.272ZM20.633,20.4a2.507,2.507,0,0,1-.227-.758,2.732,2.732,0,0,1-2.133.914,3,3,0,0,1-2.059-.719,2.312,2.312,0,0,1-.816-1.812,2.389,2.389,0,0,1,1-2.062,4.915,4.915,0,0,1,2.879-.727h1.039v-.484a1.393,1.393,0,0,0-.3-.937,1.183,1.183,0,0,0-.949-.352,1.345,1.345,0,0,0-.895.273.929.929,0,0,0-.324.75H15.586a2.268,2.268,0,0,1,.453-1.359,3,3,0,0,1,1.281-.98,4.669,4.669,0,0,1,1.859-.355,3.689,3.689,0,0,1,2.48.785,2.747,2.747,0,0,1,.918,2.207v3.664a4.041,4.041,0,0,0,.336,1.82V20.4Zm-1.867-1.57a1.945,1.945,0,0,0,.922-.223,1.462,1.462,0,0,0,.625-.6V16.556h-.844q-1.7,0-1.8,1.172l-.008.133a.9.9,0,0,0,.3.7A1.153,1.153,0,0,0,18.766,18.83Zm10.125-.766a.727.727,0,0,0-.41-.652,4.659,4.659,0,0,0-1.316-.426q-3.016-.633-3.016-2.562a2.323,2.323,0,0,1,.934-1.879,3.766,3.766,0,0,1,2.441-.754,4.053,4.053,0,0,1,2.574.758,2.388,2.388,0,0,1,.965,1.969H28.8a1.092,1.092,0,0,0-.312-.8,1.322,1.322,0,0,0-.977-.316,1.351,1.351,0,0,0-.883.258.814.814,0,0,0-.312.656.7.7,0,0,0,.355.605,3.657,3.657,0,0,0,1.2.4A9.8,9.8,0,0,1,29.3,15.7a2.336,2.336,0,0,1,1.789,2.273,2.2,2.2,0,0,1-.992,1.871,4.28,4.28,0,0,1-2.562.715,4.47,4.47,0,0,1-1.887-.379,3.166,3.166,0,0,1-1.293-1.039,2.414,2.414,0,0,1-.469-1.426h2.141a1.179,1.179,0,0,0,.445.922,1.766,1.766,0,0,0,1.109.32,1.635,1.635,0,0,0,.98-.246A.766.766,0,0,0,28.891,18.064Zm7.539-2.109a11.377,11.377,0,0,1-.508,3.4,9.225,9.225,0,0,1-1.461,2.883,5.264,5.264,0,0,1-2.039,1.719l-.437-1.2a5.494,5.494,0,0,0,1.75-2.578,11.939,11.939,0,0,0,.664-4.008v-.414a12.208,12.208,0,0,0-.637-4.117A5.727,5.727,0,0,0,31.984,8.97l.438-1.2a5.265,5.265,0,0,1,2,1.672,9.106,9.106,0,0,1,1.461,2.82A11.3,11.3,0,0,1,36.43,15.6Z" transform="translate(512 1311.744)" fill="#151615"/>
    <g id="Guía_de_Instalación_de_Docker" data-name="Guía de Instalación de Docker" transform="translate(1082.321 1302.457)">
      <g id="Grupo_53883" data-name="Grupo 53883" transform="translate(0 0)">
        <text id="Outputs_Salida_" data-name="Outputs
(Salida)" transform="translate(23 12)" fill="#151615" font-size="16" font-family="Roboto-Bold, Roboto" font-weight="700" style="isolation: isolate"><tspan x="-28.5" y="0">Outputs</tspan><tspan x="-27.875" y="21">(Salida)</tspan></text>
      </g>
    </g>
  </g>
</svg>
