<svg xmlns="http://www.w3.org/2000/svg" width="235.001" height="196" viewBox="0 0 235.001 196">
  <g id="Grupo_57363" data-name="Grupo 57363" transform="translate(-2034.096 1278.203)">
    <rect id="Rectángulo_5479" data-name="Rectángulo 5479" width="235" height="196" transform="translate(2034.096 -1278.203)" fill="#ffe8de"/>
    <path id="Trazado_103788" data-name="Trazado 103788" d="M2089.988-1184.4c-1.1.628-33.5,20.123-55.892,33.6v68.592h201.468l10.185-66.646S2091.677-1185.362,2089.988-1184.4Z" fill="#ffcbb5"/>
    <g id="Grupo_57282" data-name="Grupo 57282">
      <g id="Grupo_57278" data-name="Grupo 57278">
        <path id="Trazado_103789" data-name="Trazado 103789" d="M2138.748-1215.476l6.2-3.577a3.228,3.228,0,0,1,3.244.326,10.134,10.134,0,0,1,4.586,7.943,3.229,3.229,0,0,1-1.342,2.971l-6.195,3.575Z" fill="#16a89f"/>
        <path id="Trazado_103790" data-name="Trazado 103790" d="M2146.578-1207.2a10.135,10.135,0,0,0-4.59-7.948c-2.533-1.462-4.584-.279-4.583,2.652a10.14,10.14,0,0,0,4.587,7.944C2144.526-1203.1,2146.578-1204.281,2146.578-1207.2Z" fill="#24d2c1"/>
        <path id="Trazado_103791" data-name="Trazado 103791" d="M2145.948-1207.569a8.724,8.724,0,0,0-3.957-6.853c-2.184-1.267-3.957-.243-3.957,2.284a8.746,8.746,0,0,0,3.958,6.855C2144.177-1204.024,2145.951-1205.048,2145.948-1207.569Z" fill="#0a8074"/>
      </g>
      <g id="Grupo_57280" data-name="Grupo 57280">
        <path id="Trazado_103792" data-name="Trazado 103792" d="M2087.987-1197.6l45.8-26.442c2.1-1.215,5-1.039,8.2.81,6.4,3.691,11.591,12.686,11.59,20.073,0,3.7-1.3,6.294-3.4,7.508l-45.8,26.439Z" fill="#ff8400"/>
        <g id="Grupo_57279" data-name="Grupo 57279">
          <path id="Trazado_103793" data-name="Trazado 103793" d="M2089.448-1198.446h0c9.386-5.417,25.493,11.667,22.28,24.986h0l.5-.286c14.914-12.419-2.141-36.618-9.132-32.581Z" opacity="0.05"/>
          <path id="Trazado_103794" data-name="Trazado 103794" d="M2103.984-1206.838h0c9.384-5.418,25.489,11.67,22.279,24.986h0l.5-.283c14.918-12.421-2.135-36.621-9.127-32.583Z" opacity="0.05"/>
          <path id="Trazado_103795" data-name="Trazado 103795" d="M2118.833-1215.411h0c9.387-5.419,25.491,11.669,22.277,24.987h0l.5-.287c14.916-12.42-2.139-36.618-9.129-32.582Z" opacity="0.05"/>
          <path id="Trazado_103796" data-name="Trazado 103796" d="M2090.125-1198.837c.465.138.916.3,1.37.484a10.89,10.89,0,0,1,4.689,1.561c6.4,3.693,11.59,12.686,11.59,20.074,0,3.692-1.3,6.285-3.39,7.5l9.89-5.711c6.993-4.035-5.445-30.9-23.654-24.195Z" opacity="0.05"/>
          <path id="Trazado_103797" data-name="Trazado 103797" d="M2115.156-1175.439h0c9.386-5.419,2.641-27.909-10.5-31.787h0l.5-.292c18.212-6.706,30.641,20.163,23.652,24.2Z" opacity="0.05"/>
          <path id="Trazado_103798" data-name="Trazado 103798" d="M2130.009-1184.015h0c9.385-5.419,2.638-27.906-10.5-31.784h0l.5-.294c18.21-6.7,30.642,20.162,23.649,24.2Z" opacity="0.05"/>
          <path id="Trazado_103799" data-name="Trazado 103799" d="M2141.984-1223.235c-2.982-1.721-5.7-1.989-7.755-1.038,13.121,3.906,19.847,26.363,10.47,31.777h0l5.5-3.175c2.09-1.211,3.377-3.8,3.377-7.491a23.678,23.678,0,0,0-3.4-11.424A23.654,23.654,0,0,0,2141.984-1223.235Z" opacity="0.05"/>
        </g>
        <path id="Trazado_103800" data-name="Trazado 103800" d="M2107.774-1176.718c0-7.388-5.192-16.381-11.59-20.074s-11.59-.7-11.588,6.691,5.186,16.38,11.589,20.074S2107.771-1169.324,2107.774-1176.718Z" fill="#ff9d26"/>
      </g>
      <g id="Grupo_57281" data-name="Grupo 57281">
        <path id="Trazado_103801" data-name="Trazado 103801" d="M2086.74-1185.451l6.2-3.575a3.223,3.223,0,0,1,3.247.324,10.138,10.138,0,0,1,4.586,7.945,3.224,3.224,0,0,1-1.344,2.97l-6.2,3.577Z" fill="#16a89f"/>
        <path id="Trazado_103802" data-name="Trazado 103802" d="M2094.574-1177.181a10.151,10.151,0,0,0-4.588-7.948c-2.536-1.461-4.588-.276-4.588,2.654a10.136,10.136,0,0,0,4.586,7.943C2092.52-1173.07,2094.573-1174.255,2094.574-1177.181Z" fill="#24d2c1"/>
        <path id="Trazado_103803" data-name="Trazado 103803" d="M2093.946-1177.545a8.759,8.759,0,0,0-3.958-6.855c-2.188-1.263-3.961-.238-3.961,2.288a8.74,8.74,0,0,0,3.957,6.854C2092.171-1174,2093.944-1175.022,2093.946-1177.545Z" fill="#0a8074"/>
      </g>
    </g>
    <g id="Grupo_57287" data-name="Grupo 57287">
      <g id="Grupo_57283" data-name="Grupo 57283">
        <path id="Trazado_103804" data-name="Trazado 103804" d="M2201.951-1156.3v3.25c0,3.329,2.2,6.655,6.6,9.188,8.773,5.076,23.027,5.073,31.814,0,4.385-2.533,6.587-5.855,6.59-9.188l0-3.245Z" fill="#ba6000"/>
        <path id="Trazado_103805" data-name="Trazado 103805" d="M2240.368-1147.115c-8.786,5.077-23.038,5.081-31.83,0s-8.781-13.3.016-18.371c8.773-5.072,23.027-5.072,31.814,0S2249.155-1152.189,2240.368-1147.115Z" fill="#ff9d26"/>
        <path id="Trazado_103806" data-name="Trazado 103806" d="M2231.658-1152.136a15.931,15.931,0,0,1-14.4,0c-3.979-2.294-3.979-6.018,0-8.316a15.892,15.892,0,0,1,14.4,0C2235.634-1158.16,2235.634-1154.432,2231.658-1152.136Z" fill="#ba6000"/>
      </g>
      <g id="Grupo_57285" data-name="Grupo 57285">
        <path id="Trazado_103807" data-name="Trazado 103807" d="M2242.193-1213.82v57.2c0,2.624-1.728,5.241-5.191,7.238-6.919,4-18.149,4-25.068,0-3.462-2-5.194-4.614-5.194-7.238l0-57.2Z" fill="#e31b25"/>
        <g id="Grupo_57284" data-name="Grupo 57284">
          <path id="Trazado_103808" data-name="Trazado 103808" d="M2242.193-1211.994h0c0,11.722-24.712,17.566-35.451,7.358h0l0,.619c3.565,20.683,35.453,17.8,35.453,9.072Z" opacity="0.05"/>
          <path id="Trazado_103809" data-name="Trazado 103809" d="M2242.193-1193.844h0c0,11.724-24.712,17.566-35.451,7.358h0l0,.621c3.565,20.685,35.453,17.8,35.453,9.069Z" opacity="0.05"/>
          <path id="Trazado_103810" data-name="Trazado 103810" d="M2242.193-1175.294h0c0,11.716-24.712,17.562-35.451,7.351h0l0,.623c3.565,20.686,35.453,17.8,35.453,9.067Z" opacity="0.05"/>
          <path id="Trazado_103811" data-name="Trazado 103811" d="M2242.193-1211.15a15.554,15.554,0,0,1-1.192,1.018,11.832,11.832,0,0,1-4,3.553c-6.919,3.995-18.149,3.995-25.068,0-3.458-1.994-5.186-4.611-5.192-7.227v12.35c0,8.729,31.889,11.616,35.454-9.07Z" opacity="0.05"/>
          <path id="Trazado_103812" data-name="Trazado 103812" d="M2206.742-1200.357h0c0,11.726,24.714,17.567,35.451,7.353h0l0,.626c-3.565,20.686-35.454,17.8-35.454,9.071Z" opacity="0.05"/>
          <path id="Trazado_103813" data-name="Trazado 103813" d="M2206.742-1181.813h0c0,11.723,24.714,17.565,35.451,7.36h0l0,.622c-3.565,20.684-35.454,17.8-35.454,9.065Z" opacity="0.05"/>
          <path id="Trazado_103814" data-name="Trazado 103814" d="M2237-1149.383c3.225-1.863,4.947-4.26,5.167-6.7-10.754,10.179-35.427,4.334-35.427-7.376h0v6.866c.008,2.608,1.739,5.221,5.192,7.213a25.6,25.6,0,0,0,12.538,3A25.576,25.576,0,0,0,2237-1149.383Z" opacity="0.05"/>
        </g>
        <path id="Trazado_103815" data-name="Trazado 103815" d="M2211.934-1206.582c6.919,4,18.149,4,25.068,0s6.924-10.48,0-14.476-18.146-3.995-25.068,0S2205.009-1210.577,2211.934-1206.582Z" fill="#ff3f4a"/>
      </g>
      <g id="Grupo_57286" data-name="Grupo 57286">
        <path id="Trazado_103816" data-name="Trazado 103816" d="M2201.951-1213.623v3.251c0,3.329,2.2,6.653,6.6,9.187,8.773,5.075,23.027,5.073,31.814,0,4.385-2.534,6.587-5.856,6.59-9.187l0-3.245Z" fill="#ba6000"/>
        <path id="Trazado_103817" data-name="Trazado 103817" d="M2240.368-1204.436c-8.786,5.074-23.038,5.083-31.83.007s-8.781-13.3.016-18.373c8.773-5.074,23.027-5.074,31.814,0S2249.155-1209.508,2240.368-1204.436Z" fill="#ff9d26"/>
        <path id="Trazado_103818" data-name="Trazado 103818" d="M2231.658-1209.458a15.919,15.919,0,0,1-14.4,0c-3.979-2.3-3.979-6.019,0-8.317a15.9,15.9,0,0,1,14.4,0C2235.634-1215.482,2235.634-1211.755,2231.658-1209.458Z" fill="#ba6000"/>
      </g>
    </g>
    <g id="Grupo_57291" data-name="Grupo 57291">
      <path id="Trazado_103819" data-name="Trazado 103819" d="M2086.7-1147.191a24.6,24.6,0,0,1-12.119-2.921c-3.42-1.973-5.3-4.652-5.305-7.543s1.883-5.585,5.305-7.564a24.64,24.64,0,0,1,12.119-2.906,24.646,24.646,0,0,1,12.115,2.906c3.425,1.979,5.308,4.664,5.305,7.564s-1.885,5.57-5.305,7.543A24.605,24.605,0,0,1,2086.7-1147.191Z" opacity="0.3"/>
      <path id="Trazado_103820" data-name="Trazado 103820" d="M2095.79-1259.566a7.868,7.868,0,0,1,4.1,8.159v40.434c-6.625,1.509-9.182-3.314-9.182-3.314v-37.5s-.867-5.853,1.523-7.78A4.114,4.114,0,0,1,2095.79-1259.566Z" fill="#ff8400"/>
      <g id="Grupo_57288" data-name="Grupo 57288">
        <path id="Trazado_103821" data-name="Trazado 103821" d="M2071.056-1159.6a10.552,10.552,0,0,1,4.006-3.782c6.425-3.7,16.846-3.7,23.269,0a10.531,10.531,0,0,1,4.015,3.782h.808v1.925c0,2.441-1.609,4.872-4.823,6.731-6.423,3.709-16.844,3.709-23.269,0-3.211-1.859-4.818-4.29-4.818-6.72v-1.936Z" fill="#939598"/>
        <path id="Trazado_103822" data-name="Trazado 103822" d="M2075.062-1152.889c6.425,3.719,16.846,3.719,23.269,0,6.432-3.7,6.432-9.713,0-13.427s-16.844-3.715-23.269,0S2068.639-1156.593,2075.062-1152.889Z" fill="#bcbec0"/>
        <path id="Trazado_103823" data-name="Trazado 103823" d="M2084.8-1158.5a4.257,4.257,0,0,0,3.792,0,1.165,1.165,0,0,0,0-2.2,4.257,4.257,0,0,0-3.792,0A1.165,1.165,0,0,0,2084.8-1158.5Z" fill="#535359"/>
      </g>
      <g id="Grupo_57289" data-name="Grupo 57289">
        <path id="Trazado_103824" data-name="Trazado 103824" d="M2085.222-1202.538a.919.919,0,0,1,.378-.347,2.387,2.387,0,0,1,2.2,0,.915.915,0,0,1,.377.347h.075v42.739a.77.77,0,0,1-.452.636,2.455,2.455,0,0,1-2.2,0,.779.779,0,0,1-.453-.636v-42.739Z" fill="#bdaf83"/>
        <path id="Trazado_103825" data-name="Trazado 103825" d="M2085.6-1201.906a2.43,2.43,0,0,0,2.2,0,.668.668,0,0,0,0-1.265,2.455,2.455,0,0,0-2.2,0A.668.668,0,0,0,2085.6-1201.906Z" fill="#e6dab0"/>
      </g>
      <path id="Trazado_103826" data-name="Trazado 103826" d="M2081.334-1250.727v12.946l16.028-.845s-.761-9.713-.761-12.4c0-7.232-4.378-6.087-4.134-5.845C2091.488-1252.929,2081.334-1250.727,2081.334-1250.727Z" fill="#bcbec0"/>
      <path id="Trazado_103827" data-name="Trazado 103827" d="M2090.56-1251.878a32.209,32.209,0,0,1,2.417,11.755l2.813-1.245s-1.5-6.675-4.357-11.028c-.171-.524-.727-.259-.727-.259A2.068,2.068,0,0,0,2090.56-1251.878Z" fill="#9c251f"/>
      <path id="Trazado_103828" data-name="Trazado 103828" d="M2092.062-1255.375v-3.05h-10.728v7.7S2092.485-1251.542,2092.062-1255.375Z" fill="#121214"/>
      <path id="Trazado_103829" data-name="Trazado 103829" d="M2094.339-1241.321s2.94-9.812-1.326-13.872c-.1-.115-.865.03-.951-.182l.011-3.176-.357-.969c.328-.035.515-.046.515-.046s10.576,5.279,10.576,19.567c0,2.362-1,10.946-.567,36.284-7.9,5.43-7.9-5.719-7.9-5.719s-3.054-5.135-3.054-15.391S2094.339-1241.321,2094.339-1241.321Z" fill="#ff8400"/>
      <g id="Grupo_57290" data-name="Grupo 57290">
        <path id="Trazado_103830" data-name="Trazado 103830" d="M2090.493-1256.236a8.391,8.391,0,0,1-7.585,0c-2.095-1.211-2.095-3.169,0-4.382a8.429,8.429,0,0,1,7.585,0C2092.589-1259.405,2092.589-1257.447,2090.493-1256.236Z" fill="#535359"/>
      </g>
      <path id="Trazado_103831" data-name="Trazado 103831" d="M2073.125-1248.542a43.562,43.562,0,0,1,7.26-6.786c6.432,2.652,7.424,10.221,13.954,14.007a210.607,210.607,0,0,1,0,31.887c0,22.256-22.118,14.411-21.214,9.077l2.1-17.79Z" fill="#ff8400"/>
      <path id="Trazado_103832" data-name="Trazado 103832" d="M2094.339-1241.321c1.951,14.139.03,31.514.03,31.514S2095.212-1226.462,2094.339-1241.321Z" fill="#ba6000"/>
      <path id="Trazado_103833" data-name="Trazado 103833" d="M2085.7-1213.309a19.6,19.6,0,0,0,.634,4.073c-3.135,1.238-7.362,0-7.362,0v-2.322Z" fill="#ba6000"/>
      <path id="Trazado_103834" data-name="Trazado 103834" d="M2085.7-1209.412a14.269,14.269,0,0,1-8.66-1.152l.425-3.723a19.1,19.1,0,0,0,8.235.978A10.251,10.251,0,0,0,2085.7-1209.412Z" fill="#ff8400"/>
      <path id="Trazado_103835" data-name="Trazado 103835" d="M2079.858-1240.672l1.476,46.024-1.521-.275-2.08-2.315Z" fill="#ba6000"/>
      <path id="Trazado_103836" data-name="Trazado 103836" d="M2075.223-1248.608c5.438,1.412,4.591,8.8,4.591,8.8v45.412c-6.624,1.518-9.18-3.316-9.18-3.316V-1240.2S2069.779-1250.033,2075.223-1248.608Z" fill="#ff8400"/>
      <path id="Trazado_103837" data-name="Trazado 103837" d="M2089.112-1252.92l1.448,1.041.873-.518.05-1.818-1.306.115Z" fill="#e31b25"/>
      <path id="Trazado_103838" data-name="Trazado 103838" d="M2081.334-1257.955a9.111,9.111,0,0,0-.949,2.627s1.493,4.6,8.59,4.7a7.771,7.771,0,0,0,1.2-3.477S2082.751-1253.09,2081.334-1257.955Z" fill="#f5f5f5"/>
      <path id="Trazado_103839" data-name="Trazado 103839" d="M2090.176-1254.1c1.962-1.093,1.89-3.938,1.89-3.938s1.989,2.565,1.511,4.989C2092.119-1252.827,2090.176-1254.1,2090.176-1254.1Z" fill="#f5f5f5"/>
      <path id="Trazado_103840" data-name="Trazado 103840" d="M2093.278-1221.384a1.113,1.113,0,0,1-.505.868c-.268.157-.495.027-.495-.29a1.113,1.113,0,0,1,.495-.865C2093.055-1221.836,2093.278-1221.7,2093.278-1221.384Z" fill="#121214"/>
      <path id="Trazado_103841" data-name="Trazado 103841" d="M2093.278-1215.707a1.1,1.1,0,0,1-.505.865c-.268.155-.495.026-.495-.291a1.12,1.12,0,0,1,.495-.864C2093.055-1216.154,2093.278-1216.028,2093.278-1215.707Z" fill="#121214"/>
      <path id="Trazado_103842" data-name="Trazado 103842" d="M2097.137-1223.609a1.121,1.121,0,0,1-.5.867c-.282.154-.5.025-.5-.291a1.086,1.086,0,0,1,.5-.865C2096.909-1224.052,2097.137-1223.934,2097.137-1223.609Z" fill="#121214"/>
      <path id="Trazado_103843" data-name="Trazado 103843" d="M2097.137-1217.935a1.109,1.109,0,0,1-.5.865c-.282.165-.5.036-.5-.284a1.09,1.09,0,0,1,.5-.867C2096.909-1218.38,2097.137-1218.256,2097.137-1217.935Z" fill="#121214"/>
    </g>
    <g id="Grupo_57362" data-name="Grupo 57362">
      <g id="Grupo_57299" data-name="Grupo 57299">
        <path id="Trazado_103844" data-name="Trazado 103844" d="M2159.609-1132.928l-49.218-28.415v-41.028l49.218,28.415Z" fill="#ffaf53"/>
        <g id="Grupo_57292" data-name="Grupo 57292">
          <path id="Trazado_103845" data-name="Trazado 103845" d="M2139.959-1177.659l11.657,6.723v-3.423l-11.657-6.723Z" fill="#3576ab"/>
          <path id="Trazado_103846" data-name="Trazado 103846" d="M2146.154-1177.615l-.6-.306v3.484l-5.6-3.222v-3.424l-.324-.2v3.827l11.981,6.916v-.4l-5.462-3.155Z" fill="#2b5e85"/>
          <path id="Trazado_103847" data-name="Trazado 103847" d="M2145.8-1177.716l-.2-.115v3.824l-5.966-3.445v-3.827l-.205-.113v4.037l12.187,7.036v-.217l-5.814-3.351Z" fill="#303033"/>
          <path id="Trazado_103848" data-name="Trazado 103848" d="M2139.259-1177.215l12.549,7.249v-4.471l-12.549-7.242Zm6.342-.617,6.015,3.473v4.04l-6.015-3.473Zm-6.171-3.56,6.01,3.471v4.039l-6.01-3.473Z" fill="#121214"/>
          <path id="Trazado_103849" data-name="Trazado 103849" d="M2138.867-1176.989l.393-.227v-4.464l-.393.228Z" fill="#ba793d"/>
          <path id="Trazado_103850" data-name="Trazado 103850" d="M2138.867-1176.989l12.548,7.245.2-.335-12.357-7.136Z" fill="#ffc37d"/>
          <path id="Trazado_103851" data-name="Trazado 103851" d="M2139.283-1181.7l13.67,6.3-1.125,5.416-.413.245v-4.463l-12.548-7.244Z" fill="#ffaf53"/>
        </g>
        <g id="Grupo_57293" data-name="Grupo 57293">
          <path id="Trazado_103852" data-name="Trazado 103852" d="M2118.076-1190.3l11.653,6.728V-1187l-11.653-6.727Z" fill="#3576ab"/>
          <path id="Trazado_103853" data-name="Trazado 103853" d="M2124.264-1190.255l-.594-.312v3.485l-5.594-3.222v-3.424l-.329-.2v3.826l11.981,6.923v-.4l-5.465-3.16Z" fill="#2b5e85"/>
          <path id="Trazado_103854" data-name="Trazado 103854" d="M2123.913-1190.357l-.2-.116v3.822l-5.963-3.446v-3.826l-.205-.114V-1190l12.187,7.032v-.208l-5.816-3.357Z" fill="#303033"/>
          <path id="Trazado_103855" data-name="Trazado 103855" d="M2117.367-1189.858l12.551,7.245v-4.47l-12.551-7.242Zm6.344-.615,6.018,3.472v4.034l-6.018-3.467Zm-6.169-3.565,6.012,3.471v4.042l-6.012-3.474Z" fill="#121214"/>
          <path id="Trazado_103856" data-name="Trazado 103856" d="M2116.976-1189.634l.391-.224v-4.467l-.391.231Z" fill="#ba793d"/>
          <path id="Trazado_103857" data-name="Trazado 103857" d="M2116.976-1189.634l12.55,7.249.2-.336-12.362-7.137Z" fill="#ffc37d"/>
          <path id="Trazado_103858" data-name="Trazado 103858" d="M2117.4-1194.343l13.548,6.467-1,5.244-.417.248v-4.464l-12.55-7.245Z" fill="#ffaf53"/>
        </g>
        <path id="Trazado_103859" data-name="Trazado 103859" d="M2226.152-1143.392l-57.58,33.244v-41.026l57.58-33.243Z" fill="#ba793d"/>
        <g id="Grupo_57294" data-name="Grupo 57294">
          <path id="Trazado_103860" data-name="Trazado 103860" d="M2221.79-1144.528l-22.281,12.863v.345l22.581-13.032-.125-.273Z" fill="#ffc37d"/>
          <path id="Trazado_103861" data-name="Trazado 103861" d="M2222.089-1144.352v-12.213l-.3.175v11.862Z" fill="#ffaf53"/>
          <path id="Trazado_103862" data-name="Trazado 103862" d="M2199.509-1143.53l.008,11.5.206.141,21.979-12.706-.01-11.437-.1-.249Z" fill="#2b5e85"/>
          <path id="Trazado_103863" data-name="Trazado 103863" d="M2199.517-1132.03l3.777-2.166v-11.518l.126-.075v11.52l4.662-2.691v-11.521l.129-.071v11.516l4.66-2.691v-11.518l.132-.075v11.518h0l4.665-2.693v-11.518l.124-.072v11.515h0l3.692-2.13v-11.513l.2-.117v11.739l-22.165,12.817Z" fill="#303033"/>
          <path id="Trazado_103864" data-name="Trazado 103864" d="M2199.509-1131.889l3.889-2.244v-11.645l.129-.071v11.643l4.66-2.693v-11.642l.133-.071v11.641l4.66-2.692v-11.644l.128-.071v11.638h0l4.663-2.692v-11.644l.131-.073v11.644l3.688-2.132v-11.644l.2-.109v11.862l-22.281,12.863v-.224Z" fill="#121214"/>
        </g>
        <g id="Grupo_57295" data-name="Grupo 57295">
          <path id="Trazado_103865" data-name="Trazado 103865" d="M2194.912-1158.122l-22.277,12.864v.345l22.577-13.033-.124-.271Z" fill="#ffc37d"/>
          <path id="Trazado_103866" data-name="Trazado 103866" d="M2195.212-1157.946v-5.262l-.3.174v4.911Z" fill="#ffaf53"/>
          <path id="Trazado_103867" data-name="Trazado 103867" d="M2172.634-1150.175v4.692l.08.076,22.11-12.783-.008-4.484-.1-.249Z" fill="#2b5e85"/>
          <path id="Trazado_103868" data-name="Trazado 103868" d="M2172.639-1145.621l3.776-2.166v-4.568l.127-.075v4.567l4.662-2.689v-4.571l.127-.071v4.565l4.666-2.692v-4.565l.124-.076v4.567h0l4.666-2.691v-4.568l.129-.072v4.565h0l3.688-2.134v-4.56l.2-.116v4.788l-22.163,12.815Z" fill="#303033"/>
          <path id="Trazado_103869" data-name="Trazado 103869" d="M2172.634-1145.483l3.886-2.243v-4.694l.129-.071v4.692l4.663-2.695v-4.693l.128-.071v4.692l4.662-2.688v-4.7l.13-.076v4.7h0l4.662-2.7v-4.692l.128-.075v4.7l3.691-2.135v-4.691l.2-.11v4.911l-22.277,12.864v-.225Z" fill="#121214"/>
        </g>
        <g id="Grupo_57296" data-name="Grupo 57296">
          <path id="Trazado_103870" data-name="Trazado 103870" d="M2194.912-1147.058l-22.277,12.862v.35l22.577-13.037-.124-.269Z" fill="#ffc37d"/>
          <path id="Trazado_103871" data-name="Trazado 103871" d="M2195.212-1146.884v-5.26l-.3.174v4.911Z" fill="#ffaf53"/>
          <path id="Trazado_103872" data-name="Trazado 103872" d="M2172.634-1139.111v4.694l.08.075,22.11-12.785-.008-4.483-.1-.249Z" fill="#2b5e85"/>
          <path id="Trazado_103873" data-name="Trazado 103873" d="M2172.639-1134.561l3.776-2.163v-4.57l.127-.075v4.567l4.662-2.687v-4.574l.127-.07v4.567l4.666-2.689v-4.573l.124-.073v4.571h0l4.666-2.693v-4.567l.129-.075v4.567h0l3.688-2.13v-4.563l.2-.116v4.789l-22.163,12.814Z" fill="#303033"/>
          <path id="Trazado_103874" data-name="Trazado 103874" d="M2172.634-1134.417l3.886-2.247v-4.694l.129-.069v4.693l4.663-2.7v-4.693l.128-.07v4.69l4.662-2.693v-4.692l.13-.075v4.692h0l4.662-2.692v-4.69l.128-.074v4.692h0l3.691-2.135v-4.69l.2-.11v4.911l-22.277,12.862v-.221Z" fill="#121214"/>
        </g>
        <g id="Grupo_57297" data-name="Grupo 57297">
          <path id="Trazado_103875" data-name="Trazado 103875" d="M2221.79-1173.606l-22.281,12.866v.344l22.581-13.033-.125-.273Z" fill="#ffc37d"/>
          <path id="Trazado_103876" data-name="Trazado 103876" d="M2222.089-1173.428v-5.265l-.3.174v4.913Z" fill="#ffaf53"/>
          <path id="Trazado_103877" data-name="Trazado 103877" d="M2199.509-1165.659v4.694l.083.074,22.109-12.781-.01-4.488-.1-.245Z" fill="#2b5e85"/>
          <path id="Trazado_103878" data-name="Trazado 103878" d="M2199.517-1161.109l3.777-2.163v-4.569l.126-.075v4.569l4.662-2.691v-4.57l.129-.071v4.568l4.66-2.7v-4.565l.132-.075v4.567h0l4.665-2.69v-4.567l.124-.079v4.568h0l3.692-2.13v-4.567l.2-.114v4.791l-22.165,12.817Z" fill="#303033"/>
          <path id="Trazado_103879" data-name="Trazado 103879" d="M2199.509-1160.965l3.889-2.243v-4.7l.129-.073v4.694l4.66-2.692v-4.693l.133-.071v4.692l4.66-2.693v-4.693l.128-.075v4.694h0l4.663-2.693v-4.693l.131-.073v4.692h0l3.688-2.134v-4.69l.2-.114v4.913l-22.281,12.866v-.225Z" fill="#121214"/>
        </g>
        <g id="Grupo_57298" data-name="Grupo 57298">
          <path id="Trazado_103880" data-name="Trazado 103880" d="M2221.79-1162.541l-22.281,12.864v.345l22.581-13.033-.125-.272Z" fill="#ffc37d"/>
          <path id="Trazado_103881" data-name="Trazado 103881" d="M2222.089-1162.365v-5.263l-.3.174v4.912Z" fill="#ffaf53"/>
          <path id="Trazado_103882" data-name="Trazado 103882" d="M2199.509-1154.6v4.693l.083.076,22.109-12.784-.01-4.485-.1-.248Z" fill="#2b5e85"/>
          <path id="Trazado_103883" data-name="Trazado 103883" d="M2199.517-1150.041l3.777-2.167v-4.569l.126-.075v4.569l4.662-2.691v-4.57l.129-.072v4.565l4.66-2.691v-4.567l.132-.074v4.568h0l4.665-2.693v-4.564l.124-.079v4.57h0l3.692-2.134v-4.565l.2-.115v4.791l-22.165,12.816Z" fill="#303033"/>
          <path id="Trazado_103884" data-name="Trazado 103884" d="M2199.509-1149.9l3.889-2.241v-4.692l.129-.075v4.69l4.66-2.693v-4.691l.133-.072v4.693l4.66-2.7v-4.694l.128-.071v4.69h0l4.663-2.693v-4.691l.131-.074v4.7l3.688-2.133v-4.7l.2-.11v4.912l-22.281,12.864v-.225Z" fill="#121214"/>
        </g>
      </g>
      <g id="Grupo_57324" data-name="Grupo 57324">
        <path id="Trazado_103885" data-name="Trazado 103885" d="M2110.391-1202.371l47.548,27.45v-2.779l-47.548-27.45Z" fill="#939598"/>
        <path id="Trazado_103886" data-name="Trazado 103886" d="M2152.723-1229.59l-42.332,24.44,47.548,27.45-15.246,8.8,25.88,14.942,57.58-33.244Z" fill="#a7a9ac"/>
        <path id="Trazado_103887" data-name="Trazado 103887" d="M2152.722-1226.377l67.87,39.18-2.18,1.262-65.689-37.927Z" fill="#939598"/>
        <path id="Trazado_103888" data-name="Trazado 103888" d="M2152.722-1223.862l-34.59,19.968-2.184-1.259,36.775-21.223Z" fill="#535359"/>
        <path id="Trazado_103889" data-name="Trazado 103889" d="M2218.412-1185.935l-49.838,28.772-18.139-10.474-2.181-1.259,11.077-6.4,1.987-1.143,2.181-1.266-4.168-2.406-41.2-23.787,34.59-19.968Z" fill="#747578"/>
        <path id="Trazado_103890" data-name="Trazado 103890" d="M2163.5-1175.187l-13.064,7.549-2.181-1.259,15.245-8.8Z" fill="#535359"/>
        <path id="Trazado_103891" data-name="Trazado 103891" d="M2226.152-1184.417l-57.58,33.243v-2.781l57.58-33.244Z" fill="#535359"/>
        <path id="Trazado_103892" data-name="Trazado 103892" d="M2142.692-1166.115l25.88,14.94v-2.781l-25.88-14.942Z" fill="#939598"/>
        <g id="Grupo_57302" data-name="Grupo 57302">
          <g id="Grupo_57300" data-name="Grupo 57300">
            <path id="Trazado_103893" data-name="Trazado 103893" d="M2155.328-1171.086l5.384,3.116,6.55-3.785-5.386-3.111Z" fill="#bcbec0"/>
            <path id="Trazado_103894" data-name="Trazado 103894" d="M2156.112-1170.937l5.771-3.33v-.3l-6.032,3.48Z" fill="#535359"/>
            <path id="Trazado_103895" data-name="Trazado 103895" d="M2161.883-1174.268l4.6,2.665.263-.152-4.867-2.812Z" fill="#939598"/>
            <path id="Trazado_103896" data-name="Trazado 103896" d="M2156.112-1170.937l4.607,2.662,5.768-3.328-4.6-2.665Z" fill="#747578"/>
            <path id="Trazado_103897" data-name="Trazado 103897" d="M2160.711-1163.963l6.55-3.778v-4.015l-6.55,3.785Z" fill="#535359"/>
            <path id="Trazado_103898" data-name="Trazado 103898" d="M2155.328-1167.072l5.384,3.109v-4.008l-5.384-3.116Z" fill="#939598"/>
          </g>
          <g id="Grupo_57301" data-name="Grupo 57301">
            <path id="Trazado_103899" data-name="Trazado 103899" d="M2163.08-1166.61l5.385,3.112,6.551-3.783-5.392-3.109Z" fill="#bcbec0"/>
            <path id="Trazado_103900" data-name="Trazado 103900" d="M2163.863-1166.464l5.768-3.326v-.3l-6.027,3.481Z" fill="#535359"/>
            <path id="Trazado_103901" data-name="Trazado 103901" d="M2169.631-1169.79l4.61,2.662.26-.153-4.869-2.813Z" fill="#939598"/>
            <path id="Trazado_103902" data-name="Trazado 103902" d="M2163.863-1166.464l4.607,2.661,5.771-3.325-4.61-2.662Z" fill="#747578"/>
            <path id="Trazado_103903" data-name="Trazado 103903" d="M2168.465-1159.488l6.551-3.777v-4.015l-6.551,3.783Z" fill="#535359"/>
            <path id="Trazado_103904" data-name="Trazado 103904" d="M2163.08-1162.6l5.385,3.108v-4.009l-5.385-3.112Z" fill="#939598"/>
          </g>
        </g>
        <g id="Grupo_57305" data-name="Grupo 57305">
          <g id="Grupo_57303" data-name="Grupo 57303">
            <path id="Trazado_103905" data-name="Trazado 103905" d="M2122.221-1207.5l5.386,3.112,6.55-3.782-5.391-3.108Z" fill="#bcbec0"/>
            <path id="Trazado_103906" data-name="Trazado 103906" d="M2123.006-1207.35l5.77-3.329v-.306l-6.032,3.484Z" fill="#535359"/>
            <path id="Trazado_103907" data-name="Trazado 103907" d="M2128.777-1210.679l4.607,2.662.258-.153-4.865-2.815Z" fill="#939598"/>
            <path id="Trazado_103908" data-name="Trazado 103908" d="M2123.006-1207.35l4.6,2.663,5.772-3.33-4.607-2.662Z" fill="#747578"/>
            <path id="Trazado_103909" data-name="Trazado 103909" d="M2127.607-1200.371l6.55-3.783v-4.016l-6.55,3.782Z" fill="#535359"/>
            <path id="Trazado_103910" data-name="Trazado 103910" d="M2122.221-1203.484l5.386,3.112v-4.016l-5.386-3.112Z" fill="#939598"/>
          </g>
          <g id="Grupo_57304" data-name="Grupo 57304">
            <path id="Trazado_103911" data-name="Trazado 103911" d="M2129.976-1203.025l5.382,3.117,6.551-3.785-5.387-3.11Z" fill="#bcbec0"/>
            <path id="Trazado_103912" data-name="Trazado 103912" d="M2130.757-1202.875l5.769-3.326v-.306l-6.028,3.48Z" fill="#535359"/>
            <path id="Trazado_103913" data-name="Trazado 103913" d="M2136.525-1206.2l4.608,2.661.263-.155-4.872-2.812Z" fill="#939598"/>
            <path id="Trazado_103914" data-name="Trazado 103914" d="M2130.757-1202.875l4.6,2.66,5.772-3.325-4.608-2.661Z" fill="#747578"/>
            <path id="Trazado_103915" data-name="Trazado 103915" d="M2135.358-1195.9l6.551-3.781v-4.016l-6.551,3.785Z" fill="#535359"/>
            <path id="Trazado_103916" data-name="Trazado 103916" d="M2129.976-1199.008l5.382,3.112v-4.012l-5.382-3.117Z" fill="#939598"/>
          </g>
        </g>
        <g id="Grupo_57310" data-name="Grupo 57310">
          <g id="Grupo_57307" data-name="Grupo 57307">
            <path id="Trazado_103917" data-name="Trazado 103917" d="M2144.9-1209.6a3.74,3.74,0,0,0-3.394,0,1.035,1.035,0,0,0,0,1.96,3.752,3.752,0,0,0,3.394,0A1.033,1.033,0,0,0,2144.9-1209.6Z" opacity="0.3"/>
            <path id="Trazado_103918" data-name="Trazado 103918" d="M2142.221-1211.943h-.631v3.129a.794.794,0,0,0,.473.654,2.474,2.474,0,0,0,2.277,0,.817.817,0,0,0,.472-.654v-3.129h-.63A2.58,2.58,0,0,0,2142.221-1211.943Z" fill="#303033"/>
            <path id="Trazado_103919" data-name="Trazado 103919" d="M2142.221-1211.943h-.631v.1a.807.807,0,0,0,.473.659,2.542,2.542,0,0,0,2.277,0,.831.831,0,0,0,.472-.659v-.4l-.63.308A2.58,2.58,0,0,0,2142.221-1211.943Z" opacity="0.3"/>
            <path id="Trazado_103920" data-name="Trazado 103920" d="M2141.741-1213.84h-.939v1.094a1.2,1.2,0,0,0,.7.979,3.74,3.74,0,0,0,3.394,0,1.2,1.2,0,0,0,.7-.979v-1.094h-.932A3.858,3.858,0,0,0,2141.741-1213.84Z" fill="#303033"/>
            <path id="Trazado_103921" data-name="Trazado 103921" d="M2144.9-1214.824a3.752,3.752,0,0,0-3.394,0,1.036,1.036,0,0,0,0,1.962,3.752,3.752,0,0,0,3.394,0A1.034,1.034,0,0,0,2144.9-1214.824Z" fill="#535359"/>
            <path id="Trazado_103922" data-name="Trazado 103922" d="M2144.449-1214.566a2.779,2.779,0,0,0-2.5,0c-.483.282-.632.685-.435,1.035a1.143,1.143,0,0,1,.435-.411,2.767,2.767,0,0,1,2.5,0,1.08,1.08,0,0,1,.431.411C2145.083-1213.881,2144.934-1214.284,2144.449-1214.566Z" fill="#303033"/>
            <path id="Trazado_103923" data-name="Trazado 103923" d="M2141.952-1213.942a1.143,1.143,0,0,0-.435.411,1.106,1.106,0,0,0,.435.41,2.761,2.761,0,0,0,2.5,0,1.046,1.046,0,0,0,.431-.41,1.08,1.08,0,0,0-.431-.411A2.767,2.767,0,0,0,2141.952-1213.942Z" fill="#121214"/>
            <g id="Grupo_57306" data-name="Grupo 57306">
              <path id="Trazado_103924" data-name="Trazado 103924" d="M2143.625-1213.252a.178.178,0,0,0-.034-.03l.942-.422-.3-.174-.732.546c-.016-.011-.042-.017-.052-.024l.585-.6-.394-.1-.311.666a.263.263,0,0,0-.06-.005l.15-.68h-.432l.152.68a.243.243,0,0,0-.066.006l-.309-.663-.406.092.6.6a.177.177,0,0,0-.052.024l-.728-.546-.3.174.945.422c-.016.005-.026.019-.041.03l-1.034-.338-.136.183c.018.023.035.041.049.058l1.075.164a.23.23,0,0,0-.01.039l-.907-.068a1.337,1.337,0,0,0,.14.093c.058.034.119.063.181.094l.586-.046a.163.163,0,0,1,.01.042l-.434.063c.085.031.166.052.256.077l.227-.077c.012.009.022.019.038.031l-.152.068c.065.007.121.018.183.025l.056-.042c.015.01.04.017.052.024l-.027.03c.048,0,.093,0,.143.006l0-.012a.228.228,0,0,0,.062.007v.01h.132l0-.01a.253.253,0,0,0,.063-.007l.007.012c.047-.005.094-.005.139-.006l-.029-.03a.227.227,0,0,1,.052-.024l.058.042c.056-.007.125-.018.185-.025l-.151-.068a.123.123,0,0,1,.041-.031l.221.07a2.036,2.036,0,0,0,.261-.07l-.444-.069a.073.073,0,0,0,.017-.036l.582.046c.066-.031.121-.06.18-.094a1.351,1.351,0,0,0,.142-.093l-.9.068a.082.082,0,0,0-.017-.039l1.084-.171a.387.387,0,0,0,.041-.051l-.139-.191Z" fill="#939598"/>
            </g>
          </g>
          <g id="Grupo_57309" data-name="Grupo 57309">
            <path id="Trazado_103925" data-name="Trazado 103925" d="M2153.953-1214.831a3.723,3.723,0,0,0-3.392,0,1.03,1.03,0,0,0,0,1.956,3.722,3.722,0,0,0,3.392,0A1.03,1.03,0,0,0,2153.953-1214.831Z" opacity="0.3"/>
            <path id="Trazado_103926" data-name="Trazado 103926" d="M2151.274-1217.172h-.629v3.128a.8.8,0,0,0,.472.655,2.506,2.506,0,0,0,2.281,0,.812.812,0,0,0,.468-.655v-3.128h-.627A2.6,2.6,0,0,0,2151.274-1217.172Z" fill="#303033"/>
            <path id="Trazado_103927" data-name="Trazado 103927" d="M2151.274-1217.172h-.629v.094a.809.809,0,0,0,.472.662,2.556,2.556,0,0,0,2.281,0,.823.823,0,0,0,.468-.662v-.408l-.627.314A2.6,2.6,0,0,0,2151.274-1217.172Z" opacity="0.3"/>
            <path id="Trazado_103928" data-name="Trazado 103928" d="M2150.8-1219.07h-.941v1.095a1.194,1.194,0,0,0,.705.98,3.729,3.729,0,0,0,3.392,0,1.192,1.192,0,0,0,.705-.98v-1.095h-.933A3.874,3.874,0,0,0,2150.8-1219.07Z" fill="#303033"/>
            <path id="Trazado_103929" data-name="Trazado 103929" d="M2153.953-1220.05a3.723,3.723,0,0,0-3.392,0,1.032,1.032,0,0,0,0,1.959,3.748,3.748,0,0,0,3.392,0A1.032,1.032,0,0,0,2153.953-1220.05Z" fill="#535359"/>
            <path id="Trazado_103930" data-name="Trazado 103930" d="M2153.5-1219.793a2.747,2.747,0,0,0-2.494,0c-.486.282-.632.683-.435,1.033a1.064,1.064,0,0,1,.435-.409,2.759,2.759,0,0,1,2.494,0,1.09,1.09,0,0,1,.431.409C2154.135-1219.11,2153.99-1219.511,2153.5-1219.793Z" fill="#303033"/>
            <path id="Trazado_103931" data-name="Trazado 103931" d="M2151.011-1219.169a1.064,1.064,0,0,0-.435.409,1.041,1.041,0,0,0,.435.409,2.735,2.735,0,0,0,2.494,0,1.065,1.065,0,0,0,.431-.409,1.09,1.09,0,0,0-.431-.409A2.759,2.759,0,0,0,2151.011-1219.169Z" fill="#121214"/>
            <g id="Grupo_57308" data-name="Grupo 57308">
              <path id="Trazado_103932" data-name="Trazado 103932" d="M2152.681-1218.478c-.013-.013-.023-.029-.041-.034l.947-.422-.3-.173-.731.544a.269.269,0,0,1-.052-.022l.584-.6-.4-.1-.308.663c-.025,0-.043-.005-.062-.005l.152-.681h-.433l.154.681a.441.441,0,0,0-.068.007l-.313-.662-.4.094.6.6a.464.464,0,0,0-.052.022l-.728-.544-.307.173.945.422a.148.148,0,0,0-.04.034l-1.033-.338-.134.186c.017.015.031.035.048.052l1.077.166a.113.113,0,0,0-.017.036l-.9-.068a.992.992,0,0,0,.143.093c.057.036.114.062.177.094l.583-.04a.093.093,0,0,1,.017.038l-.436.064c.082.028.169.048.255.077l.226-.08a.134.134,0,0,0,.037.031l-.15.069c.066.007.121.02.183.026l.057-.042a.494.494,0,0,0,.052.023l-.03.031c.052,0,.095,0,.145.007l0-.009c.028,0,.042,0,.066.005v.007h.131l0-.007c.019,0,.044,0,.067-.005l0,.009c.049,0,.094-.007.14-.007l-.027-.031a.25.25,0,0,1,.052-.023l.057.042c.059-.006.12-.019.182-.026l-.155-.069c.018-.007.028-.019.051-.031l.219.074a2.359,2.359,0,0,0,.257-.074l-.44-.069a.107.107,0,0,0,.011-.03l.587.04c.061-.032.123-.058.18-.094a1.036,1.036,0,0,0,.142-.093l-.909.068a.094.094,0,0,0-.011-.036l1.086-.173a.514.514,0,0,1,.035-.045l-.135-.2Z" fill="#939598"/>
            </g>
          </g>
        </g>
        <g id="Grupo_57315" data-name="Grupo 57315">
          <g id="Grupo_57312" data-name="Grupo 57312">
            <path id="Trazado_103933" data-name="Trazado 103933" d="M2174.709-1192.391a3.744,3.744,0,0,0-3.393,0,1.036,1.036,0,0,0,0,1.963,3.756,3.756,0,0,0,3.393,0A1.035,1.035,0,0,0,2174.709-1192.391Z" opacity="0.3"/>
            <path id="Trazado_103934" data-name="Trazado 103934" d="M2172.032-1194.733h-.628v3.131a.787.787,0,0,0,.473.654,2.484,2.484,0,0,0,2.276,0,.817.817,0,0,0,.471-.654v-3.131H2174A2.619,2.619,0,0,0,2172.032-1194.733Z" fill="#303033"/>
            <path id="Trazado_103935" data-name="Trazado 103935" d="M2172.032-1194.733h-.628v.1a.8.8,0,0,0,.473.659,2.527,2.527,0,0,0,2.276,0,.827.827,0,0,0,.471-.659v-.405l-.627.308A2.619,2.619,0,0,0,2172.032-1194.733Z" opacity="0.3"/>
            <path id="Trazado_103936" data-name="Trazado 103936" d="M2171.552-1196.627h-.938v1.093a1.2,1.2,0,0,0,.7.978,3.725,3.725,0,0,0,3.393,0,1.194,1.194,0,0,0,.706-.978v-1.093h-.934A3.849,3.849,0,0,0,2171.552-1196.627Z" fill="#303033"/>
            <path id="Trazado_103937" data-name="Trazado 103937" d="M2174.709-1197.61a3.75,3.75,0,0,0-3.393,0,1.035,1.035,0,0,0,0,1.961,3.768,3.768,0,0,0,3.393,0A1.033,1.033,0,0,0,2174.709-1197.61Z" fill="#535359"/>
            <path id="Trazado_103938" data-name="Trazado 103938" d="M2174.265-1197.351a2.762,2.762,0,0,0-2.5,0c-.482.283-.63.683-.434,1.033a1.168,1.168,0,0,1,.434-.411,2.775,2.775,0,0,1,2.5,0,1.133,1.133,0,0,1,.43.411C2174.892-1196.668,2174.744-1197.068,2174.265-1197.351Z" fill="#303033"/>
            <path id="Trazado_103939" data-name="Trazado 103939" d="M2171.764-1196.729a1.168,1.168,0,0,0-.434.411,1.088,1.088,0,0,0,.434.406,2.769,2.769,0,0,0,2.5,0,1.056,1.056,0,0,0,.43-.406,1.133,1.133,0,0,0-.43-.411A2.775,2.775,0,0,0,2171.764-1196.729Z" fill="#121214"/>
            <g id="Grupo_57311" data-name="Grupo 57311">
              <path id="Trazado_103940" data-name="Trazado 103940" d="M2173.438-1196.039c-.015-.011-.026-.026-.037-.03l.944-.424-.3-.172-.732.543c-.019-.008-.039-.014-.051-.021l.58-.6-.389-.1-.31.662a.391.391,0,0,0-.062-.007l.15-.679h-.433l.153.679a.4.4,0,0,0-.068.007l-.313-.66-.4.094.6.6a.243.243,0,0,0-.055.021l-.727-.543-.306.172.944.424c-.013,0-.025.019-.039.03l-1.035-.341-.135.188a.685.685,0,0,1,.048.056l1.078.163a.081.081,0,0,0-.011.037l-.91-.067a1.4,1.4,0,0,0,.142.091,1.452,1.452,0,0,0,.183.094l.585-.039c0,.006.011.013.011.033l-.434.068c.084.032.165.053.253.077l.232-.078c.007.007.019.022.032.033l-.151.068c.068.007.122.019.183.024l.057-.043a.288.288,0,0,0,.055.026l-.031.026a1.348,1.348,0,0,1,.143.011l.007-.014.061.007v.008h.131v-.008l.063-.007.008.014c.047-.007.093-.009.136-.011l-.026-.026a.288.288,0,0,1,.051-.026l.058.043c.056-.005.122-.017.184-.024l-.153-.068a.106.106,0,0,1,.044-.033l.22.075c.092-.021.176-.049.259-.075l-.441-.068.015-.032.581.039a1.558,1.558,0,0,0,.186-.094c.048-.029.1-.061.138-.091l-.905.067a.093.093,0,0,0-.015-.037l1.083-.17c.014-.02.03-.035.04-.049l-.138-.2Z" fill="#939598"/>
            </g>
          </g>
          <g id="Grupo_57314" data-name="Grupo 57314">
            <path id="Trazado_103941" data-name="Trazado 103941" d="M2183.765-1197.62a3.739,3.739,0,0,0-3.391,0,1.033,1.033,0,0,0,0,1.959,3.739,3.739,0,0,0,3.391,0A1.033,1.033,0,0,0,2183.765-1197.62Z" opacity="0.3"/>
            <path id="Trazado_103942" data-name="Trazado 103942" d="M2181.088-1199.963h-.628v3.133a.788.788,0,0,0,.469.652,2.493,2.493,0,0,0,2.28,0,.8.8,0,0,0,.47-.652v-3.133h-.627A2.646,2.646,0,0,0,2181.088-1199.963Z" fill="#303033"/>
            <path id="Trazado_103943" data-name="Trazado 103943" d="M2181.088-1199.963h-.628v.1a.808.808,0,0,0,.469.663,2.548,2.548,0,0,0,2.28,0,.824.824,0,0,0,.47-.663v-.408l-.627.311A2.646,2.646,0,0,0,2181.088-1199.963Z" opacity="0.3"/>
            <path id="Trazado_103944" data-name="Trazado 103944" d="M2180.607-1201.856h-.94v1.093a1.192,1.192,0,0,0,.707.978,3.726,3.726,0,0,0,3.391,0,1.187,1.187,0,0,0,.705-.978v-1.093h-.934A3.849,3.849,0,0,0,2180.607-1201.856Z" fill="#303033"/>
            <path id="Trazado_103945" data-name="Trazado 103945" d="M2183.765-1202.838a3.72,3.72,0,0,0-3.391,0,1.034,1.034,0,0,0,0,1.961,3.758,3.758,0,0,0,3.391,0A1.034,1.034,0,0,0,2183.765-1202.838Z" fill="#535359"/>
            <path id="Trazado_103946" data-name="Trazado 103946" d="M2183.319-1202.584a2.769,2.769,0,0,0-2.5,0c-.484.287-.63.684-.433,1.036a1.087,1.087,0,0,1,.433-.411,2.769,2.769,0,0,1,2.5,0,1.073,1.073,0,0,1,.429.411C2183.949-1201.9,2183.8-1202.3,2183.319-1202.584Z" fill="#303033"/>
            <path id="Trazado_103947" data-name="Trazado 103947" d="M2180.821-1201.959a1.087,1.087,0,0,0-.433.411,1.054,1.054,0,0,0,.433.41,2.775,2.775,0,0,0,2.5,0,1.041,1.041,0,0,0,.429-.41,1.073,1.073,0,0,0-.429-.411A2.769,2.769,0,0,0,2180.821-1201.959Z" fill="#121214"/>
            <g id="Grupo_57313" data-name="Grupo 57313">
              <path id="Trazado_103948" data-name="Trazado 103948" d="M2182.493-1201.267a.162.162,0,0,0-.038-.035l.946-.419-.3-.174-.727.544a.206.206,0,0,1-.054-.021l.585-.6-.4-.1-.311.666a.456.456,0,0,0-.06-.005l.15-.681h-.431l.153.681a.556.556,0,0,0-.068.005l-.311-.661-.4.09.6.6c-.025.008-.036.016-.056.021l-.723-.544-.309.174.946.419a.439.439,0,0,0-.041.035l-1.036-.34-.134.185c.019.022.033.042.048.058l1.08.161a.121.121,0,0,0-.018.037l-.9-.064a1.4,1.4,0,0,0,.142.092,1.82,1.82,0,0,0,.181.093l.581-.042c0,.009.015.018.018.038l-.439.064c.082.03.171.053.256.078l.229-.081a.133.133,0,0,0,.037.033l-.152.069c.066.009.122.021.182.024l.056-.039.056.024-.03.027c.046,0,.1,0,.142.011l.005-.013c.022,0,.041.005.063.006v.009h.132l0-.009.068-.006,0,.013c.049-.007.093-.008.14-.011l-.029-.027a.194.194,0,0,1,.054-.024l.057.039c.056,0,.117-.015.179-.024l-.151-.069a.537.537,0,0,0,.046-.033l.223.076a1.907,1.907,0,0,0,.258-.076l-.443-.068a.116.116,0,0,0,.012-.031l.586.042c.062-.031.12-.057.182-.093a1.293,1.293,0,0,0,.142-.092l-.91.064a.179.179,0,0,0-.012-.037l1.088-.169c.008-.015.025-.033.033-.05l-.135-.2Z" fill="#939598"/>
            </g>
          </g>
        </g>
        <g id="Grupo_57319" data-name="Grupo 57319">
          <g id="Grupo_57316" data-name="Grupo 57316">
            <path id="Trazado_103949" data-name="Trazado 103949" d="M2192.492-1184.437l4.981,2.873,2.926-1.683-4.982-2.877Z" fill="#bcbec0"/>
            <path id="Trazado_103950" data-name="Trazado 103950" d="M2193.219-1184.409l2.185-1.262v-.118l-2.288,1.324Z" fill="#535359"/>
            <path id="Trazado_103951" data-name="Trazado 103951" d="M2195.4-1185.671l4.277,2.466.1-.055-4.374-2.529Z" fill="#939598"/>
            <path id="Trazado_103952" data-name="Trazado 103952" d="M2193.219-1184.409l4.271,2.467,2.191-1.263-4.277-2.466Z" fill="#747578"/>
            <path id="Trazado_103953" data-name="Trazado 103953" d="M2193.568-1184.409l.106.062,1.7-.984.108.071.1-.06-.211-.127Z" fill="#535359"/>
            <path id="Trazado_103954" data-name="Trazado 103954" d="M2193.674-1184.347l.12.063,1.686-.976-.108-.071Z" fill="#121214"/>
            <path id="Trazado_103955" data-name="Trazado 103955" d="M2193.987-1184.169l.1.06,1.7-.979.11.064.1-.056-.209-.127Z" fill="#535359"/>
            <path id="Trazado_103956" data-name="Trazado 103956" d="M2194.09-1184.109l.11.064,1.7-.979-.11-.064Z" fill="#121214"/>
            <path id="Trazado_103957" data-name="Trazado 103957" d="M2194.4-1183.929l.105.06,1.691-.98.113.068.1-.059-.213-.129Z" fill="#535359"/>
            <path id="Trazado_103958" data-name="Trazado 103958" d="M2194.506-1183.869l.109.064,1.7-.976-.113-.068Z" fill="#121214"/>
            <path id="Trazado_103959" data-name="Trazado 103959" d="M2194.818-1183.686l.1.058,1.692-.98.111.066.108-.062-.219-.124Z" fill="#535359"/>
            <path id="Trazado_103960" data-name="Trazado 103960" d="M2194.921-1183.628l.11.063,1.693-.977-.111-.066Z" fill="#121214"/>
            <path id="Trazado_103961" data-name="Trazado 103961" d="M2195.231-1183.452l.1.06,1.7-.973.109.062.1-.06-.211-.124Z" fill="#535359"/>
            <path id="Trazado_103962" data-name="Trazado 103962" d="M2195.333-1183.393l.114.068,1.691-.979-.109-.062Z" fill="#121214"/>
            <path id="Trazado_103963" data-name="Trazado 103963" d="M2195.644-1183.213l.1.064,1.7-.983.109.066.1-.058-.212-.128Z" fill="#535359"/>
            <path id="Trazado_103964" data-name="Trazado 103964" d="M2195.747-1183.149l.112.064,1.693-.98-.109-.066Z" fill="#121214"/>
            <path id="Trazado_103965" data-name="Trazado 103965" d="M2196.059-1182.972l.1.064,1.7-.979.111.063.1-.062-.215-.124Z" fill="#535359"/>
            <path id="Trazado_103966" data-name="Trazado 103966" d="M2196.16-1182.909l.113.064,1.695-.979-.111-.063Z" fill="#121214"/>
            <path id="Trazado_103967" data-name="Trazado 103967" d="M2196.475-1182.734l.1.064,1.693-.976.111.063.108-.062-.219-.124Z" fill="#535359"/>
            <path id="Trazado_103968" data-name="Trazado 103968" d="M2196.578-1182.671l.111.065,1.693-.979-.111-.063Z" fill="#121214"/>
            <path id="Trazado_103969" data-name="Trazado 103969" d="M2196.888-1182.495l.1.058,1.693-.975.114.064.1-.058-.218-.127Z" fill="#535359"/>
            <path id="Trazado_103970" data-name="Trazado 103970" d="M2196.992-1182.437l.108.066,1.7-.977-.114-.064Z" fill="#121214"/>
            <path id="Trazado_103971" data-name="Trazado 103971" d="M2197.3-1182.252l.107.06,1.689-.981.109.065.113-.063-.221-.12Z" fill="#535359"/>
            <path id="Trazado_103972" data-name="Trazado 103972" d="M2197.411-1182.192l.108.059,1.69-.976-.109-.065Z" fill="#121214"/>
            <path id="Trazado_103973" data-name="Trazado 103973" d="M2192.492-1182.691l4.981,2.877v-1.748l-4.981-2.873Z" fill="#939598"/>
            <path id="Trazado_103974" data-name="Trazado 103974" d="M2197.472-1179.815l2.926-1.688v-1.744l-2.926,1.683Z" fill="#535359"/>
          </g>
          <g id="Grupo_57317" data-name="Grupo 57317">
            <path id="Trazado_103975" data-name="Trazado 103975" d="M2186.705-1181.093l4.979,2.874,2.927-1.682-4.984-2.877Z" fill="#bcbec0"/>
            <path id="Trazado_103976" data-name="Trazado 103976" d="M2187.431-1181.068l2.187-1.262v-.118l-2.287,1.324Z" fill="#535359"/>
            <path id="Trazado_103977" data-name="Trazado 103977" d="M2189.617-1182.33l4.278,2.47.1-.06-4.381-2.528Z" fill="#939598"/>
            <path id="Trazado_103978" data-name="Trazado 103978" d="M2187.431-1181.068l4.278,2.471,2.187-1.263-4.278-2.47Z" fill="#747578"/>
            <path id="Trazado_103979" data-name="Trazado 103979" d="M2187.781-1181.068l.106.06,1.7-.979.111.068.1-.056-.215-.128Z" fill="#535359"/>
            <path id="Trazado_103980" data-name="Trazado 103980" d="M2187.887-1181.007l.116.068,1.693-.979-.111-.068Z" fill="#121214"/>
            <path id="Trazado_103981" data-name="Trazado 103981" d="M2188.2-1180.827l.1.06,1.692-.979.112.066.105-.06-.217-.125Z" fill="#535359"/>
            <path id="Trazado_103982" data-name="Trazado 103982" d="M2188.3-1180.767l.113.064,1.691-.977-.112-.066Z" fill="#121214"/>
            <path id="Trazado_103983" data-name="Trazado 103983" d="M2188.615-1180.586l.1.059,1.692-.979.117.064.1-.055-.215-.129Z" fill="#535359"/>
            <path id="Trazado_103984" data-name="Trazado 103984" d="M2188.719-1180.527l.113.064,1.7-.979-.117-.064Z" fill="#121214"/>
            <path id="Trazado_103985" data-name="Trazado 103985" d="M2189.034-1180.346l.1.059,1.692-.979.116.063.1-.056-.216-.13Z" fill="#535359"/>
            <path id="Trazado_103986" data-name="Trazado 103986" d="M2189.132-1180.287l.113.068,1.695-.983-.116-.063Z" fill="#121214"/>
            <path id="Trazado_103987" data-name="Trazado 103987" d="M2189.444-1180.108l.1.06,1.689-.976.111.061.106-.061-.217-.123Z" fill="#535359"/>
            <path id="Trazado_103988" data-name="Trazado 103988" d="M2189.548-1180.047l.111.064,1.689-.979-.111-.061Z" fill="#121214"/>
            <path id="Trazado_103989" data-name="Trazado 103989" d="M2189.856-1179.871l.1.063,1.694-.98.113.066.105-.058-.218-.126Z" fill="#535359"/>
            <path id="Trazado_103990" data-name="Trazado 103990" d="M2189.958-1179.808l.117.062,1.69-.976-.113-.066Z" fill="#121214"/>
            <path id="Trazado_103991" data-name="Trazado 103991" d="M2190.272-1179.631l.1.066,1.7-.98.117.067.1-.063-.216-.127Z" fill="#535359"/>
            <path id="Trazado_103992" data-name="Trazado 103992" d="M2190.373-1179.565l.113.062,1.7-.976-.117-.067Z" fill="#121214"/>
            <path id="Trazado_103993" data-name="Trazado 103993" d="M2190.692-1179.392l.1.061,1.69-.977.11.062.11-.059-.22-.12Z" fill="#535359"/>
            <path id="Trazado_103994" data-name="Trazado 103994" d="M2190.793-1179.331l.109.068,1.69-.983-.11-.062Z" fill="#121214"/>
            <path id="Trazado_103995" data-name="Trazado 103995" d="M2191.1-1179.153l.109.058,1.687-.975.115.067.107-.063-.222-.124Z" fill="#535359"/>
            <path id="Trazado_103996" data-name="Trazado 103996" d="M2191.208-1179.1l.107.069,1.695-.977-.115-.067Z" fill="#121214"/>
            <path id="Trazado_103997" data-name="Trazado 103997" d="M2191.519-1178.912l.1.062,1.694-.979.106.063.108-.061-.215-.122Z" fill="#535359"/>
            <path id="Trazado_103998" data-name="Trazado 103998" d="M2191.622-1178.85l.111.064,1.69-.98-.106-.063Z" fill="#121214"/>
            <path id="Trazado_103999" data-name="Trazado 103999" d="M2186.705-1179.346l4.979,2.874v-1.748l-4.979-2.874Z" fill="#939598"/>
            <path id="Trazado_104000" data-name="Trazado 104000" d="M2191.684-1176.472l2.927-1.688v-1.741l-2.927,1.682Z" fill="#535359"/>
          </g>
          <g id="Grupo_57318" data-name="Grupo 57318">
            <path id="Trazado_104001" data-name="Trazado 104001" d="M2198.279-1187.774l4.98,2.869,2.924-1.683-4.982-2.875Z" fill="#bcbec0"/>
            <path id="Trazado_104002" data-name="Trazado 104002" d="M2199-1187.75l2.191-1.264v-.117l-2.292,1.324Z" fill="#535359"/>
            <path id="Trazado_104003" data-name="Trazado 104003" d="M2201.2-1189.014l4.273,2.471.1-.059-4.374-2.528Z" fill="#939598"/>
            <path id="Trazado_104004" data-name="Trazado 104004" d="M2199-1187.75l4.276,2.471,2.188-1.264-4.273-2.471Z" fill="#747578"/>
            <path id="Trazado_104005" data-name="Trazado 104005" d="M2199.356-1187.75l.108.062,1.7-.981.114.068.1-.058-.214-.125Z" fill="#535359"/>
            <path id="Trazado_104006" data-name="Trazado 104006" d="M2199.464-1187.688l.113.062,1.7-.976-.114-.068Z" fill="#121214"/>
            <path id="Trazado_104007" data-name="Trazado 104007" d="M2199.772-1187.506l.105.055,1.7-.979.11.064.1-.057-.212-.13Z" fill="#535359"/>
            <path id="Trazado_104008" data-name="Trazado 104008" d="M2199.877-1187.451l.111.064,1.695-.979-.11-.064Z" fill="#121214"/>
            <path id="Trazado_104009" data-name="Trazado 104009" d="M2200.188-1187.271l.105.06,1.7-.98.108.065.1-.058-.211-.127Z" fill="#535359"/>
            <path id="Trazado_104010" data-name="Trazado 104010" d="M2200.293-1187.211l.115.064,1.689-.98-.108-.065Z" fill="#121214"/>
            <path id="Trazado_104011" data-name="Trazado 104011" d="M2200.6-1187.03l.1.06,1.694-.981.108.065.11-.058-.218-.127Z" fill="#535359"/>
            <path id="Trazado_104012" data-name="Trazado 104012" d="M2200.707-1186.97l.111.061,1.691-.977-.108-.065Z" fill="#121214"/>
            <path id="Trazado_104013" data-name="Trazado 104013" d="M2201.019-1186.791l.1.056,1.693-.976.107.062.107-.062-.214-.12Z" fill="#535359"/>
            <path id="Trazado_104014" data-name="Trazado 104014" d="M2201.122-1186.734l.112.068,1.688-.981-.107-.062Z" fill="#121214"/>
            <path id="Trazado_104015" data-name="Trazado 104015" d="M2201.429-1186.554l.105.063,1.691-.977.113.067.1-.063-.217-.122Z" fill="#535359"/>
            <path id="Trazado_104016" data-name="Trazado 104016" d="M2201.535-1186.492l.116.061,1.688-.972-.113-.067Z" fill="#121214"/>
            <path id="Trazado_104017" data-name="Trazado 104017" d="M2201.85-1186.312l.1.062,1.691-.979.116.063.1-.062-.22-.125Z" fill="#535359"/>
            <path id="Trazado_104018" data-name="Trazado 104018" d="M2201.951-1186.25l.113.063,1.694-.979-.116-.063Z" fill="#121214"/>
            <path id="Trazado_104019" data-name="Trazado 104019" d="M2202.262-1186.074l.1.06,1.694-.979.113.067.105-.062-.218-.121Z" fill="#535359"/>
            <path id="Trazado_104020" data-name="Trazado 104020" d="M2202.365-1186.015l.109.068,1.7-.98-.113-.067Z" fill="#121214"/>
            <path id="Trazado_104021" data-name="Trazado 104021" d="M2202.675-1185.838l.1.06,1.695-.975.116.063.1-.058-.219-.125Z" fill="#535359"/>
            <path id="Trazado_104022" data-name="Trazado 104022" d="M2202.777-1185.777l.11.064,1.7-.976-.116-.063Z" fill="#121214"/>
            <path id="Trazado_104023" data-name="Trazado 104023" d="M2203.094-1185.594l.1.06,1.691-.98.109.06.1-.056-.213-.124Z" fill="#535359"/>
            <path id="Trazado_104024" data-name="Trazado 104024" d="M2203.2-1185.534l.112.061,1.689-.98-.109-.06Z" fill="#121214"/>
            <path id="Trazado_104025" data-name="Trazado 104025" d="M2198.279-1186.033l4.98,2.877v-1.748l-4.98-2.869Z" fill="#939598"/>
            <path id="Trazado_104026" data-name="Trazado 104026" d="M2203.259-1183.156l2.924-1.688v-1.744l-2.924,1.683Z" fill="#535359"/>
          </g>
        </g>
        <g id="Grupo_57323" data-name="Grupo 57323">
          <g id="Grupo_57320" data-name="Grupo 57320">
            <path id="Trazado_104027" data-name="Trazado 104027" d="M2155.283-1205.918l4.979,2.873,2.923-1.683-4.978-2.878Z" fill="#bcbec0"/>
            <path id="Trazado_104028" data-name="Trazado 104028" d="M2156.009-1205.891l2.187-1.264v-.114l-2.29,1.32Z" fill="#535359"/>
            <path id="Trazado_104029" data-name="Trazado 104029" d="M2158.2-1207.155l4.279,2.468.1-.059-4.374-2.523Z" fill="#939598"/>
            <path id="Trazado_104030" data-name="Trazado 104030" d="M2156.009-1205.891l4.272,2.466,2.193-1.262-4.279-2.468Z" fill="#747578"/>
            <path id="Trazado_104031" data-name="Trazado 104031" d="M2156.36-1205.891l.1.06,1.7-.983.109.07.1-.059-.211-.129Z" fill="#535359"/>
            <path id="Trazado_104032" data-name="Trazado 104032" d="M2156.464-1205.831l.117.064,1.69-.976-.109-.07Z" fill="#121214"/>
            <path id="Trazado_104033" data-name="Trazado 104033" d="M2156.777-1205.653l.1.064,1.695-.979.109.063.1-.059-.211-.127Z" fill="#535359"/>
            <path id="Trazado_104034" data-name="Trazado 104034" d="M2156.88-1205.59l.113.062,1.691-.979-.109-.063Z" fill="#121214"/>
            <path id="Trazado_104035" data-name="Trazado 104035" d="M2157.191-1205.413l.1.061,1.694-.978.113.065.1-.059-.215-.129Z" fill="#535359"/>
            <path id="Trazado_104036" data-name="Trazado 104036" d="M2157.294-1205.352l.114.063,1.693-.976-.113-.065Z" fill="#121214"/>
            <path id="Trazado_104037" data-name="Trazado 104037" d="M2157.609-1205.169l.1.053,1.693-.975.112.069.107-.064-.219-.126Z" fill="#535359"/>
            <path id="Trazado_104038" data-name="Trazado 104038" d="M2157.71-1205.116l.112.07,1.693-.976-.112-.069Z" fill="#121214"/>
            <path id="Trazado_104039" data-name="Trazado 104039" d="M2158.022-1204.935l.1.063,1.7-.976.109.06.1-.059-.212-.124Z" fill="#535359"/>
            <path id="Trazado_104040" data-name="Trazado 104040" d="M2158.123-1204.872l.116.065,1.689-.981-.109-.06Z" fill="#121214"/>
            <path id="Trazado_104041" data-name="Trazado 104041" d="M2158.432-1204.695l.106.062,1.694-.982.108.064.105-.056-.214-.126Z" fill="#535359"/>
            <path id="Trazado_104042" data-name="Trazado 104042" d="M2158.538-1204.633l.111.061,1.691-.979-.108-.064Z" fill="#121214"/>
            <path id="Trazado_104043" data-name="Trazado 104043" d="M2158.848-1204.457l.1.063,1.7-.978.11.065.107-.063-.217-.124Z" fill="#535359"/>
            <path id="Trazado_104044" data-name="Trazado 104044" d="M2158.95-1204.394l.115.067,1.692-.979-.11-.065Z" fill="#121214"/>
            <path id="Trazado_104045" data-name="Trazado 104045" d="M2159.264-1204.216l.105.062,1.691-.979.113.063.107-.057-.22-.128Z" fill="#535359"/>
            <path id="Trazado_104046" data-name="Trazado 104046" d="M2159.369-1204.154l.109.066,1.7-.981-.113-.063Z" fill="#121214"/>
            <path id="Trazado_104047" data-name="Trazado 104047" d="M2159.679-1203.977l.1.058,1.691-.973.114.064.1-.06-.219-.125Z" fill="#535359"/>
            <path id="Trazado_104048" data-name="Trazado 104048" d="M2159.783-1203.919l.11.064,1.694-.973-.114-.064Z" fill="#121214"/>
            <path id="Trazado_104049" data-name="Trazado 104049" d="M2160.094-1203.738l.105.063,1.691-.979.108.062.11-.061-.218-.121Z" fill="#535359"/>
            <path id="Trazado_104050" data-name="Trazado 104050" d="M2160.2-1203.675l.109.062,1.69-.979-.108-.062Z" fill="#121214"/>
            <path id="Trazado_104051" data-name="Trazado 104051" d="M2155.283-1204.174l4.979,2.878v-1.749l-4.979-2.873Z" fill="#939598"/>
            <path id="Trazado_104052" data-name="Trazado 104052" d="M2160.262-1201.3l2.923-1.69v-1.742l-2.923,1.683Z" fill="#535359"/>
          </g>
          <g id="Grupo_57321" data-name="Grupo 57321">
            <path id="Trazado_104053" data-name="Trazado 104053" d="M2149.5-1202.577l4.979,2.874,2.926-1.684-4.983-2.875Z" fill="#bcbec0"/>
            <path id="Trazado_104054" data-name="Trazado 104054" d="M2150.222-1202.55l2.186-1.264v-.117l-2.287,1.325Z" fill="#535359"/>
            <path id="Trazado_104055" data-name="Trazado 104055" d="M2152.408-1203.814l4.276,2.471.1-.056-4.379-2.532Z" fill="#939598"/>
            <path id="Trazado_104056" data-name="Trazado 104056" d="M2150.222-1202.55l4.279,2.47,2.184-1.264-4.276-2.471Z" fill="#747578"/>
            <path id="Trazado_104057" data-name="Trazado 104057" d="M2150.571-1202.55l.106.06,1.7-.979.11.066.1-.059-.214-.129Z" fill="#535359"/>
            <path id="Trazado_104058" data-name="Trazado 104058" d="M2150.677-1202.49l.117.064,1.691-.977-.11-.066Z" fill="#121214"/>
            <path id="Trazado_104059" data-name="Trazado 104059" d="M2150.992-1202.308l.1.059,1.693-.979.111.064.1-.058-.214-.126Z" fill="#535359"/>
            <path id="Trazado_104060" data-name="Trazado 104060" d="M2151.094-1202.249l.113.061,1.691-.976-.111-.064Z" fill="#121214"/>
            <path id="Trazado_104061" data-name="Trazado 104061" d="M2151.4-1202.069l.105.057,1.693-.977.113.065.1-.06-.213-.127Z" fill="#535359"/>
            <path id="Trazado_104062" data-name="Trazado 104062" d="M2151.51-1202.012l.109.068,1.7-.979-.113-.065Z" fill="#121214"/>
            <path id="Trazado_104063" data-name="Trazado 104063" d="M2151.824-1201.832l.1.06,1.693-.976.114.063.1-.057-.218-.129Z" fill="#535359"/>
            <path id="Trazado_104064" data-name="Trazado 104064" d="M2151.922-1201.772l.113.065,1.693-.979-.114-.063Z" fill="#121214"/>
            <path id="Trazado_104065" data-name="Trazado 104065" d="M2152.234-1201.593l.1.059,1.692-.973.109.058.106-.058-.216-.122Z" fill="#535359"/>
            <path id="Trazado_104066" data-name="Trazado 104066" d="M2152.338-1201.533l.111.068,1.69-.983-.109-.058Z" fill="#121214"/>
            <path id="Trazado_104067" data-name="Trazado 104067" d="M2152.646-1201.354l.1.063,1.692-.983.113.069.1-.061-.216-.124Z" fill="#535359"/>
            <path id="Trazado_104068" data-name="Trazado 104068" d="M2152.75-1201.291l.117.063,1.688-.977-.113-.069Z" fill="#121214"/>
            <path id="Trazado_104069" data-name="Trazado 104069" d="M2153.061-1201.113l.1.063,1.7-.977.11.064.105-.064-.216-.125Z" fill="#535359"/>
            <path id="Trazado_104070" data-name="Trazado 104070" d="M2153.162-1201.051l.115.063,1.694-.976-.11-.064Z" fill="#121214"/>
            <path id="Trazado_104071" data-name="Trazado 104071" d="M2153.479-1200.876l.1.06,1.689-.975.114.063.105-.061-.22-.12Z" fill="#535359"/>
            <path id="Trazado_104072" data-name="Trazado 104072" d="M2153.583-1200.816l.107.072,1.7-.983-.114-.063Z" fill="#121214"/>
            <path id="Trazado_104073" data-name="Trazado 104073" d="M2153.888-1200.638l.11.062,1.688-.975.114.063.105-.06-.219-.126Z" fill="#535359"/>
            <path id="Trazado_104074" data-name="Trazado 104074" d="M2154-1200.576l.107.065,1.7-.976-.114-.063Z" fill="#121214"/>
            <path id="Trazado_104075" data-name="Trazado 104075" d="M2154.308-1200.394l.1.062,1.693-.982.106.064.108-.061-.214-.123Z" fill="#535359"/>
            <path id="Trazado_104076" data-name="Trazado 104076" d="M2154.412-1200.332l.112.058,1.687-.976-.106-.064Z" fill="#121214"/>
            <path id="Trazado_104077" data-name="Trazado 104077" d="M2149.5-1200.829l4.979,2.874v-1.748l-4.979-2.874Z" fill="#939598"/>
            <path id="Trazado_104078" data-name="Trazado 104078" d="M2154.475-1197.955l2.926-1.685v-1.747l-2.926,1.684Z" fill="#535359"/>
          </g>
          <g id="Grupo_57322" data-name="Grupo 57322">
            <path id="Trazado_104079" data-name="Trazado 104079" d="M2161.069-1209.26l4.981,2.875,2.924-1.685-4.984-2.877Z" fill="#bcbec0"/>
            <path id="Trazado_104080" data-name="Trazado 104080" d="M2161.8-1209.233l2.189-1.264v-.116l-2.292,1.321Z" fill="#535359"/>
            <path id="Trazado_104081" data-name="Trazado 104081" d="M2163.985-1210.5l4.274,2.469.1-.058-4.373-2.527Z" fill="#939598"/>
            <path id="Trazado_104082" data-name="Trazado 104082" d="M2161.8-1209.233l4.275,2.469,2.188-1.264-4.274-2.469Z" fill="#747578"/>
            <path id="Trazado_104083" data-name="Trazado 104083" d="M2162.145-1209.233l.109.06,1.7-.979.11.068.1-.059-.214-.129Z" fill="#535359"/>
            <path id="Trazado_104084" data-name="Trazado 104084" d="M2162.255-1209.173l.113.064,1.693-.976-.11-.068Z" fill="#121214"/>
            <path id="Trazado_104085" data-name="Trazado 104085" d="M2162.56-1208.994l.107.06,1.695-.977.111.063.1-.058-.213-.128Z" fill="#535359"/>
            <path id="Trazado_104086" data-name="Trazado 104086" d="M2162.667-1208.934l.111.063,1.695-.977-.111-.063Z" fill="#121214"/>
            <path id="Trazado_104087" data-name="Trazado 104087" d="M2162.979-1208.754l.106.057,1.69-.979.114.069.1-.059-.212-.13Z" fill="#535359"/>
            <path id="Trazado_104088" data-name="Trazado 104088" d="M2163.085-1208.7l.111.065,1.694-.976-.114-.069Z" fill="#121214"/>
            <path id="Trazado_104089" data-name="Trazado 104089" d="M2163.4-1208.515l.1.06,1.692-.98.112.067.109-.061-.22-.127Z" fill="#535359"/>
            <path id="Trazado_104090" data-name="Trazado 104090" d="M2163.5-1208.454l.111.063,1.693-.976-.112-.067Z" fill="#121214"/>
            <path id="Trazado_104091" data-name="Trazado 104091" d="M2163.808-1208.277l.1.062,1.693-.978.108.064.106-.064-.215-.117Z" fill="#535359"/>
            <path id="Trazado_104092" data-name="Trazado 104092" d="M2163.912-1208.215l.114.065,1.687-.979-.108-.064Z" fill="#121214"/>
            <path id="Trazado_104093" data-name="Trazado 104093" d="M2164.22-1208.04l.1.062,1.691-.978.113.068.107-.06-.219-.128Z" fill="#535359"/>
            <path id="Trazado_104094" data-name="Trazado 104094" d="M2164.324-1207.978l.114.067,1.69-.976-.113-.068Z" fill="#121214"/>
            <path id="Trazado_104095" data-name="Trazado 104095" d="M2164.638-1207.8l.1.062,1.692-.976.117.064.1-.064-.22-.12Z" fill="#535359"/>
            <path id="Trazado_104096" data-name="Trazado 104096" d="M2164.739-1207.735l.114.064,1.7-.976-.117-.064Z" fill="#121214"/>
            <path id="Trazado_104097" data-name="Trazado 104097" d="M2165.053-1207.559l.1.06,1.693-.976.114.067.1-.063-.217-.121Z" fill="#535359"/>
            <path id="Trazado_104098" data-name="Trazado 104098" d="M2165.154-1207.5l.109.072,1.7-.981-.114-.067Z" fill="#121214"/>
            <path id="Trazado_104099" data-name="Trazado 104099" d="M2165.465-1207.32l.1.059,1.693-.973.114.061.106-.059-.22-.125Z" fill="#535359"/>
            <path id="Trazado_104100" data-name="Trazado 104100" d="M2165.568-1207.261l.113.065,1.694-.977-.114-.061Z" fill="#121214"/>
            <path id="Trazado_104101" data-name="Trazado 104101" d="M2165.885-1207.079l.1.062,1.692-.979.113.062.1-.062-.216-.12Z" fill="#535359"/>
            <path id="Trazado_104102" data-name="Trazado 104102" d="M2165.984-1207.017l.111.06,1.694-.978-.113-.062Z" fill="#121214"/>
            <path id="Trazado_104103" data-name="Trazado 104103" d="M2161.069-1207.514l4.981,2.875v-1.747l-4.981-2.875Z" fill="#939598"/>
            <path id="Trazado_104104" data-name="Trazado 104104" d="M2166.05-1204.638l2.924-1.689v-1.743l-2.924,1.685Z" fill="#535359"/>
          </g>
        </g>
      </g>
      <g id="Grupo_57335" data-name="Grupo 57335">
        <path id="Trazado_104105" data-name="Trazado 104105" d="M2136.071-1140l21.867-12.628v18.732l-21.867,12.626Z" fill="#ba793d"/>
        <g id="Grupo_57325" data-name="Grupo 57325">
          <path id="Trazado_104106" data-name="Trazado 104106" d="M2088.525-1167.45v-1.317l47.547,27.453V-1140Z" fill="#939598"/>
          <path id="Trazado_104107" data-name="Trazado 104107" d="M2136.071-1141.314l21.867-12.641v1.331L2136.071-1140Z" fill="#535359"/>
          <path id="Trazado_104108" data-name="Trazado 104108" d="M2088.525-1168.767l21.866-12.64,47.548,27.452-21.867,12.641Z" fill="#a7a9ac"/>
          <path id="Trazado_104109" data-name="Trazado 104109" d="M2110.391-1178.6l42.683,24.645-2.487,1.439-40.2-23.206Z" fill="#939598"/>
          <path id="Trazado_104110" data-name="Trazado 104110" d="M2110.391-1175.722l-14.521,8.388-2.486-1.439,17.006-9.828Z" fill="#535359"/>
          <path id="Trazado_104111" data-name="Trazado 104111" d="M2150.587-1152.516l-14.518,8.39-40.2-23.207,14.521-8.388Z" fill="#747578"/>
        </g>
        <g id="Grupo_57328" data-name="Grupo 57328">
          <g id="Grupo_57326" data-name="Grupo 57326">
            <path id="Trazado_104112" data-name="Trazado 104112" d="M2101.888-1172.522l5.383,3.111,6.552-3.782-5.388-3.109Z" fill="#bcbec0"/>
            <path id="Trazado_104113" data-name="Trazado 104113" d="M2102.67-1172.374l5.774-3.329v-.3l-6.032,3.483Z" fill="#535359"/>
            <path id="Trazado_104114" data-name="Trazado 104114" d="M2108.444-1175.7l4.6,2.661.262-.151-4.866-2.814Z" fill="#939598"/>
            <path id="Trazado_104115" data-name="Trazado 104115" d="M2102.67-1172.374l4.611,2.662,5.767-3.33-4.6-2.661Z" fill="#747578"/>
            <path id="Trazado_104116" data-name="Trazado 104116" d="M2107.271-1165.4l6.552-3.779v-4.015l-6.552,3.782Z" fill="#535359"/>
            <path id="Trazado_104117" data-name="Trazado 104117" d="M2101.888-1168.508l5.383,3.108v-4.012l-5.383-3.111Z" fill="#939598"/>
          </g>
          <g id="Grupo_57327" data-name="Grupo 57327">
            <path id="Trazado_104118" data-name="Trazado 104118" d="M2109.639-1168.049l5.385,3.114,6.55-3.783-5.389-3.1Z" fill="#bcbec0"/>
            <path id="Trazado_104119" data-name="Trazado 104119" d="M2110.424-1167.9l5.769-3.326v-.306l-6.029,3.482Z" fill="#535359"/>
            <path id="Trazado_104120" data-name="Trazado 104120" d="M2116.193-1171.226l4.607,2.662.264-.155-4.87-2.813Z" fill="#939598"/>
            <path id="Trazado_104121" data-name="Trazado 104121" d="M2110.424-1167.9l4.606,2.661,5.769-3.325-4.607-2.662Z" fill="#747578"/>
            <path id="Trazado_104122" data-name="Trazado 104122" d="M2115.024-1160.92l6.55-3.781v-4.016l-6.55,3.783Z" fill="#535359"/>
            <path id="Trazado_104123" data-name="Trazado 104123" d="M2109.639-1164.033l5.385,3.113v-4.015l-5.385-3.114Z" fill="#939598"/>
          </g>
        </g>
        <g id="Grupo_57331" data-name="Grupo 57331">
          <g id="Grupo_57329" data-name="Grupo 57329">
            <path id="Trazado_104124" data-name="Trazado 104124" d="M2118.355-1158.753l4.979,2.871,2.923-1.686-4.981-2.87Z" fill="#bcbec0"/>
            <path id="Trazado_104125" data-name="Trazado 104125" d="M2119.085-1158.728l2.183-1.262v-.117l-2.29,1.322Z" fill="#535359"/>
            <path id="Trazado_104126" data-name="Trazado 104126" d="M2121.268-1159.989l4.279,2.467.1-.056-4.376-2.527Z" fill="#939598"/>
            <path id="Trazado_104127" data-name="Trazado 104127" d="M2119.085-1158.728l4.269,2.468,2.192-1.263-4.279-2.467Z" fill="#747578"/>
            <path id="Trazado_104128" data-name="Trazado 104128" d="M2119.434-1158.728l.1.059,1.7-.979.108.069.1-.06-.21-.129Z" fill="#535359"/>
            <path id="Trazado_104129" data-name="Trazado 104129" d="M2119.539-1158.668l.116.069,1.689-.979-.108-.069Z" fill="#121214"/>
            <path id="Trazado_104130" data-name="Trazado 104130" d="M2119.851-1158.488l.1.059,1.692-.977.114.063.1-.056-.214-.133Z" fill="#535359"/>
            <path id="Trazado_104131" data-name="Trazado 104131" d="M2119.954-1158.428l.112.062,1.694-.975-.114-.063Z" fill="#121214"/>
            <path id="Trazado_104132" data-name="Trazado 104132" d="M2120.264-1158.247l.106.059,1.692-.981.112.069.1-.062-.213-.124Z" fill="#535359"/>
            <path id="Trazado_104133" data-name="Trazado 104133" d="M2120.37-1158.188l.111.062,1.694-.974-.112-.069Z" fill="#121214"/>
            <path id="Trazado_104134" data-name="Trazado 104134" d="M2120.682-1158.006l.1.06,1.695-.98.11.065.106-.062-.216-.124Z" fill="#535359"/>
            <path id="Trazado_104135" data-name="Trazado 104135" d="M2120.782-1157.946l.114.063,1.691-.978-.11-.065Z" fill="#121214"/>
            <path id="Trazado_104136" data-name="Trazado 104136" d="M2121.093-1157.768l.1.06,1.7-.977.11.064.1-.06-.212-.124Z" fill="#535359"/>
            <path id="Trazado_104137" data-name="Trazado 104137" d="M2121.2-1157.709l.114.066,1.692-.979-.11-.064Z" fill="#121214"/>
            <path id="Trazado_104138" data-name="Trazado 104138" d="M2121.508-1157.53l.1.064,1.691-.983.112.068.1-.06-.215-.124Z" fill="#535359"/>
            <path id="Trazado_104139" data-name="Trazado 104139" d="M2121.613-1157.467l.113.062,1.691-.977-.112-.068Z" fill="#121214"/>
            <path id="Trazado_104140" data-name="Trazado 104140" d="M2121.92-1157.291l.1.062,1.7-.98.109.066.107-.063-.217-.124Z" fill="#535359"/>
            <path id="Trazado_104141" data-name="Trazado 104141" d="M2122.023-1157.229l.114.065,1.69-.979-.109-.066Z" fill="#121214"/>
            <path id="Trazado_104142" data-name="Trazado 104142" d="M2122.339-1157.053l.105.062,1.691-.977.11.06.109-.058-.219-.124Z" fill="#535359"/>
            <path id="Trazado_104143" data-name="Trazado 104143" d="M2122.444-1156.991l.109.068,1.691-.984-.11-.06Z" fill="#121214"/>
            <path id="Trazado_104144" data-name="Trazado 104144" d="M2122.751-1156.815l.106.06,1.687-.976.116.068.1-.062-.22-.126Z" fill="#535359"/>
            <path id="Trazado_104145" data-name="Trazado 104145" d="M2122.857-1156.755l.109.067,1.694-.975-.116-.068Z" fill="#121214"/>
            <path id="Trazado_104146" data-name="Trazado 104146" d="M2123.17-1156.573l.1.061,1.69-.977.108.064.11-.064-.219-.12Z" fill="#535359"/>
            <path id="Trazado_104147" data-name="Trazado 104147" d="M2123.274-1156.512l.11.062,1.688-.976-.108-.064Z" fill="#121214"/>
            <path id="Trazado_104148" data-name="Trazado 104148" d="M2118.355-1157.007l4.979,2.874v-1.748l-4.979-2.871Z" fill="#939598"/>
            <path id="Trazado_104149" data-name="Trazado 104149" d="M2123.334-1154.133l2.923-1.688v-1.746l-2.923,1.686Z" fill="#535359"/>
          </g>
          <g id="Grupo_57330" data-name="Grupo 57330">
            <path id="Trazado_104150" data-name="Trazado 104150" d="M2124.144-1162.094l4.979,2.874,2.92-1.686-4.981-2.877Z" fill="#bcbec0"/>
            <path id="Trazado_104151" data-name="Trazado 104151" d="M2124.871-1162.068l2.188-1.264v-.117l-2.294,1.319Z" fill="#535359"/>
            <path id="Trazado_104152" data-name="Trazado 104152" d="M2127.058-1163.332l4.274,2.47.1-.058-4.376-2.528Z" fill="#939598"/>
            <path id="Trazado_104153" data-name="Trazado 104153" d="M2124.871-1162.068l4.272,2.47,2.19-1.264-4.274-2.47Z" fill="#747578"/>
            <path id="Trazado_104154" data-name="Trazado 104154" d="M2125.22-1162.068l.106.061,1.7-.98.114.068.1-.06-.216-.127Z" fill="#535359"/>
            <path id="Trazado_104155" data-name="Trazado 104155" d="M2125.326-1162.007l.115.063,1.7-.976-.114-.068Z" fill="#121214"/>
            <path id="Trazado_104156" data-name="Trazado 104156" d="M2125.636-1161.828l.1.06,1.7-.978.113.063.1-.059-.212-.124Z" fill="#535359"/>
            <path id="Trazado_104157" data-name="Trazado 104157" d="M2125.738-1161.768l.116.064,1.693-.979-.113-.063Z" fill="#121214"/>
            <path id="Trazado_104158" data-name="Trazado 104158" d="M2126.052-1161.59l.105.061,1.691-.978.112.066.1-.06-.213-.129Z" fill="#535359"/>
            <path id="Trazado_104159" data-name="Trazado 104159" d="M2126.157-1161.529l.112.064,1.691-.976-.112-.066Z" fill="#121214"/>
            <path id="Trazado_104160" data-name="Trazado 104160" d="M2126.464-1161.349l.1.058,1.694-.979.11.067.107-.059-.217-.124Z" fill="#535359"/>
            <path id="Trazado_104161" data-name="Trazado 104161" d="M2126.569-1161.291l.109.064,1.695-.976-.11-.067Z" fill="#121214"/>
            <path id="Trazado_104162" data-name="Trazado 104162" d="M2126.884-1161.111l.1.059,1.693-.976.111.063.1-.063-.214-.117Z" fill="#535359"/>
            <path id="Trazado_104163" data-name="Trazado 104163" d="M2126.984-1161.051l.113.064,1.691-.976-.111-.063Z" fill="#121214"/>
            <path id="Trazado_104164" data-name="Trazado 104164" d="M2127.294-1160.873l.1.062,1.695-.979.109.068.108-.06-.217-.128Z" fill="#535359"/>
            <path id="Trazado_104165" data-name="Trazado 104165" d="M2127.4-1160.811l.115.068,1.688-.979-.109-.068Z" fill="#121214"/>
            <path id="Trazado_104166" data-name="Trazado 104166" d="M2127.709-1160.631l.1.062,1.695-.979.112.066.1-.064-.217-.124Z" fill="#535359"/>
            <path id="Trazado_104167" data-name="Trazado 104167" d="M2127.812-1160.569l.111.061,1.7-.975-.112-.066Z" fill="#121214"/>
            <path id="Trazado_104168" data-name="Trazado 104168" d="M2128.125-1160.393l.1.061,1.692-.975.111.059.1-.058-.216-.124Z" fill="#535359"/>
            <path id="Trazado_104169" data-name="Trazado 104169" d="M2128.229-1160.332l.107.068,1.7-.983-.111-.059Z" fill="#121214"/>
            <path id="Trazado_104170" data-name="Trazado 104170" d="M2128.537-1160.152l.1.057,1.69-.976.115.062.107-.056-.222-.125Z" fill="#535359"/>
            <path id="Trazado_104171" data-name="Trazado 104171" d="M2128.642-1160.095l.114.063,1.692-.977-.115-.062Z" fill="#121214"/>
            <path id="Trazado_104172" data-name="Trazado 104172" d="M2128.957-1159.915l.1.062,1.7-.978.107.064.108-.062-.215-.121Z" fill="#535359"/>
            <path id="Trazado_104173" data-name="Trazado 104173" d="M2129.055-1159.854l.113.066,1.691-.98-.107-.064Z" fill="#121214"/>
            <path id="Trazado_104174" data-name="Trazado 104174" d="M2124.144-1160.351l4.979,2.878v-1.746l-4.979-2.874Z" fill="#939598"/>
            <path id="Trazado_104175" data-name="Trazado 104175" d="M2129.123-1157.474l2.92-1.688v-1.744l-2.92,1.686Z" fill="#535359"/>
          </g>
        </g>
        <g id="Grupo_57334" data-name="Grupo 57334">
          <g id="Grupo_57332" data-name="Grupo 57332">
            <path id="Trazado_104176" data-name="Trazado 104176" d="M2127.977-1153.2l4.98,2.874,2.924-1.682-4.982-2.879Z" fill="#bcbec0"/>
            <path id="Trazado_104177" data-name="Trazado 104177" d="M2128.7-1153.173l2.187-1.26v-.12l-2.291,1.324Z" fill="#535359"/>
            <path id="Trazado_104178" data-name="Trazado 104178" d="M2130.891-1154.433l4.275,2.465.1-.055-4.373-2.53Z" fill="#939598"/>
            <path id="Trazado_104179" data-name="Trazado 104179" d="M2128.7-1153.173l4.271,2.469,2.191-1.264-4.275-2.465Z" fill="#747578"/>
            <path id="Trazado_104180" data-name="Trazado 104180" d="M2129.053-1153.173l.107.063,1.7-.983.109.068.1-.06-.214-.127Z" fill="#535359"/>
            <path id="Trazado_104181" data-name="Trazado 104181" d="M2129.16-1153.109l.116.06,1.69-.976-.109-.068Z" fill="#121214"/>
            <path id="Trazado_104182" data-name="Trazado 104182" d="M2129.474-1152.932l.1.058,1.7-.979.112.064.1-.056-.211-.127Z" fill="#535359"/>
            <path id="Trazado_104183" data-name="Trazado 104183" d="M2129.574-1152.874l.115.064,1.692-.979-.112-.064Z" fill="#121214"/>
            <path id="Trazado_104184" data-name="Trazado 104184" d="M2129.883-1152.693l.107.06,1.694-.98.112.071.1-.059-.214-.129Z" fill="#535359"/>
            <path id="Trazado_104185" data-name="Trazado 104185" d="M2129.99-1152.634l.11.064,1.7-.974-.112-.071Z" fill="#121214"/>
            <path id="Trazado_104186" data-name="Trazado 104186" d="M2130.3-1152.453l.1.062,1.694-.979.113.067.1-.062-.217-.127Z" fill="#535359"/>
            <path id="Trazado_104187" data-name="Trazado 104187" d="M2130.4-1152.391l.113.062,1.694-.975-.113-.067Z" fill="#121214"/>
            <path id="Trazado_104188" data-name="Trazado 104188" d="M2130.715-1152.213l.1.06,1.7-.977.109.064.1-.061-.212-.125Z" fill="#535359"/>
            <path id="Trazado_104189" data-name="Trazado 104189" d="M2130.819-1152.153l.113.065,1.692-.979-.109-.064Z" fill="#121214"/>
            <path id="Trazado_104190" data-name="Trazado 104190" d="M2131.131-1151.975l.1.064,1.7-.981.108.066.105-.06-.213-.127Z" fill="#535359"/>
            <path id="Trazado_104191" data-name="Trazado 104191" d="M2131.232-1151.912l.114.063,1.689-.979-.108-.066Z" fill="#121214"/>
            <path id="Trazado_104192" data-name="Trazado 104192" d="M2131.543-1151.736l.1.064,1.7-.979.109.064.107-.06-.216-.125Z" fill="#535359"/>
            <path id="Trazado_104193" data-name="Trazado 104193" d="M2131.645-1151.672l.115.063,1.693-.979-.109-.064Z" fill="#121214"/>
            <path id="Trazado_104194" data-name="Trazado 104194" d="M2131.959-1151.5l.105.059,1.69-.975.111.062.109-.06-.22-.125Z" fill="#535359"/>
            <path id="Trazado_104195" data-name="Trazado 104195" d="M2132.064-1151.436l.109.068,1.692-.98-.111-.062Z" fill="#121214"/>
            <path id="Trazado_104196" data-name="Trazado 104196" d="M2132.375-1151.258l.1.06,1.691-.973.115.06.1-.058-.219-.125Z" fill="#535359"/>
            <path id="Trazado_104197" data-name="Trazado 104197" d="M2132.478-1151.2l.113.066,1.694-.98-.115-.06Z" fill="#121214"/>
            <path id="Trazado_104198" data-name="Trazado 104198" d="M2132.791-1151.018l.1.061,1.692-.979.106.064.111-.06-.217-.124Z" fill="#535359"/>
            <path id="Trazado_104199" data-name="Trazado 104199" d="M2132.894-1150.957l.111.062,1.687-.977-.106-.064Z" fill="#121214"/>
            <path id="Trazado_104200" data-name="Trazado 104200" d="M2127.977-1151.451l4.98,2.873v-1.748l-4.98-2.874Z" fill="#939598"/>
            <path id="Trazado_104201" data-name="Trazado 104201" d="M2132.956-1148.578l2.924-1.688v-1.742l-2.924,1.682Z" fill="#535359"/>
          </g>
          <g id="Grupo_57333" data-name="Grupo 57333">
            <path id="Trazado_104202" data-name="Trazado 104202" d="M2133.764-1156.538l4.983,2.874,2.92-1.685-4.984-2.877Z" fill="#bcbec0"/>
            <path id="Trazado_104203" data-name="Trazado 104203" d="M2134.492-1156.512l2.187-1.263v-.118l-2.29,1.321Z" fill="#535359"/>
            <path id="Trazado_104204" data-name="Trazado 104204" d="M2136.678-1157.775l4.276,2.465.1-.056-4.376-2.527Z" fill="#939598"/>
            <path id="Trazado_104205" data-name="Trazado 104205" d="M2134.492-1156.512l4.274,2.465,2.189-1.263-4.276-2.465Z" fill="#747578"/>
            <path id="Trazado_104206" data-name="Trazado 104206" d="M2134.844-1156.512l.1.056,1.7-.977.113.068.1-.058-.214-.125Z" fill="#535359"/>
            <path id="Trazado_104207" data-name="Trazado 104207" d="M2134.947-1156.456l.114.069,1.695-.979-.113-.068Z" fill="#121214"/>
            <path id="Trazado_104208" data-name="Trazado 104208" d="M2135.257-1156.273l.1.06,1.7-.976.109.059.1-.056-.212-.129Z" fill="#535359"/>
            <path id="Trazado_104209" data-name="Trazado 104209" d="M2135.362-1156.213l.113.064,1.694-.98-.109-.059Z" fill="#121214"/>
            <path id="Trazado_104210" data-name="Trazado 104210" d="M2135.672-1156.033l.107.06,1.692-.981.111.065.1-.059-.21-.125Z" fill="#535359"/>
            <path id="Trazado_104211" data-name="Trazado 104211" d="M2135.779-1155.973l.112.061,1.691-.977-.111-.065Z" fill="#121214"/>
            <path id="Trazado_104212" data-name="Trazado 104212" d="M2136.09-1155.791l.1.055,1.69-.979.112.068.109-.06-.22-.127Z" fill="#535359"/>
            <path id="Trazado_104213" data-name="Trazado 104213" d="M2136.193-1155.736l.109.064,1.693-.975-.112-.068Z" fill="#121214"/>
            <path id="Trazado_104214" data-name="Trazado 104214" d="M2136.5-1155.554l.1.06,1.695-.977.109.062.1-.062-.213-.12Z" fill="#535359"/>
            <path id="Trazado_104215" data-name="Trazado 104215" d="M2136.6-1155.494l.115.063,1.689-.979-.109-.062Z" fill="#121214"/>
            <path id="Trazado_104216" data-name="Trazado 104216" d="M2136.915-1155.32l.1.066,1.694-.98.109.064.109-.06-.218-.125Z" fill="#535359"/>
            <path id="Trazado_104217" data-name="Trazado 104217" d="M2137.019-1155.254l.116.062,1.688-.977-.109-.064Z" fill="#121214"/>
            <path id="Trazado_104218" data-name="Trazado 104218" d="M2137.331-1155.078l.1.064,1.7-.98.113.064.105-.064-.218-.121Z" fill="#535359"/>
            <path id="Trazado_104219" data-name="Trazado 104219" d="M2137.433-1155.014l.113.063,1.7-.979-.113-.064Z" fill="#121214"/>
            <path id="Trazado_104220" data-name="Trazado 104220" d="M2137.746-1154.841l.1.062,1.691-.973.114.062.106-.062-.22-.122Z" fill="#535359"/>
            <path id="Trazado_104221" data-name="Trazado 104221" d="M2137.851-1154.779l.107.068,1.7-.979-.114-.062Z" fill="#121214"/>
            <path id="Trazado_104222" data-name="Trazado 104222" d="M2138.161-1154.6l.1.059,1.693-.974.116.064.1-.06-.22-.124Z" fill="#535359"/>
            <path id="Trazado_104223" data-name="Trazado 104223" d="M2138.262-1154.542l.113.064,1.7-.974-.116-.064Z" fill="#121214"/>
            <path id="Trazado_104224" data-name="Trazado 104224" d="M2138.58-1154.361l.1.064,1.695-.979.109.064.106-.064-.216-.12Z" fill="#535359"/>
            <path id="Trazado_104225" data-name="Trazado 104225" d="M2138.678-1154.3l.114.064,1.69-.979-.109-.064Z" fill="#121214"/>
            <path id="Trazado_104226" data-name="Trazado 104226" d="M2133.764-1154.8l4.983,2.879v-1.748l-4.983-2.874Z" fill="#939598"/>
            <path id="Trazado_104227" data-name="Trazado 104227" d="M2138.747-1151.917l2.92-1.691v-1.741l-2.92,1.685Z" fill="#535359"/>
          </g>
        </g>
        <path id="Trazado_104228" data-name="Trazado 104228" d="M2136.071-1121.267l-47.547-27.453v-18.73L2136.071-1140Z" fill="#ffaf53"/>
        <path id="Trazado_104229" data-name="Trazado 104229" d="M2168.572-1110.148l-25.88-14.942v-41.024l25.88,14.94Z" fill="#ffaf53"/>
      </g>
      <g id="Grupo_57341" data-name="Grupo 57341">
        <g id="Grupo_57336" data-name="Grupo 57336">
          <path id="Trazado_104230" data-name="Trazado 104230" d="M2100.021-1134.331l6.709-3.874v-3.411l-6.709,3.876Z" fill="#535359"/>
          <path id="Trazado_104231" data-name="Trazado 104231" d="M2087.493-1141.561l12.528,7.23v-3.409l-12.528-7.237Z" fill="#939598"/>
          <path id="Trazado_104232" data-name="Trazado 104232" d="M2100.021-1137.74l6.709-3.876-12.523-7.233-6.714,3.873Z" fill="#a7a9ac"/>
        </g>
        <g id="Grupo_57340" data-name="Grupo 57340">
          <g id="Grupo_57337" data-name="Grupo 57337">
            <path id="Trazado_104233" data-name="Trazado 104233" d="M2105.692-1141.018l1.037-.6v-10.647l-1.037.6Z" fill="#ba793d"/>
            <path id="Trazado_104234" data-name="Trazado 104234" d="M2093.16-1158.9l12.532,7.237,1.037-.6L2094.2-1159.5Z" fill="#ffc37d"/>
            <path id="Trazado_104235" data-name="Trazado 104235" d="M2094.169-1147.663l1.039-.6v-7.837l-1.039-.6Z" fill="#ba793d"/>
            <path id="Trazado_104236" data-name="Trazado 104236" d="M2093.16-1148.247l1.009.584v-9.04l10.514,6.07v9.035l1.01.58v-10.642l-12.532-7.237Z" fill="#ffaf53"/>
          </g>
          <g id="Grupo_57339" data-name="Grupo 57339">
            <path id="Trazado_104237" data-name="Trazado 104237" d="M2095.208-1148.268l9.475,5.473v-7.838l-9.475-5.471Z" fill="#535359"/>
            <g id="Grupo_57338" data-name="Grupo 57338">
              <path id="Trazado_104238" data-name="Trazado 104238" d="M2099.8-1150.614a.351.351,0,0,0-.032.153.776.776,0,0,0,.34.6l.971.56a.353.353,0,0,0,.177.044c-.06.1-.177.122-.311.042l-.966-.554a.764.764,0,0,1-.347-.6C2099.63-1150.517,2099.7-1150.607,2099.8-1150.614Z" fill="#121214"/>
              <path id="Trazado_104239" data-name="Trazado 104239" d="M2099.977-1150.566l.966.554a.775.775,0,0,1,.343.6.363.363,0,0,1-.032.155.353.353,0,0,1-.177-.044l-.971-.56a.776.776,0,0,1-.34-.6.351.351,0,0,1,.032-.153A.288.288,0,0,1,2099.977-1150.566Z" fill="#174666"/>
              <path id="Trazado_104240" data-name="Trazado 104240" d="M2099.579-1150.4a.877.877,0,0,0,.4.687l.966.56c.214.123.392.022.392-.229a.867.867,0,0,0-.392-.681l-.966-.56C2099.757-1150.753,2099.579-1150.653,2099.579-1150.4Zm.1.062c0-.185.134-.266.3-.169l.966.554a.659.659,0,0,1,.294.516c0,.188-.131.265-.294.168l-.966-.554A.664.664,0,0,1,2099.676-1150.341Z" fill="#303033"/>
            </g>
            <path id="Trazado_104241" data-name="Trazado 104241" d="M2095.208-1155.578l9.475,5.47v-.312l-9.475-5.469Z" fill="#303033"/>
            <path id="Trazado_104242" data-name="Trazado 104242" d="M2095.208-1153.748l9.475,5.469v-.312l-9.475-5.47Z" fill="#303033"/>
            <path id="Trazado_104243" data-name="Trazado 104243" d="M2095.208-1151.921l9.475,5.466v-.309l-9.475-5.47Z" fill="#303033"/>
            <path id="Trazado_104244" data-name="Trazado 104244" d="M2095.208-1150.094l9.475,5.472v-.314l-9.475-5.473Z" fill="#303033"/>
            <path id="Trazado_104245" data-name="Trazado 104245" d="M2095.208-1148.268l9.475,5.473v-.316l-9.475-5.47Z" fill="#303033"/>
          </g>
        </g>
      </g>
      <g id="Grupo_57347" data-name="Grupo 57347">
        <g id="Grupo_57342" data-name="Grupo 57342">
          <path id="Trazado_104246" data-name="Trazado 104246" d="M2123.684-1120.673l6.714-3.874v-3.41l-6.714,3.876Z" fill="#535359"/>
          <path id="Trazado_104247" data-name="Trazado 104247" d="M2111.16-1127.907l12.524,7.233v-3.408l-12.524-7.235Z" fill="#939598"/>
          <path id="Trazado_104248" data-name="Trazado 104248" d="M2123.684-1124.081l6.714-3.876-12.526-7.231-6.711,3.872Z" fill="#a7a9ac"/>
        </g>
        <g id="Grupo_57346" data-name="Grupo 57346">
          <g id="Grupo_57343" data-name="Grupo 57343">
            <path id="Trazado_104249" data-name="Trazado 104249" d="M2129.357-1127.357l1.041-.6v-10.648l-1.041.6Z" fill="#ba793d"/>
            <path id="Trazado_104250" data-name="Trazado 104250" d="M2116.824-1145.237l12.532,7.234,1.041-.6-12.534-7.23Z" fill="#ffc37d"/>
            <path id="Trazado_104251" data-name="Trazado 104251" d="M2117.834-1134l1.04-.6v-7.835l-1.04-.6Z" fill="#ba793d"/>
            <path id="Trazado_104252" data-name="Trazado 104252" d="M2116.824-1134.588l1.01.583v-9.036l10.515,6.069v9.034l1.008.581V-1138l-12.532-7.234Z" fill="#ffaf53"/>
          </g>
          <g id="Grupo_57345" data-name="Grupo 57345">
            <path id="Trazado_104253" data-name="Trazado 104253" d="M2118.874-1134.608l9.475,5.471v-7.835l-9.475-5.471Z" fill="#535359"/>
            <g id="Grupo_57344" data-name="Grupo 57344">
              <path id="Trazado_104254" data-name="Trazado 104254" d="M2123.461-1136.957a.4.4,0,0,0-.027.155.756.756,0,0,0,.338.595l.968.56a.319.319,0,0,0,.178.045c-.057.1-.178.124-.31.045l-.966-.555a.774.774,0,0,1-.346-.6C2123.3-1136.856,2123.364-1136.946,2123.461-1136.957Z" fill="#121214"/>
              <path id="Trazado_104255" data-name="Trazado 104255" d="M2123.642-1136.908l.966.556a.77.77,0,0,1,.345.6.306.306,0,0,1-.035.153.319.319,0,0,1-.178-.045l-.968-.56a.756.756,0,0,1-.338-.595.4.4,0,0,1,.027-.155A.321.321,0,0,1,2123.642-1136.908Z" fill="#174666"/>
              <path id="Trazado_104256" data-name="Trazado 104256" d="M2123.244-1136.742a.878.878,0,0,0,.4.685l.966.56c.217.124.4.019.4-.23a.881.881,0,0,0-.4-.683l-.966-.557C2123.424-1137.095,2123.244-1136.989,2123.244-1136.742Zm.1.059c0-.186.13-.263.3-.17l.966.559a.646.646,0,0,1,.3.513c0,.185-.133.261-.3.17l-.966-.561A.644.644,0,0,1,2123.344-1136.683Z" fill="#303033"/>
            </g>
            <path id="Trazado_104257" data-name="Trazado 104257" d="M2118.874-1141.921l9.475,5.469v-.309l-9.475-5.469Z" fill="#303033"/>
            <path id="Trazado_104258" data-name="Trazado 104258" d="M2118.874-1140.092l9.475,5.471v-.31l-9.475-5.474Z" fill="#303033"/>
            <path id="Trazado_104259" data-name="Trazado 104259" d="M2118.874-1138.261l9.475,5.465v-.312l-9.475-5.469Z" fill="#303033"/>
            <path id="Trazado_104260" data-name="Trazado 104260" d="M2118.874-1136.435l9.475,5.47v-.313l-9.475-5.471Z" fill="#303033"/>
            <path id="Trazado_104261" data-name="Trazado 104261" d="M2118.874-1134.608l9.475,5.471v-.313l-9.475-5.475Z" fill="#303033"/>
          </g>
        </g>
      </g>
      <g id="Grupo_57350" data-name="Grupo 57350">
        <g id="Grupo_57348" data-name="Grupo 57348">
          <path id="Trazado_104262" data-name="Trazado 104262" d="M2176.693-1110.145l22.582-13.037v-17.481l-22.582,13.04Z" fill="#ba793d"/>
          <path id="Trazado_104263" data-name="Trazado 104263" d="M2172.634-1112.494l4.059,2.348v-17.478l-4.059-2.351Z" fill="#ffaf53"/>
          <path id="Trazado_104264" data-name="Trazado 104264" d="M2176.693-1127.623l22.582-13.04-4.061-2.35-22.579,13.039Z" fill="#fff"/>
        </g>
        <g id="Grupo_57349" data-name="Grupo 57349">
          <path id="Trazado_104265" data-name="Trazado 104265" d="M2176.693-1127.623l22.582-13.04v-.741l-22.582,13.036Z" fill="#535359"/>
          <path id="Trazado_104266" data-name="Trazado 104266" d="M2172.634-1129.974l4.059,2.351v-.745l-4.059-2.348Z" fill="#939598"/>
          <path id="Trazado_104267" data-name="Trazado 104267" d="M2176.693-1128.368l22.582-13.036-4.061-2.352-22.579,13.041Z" fill="#a7a9ac"/>
        </g>
      </g>
      <g id="Grupo_57361" data-name="Grupo 57361">
        <g id="Grupo_57354" data-name="Grupo 57354">
          <g id="Grupo_57351" data-name="Grupo 57351">
            <path id="Trazado_104268" data-name="Trazado 104268" d="M2194.241-1132.049v6.358l-4.974,2.874-.048-6.256Z" fill="#3576ab"/>
          </g>
          <path id="Trazado_104269" data-name="Trazado 104269" d="M2193.978-1131.9l.263-.053v2.43l-.1.3.1.289-.263.056Z" fill="#121214"/>
          <path id="Trazado_104270" data-name="Trazado 104270" d="M2189.286-1126.6l4.7-2.716.156.089-4.852,2.8Z" fill="#121214"/>
          <path id="Trazado_104271" data-name="Trazado 104271" d="M2189.144-1128.15v8.07l2.586-1.5,2.588-1.5v-9.079l-5.174,2.991Zm.209-.848,4.785-2.764v2.539l-2.408,1.391-2.377,1.37Z" fill="#303033"/>
          <path id="Trazado_104272" data-name="Trazado 104272" d="M2191.942-1124.838v.179l2.2-1.254v-2.886l-.16.087v2.71Z" fill="#121214"/>
          <path id="Trazado_104273" data-name="Trazado 104273" d="M2191.942-1127.55v2.713l2.036-1.164v-2.71Z" fill="#3576ab"/>
          <path id="Trazado_104274" data-name="Trazado 104274" d="M2191.942-1122.284v.178l2.2-1.251v-2.253l-.16.089v2.071Z" fill="#121214"/>
          <path id="Trazado_104275" data-name="Trazado 104275" d="M2191.942-1124.363v2.078l2.036-1.166v-2.071Z" fill="#3576ab"/>
          <path id="Trazado_104276" data-name="Trazado 104276" d="M2191.763-1127.854v6.254l-.069.043v-6.255Z" fill="#121214"/>
          <path id="Trazado_104277" data-name="Trazado 104277" d="M2189.353-1123.344v.181l2.194-1.25v-2.894l-.161.089v2.718Z" fill="#121214"/>
          <path id="Trazado_104278" data-name="Trazado 104278" d="M2189.353-1126.056v2.713l2.033-1.157v-2.718Z" fill="#3576ab"/>
          <path id="Trazado_104279" data-name="Trazado 104279" d="M2189.353-1120.795v.187l2.194-1.252v-2.256l-.161.091v2.071Z" fill="#121214"/>
          <path id="Trazado_104280" data-name="Trazado 104280" d="M2189.353-1122.865v2.07l2.033-1.159v-2.071Z" fill="#3576ab"/>
          <g id="Grupo_57352" data-name="Grupo 57352">
            <path id="Trazado_104281" data-name="Trazado 104281" d="M2191.469-1124.243a.172.172,0,0,0,.166.169.169.169,0,0,0,.168-.169.167.167,0,0,0-.168-.169A.17.17,0,0,0,2191.469-1124.243Z" fill="#666"/>
            <path id="Trazado_104282" data-name="Trazado 104282" d="M2191.532-1124.344c-.017.019-.017.045-.007.051s.03,0,.049-.013a.043.043,0,0,0,.009-.049A.039.039,0,0,0,2191.532-1124.344Z" fill="#d6d6d6"/>
          </g>
          <g id="Grupo_57353" data-name="Grupo 57353">
            <path id="Trazado_104283" data-name="Trazado 104283" d="M2191.84-1124.435a.171.171,0,0,0,.169.171.174.174,0,0,0,.168-.171.173.173,0,0,0-.168-.171A.17.17,0,0,0,2191.84-1124.435Z" fill="#666"/>
            <path id="Trazado_104284" data-name="Trazado 104284" d="M2191.906-1124.537c-.017.013-.021.047-.012.051s.036,0,.048-.011.021-.042.014-.045S2191.924-1124.553,2191.906-1124.537Z" fill="#d6d6d6"/>
          </g>
        </g>
        <g id="Grupo_57358" data-name="Grupo 57358">
          <g id="Grupo_57355" data-name="Grupo 57355">
            <path id="Trazado_104285" data-name="Trazado 104285" d="M2186.747-1127.727v6.365l-4.973,2.873-.044-6.26Z" fill="#3576ab"/>
          </g>
          <path id="Trazado_104286" data-name="Trazado 104286" d="M2186.484-1127.569l.263-.052v2.427l-.1.3.1.287-.263.06Z" fill="#121214"/>
          <path id="Trazado_104287" data-name="Trazado 104287" d="M2181.792-1122.274l4.7-2.714.158.091-4.854,2.8Z" fill="#121214"/>
          <path id="Trazado_104288" data-name="Trazado 104288" d="M2181.647-1123.823v8.067l2.591-1.492,2.587-1.5v-9.075l-5.178,2.987Zm.213-.847,4.786-2.765v2.538l-2.408,1.392-2.378,1.368Z" fill="#303033"/>
          <path id="Trazado_104289" data-name="Trazado 104289" d="M2184.447-1120.513v.178l2.2-1.248v-2.888l-.162.09v2.707Z" fill="#121214"/>
          <path id="Trazado_104290" data-name="Trazado 104290" d="M2184.447-1123.224v2.711l2.037-1.161v-2.707Z" fill="#3576ab"/>
          <path id="Trazado_104291" data-name="Trazado 104291" d="M2184.447-1117.958v.18l2.2-1.256v-2.252l-.162.092v2.071Z" fill="#121214"/>
          <path id="Trazado_104292" data-name="Trazado 104292" d="M2184.447-1120.032v2.074l2.037-1.165v-2.071Z" fill="#3576ab"/>
          <path id="Trazado_104293" data-name="Trazado 104293" d="M2184.271-1123.529v6.257l-.072.043v-6.254Z" fill="#121214"/>
          <path id="Trazado_104294" data-name="Trazado 104294" d="M2181.86-1119.013v.174l2.19-1.247v-2.892l-.158.089v2.716Z" fill="#121214"/>
          <path id="Trazado_104295" data-name="Trazado 104295" d="M2181.86-1121.73v2.717l2.032-1.161v-2.716Z" fill="#3576ab"/>
          <path id="Trazado_104296" data-name="Trazado 104296" d="M2181.86-1116.466v.182l2.19-1.251v-2.252l-.158.089v2.072Z" fill="#121214"/>
          <path id="Trazado_104297" data-name="Trazado 104297" d="M2181.86-1118.539v2.073l2.032-1.161v-2.072Z" fill="#3576ab"/>
          <g id="Grupo_57356" data-name="Grupo 57356">
            <path id="Trazado_104298" data-name="Trazado 104298" d="M2183.975-1119.913a.162.162,0,0,0,.163.16.161.161,0,0,0,.171-.16.166.166,0,0,0-.171-.17A.167.167,0,0,0,2183.975-1119.913Z" fill="#666"/>
            <path id="Trazado_104299" data-name="Trazado 104299" d="M2184.038-1120.016a.045.045,0,0,0-.007.05c.011.012.027,0,.049-.017a.037.037,0,0,0,.007-.047C2184.072-1120.039,2184.056-1120.032,2184.038-1120.016Z" fill="#d6d6d6"/>
          </g>
          <g id="Grupo_57357" data-name="Grupo 57357">
            <path id="Trazado_104300" data-name="Trazado 104300" d="M2184.343-1120.108a.173.173,0,0,0,.172.171.172.172,0,0,0,.165-.171.172.172,0,0,0-.165-.171A.172.172,0,0,0,2184.343-1120.108Z" fill="#666"/>
            <path id="Trazado_104301" data-name="Trazado 104301" d="M2184.414-1120.207c-.023.013-.023.044-.015.044.015.019.038.007.048-.007a.045.045,0,0,0,.01-.049C2184.442-1120.23,2184.426-1120.226,2184.414-1120.207Z" fill="#d6d6d6"/>
          </g>
        </g>
        <g id="Grupo_57359" data-name="Grupo 57359">
          <path id="Trazado_104302" data-name="Trazado 104302" d="M2181.4-1120.026v-.478l-4.7-4.645v2.411Z" fill="#939598"/>
          <path id="Trazado_104303" data-name="Trazado 104303" d="M2181.4-1120.026l22.584-13.037v-.478L2181.4-1120.5Z" fill="#535359"/>
          <path id="Trazado_104304" data-name="Trazado 104304" d="M2176.693-1125.149l4.7,4.645,22.584-13.037-4.7-4.645Z" fill="#a7a9ac"/>
        </g>
        <g id="Grupo_57360" data-name="Grupo 57360">
          <path id="Trazado_104305" data-name="Trazado 104305" d="M2179.538-1110.606l22.582-13.043v-.523l-22.582,13.037Z" fill="#535359"/>
          <path id="Trazado_104306" data-name="Trazado 104306" d="M2180.217-1109.691l22.582-13.041v-.524l-22.582,13.04Z" fill="#535359"/>
          <path id="Trazado_104307" data-name="Trazado 104307" d="M2180.892-1108.773l22.58-13.042v-.518l-22.58,13.036Z" fill="#535359"/>
          <path id="Trazado_104308" data-name="Trazado 104308" d="M2181.571-1107.854l22.581-13.041v-.524l-22.581,13.038Z" fill="#535359"/>
          <path id="Trazado_104309" data-name="Trazado 104309" d="M2176.693-1110.145l5.559,3.206v-.524l-.681-.391v-.527l-.679-.392v-.524l-.676-.393v-.525l-.679-.39v-.529l-2.845-1.643Z" fill="#939598"/>
          <path id="Trazado_104310" data-name="Trazado 104310" d="M2179.538-1111.135l22.582-13.037-2.842-1.642-22.584,13.036Z" fill="#a7a9ac"/>
          <path id="Trazado_104311" data-name="Trazado 104311" d="M2180.217-1110.216l22.582-13.04-.679-.391-22.582,13.041Z" fill="#a7a9ac"/>
          <path id="Trazado_104312" data-name="Trazado 104312" d="M2180.892-1109.3l22.58-13.036-.675-.392-22.582,13.035Z" fill="#a7a9ac"/>
          <path id="Trazado_104313" data-name="Trazado 104313" d="M2182.252-1106.939l22.579-13.041v-.525l-22.579,13.042Z" fill="#535359"/>
          <path id="Trazado_104314" data-name="Trazado 104314" d="M2181.571-1108.381l22.581-13.038-.675-.392-22.585,13.037Z" fill="#a7a9ac"/>
          <path id="Trazado_104315" data-name="Trazado 104315" d="M2182.252-1107.463l22.579-13.042-.679-.388-22.581,13.038Z" fill="#a7a9ac"/>
        </g>
      </g>
    </g>
  </g>
</svg>
