<svg xmlns="http://www.w3.org/2000/svg" width="235" height="196" viewBox="0 0 235 196">
  <g id="Grupo_57393" data-name="Grupo 57393" transform="translate(-2043.533 1020.513)">
    <rect id="Rectángulo_5479" data-name="Rectángulo 5479" width="235" height="196" transform="translate(2043.533 -1020.513)" fill="#ffe8de"/>
    <path id="Trazado_104316" data-name="Trazado 104316" d="M2157-909.054c.6-1.752,88.993-9.911,88.993-9.911l27.607,5.206v89.246H2072.943l-9.1-58.265S2156.4-907.3,2157-909.054Z" transform="translate(4.936)" fill="#ffcbb5"/>
    <g id="Grupo_57390" data-name="Grupo 57390" transform="translate(4.936 3.947)">
      <g id="Grupo_57388" data-name="Grupo 57388" transform="translate(2063.843 -996.872)">
        <g id="Grupo_57378" data-name="Grupo 57378">
          <path id="Trazado_104317" data-name="Trazado 104317" d="M2125.722-850.789l-61.879-35.729,118.081-68.17,61.876,35.724Z" transform="translate(-2063.843 994.679)" opacity="0.3"/>
          <g id="Grupo_57364" data-name="Grupo 57364" transform="translate(100.914)">
            <path id="Trazado_104318" data-name="Trazado 104318" d="M2188.175-976.636l17.164-9.906-17.88-10.33-17.167,9.911Z" transform="translate(-2170.293 996.872)" fill="#16a851"/>
            <path id="Trazado_104319" data-name="Trazado 104319" d="M2221.81-972.732l-23.271-13.439-10.363,10.078-17.882-10.325v39.989l61.876,35.722v-39.982Z" transform="translate(-2170.293 996.329)" fill="#128742"/>
            <path id="Trazado_104320" data-name="Trazado 104320" d="M2235.564-909.291l17.167-9.906v-39.986l-17.167,9.911Z" transform="translate(-2173.688 994.912)" fill="#0f7338"/>
            <path id="Trazado_104321" data-name="Trazado 104321" d="M2235-950.482l17.167-9.911L2241.8-982.431l-17.169,9.906Z" transform="translate(-2173.119 996.121)" fill="#16a851"/>
            <path id="Trazado_104322" data-name="Trazado 104322" d="M2223.359-973.262l17.169-9.906-23.279-13.441-17.162,9.908Z" transform="translate(-2171.843 996.859)" fill="#1bcf64"/>
          </g>
          <g id="Grupo_57365" data-name="Grupo 57365" transform="translate(17.157 9.911)">
            <path id="Trazado_104323" data-name="Trazado 104323" d="M2083.88-896.954l.007-39.989,83.748-48.353-.01,39.989Z" transform="translate(-2082.042 986.359)" fill="#306947"/>
            <path id="Trazado_104324" data-name="Trazado 104324" d="M2165.7-986.418l1.836,1.064L2083.787-937l-1.836-1.061Z" transform="translate(-2081.942 986.418)" fill="#16a851"/>
            <path id="Trazado_104325" data-name="Trazado 104325" d="M2081.951-935.41l1.836,1.061-.007,39.989-1.838-1.055Z" transform="translate(-2081.942 983.765)" fill="#128742"/>
          </g>
          <g id="Grupo_57366" data-name="Grupo 57366" transform="translate(16.103 20.808)">
            <path id="Trazado_104326" data-name="Trazado 104326" d="M2080.829-921.875l9.37,5.422,91.928-53.049-9.367-5.423Z" transform="translate(-2080.829 974.923)" fill="#bcbec0"/>
            <path id="Trazado_104327" data-name="Trazado 104327" d="M2182.641-958.735V-969.2l-91.928,53.049v10.466Z" transform="translate(-2081.343 974.626)" fill="#939598"/>
            <path id="Trazado_104328" data-name="Trazado 104328" d="M2090.2-903.076v-10.466l-9.37-5.422V-908.5Z" transform="translate(-2080.829 972.013)" fill="#128742"/>
          </g>
          <g id="Grupo_57369" data-name="Grupo 57369" transform="translate(58.421 38.84)">
            <g id="Grupo_57367" data-name="Grupo 57367" transform="translate(52.493)">
              <path id="Trazado_104329" data-name="Trazado 104329" d="M2193.5-936.207l2.119-1.223c1.329-.765,2.15-2.411,2.15-4.75a16.247,16.247,0,0,0-7.342-12.723c-2.027-1.167-3.865-1.275-5.192-.51l-2.118,1.221Z" transform="translate(-2180.96 955.902)" fill="#121214"/>
              <path id="Trazado_104330" data-name="Trazado 104330" d="M2188.187-953.611a16.222,16.222,0,0,1,7.343,12.719c0,4.683-3.288,6.575-7.343,4.238a16.23,16.23,0,0,1-7.345-12.72C2180.842-954.055,2184.131-955.955,2188.187-953.611Z" transform="translate(-2180.842 955.835)" fill="#303033"/>
              <path id="Trazado_104331" data-name="Trazado 104331" d="M2187.79-946.967a1.619,1.619,0,0,0-.154.733,3.814,3.814,0,0,0,1.73,2.989,1.553,1.553,0,0,0,.708.237c-.273.544-.876.681-1.579.271a3.817,3.817,0,0,1-1.729-3C2186.766-946.543,2187.187-947,2187.79-946.967Z" transform="translate(-2181.15 955.437)" fill="#121214"/>
              <path id="Trazado_104332" data-name="Trazado 104332" d="M2187.838-946.967a1.6,1.6,0,0,1,.708.239,3.8,3.8,0,0,1,1.725,2.993,1.547,1.547,0,0,1-.148.727,1.553,1.553,0,0,1-.708-.237,3.814,3.814,0,0,1-1.73-2.989A1.619,1.619,0,0,1,2187.838-946.967Z" transform="translate(-2181.198 955.437)" fill="#535359"/>
            </g>
            <g id="Grupo_57368" data-name="Grupo 57368" transform="translate(0 2.911)">
              <path id="Trazado_104333" data-name="Trazado 104333" d="M2136.262-906.372l53.171-30.7c1.135-.654,1.833-2.05,1.833-4.056A13.847,13.847,0,0,0,2185-951.981c-1.73-.993-3.3-1.087-4.43-.433l-53.168,30.7Z" transform="translate(-2125.57 952.831)" fill="#939598"/>
              <path id="Trazado_104334" data-name="Trazado 104334" d="M2131.732-919.59a13.841,13.841,0,0,1,6.262,10.852c0,3.992-2.8,5.613-6.262,3.616a13.852,13.852,0,0,1-6.263-10.853C2125.469-919.966,2128.272-921.588,2131.732-919.59Z" transform="translate(-2125.469 951.147)" fill="#a7a9ac"/>
            </g>
          </g>
          <g id="Grupo_57372" data-name="Grupo 57372" transform="translate(58.589 40.159)">
            <g id="Grupo_57370" data-name="Grupo 57370" transform="translate(73.211)">
              <path id="Trazado_104335" data-name="Trazado 104335" d="M2222.125-924.544l3.219-1.857c2.025-1.17,3.274-3.669,3.274-7.229,0-7.129-5-15.79-11.172-19.358-3.085-1.779-5.877-1.946-7.9-.772l-3.22,1.852Z" transform="translate(-2203.053 954.51)" fill="#121214"/>
              <path id="Trazado_104336" data-name="Trazado 104336" d="M2214.045-951.025c6.169,3.563,11.172,12.223,11.172,19.35s-5,10.015-11.172,6.456-11.172-12.224-11.172-19.353S2207.874-954.59,2214.045-951.025Z" transform="translate(-2202.873 954.408)" fill="#303033"/>
              <path id="Trazado_104337" data-name="Trazado 104337" d="M2213.436-940.916a2.544,2.544,0,0,0-.23,1.113,5.818,5.818,0,0,0,2.633,4.559,2.421,2.421,0,0,0,1.08.357c-.414.819-1.337,1.024-2.408.408a5.814,5.814,0,0,1-2.626-4.557C2211.88-940.269,2212.523-940.966,2213.436-940.916Z" transform="translate(-2203.342 953.803)" fill="#121214"/>
              <path id="Trazado_104338" data-name="Trazado 104338" d="M2213.508-940.916a2.549,2.549,0,0,1,1.078.357A5.84,5.84,0,0,1,2217.22-936a2.5,2.5,0,0,1-.229,1.113,2.421,2.421,0,0,1-1.08-.357,5.818,5.818,0,0,1-2.633-4.559A2.544,2.544,0,0,1,2213.508-940.916Z" transform="translate(-2203.414 953.803)" fill="#535359"/>
            </g>
            <g id="Grupo_57371" data-name="Grupo 57371" transform="translate(0 4.43)">
              <path id="Trazado_104339" data-name="Trazado 104339" d="M2142.069-882.994l74.235-42.867c1.727-.991,2.8-3.125,2.8-6.166,0-6.081-4.27-13.474-9.534-16.51-2.632-1.516-5.014-1.662-6.739-.668l-74.235,42.872Z" transform="translate(-2125.799 949.837)" fill="#e6e7e8"/>
              <path id="Trazado_104340" data-name="Trazado 104340" d="M2135.177-903.316c5.263,3.043,9.532,10.429,9.532,16.51s-4.269,8.539-9.532,5.5-9.531-10.433-9.531-16.507S2129.915-906.357,2135.177-903.316Z" transform="translate(-2125.646 947.486)" fill="#ff3f4a"/>
            </g>
          </g>
          <g id="Grupo_57373" data-name="Grupo 57373" transform="translate(39.749 22.796)">
            <path id="Trazado_104341" data-name="Trazado 104341" d="M2105.772-919.777l9.371,5.422,91.931-53.039-9.372-5.432Z" transform="translate(-2105.772 972.826)" fill="#bcbec0"/>
            <path id="Trazado_104342" data-name="Trazado 104342" d="M2207.589-964.975v-2.12l-91.931,53.039v2.118Z" transform="translate(-2106.287 972.528)" fill="#939598"/>
            <path id="Trazado_104343" data-name="Trazado 104343" d="M2115.144-909.326v-2.118l-9.371-5.422v2.116Z" transform="translate(-2105.772 969.915)" fill="#128742"/>
          </g>
          <g id="Grupo_57374" data-name="Grupo 57374" transform="translate(48.054 22.573)">
            <path id="Trazado_104344" data-name="Trazado 104344" d="M2114.533-920.02l11.765,6.761,91.927-53.046-11.758-6.757Z" transform="translate(-2114.533 973.061)" fill="#16a851"/>
            <path id="Trazado_104345" data-name="Trazado 104345" d="M2218.87-963.813v-2.12l-91.926,53.046,0,2.126Z" transform="translate(-2115.179 972.691)" fill="#0f7338"/>
            <path id="Trazado_104346" data-name="Trazado 104346" d="M2126.294-908.223l0-2.126-11.765-6.761v2.121Z" transform="translate(-2114.533 970.152)" fill="#128742"/>
          </g>
          <g id="Grupo_57375" data-name="Grupo 57375" transform="translate(0 58.266)">
            <path id="Trazado_104347" data-name="Trazado 104347" d="M2081.725-915.177l17.164-9.913-17.88-10.32-17.167,9.913Z" transform="translate(-2063.843 935.41)" fill="#16a851"/>
            <path id="Trazado_104348" data-name="Trazado 104348" d="M2115.362-911.272l-23.274-13.439-10.363,10.078-17.882-10.32v39.982l61.879,35.729v-39.989Z" transform="translate(-2063.843 934.866)" fill="#128742"/>
            <path id="Trazado_104349" data-name="Trazado 104349" d="M2129.116-847.826l17.167-9.906v-40l-17.167,9.913Z" transform="translate(-2067.238 933.45)" fill="#0f7338"/>
            <path id="Trazado_104350" data-name="Trazado 104350" d="M2128.548-889.024l17.167-9.913-10.36-22.043-17.167,9.915Z" transform="translate(-2066.669 934.659)" fill="#16a851"/>
            <path id="Trazado_104351" data-name="Trazado 104351" d="M2116.911-911.8l17.167-9.915L2110.8-935.149l-17.164,9.908Z" transform="translate(-2065.393 935.396)" fill="#1bcf64"/>
          </g>
          <g id="Grupo_57376" data-name="Grupo 57376" transform="translate(120.839 45.64)">
            <path id="Trazado_104352" data-name="Trazado 104352" d="M2191.311-919.326v30.416l1.427.828,1.035-2.252,48.471-27.971,1.428-29.6-1.428-.821Zm44.256.866-36.177,20.883v-20.787l36.177-20.895Z" transform="translate(-2191.311 948.729)" fill="#16a851"/>
            <path id="Trazado_104353" data-name="Trazado 104353" d="M2192.816-918.455v30.419l50.935-29.4v-30.424Zm42.83.04-36.177,20.883v-20.787l36.177-20.895Z" transform="translate(-2191.389 948.684)" fill="#0f7338"/>
            <path id="Trazado_104354" data-name="Trazado 104354" d="M2237.465-939.618v22.474l-37.63,21.723V-897.1l36.176-20.883v-20.8Z" transform="translate(-2191.754 948.255)" fill="#174666"/>
            <path id="Trazado_104355" data-name="Trazado 104355" d="M2237.465-939.618v22.474l-37.63,21.723V-917.89Z" transform="translate(-2191.754 948.255)" fill="#2b5e85" opacity="0.5"/>
          </g>
          <g id="Grupo_57377" data-name="Grupo 57377" transform="translate(69.907 75.043)">
            <path id="Trazado_104356" data-name="Trazado 104356" d="M2137.585-888.3v30.417l1.431.824,1.031-2.248,48.47-27.986,1.427-29.591-1.427-.826Zm44.255.862-36.174,20.887v-20.8l36.174-20.882Z" transform="translate(-2137.585 917.713)" fill="#16a851"/>
            <path id="Trazado_104357" data-name="Trazado 104357" d="M2139.094-887.432v30.414l50.928-29.4v-30.426Zm42.825.035-36.174,20.887v-20.8l36.174-20.882Z" transform="translate(-2137.663 917.668)" fill="#0f7338"/>
            <path id="Trazado_104358" data-name="Trazado 104358" d="M2183.733-908.6v22.483L2146.11-864.4v-1.683l36.174-20.888v-20.793Z" transform="translate(-2138.028 917.239)" fill="#174666"/>
            <path id="Trazado_104359" data-name="Trazado 104359" d="M2183.733-908.6v22.483L2146.11-864.4v-22.481Z" transform="translate(-2138.028 917.239)" fill="#2b5e85" opacity="0.5"/>
          </g>
        </g>
        <g id="Grupo_57387" data-name="Grupo 57387" transform="translate(18.459 71.61)">
          <g id="Grupo_57379" data-name="Grupo 57379">
            <path id="Trazado_104360" data-name="Trazado 104360" d="M2114.839-909.165l-21.083-12.168-.546.316,28.977,57.344,1.488,1.492.544-.32v-26.7Z" transform="translate(-2083.829 921.333)" fill="#121214"/>
            <path id="Trazado_104361" data-name="Trazado 104361" d="M2113.774-908.83,2092.7-921l-9.381,9.127v26.7l39.845,23.005v-26.7Z" transform="translate(-2083.314 921.316)" fill="#303033"/>
          </g>
          <g id="Grupo_57380" data-name="Grupo 57380" transform="translate(0.536 18.52)">
            <path id="Trazado_104362" data-name="Trazado 104362" d="M2085.789-901.4l-1.231.706-.678-.39,1.229-.716Z" transform="translate(-2083.88 901.798)" fill="#bcbec0"/>
            <path id="Trazado_104363" data-name="Trazado 104363" d="M2083.88-895.841v-5.2l.678.39v5.2Z" transform="translate(-2083.88 901.758)" fill="#bcbec0"/>
            <path id="Trazado_104364" data-name="Trazado 104364" d="M2084.6-895.471v-5.2l1.231-.706v5.2Z" transform="translate(-2083.917 901.776)" fill="#939598"/>
          </g>
          <g id="Grupo_57383" data-name="Grupo 57383" transform="translate(39.492 34.499)">
            <g id="Grupo_57381" data-name="Grupo 57381" transform="translate(0 1.75)">
              <path id="Trazado_104365" data-name="Trazado 104365" d="M2126.251-882.711v1.6a.32.32,0,0,1-.186.264,1.048,1.048,0,0,1-.9,0,.322.322,0,0,1-.187-.264v-1.6Z" transform="translate(-2124.973 883.075)" fill="#121214"/>
              <path id="Trazado_104366" data-name="Trazado 104366" d="M2125.162-882.467a.986.986,0,0,0,.9,0c.249-.148.249-.376,0-.52a1,1,0,0,0-.9,0C2124.909-882.844,2124.909-882.615,2125.162-882.467Z" transform="translate(-2124.972 883.095)" fill="#535359"/>
            </g>
            <g id="Grupo_57382" data-name="Grupo 57382">
              <path id="Trazado_104367" data-name="Trazado 104367" d="M2126.251-884.556v1.6a.323.323,0,0,1-.186.261,1.016,1.016,0,0,1-.9,0,.324.324,0,0,1-.187-.261v-1.6Z" transform="translate(-2124.973 884.921)" fill="#121214"/>
              <path id="Trazado_104368" data-name="Trazado 104368" d="M2125.162-884.312a1.016,1.016,0,0,0,.9,0c.249-.15.249-.378,0-.519a.986.986,0,0,0-.9,0C2124.909-884.691,2124.909-884.462,2125.162-884.312Z" transform="translate(-2124.972 884.941)" fill="#535359"/>
            </g>
          </g>
          <g id="Grupo_57386" data-name="Grupo 57386" transform="translate(39.492 53.109)">
            <g id="Grupo_57384" data-name="Grupo 57384" transform="translate(0 1.753)">
              <path id="Trazado_104369" data-name="Trazado 104369" d="M2126.251-863.076v1.6a.321.321,0,0,1-.186.259,1,1,0,0,1-.9,0,.323.323,0,0,1-.187-.259v-1.6Z" transform="translate(-2124.973 863.443)" fill="#121214"/>
              <path id="Trazado_104370" data-name="Trazado 104370" d="M2125.162-862.834a1.035,1.035,0,0,0,.9,0c.249-.141.249-.375,0-.522a1.016,1.016,0,0,0-.9,0C2124.909-863.209,2124.909-862.976,2125.162-862.834Z" transform="translate(-2124.972 863.463)" fill="#535359"/>
            </g>
            <g id="Grupo_57385" data-name="Grupo 57385">
              <path id="Trazado_104371" data-name="Trazado 104371" d="M2126.251-864.92v1.589a.311.311,0,0,1-.186.265.986.986,0,0,1-.9,0,.312.312,0,0,1-.187-.265v-1.589Z" transform="translate(-2124.973 865.291)" fill="#121214"/>
              <path id="Trazado_104372" data-name="Trazado 104372" d="M2125.162-864.68a1.028,1.028,0,0,0,.9,0c.249-.148.249-.379,0-.522a.986.986,0,0,0-.9,0C2124.909-865.059,2124.909-864.828,2125.162-864.68Z" transform="translate(-2124.972 865.311)" fill="#535359"/>
            </g>
          </g>
        </g>
      </g>
      <g id="Grupo_57389" data-name="Grupo 57389" transform="translate(2131.653 -938.927)">
        <path id="Trazado_104373" data-name="Trazado 104373" d="M2155.568-850.38c4.792,2.77,12.563,2.77,17.35,0s4.8-7.247,0-10.018-12.559-2.763-17.35,0S2150.777-853.147,2155.568-850.38Z" transform="translate(-2136.236 931.937)" opacity="0.3"/>
        <path id="Trazado_104374" data-name="Trazado 104374" d="M2172.9-856.867c.2,1.362.348,3.923-.113,4.33a1.714,1.714,0,0,1-2.043,0c-.676-.494-1.224-2.62-1.224-2.62a7.406,7.406,0,0,1-1.492-3.466c0-1.008,1.666-.918,1.666-.918A35.721,35.721,0,0,1,2172.9-856.867Z" transform="translate(-2137.071 931.785)" fill="#535359"/>
        <path id="Trazado_104375" data-name="Trazado 104375" d="M2173.012-857.205c.2,1.354.351,3.914-.113,4.33a1.715,1.715,0,0,1-2.048,0c-.671-.489-1.224-2.619-1.224-2.619a7.437,7.437,0,0,1-1.492-3.467c0-1.01,1.671-.925,1.671-.925A34.632,34.632,0,0,1,2173.012-857.205Z" transform="translate(-2137.076 931.803)" fill="#fff"/>
        <path id="Trazado_104376" data-name="Trazado 104376" d="M2160.292-857.74c-2.638.866-4.205.549-4.912.92a1.254,1.254,0,0,0-.089,1.979c1.229.765,3.575,1.111,6.013,1.181,2.786.946,3.876.353,3.97.008a7.054,7.054,0,0,0-.612-3.154C2163.748-857.521,2160.869-858.234,2160.292-857.74Z" transform="translate(-2136.385 931.7)" fill="#535359"/>
        <path id="Trazado_104377" data-name="Trazado 104377" d="M2160.292-858.109c-2.638.865-4.205.548-4.912.922a1.248,1.248,0,0,0-.089,1.974c1.229.77,3.575,1.119,6.013,1.187,2.786.941,3.876.348,3.97,0a6.171,6.171,0,0,0-.229-3.159C2164.131-857.886,2160.869-858.6,2160.292-858.109Z" transform="translate(-2136.385 931.719)" fill="#fff"/>
        <path id="Trazado_104378" data-name="Trazado 104378" d="M2166.577-891.542c-1.2,7.921,1.885,13.7,2.271,17.912a57.864,57.864,0,0,1-.031,13.006c-.283,2.945,5.081,3.049,4.921.85s.64-9.25.558-11c-.13-2.9-.481-4.364-.481-5.295V-893.74l-3.2-2.551S2167.1-892.761,2166.577-891.542Z" transform="translate(-2136.981 933.696)" fill="#174666"/>
        <path id="Trazado_104379" data-name="Trazado 104379" d="M2158.445-894.406c-1.532,7.448.125,15.872,0,18.6s2.814,5.589,1.851,15.45c-.293,2.94,5.081,3.046,4.929.848s-.007-10.226-.3-11.951-1.519-3.33-1.519-4.262,2.982-12.347,2.982-12.347,5.677-2.488,6.5-3.862.346-4.067.346-4.067l-8.42-.88S2158.968-895.62,2158.445-894.406Z" transform="translate(-2136.538 933.727)" fill="#3576ab"/>
        <path id="Trazado_104380" data-name="Trazado 104380" d="M2163.684-924.22a10.07,10.07,0,0,0,1.774,2.088l-.887,1.814-3.961,1.252-1.2-.408a20.267,20.267,0,0,0-1.422-3.986,2.252,2.252,0,0,1,.227-.984l3.511-1.132A17.665,17.665,0,0,0,2163.684-924.22Z" transform="translate(-2136.548 935.219)" fill="#f0c6b4"/>
        <path id="Trazado_104381" data-name="Trazado 104381" d="M2174.248-913.313l3.133,2.1-5.613,6.119a9.031,9.031,0,0,0-1.328,0c-.273.066,1.09,3.29,1.09,3.29a2.211,2.211,0,0,0,1.633-1.2s6.6-4.7,8.28-6.319c.786-.748.873-2.854.268-3.349l-4.66-3.742-2.542.762Z" transform="translate(-2137.194 934.743)" fill="#f0c6b4"/>
        <path id="Trazado_104382" data-name="Trazado 104382" d="M2176.682-917.017c-3.587-2.7-5.872-6.1-8.421-5.34a2.439,2.439,0,0,0-1.019,4.378c2.321,1.734,5.445,4.072,6.115,4.523C2175.18-912.851,2177.541-916.2,2176.682-917.017Z" transform="translate(-2136.978 935.057)" fill="#16a89f"/>
        <path id="Trazado_104383" data-name="Trazado 104383" d="M2156.547-916.75a19.628,19.628,0,0,0,2.855-2.619c.958-1.219,4.69-2.716,6.427-2.575.388.038,1.265.1,2.156.212,1.656.2,2.273,4.222,2.448,6.126s-.93,7.666-.373,9.894,2.544,5.072,3.111,8.409c.311,1.791-7.131,3.862-9.858,3.862-3.613.008-5.281-1.869-5.181-3.443a53.191,53.191,0,0,0-.025-5.921,23.616,23.616,0,0,0-1.083-4.441S2156.479-916.058,2156.547-916.75Z" transform="translate(-2136.473 935.031)" fill="#24d2c1"/>
        <path id="Trazado_104384" data-name="Trazado 104384" d="M2150.536-909.911a19.423,19.423,0,0,1-2,2.2c-1.713,1.429-4.594,5.559-7.217,7.543a17.754,17.754,0,0,0-2.046-1.8c-.638-.385-3.5.052-3.848.855s1.36,1.575,1.977,1.908a24.529,24.529,0,0,0,2.589,1.617,1.8,1.8,0,0,0,2.027-.017c2.567-2.424,6.606-4.935,8.5-7.277a20.175,20.175,0,0,1,2.859-2.375Z" transform="translate(-2135.373 934.405)" fill="#f0c6b4"/>
        <path id="Trazado_104385" data-name="Trazado 104385" d="M2159.724-924.621s-2.829,1.721-3.325.895c-.829-1.365-1.786-2.625-1.751-3.784a5.438,5.438,0,0,1-.584-2.33l4.468.616Z" transform="translate(-2136.344 935.441)" fill="#f0c6b4"/>
        <path id="Trazado_104386" data-name="Trazado 104386" d="M2177.764-910.929a5.006,5.006,0,0,0,3.219.066A2.586,2.586,0,0,1,2177.764-910.929Z" transform="translate(-2137.577 934.458)" fill="#c7a496"/>
        <path id="Trazado_104387" data-name="Trazado 104387" d="M2154.175-907.088c2.125-2.019,6.418-5.62,5.947-7.875-.535-2.6-3.046-2.777-4.253-1.454-1.953,2.142-4.276,4.841-4.8,5.465C2150.293-909.2,2152.74-907.264,2154.175-907.088Z" transform="translate(-2136.181 934.785)" fill="#16a89f"/>
        <path id="Trazado_104388" data-name="Trazado 104388" d="M2155.63-933.895a2.417,2.417,0,0,0-1.729,2.513c0,2.834,1.285,2.992,1.294,3.58.017.814,1.165,1.162,1.787,2.307.011-.289-.045-.94.4-.735s1.108,2.157,1.991,2.808c.6.443,4.037-.591,4.213-1.311a23.944,23.944,0,0,0,1.027-6.515c-.074-1.64-1.652-4.259-5.8-4.493A2.915,2.915,0,0,0,2155.63-933.895Z" transform="translate(-2136.336 935.748)" fill="#944f00"/>
        <path id="Trazado_104389" data-name="Trazado 104389" d="M2159.79-932.483c-.351.374-4.065-1.31-4.065-1.31S2160.143-932.856,2159.79-932.483Z" transform="translate(-2136.431 935.647)" fill="#7a4100"/>
        <path id="Trazado_104390" data-name="Trazado 104390" d="M2141.608-899.63a1.683,1.683,0,0,0-.557,1.77A9.886,9.886,0,0,1,2141.608-899.63Z" transform="translate(-2135.664 933.87)" fill="#c7a496"/>
      </g>
    </g>
    <g id="Grupo_57392" data-name="Grupo 57392">
      <path id="Trazado_104391" data-name="Trazado 104391" d="M2093.368-998.174a9.329,9.329,0,0,0,2.994,9.259,13.056,13.056,0,0,0,9.816,14.929,13.053,13.053,0,0,0,13.054-4.3,12.956,12.956,0,0,0,2.368-4.222,9.289,9.289,0,0,0,5.245,3.423,9.324,9.324,0,0,0,3.322.191h0c-.006.026-.014.051-.02.077a4.089,4.089,0,0,0,3.021,4.929,4.088,4.088,0,0,0,4.931-3.019,4.09,4.09,0,0,0-2.4-4.729,9.282,9.282,0,0,0,2.4-4.338,9.273,9.273,0,0,0-.15-4.907,9.32,9.32,0,0,0-6.743-6.341c-.263-.063-.528-.115-.793-.155a11.228,11.228,0,0,0-8.6-11.145,11.227,11.227,0,0,0-12.712,5.995,9.294,9.294,0,0,0-4.478-2.533,9.328,9.328,0,0,0-11.248,6.891Z" fill="#d2d1d3"/>
      <g id="Grupo_57391" data-name="Grupo 57391">
        <path id="Trazado_104392" data-name="Trazado 104392" d="M2096.362-988.915a15.241,15.241,0,0,1,4.915-8.011,12.946,12.946,0,0,0-2.363,4.931,13,13,0,0,0,9.6,15.679,13.4,13.4,0,0,0,10.714-1.974,13.053,13.053,0,0,1-13.054,4.3,13.056,13.056,0,0,1-9.816-14.929Z" fill="#b1aeb5"/>
        <path id="Trazado_104393" data-name="Trazado 104393" d="M2119.7-988.529a9.319,9.319,0,0,0,6.74,6.343,9.328,9.328,0,0,0,11.248-6.891,9.388,9.388,0,0,0,.252-1.809h0a9.263,9.263,0,0,1,.15,4.907,9.282,9.282,0,0,1-2.4,4.338,9.277,9.277,0,0,1-5.53,2.742h0a9.324,9.324,0,0,1-3.322-.191,9.289,9.289,0,0,1-5.245-3.423,9.515,9.515,0,0,1-1.9-6.017Z" fill="#b1aeb5"/>
        <path id="Trazado_104394" data-name="Trazado 104394" d="M2109.094-1002.532a11.227,11.227,0,0,1,12.712-5.995,11.23,11.23,0,0,1,8.6,11.145,11.354,11.354,0,0,1-.292,2.5,11.251,11.251,0,0,1-2.332,4.633,11.222,11.222,0,0,0,.9-2.459,11.329,11.329,0,0,0-8.37-13.661,11.213,11.213,0,0,0-11.222,3.837Z" fill="#b1aeb5"/>
      </g>
    </g>
  </g>
</svg>
