<svg xmlns="http://www.w3.org/2000/svg" width="235" height="196" viewBox="0 0 235 196">
  <g id="Grupo_57916" data-name="Grupo 57916" transform="translate(-2043.533 39.956)">
    <rect id="Rect치ngulo_5479" data-name="Rect치ngulo 5479" width="235" height="196" transform="translate(2043.533 -39.956)" fill="#ffe8de"/>
    <path id="Trazado_105667" data-name="Trazado 105667" d="M2159.189,71.5c.611-1.752,77.456-18.029,77.456-18.029l41.888,6.049v96.52H2100.061l-33.169-33.169S2158.579,73.255,2159.189,71.5Z" transform="translate(0)" fill="#ffcbb5"/>
    <g id="Grupo_56794" data-name="Grupo 56794" transform="translate(1.999)">
      <path id="Trazado_102436" data-name="Trazado 102436" d="M2215.055,79.254l-38.095-21.99-112.066,64.7,38.16,22.029Z" transform="translate(0 -0.899)" opacity="0.3" style="isolation: isolate"/>
      <rect id="Rect치ngulo_5483" data-name="Rect치ngulo 5483" width="31.786" height="23.005" transform="translate(2098.435 91.905) rotate(-29.996)"/>
      <g id="Grupo_56774" data-name="Grupo 56774" transform="translate(2160.165 -27.891)">
        <path id="Trazado_102437" data-name="Trazado 102437" d="M2249.468,59.843l-48.16-27.8L2183.28,42.449l48.156,27.807Z" transform="translate(-2161.414 27.258)" opacity="0.3" style="isolation: isolate"/>
        <g id="Grupo_56723" data-name="Grupo 56723" transform="translate(82.689 82.236)">
          <g id="Grupo_56719" data-name="Grupo 56719" transform="translate(0.692 0.284)">
            <path id="Trazado_102438" data-name="Trazado 102438" d="M2245.452,56.731l2.129-1.222.3.162-2.143,1.236.508,2.816-.284-.162Z" transform="translate(-2245.452 -55.509)" fill="#bcbec0"/>
            <path id="Trazado_102439" data-name="Trazado 102439" d="M2245.739,56.91l2.143-1.236-.509,3.4-1.126.651Z" transform="translate(-2245.455 -55.511)" fill="#939598"/>
          </g>
          <g id="Grupo_56720" data-name="Grupo 56720" transform="translate(0 1.153)">
            <path id="Trazado_102440" data-name="Trazado 102440" d="M2247.97,57.5c.919-.528,1.669-.1,1.669.963a3.706,3.706,0,0,1-1.669,2.894c-.928.542-1.669.1-1.669-.958A3.678,3.678,0,0,1,2247.97,57.5Z" transform="translate(-2244.769 -56.396)" fill="#303033"/>
            <path id="Trazado_102441" data-name="Trazado 102441" d="M2245.2,60.567h0l1.53.881h0a1.2,1.2,0,0,1-.454-1.06,3.674,3.674,0,0,1,1.669-2.9,1.212,1.212,0,0,1,1.175-.116l-1.538-.887h0a1.186,1.186,0,0,0-1.167.122,3.717,3.717,0,0,0-1.66,2.894A1.206,1.206,0,0,0,2245.2,60.567Z" transform="translate(-2244.752 -56.387)" fill="#121214"/>
            <path id="Trazado_102442" data-name="Trazado 102442" d="M2247.975,58.064c.662-.372,1.18-.072,1.18.688a2.6,2.6,0,0,1-1.18,2.052c-.648.378-1.186.072-1.186-.687A2.648,2.648,0,0,1,2247.975,58.064Z" transform="translate(-2244.774 -56.403)" fill="#58595b"/>
            <path id="Trazado_102443" data-name="Trazado 102443" d="M2248.731,58.171a.752.752,0,0,1,.228.622,2.281,2.281,0,0,1-1.038,1.786.756.756,0,0,1-.755.063.689.689,0,0,0,.817,0,2.324,2.324,0,0,0,1.045-1.806A.751.751,0,0,0,2248.731,58.171Z" transform="translate(-2244.778 -56.406)" fill="#303033"/>
            <path id="Trazado_102444" data-name="Trazado 102444" d="M2248.719,58.179h0a.738.738,0,0,0-.745.063,2.294,2.294,0,0,0-1.03,1.8.772.772,0,0,0,.212.6h0a.755.755,0,0,0,.755-.063,2.283,2.283,0,0,0,1.038-1.785A.752.752,0,0,0,2248.719,58.179Z" transform="translate(-2244.776 -56.405)" fill="#a7a9ac"/>
            <path id="Trazado_102445" data-name="Trazado 102445" d="M2248.436,58.6a.563.563,0,0,1,.073.306,1.484,1.484,0,0,1-.673,1.161.469.469,0,0,1-.445.058c.1.209.334.233.591.087a1.479,1.479,0,0,0,.673-1.152A.521.521,0,0,0,2248.436,58.6Z" transform="translate(-2244.78 -56.41)" fill="#3b3b3b"/>
            <path id="Trazado_102446" data-name="Trazado 102446" d="M2248.435,58.6a.494.494,0,0,0-.454.067,1.474,1.474,0,0,0-.663,1.152.56.56,0,0,0,.072.306.469.469,0,0,0,.445-.058,1.486,1.486,0,0,0,.673-1.162A.561.561,0,0,0,2248.435,58.6Z" transform="translate(-2244.78 -56.41)" fill="#787878"/>
          </g>
          <g id="Grupo_56721" data-name="Grupo 56721" transform="translate(2.098 1.096)">
            <path id="Trazado_102447" data-name="Trazado 102447" d="M2246.873,57.569l2.146-1.239.279.168-2.139,1.227.509,2.82-.284-.166Z" transform="translate(-2246.873 -56.33)" fill="#bcbec0"/>
            <path id="Trazado_102448" data-name="Trazado 102448" d="M2247.164,57.726,2249.3,56.5l-.5,3.393-1.13.654Z" transform="translate(-2246.876 -56.332)" fill="#939598"/>
            <path id="Trazado_102449" data-name="Trazado 102449" d="M2248.095,59.823a.854.854,0,0,0,.387-.663.423.423,0,0,0-.024-.14c.1.02.165.116.165.261a.855.855,0,0,1-.382.678c-.164.092-.3.048-.358-.087A.279.279,0,0,0,2248.095,59.823Z" transform="translate(-2246.884 -56.358)" fill="#e6e7e8"/>
            <path id="Trazado_102450" data-name="Trazado 102450" d="M2248.239,59.065a.35.35,0,0,1,.218-.044h0a.417.417,0,0,1,.024.14.854.854,0,0,1-.387.663.281.281,0,0,1-.213.049.308.308,0,0,1-.029-.137A.861.861,0,0,1,2248.239,59.065Z" transform="translate(-2246.883 -56.358)" fill="#bcbec0"/>
          </g>
          <g id="Grupo_56722" data-name="Grupo 56722" transform="translate(0.693 0)">
            <path id="Trazado_102451" data-name="Trazado 102451" d="M2245.453,56.474l1.693.984v.269l-1.693-.985Z" transform="translate(-2245.453 -55.235)" fill="#bcbec0"/>
            <path id="Trazado_102452" data-name="Trazado 102452" d="M2247.163,57.455l2.138-1.233V56.5l-2.138,1.228Z" transform="translate(-2245.471 -55.233)" fill="#939598"/>
            <path id="Trazado_102453" data-name="Trazado 102453" d="M2247.582,55.222l1.7.986-2.138,1.232-1.693-.983Z" transform="translate(-2245.453 -55.222)" fill="#e6e7e8"/>
          </g>
        </g>
        <g id="Grupo_56728" data-name="Grupo 56728" transform="translate(67.638 90.933)">
          <g id="Grupo_56724" data-name="Grupo 56724" transform="translate(0.689 0.275)">
            <path id="Trazado_102454" data-name="Trazado 102454" d="M2230.237,65.515l2.131-1.225.293.165-2.141,1.234.506,2.819-.283-.162Z" transform="translate(-2230.237 -64.29)" fill="#bcbec0"/>
            <path id="Trazado_102455" data-name="Trazado 102455" d="M2230.526,65.693l2.141-1.234-.5,3.4-1.132.647Z" transform="translate(-2230.24 -64.292)" fill="#939598"/>
          </g>
          <g id="Grupo_56725" data-name="Grupo 56725" transform="translate(0 1.152)">
            <path id="Trazado_102456" data-name="Trazado 102456" d="M2232.762,66.279c.914-.523,1.669-.093,1.669.978a3.711,3.711,0,0,1-1.669,2.888c-.928.532-1.669.1-1.669-.968A3.7,3.7,0,0,1,2232.762,66.279Z" transform="translate(-2229.557 -65.185)" fill="#303033"/>
            <path id="Trazado_102457" data-name="Trazado 102457" d="M2229.989,69.346h0l1.53.881h0a1.187,1.187,0,0,1-.452-1.054,3.7,3.7,0,0,1,1.67-2.9,1.255,1.255,0,0,1,1.176-.117l-1.539-.881h0a1.176,1.176,0,0,0-1.167.126,3.671,3.671,0,0,0-1.66,2.889A1.192,1.192,0,0,0,2229.989,69.346Z" transform="translate(-2229.541 -65.176)" fill="#121214"/>
            <path id="Trazado_102458" data-name="Trazado 102458" d="M2232.764,66.854c.654-.377,1.18-.077,1.18.678a2.641,2.641,0,0,1-1.18,2.062c-.648.372-1.187.067-1.187-.693A2.637,2.637,0,0,1,2232.764,66.854Z" transform="translate(-2229.562 -65.192)" fill="#58595b"/>
            <path id="Trazado_102459" data-name="Trazado 102459" d="M2233.514,66.96a.787.787,0,0,1,.228.614,2.3,2.3,0,0,1-1.038,1.786.727.727,0,0,1-.75.067.683.683,0,0,0,.817,0,2.321,2.321,0,0,0,1.038-1.8A.752.752,0,0,0,2233.514,66.96Z" transform="translate(-2229.566 -65.195)" fill="#303033"/>
            <path id="Trazado_102460" data-name="Trazado 102460" d="M2233.515,66.962h0a.729.729,0,0,0-.745.063,2.309,2.309,0,0,0-1.038,1.8.753.753,0,0,0,.219.609h0a.725.725,0,0,0,.75-.067,2.3,2.3,0,0,0,1.038-1.786A.787.787,0,0,0,2233.515,66.962Z" transform="translate(-2229.564 -65.194)" fill="#a7a9ac"/>
            <path id="Trazado_102461" data-name="Trazado 102461" d="M2233.226,67.388a.653.653,0,0,1,.067.312,1.489,1.489,0,0,1-.668,1.152.462.462,0,0,1-.45.057c.1.209.339.238.6.088a1.487,1.487,0,0,0,.673-1.152A.5.5,0,0,0,2233.226,67.388Z" transform="translate(-2229.569 -65.199)" fill="#3b3b3b"/>
            <path id="Trazado_102462" data-name="Trazado 102462" d="M2233.224,67.389a.517.517,0,0,0-.454.058,1.48,1.48,0,0,0-.663,1.157.546.546,0,0,0,.067.3.459.459,0,0,0,.45-.057,1.489,1.489,0,0,0,.668-1.152A.662.662,0,0,0,2233.224,67.389Z" transform="translate(-2229.568 -65.199)" fill="#787878"/>
          </g>
          <g id="Grupo_56726" data-name="Grupo 56726" transform="translate(2.093 1.089)">
            <path id="Trazado_102463" data-name="Trazado 102463" d="M2231.656,66.348l2.148-1.235.283.163-2.14,1.229.5,2.826-.283-.164Z" transform="translate(-2231.656 -65.113)" fill="#bcbec0"/>
            <path id="Trazado_102464" data-name="Trazado 102464" d="M2231.95,66.508l2.14-1.229-.5,3.393-1.132.662Z" transform="translate(-2231.659 -65.115)" fill="#939598"/>
            <path id="Trazado_102465" data-name="Trazado 102465" d="M2232.877,68.6a.829.829,0,0,0,.392-.663.547.547,0,0,0-.02-.137.248.248,0,0,1,.16.267.846.846,0,0,1-.382.668c-.169.092-.306.053-.358-.077A.28.28,0,0,0,2232.877,68.6Z" transform="translate(-2231.667 -65.141)" fill="#e6e7e8"/>
            <path id="Trazado_102466" data-name="Trazado 102466" d="M2233.031,67.847a.311.311,0,0,1,.218-.044h0a.547.547,0,0,1,.02.137.829.829,0,0,1-.392.663.28.28,0,0,1-.208.058.263.263,0,0,1-.024-.14A.9.9,0,0,1,2233.031,67.847Z" transform="translate(-2231.667 -65.141)" fill="#bcbec0"/>
          </g>
          <g id="Grupo_56727" data-name="Grupo 56727" transform="translate(0.691 0)">
            <path id="Trazado_102467" data-name="Trazado 102467" d="M2230.239,65.265l1.693.973v.27l-1.693-.983Z" transform="translate(-2230.239 -64.025)" fill="#bcbec0"/>
            <path id="Trazado_102468" data-name="Trazado 102468" d="M2231.95,66.239l2.14-1.233v.271l-2.14,1.229Z" transform="translate(-2230.257 -64.022)" fill="#939598"/>
            <path id="Trazado_102469" data-name="Trazado 102469" d="M2232.371,64.012l1.7.981-2.14,1.231-1.693-.974Z" transform="translate(-2230.239 -64.012)" fill="#e6e7e8"/>
          </g>
        </g>
        <g id="Grupo_56739" data-name="Grupo 56739">
          <g id="Grupo_56729" data-name="Grupo 56729" transform="translate(37.289)">
            <path id="Trazado_102470" data-name="Trazado 102470" d="M2202.095,28.479l-1.633.944V-26.048l1.633-.934Z" transform="translate(-2198.885 27.881)" fill="#303033"/>
            <path id="Trazado_102471" data-name="Trazado 102471" d="M2198.868-26.953l1.578.914V29.424l-1.578-.912Z" transform="translate(-2198.868 27.881)" fill="#121214"/>
            <path id="Trazado_102472" data-name="Trazado 102472" d="M2200.5-27.891l1.579.908-1.634.934-1.578-.914Z" transform="translate(-2198.868 27.891)" fill="#535359"/>
          </g>
          <g id="Grupo_56730" data-name="Grupo 56730" transform="translate(20.727 24.352)">
            <path id="Trazado_102473" data-name="Trazado 102473" d="M2200.288-.473V-2.361L2183.724,7.2V9.088Z" transform="translate(-2182.146 3.269)" fill="#303033"/>
            <path id="Trazado_102474" data-name="Trazado 102474" d="M2182.129,6.284l1.578.91,16.564-9.564-1.58-.909Z" transform="translate(-2182.129 3.279)" fill="#535359"/>
            <path id="Trazado_102475" data-name="Trazado 102475" d="M2182.133,8.267l1.574.911V7.293l-1.578-.908Z" transform="translate(-2182.129 3.177)" fill="#121214"/>
          </g>
          <g id="Grupo_56731" data-name="Grupo 56731" transform="translate(31.266 5.643)">
            <path id="Trazado_102476" data-name="Trazado 102476" d="M2195.256.191,2194,.918V-20.76l1.255-.721Z" transform="translate(-2192.793 22.181)" fill="#303033"/>
            <path id="Trazado_102477" data-name="Trazado 102477" d="M2192.78-21.467l1.212.707V.913L2192.78.221Z" transform="translate(-2192.78 22.18)" fill="#121214"/>
            <path id="Trazado_102478" data-name="Trazado 102478" d="M2194.035-22.188l1.212.7-1.255.72-1.212-.706Z" transform="translate(-2192.78 22.188)" fill="#535359"/>
          </g>
          <g id="Grupo_56738" data-name="Grupo 56738" transform="translate(0 0.928)">
            <g id="Grupo_56732" data-name="Grupo 56732" transform="translate(16.279)">
              <path id="Trazado_102479" data-name="Trazado 102479" d="M2200.241-24.141v-1.886l-21.012,12.133v1.887Z" transform="translate(-2177.65 26.943)" fill="#303033"/>
              <path id="Trazado_102480" data-name="Trazado 102480" d="M2177.636-14.817l1.574.912,21.014-12.134-1.58-.914Z" transform="translate(-2177.633 26.953)" fill="#535359"/>
              <path id="Trazado_102481" data-name="Trazado 102481" d="M2177.633-12.805l1.574.916v-1.887l-1.574-.912Z" transform="translate(-2177.633 26.824)" fill="#121214"/>
            </g>
            <g id="Grupo_56733" data-name="Grupo 56733" transform="translate(9.631 11.299)">
              <path id="Trazado_102482" data-name="Trazado 102482" d="M2173.537-7.989l6.4-3.694a1.072,1.072,0,0,0,.45-.986,3.415,3.415,0,0,0-1.534-2.662,1.084,1.084,0,0,0-1.083-.1l-6.4,3.694Z" transform="translate(-2170.92 15.534)" fill="#303033"/>
              <path id="Trazado_102483" data-name="Trazado 102483" d="M2172.449-8.056a3.392,3.392,0,0,1-1.534-2.653c0-.983.687-1.373,1.534-.89a3.4,3.4,0,0,1,1.533,2.652C2173.982-7.96,2173.3-7.558,2172.449-8.056Z" transform="translate(-2170.915 15.495)" fill="#121214"/>
            </g>
            <g id="Grupo_56737" data-name="Grupo 56737" transform="translate(0 11.772)">
              <g id="Grupo_56735" data-name="Grupo 56735" transform="translate(1.258)">
                <path id="Trazado_102484" data-name="Trazado 102484" d="M2166.951-2.434l10.4-6.006a1.866,1.866,0,0,0,.77-1.708,5.808,5.808,0,0,0-2.638-4.553,1.829,1.829,0,0,0-1.853-.184l-10.4,6.008Z" transform="translate(-2162.46 15.055)" fill="#24d2c1"/>
                <g id="Grupo_56734" data-name="Grupo 56734" transform="translate(1.104 0.007)">
                  <path id="Trazado_102485" data-name="Trazado 102485" d="M2166.661-10.814c1.592-.919,5.464,4.578,2.076,7.39l-.112.063h0c.727-3.021-2.928-6.9-5.057-5.668h0Z" transform="translate(-2163.568 15.005)" opacity="0.05" style="isolation: isolate"/>
                  <path id="Trazado_102486" data-name="Trazado 102486" d="M2170-12.742c1.592-.919,5.463,4.579,2.076,7.4l-.112.063h0c.725-3.025-2.928-6.9-5.057-5.672h0Z" transform="translate(-2163.603 15.025)" opacity="0.05" style="isolation: isolate"/>
                  <path id="Trazado_102487" data-name="Trazado 102487" d="M2173.4-14.7c1.592-.924,5.464,4.569,2.076,7.39l-.112.063h0c.731-3.025-2.928-6.9-5.062-5.672h0Z" transform="translate(-2163.639 15.046)" opacity="0.05" style="isolation: isolate"/>
                  <path id="Trazado_102488" data-name="Trazado 102488" d="M2163.826-9.17c4.138-1.528,6.96,4.574,5.372,5.493l-2.24,1.3a1.885,1.885,0,0,0,.765-1.708,5.794,5.794,0,0,0-2.632-4.548,2.4,2.4,0,0,0-1.06-.363c-.1-.039-.208-.082-.312-.112Z" transform="translate(-2163.57 14.989)" opacity="0.05" style="isolation: isolate"/>
                  <path id="Trazado_102489" data-name="Trazado 102489" d="M2172.538-5.608c1.586-.9-1.234-7.012-5.366-5.483l-.117.058h0c2.986.881,4.511,5.987,2.382,7.221h0Z" transform="translate(-2163.605 15.009)" opacity="0.05" style="isolation: isolate"/>
                  <path id="Trazado_102490" data-name="Trazado 102490" d="M2175.941-7.568c1.593-.915-1.234-7.017-5.366-5.492l-.112.067h0c2.981.881,4.511,5.987,2.382,7.221h0Z" transform="translate(-2163.641 15.03)" opacity="0.05" style="isolation: isolate"/>
                  <path id="Trazado_102491" data-name="Trazado 102491" d="M2177.463-12.741a5.445,5.445,0,0,1,.77,2.593,1.847,1.847,0,0,1-.765,1.7l-1.254.721h0c2.129-1.235.6-6.326-2.375-7.206a1.892,1.892,0,0,1,1.756.228A5.37,5.37,0,0,1,2177.463-12.741Z" transform="translate(-2163.677 15.048)" opacity="0.05" style="isolation: isolate"/>
                </g>
                <path id="Trazado_102492" data-name="Trazado 102492" d="M2165.081-2.551a5.841,5.841,0,0,1-2.629-4.566c0-1.669,1.177-2.352,2.629-1.509a5.8,5.8,0,0,1,2.632,4.548C2167.713-2.392,2166.538-1.715,2165.081-2.551Z" transform="translate(-2162.452 14.991)" fill="#16a89f"/>
              </g>
              <g id="Grupo_56736" data-name="Grupo 56736" transform="translate(0 7.434)">
                <path id="Trazado_102493" data-name="Trazado 102493" d="M2163.9-2.307l2.143-1.239a1.11,1.11,0,0,0,.465-1.03,3.509,3.509,0,0,0-1.587-2.754,1.13,1.13,0,0,0-1.128-.111L2161.65-6.2Z" transform="translate(-2161.186 7.542)" fill="#535359"/>
                <path id="Trazado_102494" data-name="Trazado 102494" d="M2162.773-2.407a3.51,3.51,0,0,1-1.592-2.754c0-1.012.711-1.423,1.592-.919a3.517,3.517,0,0,1,1.582,2.763C2164.355-2.3,2163.649-1.9,2162.773-2.407Z" transform="translate(-2161.181 7.529)" fill="#303033"/>
                <path id="Trazado_102495" data-name="Trazado 102495" d="M2162.775-2.653a3.02,3.02,0,0,1-1.375-2.376c0-.881.615-1.23,1.375-.794a3.051,3.051,0,0,1,1.369,2.381C2164.14-2.564,2163.531-2.207,2162.775-2.653Z" transform="translate(-2161.183 7.526)" fill="#121214"/>
              </g>
            </g>
          </g>
        </g>
        <g id="Grupo_56750" data-name="Grupo 56750" transform="translate(15.574 8.95)">
          <g id="Grupo_56740" data-name="Grupo 56740" transform="translate(37.29)">
            <path id="Trazado_102496" data-name="Trazado 102496" d="M2217.832,37.524l-1.634.943V-16.985l1.634-.943Z" transform="translate(-2214.626 18.836)" fill="#303033"/>
            <path id="Trazado_102497" data-name="Trazado 102497" d="M2214.609-17.9l1.573.912V38.467l-1.573-.909Z" transform="translate(-2214.609 18.836)" fill="#121214"/>
            <path id="Trazado_102498" data-name="Trazado 102498" d="M2216.242-18.846l1.574.908-1.634.943-1.573-.912Z" transform="translate(-2214.609 18.846)" fill="#535359"/>
          </g>
          <g id="Grupo_56741" data-name="Grupo 56741" transform="translate(20.725 24.363)">
            <path id="Trazado_102499" data-name="Trazado 102499" d="M2216.023,8.576V6.693l-16.558,9.56v1.886Z" transform="translate(-2197.884 -5.787)" fill="#303033"/>
            <path id="Trazado_102500" data-name="Trazado 102500" d="M2197.868,15.327l1.579.915,16.558-9.561-1.573-.9Z" transform="translate(-2197.867 -5.777)" fill="#535359"/>
            <path id="Trazado_102501" data-name="Trazado 102501" d="M2197.87,17.322l1.575.91V16.346l-1.578-.915Z" transform="translate(-2197.867 -5.879)" fill="#121214"/>
          </g>
          <g id="Grupo_56742" data-name="Grupo 56742" transform="translate(31.258 5.639)">
            <path id="Trazado_102502" data-name="Trazado 102502" d="M2211,9.239l-1.254.727V-11.71l1.254-.726Z" transform="translate(-2208.525 13.139)" fill="#303033"/>
            <path id="Trazado_102503" data-name="Trazado 102503" d="M2208.512-12.411l1.217.7V9.961l-1.217-.7Z" transform="translate(-2208.512 13.139)" fill="#121214"/>
            <path id="Trazado_102504" data-name="Trazado 102504" d="M2209.768-13.147l1.215.7-1.254.726-1.217-.7Z" transform="translate(-2208.512 13.147)" fill="#535359"/>
          </g>
          <g id="Grupo_56749" data-name="Grupo 56749" transform="translate(0 0.939)">
            <g id="Grupo_56743" data-name="Grupo 56743" transform="translate(16.279)">
              <path id="Trazado_102505" data-name="Trazado 102505" d="M2215.974-15.1v-1.879L2194.967-4.843v1.88Z" transform="translate(-2193.39 17.887)" fill="#303033"/>
              <path id="Trazado_102506" data-name="Trazado 102506" d="M2193.375-5.769l1.574.917,21.009-12.135-1.573-.91Z" transform="translate(-2193.373 17.897)" fill="#535359"/>
              <path id="Trazado_102507" data-name="Trazado 102507" d="M2193.373-3.753l1.576.909v-1.88l-1.574-.917Z" transform="translate(-2193.373 17.768)" fill="#121214"/>
            </g>
            <g id="Grupo_56744" data-name="Grupo 56744" transform="translate(9.632 11.294)">
              <path id="Trazado_102508" data-name="Trazado 102508" d="M2189.272,1.063l6.4-3.693a1.078,1.078,0,0,0,.454-.992,3.4,3.4,0,0,0-1.538-2.652,1.049,1.049,0,0,0-1.084-.1L2187.109-2.7Z" transform="translate(-2186.661 6.483)" fill="#303033"/>
              <path id="Trazado_102509" data-name="Trazado 102509" d="M2188.19.989a3.372,3.372,0,0,1-1.534-2.658c0-.968.687-1.369,1.534-.876a3.388,3.388,0,0,1,1.529,2.652C2189.718,1.09,2189.036,1.487,2188.19.989Z" transform="translate(-2186.656 6.443)" fill="#121214"/>
            </g>
            <g id="Grupo_56748" data-name="Grupo 56748" transform="translate(0 11.765)">
              <g id="Grupo_56746" data-name="Grupo 56746" transform="translate(1.261)">
                <path id="Trazado_102510" data-name="Trazado 102510" d="M2182.7,6.615l10.4-6.006a1.857,1.857,0,0,0,.774-1.708,5.811,5.811,0,0,0-2.633-4.548,1.823,1.823,0,0,0-1.867-.184l-10.4,6Z" transform="translate(-2178.203 6.006)" fill="#ff9d26"/>
                <g id="Grupo_56745" data-name="Grupo 56745" transform="translate(1.096 0.005)">
                  <path id="Trazado_102511" data-name="Trazado 102511" d="M2182.4-1.77c1.586-.919,5.463,4.583,2.075,7.4l-.111.072h0c.725-3.03-2.928-6.91-5.062-5.676h0Z" transform="translate(-2179.303 5.957)" opacity="0.05" style="isolation: isolate"/>
                  <path id="Trazado_102512" data-name="Trazado 102512" d="M2185.737-3.693c1.592-.913,5.458,4.579,2.075,7.4l-.115.063h0c.73-3.02-2.929-6.906-5.058-5.667h0Z" transform="translate(-2179.338 5.978)" opacity="0.05" style="isolation: isolate"/>
                  <path id="Trazado_102513" data-name="Trazado 102513" d="M2189.141-5.659c1.592-.914,5.463,4.569,2.075,7.4l-.111.067h0c.725-3.025-2.928-6.905-5.057-5.672h0Z" transform="translate(-2179.374 5.998)" opacity="0.05" style="isolation: isolate"/>
                  <path id="Trazado_102514" data-name="Trazado 102514" d="M2179.568-.117c4.133-1.525,6.959,4.578,5.372,5.492l-2.245,1.3a1.87,1.87,0,0,0,.765-1.7A5.785,5.785,0,0,0,2180.83.421,2.355,2.355,0,0,0,2179.77.06a2.828,2.828,0,0,0-.311-.111Z" transform="translate(-2179.305 5.941)" opacity="0.05" style="isolation: isolate"/>
                  <path id="Trazado_102515" data-name="Trazado 102515" d="M2188.272,3.445c1.592-.91-1.229-7.008-5.367-5.493l-.111.067h0c2.981.881,4.51,5.986,2.381,7.216h0Z" transform="translate(-2179.34 5.962)" opacity="0.05" style="isolation: isolate"/>
                  <path id="Trazado_102516" data-name="Trazado 102516" d="M2191.68,1.486c1.587-.921-1.234-7.023-5.372-5.493l-.111.067h0c2.986.876,4.516,5.986,2.386,7.21h0Z" transform="translate(-2179.376 5.983)" opacity="0.05" style="isolation: isolate"/>
                  <path id="Trazado_102517" data-name="Trazado 102517" d="M2193.2-3.684a5.364,5.364,0,0,1,.774,2.584,1.849,1.849,0,0,1-.77,1.7l-1.245.726h0c2.118-1.234.594-6.329-2.386-7.215a1.9,1.9,0,0,1,1.763.237A5.275,5.275,0,0,1,2193.2-3.684Z" transform="translate(-2179.411 6.001)" opacity="0.05" style="isolation: isolate"/>
                </g>
                <path id="Trazado_102518" data-name="Trazado 102518" d="M2180.824,6.491a5.817,5.817,0,0,1-2.629-4.557c0-1.675,1.175-2.357,2.629-1.51a5.787,5.787,0,0,1,2.628,4.553C2183.452,6.648,2182.276,7.334,2180.824,6.491Z" transform="translate(-2178.195 5.942)" fill="#ff8400"/>
              </g>
              <g id="Grupo_56747" data-name="Grupo 56747" transform="translate(0 7.433)">
                <path id="Trazado_102519" data-name="Trazado 102519" d="M2179.636,6.745l2.149-1.234a1.129,1.129,0,0,0,.469-1.038,3.5,3.5,0,0,0-1.592-2.749,1.109,1.109,0,0,0-1.128-.116l-2.148,1.245Z" transform="translate(-2176.926 -1.506)" fill="#535359"/>
                <path id="Trazado_102520" data-name="Trazado 102520" d="M2178.509,6.651a3.512,3.512,0,0,1-1.588-2.76c0-1.018.711-1.427,1.588-.914a3.521,3.521,0,0,1,1.591,2.754C2180.1,6.747,2179.385,7.159,2178.509,6.651Z" transform="translate(-2176.921 -1.519)" fill="#303033"/>
                <path id="Trazado_102521" data-name="Trazado 102521" d="M2178.509,6.4a3.052,3.052,0,0,1-1.374-2.382c0-.872.616-1.224,1.374-.794a3.043,3.043,0,0,1,1.375,2.381C2179.88,6.479,2179.27,6.84,2178.509,6.4Z" transform="translate(-2176.923 -1.522)" fill="#121214"/>
              </g>
            </g>
          </g>
        </g>
        <g id="Grupo_56761" data-name="Grupo 56761" transform="translate(31.142 17.899)">
          <g id="Grupo_56751" data-name="Grupo 56751" transform="translate(37.293)">
            <path id="Trazado_102522" data-name="Trazado 102522" d="M2233.573,46.573l-1.634.94V-7.938l1.634-.943Z" transform="translate(-2230.363 9.791)" fill="#303033"/>
            <path id="Trazado_102523" data-name="Trazado 102523" d="M2230.346-8.846l1.576.912V47.52l-1.576-.91Z" transform="translate(-2230.346 9.791)" fill="#121214"/>
            <path id="Trazado_102524" data-name="Trazado 102524" d="M2231.981-9.8l1.576.914-1.634.943-1.576-.912Z" transform="translate(-2230.346 9.801)" fill="#535359"/>
          </g>
          <g id="Grupo_56752" data-name="Grupo 56752" transform="translate(20.726 24.369)">
            <path id="Trazado_102525" data-name="Trazado 102525" d="M2231.763,17.62V15.741L2215.2,25.3v1.883Z" transform="translate(-2213.619 -14.838)" fill="#303033"/>
            <path id="Trazado_102526" data-name="Trazado 102526" d="M2213.608,24.379l1.571.91,16.566-9.558-1.576-.9Z" transform="translate(-2213.602 -14.828)" fill="#535359"/>
            <path id="Trazado_102527" data-name="Trazado 102527" d="M2213.6,26.367l1.576.907V25.391l-1.571-.91Z" transform="translate(-2213.602 -14.93)" fill="#121214"/>
          </g>
          <g id="Grupo_56753" data-name="Grupo 56753" transform="translate(31.265 5.645)">
            <path id="Trazado_102528" data-name="Trazado 102528" d="M2226.732,18.288l-1.253.726V-2.664l1.253-.727Z" transform="translate(-2224.267 4.089)" fill="#303033"/>
            <path id="Trazado_102529" data-name="Trazado 102529" d="M2224.254-3.364l1.212.7V19.013l-1.212-.7Z" transform="translate(-2224.254 4.088)" fill="#121214"/>
            <path id="Trazado_102530" data-name="Trazado 102530" d="M2225.507-4.1l1.212.7-1.253.726-1.212-.7Z" transform="translate(-2224.254 4.096)" fill="#535359"/>
          </g>
          <g id="Grupo_56760" data-name="Grupo 56760" transform="translate(0 0.945)">
            <g id="Grupo_56754" data-name="Grupo 56754" transform="translate(16.279)">
              <path id="Trazado_102531" data-name="Trazado 102531" d="M2231.716-6.048V-7.924L2210.705,4.2V6.084Z" transform="translate(-2209.125 8.836)" fill="#303033"/>
              <path id="Trazado_102532" data-name="Trazado 102532" d="M2209.108,3.286l1.578.905L2231.7-7.934l-1.576-.912Z" transform="translate(-2209.108 8.846)" fill="#535359"/>
              <path id="Trazado_102533" data-name="Trazado 102533" d="M2209.11,5.3l1.576.909V4.32l-1.578-.905Z" transform="translate(-2209.108 8.717)" fill="#121214"/>
            </g>
            <g id="Grupo_56755" data-name="Grupo 56755" transform="translate(9.629 11.295)">
              <path id="Trazado_102534" data-name="Trazado 102534" d="M2205.01,10.112l6.4-3.688a1.078,1.078,0,0,0,.45-.992,3.367,3.367,0,0,0-1.534-2.652,1.061,1.061,0,0,0-1.083-.111l-6.4,3.688Z" transform="translate(-2202.392 -2.569)" fill="#303033"/>
              <path id="Trazado_102535" data-name="Trazado 102535" d="M2203.926,10.041a3.371,3.371,0,0,1-1.539-2.657c0-.98.687-1.373,1.539-.876a3.382,3.382,0,0,1,1.53,2.653C2205.455,10.133,2204.769,10.536,2203.926,10.041Z" transform="translate(-2202.387 -2.609)" fill="#121214"/>
            </g>
            <g id="Grupo_56759" data-name="Grupo 56759" transform="translate(0 11.765)">
              <g id="Grupo_56757" data-name="Grupo 56757" transform="translate(1.26 0)">
                <path id="Trazado_102536" data-name="Trazado 102536" d="M2198.427,15.654l10.4-6a1.848,1.848,0,0,0,.77-1.7,5.793,5.793,0,0,0-2.632-4.554,1.842,1.842,0,0,0-1.858-.189l-10.4,6Z" transform="translate(-2193.936 -3.044)" fill="#fff"/>
                <g id="Grupo_56756" data-name="Grupo 56756" transform="translate(1.101 0.002)">
                  <path id="Trazado_102537" data-name="Trazado 102537" d="M2198.14,7.277c1.586-.919,5.458,4.579,2.075,7.4l-.117.077h0c.731-3.034-2.928-6.91-5.057-5.685h0Z" transform="translate(-2195.041 -3.089)" opacity="0.05" style="isolation: isolate"/>
                  <path id="Trazado_102538" data-name="Trazado 102538" d="M2201.468,5.349c1.592-.909,5.463,4.583,2.075,7.405l-.111.063h0c.725-3.031-2.928-6.905-5.057-5.672h0Z" transform="translate(-2195.076 -3.069)" opacity="0.05" style="isolation: isolate"/>
                  <path id="Trazado_102539" data-name="Trazado 102539" d="M2204.883,3.389c1.586-.919,5.458,4.574,2.075,7.4l-.116.063h0c.73-3.02-2.929-6.9-5.058-5.672h0Z" transform="translate(-2195.112 -3.048)" opacity="0.05" style="isolation: isolate"/>
                  <path id="Trazado_102540" data-name="Trazado 102540" d="M2195.312,8.927c4.133-1.518,6.954,4.58,5.372,5.5l-2.246,1.292a1.859,1.859,0,0,0,.771-1.708,5.812,5.812,0,0,0-2.633-4.549,2.323,2.323,0,0,0-1.07-.348,2.8,2.8,0,0,0-.3-.122Z" transform="translate(-2195.043 -3.105)" opacity="0.05" style="isolation: isolate"/>
                  <path id="Trazado_102541" data-name="Trazado 102541" d="M2204.01,12.5c1.588-.916-1.239-7.014-5.372-5.5l-.1.072h0c2.981.882,4.511,5.982,2.382,7.216h0Z" transform="translate(-2195.078 -3.085)" opacity="0.05" style="isolation: isolate"/>
                  <path id="Trazado_102542" data-name="Trazado 102542" d="M2207.42,10.534c1.587-.923-1.24-7.018-5.372-5.488l-.1.058h0c2.975.881,4.51,5.982,2.375,7.215h0Z" transform="translate(-2195.114 -3.064)" opacity="0.05" style="isolation: isolate"/>
                  <path id="Trazado_102543" data-name="Trazado 102543" d="M2207.073,3.4a5.786,5.786,0,0,1,2.632,4.554,1.842,1.842,0,0,1-.765,1.7l-1.254.726h0c2.135-1.234.605-6.334-2.376-7.215a1.9,1.9,0,0,1,1.764.237Z" transform="translate(-2195.149 -3.046)" opacity="0.05" style="isolation: isolate"/>
                </g>
                <path id="Trazado_102544" data-name="Trazado 102544" d="M2196.56,15.54a5.824,5.824,0,0,1-2.632-4.553c0-1.68,1.18-2.358,2.632-1.521a5.812,5.812,0,0,1,2.633,4.549C2199.193,15.7,2198.011,16.377,2196.56,15.54Z" transform="translate(-2193.928 -3.108)" fill="#d1d3d4"/>
              </g>
              <g id="Grupo_56758" data-name="Grupo 56758" transform="translate(0 7.434)">
                <path id="Trazado_102545" data-name="Trazado 102545" d="M2195.374,15.8l2.149-1.234a1.135,1.135,0,0,0,.469-1.038,3.529,3.529,0,0,0-1.592-2.754,1.133,1.133,0,0,0-1.128-.116l-2.153,1.245Z" transform="translate(-2192.66 -10.557)" fill="#535359"/>
                <path id="Trazado_102546" data-name="Trazado 102546" d="M2194.243,15.7a3.53,3.53,0,0,1-1.588-2.758c0-1.017.712-1.428,1.588-.924a3.527,3.527,0,0,1,1.592,2.763C2195.835,15.79,2195.123,16.207,2194.243,15.7Z" transform="translate(-2192.655 -10.571)" fill="#303033"/>
                <path id="Trazado_102547" data-name="Trazado 102547" d="M2194.244,15.451a3.056,3.056,0,0,1-1.369-2.382c0-.867.614-1.23,1.369-.785a2.994,2.994,0,0,1,1.374,2.367C2195.619,15.533,2195.009,15.887,2194.244,15.451Z" transform="translate(-2192.657 -10.574)" fill="#121214"/>
              </g>
            </g>
          </g>
        </g>
        <g id="Grupo_56772" data-name="Grupo 56772" transform="translate(46.716 26.854)">
          <g id="Grupo_56762" data-name="Grupo 56762" transform="translate(37.29 0)">
            <path id="Trazado_102548" data-name="Trazado 102548" d="M2249.307,55.633l-1.628.934V1.11l1.63-.943Z" transform="translate(-2246.1 0.741)" fill="#303033"/>
            <path id="Trazado_102549" data-name="Trazado 102549" d="M2246.088.2l1.578.91V56.564l-1.578-.914Z" transform="translate(-2246.083 0.741)" fill="#121214"/>
            <path id="Trazado_102550" data-name="Trazado 102550" d="M2247.713-.751l1.578.908-1.63.943-1.578-.91Z" transform="translate(-2246.083 0.751)" fill="#535359"/>
          </g>
          <g id="Grupo_56763" data-name="Grupo 56763" transform="translate(20.725 24.361)">
            <path id="Trazado_102551" data-name="Trazado 102551" d="M2247.5,26.675V24.8l-16.562,9.546v1.887Z" transform="translate(-2229.358 -23.88)" fill="#303033"/>
            <path id="Trazado_102552" data-name="Trazado 102552" d="M2229.346,33.423l1.581.908,16.563-9.546-1.578-.915Z" transform="translate(-2229.341 -23.87)" fill="#535359"/>
            <path id="Trazado_102553" data-name="Trazado 102553" d="M2229.349,35.414l1.574.912V34.438l-1.582-.908Z" transform="translate(-2229.341 -23.972)" fill="#121214"/>
          </g>
          <g id="Grupo_56764" data-name="Grupo 56764" transform="translate(31.262 5.643)">
            <path id="Trazado_102554" data-name="Trazado 102554" d="M2242.468,27.345l-1.253.719V6.386l1.253-.726Z" transform="translate(-2240.004 -4.959)" fill="#303033"/>
            <path id="Trazado_102555" data-name="Trazado 102555" d="M2239.991,5.685l1.21.7V28.06l-1.21-.7Z" transform="translate(-2239.991 -4.96)" fill="#121214"/>
            <path id="Trazado_102556" data-name="Trazado 102556" d="M2241.246,4.952l1.209.7-1.253.727-1.21-.7Z" transform="translate(-2239.991 -4.952)" fill="#535359"/>
          </g>
          <g id="Grupo_56771" data-name="Grupo 56771" transform="translate(0 0.941)">
            <g id="Grupo_56765" data-name="Grupo 56765" transform="translate(16.278 0)">
              <path id="Trazado_102557" data-name="Trazado 102557" d="M2247.455,3V1.12l-21.017,12.134.007,1.881Z" transform="translate(-2224.864 -0.21)" fill="#303033"/>
              <path id="Trazado_102558" data-name="Trazado 102558" d="M2224.851,12.337l1.574.907L2247.442,1.11,2245.864.2Z" transform="translate(-2224.847 -0.2)" fill="#535359"/>
              <path id="Trazado_102559" data-name="Trazado 102559" d="M2224.852,14.342l1.576.913-.007-1.881-1.574-.907Z" transform="translate(-2224.847 -0.329)" fill="#121214"/>
            </g>
            <g id="Grupo_56766" data-name="Grupo 56766" transform="translate(9.63 11.291)">
              <path id="Trazado_102560" data-name="Trazado 102560" d="M2220.751,19.153l6.4-3.688a1.073,1.073,0,0,0,.445-.987,3.37,3.37,0,0,0-1.534-2.662,1.064,1.064,0,0,0-1.079-.1l-6.4,3.693Z" transform="translate(-2218.133 -11.612)" fill="#303033"/>
              <path id="Trazado_102561" data-name="Trazado 102561" d="M2219.662,19.095a3.4,3.4,0,0,1-1.534-2.652c0-.99.687-1.38,1.534-.887a3.367,3.367,0,0,1,1.535,2.653C2221.2,19.186,2220.51,19.584,2219.662,19.095Z" transform="translate(-2218.128 -11.651)" fill="#121214"/>
            </g>
            <g id="Grupo_56770" data-name="Grupo 56770" transform="translate(0 11.765)">
              <g id="Grupo_56768" data-name="Grupo 56768" transform="translate(1.259)">
                <path id="Trazado_102562" data-name="Trazado 102562" d="M2214.167,24.708l10.4-6a1.855,1.855,0,0,0,.765-1.7,5.811,5.811,0,0,0-2.629-4.558,1.813,1.813,0,0,0-1.858-.18l-10.4,6Z" transform="translate(-2209.675 -12.09)" fill="#fff"/>
                <g id="Grupo_56767" data-name="Grupo 56767" transform="translate(1.104 0.004)">
                  <path id="Trazado_102563" data-name="Trazado 102563" d="M2213.876,16.331c1.592-.919,5.463,4.574,2.075,7.39l-.111.067h0c.725-3.02-2.928-6.9-5.057-5.672h0Z" transform="translate(-2210.783 -12.138)" opacity="0.05" style="isolation: isolate"/>
                  <path id="Trazado_102564" data-name="Trazado 102564" d="M2217.214,14.4c1.588-.92,5.459,4.572,2.067,7.4l-.111.067h0c.73-3.034-2.928-6.91-5.052-5.676h0Z" transform="translate(-2210.818 -12.117)" opacity="0.05" style="isolation: isolate"/>
                  <path id="Trazado_102565" data-name="Trazado 102565" d="M2220.619,12.443c1.592-.925,5.468,4.573,2.075,7.389l-.115.063h0c.73-3.021-2.928-6.906-5.057-5.668h0Z" transform="translate(-2210.854 -12.097)" opacity="0.05" style="isolation: isolate"/>
                  <path id="Trazado_102566" data-name="Trazado 102566" d="M2211.048,17.974c4.133-1.518,6.96,4.58,5.372,5.5l-2.247,1.292a1.851,1.851,0,0,0,.774-1.7,5.821,5.821,0,0,0-2.632-4.554,2.425,2.425,0,0,0-1.07-.352,2.227,2.227,0,0,0-.306-.111Z" transform="translate(-2210.785 -12.154)" opacity="0.05" style="isolation: isolate"/>
                  <path id="Trazado_102567" data-name="Trazado 102567" d="M2219.749,21.545c1.589-.916-1.235-7.019-5.363-5.5l-.111.077h0c2.981.878,4.511,5.982,2.377,7.207h0Z" transform="translate(-2210.82 -12.133)" opacity="0.05" style="isolation: isolate"/>
                  <path id="Trazado_102568" data-name="Trazado 102568" d="M2223.156,19.576c1.585-.922-1.234-7.012-5.367-5.487l-.111.063h0c2.986.881,4.516,5.991,2.382,7.215h0Z" transform="translate(-2210.856 -12.113)" opacity="0.05" style="isolation: isolate"/>
                  <path id="Trazado_102569" data-name="Trazado 102569" d="M2224.667,14.409a5.365,5.365,0,0,1,.77,2.594,1.852,1.852,0,0,1-.764,1.7l-1.246.715h0c2.134-1.229.6-6.329-2.375-7.21a1.9,1.9,0,0,1,1.763.233A5.427,5.427,0,0,1,2224.667,14.409Z" transform="translate(-2210.891 -12.094)" opacity="0.05" style="isolation: isolate"/>
                </g>
                <path id="Trazado_102570" data-name="Trazado 102570" d="M2212.3,24.586a5.819,5.819,0,0,1-2.633-4.557c0-1.675,1.18-2.353,2.633-1.516a5.82,5.82,0,0,1,2.632,4.554C2214.932,24.748,2213.751,25.43,2212.3,24.586Z" transform="translate(-2209.667 -12.154)" fill="#d1d3d4"/>
              </g>
              <g id="Grupo_56769" data-name="Grupo 56769" transform="translate(0 7.439)">
                <path id="Trazado_102571" data-name="Trazado 102571" d="M2211.116,24.838l2.143-1.239a1.1,1.1,0,0,0,.469-1.026,3.506,3.506,0,0,0-1.592-2.759,1.131,1.131,0,0,0-1.122-.1l-2.148,1.234Z" transform="translate(-2208.4 -19.608)" fill="#535359"/>
                <path id="Trazado_102572" data-name="Trazado 102572" d="M2209.987,24.741a3.485,3.485,0,0,1-1.592-2.749c0-1.021.71-1.433,1.592-.924a3.524,3.524,0,0,1,1.587,2.758C2211.574,24.843,2210.863,25.25,2209.987,24.741Z" transform="translate(-2208.395 -19.622)" fill="#303033"/>
                <path id="Trazado_102573" data-name="Trazado 102573" d="M2209.994,24.492a3.006,3.006,0,0,1-1.374-2.371c0-.876.614-1.228,1.374-.789a3.034,3.034,0,0,1,1.365,2.372C2211.359,24.585,2210.737,24.938,2209.994,24.492Z" transform="translate(-2208.397 -19.625)" fill="#121214"/>
              </g>
            </g>
          </g>
        </g>
        <g id="Grupo_56773" data-name="Grupo 56773" transform="translate(21.865 47.38)">
          <path id="Trazado_102574" data-name="Trazado 102574" d="M2183.279,38.049l48.156,27.807V56.877l-48.155-27.8Z" transform="translate(-2183.279 -20.09)" fill="#121214"/>
          <path id="Trazado_102575" data-name="Trazado 102575" d="M2231.948,57.077l15.565-8.982v8.978l-15.565,8.983Z" transform="translate(-2183.793 -20.291)" fill="#303033"/>
          <path id="Trazado_102576" data-name="Trazado 102576" d="M2247,47.8l-48.156-27.808-15.564,8.987,48.155,27.8Z" transform="translate(-2183.279 -19.994)" fill="#535359"/>
        </g>
      </g>
      <g id="Grupo_56775" data-name="Grupo 56775" transform="translate(2161.33 11.092)">
        <path id="Trazado_102577" data-name="Trazado 102577" d="M2162.365,65.821l38.155,22.029V53.169l-8.984-15.739-29.172-16.843Z" transform="translate(-2162.359 -11.604)" fill="#0f7338"/>
        <path id="Trazado_102578" data-name="Trazado 102578" d="M2200.927,53.42l15.565-8.983V79.119L2200.927,88.1Z" transform="translate(-2162.766 -11.856)" fill="#128742"/>
        <path id="Trazado_102579" data-name="Trazado 102579" d="M2191.845,37.514l15.564-8.985L2216.4,44.27l-15.565,8.983Z" transform="translate(-2162.67 -11.688)" fill="#16a851"/>
        <path id="Trazado_102580" data-name="Trazado 102580" d="M2207.1,28.345l-29.175-16.837-15.564,8.981,29.177,16.844Z" transform="translate(-2162.359 -11.508)" fill="#1bcf64"/>
      </g>
      <g id="Grupo_56776" data-name="Grupo 56776" transform="translate(2098.375 70.909)">
        <path id="Trazado_102581" data-name="Trazado 102581" d="M2179.611,71.963l17.781,10.272-80.876,46.774-17.784-10.272Z" transform="translate(-2098.732 -71.963)" fill="#535359"/>
        <path id="Trazado_102582" data-name="Trazado 102582" d="M2116.706,132.487v-3.37l80.876-46.771v3.365Z" transform="translate(-2098.922 -72.073)" fill="#303033"/>
        <path id="Trazado_102583" data-name="Trazado 102583" d="M2098.733,122.6v-3.365l17.784,10.272v3.365Z" transform="translate(-2098.732 -72.462)" fill="#939598"/>
      </g>
      <g id="Grupo_56778" data-name="Grupo 56778" transform="translate(2082.054 26.236)">
        <path id="Trazado_102584" data-name="Trazado 102584" d="M2179.543,36.3l-16.425-9.488-80.881,46.773,16.425,9.485Z" transform="translate(-2082.237 -26.813)" fill="#e6e7e8"/>
        <g id="Grupo_56777" data-name="Grupo 56777" transform="translate(10.898 5.881)">
          <path id="Trazado_102585" data-name="Trazado 102585" d="M2167.99,32.757l7.254,4.187-1.366.785-5.888-3.4-1.3.742-1.359-.775Z" transform="translate(-2094.012 -32.757)" fill="#535359"/>
          <path id="Trazado_102586" data-name="Trazado 102586" d="M2168,34.35l5.888,3.4-1.3.749-5.893-3.406Z" transform="translate(-2094.026 -32.774)" fill="#a7a9ac"/>
          <path id="Trazado_102587" data-name="Trazado 102587" d="M2156.792,33.86,2168.64,40.7l-1.356.784-10.492-6.058-1.3.755-1.361-.79Z" transform="translate(-2093.894 -32.769)" fill="#535359"/>
          <path id="Trazado_102588" data-name="Trazado 102588" d="M2156.808,35.443,2167.3,41.5l-1.3.749L2155.507,36.2Z" transform="translate(-2093.908 -32.785)" fill="#a7a9ac"/>
          <path id="Trazado_102589" data-name="Trazado 102589" d="M2150.233,37.649l11.855,6.843-1.363.777-10.493-6.058-1.294.749-1.356-.78Z" transform="translate(-2093.824 -32.809)" fill="#535359"/>
          <path id="Trazado_102590" data-name="Trazado 102590" d="M2150.247,39.227l10.493,6.058-1.293.754-10.494-6.063Z" transform="translate(-2093.839 -32.825)" fill="#a7a9ac"/>
          <path id="Trazado_102591" data-name="Trazado 102591" d="M2143.682,41.431l11.849,6.841-1.356.787L2143.684,43l-1.3.748-1.36-.785Z" transform="translate(-2093.755 -32.849)" fill="#535359"/>
          <path id="Trazado_102592" data-name="Trazado 102592" d="M2143.7,43.015l10.493,6.06-1.3.747L2142.4,43.764Z" transform="translate(-2093.77 -32.865)" fill="#a7a9ac"/>
          <path id="Trazado_102593" data-name="Trazado 102593" d="M2137.127,45.21l11.847,6.843-1.356.785-10.491-6.054-1.293.747-1.355-.782Z" transform="translate(-2093.686 -32.888)" fill="#535359"/>
          <path id="Trazado_102594" data-name="Trazado 102594" d="M2137.146,46.8l10.492,6.054-1.3.747-10.479-6.054Z" transform="translate(-2093.701 -32.905)" fill="#a7a9ac"/>
          <path id="Trazado_102595" data-name="Trazado 102595" d="M2130.573,49.005l11.848,6.831-1.359.783-10.489-6.054-1.3.744-1.349-.776Z" transform="translate(-2093.617 -32.928)" fill="#535359"/>
          <path id="Trazado_102596" data-name="Trazado 102596" d="M2130.592,50.584l10.489,6.054-1.3.752-10.493-6.066Z" transform="translate(-2093.631 -32.945)" fill="#a7a9ac"/>
          <path id="Trazado_102597" data-name="Trazado 102597" d="M2124.027,52.775l11.846,6.848-1.357.785-10.489-6.066-1.3.759-1.364-.787Z" transform="translate(-2093.548 -32.968)" fill="#535359"/>
          <path id="Trazado_102598" data-name="Trazado 102598" d="M2124.042,54.359l10.489,6.066-1.3.747-10.487-6.055Z" transform="translate(-2093.562 -32.985)" fill="#a7a9ac"/>
          <path id="Trazado_102599" data-name="Trazado 102599" d="M2117.472,56.56l11.851,6.841-1.36.787-10.492-6.056-1.3.747-1.357-.783Z" transform="translate(-2093.479 -33.008)" fill="#535359"/>
          <path id="Trazado_102600" data-name="Trazado 102600" d="M2117.484,58.148l10.492,6.056-1.3.747L2116.188,58.9Z" transform="translate(-2093.493 -33.025)" fill="#a7a9ac"/>
          <path id="Trazado_102601" data-name="Trazado 102601" d="M2110.922,60.354l11.851,6.831-1.361.785-10.49-6.057-1.3.749-1.356-.778Z" transform="translate(-2093.409 -33.048)" fill="#535359"/>
          <path id="Trazado_102602" data-name="Trazado 102602" d="M2110.935,61.926l10.489,6.056-1.3.751-10.495-6.058Z" transform="translate(-2093.424 -33.065)" fill="#a7a9ac"/>
          <path id="Trazado_102603" data-name="Trazado 102603" d="M2104.361,64.125l11.851,6.848-1.362.779-10.489-6.06-1.3.754-1.349-.784Z" transform="translate(-2093.34 -33.088)" fill="#535359"/>
          <path id="Trazado_102604" data-name="Trazado 102604" d="M2104.378,65.71l10.489,6.061-1.3.751-10.489-6.058Z" transform="translate(-2093.355 -33.105)" fill="#a7a9ac"/>
          <path id="Trazado_102605" data-name="Trazado 102605" d="M2097.806,67.913l11.849,6.839-1.35.789-10.494-6.058-1.3.747-1.361-.785Z" transform="translate(-2093.271 -33.128)" fill="#535359"/>
          <path id="Trazado_102606" data-name="Trazado 102606" d="M2097.829,69.5l10.5,6.058-1.3.749-10.493-6.06Z" transform="translate(-2093.286 -33.145)" fill="#a7a9ac"/>
          <path id="Trazado_102607" data-name="Trazado 102607" d="M2095.9,74.373l7.253,4.19-1.361.785-5.891-3.4-1.3.745-1.349-.785Z" transform="translate(-2093.251 -33.196)" fill="#535359"/>
          <path id="Trazado_102608" data-name="Trazado 102608" d="M2095.917,75.971l5.891,3.4-1.3.749-5.9-3.406Z" transform="translate(-2093.265 -33.213)" fill="#a7a9ac"/>
        </g>
        <path id="Trazado_102609" data-name="Trazado 102609" d="M2179.721,36.4l4.344,5.466-80.884,46.766-4.344-5.461Z" transform="translate(-2082.412 -26.914)" fill="#bcbec0"/>
        <path id="Trazado_102610" data-name="Trazado 102610" d="M2103.232,93.272V88.688l80.88-46.766V46.5Z" transform="translate(-2082.459 -26.972)" fill="#a7a9ac"/>
        <path id="Trazado_102611" data-name="Trazado 102611" d="M2099.082,91.372V86.795l4.1,2.37v4.584Z" transform="translate(-2082.415 -27.446)" fill="#939598"/>
      </g>
      <g id="Grupo_56779" data-name="Grupo 56779" transform="translate(2081.988 60.064)">
        <path id="Trazado_102612" data-name="Trazado 102612" d="M2086.184,61l6.122,3.58-4.014,2.317-6.122-3.582Z" transform="translate(-2082.17 -61.002)" fill="#2a4e68"/>
        <path id="Trazado_102613" data-name="Trazado 102613" d="M2088.361,77.531V66.937l4.014-2.317V75.21Z" transform="translate(-2082.235 -61.04)" fill="#1d374e"/>
        <path id="Trazado_102614" data-name="Trazado 102614" d="M2082.173,73.939v-10.6l6.122,3.582V77.517Z" transform="translate(-2082.17 -61.027)" fill="#0f2034"/>
      </g>
      <g id="Grupo_56780" data-name="Grupo 56780" transform="translate(2158.974 15.618)">
        <path id="Trazado_102615" data-name="Trazado 102615" d="M2164,16.082l6.122,3.58-4.012,2.318-6.127-3.58Z" transform="translate(-2159.978 -16.082)" fill="#2a4e68"/>
        <path id="Trazado_102616" data-name="Trazado 102616" d="M2166.173,32.6V22.019l4.012-2.318V30.285Z" transform="translate(-2160.043 -16.12)" fill="#1d374e"/>
        <path id="Trazado_102617" data-name="Trazado 102617" d="M2159.978,29.014V18.43l6.126,3.58V32.594Z" transform="translate(-2159.978 -16.107)" fill="#0f2034"/>
      </g>
      <g id="Grupo_56784" data-name="Grupo 56784" transform="translate(2110.092 66.244)">
        <g id="Grupo_56781" data-name="Grupo 56781" transform="translate(67.684)">
          <path id="Trazado_102618" data-name="Trazado 102618" d="M2195.209,71.643,2181.928,79.3l-2.464-4.292,13.274-7.661a1.276,1.276,0,0,1,1.224.137,3.872,3.872,0,0,1,1.748,3.034A1.246,1.246,0,0,1,2195.209,71.643Z" transform="translate(-2178.985 -67.248)" fill="#303033"/>
          <path id="Trazado_102619" data-name="Trazado 102619" d="M2180.727,75.191c-.969-.557-1.747-.1-1.747,1.016a3.842,3.842,0,0,0,1.747,3.025c.963.556,1.747.107,1.747-1.006A3.886,3.886,0,0,0,2180.727,75.191Z" transform="translate(-2178.98 -67.329)" fill="#121214"/>
        </g>
        <g id="Grupo_56782" data-name="Grupo 56782" transform="translate(8.889 2.065)">
          <path id="Trazado_102620" data-name="Trazado 102620" d="M2184.433,84.606l-54.606,31.519-8.571-14.906L2175.85,69.69a4.325,4.325,0,0,1,4.244.46,13.45,13.45,0,0,1,6.088,10.536A4.3,4.3,0,0,1,2184.433,84.606Z" transform="translate(-2119.576 -69.335)" fill="#fff"/>
          <path id="Trazado_102621" data-name="Trazado 102621" d="M2125.642,101.917c-3.359-1.945-6.084-.368-6.084,3.509a13.427,13.427,0,0,0,6.084,10.531c3.363,1.945,6.083.373,6.083-3.5A13.442,13.442,0,0,0,2125.642,101.917Z" transform="translate(-2119.558 -69.67)" fill="#bcbec0"/>
        </g>
        <g id="Grupo_56783" data-name="Grupo 56783" transform="translate(0 39.083)">
          <path id="Trazado_102622" data-name="Trazado 102622" d="M2126.8,111.138l-13.274,7.655-2.463-4.283,13.274-7.655a1.219,1.219,0,0,1,1.215.126,3.862,3.862,0,0,1,1.756,3.034A1.232,1.232,0,0,1,2126.8,111.138Z" transform="translate(-2110.579 -106.748)" fill="#303033"/>
          <path id="Trazado_102623" data-name="Trazado 102623" d="M2112.322,114.689c-.963-.556-1.748-.111-1.748,1.006a3.9,3.9,0,0,0,1.748,3.035c.968.556,1.751.1,1.751-1.012A3.857,3.857,0,0,0,2112.322,114.689Z" transform="translate(-2110.574 -106.829)" fill="#121214"/>
        </g>
      </g>
      <g id="Grupo_56786" data-name="Grupo 56786" transform="translate(2101.961 37.957)">
        <path id="Trazado_102624" data-name="Trazado 102624" d="M2156.791,38.659s12.218,5.5,14.262,11.794-.614,6.654.8,11.769c1.558,5.668,7.151,4.416,10.574,9.707L2128,103.353c-3.431-5.275-9.028-4.041-10.584-9.7-1.408-5.115,1.249-5.479-.793-11.769s-14.266-11.8-14.266-11.8Z" transform="translate(-2102.357 -38.659)" fill="#fff"/>
        <g id="Grupo_56785" data-name="Grupo 56785" transform="translate(3.748 1.97)">
          <path id="Trazado_102625" data-name="Trazado 102625" d="M2151.013,42.319s12.23,5.5,14.27,11.8-.619,6.658.794,11.778c1.558,5.653,7.151,4.414,10.574,9.685v.009a13.508,13.508,0,0,1,3.548,8.44,4.3,4.3,0,0,1-1.728,3.9l2.884-1.66a4.305,4.305,0,0,0,1.748-3.915,13.517,13.517,0,0,0-3.552-8.44h0c-3.424-5.275-9.021-4.036-10.583-9.7-1.408-5.115,1.248-5.484-.794-11.774s-14.266-11.789-14.266-11.789Z" transform="translate(-2106.619 -40.65)" fill="#24d2c1"/>
          <path id="Trazado_102626" data-name="Trazado 102626" d="M2143.54,46.64s12.219,5.507,14.267,11.8-.615,6.649.794,11.774c1.558,5.657,7.151,4.418,10.574,9.693h0a13.525,13.525,0,0,1,3.552,8.44,4.3,4.3,0,0,1-1.734,3.9l2.885-1.659a4.316,4.316,0,0,0,1.748-3.92,13.492,13.492,0,0,0-3.557-8.435h0c-3.427-5.281-9.018-4.036-10.574-9.7-1.413-5.12,1.245-5.484-.8-11.775s-14.262-11.8-14.262-11.8Z" transform="translate(-2106.54 -40.695)" fill="#ff9d26"/>
          <path id="Trazado_102627" data-name="Trazado 102627" d="M2136.053,50.961s12.229,5.485,14.276,11.78-.619,6.658.789,11.773c1.567,5.663,7.159,4.42,10.583,9.7h0a13.536,13.536,0,0,1,3.552,8.44,4.345,4.345,0,0,1-1.728,3.906l2.874-1.66a4.3,4.3,0,0,0,1.751-3.915,13.468,13.468,0,0,0-3.557-8.44h0c-3.431-5.281-9.021-4.031-10.584-9.7-1.408-5.114,1.254-5.487-.793-11.773s-14.258-11.785-14.258-11.785Z" transform="translate(-2106.461 -40.741)" fill="#24d2c1"/>
          <path id="Trazado_102628" data-name="Trazado 102628" d="M2128.568,55.275s12.219,5.5,14.267,11.789-.615,6.653.793,11.773c1.568,5.663,7.159,4.419,10.584,9.7h0a13.492,13.492,0,0,1,3.547,8.44,4.3,4.3,0,0,1-1.728,3.9l2.884-1.66a4.3,4.3,0,0,0,1.751-3.92,13.478,13.478,0,0,0-3.556-8.43v-.01c-3.427-5.275-9.018-4.036-10.575-9.693-1.408-5.12,1.254-5.485-.793-11.774S2131.472,53.6,2131.472,53.6Z" transform="translate(-2106.382 -40.787)" fill="#ff9d26"/>
          <path id="Trazado_102629" data-name="Trazado 102629" d="M2121.1,59.594s12.232,5.506,14.271,11.793-.615,6.649.794,11.77c1.559,5.662,7.151,4.419,10.575,9.7h0a13.485,13.485,0,0,1,3.547,8.43,4.318,4.318,0,0,1-1.723,3.91l2.874-1.66c1.084-.639,1.747-1.995,1.747-3.92a13.5,13.5,0,0,0-3.547-8.435h0c-3.431-5.28-9.022-4.036-10.584-9.707-1.408-5.11,1.253-5.466-.793-11.76s-14.267-11.793-14.267-11.793Z" transform="translate(-2106.303 -40.832)" fill="#24d2c1"/>
          <path id="Trazado_102630" data-name="Trazado 102630" d="M2113.626,63.914s12.218,5.511,14.262,11.793-.615,6.645.8,11.765c1.553,5.663,7.146,4.423,10.569,9.694v.009a13.468,13.468,0,0,1,3.557,8.435,4.3,4.3,0,0,1-1.733,3.905l2.884-1.66c1.079-.647,1.742-2,1.742-3.924a13.526,13.526,0,0,0-3.548-8.435h0c-3.423-5.27-9.021-4.036-10.583-9.7-1.408-5.115,1.249-5.484-.794-11.769s-14.268-11.793-14.268-11.793Z" transform="translate(-2106.224 -40.878)" fill="#ff9d26"/>
          <path id="Trazado_102631" data-name="Trazado 102631" d="M2106.145,68.238s12.215,5.493,14.262,11.79-.611,6.659.794,11.778c1.567,5.658,7.159,4.418,10.583,9.689h0a13.507,13.507,0,0,1,3.552,8.44,4.317,4.317,0,0,1-1.728,3.9l2.88-1.66a4.314,4.314,0,0,0,1.751-3.92,13.521,13.521,0,0,0-3.562-8.44h0c-3.427-5.281-9.018-4.032-10.574-9.7-1.413-5.11,1.249-5.476-.8-11.769s-14.263-11.794-14.263-11.794Z" transform="translate(-2106.145 -40.923)" fill="#24d2c1"/>
        </g>
        <path id="Trazado_102632" data-name="Trazado 102632" d="M2117.313,83.988c.954,4.472-.983,5.285.261,9.809a7.025,7.025,0,0,0,3.726,4.53l54.429-31.433a7.019,7.019,0,0,1-3.722-4.525c-1.249-4.523.682-5.333-.266-9.815Z" transform="translate(-2102.513 -38.806)" opacity="0.05" style="isolation: isolate"/>
      </g>
      <g id="Grupo_56787" data-name="Grupo 56787" transform="translate(2107.759 46.048)">
        <path id="Trazado_102633" data-name="Trazado 102633" d="M2189.094,46.837l4.1,2.372-80.881,46.783-4.1-2.387Z" transform="translate(-2108.216 -46.837)" fill="#bcbec0"/>
        <path id="Trazado_102634" data-name="Trazado 102634" d="M2112.357,100.592V96.017l80.881-46.777v4.574Z" transform="translate(-2108.26 -46.862)" fill="#a7a9ac"/>
        <path id="Trazado_102635" data-name="Trazado 102635" d="M2108.216,98.679V94.1l4.1,2.387v4.575Z" transform="translate(-2108.216 -47.336)" fill="#939598"/>
      </g>
      <g id="Grupo_56788" data-name="Grupo 56788" transform="translate(2064.895 66.843)">
        <path id="Trazado_102636" data-name="Trazado 102636" d="M2064.9,122.174l38.16,22.029V109.519l-8.989-15.737L2064.9,76.938Z" transform="translate(-2064.895 -67.95)" fill="#0f7338"/>
        <path id="Trazado_102637" data-name="Trazado 102637" d="M2103.462,109.771l15.564-8.981v34.682l-15.564,8.983Z" transform="translate(-2065.302 -68.202)" fill="#128742"/>
        <path id="Trazado_102638" data-name="Trazado 102638" d="M2094.379,93.868l15.565-8.982,8.986,15.738-15.564,8.981Z" transform="translate(-2065.206 -68.034)" fill="#16a851"/>
        <path id="Trazado_102639" data-name="Trazado 102639" d="M2109.633,84.7l-29.174-16.85L2064.9,76.842l29.171,16.844Z" transform="translate(-2064.895 -67.854)" fill="#1bcf64"/>
      </g>
      <g id="Grupo_56792" data-name="Grupo 56792" transform="translate(2081.989 11.633)">
        <g id="Grupo_56789" data-name="Grupo 56789">
          <path id="Trazado_102640" data-name="Trazado 102640" d="M2163.051,12.055l6.122,3.58-80.881,46.771-6.122-3.578Z" transform="translate(-2082.171 -12.055)" fill="#2a4e68"/>
          <path id="Trazado_102641" data-name="Trazado 102641" d="M2088.36,66.421V62.445l80.878-46.771v3.973Z" transform="translate(-2082.236 -12.093)" fill="#1d374e"/>
          <path id="Trazado_102642" data-name="Trazado 102642" d="M2082.173,63.3V59.33l6.122,3.578v3.974Z" transform="translate(-2082.171 -12.554)" fill="#0f2034"/>
        </g>
        <g id="Grupo_56790" data-name="Grupo 56790" transform="translate(6.639 4.768)">
          <path id="Trazado_102643" data-name="Trazado 102643" d="M2168.595,16.874l5.886,3.41-79.717,46.122-5.883-3.424Z" transform="translate(-2088.881 -16.874)" fill="#1d374e"/>
          <path id="Trazado_102644" data-name="Trazado 102644" d="M2094.828,68.95V66.438l79.716-46.117v2.516Z" transform="translate(-2088.944 -16.91)" fill="#a7a9ac"/>
          <path id="Trazado_102645" data-name="Trazado 102645" d="M2088.882,65.99V63.467l5.883,3.424V69.4Z" transform="translate(-2088.881 -17.366)" fill="#0f2034"/>
        </g>
        <g id="Grupo_56791" data-name="Grupo 56791" transform="translate(11.976 6.876)">
          <path id="Trazado_102646" data-name="Trazado 102646" d="M2175.152,19l6.127,3.578L2100.4,69.355l-6.122-3.583Z" transform="translate(-2094.275 -19.004)" fill="#2a4e68"/>
          <path id="Trazado_102647" data-name="Trazado 102647" d="M2100.462,73.375V69.393l80.882-46.773V26.6Z" transform="translate(-2094.34 -19.042)" fill="#1d374e"/>
          <path id="Trazado_102648" data-name="Trazado 102648" d="M2094.275,70.256V66.271l6.122,3.583v3.982Z" transform="translate(-2094.275 -19.503)" fill="#0f2034"/>
        </g>
      </g>
      <g id="Grupo_56793" data-name="Grupo 56793" transform="translate(2213.087 -0.686)">
        <path id="Trazado_102649" data-name="Trazado 102649" d="M2247.5,72.576a15.47,15.47,0,0,0-13.967,0c-3.847,2.23-3.847,5.836,0,8.062a15.439,15.439,0,0,0,13.967,0C2251.346,78.412,2251.346,74.805,2247.5,72.576Z" transform="translate(-2214.837 -0.356)" opacity="0.3" style="isolation: isolate"/>
        <path id="Trazado_102650" data-name="Trazado 102650" d="M2245.9,74.632c.2,1.118,2.467,2.4,2.1,3.2s-1.743.479-2.3-.256-.512-1.03-1.073-1.751a7.261,7.261,0,0,0-1.5-1.35s-.393-2.017.174-2.265a4.674,4.674,0,0,1,1.641-.208A11.75,11.75,0,0,1,2245.9,74.632Z" transform="translate(-2214.967 -0.368)" fill="#535359"/>
        <path id="Trazado_102651" data-name="Trazado 102651" d="M2247.392,73.854c.2,1.123.977,2.855.61,3.668s-1.743.478-2.3-.256-.512-1.037-1.073-1.763a7.352,7.352,0,0,0-1.5-1.341s-.393-2.01.174-2.266a4.746,4.746,0,0,1,1.641-.207S2247.2,72.732,2247.392,73.854Z" transform="translate(-2214.967 -0.365)" fill="#fff"/>
        <path id="Trazado_102652" data-name="Trazado 102652" d="M2248.186,13.33l1.246,8.173.919,3.552-2.464,1.074v2.647s3.243-.514,4.54-.72,1.859-1.742,1.742-2.846-1.48-6.867-1.6-9.016c-.141-2.536-1.452-3.077-1.452-3.077Z" transform="translate(-2215.019 0.254)" fill="#16a89f"/>
        <path id="Trazado_102653" data-name="Trazado 102653" d="M2246.558,36.052l4.182,4.109c-.093.537-2.9,15.007-2.658,16.537a40.811,40.811,0,0,1,.809,4.592c.212,2.322-1.075,4.617-1.51,12.109-.072,1.272-3.353.5-3.068-1.37a39.721,39.721,0,0,0-.978-14.677c-.149-.964-.022-2.11-.126-3.17-.228-2.366-2.648-7.245-2.1-14.857A60.5,60.5,0,0,1,2246.558,36.052Z" transform="translate(-2214.946 0.012)" fill="#2b5e85"/>
        <path id="Trazado_102654" data-name="Trazado 102654" d="M2243.348,76.526c.194,1.1.992,2.512.238,3.5-.77.969-2.919.133-3.751.035s-3.3-.165-5.319-.392-1.664-2.246-1.063-2.333a12.3,12.3,0,0,0,5.308-1.693C2240.226,74.654,2243.155,75.426,2243.348,76.526Z" transform="translate(-2214.862 -0.402)" fill="#535359"/>
        <path id="Trazado_102655" data-name="Trazado 102655" d="M2243.352,76.231c.194,1.1,1.007,2.512.238,3.5s-2.919.14-3.751.044-3.3-.188-5.318-.407-1.664-2.245-1.065-2.327a12.263,12.263,0,0,0,5.3-1.687C2240.226,74.36,2243.159,75.132,2243.352,76.231Z" transform="translate(-2214.861 -0.398)" fill="#fff"/>
        <path id="Trazado_102656" data-name="Trazado 102656" d="M2243.531,38.332l7.225.252a6.664,6.664,0,0,1-.291,2.458c-.4.9-4.239,2.555-5.943,3.456-.087.537-1.5,13.19-1.259,14.716s1.052,2.566,1.259,4.9-.968,10.471-1.141,11.73-4.858.145-4.587-1.074a33.6,33.6,0,0,0-.276-14.911c-.15-.949-.028-2.1-.132-3.16-.228-2.362-2.652-7.245-2.1-14.853C2237.119,41.09,2243.531,38.332,2243.531,38.332Z" transform="translate(-2214.895 -0.013)" fill="#3576ab"/>
        <path id="Trazado_102657" data-name="Trazado 102657" d="M2240.764,8.3l1.3-.876L2246.818,9l1.292,2.672-.838,3.5-3.609,1.95-2.986-.957V15.013a42.26,42.26,0,0,0-.373-5.189A6.553,6.553,0,0,0,2240.764,8.3Z" transform="translate(-2214.938 0.314)" fill="#f0c6b4"/>
        <path id="Trazado_102658" data-name="Trazado 102658" d="M2250.179,13.118a5.38,5.38,0,0,1,1.16,3.445c.1,2.372-2.833,10.122-2.712,11.764s2.308,7.192,2.4,9.21-7.582,5.474-10.859,5.474-4.437-1.342-4.292-3.266.731-11.327.077-14.527c-.367-1.8-1.892-2.313-2.042-4.254-.043-.689,1.384-2.038,1.384-2.038s3.591-2.352,5.323-3.852c.15.735,1.595.866,2.425.735,3.406-.514,4.151-2.382,4.151-2.382Z" transform="translate(-2214.871 0.254)" fill="#24d2c1"/>
        <path id="Trazado_102659" data-name="Trazado 102659" d="M2242.473,4.06l-.131,4.65s-1.9,2.289-3.425,1.1c-.313-.247-.842-1.006-.822-4.138.005-.7.02-1.249.059-1.636a4.788,4.788,0,0,1,1.569-2.968Z" transform="translate(-2214.915 0.381)" fill="#f0c6b4"/>
        <path id="Trazado_102660" data-name="Trazado 102660" d="M2249.337,7.122s-1.079,3.159-2.149,3.654-3.824.928-4.981-.634-.948-2.226-1.519-2.792a1.192,1.192,0,0,0-1.867-.01c.338-1.2-.243-4.883.909-6.287a5.333,5.333,0,0,1,6.761-.45,7.3,7.3,0,0,1,2.74,4.472Z" transform="translate(-2214.923 0.396)" fill="#603913"/>
        <path id="Trazado_102661" data-name="Trazado 102661" d="M2248.176,4.661a1.6,1.6,0,1,0,1.605,1.6A1.6,1.6,0,0,0,2248.176,4.661Z" transform="translate(-2215.005 0.343)" fill="#e31b25"/>
        <path id="Trazado_102662" data-name="Trazado 102662" d="M2249.844,5.837c.485.556,2.424,2.3,2.56,4.461s-2.918,6.041-3.77,7.725c-4.371-3.306-.9-9.432-1.05-11.006C2247.431,5.46,2249.359,5.281,2249.844,5.837Z" transform="translate(-2215.003 0.333)" fill="#754c29"/>
        <path id="Trazado_102663" data-name="Trazado 102663" d="M2219.983,18.347a1.142,1.142,0,0,1-.925.281c-.474-.116-1.6-1.853-2.352-2.23-1.012.314-2.521-.126-1.888-.974s4.1-2.773,4.554-1.849c.174.347,1.573,2.846,1.573,2.846Z" transform="translate(-2214.668 0.251)" fill="#f0c6b4"/>
        <path id="Trazado_102664" data-name="Trazado 102664" d="M2237.241,23.588s-7.2,2.4-8.855,3.224-2.754-.378-3.45-1.23-4.742-6.225-5.328-6.993,1.128-2.515,1.534-2.051,4.469,4.234,6.536,6.576c.876-.334,6.717-3.722,6.717-3.722s4.235-3.048,5.469.145C2241.013,22.508,2237.241,23.588,2237.241,23.588Z" transform="translate(-2214.719 0.218)" fill="#16a89f"/>
      </g>
    </g>
  </g>
</svg>
