<svg xmlns="http://www.w3.org/2000/svg" width="404" height="187.12" viewBox="0 0 404 187.12">
  <g id="Grupo_57934" data-name="Grupo 57934" transform="translate(-178.5 -4667)">
    <path id="Trazado_102167" data-name="Trazado 102167" d="M724.625,275.72v-46.31h-400v46.31" transform="translate(-144.125 4578.4)" fill="none" stroke="#ff8a5b" stroke-miterlimit="10" stroke-width="4"/>
    <g id="Grupo_56469" data-name="Grupo 56469" transform="translate(-122.527 4578.4)">
      <line id="Línea_250" data-name="Línea 250" y2="16.157" transform="translate(505.159 212.166)" fill="none" stroke="#ff8a5b" stroke-miterlimit="10" stroke-width="4"/>
      <circle id="Elipse_4084" data-name="Elipse 4084" cx="59.211" cy="59.211" r="59.211" transform="translate(445.948 93.744)" fill="none" stroke="#ff8a5b" stroke-miterlimit="10" stroke-width="4"/>
      <circle id="Elipse_4085" data-name="Elipse 4085" cx="48.496" cy="48.496" r="48.496" transform="translate(456.663 104.458)" fill="#0075a4"/>
      <g id="Grupo_56465" data-name="Grupo 56465">
        <path id="Trazado_102168" data-name="Trazado 102168" d="M448.677,154.647h-7.149A66.046,66.046,0,0,1,507.575,88.6v7.15A58.964,58.964,0,0,0,448.677,154.647Z" fill="#0075a4"/>
      </g>
      <g id="Grupo_56467" data-name="Grupo 56467">
        <g id="Grupo_56466" data-name="Grupo 56466">
          <path id="Trazado_102169" data-name="Trazado 102169" d="M505.569,150.04a4.127,4.127,0,0,0,3.617-2.141l1.077-1.964a4.525,4.525,0,0,0-5.49-6.439,5.027,5.027,0,0,0-3.33,4.725v1.693a4.131,4.131,0,0,0,4.126,4.126Zm-2.022-5.819a2.92,2.92,0,0,1,1.934-2.744,2.422,2.422,0,0,1,2.938,3.446l-1.078,1.964a2.022,2.022,0,0,1-3.794-.973v-1.693Z" fill="#fff"/>
          <path id="Trazado_102170" data-name="Trazado 102170" d="M534.284,154.184a4.171,4.171,0,0,0-4.812-2.764,22.042,22.042,0,0,0-3.157-14.024,1.052,1.052,0,0,0-1.789,1.109,19.783,19.783,0,0,1,2.408,5.744h-9.222a1.891,1.891,0,0,1-.9-3.555l.3-.163a3.042,3.042,0,0,0-1.24-5.713,6.051,6.051,0,0,1-5.615-5.577,19.821,19.821,0,0,1,7.977,2.91,1.052,1.052,0,0,0,1.128-1.776,22.04,22.04,0,0,0-32.4,26.417l-5.754,3a1.052,1.052,0,1,0,.972,1.865l5.769-3.008a14.44,14.44,0,0,1,11.84-.678l11.884,4.555a1.692,1.692,0,0,1,.919,2.309,1.7,1.7,0,0,1-1.794.939l-14.149-2.286a1.052,1.052,0,0,0-.336,2.077l14.15,2.286c.2.032.61.048.616.048a11.437,11.437,0,0,0,8.393-3.681l9.311-10.115a2.09,2.09,0,0,1,1.963-.625,2.08,2.08,0,0,1,1.139,3.4l-9.43,10.864a15.34,15.34,0,0,1-11.591,5.288H481.7a1.052,1.052,0,1,0,0,2.1h29.17a17.445,17.445,0,0,0,13.18-6.013l9.429-10.864a4.148,4.148,0,0,0,.808-4.072Zm-26.71-25.125c.192,0,.384,0,.575.009a8.16,8.16,0,0,0,7.59,7.85.937.937,0,0,1,.382,1.761l-.3.163a3.994,3.994,0,0,0,1.893,7.511h9.616a19.941,19.941,0,0,1,.175,2.635,20.164,20.164,0,0,1-.248,3.147h-8.343a7.391,7.391,0,0,0-7.355,8.094l-10.094-3.87a6.033,6.033,0,0,0-2.306-7.373l-2.516-1.621a2.78,2.78,0,0,1-.149-4.57,4.939,4.939,0,0,0,1.991-3.953,3.906,3.906,0,0,0-3.9-3.9h-1.129a19.87,19.87,0,0,1,14.122-5.881Zm-18.683,26.88a19.931,19.931,0,0,1,2.74-18.895h2.95a1.8,1.8,0,0,1,1.8,1.8,2.825,2.825,0,0,1-1.14,2.262,4.884,4.884,0,0,0,.262,8.03l2.515,1.621a3.918,3.918,0,0,1,1.463,4.886,16.549,16.549,0,0,0-10.589.3Zm29.036,6.855a9.263,9.263,0,0,1-2.16,1.734l-1.351-2.231a5.283,5.283,0,0,1,4.5-8.058H525.8Z" fill="#fff"/>
          <path id="Trazado_102171" data-name="Trazado 102171" d="M522.49,135.285a1.052,1.052,0,1,0-.744-.308A1.059,1.059,0,0,0,522.49,135.285Z" fill="#fff"/>
        </g>
      </g>
    </g>
    <path id="Trazado_105776" data-name="Trazado 105776" d="M-273.123-1.837h5.951V0H-275.4V-13.108h2.278ZM-263.283,0h-2.188V-9.741h2.188Zm-.414-13.765h2.494l-2.494,2.728-1.756,0Zm4.933,4.024.063,1.125a3.5,3.5,0,0,1,2.836-1.305q3.043,0,3.1,3.484V0h-2.188V-6.311a2.006,2.006,0,0,0-.4-1.373,1.685,1.685,0,0,0-1.31-.446,2.108,2.108,0,0,0-1.972,1.2V0h-2.188V-9.741ZM-246.25.18a4.526,4.526,0,0,1-3.371-1.31,4.752,4.752,0,0,1-1.292-3.489v-.27a5.845,5.845,0,0,1,.563-2.606,4.282,4.282,0,0,1,1.58-1.787,4.177,4.177,0,0,1,2.269-.639,3.823,3.823,0,0,1,3.074,1.269,5.368,5.368,0,0,1,1.085,3.592v.882h-6.365a2.925,2.925,0,0,0,.806,1.909,2.419,2.419,0,0,0,1.778.7,2.962,2.962,0,0,0,2.449-1.215l1.179,1.125A3.938,3.938,0,0,1-244.058-.3,4.89,4.89,0,0,1-246.25.18Zm-.261-8.345a1.842,1.842,0,0,0-1.454.63,3.267,3.267,0,0,0-.707,1.756h4.168v-.162a2.659,2.659,0,0,0-.585-1.661A1.828,1.828,0,0,0-246.511-8.165ZM-234.826,0a3.376,3.376,0,0,1-.252-.909A3.405,3.405,0,0,1-237.634.18a3.437,3.437,0,0,1-2.395-.837,2.679,2.679,0,0,1-.927-2.071,2.766,2.766,0,0,1,1.157-2.39,5.606,5.606,0,0,1,3.308-.833h1.341V-6.59a1.706,1.706,0,0,0-.423-1.211,1.677,1.677,0,0,0-1.287-.455,1.927,1.927,0,0,0-1.224.374,1.156,1.156,0,0,0-.477.95h-2.188a2.428,2.428,0,0,1,.531-1.5,3.539,3.539,0,0,1,1.445-1.094,5.075,5.075,0,0,1,2.039-.4,4.087,4.087,0,0,1,2.728.86,3.066,3.066,0,0,1,1.044,2.417v4.393a4.979,4.979,0,0,0,.369,2.1V0Zm-2.4-1.575a2.489,2.489,0,0,0,1.22-.315,2.105,2.105,0,0,0,.86-.846V-4.573h-1.179a3.225,3.225,0,0,0-1.828.423,1.371,1.371,0,0,0-.612,1.2,1.278,1.278,0,0,0,.419,1A1.621,1.621,0,0,0-237.229-1.575Zm10.74-3.367a5.791,5.791,0,0,1,1.044-3.615,3.346,3.346,0,0,1,2.8-1.364,3.179,3.179,0,0,1,2.5,1.08v-4.987h2.188V0h-1.981l-.108-1.008A3.225,3.225,0,0,1-222.663.18,3.327,3.327,0,0,1-225.431-1.2,6,6,0,0,1-226.489-4.942Zm2.188.189a4.055,4.055,0,0,0,.572,2.318A1.855,1.855,0,0,0-222.1-1.6a2.066,2.066,0,0,0,1.963-1.2V-6.959a2.035,2.035,0,0,0-1.945-1.17,1.869,1.869,0,0,0-1.638.842A4.515,4.515,0,0,0-224.3-4.753ZM-211.383.18a4.526,4.526,0,0,1-3.371-1.31,4.752,4.752,0,0,1-1.292-3.489v-.27a5.845,5.845,0,0,1,.563-2.606,4.282,4.282,0,0,1,1.58-1.787,4.177,4.177,0,0,1,2.269-.639,3.823,3.823,0,0,1,3.074,1.269,5.368,5.368,0,0,1,1.085,3.592v.882h-6.365a2.925,2.925,0,0,0,.806,1.909,2.419,2.419,0,0,0,1.778.7,2.962,2.962,0,0,0,2.449-1.215l1.179,1.125A3.938,3.938,0,0,1-209.191-.3,4.89,4.89,0,0,1-211.383.18Zm-.261-8.345a1.842,1.842,0,0,0-1.454.63A3.267,3.267,0,0,0-213.8-5.78h4.168v-.162a2.659,2.659,0,0,0-.585-1.661A1.828,1.828,0,0,0-211.644-8.165Zm19,3.394a5.851,5.851,0,0,1-1.013,3.61A3.3,3.3,0,0,1-196.438.18,3.178,3.178,0,0,1-199.1-1.053L-199.211,0h-1.981V-13.828H-199V-8.8a3.166,3.166,0,0,1,2.548-1.116,3.337,3.337,0,0,1,2.8,1.323,5.948,5.948,0,0,1,1.017,3.7Zm-2.188-.189a4.135,4.135,0,0,0-.558-2.377,1.859,1.859,0,0,0-1.62-.792,2.031,2.031,0,0,0-2,1.242v4.015A2.052,2.052,0,0,0-196.987-1.6a1.845,1.845,0,0,0,1.584-.765,4.007,4.007,0,0,0,.576-2.314Zm9.84,4.96a3.376,3.376,0,0,1-.252-.909A3.405,3.405,0,0,1-187.8.18a3.437,3.437,0,0,1-2.395-.837,2.679,2.679,0,0,1-.927-2.071,2.766,2.766,0,0,1,1.157-2.39,5.606,5.606,0,0,1,3.308-.833h1.341V-6.59a1.706,1.706,0,0,0-.423-1.211,1.677,1.677,0,0,0-1.287-.455,1.927,1.927,0,0,0-1.224.374,1.156,1.156,0,0,0-.477.95h-2.188a2.428,2.428,0,0,1,.531-1.5,3.539,3.539,0,0,1,1.445-1.094,5.075,5.075,0,0,1,2.039-.4,4.087,4.087,0,0,1,2.728.86,3.066,3.066,0,0,1,1.044,2.417v4.393a4.979,4.979,0,0,0,.369,2.1V0Zm-2.4-1.575a2.489,2.489,0,0,0,1.22-.315,2.105,2.105,0,0,0,.86-.846V-4.573h-1.179a3.225,3.225,0,0,0-1.828.423,1.371,1.371,0,0,0-.612,1.2,1.278,1.278,0,0,0,.419,1A1.621,1.621,0,0,0-187.391-1.575Zm12.019-1.071a.992.992,0,0,0-.482-.891,5.123,5.123,0,0,0-1.6-.54,8.215,8.215,0,0,1-1.864-.594,2.487,2.487,0,0,1-1.638-2.3,2.593,2.593,0,0,1,1.062-2.107,4.2,4.2,0,0,1,2.7-.846,4.37,4.37,0,0,1,2.822.864,2.742,2.742,0,0,1,1.076,2.242h-2.188a1.348,1.348,0,0,0-.468-1.049,1.794,1.794,0,0,0-1.242-.419,1.939,1.939,0,0,0-1.175.333,1.05,1.05,0,0,0-.455.891.887.887,0,0,0,.423.783,5.818,5.818,0,0,0,1.71.563,8.1,8.1,0,0,1,2.021.675,2.862,2.862,0,0,1,1.089.941,2.4,2.4,0,0,1,.356,1.332A2.538,2.538,0,0,1-174.31-.635a4.645,4.645,0,0,1-2.854.815A5.037,5.037,0,0,1-179.3-.252a3.511,3.511,0,0,1-1.458-1.188,2.813,2.813,0,0,1-.522-1.629h2.125a1.542,1.542,0,0,0,.585,1.193,2.274,2.274,0,0,0,1.431.419,2.212,2.212,0,0,0,1.314-.329A1.017,1.017,0,0,0-175.372-2.647ZM-167.027.18A4.526,4.526,0,0,1-170.4-1.13a4.752,4.752,0,0,1-1.292-3.489v-.27a5.845,5.845,0,0,1,.563-2.606,4.282,4.282,0,0,1,1.58-1.787,4.177,4.177,0,0,1,2.269-.639A3.823,3.823,0,0,1-164.2-8.652a5.368,5.368,0,0,1,1.085,3.592v.882h-6.365a2.925,2.925,0,0,0,.806,1.909,2.419,2.419,0,0,0,1.778.7,2.962,2.962,0,0,0,2.449-1.215l1.179,1.125A3.938,3.938,0,0,1-164.834-.3,4.89,4.89,0,0,1-167.027.18Zm-.261-8.345a1.842,1.842,0,0,0-1.454.63,3.267,3.267,0,0,0-.707,1.756h4.168v-.162a2.659,2.659,0,0,0-.585-1.661A1.828,1.828,0,0,0-167.288-8.165ZM-151.011,0a3.376,3.376,0,0,1-.252-.909A3.405,3.405,0,0,1-153.82.18a3.437,3.437,0,0,1-2.395-.837,2.679,2.679,0,0,1-.927-2.071,2.766,2.766,0,0,1,1.157-2.39,5.606,5.606,0,0,1,3.308-.833h1.341V-6.59a1.706,1.706,0,0,0-.423-1.211,1.677,1.677,0,0,0-1.287-.455,1.927,1.927,0,0,0-1.224.374,1.156,1.156,0,0,0-.477.95h-2.188a2.428,2.428,0,0,1,.531-1.5,3.539,3.539,0,0,1,1.445-1.094,5.075,5.075,0,0,1,2.039-.4,4.087,4.087,0,0,1,2.728.86,3.066,3.066,0,0,1,1.044,2.417v4.393a4.979,4.979,0,0,0,.369,2.1V0Zm-2.4-1.575a2.489,2.489,0,0,0,1.22-.315,2.105,2.105,0,0,0,.86-.846V-4.573h-1.179a3.225,3.225,0,0,0-1.828.423,1.371,1.371,0,0,0-.612,1.2,1.278,1.278,0,0,0,.419,1A1.621,1.621,0,0,0-153.414-1.575Zm8.616-8.165.063,1.017a3.505,3.505,0,0,1,2.809-1.2,2.693,2.693,0,0,1,2.674,1.494,3.455,3.455,0,0,1,2.989-1.494,3.037,3.037,0,0,1,2.4.891,3.924,3.924,0,0,1,.806,2.629V0h-2.188V-6.338a1.937,1.937,0,0,0-.405-1.359,1.773,1.773,0,0,0-1.341-.432,1.821,1.821,0,0,0-1.22.4,2.113,2.113,0,0,0-.662,1.049l.009,6.68h-2.188V-6.41a1.561,1.561,0,0,0-1.756-1.72,1.926,1.926,0,0,0-1.864,1.071V0h-2.188V-9.741Zm22.534,4.969a5.851,5.851,0,0,1-1.013,3.61A3.3,3.3,0,0,1-126.064.18a3.178,3.178,0,0,1-2.665-1.233L-128.837,0h-1.981V-13.828h2.188V-8.8a3.166,3.166,0,0,1,2.548-1.116,3.337,3.337,0,0,1,2.8,1.323,5.948,5.948,0,0,1,1.017,3.7Zm-2.188-.189a4.136,4.136,0,0,0-.558-2.377,1.859,1.859,0,0,0-1.62-.792,2.031,2.031,0,0,0-2,1.242v4.015A2.052,2.052,0,0,0-126.614-1.6a1.845,1.845,0,0,0,1.584-.765,4.007,4.007,0,0,0,.576-2.314ZM-118.106,0h-2.188V-9.741h2.188Zm-2.323-12.28a1.175,1.175,0,0,1,.32-.844,1.2,1.2,0,0,1,.914-.336,1.217,1.217,0,0,1,.918.336,1.166,1.166,0,0,1,.324.844,1.139,1.139,0,0,1-.324.83,1.227,1.227,0,0,1-.918.331,1.211,1.211,0,0,1-.914-.331A1.148,1.148,0,0,1-120.429-12.28ZM-111.435.18a4.526,4.526,0,0,1-3.371-1.31A4.752,4.752,0,0,1-116.1-4.618v-.27a5.845,5.845,0,0,1,.563-2.606,4.283,4.283,0,0,1,1.58-1.787,4.177,4.177,0,0,1,2.269-.639,3.823,3.823,0,0,1,3.074,1.269,5.368,5.368,0,0,1,1.085,3.592v.882h-6.365a2.925,2.925,0,0,0,.806,1.909,2.419,2.419,0,0,0,1.778.7,2.962,2.962,0,0,0,2.449-1.215l1.179,1.125A3.938,3.938,0,0,1-109.243-.3,4.89,4.89,0,0,1-111.435.18Zm-.261-8.345a1.842,1.842,0,0,0-1.454.63,3.266,3.266,0,0,0-.707,1.756h4.168v-.162a2.659,2.659,0,0,0-.585-1.661A1.828,1.828,0,0,0-111.7-8.165Zm7.9-1.575.063,1.125A3.5,3.5,0,0,1-100.9-9.921q3.043,0,3.1,3.484V0h-2.188V-6.311a2.006,2.006,0,0,0-.4-1.373,1.685,1.685,0,0,0-1.31-.446,2.108,2.108,0,0,0-1.972,1.2V0h-2.188V-9.741Zm10.965-2.368v2.368h1.72v1.62h-1.72v5.438a1.2,1.2,0,0,0,.221.806,1.023,1.023,0,0,0,.788.248,3.37,3.37,0,0,0,.765-.09V-.027A5.388,5.388,0,0,1-92.5.18q-2.521,0-2.521-2.782V-8.12h-1.6v-1.62h1.6v-2.368ZM-83.626,0a3.376,3.376,0,0,1-.252-.909A3.405,3.405,0,0,1-86.435.18a3.437,3.437,0,0,1-2.395-.837,2.679,2.679,0,0,1-.927-2.071A2.766,2.766,0,0,1-88.6-5.118a5.606,5.606,0,0,1,3.308-.833h1.341V-6.59A1.706,1.706,0,0,0-84.373-7.8a1.677,1.677,0,0,0-1.287-.455,1.927,1.927,0,0,0-1.224.374,1.156,1.156,0,0,0-.477.95H-89.55a2.428,2.428,0,0,1,.531-1.5,3.539,3.539,0,0,1,1.445-1.094,5.075,5.075,0,0,1,2.039-.4,4.087,4.087,0,0,1,2.728.86,3.066,3.066,0,0,1,1.044,2.417v4.393a4.979,4.979,0,0,0,.369,2.1V0Zm-2.4-1.575a2.488,2.488,0,0,0,1.22-.315,2.105,2.105,0,0,0,.86-.846V-4.573h-1.179a3.225,3.225,0,0,0-1.828.423,1.371,1.371,0,0,0-.612,1.2,1.278,1.278,0,0,0,.419,1A1.621,1.621,0,0,0-86.03-1.575ZM-77.144,0h-2.188V-13.828h2.188Zm12.433-2.647a.992.992,0,0,0-.482-.891,5.123,5.123,0,0,0-1.6-.54,8.215,8.215,0,0,1-1.864-.594,2.487,2.487,0,0,1-1.638-2.3,2.593,2.593,0,0,1,1.062-2.107,4.2,4.2,0,0,1,2.7-.846,4.37,4.37,0,0,1,2.822.864,2.742,2.742,0,0,1,1.076,2.242h-2.188a1.348,1.348,0,0,0-.468-1.049,1.794,1.794,0,0,0-1.242-.419,1.939,1.939,0,0,0-1.175.333,1.05,1.05,0,0,0-.455.891.887.887,0,0,0,.423.783,5.819,5.819,0,0,0,1.711.563A8.1,8.1,0,0,1-64-5.037a2.862,2.862,0,0,1,1.089.941,2.4,2.4,0,0,1,.356,1.332A2.538,2.538,0,0,1-63.649-.635,4.645,4.645,0,0,1-66.5.18a5.037,5.037,0,0,1-2.134-.432A3.512,3.512,0,0,1-70.095-1.44a2.813,2.813,0,0,1-.522-1.629h2.125a1.541,1.541,0,0,0,.585,1.193,2.274,2.274,0,0,0,1.431.419,2.212,2.212,0,0,0,1.314-.329A1.017,1.017,0,0,0-64.711-2.647ZM-56.366.18a4.526,4.526,0,0,1-3.371-1.31,4.752,4.752,0,0,1-1.292-3.489v-.27a5.845,5.845,0,0,1,.563-2.606,4.283,4.283,0,0,1,1.58-1.787,4.177,4.177,0,0,1,2.269-.639,3.823,3.823,0,0,1,3.074,1.269,5.368,5.368,0,0,1,1.085,3.592v.882h-6.365a2.925,2.925,0,0,0,.806,1.909,2.419,2.419,0,0,0,1.778.7,2.962,2.962,0,0,0,2.449-1.215l1.179,1.125A3.938,3.938,0,0,1-54.174-.3,4.89,4.89,0,0,1-56.366.18Zm-.261-8.345a1.842,1.842,0,0,0-1.454.63,3.266,3.266,0,0,0-.707,1.756h4.168v-.162A2.659,2.659,0,0,0-55.2-7.6,1.828,1.828,0,0,0-56.627-8.165Zm9.867,6.6A1.978,1.978,0,0,0-45.4-2.044a1.63,1.63,0,0,0,.576-1.179h2.062a3.213,3.213,0,0,1-.567,1.7A3.72,3.72,0,0,1-44.77-.279,4.293,4.293,0,0,1-46.733.18a4.153,4.153,0,0,1-3.241-1.323,5.249,5.249,0,0,1-1.2-3.655v-.225a5.162,5.162,0,0,1,1.188-3.561,4.115,4.115,0,0,1,3.241-1.337,4,4,0,0,1,2.831,1.013,3.628,3.628,0,0,1,1.148,2.66h-2.062A2,2,0,0,0-45.4-7.625a1.839,1.839,0,0,0-1.364-.54A1.925,1.925,0,0,0-48.4-7.4a3.928,3.928,0,0,0-.585,2.336v.351a3.993,3.993,0,0,0,.572,2.363A1.923,1.923,0,0,0-46.76-1.566Zm8.39-10.542v2.368h1.72v1.62h-1.72v5.438a1.2,1.2,0,0,0,.221.806,1.023,1.023,0,0,0,.788.248,3.37,3.37,0,0,0,.765-.09V-.027a5.388,5.388,0,0,1-1.44.207q-2.521,0-2.521-2.782V-8.12h-1.6v-1.62h1.6v-2.368Zm2.71,7.148a5.744,5.744,0,0,1,.567-2.579A4.142,4.142,0,0,1-33.5-9.3a4.49,4.49,0,0,1,2.359-.617,4.255,4.255,0,0,1,3.2,1.269,4.993,4.993,0,0,1,1.328,3.367l.009.513A5.8,5.8,0,0,1-27.157-2.2,4.092,4.092,0,0,1-28.741-.441,4.523,4.523,0,0,1-31.122.18a4.225,4.225,0,0,1-3.3-1.373,5.258,5.258,0,0,1-1.238-3.66Zm2.188.189a3.925,3.925,0,0,0,.621,2.354,2.019,2.019,0,0,0,1.729.851A2,2,0,0,0-29.4-2.431a4.335,4.335,0,0,0,.617-2.53A3.874,3.874,0,0,0-29.416-7.3a2.027,2.027,0,0,0-1.724-.864,2.008,2.008,0,0,0-1.7.851A4.253,4.253,0,0,0-33.472-4.771Zm13.819-2.971a5.413,5.413,0,0,0-.891-.072A2.007,2.007,0,0,0-22.57-6.662V0h-2.188V-9.741h2.089l.054,1.089a2.465,2.465,0,0,1,2.2-1.269,2.048,2.048,0,0,1,.774.126ZM-15.944,0h-2.188V-9.741h2.188Zm-2.323-12.28a1.175,1.175,0,0,1,.32-.844,1.2,1.2,0,0,1,.914-.336,1.217,1.217,0,0,1,.918.336,1.166,1.166,0,0,1,.324.844,1.139,1.139,0,0,1-.324.83,1.227,1.227,0,0,1-.918.331,1.211,1.211,0,0,1-.914-.331A1.148,1.148,0,0,1-18.266-12.28ZM-7.742,0a3.376,3.376,0,0,1-.252-.909A3.405,3.405,0,0,1-10.551.18a3.437,3.437,0,0,1-2.395-.837,2.679,2.679,0,0,1-.927-2.071,2.766,2.766,0,0,1,1.157-2.39,5.606,5.606,0,0,1,3.308-.833h1.341V-6.59A1.706,1.706,0,0,0-8.49-7.8a1.677,1.677,0,0,0-1.287-.455A1.927,1.927,0,0,0-11-7.882a1.156,1.156,0,0,0-.477.95h-2.188a2.428,2.428,0,0,1,.531-1.5A3.539,3.539,0,0,1-11.69-9.525a5.075,5.075,0,0,1,2.039-.4,4.087,4.087,0,0,1,2.728.86A3.066,3.066,0,0,1-5.879-6.644v4.393a4.979,4.979,0,0,0,.369,2.1V0Zm-2.4-1.575a2.488,2.488,0,0,0,1.22-.315,2.105,2.105,0,0,0,.86-.846V-4.573H-9.246a3.225,3.225,0,0,0-1.828.423,1.371,1.371,0,0,0-.612,1.2,1.278,1.278,0,0,0,.419,1A1.621,1.621,0,0,0-10.146-1.575ZM-1.26,0H-3.448V-13.828H-1.26Z" transform="translate(519 4846.927)" fill="#0075a4"/>
  </g>
</svg>
