<svg xmlns="http://www.w3.org/2000/svg" width="235" height="196" viewBox="0 0 235 196">
  <g id="Grupo_57915" data-name="Grupo 57915" transform="translate(-2043.533 283.326)">
    <rect id="Rectángulo_5479" data-name="Rectángulo 5479" width="235" height="196" transform="translate(2043.533 -283.326)" fill="#ffe8de"/>
    <path id="Trazado_105505" data-name="Trazado 105505" d="M2091.453-195.114l-47.919,11.923v95.865h228.434l-22.187-47.91Z" fill="#ffcbb5"/>
    <path id="Trazado_105506" data-name="Trazado 105506" d="M2075.536-190.971l-5.969,11.008,73.258,49.276,64.439,32.979,43.49-32.979Z" transform="translate(0 -1.864)" opacity="0.3"/>
    <g id="Grupo_57914" data-name="Grupo 57914" transform="translate(2071.901 -260.975)">
      <g id="Grupo_57912" data-name="Grupo 57912" transform="translate(0 0)">
        <g id="Grupo_57858" data-name="Grupo 57858" transform="translate(0 31.007)">
          <path id="Trazado_105507" data-name="Trazado 105507" d="M2250.818-151.464l-44.36,25.607-134.493-77.656,44.351-25.608Z" transform="translate(-2071.965 229.121)" fill="#121214"/>
          <path id="Trazado_105508" data-name="Trazado 105508" d="M2071.965-183.053v-19.759l134.493,77.656v19.762Z" transform="translate(-2071.965 228.42)" fill="#535359"/>
          <path id="Trazado_105509" data-name="Trazado 105509" d="M2210.135-103.971v-19.762l44.36-25.607v19.761Z" transform="translate(-2075.642 226.997)" fill="#303033"/>
        </g>
        <g id="Grupo_57859" data-name="Grupo 57859" transform="translate(84.275 10.097)">
          <path id="Trazado_105510" data-name="Trazado 105510" d="M2242.148-173.487,2173.027-213.4v-37.2l16.252,9.381,52.869,47.281Z" transform="translate(-2158.93 250.603)" fill="#128742"/>
          <path id="Trazado_105511" data-name="Trazado 105511" d="M2227.675-165.131l-69.13-39.907v-37.208l16.257,9.386,52.874,47.276Z" transform="translate(-2158.544 250.38)" fill="#128742"/>
          <path id="Trazado_105512" data-name="Trazado 105512" d="M2243.653-171.937l-14.088,8.133v-20.453l14.088-8.134Z" transform="translate(-2160.435 249.053)" fill="#0f7338"/>
          <path id="Trazado_105513" data-name="Trazado 105513" d="M2242.208-193.684l-14.088,8.134-52.874-47.276,14.093-8.139Z" transform="translate(-2158.989 250.346)" fill="#16a851"/>
          <path id="Trazado_105514" data-name="Trazado 105514" d="M2174.8-233.083l14.093-8.139-16.252-9.381-14.1,8.134Z" transform="translate(-2158.544 250.603)" fill="#1bcf64"/>
        </g>
        <g id="Grupo_57872" data-name="Grupo 57872" transform="translate(49.639 54.343)">
          <g id="Grupo_57860" data-name="Grupo 57860" transform="translate(8.088 4.671)">
            <path id="Trazado_105515" data-name="Trazado 105515" d="M2181.752-196.8,2137.4-171.2l-6.129-3.543,44.359-25.607Z" transform="translate(-2131.271 200.348)" fill="#bcbec0"/>
            <path id="Trazado_105516" data-name="Trazado 105516" d="M2131.271-170.481v-3.56l6.129,3.543,0,3.558Z" transform="translate(-2131.271 199.647)" fill="#a7a9ac"/>
            <path id="Trazado_105517" data-name="Trazado 105517" d="M2137.572-167.543l0-3.558,44.352-25.606v3.557Z" transform="translate(-2131.438 200.251)" fill="#939598"/>
          </g>
          <g id="Grupo_57861" data-name="Grupo 57861" transform="translate(15.155 8.757)">
            <path id="Trazado_105518" data-name="Trazado 105518" d="M2189.018-192.622l-44.357,25.612-6.129-3.545,44.357-25.595Z" transform="translate(-2138.531 196.15)" fill="#bcbec0"/>
            <path id="Trazado_105519" data-name="Trazado 105519" d="M2138.531-166.286v-3.568l6.129,3.545v3.558Z" transform="translate(-2138.531 195.45)" fill="#a7a9ac"/>
            <path id="Trazado_105520" data-name="Trazado 105520" d="M2144.828-163.356v-3.558l44.357-25.612v3.57Z" transform="translate(-2138.699 196.053)" fill="#939598"/>
          </g>
          <g id="Grupo_57862" data-name="Grupo 57862" transform="translate(22.222 12.827)">
            <path id="Trazado_105521" data-name="Trazado 105521" d="M2196.274-188.422l-44.357,25.605-6.125-3.542,44.351-25.609Z" transform="translate(-2145.792 191.968)" fill="#bcbec0"/>
            <path id="Trazado_105522" data-name="Trazado 105522" d="M2145.792-162.1v-3.56l6.125,3.542v3.555Z" transform="translate(-2145.792 191.268)" fill="#a7a9ac"/>
            <path id="Trazado_105523" data-name="Trazado 105523" d="M2152.084-159.165v-3.555l44.357-25.605v3.558Z" transform="translate(-2145.959 191.871)" fill="#939598"/>
          </g>
          <g id="Grupo_57863" data-name="Grupo 57863" transform="translate(29.285 16.913)">
            <path id="Trazado_105524" data-name="Trazado 105524" d="M2203.529-184.242l-44.353,25.611-6.128-3.54,44.351-25.6Z" transform="translate(-2153.048 187.771)" fill="#bcbec0"/>
            <path id="Trazado_105525" data-name="Trazado 105525" d="M2153.048-157.91v-3.561l6.128,3.54v3.559Z" transform="translate(-2153.048 187.071)" fill="#a7a9ac"/>
            <path id="Trazado_105526" data-name="Trazado 105526" d="M2159.343-154.976v-3.559l44.353-25.611v3.569Z" transform="translate(-2153.215 187.674)" fill="#939598"/>
          </g>
          <g id="Grupo_57864" data-name="Grupo 57864" transform="translate(36.346 20.987)">
            <path id="Trazado_105527" data-name="Trazado 105527" d="M2210.783-180.043l-44.356,25.6-6.125-3.538,44.357-25.606Z" transform="translate(-2160.302 183.586)" fill="#bcbec0"/>
            <path id="Trazado_105528" data-name="Trazado 105528" d="M2160.3-153.722v-3.557l6.125,3.538v3.562Z" transform="translate(-2160.302 182.885)" fill="#a7a9ac"/>
            <path id="Trazado_105529" data-name="Trazado 105529" d="M2166.594-150.783v-3.562l44.356-25.6v3.558Z" transform="translate(-2160.469 183.489)" fill="#939598"/>
          </g>
          <g id="Grupo_57865" data-name="Grupo 57865" transform="translate(43.412 25.068)">
            <path id="Trazado_105530" data-name="Trazado 105530" d="M2218.037-175.855l-44.352,25.6-6.125-3.538,44.357-25.6Z" transform="translate(-2167.561 179.393)" fill="#bcbec0"/>
            <path id="Trazado_105531" data-name="Trazado 105531" d="M2167.561-149.529v-3.562l6.125,3.538v3.562Z" transform="translate(-2167.561 178.692)" fill="#a7a9ac"/>
            <path id="Trazado_105532" data-name="Trazado 105532" d="M2173.853-146.595v-3.562l44.352-25.6v3.552Z" transform="translate(-2167.728 179.296)" fill="#939598"/>
          </g>
          <g id="Grupo_57866" data-name="Grupo 57866" transform="translate(50.475 29.145)">
            <path id="Trazado_105533" data-name="Trazado 105533" d="M2225.294-171.666l-44.35,25.6-6.128-3.536,44.356-25.6Z" transform="translate(-2174.816 175.204)" fill="#bcbec0"/>
            <path id="Trazado_105534" data-name="Trazado 105534" d="M2174.816-145.34V-148.9l6.128,3.536v3.567Z" transform="translate(-2174.816 174.503)" fill="#a7a9ac"/>
            <path id="Trazado_105535" data-name="Trazado 105535" d="M2181.112-142.4v-3.567l44.35-25.6v3.563Z" transform="translate(-2174.984 175.107)" fill="#939598"/>
          </g>
          <g id="Grupo_57867" data-name="Grupo 57867" transform="translate(57.536 33.215)">
            <path id="Trazado_105536" data-name="Trazado 105536" d="M2232.559-167.478,2188.2-141.873l-6.134-3.54,44.362-25.61Z" transform="translate(-2182.071 171.022)" fill="#bcbec0"/>
            <path id="Trazado_105537" data-name="Trazado 105537" d="M2182.071-141.143v-3.569l6.134,3.54v3.56Z" transform="translate(-2182.071 170.322)" fill="#a7a9ac"/>
            <path id="Trazado_105538" data-name="Trazado 105538" d="M2188.373-138.215v-3.56l44.354-25.605v3.56Z" transform="translate(-2182.239 170.925)" fill="#939598"/>
          </g>
          <g id="Grupo_57868" data-name="Grupo 57868" transform="translate(64.605 37.304)">
            <path id="Trazado_105539" data-name="Trazado 105539" d="M2239.814-163.293l-44.353,25.607-6.128-3.531,44.351-25.6Z" transform="translate(-2189.333 166.822)" fill="#bcbec0"/>
            <path id="Trazado_105540" data-name="Trazado 105540" d="M2189.333-136.961v-3.556l6.128,3.531v3.571Z" transform="translate(-2189.333 166.122)" fill="#a7a9ac"/>
            <path id="Trazado_105541" data-name="Trazado 105541" d="M2195.628-134.019v-3.571l44.353-25.607v3.568Z" transform="translate(-2189.5 166.725)" fill="#939598"/>
          </g>
          <g id="Grupo_57869" data-name="Grupo 57869" transform="translate(71.67 41.378)">
            <path id="Trazado_105542" data-name="Trazado 105542" d="M2247.074-159.1l-44.362,25.605-6.12-3.54,44.353-25.605Z" transform="translate(-2196.592 162.637)" fill="#bcbec0"/>
            <path id="Trazado_105543" data-name="Trazado 105543" d="M2196.592-132.761v-3.57l6.12,3.54v3.559Z" transform="translate(-2196.592 161.936)" fill="#a7a9ac"/>
            <path id="Trazado_105544" data-name="Trazado 105544" d="M2202.879-129.836V-133.4L2247.241-159v3.561Z" transform="translate(-2196.759 162.54)" fill="#939598"/>
          </g>
          <g id="Grupo_57870" data-name="Grupo 57870" transform="translate(78.731 45.459)">
            <path id="Trazado_105545" data-name="Trazado 105545" d="M2254.328-154.912l-44.36,25.607-6.122-3.531,44.356-25.608Z" transform="translate(-2203.846 158.444)" fill="#bcbec0"/>
            <path id="Trazado_105546" data-name="Trazado 105546" d="M2203.846-128.582v-3.554l6.122,3.531v3.561Z" transform="translate(-2203.846 157.743)" fill="#a7a9ac"/>
            <path id="Trazado_105547" data-name="Trazado 105547" d="M2210.135-125.647v-3.561l44.36-25.607v3.568Z" transform="translate(-2204.013 158.347)" fill="#939598"/>
          </g>
          <g id="Grupo_57871" data-name="Grupo 57871" transform="translate(38.649 20.708)">
            <path id="Trazado_105548" data-name="Trazado 105548" d="M2242-156.9a5.231,5.231,0,0,0-1.339-1.06l-38.91-22.465a11.7,11.7,0,0,0-10.545,0l-26.359,15.219a5.773,5.773,0,0,0-1.182.89h-1v2.152h0a3.7,3.7,0,0,0,2.177,3.049l38.907,22.465a11.7,11.7,0,0,0,10.535,0l26.372-15.229a3.692,3.692,0,0,0,2.173-3.037v-2.131Z" transform="translate(-2162.667 183.814)" fill="#7a4100"/>
            <path id="Trazado_105549" data-name="Trazado 105549" d="M2240.658-160.155c2.9,1.678,2.9,4.411,0,6.087l-26.372,15.228a11.719,11.719,0,0,1-10.535,0L2164.844-161.3c-2.9-1.676-2.9-4.417,0-6.094l26.359-15.221a11.7,11.7,0,0,1,10.545,0Z" transform="translate(-2162.667 183.872)" fill="#b56100"/>
            <path id="Trazado_105550" data-name="Trazado 105550" d="M2190.506-179.446a1.784,1.784,0,0,0,.018.621.971.971,0,0,0,.273.519,1.721,1.721,0,0,0,.579.36,5.376,5.376,0,0,0,.86.227c.654.128,1.4.21,2.175.335.4.061.8.137,1.21.237a7.254,7.254,0,0,1,1.227.414,3.734,3.734,0,0,1,1.025.665,2.4,2.4,0,0,1,.569.806,2.322,2.322,0,0,1,.177.8,1.721,1.721,0,0,1,0,.388c0,.062-.009.125-.018.186l-.018.173c0,.087-.019.191-.019.281s.011.193.019.278a1.439,1.439,0,0,0,.144.492.99.99,0,0,0,.293.356,1.674,1.674,0,0,0,.438.231,5.8,5.8,0,0,0,.7.172c.276.046.6.082.94.111s.712.068,1.106.107.807.068,1.259.134a8.44,8.44,0,0,1,1.468.348,4.141,4.141,0,0,1,.753.359,2.135,2.135,0,0,1,.543.5,1.416,1.416,0,0,1,.261.518l.073.339a4.8,4.8,0,0,0,.183.589,2.676,2.676,0,0,0,.644,1.01,2.391,2.391,0,0,0,1.112.589,9.147,9.147,0,0,0,1.886.218c.38.025.791.043,1.239.1a6.948,6.948,0,0,1,1.452.271,3.232,3.232,0,0,1,1.241.7,2.086,2.086,0,0,1,.529.821l.038.093.022.086.048.15a2.022,2.022,0,0,0,.113.3,3.674,3.674,0,0,0,.286.571,2.735,2.735,0,0,0,.923.928,3.971,3.971,0,0,0,1.551.441c.315.04.685.064,1.093.1a7.918,7.918,0,0,1,1.368.224,2.994,2.994,0,0,1,.7.283,1.905,1.905,0,0,1,.5.4,1.621,1.621,0,0,1,.379.811,2.164,2.164,0,0,1,.046.335c.018.1.037.2.063.309a2.5,2.5,0,0,0,.228.565,1.6,1.6,0,0,0,.4.464,2.043,2.043,0,0,0,.642.33,7.245,7.245,0,0,0,.918.2c.354.055.744.105,1.17.191a6.434,6.434,0,0,1,.633.177,2.727,2.727,0,0,1,.591.282,1.58,1.58,0,0,1,.65.752,1.858,1.858,0,0,1,.146.736v.329a.913.913,0,0,0,.045.289.813.813,0,0,0,.3.46,1.6,1.6,0,0,0,.688.264c.3.063.659.1,1.029.144.374.026.768.048,1.168.1a6.153,6.153,0,0,1,1.221.247,2.6,2.6,0,0,1,.988.549,1.754,1.754,0,0,1,.461.7,2.26,2.26,0,0,1,.12.707,4.663,4.663,0,0,1-.207,1.365l-.692-.062a4.74,4.74,0,0,0,.113-1.291,1.676,1.676,0,0,0-.535-1.15,1.913,1.913,0,0,0-.688-.349,6.338,6.338,0,0,0-.959-.165c-.355-.029-.727-.048-1.125-.072s-.8-.057-1.222-.132a4.246,4.246,0,0,1-.648-.167,2.228,2.228,0,0,1-.573-.281,1.481,1.481,0,0,1-.592-.751,1.552,1.552,0,0,1-.081-.379l-.009-.1-.009-.083v-.152a1.681,1.681,0,0,0-.155-.58.908.908,0,0,0-.4-.421,2.082,2.082,0,0,0-.713-.233,20.573,20.573,0,0,1-2.305-.4,3.842,3.842,0,0,1-1.142-.514,2.657,2.657,0,0,1-.688-.7,3.038,3.038,0,0,1-.349-.719,2.536,2.536,0,0,1-.1-.36c-.033-.13-.044-.226-.07-.32a1.156,1.156,0,0,0-.253-.464.874.874,0,0,0-.443-.224,5.772,5.772,0,0,0-.869-.1c-.35-.02-.754-.039-1.179-.075a9.423,9.423,0,0,1-1.335-.215,5.455,5.455,0,0,1-1.237-.459,4.316,4.316,0,0,1-.907-.637,4.409,4.409,0,0,1-.606-.679,4.512,4.512,0,0,1-.412-.7,2.332,2.332,0,0,1-.154-.341l-.132-.318a1.218,1.218,0,0,0-.294-.421,1.124,1.124,0,0,0-.416-.216,4.337,4.337,0,0,0-.744-.114c-.312-.019-.671-.034-1.057-.043a15.311,15.311,0,0,1-2.63-.262,6.173,6.173,0,0,1-1.347-.453,5.1,5.1,0,0,1-1.019-.649,4.369,4.369,0,0,1-1.1-1.445,4.472,4.472,0,0,1-.273-.722l-.056-.176a.683.683,0,0,0-.042-.142.374.374,0,0,0-.065-.118.2.2,0,0,0-.087-.049.485.485,0,0,0-.146-.066,3.226,3.226,0,0,0-.668-.136c-.3-.034-.646-.073-1.007-.1s-.761-.074-1.178-.118-.842-.094-1.3-.181a7.559,7.559,0,0,1-1.381-.387,3.9,3.9,0,0,1-1.2-.7,2.233,2.233,0,0,1-.616-.867,2.227,2.227,0,0,1-.154-.82,3.069,3.069,0,0,1,.026-.393,3.015,3.015,0,0,1,.068-.373l.041-.167c.01-.048.021-.091.032-.145a2.2,2.2,0,0,0,.039-.277,1.563,1.563,0,0,0-.03-.523,1.1,1.1,0,0,0-.221-.437,1.548,1.548,0,0,0-.442-.364,3.689,3.689,0,0,0-.708-.307c-.278-.1-.6-.171-.93-.258-.666-.167-1.42-.309-2.188-.536a5.9,5.9,0,0,1-1.116-.448,2.043,2.043,0,0,1-.788-.7,1.214,1.214,0,0,1-.146-.787,1.991,1.991,0,0,1,.255-.7Z" transform="translate(-2163.383 183.756)" fill="#944f00"/>
            <path id="Trazado_105551" data-name="Trazado 105551" d="M2195-182.545a2.04,2.04,0,0,0,.013.618,1.135,1.135,0,0,0,.276.529,1.651,1.651,0,0,0,.584.35,5.637,5.637,0,0,0,.861.231c.644.129,1.394.217,2.174.336q.59.091,1.212.236a6.621,6.621,0,0,1,1.222.415,4.063,4.063,0,0,1,1.032.663,2.472,2.472,0,0,1,.559.812,2.279,2.279,0,0,1,.184.8,3.35,3.35,0,0,1,0,.383,1.691,1.691,0,0,1-.022.189l-.013.167a2.28,2.28,0,0,0-.023.29,1.3,1.3,0,0,0,.023.274,1.374,1.374,0,0,0,.135.493,1,1,0,0,0,.292.348,1.57,1.57,0,0,0,.443.233,4.587,4.587,0,0,0,.695.166c.282.051.6.089.942.128s.717.056,1.108.1.81.074,1.259.14a7.658,7.658,0,0,1,1.473.348,3.916,3.916,0,0,1,.748.357,2.094,2.094,0,0,1,.546.494,1.447,1.447,0,0,1,.269.514l.073.347a4.019,4.019,0,0,0,.176.582,2.679,2.679,0,0,0,.643,1.015,2.418,2.418,0,0,0,1.111.587,10.686,10.686,0,0,0,1.888.229c.382.018.788.042,1.24.086a6.9,6.9,0,0,1,1.461.281,3.1,3.1,0,0,1,1.231.688,2.228,2.228,0,0,1,.532.824l.03.1.025.078.049.157c.036.1.07.2.116.3a4.258,4.258,0,0,0,.29.572,2.6,2.6,0,0,0,.923.917,3.867,3.867,0,0,0,1.543.447c.324.039.688.067,1.092.1a8.171,8.171,0,0,1,1.365.215,3.272,3.272,0,0,1,.711.286,2.093,2.093,0,0,1,.5.4,1.765,1.765,0,0,1,.381.807c.022.128.029.25.051.346a2.3,2.3,0,0,0,.053.3,2.583,2.583,0,0,0,.223.571,1.687,1.687,0,0,0,.416.468,2.051,2.051,0,0,0,.637.322,6.377,6.377,0,0,0,.923.2c.347.057.742.1,1.16.2a4.959,4.959,0,0,1,.637.171,2.81,2.81,0,0,1,.585.281,1.675,1.675,0,0,1,.66.753,1.9,1.9,0,0,1,.142.742.694.694,0,0,1,0,.18v.147a1.5,1.5,0,0,0,.04.285.8.8,0,0,0,.3.462,1.859,1.859,0,0,0,.692.275c.3.06.659.092,1.024.128s.766.06,1.173.106a6.209,6.209,0,0,1,1.22.256,2.461,2.461,0,0,1,.985.542,1.679,1.679,0,0,1,.463.7,2.346,2.346,0,0,1,.118.708,4.673,4.673,0,0,1-.2,1.366l-.7-.055a4.405,4.405,0,0,0,.109-1.3,1.625,1.625,0,0,0-.53-1.143,1.8,1.8,0,0,0-.692-.355,4.569,4.569,0,0,0-.959-.164c-.349-.037-.73-.056-1.117-.079a11.919,11.919,0,0,1-1.234-.129,3.7,3.7,0,0,1-.641-.169,2.128,2.128,0,0,1-.582-.282,1.436,1.436,0,0,1-.578-.75,1.276,1.276,0,0,1-.092-.374l0-.09,0-.1a.815.815,0,0,0-.01-.15,1.732,1.732,0,0,0-.144-.574,1.021,1.021,0,0,0-.4-.425,2.2,2.2,0,0,0-.716-.233,21.79,21.79,0,0,1-2.309-.393,3.911,3.911,0,0,1-1.133-.523,2.512,2.512,0,0,1-.689-.7,3.1,3.1,0,0,1-.351-.716c-.041-.126-.074-.238-.1-.354s-.042-.236-.067-.33a1.074,1.074,0,0,0-.254-.465.821.821,0,0,0-.435-.22,5.081,5.081,0,0,0-.871-.1c-.35-.024-.75-.038-1.187-.081a7.372,7.372,0,0,1-1.332-.215,5.4,5.4,0,0,1-1.241-.46,4.237,4.237,0,0,1-.9-.631,4.579,4.579,0,0,1-.605-.684,4.1,4.1,0,0,1-.416-.694c-.059-.123-.109-.235-.16-.35l-.131-.319a1.272,1.272,0,0,0-.29-.421,1.146,1.146,0,0,0-.423-.215,4.061,4.061,0,0,0-.738-.109c-.31-.025-.671-.036-1.053-.051a13.659,13.659,0,0,1-2.633-.258,6.679,6.679,0,0,1-1.346-.446,4.646,4.646,0,0,1-1.014-.654,4.271,4.271,0,0,1-1.1-1.444,6.01,6.01,0,0,1-.282-.717l-.054-.186a.6.6,0,0,0-.035-.133.29.29,0,0,0-.072-.116.482.482,0,0,0-.087-.066.954.954,0,0,0-.145-.06,4.7,4.7,0,0,0-.676-.132c-.288-.038-.633-.076-1-.1s-.763-.062-1.174-.11a12.091,12.091,0,0,1-1.3-.189,7.742,7.742,0,0,1-1.385-.38,3.828,3.828,0,0,1-1.2-.707,2.289,2.289,0,0,1-.62-.859,2.333,2.333,0,0,1-.159-.834,3.686,3.686,0,0,1,.026-.385,2.33,2.33,0,0,1,.074-.377l.041-.165c.013-.048.022-.1.031-.139a2.227,2.227,0,0,0,.04-.279,1.75,1.75,0,0,0-.031-.529,1.11,1.11,0,0,0-.223-.44,1.55,1.55,0,0,0-.44-.36,4.077,4.077,0,0,0-.706-.306c-.278-.1-.6-.175-.932-.264-.67-.166-1.422-.3-2.187-.535a5.551,5.551,0,0,1-1.121-.449,1.985,1.985,0,0,1-.786-.7,1.29,1.29,0,0,1-.146-.779,2.162,2.162,0,0,1,.254-.7Z" transform="translate(-2163.502 183.839)" fill="#944f00"/>
            <path id="Trazado_105552" data-name="Trazado 105552" d="M2184.238-175.58a1.764,1.764,0,0,0,.018.622,1.029,1.029,0,0,0,.279.527,1.528,1.528,0,0,0,.578.348,4.934,4.934,0,0,0,.861.231c.642.128,1.387.214,2.175.336.393.062.8.138,1.214.241a6.484,6.484,0,0,1,1.221.415,3.6,3.6,0,0,1,1.018.657,2.389,2.389,0,0,1,.568.812,2.262,2.262,0,0,1,.186.8,3.434,3.434,0,0,1-.007.39c0,.061-.007.129-.015.192l-.022.173c0,.087-.014.179-.014.277a1.294,1.294,0,0,0,.014.275,1.86,1.86,0,0,0,.138.494,1,1,0,0,0,.3.351,1.416,1.416,0,0,0,.436.229,4.292,4.292,0,0,0,.7.17c.279.048.6.086.942.124s.71.065,1.1.1.818.076,1.261.145a7.519,7.519,0,0,1,1.47.344,3.636,3.636,0,0,1,.75.364,2.03,2.03,0,0,1,.553.489,1.671,1.671,0,0,1,.26.528l.076.334a3.725,3.725,0,0,0,.176.583,2.672,2.672,0,0,0,.636,1.015,2.545,2.545,0,0,0,1.116.593,11.28,11.28,0,0,0,1.885.22c.382.024.8.043,1.247.087a7.285,7.285,0,0,1,1.453.28,3.068,3.068,0,0,1,1.232.693,2.11,2.11,0,0,1,.538.821l.031.1.025.077.049.157c.031.1.071.2.108.3a4.659,4.659,0,0,0,.29.574,2.72,2.72,0,0,0,.927.922,3.749,3.749,0,0,0,1.537.438c.336.043.7.067,1.106.108a7.677,7.677,0,0,1,1.362.214,3.141,3.141,0,0,1,.709.285,2.161,2.161,0,0,1,.5.4,1.752,1.752,0,0,1,.381.8c.025.126.025.252.047.341a1.658,1.658,0,0,0,.062.3,1.976,1.976,0,0,0,.223.567,1.55,1.55,0,0,0,.412.47,2.129,2.129,0,0,0,.627.319,5.517,5.517,0,0,0,.925.2c.356.06.748.11,1.165.2a5.193,5.193,0,0,1,.643.175,3,3,0,0,1,.589.278,1.7,1.7,0,0,1,.652.752,2.126,2.126,0,0,1,.146.744v.327a1.216,1.216,0,0,0,.04.285.793.793,0,0,0,.3.463,1.713,1.713,0,0,0,.691.271,9.144,9.144,0,0,0,1.03.131c.368.027.757.061,1.172.108a6.479,6.479,0,0,1,1.208.252,2.724,2.724,0,0,1,.993.54,1.917,1.917,0,0,1,.462.7,2.554,2.554,0,0,1,.116.707,4.776,4.776,0,0,1-.2,1.364l-.7-.053a4.463,4.463,0,0,0,.109-1.293,1.637,1.637,0,0,0-.525-1.147,1.805,1.805,0,0,0-.7-.35,4.6,4.6,0,0,0-.958-.165c-.351-.039-.725-.056-1.116-.082a9.562,9.562,0,0,1-1.231-.13,3.685,3.685,0,0,1-.643-.167,1.943,1.943,0,0,1-.581-.282,1.424,1.424,0,0,1-.582-.745,1.711,1.711,0,0,1-.084-.379l-.014-.092v-.092c0-.05,0-.1-.01-.151a1.63,1.63,0,0,0-.149-.577,1.056,1.056,0,0,0-.389-.428,2.277,2.277,0,0,0-.725-.233,21.63,21.63,0,0,1-2.307-.393,3.848,3.848,0,0,1-1.131-.524,2.621,2.621,0,0,1-.693-.691,2.819,2.819,0,0,1-.347-.725,3.549,3.549,0,0,1-.1-.352c-.028-.13-.044-.235-.072-.321a.984.984,0,0,0-.253-.473.893.893,0,0,0-.437-.22,6.021,6.021,0,0,0-.864-.1c-.353-.018-.762-.033-1.19-.072a10.6,10.6,0,0,1-1.336-.211,6.164,6.164,0,0,1-1.232-.471,4.381,4.381,0,0,1-.908-.631,4.124,4.124,0,0,1-.6-.683,5.152,5.152,0,0,1-.415-.7c-.058-.116-.108-.232-.158-.344l-.132-.324a1.138,1.138,0,0,0-.292-.419.971.971,0,0,0-.419-.21,3.607,3.607,0,0,0-.738-.118c-.3-.025-.667-.032-1.057-.049a14,14,0,0,1-2.631-.26,6.17,6.17,0,0,1-1.336-.449,4.224,4.224,0,0,1-1.024-.649,4.282,4.282,0,0,1-1.1-1.445,5.568,5.568,0,0,1-.28-.719l-.055-.185c-.013-.048-.035-.123-.035-.136a.279.279,0,0,0-.073-.114.279.279,0,0,0-.087-.063.65.65,0,0,0-.138-.056,4.172,4.172,0,0,0-.675-.138c-.3-.036-.64-.065-1.013-.1s-.756-.064-1.173-.107-.847-.105-1.3-.19a7.6,7.6,0,0,1-1.391-.377,4.16,4.16,0,0,1-1.192-.7,2.278,2.278,0,0,1-.62-.869,2.171,2.171,0,0,1-.15-.831c0-.125.012-.254.02-.379s.046-.252.072-.386l.039-.163c.014-.045.022-.1.034-.138.022-.1.03-.193.043-.284a1.789,1.789,0,0,0-.034-.52,1.113,1.113,0,0,0-.218-.44,1.566,1.566,0,0,0-.443-.357,3.817,3.817,0,0,0-.711-.314c-.279-.089-.594-.175-.93-.255-.67-.174-1.419-.314-2.184-.531a6.053,6.053,0,0,1-1.121-.452,2.06,2.06,0,0,1-.789-.706,1.287,1.287,0,0,1-.146-.778,2.315,2.315,0,0,1,.252-.706Z" transform="translate(-2163.215 183.653)" fill="#944f00"/>
            <path id="Trazado_105553" data-name="Trazado 105553" d="M2187.47-177.717a1.8,1.8,0,0,0,.012.621,1.051,1.051,0,0,0,.281.523,1.513,1.513,0,0,0,.578.358,5.44,5.44,0,0,0,.864.229c.65.132,1.389.206,2.171.33.4.062.8.141,1.216.238a8.353,8.353,0,0,1,1.223.412,3.838,3.838,0,0,1,1.023.667,2.348,2.348,0,0,1,.562.8,2.333,2.333,0,0,1,.181.81,2.736,2.736,0,0,1,0,.38,1.417,1.417,0,0,1-.018.19l-.021.17c-.006.09-.014.19-.014.279a2.7,2.7,0,0,0,.014.279,1.529,1.529,0,0,0,.146.5.973.973,0,0,0,.283.35,1.772,1.772,0,0,0,.445.232,5.221,5.221,0,0,0,.7.172c.276.048.6.085.937.11.347.043.717.071,1.108.109s.813.073,1.261.146a7.32,7.32,0,0,1,1.473.341,3.915,3.915,0,0,1,.75.357,2.052,2.052,0,0,1,.545.494,1.37,1.37,0,0,1,.256.518l.08.338a3.417,3.417,0,0,0,.183.592,2.723,2.723,0,0,0,.633,1.015,2.438,2.438,0,0,0,1.116.581,10,10,0,0,0,1.884.23c.384.019.8.031,1.25.085a7.361,7.361,0,0,1,1.447.274,3.2,3.2,0,0,1,1.244.7,2.088,2.088,0,0,1,.53.822l.031.1.028.083.045.148a2.528,2.528,0,0,0,.114.3,3.228,3.228,0,0,0,.288.569,2.694,2.694,0,0,0,.931.93,3.8,3.8,0,0,0,1.532.442c.329.043.69.065,1.1.1a8.5,8.5,0,0,1,1.366.222,3.268,3.268,0,0,1,.714.286,2.16,2.16,0,0,1,.49.393,1.7,1.7,0,0,1,.383.811c.026.128.035.246.046.345s.036.2.058.3a2.069,2.069,0,0,0,.233.561,1.662,1.662,0,0,0,.409.476,2.2,2.2,0,0,0,.635.321,6.112,6.112,0,0,0,.923.2c.352.059.742.105,1.156.2a4.851,4.851,0,0,1,.64.171,2.737,2.737,0,0,1,.593.284,1.709,1.709,0,0,1,.657.75,1.968,1.968,0,0,1,.141.734,1.229,1.229,0,0,1,0,.18v.152a1.374,1.374,0,0,0,.036.287.853.853,0,0,0,.309.464,1.671,1.671,0,0,0,.69.261,9.45,9.45,0,0,0,1.031.143c.374.029.761.059,1.165.1a6.712,6.712,0,0,1,1.219.247,2.649,2.649,0,0,1,.986.551,1.629,1.629,0,0,1,.46.7,2.208,2.208,0,0,1,.119.709,4.731,4.731,0,0,1-.2,1.365l-.7-.064a4.312,4.312,0,0,0,.113-1.291,1.61,1.61,0,0,0-.531-1.145,1.8,1.8,0,0,0-.693-.348,5.215,5.215,0,0,0-.957-.172c-.355-.03-.735-.048-1.122-.073a12.044,12.044,0,0,1-1.232-.128,4.469,4.469,0,0,1-.643-.17,2.226,2.226,0,0,1-.571-.277,1.442,1.442,0,0,1-.59-.754,1.546,1.546,0,0,1-.085-.371l0-.093v-.093c-.009-.051-.009-.1-.014-.154a1.628,1.628,0,0,0-.15-.579,1.021,1.021,0,0,0-.389-.421,2.248,2.248,0,0,0-.724-.234,20.212,20.212,0,0,1-2.311-.4,3.732,3.732,0,0,1-1.127-.509,2.7,2.7,0,0,1-.7-.7,3.167,3.167,0,0,1-.35-.721c-.039-.118-.069-.233-.1-.357s-.04-.225-.063-.322a1.132,1.132,0,0,0-.261-.463.8.8,0,0,0-.436-.223,5.432,5.432,0,0,0-.862-.1c-.363-.026-.761-.037-1.19-.083a8.69,8.69,0,0,1-1.337-.214,5.306,5.306,0,0,1-1.235-.46,4.43,4.43,0,0,1-.907-.63,5.01,5.01,0,0,1-.6-.687,5.5,5.5,0,0,1-.416-.692l-.161-.353-.124-.316a1.274,1.274,0,0,0-.3-.421.969.969,0,0,0-.415-.213,3.452,3.452,0,0,0-.735-.112c-.317-.024-.67-.038-1.059-.045a14.413,14.413,0,0,1-2.627-.265,5.744,5.744,0,0,1-1.345-.454,4.2,4.2,0,0,1-1.016-.647,4.3,4.3,0,0,1-1.1-1.447,4.463,4.463,0,0,1-.281-.721l-.055-.175a.974.974,0,0,0-.037-.135.459.459,0,0,0-.073-.126.279.279,0,0,0-.079-.051.763.763,0,0,0-.147-.062,4,4,0,0,0-.672-.139c-.293-.031-.641-.069-1-.1s-.765-.067-1.177-.113-.849-.1-1.305-.186a7.774,7.774,0,0,1-1.386-.386,3.837,3.837,0,0,1-1.2-.695,2.274,2.274,0,0,1-.613-.866,2.2,2.2,0,0,1-.161-.829,3.793,3.793,0,0,1,.026-.388c.019-.13.044-.247.067-.377l.046-.168c.01-.041.022-.091.035-.141a2.3,2.3,0,0,0,.038-.274,1.671,1.671,0,0,0-.031-.53,1.088,1.088,0,0,0-.223-.439,1.7,1.7,0,0,0-.443-.362,4.235,4.235,0,0,0-.708-.3c-.279-.1-.6-.176-.932-.263-.673-.165-1.412-.307-2.183-.534a6.2,6.2,0,0,1-1.122-.451,1.958,1.958,0,0,1-.781-.7,1.22,1.22,0,0,1-.144-.781,1.925,1.925,0,0,1,.247-.7Z" transform="translate(-2163.302 183.71)" fill="#944f00" opacity="0.53"/>
            <path id="Trazado_105554" data-name="Trazado 105554" d="M2192.4-181.051a1.775,1.775,0,0,0,.014.623,1.024,1.024,0,0,0,.277.521,1.659,1.659,0,0,0,.581.36,5.216,5.216,0,0,0,.866.224c.638.129,1.385.213,2.177.332.389.06.8.137,1.2.241a7.218,7.218,0,0,1,1.222.413,3.8,3.8,0,0,1,1.025.66,2.508,2.508,0,0,1,.571.807,2.191,2.191,0,0,1,.172.8,2.778,2.778,0,0,1,0,.383c0,.068-.009.128-.014.19l-.026.174c0,.087-.01.186-.01.284a1.714,1.714,0,0,0,.01.277,1.348,1.348,0,0,0,.148.485.978.978,0,0,0,.291.356,1.556,1.556,0,0,0,.44.23,4.971,4.971,0,0,0,.691.167c.292.055.6.085.942.125s.717.067,1.111.106.81.066,1.263.133a7.637,7.637,0,0,1,1.467.348,4.015,4.015,0,0,1,.752.359,2.086,2.086,0,0,1,.553.5,1.563,1.563,0,0,1,.254.515l.071.335a5.535,5.535,0,0,0,.177.592,2.776,2.776,0,0,0,.649,1.007,2.339,2.339,0,0,0,1.114.59,10,10,0,0,0,1.885.22c.38.025.789.044,1.24.094a7.062,7.062,0,0,1,1.453.276,3.077,3.077,0,0,1,1.232.694,2.174,2.174,0,0,1,.539.818l.031.1.02.078.051.156c.034.1.076.2.113.3a3.273,3.273,0,0,0,.294.574,2.7,2.7,0,0,0,.92.927,3.868,3.868,0,0,0,1.539.433c.337.043.694.071,1.1.107a7.634,7.634,0,0,1,1.366.222,3.173,3.173,0,0,1,.708.282,1.892,1.892,0,0,1,.5.4,1.637,1.637,0,0,1,.381.8c.023.127.023.247.043.339a2.5,2.5,0,0,0,.065.307,2.176,2.176,0,0,0,.225.563,1.481,1.481,0,0,0,.407.471,2.037,2.037,0,0,0,.634.317,5.546,5.546,0,0,0,.925.211c.355.053.743.1,1.165.185a6.127,6.127,0,0,1,.638.188,2.375,2.375,0,0,1,.593.277,1.663,1.663,0,0,1,.654.747,2.189,2.189,0,0,1,.149.745c0,.059,0,.118-.005.173l0,.082v.075a2.027,2.027,0,0,0,.041.281.809.809,0,0,0,.3.463,1.809,1.809,0,0,0,.693.267,9.855,9.855,0,0,0,1.028.135c.367.034.761.057,1.168.106a6.186,6.186,0,0,1,1.216.253,2.757,2.757,0,0,1,.989.543,1.627,1.627,0,0,1,.46.708,2.085,2.085,0,0,1,.126.7,4.838,4.838,0,0,1-.2,1.36l-.7-.055a4.247,4.247,0,0,0,.115-1.29,1.651,1.651,0,0,0-.529-1.148,1.943,1.943,0,0,0-.687-.348,5.831,5.831,0,0,0-.961-.17c-.359-.036-.731-.046-1.125-.074a9.509,9.509,0,0,1-1.226-.136,4.678,4.678,0,0,1-.65-.157,2.624,2.624,0,0,1-.571-.283,1.438,1.438,0,0,1-.588-.749,1.666,1.666,0,0,1-.08-.383l-.011-.092v-.087a1.058,1.058,0,0,0-.018-.149,1.652,1.652,0,0,0-.144-.58,1.019,1.019,0,0,0-.392-.428,2.217,2.217,0,0,0-.724-.229c-.606-.125-1.453-.16-2.31-.4a3.781,3.781,0,0,1-1.134-.521,2.827,2.827,0,0,1-.687-.692,2.917,2.917,0,0,1-.347-.726,3.466,3.466,0,0,1-.1-.35c-.032-.132-.043-.234-.074-.322a1.015,1.015,0,0,0-.253-.476.837.837,0,0,0-.437-.214,6.346,6.346,0,0,0-.863-.1c-.354-.018-.762-.035-1.193-.073a9.474,9.474,0,0,1-1.335-.216,5.267,5.267,0,0,1-1.23-.463,4.632,4.632,0,0,1-.907-.63,4.052,4.052,0,0,1-.606-.691,4.445,4.445,0,0,1-.413-.695,3.376,3.376,0,0,1-.158-.34l-.132-.323a1.189,1.189,0,0,0-.294-.418.944.944,0,0,0-.418-.213,3.723,3.723,0,0,0-.734-.12c-.312-.024-.676-.027-1.054-.047a13.876,13.876,0,0,1-2.641-.26,6.273,6.273,0,0,1-1.337-.45,4.4,4.4,0,0,1-1.024-.65,4.3,4.3,0,0,1-1.092-1.447,4.207,4.207,0,0,1-.284-.714l-.046-.175c-.019-.061-.041-.127-.045-.148a.307.307,0,0,0-.074-.113.425.425,0,0,0-.082-.064.893.893,0,0,0-.137-.057,4.35,4.35,0,0,0-.677-.131c-.3-.044-.642-.073-1.017-.1-.352-.033-.75-.068-1.166-.113s-.852-.093-1.3-.18a7.89,7.89,0,0,1-1.388-.389,3.93,3.93,0,0,1-1.2-.7,2.291,2.291,0,0,1-.617-.866,2.107,2.107,0,0,1-.156-.823,3.71,3.71,0,0,1,.025-.392c.013-.123.042-.247.068-.378l.045-.165a1.161,1.161,0,0,1,.036-.142,2.484,2.484,0,0,0,.037-.279,1.626,1.626,0,0,0-.034-.518,1.031,1.031,0,0,0-.22-.444,1.453,1.453,0,0,0-.445-.358,4.363,4.363,0,0,0-.708-.313c-.274-.091-.6-.176-.927-.258-.666-.161-1.42-.311-2.19-.531a6.3,6.3,0,0,1-1.117-.449,1.939,1.939,0,0,1-.783-.707,1.175,1.175,0,0,1-.145-.777,2.034,2.034,0,0,1,.248-.7Z" transform="translate(-2163.433 183.799)" fill="#944f00" opacity="0.53"/>
            <path id="Trazado_105555" data-name="Trazado 105555" d="M2197.618-183.138a1.793,1.793,0,0,0,.018.624,1.006,1.006,0,0,0,.271.522,1.578,1.578,0,0,0,.58.351,4.761,4.761,0,0,0,.86.236c.649.125,1.4.211,2.175.329a12.1,12.1,0,0,1,1.216.243,6.7,6.7,0,0,1,1.222.411,3.607,3.607,0,0,1,1.013.664,2.275,2.275,0,0,1,.577.807,2.242,2.242,0,0,1,.184.8,2.911,2.911,0,0,1-.006.382c0,.067-.01.129-.015.195l-.021.169a2.513,2.513,0,0,0-.02.281,2.7,2.7,0,0,0,.02.275,1.63,1.63,0,0,0,.141.492,1.142,1.142,0,0,0,.29.356,1.576,1.576,0,0,0,.442.223,4.26,4.26,0,0,0,.7.172c.276.048.6.087.943.126s.707.068,1.1.094.809.078,1.264.145a7.5,7.5,0,0,1,1.468.343,3.86,3.86,0,0,1,.75.362,2.048,2.048,0,0,1,.543.49,1.4,1.4,0,0,1,.26.524l.079.337a3.563,3.563,0,0,0,.178.593,2.719,2.719,0,0,0,.64,1.008,2.431,2.431,0,0,0,1.114.593,11.29,11.29,0,0,0,1.89.218c.373.022.791.044,1.238.088a7.413,7.413,0,0,1,1.456.281,3.108,3.108,0,0,1,1.231.693,2.1,2.1,0,0,1,.536.819l.034.1.023.076.048.158c.03.1.076.2.112.3a4.735,4.735,0,0,0,.288.573,2.668,2.668,0,0,0,.934.924,3.637,3.637,0,0,0,1.531.44c.331.043.689.067,1.1.1a8.606,8.606,0,0,1,1.37.215,3.387,3.387,0,0,1,.7.289,1.651,1.651,0,0,1,.5.4,1.591,1.591,0,0,1,.38.8,2.455,2.455,0,0,1,.044.347c.021.1.042.2.064.3a2.034,2.034,0,0,0,.23.569,1.462,1.462,0,0,0,.4.469,2.009,2.009,0,0,0,.641.322,5.534,5.534,0,0,0,.919.2c.353.06.744.111,1.171.195a4.366,4.366,0,0,1,.634.186,2.7,2.7,0,0,1,.591.272,1.7,1.7,0,0,1,.65.753,2.069,2.069,0,0,1,.148.743v.175l0,.075,0,.074a1.076,1.076,0,0,0,.033.288.864.864,0,0,0,.311.464,1.774,1.774,0,0,0,.686.271,9.036,9.036,0,0,0,1.026.128c.378.036.776.06,1.174.109a6.176,6.176,0,0,1,1.224.255,2.6,2.6,0,0,1,.978.544,1.591,1.591,0,0,1,.461.7,2.187,2.187,0,0,1,.126.7,4.557,4.557,0,0,1-.206,1.363l-.688-.055a4.449,4.449,0,0,0,.107-1.292,1.623,1.623,0,0,0-.535-1.148,1.855,1.855,0,0,0-.688-.349,4.88,4.88,0,0,0-.959-.169c-.354-.036-.725-.046-1.123-.08a9.622,9.622,0,0,1-1.233-.128,4.391,4.391,0,0,1-.642-.16,2.858,2.858,0,0,1-.579-.28,1.529,1.529,0,0,1-.58-.758,1.8,1.8,0,0,1-.087-.377l0-.09-.01-.09v-.156a1.459,1.459,0,0,0-.161-.58.989.989,0,0,0-.386-.424,2.363,2.363,0,0,0-.714-.223,23.275,23.275,0,0,1-2.311-.4,3.747,3.747,0,0,1-1.131-.522,2.622,2.622,0,0,1-.7-.691,3.208,3.208,0,0,1-.352-.726,3.178,3.178,0,0,1-.094-.35c-.031-.128-.042-.237-.067-.322a1.115,1.115,0,0,0-.265-.475.819.819,0,0,0-.432-.216,6.555,6.555,0,0,0-.863-.1c-.355-.018-.761-.038-1.187-.071a9.267,9.267,0,0,1-1.337-.216,5.468,5.468,0,0,1-1.236-.469,4.468,4.468,0,0,1-.906-.626,4.871,4.871,0,0,1-.605-.691,4.194,4.194,0,0,1-.415-.693c-.057-.112-.113-.234-.157-.342l-.13-.329a1.12,1.12,0,0,0-.293-.411,1,1,0,0,0-.419-.214,3.746,3.746,0,0,0-.738-.119c-.308-.025-.669-.032-1.056-.046a13.846,13.846,0,0,1-2.632-.262,6.613,6.613,0,0,1-1.347-.447,4.448,4.448,0,0,1-1.016-.653,4.27,4.27,0,0,1-1.1-1.445,6.757,6.757,0,0,1-.281-.716l-.044-.175c-.02-.058-.039-.129-.048-.145a.337.337,0,0,0-.073-.116.25.25,0,0,0-.081-.06.568.568,0,0,0-.145-.056,3.447,3.447,0,0,0-.671-.137c-.294-.042-.638-.071-1-.108s-.761-.064-1.174-.1-.852-.1-1.31-.184A7.87,7.87,0,0,1,2205-174.4a4.115,4.115,0,0,1-1.2-.7,2.379,2.379,0,0,1-.615-.865,2.132,2.132,0,0,1-.155-.824,2.788,2.788,0,0,1,.027-.392c.014-.128.037-.245.063-.38l.045-.164a.567.567,0,0,0,.028-.14,1.186,1.186,0,0,0,.045-.277,1.44,1.44,0,0,0-.034-.523,1.047,1.047,0,0,0-.22-.443,1.5,1.5,0,0,0-.438-.357,4.145,4.145,0,0,0-.71-.311c-.281-.092-.6-.179-.929-.261-.667-.161-1.416-.31-2.189-.53a5.907,5.907,0,0,1-1.113-.449,1.9,1.9,0,0,1-.789-.709,1.214,1.214,0,0,1-.145-.776,2.144,2.144,0,0,1,.249-.708Z" transform="translate(-2163.572 183.855)" fill="#944f00" opacity="0.53"/>
            <path id="Trazado_105556" data-name="Trazado 105556" d="M2181.242-173.893a1.875,1.875,0,0,0,.013.619,1.048,1.048,0,0,0,.275.522,1.59,1.59,0,0,0,.584.358,5.062,5.062,0,0,0,.857.226c.648.132,1.39.218,2.179.343a11.278,11.278,0,0,1,1.205.237,6.7,6.7,0,0,1,1.228.414,4.016,4.016,0,0,1,1.024.654,2.466,2.466,0,0,1,.565.814,2.421,2.421,0,0,1,.182.8,2.644,2.644,0,0,1,0,.388c-.008.06-.014.129-.025.19l-.022.164c0,.1-.012.19-.012.292a2.182,2.182,0,0,0,.012.281,1.541,1.541,0,0,0,.147.485,1.053,1.053,0,0,0,.29.354,1.563,1.563,0,0,0,.439.225,4.251,4.251,0,0,0,.7.172c.282.048.6.087.938.122s.717.068,1.11.1.812.078,1.26.144a7.559,7.559,0,0,1,1.467.344,3.478,3.478,0,0,1,.753.365,2.1,2.1,0,0,1,.55.488,1.425,1.425,0,0,1,.254.518l.079.344a5.884,5.884,0,0,0,.176.586,2.78,2.78,0,0,0,.646,1.013,2.372,2.372,0,0,0,1.114.583,10.019,10.019,0,0,0,1.885.228c.379.018.8.043,1.239.087a6.891,6.891,0,0,1,1.46.283,3.09,3.09,0,0,1,1.233.689,2.117,2.117,0,0,1,.533.823l.033.1.023.081.052.155c.028.1.068.2.11.3a4.108,4.108,0,0,0,.29.571,2.691,2.691,0,0,0,.923.923,3.837,3.837,0,0,0,1.542.438c.33.044.7.068,1.1.106a8.49,8.49,0,0,1,1.367.216,3.163,3.163,0,0,1,.706.281,1.987,1.987,0,0,1,.5.4,1.691,1.691,0,0,1,.382.8c.018.13.033.254.055.345a1.579,1.579,0,0,0,.052.3,1.972,1.972,0,0,0,.229.564,1.627,1.627,0,0,0,.406.473,2.173,2.173,0,0,0,.636.321,5.314,5.314,0,0,0,.918.2c.352.059.743.11,1.167.2a4.865,4.865,0,0,1,.64.174,3.2,3.2,0,0,1,.586.283,1.725,1.725,0,0,1,.66.748,2.024,2.024,0,0,1,.141.748c0,.053,0,.113,0,.177v.147a1,1,0,0,0,.04.289.883.883,0,0,0,.3.464,1.972,1.972,0,0,0,.7.266,8.793,8.793,0,0,0,1.028.131c.369.032.761.061,1.164.112a6.782,6.782,0,0,1,1.224.25,2.723,2.723,0,0,1,.985.539,1.878,1.878,0,0,1,.461.7,2.291,2.291,0,0,1,.119.71,4.727,4.727,0,0,1-.2,1.361l-.7-.053a4.464,4.464,0,0,0,.115-1.3,1.658,1.658,0,0,0-.528-1.143,1.858,1.858,0,0,0-.7-.35,4.855,4.855,0,0,0-.961-.167c-.348-.038-.729-.056-1.115-.081a10.009,10.009,0,0,1-1.232-.131,4.117,4.117,0,0,1-.647-.162,2.434,2.434,0,0,1-.577-.284,1.555,1.555,0,0,1-.588-.75,2.218,2.218,0,0,1-.081-.375l-.009-.1-.009-.088v-.154a1.593,1.593,0,0,0-.155-.578,1.012,1.012,0,0,0-.394-.427,2.243,2.243,0,0,0-.709-.235,21.457,21.457,0,0,1-2.316-.391,3.836,3.836,0,0,1-1.129-.521,2.689,2.689,0,0,1-.693-.691,2.956,2.956,0,0,1-.348-.724c-.043-.123-.074-.24-.105-.356s-.047-.233-.072-.318a.976.976,0,0,0-.249-.474.9.9,0,0,0-.43-.22,6.094,6.094,0,0,0-.87-.1c-.357-.022-.76-.032-1.2-.074a8.514,8.514,0,0,1-1.333-.215,5.512,5.512,0,0,1-1.236-.465,4.342,4.342,0,0,1-.9-.63,3.876,3.876,0,0,1-.606-.683,5.191,5.191,0,0,1-.415-.7c-.054-.114-.11-.234-.156-.347l-.135-.322a1.155,1.155,0,0,0-.291-.417,1.032,1.032,0,0,0-.42-.215,3.559,3.559,0,0,0-.74-.11c-.307-.028-.671-.038-1.051-.052a13.737,13.737,0,0,1-2.635-.26,6.61,6.61,0,0,1-1.343-.447,4.621,4.621,0,0,1-1.018-.653,4.232,4.232,0,0,1-1.091-1.445,4.415,4.415,0,0,1-.283-.719l-.055-.185c-.015-.048-.035-.12-.04-.136a.317.317,0,0,0-.07-.113.225.225,0,0,0-.082-.06.812.812,0,0,0-.15-.062,4.862,4.862,0,0,0-.671-.135c-.289-.036-.635-.074-1.005-.105s-.761-.062-1.168-.113a12.834,12.834,0,0,1-1.311-.183,7.788,7.788,0,0,1-1.388-.38,3.863,3.863,0,0,1-1.188-.7,2.283,2.283,0,0,1-.624-.867,2.35,2.35,0,0,1-.157-.826,3.817,3.817,0,0,1,.027-.384c.02-.129.037-.254.065-.384l.045-.16c.01-.05.028-.1.035-.147a1.961,1.961,0,0,0,.041-.277,1.659,1.659,0,0,0-.035-.522,1.12,1.12,0,0,0-.219-.437,1.391,1.391,0,0,0-.441-.361,3.953,3.953,0,0,0-.709-.309c-.284-.1-.594-.18-.927-.267-.671-.166-1.419-.3-2.192-.531a5.564,5.564,0,0,1-1.115-.444,2.018,2.018,0,0,1-.788-.708,1.233,1.233,0,0,1-.145-.78,2.016,2.016,0,0,1,.254-.7Z" transform="translate(-2163.135 183.608)" fill="#944f00" opacity="0.53"/>
            <path id="Trazado_105557" data-name="Trazado 105557" d="M2176.026-170.275a1.672,1.672,0,0,0,.017.62,1.021,1.021,0,0,0,.276.524,1.563,1.563,0,0,0,.579.347,4.4,4.4,0,0,0,.865.237c.644.124,1.385.21,2.172.332.393.061.794.137,1.207.242a6.141,6.141,0,0,1,1.222.409,3.772,3.772,0,0,1,1.026.662,2.391,2.391,0,0,1,.568.807,2.281,2.281,0,0,1,.183.807,2.607,2.607,0,0,1-.006.382c0,.068,0,.13-.01.19l-.02.173a1.614,1.614,0,0,0-.028.283,1.788,1.788,0,0,0,.023.275,1.554,1.554,0,0,0,.14.488,1.093,1.093,0,0,0,.289.355,1.527,1.527,0,0,0,.443.222,3.639,3.639,0,0,0,.7.174c.283.049.6.087.943.125s.711.066,1.1.1.813.078,1.264.142a7.852,7.852,0,0,1,1.472.348,3.447,3.447,0,0,1,.747.364,2.044,2.044,0,0,1,.552.49,1.663,1.663,0,0,1,.255.526l.078.333a3.893,3.893,0,0,0,.176.593,2.7,2.7,0,0,0,.64,1,2.354,2.354,0,0,0,1.116.593,10.207,10.207,0,0,0,1.884.223c.384.022.788.043,1.242.084a7.427,7.427,0,0,1,1.458.283,3.132,3.132,0,0,1,1.232.692,2.2,2.2,0,0,1,.535.821l.032.1.02.075.053.16c.034.1.067.2.111.3a4.248,4.248,0,0,0,.29.571,2.669,2.669,0,0,0,.925.925,3.709,3.709,0,0,0,1.541.439c.326.043.691.067,1.1.1a8.021,8.021,0,0,1,1.361.217,3.321,3.321,0,0,1,.708.285,1.669,1.669,0,0,1,.493.4,1.591,1.591,0,0,1,.385.8c.027.132.032.254.045.346a2.551,2.551,0,0,0,.067.3,1.839,1.839,0,0,0,.225.573,1.505,1.505,0,0,0,.409.466,1.965,1.965,0,0,0,.633.319,6.634,6.634,0,0,0,.925.209c.349.056.743.1,1.157.19a4.229,4.229,0,0,1,.645.181,2.259,2.259,0,0,1,.587.283,1.587,1.587,0,0,1,.652.741,2.178,2.178,0,0,1,.147.745v.333a.981.981,0,0,0,.036.28.825.825,0,0,0,.313.462,1.65,1.65,0,0,0,.683.273,8.417,8.417,0,0,0,1.029.125c.37.041.77.062,1.168.111a6.411,6.411,0,0,1,1.223.254,2.541,2.541,0,0,1,.98.545,1.663,1.663,0,0,1,.463.706,2.035,2.035,0,0,1,.119.7,4.419,4.419,0,0,1-.2,1.366l-.689-.055a4.459,4.459,0,0,0,.111-1.292,1.646,1.646,0,0,0-.529-1.147,1.892,1.892,0,0,0-.693-.348,5.053,5.053,0,0,0-.962-.17c-.353-.037-.725-.055-1.115-.08a9.823,9.823,0,0,1-1.232-.128,3.45,3.45,0,0,1-.648-.167,2.318,2.318,0,0,1-.581-.274,1.572,1.572,0,0,1-.587-.75,2.588,2.588,0,0,1-.083-.385v-.088l-.008-.086a1,1,0,0,0-.009-.162,1.441,1.441,0,0,0-.155-.576,1.01,1.01,0,0,0-.381-.424,2.344,2.344,0,0,0-.725-.227c-.612-.124-1.449-.156-2.31-.4a3.885,3.885,0,0,1-1.134-.522,2.632,2.632,0,0,1-.688-.694,2.909,2.909,0,0,1-.351-.722c-.041-.118-.073-.238-.1-.352a2.3,2.3,0,0,0-.073-.32.992.992,0,0,0-.251-.474.809.809,0,0,0-.439-.218,6.063,6.063,0,0,0-.864-.1c-.357-.018-.753-.037-1.185-.072a9.4,9.4,0,0,1-1.337-.215,5.4,5.4,0,0,1-1.236-.467,4.448,4.448,0,0,1-.907-.632,4.286,4.286,0,0,1-.6-.685,4.71,4.71,0,0,1-.418-.694c-.058-.116-.109-.229-.158-.347l-.127-.323a1.2,1.2,0,0,0-.3-.418,1.057,1.057,0,0,0-.416-.21,3.376,3.376,0,0,0-.744-.113c-.308-.03-.666-.042-1.05-.055a13.729,13.729,0,0,1-2.637-.258,6.532,6.532,0,0,1-1.34-.446,4.488,4.488,0,0,1-1.024-.652,4.318,4.318,0,0,1-1.091-1.446,4.664,4.664,0,0,1-.276-.714l-.054-.181c-.019-.057-.032-.129-.041-.143a.4.4,0,0,0-.074-.114.389.389,0,0,0-.087-.062.867.867,0,0,0-.139-.057,3.994,3.994,0,0,0-.674-.135c-.294-.042-.638-.069-1-.107s-.767-.065-1.173-.106c-.423-.043-.851-.1-1.3-.181a8.725,8.725,0,0,1-1.4-.386,3.954,3.954,0,0,1-1.186-.7,2.3,2.3,0,0,1-.628-.867,2.359,2.359,0,0,1-.149-.825,2.621,2.621,0,0,1,.024-.392c.018-.129.036-.248.067-.383l.041-.162a.9.9,0,0,0,.03-.139,1.272,1.272,0,0,0,.042-.283,1.681,1.681,0,0,0-.025-.518,1.129,1.129,0,0,0-.229-.442,1.537,1.537,0,0,0-.434-.361,4.187,4.187,0,0,0-.717-.31c-.276-.089-.592-.174-.925-.259-.671-.162-1.422-.309-2.192-.529a6.287,6.287,0,0,1-1.115-.449,1.948,1.948,0,0,1-.789-.711,1.246,1.246,0,0,1-.144-.776,2.06,2.06,0,0,1,.254-.707Z" transform="translate(-2162.997 183.512)" fill="#944f00" opacity="0.53"/>
            <path id="Trazado_105558" data-name="Trazado 105558" d="M2169.892-167.22a1.8,1.8,0,0,0,.012.623,1.04,1.04,0,0,0,.282.521,1.5,1.5,0,0,0,.578.353,4.655,4.655,0,0,0,.86.229c.647.131,1.392.213,2.178.333.389.06.792.142,1.207.242a6.616,6.616,0,0,1,1.22.413,3.69,3.69,0,0,1,1.024.658,2.389,2.389,0,0,1,.567.812,2.564,2.564,0,0,1,.184.8c0,.131,0,.26,0,.388-.009.062-.014.123-.025.189l-.019.165c-.009.086-.018.19-.018.285a1.922,1.922,0,0,0,.018.274,1.375,1.375,0,0,0,.146.494.971.971,0,0,0,.288.355,1.5,1.5,0,0,0,.436.227,4.955,4.955,0,0,0,.7.172c.275.052.6.086.938.12l1.109.1c.394.032.812.069,1.266.142a7.106,7.106,0,0,1,1.467.347,3.538,3.538,0,0,1,.749.356,2.126,2.126,0,0,1,.558.5,1.525,1.525,0,0,1,.253.516l.072.336c.053.2.109.4.18.594a2.766,2.766,0,0,0,.644,1,2.323,2.323,0,0,0,1.112.594,9.94,9.94,0,0,0,1.884.219c.384.024.792.043,1.246.091a7.317,7.317,0,0,1,1.453.278,3.182,3.182,0,0,1,1.235.694,2.145,2.145,0,0,1,.531.821l.036.1.023.088.05.141c.031.105.071.207.11.3a3.748,3.748,0,0,0,.29.572,2.685,2.685,0,0,0,.927.93,4.075,4.075,0,0,0,1.534.441c.333.037.7.062,1.1.1a7.538,7.538,0,0,1,1.367.221,3.364,3.364,0,0,1,.708.282,2.03,2.03,0,0,1,.5.4,1.735,1.735,0,0,1,.383.8c.021.129.025.253.043.342a2.9,2.9,0,0,0,.065.306,2.146,2.146,0,0,0,.22.566,1.591,1.591,0,0,0,.415.467,2.053,2.053,0,0,0,.633.324,5.761,5.761,0,0,0,.919.2c.349.058.75.107,1.164.2a4.939,4.939,0,0,1,.64.173,2.973,2.973,0,0,1,.593.281,1.655,1.655,0,0,1,.651.749,1.954,1.954,0,0,1,.145.741v.332a1,1,0,0,0,.036.278.806.806,0,0,0,.31.462,1.684,1.684,0,0,0,.689.272,8.836,8.836,0,0,0,1.027.133c.37.034.764.059,1.174.1a6.517,6.517,0,0,1,1.215.252,2.659,2.659,0,0,1,.987.548,1.734,1.734,0,0,1,.46.7,2.245,2.245,0,0,1,.124.7,5.072,5.072,0,0,1-.2,1.368l-.7-.063a4.462,4.462,0,0,0,.11-1.291,1.653,1.653,0,0,0-.525-1.147,2.06,2.06,0,0,0-.7-.357,6.164,6.164,0,0,0-.959-.162c-.349-.031-.727-.05-1.116-.075a10.075,10.075,0,0,1-1.23-.133,4.919,4.919,0,0,1-.646-.159,2.726,2.726,0,0,1-.578-.28,1.55,1.55,0,0,1-.59-.754,1.989,1.989,0,0,1-.077-.38l-.008-.093v-.088c-.006-.055-.006-.1-.014-.151a1.664,1.664,0,0,0-.147-.577,1.02,1.02,0,0,0-.4-.428,2.174,2.174,0,0,0-.716-.233,21.919,21.919,0,0,1-2.313-.4,3.752,3.752,0,0,1-1.132-.52,2.7,2.7,0,0,1-.688-.7,2.9,2.9,0,0,1-.354-.725,2.809,2.809,0,0,1-.1-.351c-.031-.13-.045-.231-.071-.32a.973.973,0,0,0-.254-.468.847.847,0,0,0-.434-.221,5.878,5.878,0,0,0-.865-.1c-.359-.018-.762-.039-1.191-.076a9.165,9.165,0,0,1-1.338-.212,5.347,5.347,0,0,1-1.23-.464,4.192,4.192,0,0,1-.9-.631,4.7,4.7,0,0,1-.609-.683,5.335,5.335,0,0,1-.415-.695c-.055-.117-.108-.234-.162-.348l-.124-.324a1.161,1.161,0,0,0-.3-.415.975.975,0,0,0-.422-.215,4.581,4.581,0,0,0-.733-.117c-.307-.025-.668-.03-1.055-.044a14.419,14.419,0,0,1-2.632-.266,6.21,6.21,0,0,1-1.342-.447,4.469,4.469,0,0,1-1.021-.653,4.206,4.206,0,0,1-1.093-1.444,4.213,4.213,0,0,1-.28-.716l-.058-.178a1.418,1.418,0,0,0-.039-.141.267.267,0,0,0-.074-.118.246.246,0,0,0-.076-.057.88.88,0,0,0-.144-.062,4.333,4.333,0,0,0-.675-.134c-.295-.042-.64-.07-1.008-.1s-.758-.067-1.178-.111-.849-.1-1.3-.189a7.714,7.714,0,0,1-1.387-.381,4.045,4.045,0,0,1-1.2-.7,2.337,2.337,0,0,1-.615-.868,2.531,2.531,0,0,1-.154-.822,3.978,3.978,0,0,1,.028-.4c.017-.12.035-.243.066-.374l.04-.167c.011-.047.029-.09.04-.137a2.042,2.042,0,0,0,.036-.283,1.649,1.649,0,0,0-.028-.515,1.239,1.239,0,0,0-.226-.445,1.623,1.623,0,0,0-.443-.365,5.3,5.3,0,0,0-.7-.309c-.281-.089-.6-.169-.93-.255-.674-.164-1.422-.313-2.189-.538a5.7,5.7,0,0,1-1.115-.443,2.019,2.019,0,0,1-.79-.706,1.246,1.246,0,0,1-.149-.781,2.222,2.222,0,0,1,.248-.7Z" transform="translate(-2162.834 183.431)" fill="#944f00" opacity="0.53"/>
            <path id="Trazado_105559" data-name="Trazado 105559" d="M2178.257-172.321a1.842,1.842,0,0,0,.016.623,1.062,1.062,0,0,0,.277.526,1.557,1.557,0,0,0,.582.35,4.27,4.27,0,0,0,.863.229c.647.128,1.385.216,2.173.334.4.063.793.14,1.21.245a6.162,6.162,0,0,1,1.223.41,3.594,3.594,0,0,1,1.014.661,2.162,2.162,0,0,1,.575.81,2.375,2.375,0,0,1,.187.8c0,.133,0,.265,0,.387-.007.068-.014.128-.02.194l-.023.17c-.006.085-.013.182-.013.282a1.452,1.452,0,0,0,.013.278,1.63,1.63,0,0,0,.141.488,1.127,1.127,0,0,0,.29.352,1.576,1.576,0,0,0,.44.224,3.847,3.847,0,0,0,.706.171c.271.051.592.087.936.126s.711.065,1.107.1.811.076,1.263.141a7.855,7.855,0,0,1,1.467.345,3.923,3.923,0,0,1,.752.365,2.251,2.251,0,0,1,.548.488,1.522,1.522,0,0,1,.254.528l.082.332a4.657,4.657,0,0,0,.175.595,2.677,2.677,0,0,0,.642,1,2.4,2.4,0,0,0,1.109.6,11.305,11.305,0,0,0,1.891.222c.378.02.79.041,1.24.084a7.53,7.53,0,0,1,1.456.282,3.143,3.143,0,0,1,1.237.694,2.147,2.147,0,0,1,.534.817l.028.1.025.074.053.158c.029.1.065.2.107.3a4.722,4.722,0,0,0,.294.574,2.614,2.614,0,0,0,.926.921,3.672,3.672,0,0,0,1.534.439c.332.043.7.068,1.1.105a8.221,8.221,0,0,1,1.363.217,3.232,3.232,0,0,1,.71.285,2.149,2.149,0,0,1,.5.4,1.765,1.765,0,0,1,.38.806c.024.13.028.252.046.345a1.844,1.844,0,0,0,.055.3,2.229,2.229,0,0,0,.23.57,1.58,1.58,0,0,0,.412.469,2.038,2.038,0,0,0,.635.317,5.594,5.594,0,0,0,.914.2c.361.06.753.108,1.165.195a4.14,4.14,0,0,1,.643.181,2.79,2.79,0,0,1,.589.274,1.653,1.653,0,0,1,.652.751,2.126,2.126,0,0,1,.156.745.911.911,0,0,1-.012.178v.148a1.715,1.715,0,0,0,.046.286.8.8,0,0,0,.3.464,1.835,1.835,0,0,0,.7.27,8.029,8.029,0,0,0,1.027.126c.369.042.759.064,1.168.112a6.194,6.194,0,0,1,1.213.254,2.6,2.6,0,0,1,.99.54,1.756,1.756,0,0,1,.464.7,2.664,2.664,0,0,1,.125.709,4.8,4.8,0,0,1-.208,1.364l-.7-.055a4.528,4.528,0,0,0,.119-1.291,1.635,1.635,0,0,0-.533-1.147,1.8,1.8,0,0,0-.69-.349,4.757,4.757,0,0,0-.969-.169c-.344-.036-.717-.056-1.115-.079a10.934,10.934,0,0,1-1.226-.131,3.733,3.733,0,0,1-.65-.168,2.263,2.263,0,0,1-.581-.272,1.485,1.485,0,0,1-.578-.756,1.335,1.335,0,0,1-.082-.381l-.009-.089-.007-.085c0-.056,0-.1-.007-.16a1.81,1.81,0,0,0-.15-.577.985.985,0,0,0-.391-.425,2.545,2.545,0,0,0-.721-.236,21.148,21.148,0,0,1-2.309-.39,3.978,3.978,0,0,1-1.133-.524,2.6,2.6,0,0,1-.688-.694,2.879,2.879,0,0,1-.352-.722,2.32,2.32,0,0,1-.1-.354c-.026-.128-.046-.233-.073-.318a.965.965,0,0,0-.258-.475.818.818,0,0,0-.427-.214,6,6,0,0,0-.867-.107c-.36-.018-.761-.033-1.194-.071a9.492,9.492,0,0,1-1.332-.217,5.271,5.271,0,0,1-1.239-.464,4.382,4.382,0,0,1-.9-.629,4.692,4.692,0,0,1-.613-.69,4.977,4.977,0,0,1-.409-.694c-.058-.114-.109-.234-.164-.342l-.127-.328a1.121,1.121,0,0,0-.294-.418.988.988,0,0,0-.417-.208,3.666,3.666,0,0,0-.739-.117c-.311-.026-.67-.037-1.053-.051a14.241,14.241,0,0,1-2.635-.257,6.619,6.619,0,0,1-1.348-.449,4.592,4.592,0,0,1-1.015-.653,4.278,4.278,0,0,1-1.094-1.445,5.137,5.137,0,0,1-.284-.715l-.054-.186a.68.68,0,0,0-.035-.135.26.26,0,0,0-.073-.116.572.572,0,0,0-.082-.063.969.969,0,0,0-.14-.056,4.569,4.569,0,0,0-.676-.135c-.3-.041-.638-.069-1-.108s-.767-.065-1.18-.105-.846-.1-1.3-.182a7.745,7.745,0,0,1-1.391-.387,3.907,3.907,0,0,1-1.19-.7,2.369,2.369,0,0,1-.623-.867,2.5,2.5,0,0,1-.152-.829c0-.128.01-.257.022-.386s.04-.246.065-.383l.047-.161c.014-.051.023-.1.035-.138a2.508,2.508,0,0,0,.037-.283,1.691,1.691,0,0,0-.027-.522,1.129,1.129,0,0,0-.226-.441,1.5,1.5,0,0,0-.439-.355,3.749,3.749,0,0,0-.711-.315c-.281-.089-.6-.173-.928-.256-.666-.171-1.419-.311-2.189-.53a6.507,6.507,0,0,1-1.115-.451,2.021,2.021,0,0,1-.788-.709,1.14,1.14,0,0,1-.142-.777,2.01,2.01,0,0,1,.248-.706Z" transform="translate(-2163.056 183.566)" fill="#944f00"/>
            <path id="Trazado_105560" data-name="Trazado 105560" d="M2172.476-169.1a1.884,1.884,0,0,0,.02.62,1.025,1.025,0,0,0,.282.524,1.625,1.625,0,0,0,.578.361,5.827,5.827,0,0,0,.864.222c.642.129,1.393.209,2.171.334.4.057.8.141,1.21.239a6.481,6.481,0,0,1,1.228.417,3.8,3.8,0,0,1,1.014.654,2.37,2.37,0,0,1,.57.811,2.211,2.211,0,0,1,.183.8,3.625,3.625,0,0,1,0,.385c-.009.061-.009.129-.02.19l-.019.168a2.294,2.294,0,0,0-.017.285,1.939,1.939,0,0,0,.013.275,1.541,1.541,0,0,0,.142.488,1.06,1.06,0,0,0,.29.36,1.656,1.656,0,0,0,.443.222,3.819,3.819,0,0,0,.7.174c.28.055.6.087.942.125s.712.061,1.1.1.807.072,1.27.137a8.645,8.645,0,0,1,1.467.345,3.4,3.4,0,0,1,.742.362,2,2,0,0,1,.555.5,1.4,1.4,0,0,1,.258.517l.071.344c.056.2.1.394.177.584a2.8,2.8,0,0,0,.649,1.015,2.4,2.4,0,0,0,1.11.581,9.886,9.886,0,0,0,1.883.226c.392.02.8.043,1.243.085a7.829,7.829,0,0,1,1.459.283,3.052,3.052,0,0,1,1.233.689,2.1,2.1,0,0,1,.532.822l.037.1.025.087.047.15c.035.1.066.2.106.292a3.624,3.624,0,0,0,.292.58,2.794,2.794,0,0,0,.924.921,3.84,3.84,0,0,0,1.545.444c.324.037.692.068,1.1.1a8.817,8.817,0,0,1,1.364.221,3.175,3.175,0,0,1,.7.284,1.966,1.966,0,0,1,.5.4,1.653,1.653,0,0,1,.38.8,1.969,1.969,0,0,1,.046.346c.022.1.042.2.064.3a2.216,2.216,0,0,0,.227.567,1.645,1.645,0,0,0,.412.474,2.08,2.08,0,0,0,.634.319,6.24,6.24,0,0,0,.92.205c.353.055.742.1,1.165.2a4.556,4.556,0,0,1,.639.172,2.685,2.685,0,0,1,.589.283,1.583,1.583,0,0,1,.651.749,1.8,1.8,0,0,1,.148.739.776.776,0,0,1,0,.178v.148a1.094,1.094,0,0,0,.039.29.873.873,0,0,0,.307.464,1.776,1.776,0,0,0,.692.26,7.9,7.9,0,0,0,1.026.136c.372.034.761.06,1.166.11a6.96,6.96,0,0,1,1.222.248,2.752,2.752,0,0,1,.987.544,1.732,1.732,0,0,1,.461.7,2.7,2.7,0,0,1,.124.707,5.2,5.2,0,0,1-.2,1.368l-.7-.058a4.47,4.47,0,0,0,.108-1.3,1.644,1.644,0,0,0-.525-1.145,1.788,1.788,0,0,0-.692-.347,5.5,5.5,0,0,0-.962-.173c-.354-.037-.724-.049-1.122-.08a10.683,10.683,0,0,1-1.227-.127,3.727,3.727,0,0,1-.646-.163,2.372,2.372,0,0,1-.573-.284,1.445,1.445,0,0,1-.589-.75,1.585,1.585,0,0,1-.082-.373l-.009-.1,0-.088c0-.047,0-.1,0-.154a1.755,1.755,0,0,0-.157-.582.979.979,0,0,0-.393-.421,2.222,2.222,0,0,0-.712-.234,23.39,23.39,0,0,1-2.308-.393,3.768,3.768,0,0,1-1.137-.522,2.537,2.537,0,0,1-.689-.695,3.071,3.071,0,0,1-.354-.727,3.6,3.6,0,0,1-.1-.352c-.03-.13-.039-.229-.067-.322a1.2,1.2,0,0,0-.252-.469.875.875,0,0,0-.447-.219,4.874,4.874,0,0,0-.859-.1c-.36-.027-.761-.036-1.187-.08a9.324,9.324,0,0,1-1.337-.214,5.711,5.711,0,0,1-1.238-.464,4.035,4.035,0,0,1-.9-.634,4.224,4.224,0,0,1-.606-.682,4.589,4.589,0,0,1-.412-.7,2.872,2.872,0,0,1-.156-.348l-.138-.319a1.04,1.04,0,0,0-.295-.414.931.931,0,0,0-.41-.216,4.367,4.367,0,0,0-.739-.114c-.318-.024-.672-.037-1.06-.048a14.654,14.654,0,0,1-2.633-.255,6.5,6.5,0,0,1-1.342-.451,4.839,4.839,0,0,1-1.023-.65,4.251,4.251,0,0,1-1.089-1.454,5.1,5.1,0,0,1-.282-.713l-.055-.184a.465.465,0,0,0-.036-.134.308.308,0,0,0-.071-.116.339.339,0,0,0-.084-.063.906.906,0,0,0-.144-.062,5.639,5.639,0,0,0-.675-.135c-.295-.038-.639-.07-1-.105s-.767-.067-1.176-.11-.852-.1-1.3-.18a7.385,7.385,0,0,1-1.388-.389,3.714,3.714,0,0,1-1.194-.7,2.363,2.363,0,0,1-.623-.862,2.273,2.273,0,0,1-.147-.824c0-.131.009-.261.017-.388s.04-.255.071-.384l.042-.157a1.065,1.065,0,0,0,.031-.147,1.66,1.66,0,0,0,.045-.279,1.59,1.59,0,0,0-.037-.524,1.236,1.236,0,0,0-.218-.446,1.552,1.552,0,0,0-.443-.351,3.576,3.576,0,0,0-.713-.309c-.279-.1-.592-.18-.925-.267-.671-.162-1.414-.3-2.192-.53a6.228,6.228,0,0,1-1.114-.451,1.9,1.9,0,0,1-.781-.7,1.234,1.234,0,0,1-.156-.78,2.241,2.241,0,0,1,.261-.7Z" transform="translate(-2162.903 183.481)" fill="#944f00"/>
            <path id="Trazado_105561" data-name="Trazado 105561" d="M2166.959-165.847a1.733,1.733,0,0,0,.016.621,1.047,1.047,0,0,0,.274.525,1.6,1.6,0,0,0,.589.349,4.376,4.376,0,0,0,.855.237c.65.123,1.392.209,2.175.334a11.823,11.823,0,0,1,1.208.24,6.235,6.235,0,0,1,1.224.412,3.773,3.773,0,0,1,1.025.66,2.346,2.346,0,0,1,.566.808,2.242,2.242,0,0,1,.184.8c0,.13,0,.26-.008.387,0,.062-.009.127-.011.189l-.023.173a2.787,2.787,0,0,0-.02.283c0,.091.011.181.02.276a1.576,1.576,0,0,0,.144.489,1.065,1.065,0,0,0,.29.353,1.5,1.5,0,0,0,.44.225,4.424,4.424,0,0,0,.7.174c.276.048.6.086.938.122s.715.068,1.1.1.816.075,1.268.143a7.46,7.46,0,0,1,1.47.347,3.321,3.321,0,0,1,.749.361,1.978,1.978,0,0,1,.544.488,1.582,1.582,0,0,1,.265.526l.077.334a3.837,3.837,0,0,0,.177.594,2.651,2.651,0,0,0,.642,1.006,2.451,2.451,0,0,0,1.113.595,10.95,10.95,0,0,0,1.885.218c.383.024.789.044,1.243.088a7.481,7.481,0,0,1,1.458.28,3.148,3.148,0,0,1,1.232.695,2.061,2.061,0,0,1,.524.815l.046.1.023.079.05.153a1.732,1.732,0,0,0,.108.3,3.06,3.06,0,0,0,.291.573,2.623,2.623,0,0,0,.925.924,3.655,3.655,0,0,0,1.54.444c.327.043.688.063,1.1.1a7.721,7.721,0,0,1,1.365.216,3.087,3.087,0,0,1,.709.285,2.041,2.041,0,0,1,.5.4,1.694,1.694,0,0,1,.373.8,3.21,3.21,0,0,1,.052.346c.02.105.035.2.06.3a2.055,2.055,0,0,0,.224.57,1.543,1.543,0,0,0,.414.464,1.964,1.964,0,0,0,.632.322,5.728,5.728,0,0,0,.924.2c.346.066.736.111,1.161.2a4.654,4.654,0,0,1,.644.182,2.488,2.488,0,0,1,.583.274,1.68,1.68,0,0,1,.654.749,2,2,0,0,1,.151.746v.328a1.081,1.081,0,0,0,.034.288.8.8,0,0,0,.308.461,1.745,1.745,0,0,0,.69.268,9.189,9.189,0,0,0,1.028.13c.371.035.766.059,1.166.107a6.789,6.789,0,0,1,1.221.257,2.682,2.682,0,0,1,.987.538,1.812,1.812,0,0,1,.463.709,2.3,2.3,0,0,1,.118.7,4.773,4.773,0,0,1-.2,1.361l-.7-.05a4.3,4.3,0,0,0,.107-1.293,1.641,1.641,0,0,0-.527-1.152,1.918,1.918,0,0,0-.7-.347,4.646,4.646,0,0,0-.959-.167c-.354-.041-.724-.058-1.115-.082a9.6,9.6,0,0,1-1.232-.129,4.341,4.341,0,0,1-.648-.165,2.354,2.354,0,0,1-.573-.275,1.49,1.49,0,0,1-.586-.754,2.268,2.268,0,0,1-.086-.379v-.092l-.008-.089c0-.055-.006-.1-.009-.152a1.522,1.522,0,0,0-.155-.581.992.992,0,0,0-.392-.423,2.466,2.466,0,0,0-.716-.236,21.4,21.4,0,0,1-2.309-.4,3.728,3.728,0,0,1-1.131-.521,2.611,2.611,0,0,1-.694-.693,3.269,3.269,0,0,1-.354-.72c-.031-.12-.066-.243-.1-.355a2.851,2.851,0,0,0-.072-.32,1.017,1.017,0,0,0-.253-.475.808.808,0,0,0-.435-.213,5.832,5.832,0,0,0-.87-.108c-.351-.018-.754-.032-1.186-.07a8.893,8.893,0,0,1-1.331-.221,5.226,5.226,0,0,1-1.24-.463,4.423,4.423,0,0,1-.9-.625,4.039,4.039,0,0,1-.6-.689,3.753,3.753,0,0,1-.417-.695,3.119,3.119,0,0,1-.155-.345l-.136-.323a1.111,1.111,0,0,0-.29-.418,1.057,1.057,0,0,0-.42-.21,3.353,3.353,0,0,0-.739-.118c-.312-.025-.666-.038-1.055-.05a14.062,14.062,0,0,1-2.632-.257,6.563,6.563,0,0,1-1.345-.453,4.3,4.3,0,0,1-1.016-.651,4.266,4.266,0,0,1-1.1-1.446,5.932,5.932,0,0,1-.278-.714l-.055-.19c-.014-.045-.031-.117-.038-.13a.359.359,0,0,0-.07-.116.284.284,0,0,0-.087-.061.8.8,0,0,0-.144-.057,4.167,4.167,0,0,0-.669-.141c-.3-.036-.636-.066-1.007-.1s-.762-.061-1.172-.1-.849-.106-1.31-.193a6.994,6.994,0,0,1-1.388-.379,3.906,3.906,0,0,1-1.187-.7,2.385,2.385,0,0,1-.624-.864,2.187,2.187,0,0,1-.153-.829,2.851,2.851,0,0,1,.026-.385,3.272,3.272,0,0,1,.064-.384l.045-.16a1.462,1.462,0,0,1,.037-.143c.017-.1.031-.191.037-.278a1.463,1.463,0,0,0-.037-.525,1.09,1.09,0,0,0-.22-.438,1.483,1.483,0,0,0-.437-.361,3.927,3.927,0,0,0-.711-.31c-.282-.091-.595-.176-.926-.258-.675-.172-1.421-.31-2.194-.532a6.1,6.1,0,0,1-1.112-.446,1.975,1.975,0,0,1-.789-.712,1.164,1.164,0,0,1-.148-.774,2.117,2.117,0,0,1,.257-.709Z" transform="translate(-2162.756 183.394)" fill="#944f00"/>
          </g>
          <path id="Trazado_105562" data-name="Trazado 105562" d="M2202.728-184.7v1.089l-43.42,25.062v2.48l-.934.538v-3.559l-35.413-20.442,44.354-25.61Z" transform="translate(-2122.962 205.146)" opacity="0.3"/>
        </g>
        <g id="Grupo_57873" data-name="Grupo 57873" transform="translate(0 3.469)">
          <path id="Trazado_105563" data-name="Trazado 105563" d="M2093.963-223.49l-13.189-7.617-8.809,5.263v22.279l22,12.7Z" transform="translate(-2071.965 256.711)" fill="#128742"/>
          <path id="Trazado_105564" data-name="Trazado 105564" d="M2094.2-224.19l44.345-25.6-13.19-7.618-44.344,25.6Z" transform="translate(-2072.206 257.411)" fill="#16a851"/>
          <path id="Trazado_105565" data-name="Trazado 105565" d="M2094.564-191.36l44.345-25.6v-32.622l-44.345,25.6Z" transform="translate(-2072.566 257.203)" fill="#0f7338"/>
          <path id="Trazado_105566" data-name="Trazado 105566" d="M2097.122-195.083l38.033-21.956v-17.437l-38.033,21.962Z" transform="translate(-2072.635 256.8)"/>
        </g>
        <g id="Grupo_57906" data-name="Grupo 57906" transform="translate(28.651)">
          <g id="Grupo_57874" data-name="Grupo 57874" transform="translate(46.738 9.566)">
            <path id="Trazado_105567" data-name="Trazado 105567" d="M2198.952-207.9c0-14.764-10.366-32.706-23.148-40.09-6.553-3.785-12.471-4.057-16.691-1.425h0l-2.448,1.418.372.246c-2.747,2.815-4.377,7.283-4.377,13.128,0,14.757,10.364,32.7,23.144,40.087,4.852,2.8,9.359,3.676,13.075,2.878l.191.527,2.824-1.629h0C2196.246-195.108,2198.952-200.355,2198.952-207.9Z" transform="translate(-2149.501 251.147)" fill="#d1d3d4"/>
            <path id="Trazado_105568" data-name="Trazado 105568" d="M2195.708-206.021c0,14.755-10.359,20.744-23.149,13.361s-23.144-25.33-23.144-40.093,10.366-20.738,23.144-13.361S2195.708-220.782,2195.708-206.021Z" transform="translate(-2149.415 251.098)" fill="#a7a9ac"/>
          </g>
          <g id="Grupo_57878" data-name="Grupo 57878" transform="translate(0 19.928)">
            <g id="Grupo_57875" data-name="Grupo 57875" transform="translate(36.145)">
              <path id="Trazado_105569" data-name="Trazado 105569" d="M2144.2-239.962a2.783,2.783,0,0,0-2.785-.283h0l-.017.007h0l-1.7.975.572,1.013a4.3,4.3,0,0,0-.036.58c0,2.534,11.578,13.2,11.578,13.2l1.667-.968v-9.165Z" transform="translate(-2138.563 240.502)" fill="#303033"/>
              <path id="Trazado_105570" data-name="Trazado 105570" d="M2138.532-236.676c0-2.527,1.775-3.554,3.968-2.287l9.286,5.357v9.161l-9.286-5.363A8.753,8.753,0,0,1,2138.532-236.676Z" transform="translate(-2138.532 240.476)" fill="#939598"/>
              <path id="Trazado_105571" data-name="Trazado 105571" d="M2142.622-231.272c1.447.833,2.613.164,2.613-1.51a5.747,5.747,0,0,0-2.613-4.521c-1.444-.836-2.62-.163-2.62,1.5A5.782,5.782,0,0,0,2142.622-231.272Z" transform="translate(-2138.571 240.427)" fill="#535359"/>
            </g>
            <g id="Grupo_57876" data-name="Grupo 57876" transform="translate(1.143 0.001)">
              <path id="Trazado_105572" data-name="Trazado 105572" d="M2146.491-231.6a10.532,10.532,0,0,0-4.769-8.245,3.237,3.237,0,0,0-3.51-.242h0l-34.3,19.787,6.913,11.562s34.293-19.787,34.326-19.807h0A3.4,3.4,0,0,0,2146.491-231.6Z" transform="translate(-2102.609 240.501)" fill="#303033"/>
              <path id="Trazado_105573" data-name="Trazado 105573" d="M2112.1-211.231c0,3.035-2.13,4.266-4.759,2.751a10.535,10.535,0,0,1-4.765-8.251c0-3.034,2.133-4.263,4.765-2.748A10.527,10.527,0,0,1,2112.1-211.231Z" transform="translate(-2102.573 239.959)" fill="#121214"/>
            </g>
            <g id="Grupo_57877" data-name="Grupo 57877" transform="translate(0 20.873)">
              <path id="Trazado_105574" data-name="Trazado 105574" d="M2107.075-218.518a2.8,2.8,0,0,0-2.795-.283v0l-.011.013h0l-1.693.976.564,1.012a4.6,4.6,0,0,0-.037.58c0,2.531,11.579,13.2,11.579,13.2l1.678-.961v-9.166Z" transform="translate(-2101.43 219.058)" fill="#535359"/>
              <path id="Trazado_105575" data-name="Trazado 105575" d="M2101.4-215.236c0-2.528,1.78-3.547,3.969-2.289l9.281,5.363V-203l-9.281-5.358A8.78,8.78,0,0,1,2101.4-215.236Z" transform="translate(-2101.399 219.032)" fill="#939598"/>
              <path id="Trazado_105576" data-name="Trazado 105576" d="M2105.487-209.823c1.444.829,2.618.156,2.618-1.512a5.781,5.781,0,0,0-2.618-4.525c-1.444-.837-2.613-.156-2.613,1.509A5.784,5.784,0,0,0,2105.487-209.823Z" transform="translate(-2101.438 218.983)" fill="#535359"/>
            </g>
          </g>
          <g id="Grupo_57882" data-name="Grupo 57882" transform="translate(3.318 6.401)">
            <g id="Grupo_57879" data-name="Grupo 57879" transform="translate(36.143 0.143)">
              <path id="Trazado_105577" data-name="Trazado 105577" d="M2149.475-252.1c-1.56-1.859-3.429-2.566-4.63-1.9l0-.011-.019.013s0,0-.008,0l-1.687.983.519.7.093-.03c-.375,1.738.4,4.275,2.011,6.191l6.517,10.731,1.678-.965,3.725-5.943Z" transform="translate(-2141.971 254.252)" fill="#303033"/>
              <path id="Trazado_105578" data-name="Trazado 105578" d="M2142.4-252.316c1.032-1.639,3.435-1.1,5.367,1.207l8.2,9.767-3.734,5.94-8.195-9.771C2142.11-247.476,2141.376-250.674,2142.4-252.316Z" transform="translate(-2141.939 254.226)" fill="#939598"/>
              <path id="Trazado_105579" data-name="Trazado 105579" d="M2144.795-246.038c1.272,1.512,2.854,1.861,3.537.786s.19-3.188-1.081-4.706-2.864-1.876-3.536-.793S2143.518-247.566,2144.795-246.038Z" transform="translate(-2141.978 254.175)" fill="#535359"/>
            </g>
            <g id="Grupo_57880" data-name="Grupo 57880" transform="translate(1.157)">
              <path id="Trazado_105580" data-name="Trazado 105580" d="M2149.911-245.493a10.561,10.561,0,0,0-4.762-8.259,3.267,3.267,0,0,0-3.515-.24h0L2107.343-234.2l6.911,11.561,34.32-19.809h0A3.4,3.4,0,0,0,2149.911-245.493Z" transform="translate(-2106.032 254.399)" fill="#535359"/>
              <path id="Trazado_105581" data-name="Trazado 105581" d="M2115.523-225.13c0,3.037-2.133,4.272-4.765,2.754a10.525,10.525,0,0,1-4.763-8.247c0-3.042,2.133-4.273,4.763-2.756A10.524,10.524,0,0,1,2115.523-225.13Z" transform="translate(-2105.996 253.857)" fill="#303033"/>
            </g>
            <g id="Grupo_57881" data-name="Grupo 57881" transform="translate(0 21.018)">
              <path id="Trazado_105582" data-name="Trazado 105582" d="M2112.342-230.659c-1.556-1.855-3.427-2.566-4.628-1.907v0l-.018.013s-.01.008-.015.008l-1.684.971.521.7.092-.024a7.993,7.993,0,0,0,2.01,6.189l6.525,10.732,1.676-.962,3.723-5.949Z" transform="translate(-2104.84 232.807)" fill="#535359"/>
              <path id="Trazado_105583" data-name="Trazado 105583" d="M2105.27-230.866c1.03-1.639,3.436-1.1,5.365,1.205l8.2,9.76-3.727,5.943-8.2-9.766C2104.981-226.03,2104.245-229.226,2105.27-230.866Z" transform="translate(-2104.808 232.78)" fill="#939598"/>
              <path id="Trazado_105584" data-name="Trazado 105584" d="M2107.667-224.6c1.269,1.518,2.853,1.878,3.526.8s.195-3.193-1.074-4.71-2.861-1.873-3.538-.793S2106.381-226.12,2107.667-224.6Z" transform="translate(-2104.847 232.73)" fill="#535359"/>
            </g>
          </g>
          <g id="Grupo_57883" data-name="Grupo 57883" transform="translate(13.345 17.012)">
            <path id="Trazado_105585" data-name="Trazado 105585" d="M2190.583-208.387c0-11.978-8.409-26.556-18.8-32.543-5.489-3.173-10.429-3.3-13.856-.958h0l-37.512,21.636,27.251,45.616,37.164-21.45c.164-.088.326-.176.486-.276h0C2188.579-198.383,2190.583-202.534,2190.583-208.387Z" transform="translate(-2115.25 243.498)" fill="#bcbec0"/>
            <path id="Trazado_105586" data-name="Trazado 105586" d="M2152.693-185.992c0,11.985-8.415,16.843-18.791,10.848s-18.793-20.566-18.793-32.547,8.412-16.842,18.793-10.854S2152.693-197.977,2152.693-185.992Z" transform="translate(-2115.109 242.902)" fill="#a7a9ac"/>
          </g>
          <g id="Grupo_57887" data-name="Grupo 57887" transform="translate(13.251)">
            <g id="Grupo_57884" data-name="Grupo 57884" transform="translate(36.142)">
              <path id="Trazado_105587" data-name="Trazado 105587" d="M2161.221-256.239c-1.121-2.82-3.562-4.936-5.44-4.722a1.989,1.989,0,0,0-.728.237v0l-1.731,1,.379.639.263-.082a6.265,6.265,0,0,0,.452,3.708l9.9,12.148,1.672-.971Z" transform="translate(-2152.174 260.975)" fill="#303033"/>
              <path id="Trazado_105588" data-name="Trazado 105588" d="M2154.077-259.961c1.876-.215,4.318,1.9,5.44,4.718l4.771,11.955-6.812.775-4.766-11.95C2151.577-257.289,2152.193-259.753,2154.077-259.961Z" transform="translate(-2152.142 260.949)" fill="#939598"/>
              <path id="Trazado_105589" data-name="Trazado 105589" d="M2153.951-254.448c.746,1.866,2.348,3.253,3.591,3.122s1.64-1.766.9-3.629-2.351-3.248-3.587-3.105S2153.21-256.3,2153.951-254.448Z" transform="translate(-2152.181 260.898)" fill="#535359"/>
            </g>
            <g id="Grupo_57885" data-name="Grupo 57885" transform="translate(0.959 0.03)">
              <path id="Trazado_105590" data-name="Trazado 105590" d="M2159.906-252.046a10.52,10.52,0,0,0-4.762-8.246,3.283,3.283,0,0,0-3.52-.249h0l-34.287,19.8,6.905,11.566s34.286-19.79,34.326-19.818h0A3.385,3.385,0,0,0,2159.906-252.046Z" transform="translate(-2116.033 260.944)" fill="#535359"/>
              <path id="Trazado_105591" data-name="Trazado 105591" d="M2131.019-237.35l-.03.014v.009a3.407,3.407,0,0,0-1.314,3.03,7.771,7.771,0,0,0,.332,2.162c9.658-5.579,28.86-16.657,28.89-16.679h0a3.385,3.385,0,0,0,1.337-3.048,8.145,8.145,0,0,0-.321-2.162l-28.792,16.611A1.011,1.011,0,0,1,2131.019-237.35Z" transform="translate(-2116.361 260.76)" opacity="0.3"/>
              <path id="Trazado_105592" data-name="Trazado 105592" d="M2125.519-231.673c0,3.037-2.133,4.269-4.766,2.751a10.543,10.543,0,0,1-4.756-8.25c0-3.036,2.132-4.272,4.756-2.753A10.522,10.522,0,0,1,2125.519-231.673Z" transform="translate(-2115.997 260.402)" fill="#303033"/>
            </g>
            <g id="Grupo_57886" data-name="Grupo 57886" transform="translate(0 20.88)">
              <path id="Trazado_105593" data-name="Trazado 105593" d="M2124.092-234.794c-1.122-2.816-3.564-4.93-5.444-4.715a1.944,1.944,0,0,0-.734.231v0l-1.726.992.386.648.262-.084a6.266,6.266,0,0,0,.448,3.71l9.9,12.143,1.678-.97Z" transform="translate(-2115.043 239.524)" fill="#535359"/>
              <path id="Trazado_105594" data-name="Trazado 105594" d="M2116.94-238.52c1.885-.207,4.321,1.894,5.45,4.719l4.765,11.953-6.808.779-4.77-11.955C2114.447-235.848,2115.066-238.307,2116.94-238.52Z" transform="translate(-2115.012 239.498)" fill="#939598"/>
              <path id="Trazado_105595" data-name="Trazado 105595" d="M2116.817-233c.741,1.86,2.354,3.251,3.586,3.109s1.65-1.768.906-3.622-2.347-3.247-3.589-3.112S2116.084-234.853,2116.817-233Z" transform="translate(-2115.05 239.447)" fill="#535359"/>
            </g>
          </g>
          <g id="Grupo_57891" data-name="Grupo 57891" transform="translate(28.098 3.731)">
            <g id="Grupo_57888" data-name="Grupo 57888" transform="translate(36.146)">
              <path id="Trazado_105596" data-name="Trazado 105596" d="M2177.039-249.723a8.791,8.791,0,0,0-3.972-6.881,2.793,2.793,0,0,0-2.776-.287l-1.794,1.039.635,1.026c-.014.166-.034.339-.034.519l6.261,16.272,1.68-.969Z" transform="translate(-2167.428 257.143)" fill="#303033"/>
              <path id="Trazado_105597" data-name="Trazado 105597" d="M2171.371-255.606c-2.2-1.263-3.972-.238-3.972,2.286V-242.6l7.931,4.589v-10.722A8.778,8.778,0,0,0,2171.371-255.606Z" transform="translate(-2167.399 257.116)" fill="#939598"/>
              <path id="Trazado_105598" data-name="Trazado 105598" d="M2174.016-249.37c0,1.664-1.167,2.339-2.608,1.511a5.779,5.779,0,0,1-2.618-4.528c0-1.664,1.168-2.346,2.618-1.508A5.778,5.778,0,0,1,2174.016-249.37Z" transform="translate(-2167.436 257.066)" fill="#535359"/>
            </g>
            <g id="Grupo_57889" data-name="Grupo 57889" transform="translate(1.034 0.133)">
              <path id="Trazado_105599" data-name="Trazado 105599" d="M2175.241-248.1a10.5,10.5,0,0,0-4.767-8.246,3.251,3.251,0,0,0-3.515-.249h0l-34.286,19.8,6.906,11.56s34.284-19.786,34.321-19.811h.008A3.41,3.41,0,0,0,2175.241-248.1Z" transform="translate(-2131.363 257.007)" fill="#535359"/>
              <path id="Trazado_105600" data-name="Trazado 105600" d="M2140.853-227.735c0,3.041-2.133,4.271-4.765,2.749a10.516,10.516,0,0,1-4.761-8.245c0-3.04,2.129-4.274,4.761-2.76A10.542,10.542,0,0,1,2140.853-227.735Z" transform="translate(-2131.327 256.464)" fill="#303033"/>
            </g>
            <g id="Grupo_57890" data-name="Grupo 57890" transform="translate(0 20.877)">
              <path id="Trazado_105601" data-name="Trazado 105601" d="M2139.91-228.285a8.774,8.774,0,0,0-3.97-6.872,2.837,2.837,0,0,0-2.782-.292l-1.788,1.035.628,1.033c-.016.167-.025.341-.025.519l6.26,16.27,1.678-.973Z" transform="translate(-2130.294 235.694)" fill="#535359"/>
              <path id="Trazado_105602" data-name="Trazado 105602" d="M2134.234-234.165c-2.192-1.262-3.97-.242-3.97,2.293l.006,10.72,7.932,4.586v-10.722A8.783,8.783,0,0,0,2134.234-234.165Z" transform="translate(-2130.265 235.668)" fill="#939598"/>
              <path id="Trazado_105603" data-name="Trazado 105603" d="M2136.89-227.926c0,1.669-1.169,2.345-2.618,1.512a5.787,5.787,0,0,1-2.609-4.528c0-1.667,1.169-2.344,2.609-1.516A5.778,5.778,0,0,1,2136.89-227.926Z" transform="translate(-2130.302 235.618)" fill="#535359"/>
            </g>
          </g>
          <g id="Grupo_57895" data-name="Grupo 57895" transform="translate(50.856 47.548)">
            <g id="Grupo_57892" data-name="Grupo 57892" transform="translate(36.149)">
              <path id="Trazado_105604" data-name="Trazado 105604" d="M2205.707-199.894a8.774,8.774,0,0,0-3.964-6.876l-9.288-5.357-1.672.965,10.96,13.558a4.581,4.581,0,0,0,.753.349l.364.9,1.7-.986h0A2.8,2.8,0,0,0,2205.707-199.894Z" transform="translate(-2190.783 212.127)" fill="#303033"/>
              <path id="Trazado_105605" data-name="Trazado 105605" d="M2204.037-198.909a8.764,8.764,0,0,0-3.971-6.867l-9.283-5.359v9.162l9.283,5.361C2202.262-195.347,2204.037-196.373,2204.037-198.909Z" transform="translate(-2190.783 212.101)" fill="#939598"/>
              <path id="Trazado_105606" data-name="Trazado 105606" d="M2200.165-198.045a5.793,5.793,0,0,1-2.613-4.532c0-1.664,1.167-2.338,2.613-1.51a5.779,5.779,0,0,1,2.614,4.529C2202.778-197.893,2201.61-197.213,2200.165-198.045Z" transform="translate(-2190.963 211.922)" fill="#535359"/>
            </g>
            <g id="Grupo_57893" data-name="Grupo 57893" transform="translate(6.189 4.713)">
              <path id="Trazado_105607" data-name="Trazado 105607" d="M2203.916-198.385a10.511,10.511,0,0,0-4.762-8.245,3.251,3.251,0,0,0-3.519-.247h0l-34.291,19.787,6.912,11.565s34.281-19.787,34.328-19.812h0A3.409,3.409,0,0,0,2203.916-198.385Z" transform="translate(-2160.04 207.285)" fill="#535359"/>
              <path id="Trazado_105608" data-name="Trazado 105608" d="M2169.529-178.014c0,3.04-2.132,4.266-4.76,2.745a10.507,10.507,0,0,1-4.765-8.244c0-3.038,2.13-4.275,4.765-2.757A10.541,10.541,0,0,1,2169.529-178.014Z" transform="translate(-2160.004 206.743)" fill="#303033"/>
            </g>
            <g id="Grupo_57894" data-name="Grupo 57894" transform="translate(0 20.873)">
              <path id="Trazado_105609" data-name="Trazado 105609" d="M2168.577-178.453a8.751,8.751,0,0,0-3.968-6.867l-9.286-5.362-1.677.964,10.963,13.553a4.593,4.593,0,0,0,.76.357l.354.9,1.712-.983h0A2.815,2.815,0,0,0,2168.577-178.453Z" transform="translate(-2153.646 190.683)" fill="#535359"/>
              <path id="Trazado_105610" data-name="Trazado 105610" d="M2166.906-177.46a8.789,8.789,0,0,0-3.969-6.877l-9.292-5.356v9.166l9.292,5.357C2165.126-173.9,2166.906-174.928,2166.906-177.46Z" transform="translate(-2153.646 190.657)" fill="#939598"/>
              <path id="Trazado_105611" data-name="Trazado 105611" d="M2163.032-176.6a5.785,5.785,0,0,1-2.615-4.53c0-1.669,1.168-2.342,2.615-1.513a5.783,5.783,0,0,1,2.617,4.532C2165.65-176.444,2164.477-175.77,2163.032-176.6Z" transform="translate(-2153.826 190.478)" fill="#535359"/>
            </g>
          </g>
          <g id="Grupo_57899" data-name="Grupo 57899" transform="translate(38.716 17.137)">
            <g id="Grupo_57896" data-name="Grupo 57896" transform="translate(36.151)">
              <path id="Trazado_105612" data-name="Trazado 105612" d="M2190.254-241c-1.6-2.033-3.61-2.838-4.862-2.092l-1.627.942.47.366-3.625,4.9,4.567,10.371,1.678-.969,4.77-6.445C2192.751-235.454,2192.134-238.619,2190.254-241Z" transform="translate(-2178.374 243.37)" fill="#303033"/>
              <path id="Trazado_105613" data-name="Trazado 105613" d="M2188.522-240.012c-1.885-2.388-4.309-3.085-5.443-1.558l-4.766,6.438,6.8,8.642,4.775-6.447C2191.014-234.457,2190.4-237.63,2188.522-240.012Z" transform="translate(-2178.313 243.343)" fill="#939598"/>
              <path id="Trazado_105614" data-name="Trazado 105614" d="M2188.827-234.3c-.734,1-2.338.54-3.578-1.032s-1.644-3.656-.9-4.661,2.341-.542,3.582,1.032S2189.575-235.3,2188.827-234.3Z" transform="translate(-2178.464 243.294)" fill="#535359"/>
            </g>
            <g id="Grupo_57897" data-name="Grupo 57897" transform="translate(5.137 0.137)">
              <path id="Trazado_105615" data-name="Trazado 105615" d="M2190.365-234.323a10.56,10.56,0,0,0-4.766-8.257c-1.4-.8-2.646-.836-3.516-.239h0l-34.29,19.787,6.906,11.563s34.289-19.787,34.323-19.81h0A3.37,3.37,0,0,0,2190.365-234.323Z" transform="translate(-2146.486 243.228)" fill="#535359"/>
              <path id="Trazado_105616" data-name="Trazado 105616" d="M2155.972-213.959c0,3.044-2.126,4.274-4.759,2.754a10.525,10.525,0,0,1-4.763-8.246c0-3.042,2.131-4.271,4.763-2.76A10.527,10.527,0,0,1,2155.972-213.959Z" transform="translate(-2146.451 242.686)" fill="#303033"/>
            </g>
            <g id="Grupo_57898" data-name="Grupo 57898" transform="translate(0 20.876)">
              <path id="Trazado_105617" data-name="Trazado 105617" d="M2153.123-219.556c-1.6-2.035-3.612-2.84-4.868-2.092l-1.625.933.471.373-3.626,4.894,4.571,10.371,1.67-.966,4.773-6.44C2155.615-214.007,2155.008-217.174,2153.123-219.556Z" transform="translate(-2141.234 221.923)" fill="#535359"/>
              <path id="Trazado_105618" data-name="Trazado 105618" d="M2151.387-218.568c-1.877-2.382-4.315-3.087-5.438-1.562l-4.775,6.444,6.813,8.637,4.769-6.442C2153.886-213.011,2153.271-216.182,2151.387-218.568Z" transform="translate(-2141.173 221.896)" fill="#939598"/>
              <path id="Trazado_105619" data-name="Trazado 105619" d="M2151.7-212.856c-.742,1-2.35.536-3.588-1.032s-1.645-3.659-.9-4.659,2.347-.544,3.592,1.028S2152.443-213.859,2151.7-212.856Z" transform="translate(-2141.324 221.847)" fill="#535359"/>
            </g>
          </g>
          <g id="Grupo_57903" data-name="Grupo 57903" transform="translate(46.768 35.142)">
            <g id="Grupo_57900" data-name="Grupo 57900" transform="translate(36.143 0.003)">
              <path id="Trazado_105620" data-name="Trazado 105620" d="M2201.815-219.876c-1.032-2.825-3.435-5.065-5.368-4.991l-8.194.3-1.677.963,6.889,9.22,5.731-.206.289.636,1.637-.937c.006,0,.013-.01.013-.01l.027-.018h0C2202.323-215.636,2202.642-217.6,2201.815-219.876Z" transform="translate(-2186.577 224.869)" fill="#303033"/>
              <path id="Trazado_105621" data-name="Trazado 105621" d="M2200.139-218.886c-1.033-2.827-3.433-5.064-5.367-4.991l-8.2.3,3.726,10.244,8.2-.3C2200.439-213.7,2201.17-216.06,2200.139-218.886Z" transform="translate(-2186.577 224.842)" fill="#939598"/>
              <path id="Trazado_105622" data-name="Trazado 105622" d="M2197.989-215.332c-1.273.048-2.858-1.425-3.537-3.291s-.19-3.412,1.088-3.454,2.854,1.424,3.532,3.29S2199.267-215.374,2197.989-215.332Z" transform="translate(-2186.779 224.795)" fill="#535359"/>
            </g>
            <g id="Grupo_57901" data-name="Grupo 57901" transform="translate(6.826)">
              <path id="Trazado_105623" data-name="Trazado 105623" d="M2200.37-215.974a10.541,10.541,0,0,0-4.759-8.249,3.26,3.26,0,0,0-3.52-.238h0l-34.285,19.787,6.9,11.563,34.327-19.812h0A3.392,3.392,0,0,0,2200.37-215.974Z" transform="translate(-2156.495 224.872)" fill="#535359"/>
              <path id="Trazado_105624" data-name="Trazado 105624" d="M2165.988-195.6c0,3.032-2.136,4.271-4.764,2.748a10.519,10.519,0,0,1-4.765-8.249c0-3.039,2.127-4.266,4.765-2.752A10.551,10.551,0,0,1,2165.988-195.6Z" transform="translate(-2156.459 224.33)" fill="#303033"/>
            </g>
            <g id="Grupo_57902" data-name="Grupo 57902" transform="translate(0 20.88)">
              <path id="Trazado_105625" data-name="Trazado 105625" d="M2164.682-198.43c-1.028-2.828-3.437-5.067-5.366-4.99l-8.2.3-1.672.964,6.889,9.223,5.737-.211.289.643,1.634-.943c0-.007,0-.007.012-.01l.025-.018h0C2165.2-194.189,2165.506-196.156,2164.682-198.43Z" transform="translate(-2149.446 203.421)" fill="#535359"/>
              <path id="Trazado_105626" data-name="Trazado 105626" d="M2163.012-197.439c-1.03-2.828-3.439-5.067-5.368-4.994l-8.2.3,3.721,10.242,8.2-.3C2163.3-192.264,2164.039-194.607,2163.012-197.439Z" transform="translate(-2149.446 203.395)" fill="#939598"/>
              <path id="Trazado_105627" data-name="Trazado 105627" d="M2160.858-193.889c-1.273.048-2.855-1.425-3.534-3.287s-.189-3.409,1.077-3.46,2.863,1.425,3.533,3.289S2162.139-193.93,2160.858-193.889Z" transform="translate(-2149.648 203.347)" fill="#535359"/>
            </g>
          </g>
          <g id="Grupo_57904" data-name="Grupo 57904" transform="translate(5.575 33.34)">
            <path id="Trazado_105628" data-name="Trazado 105628" d="M2156.663-183.472c0-14.763-10.365-32.71-23.148-40.091-6.559-3.79-12.476-4.05-16.69-1.427h0l-2.448,1.422.378.249c-2.759,2.806-4.39,7.27-4.39,13.116.012,14.761,10.366,32.71,23.15,40.091,4.846,2.8,9.359,3.681,13.077,2.881l.186.53,2.835-1.632-.009-.01C2153.954-170.681,2156.663-175.932,2156.663-183.472Z" transform="translate(-2107.212 226.724)" fill="#d1d3d4"/>
            <path id="Trazado_105629" data-name="Trazado 105629" d="M2153.418-181.6c0,14.759-10.36,20.738-23.142,13.36s-23.15-25.327-23.15-40.089,10.365-20.747,23.15-13.362S2153.418-196.364,2153.418-181.6Z" transform="translate(-2107.126 226.674)" fill="#a7a9ac"/>
          </g>
          <g id="Grupo_57905" data-name="Grupo 57905" transform="translate(9.876 44.418)">
            <path id="Trazado_105630" data-name="Trazado 105630" d="M2146.594-185.213c0-10.282-7.22-22.787-16.126-27.928-4.439-2.566-8.462-2.808-11.376-1.144h0l-.025.006c0,.013-.01.013-.01.013l-2.586,1.492.3.519a13.481,13.481,0,0,0-2.429,8.422c0,10.285,7.222,22.8,16.127,27.933a13.657,13.657,0,0,0,8.231,2.145l.347.618,2.755-1.594c.045-.023.091-.053.138-.083l.065-.042h0C2144.842-176.576,2146.594-180.148,2146.594-185.213Z" transform="translate(-2111.619 215.342)" fill="#d1d3d4"/>
            <path id="Trazado_105631" data-name="Trazado 105631" d="M2143.8-183.6c0,10.29-7.221,14.456-16.128,9.316s-16.124-17.65-16.124-27.936,7.221-14.456,16.124-9.307S2143.8-193.875,2143.8-183.6Z" transform="translate(-2111.545 215.299)" fill="#bcbec0"/>
          </g>
        </g>
        <g id="Grupo_57910" data-name="Grupo 57910" transform="translate(31.971 80.89)">
          <g id="Grupo_57907" data-name="Grupo 57907" transform="translate(54.168 31.278)">
            <path id="Trazado_105632" data-name="Trazado 105632" d="M2160.464-141.643l12.832,7.41,7.1-4.1-12.832-7.41Z" transform="translate(-2160.459 145.74)" fill="#a7a9ac"/>
            <path id="Trazado_105633" data-name="Trazado 105633" d="M2180.744-120.08v-18.048l-7.1,4.1v18.039Z" transform="translate(-2160.81 145.537)" fill="#939598"/>
            <path id="Trazado_105634" data-name="Trazado 105634" d="M2173.3-116.083v-18.039l-12.832-7.41,0,18.038Z" transform="translate(-2160.459 145.628)" fill="#bcbec0"/>
          </g>
          <g id="Grupo_57908" data-name="Grupo 57908" transform="translate(27.09 15.64)">
            <path id="Trazado_105635" data-name="Trazado 105635" d="M2132.64-157.715l12.839,7.415,7.092-4.088-12.843-7.418Z" transform="translate(-2132.64 161.806)" fill="#a7a9ac"/>
            <path id="Trazado_105636" data-name="Trazado 105636" d="M2152.918-136.149l0-18.036-7.092,4.088v18.048Z" transform="translate(-2132.992 161.603)" fill="#939598"/>
            <path id="Trazado_105637" data-name="Trazado 105637" d="M2145.479-132.141v-18.048L2132.64-157.6v18.04Z" transform="translate(-2132.64 161.694)" fill="#bcbec0"/>
          </g>
          <g id="Grupo_57909" data-name="Grupo 57909">
            <path id="Trazado_105638" data-name="Trazado 105638" d="M2104.81-173.784l12.838,7.422,7.092-4.1-12.837-7.416Z" transform="translate(-2104.81 177.873)" fill="#a7a9ac"/>
            <path id="Trazado_105639" data-name="Trazado 105639" d="M2125.091-152.215v-18.04l-7.092,4.1-.009,18.04Z" transform="translate(-2105.161 177.671)" fill="#939598"/>
            <path id="Trazado_105640" data-name="Trazado 105640" d="M2117.639-148.21l.009-18.04-12.838-7.422v18.042Z" transform="translate(-2104.81 177.762)" fill="#bcbec0"/>
          </g>
        </g>
        <g id="Grupo_57911" data-name="Grupo 57911" transform="translate(25.837 43.837)">
          <path id="Trazado_105641" data-name="Trazado 105641" d="M2182.109-138.827l-69.127-39.912v-37.2l16.249,9.383,52.878,47.28Z" transform="translate(-2098.894 215.939)" fill="#128742"/>
          <path id="Trazado_105642" data-name="Trazado 105642" d="M2167.63-130.468l-69.121-39.909v-37.2l16.252,9.385,52.869,47.279Z" transform="translate(-2098.508 215.716)" fill="#128742"/>
          <path id="Trazado_105643" data-name="Trazado 105643" d="M2150.26-148.719v3.166l-45.538-26.286V-196.35l2.729,1.581v21.347Z" transform="translate(-2098.674 215.417)" fill="#0f7338"/>
          <path id="Trazado_105644" data-name="Trazado 105644" d="M2150.335-158.979v10.3l-42.809-24.7v-21.347l7.969,4.6Z" transform="translate(-2098.748 215.374)" fill="#16a851"/>
          <path id="Trazado_105645" data-name="Trazado 105645" d="M2183.614-137.277l-14.094,8.136V-149.59l14.094-8.136Z" transform="translate(-2100.398 214.389)" fill="#0f7338"/>
          <path id="Trazado_105646" data-name="Trazado 105646" d="M2182.168-159.02l-14.094,8.136-52.869-47.279,14.085-8.137Z" transform="translate(-2098.953 215.682)" fill="#16a851"/>
          <path id="Trazado_105647" data-name="Trazado 105647" d="M2114.76-198.419l14.085-8.137-16.249-9.383-14.088,8.135Z" transform="translate(-2098.508 215.939)" fill="#1bcf64"/>
        </g>
      </g>
      <g id="Grupo_57913" data-name="Grupo 57913" transform="translate(10.361 34.396)">
        <path id="Trazado_105648" data-name="Trazado 105648" d="M2103.639-145.111c-4.811,2.777-12.61,2.777-17.422,0s-4.811-7.278,0-10.057,12.611-2.78,17.422,0S2108.449-147.892,2103.639-145.111Z" transform="translate(-2082.609 223.818)" opacity="0.3"/>
        <path id="Trazado_105649" data-name="Trazado 105649" d="M2091.575-187.583s1.893,3.026,2.429,3.608,4.683-.1,4.782-.645-2.526-2.1-2.389-2.382,1.729.588,1.865.248-1.306-1.564-2.02-1.861a10.267,10.267,0,0,0-3.445-.3l-.923.307Z" transform="translate(-2082.848 224.662)" fill="#121214"/>
        <path id="Trazado_105650" data-name="Trazado 105650" d="M2093.553-189.481a36.566,36.566,0,0,1-3.009-4.412,25.141,25.141,0,0,0-2.37-3.162c.278-2.879.415-5.938.415-5.938s-3.367-2.577-3.842-.185c-.49,2.394-.263,3.587-.553,5.651a7.217,7.217,0,0,0,.407,2.6c.871,2.2,5.985,6.148,6.778,6.942C2092.172-186.836,2094.086-188.7,2093.553-189.481Z" transform="translate(-2082.651 225.068)" fill="#f0c6b4"/>
        <path id="Trazado_105651" data-name="Trazado 105651" d="M2090.447-203.32a24.764,24.764,0,0,0,.99-6.091c.156-2.062,1.015-4.553-1.753-4.367-5.3.348-4.984,4.823-4.984,4.823s-.11,2.363-.228,4.612C2084.057-202.37,2090.026-201.186,2090.447-203.32Z" transform="translate(-2082.658 225.323)" fill="#16a89f"/>
        <path id="Trazado_105652" data-name="Trazado 105652" d="M2092.706-215.613a12.629,12.629,0,0,1-1.222,2.179l-.635,1.607,2.915,2.2,3.018.3,1.086-1.071a10.885,10.885,0,0,1,.4-3.827,7.155,7.155,0,0,0-.973-2.031l-3.133-.572A8.338,8.338,0,0,1,2092.706-215.613Z" transform="translate(-2082.829 225.404)" fill="#f0c6b4"/>
        <path id="Trazado_105653" data-name="Trazado 105653" d="M2089.891-155.069a4.483,4.483,0,0,1,2.092.375c.432.233.788,1.1-.056,2.235-1.437,1.939-2.528,3.651-3.315,4.1a1.447,1.447,0,0,1-2.01-.244c-.274-.377-.13-4.489-.13-4.489Z" transform="translate(-2082.711 223.76)" fill="#944f00"/>
        <path id="Trazado_105654" data-name="Trazado 105654" d="M2085.843-185.288s1.126,11.553.575,15.655a80.335,80.335,0,0,0-.48,16.14c.1,2.216,5.582,1.618,5.572-1.588.164-10.515,1.177-13.3,2.084-18.469a34.668,34.668,0,0,0,.615-8.212C2091.384-182.065,2085.843-185.288,2085.843-185.288Z" transform="translate(-2082.692 224.564)" fill="#0f2034"/>
        <path id="Trazado_105655" data-name="Trazado 105655" d="M2101.657-222.409a11.368,11.368,0,0,1,.2,2.892,1.844,1.844,0,0,1-.374.53,2.084,2.084,0,0,1,.089.9,19.9,19.9,0,0,1-1.63,3.711c-.325.429-2.863-.341-2.863-.341l1.268-6.776Z" transform="translate(-2082.994 225.552)" fill="#f0c6b4"/>
        <path id="Trazado_105656" data-name="Trazado 105656" d="M2099.585-151.522a41.854,41.854,0,0,1,5.4,1.077c1.047.821.638,2.727-1.37,3.216a66.829,66.829,0,0,1-7.518.673c-.911.014-1.754-.393-1.842-1.129-.047-.464.225-3.4.225-3.4Z" transform="translate(-2082.919 223.665)" fill="#944f00"/>
        <path id="Trazado_105657" data-name="Trazado 105657" d="M2101.2-207.132a15.956,15.956,0,0,1-3.452-3.179s-4.075-.338-6.385-3.03c-1.317.532-3.787.476-4.971,3.592-.855,2.251,1.226,11.868,1.226,11.868l2.285,5.558,8.031,1.669s2.939-.124,3.022-.775a75.62,75.62,0,0,1,1.267-8.977C2102.792-203.181,2101.2-207.132,2101.2-207.132Z" transform="translate(-2082.705 225.311)" fill="#24d2c1"/>
        <path id="Trazado_105658" data-name="Trazado 105658" d="M2086.095-187.977a11.412,11.412,0,0,0,0,4.828c.58,2.707,6.418,3.362,6.418,3.362s.977,9.617.481,13.256c-.719,5.284.514,13.874.6,15.487.158,2.21,6.6,1.746,6.5-1.464-.361-5.388-.887-9.635-.138-14.826s1.821-7.55,1.2-21.145C2098.332-188.707,2086.095-187.977,2086.095-187.977Z" transform="translate(-2082.695 224.65)" fill="#1d374e"/>
        <path id="Trazado_105659" data-name="Trazado 105659" d="M2086.184-204.457a43.054,43.054,0,0,0,9.432,5.319s1.176,6.145,4.067,6.917a2.091,2.091,0,0,0,1.468-.079l.017,3.4a5.98,5.98,0,0,1-3.606,2.96c-1.74.358-8.718.193-11.459-2.46C2086.736-193.751,2086.327-198.81,2086.184-204.457Z" transform="translate(-2082.702 225.075)" fill="#1d374e"/>
        <path id="Trazado_105660" data-name="Trazado 105660" d="M2095.817-199.277s-1.467-7.17,4.02-9.043c.056-.271-.969-1.434-1.493-1.343-5.79,1.83-4.586,9.512-4.586,9.512l.6,1.19Z" transform="translate(-2082.903 225.213)" fill="#1d374e"/>
        <path id="Trazado_105661" data-name="Trazado 105661" d="M2087.8-203.507s-1.369-7.416,3.562-9.834c0,0-.907.194-1.434.279-4.6,1.373-3.741,8.368-3.741,8.368l.6,1.187Z" transform="translate(-2082.703 225.311)" fill="#1d374e"/>
        <path id="Trazado_105662" data-name="Trazado 105662" d="M2101.339-223.1a3.882,3.882,0,0,1,.164,2.228c-.31,1.115-1.337,2.179-1.365,2.992,0,0-.493-1.092-1.086-.49s-.489,2.415-1.557,3.292c-.708.584-4.519.042-4.917-.981s-1.71-3.589-.706-6.605,5.771-3.288,8.023-2.746C2102.944-224.683,2101.339-223.1,2101.339-223.1Z" transform="translate(-2082.846 225.638)" fill="#ff8400"/>
        <path id="Trazado_105663" data-name="Trazado 105663" d="M2095.349-222.974a16.506,16.506,0,0,1,6.092-.079S2096.539-224.546,2095.349-222.974Z" transform="translate(-2082.948 225.587)" fill="#ba6000"/>
        <path id="Trazado_105664" data-name="Trazado 105664" d="M2115.3-194.886s3.964-3,4.774-2.837c.557.1,2.6.96,2.858,1.88s-.629,2.759-2.889,2.876a9.958,9.958,0,0,1-3.347,1.139c-.443-.036-.721-.063-.721-.063Z" transform="translate(-2083.479 224.895)" fill="#121214"/>
        <path id="Trazado_105665" data-name="Trazado 105665" d="M2105.753-199.331c1.039,1.541,1.554,2.986,2.127,3.937,1.975.07,6.052.591,7.052.464s1.592,2.815.675,2.994-8.2,1.636-9.05,1.168c-1.99-1.1-5.231-6.182-5.231-6.182S2105.6-199.654,2105.753-199.331Z" transform="translate(-2083.107 224.939)" fill="#f0c6b4"/>
        <path id="Trazado_105666" data-name="Trazado 105666" d="M2100.443-197.232a21.1,21.1,0,0,1-2.471-5.044c-.753-1.927-.178-4.745,2.589-5.044s3.979,3.487,3.979,3.487.523,1.741,1.3,3.855C2106.826-198.219,2101.483-195.324,2100.443-197.232Z" transform="translate(-2083.01 225.151)" fill="#16a89f"/>
      </g>
    </g>
  </g>
</svg>
