<svg xmlns="http://www.w3.org/2000/svg" width="404" height="187.12" viewBox="0 0 404 187.12">
  <g id="Grupo_57935" data-name="Grupo 57935" transform="translate(-598.5 -4667)">
    <path id="Trazado_102167" data-name="Trazado 102167" d="M724.625,275.72v-46.31h-400v46.31" transform="translate(275.875 4578.4)" fill="none" stroke="#ff8a5b" stroke-miterlimit="10" stroke-width="4"/>
    <g id="Grupo_56469" data-name="Grupo 56469" transform="translate(296.973 4578.4)">
      <line id="Línea_250" data-name="Línea 250" y2="16.157" transform="translate(505.159 212.166)" fill="none" stroke="#ff8a5b" stroke-miterlimit="10" stroke-width="4"/>
      <circle id="Elipse_4084" data-name="Elipse 4084" cx="59.211" cy="59.211" r="59.211" transform="translate(445.948 93.744)" fill="none" stroke="#ff8a5b" stroke-miterlimit="10" stroke-width="4"/>
      <circle id="Elipse_4085" data-name="Elipse 4085" cx="48.496" cy="48.496" r="48.496" transform="translate(457.027 104.458)" fill="#0075a4"/>
      <g id="Grupo_56465" data-name="Grupo 56465">
        <path id="Trazado_102168" data-name="Trazado 102168" d="M448.677,154.647h-7.149A66.046,66.046,0,0,1,507.575,88.6v7.15A58.964,58.964,0,0,0,448.677,154.647Z" fill="#0075a4"/>
      </g>
      <g id="Grupo_56472" data-name="Grupo 56472" transform="translate(-429.236 0.345)">
        <path id="Trazado_102172" data-name="Trazado 102172" d="M959.829,145.693a1.016,1.016,0,0,0-1.048.063l-9.218,6.349v-5.513a1.015,1.015,0,0,0-1.591-.836l-9.215,6.348v-5.513a1.015,1.015,0,0,0-1.591-.835l-9.215,6.348v-3.647a1.015,1.015,0,0,0-1.015-1.014h-1.887V137.3a2.52,2.52,0,0,0-2.516-2.518H919.2v-2.911a8.078,8.078,0,0,0,1.493.144,6.773,6.773,0,0,0,3.411-.888,7.417,7.417,0,0,0,3.455-5.224,1.015,1.015,0,0,0-.66-1.144,7.42,7.42,0,0,0-6.257.38,6.753,6.753,0,0,0-2.456,2.482,6.756,6.756,0,0,0-2.456-2.483,7.418,7.418,0,0,0-6.254-.378,1.013,1.013,0,0,0-.66,1.143,7.415,7.415,0,0,0,3.454,5.225,6.772,6.772,0,0,0,3.409.887,8.068,8.068,0,0,0,1.492-.144v2.911h-3.331a2.522,2.522,0,0,0-2.519,2.519v10.138h-1.885a1.014,1.014,0,0,0-1.014,1.015v26.023a1.015,1.015,0,0,0,1.014,1.015h49.923a1.016,1.016,0,0,0,1.015-1.015V146.592a1.016,1.016,0,0,0-.543-.9ZM921.655,126.9a5.13,5.13,0,0,1,3.681-.474,4.816,4.816,0,0,1-5.93,3.422A5.127,5.127,0,0,1,921.655,126.9Zm-8.372,2.474a5.123,5.123,0,0,1-2.249-2.948,4.812,4.812,0,0,1,5.927,3.422A5.122,5.122,0,0,1,913.283,129.374Zm.555,7.442h8.7a.494.494,0,0,1,.486.489v2.306h-9.671V137.3a.49.49,0,0,1,.49-.489Zm-.49,4.824h9.671v5.8h-9.671Zm7.485,31.826h-5.3V163.3a.025.025,0,0,1,.021-.023h5.252a.027.027,0,0,1,.023.023Zm5.088,0h-3.058V163.3a2.054,2.054,0,0,0-2.053-2.052h-5.252a2.053,2.053,0,0,0-2.05,2.052v10.161h-3.059V149.472h15.472Zm32.421-5.06h-10.91a1.014,1.014,0,1,0,0,2.029h10.91v3.031H927.951v-3.031h10.366a1.014,1.014,0,1,0,0-2.029H927.951V154.569l8.776-6.046v5.513a1.015,1.015,0,0,0,1.591.835l9.215-6.348v5.513a1.015,1.015,0,0,0,1.591.835l9.218-6.349Z" transform="translate(-0.156)" fill="#fff"/>
        <path id="Trazado_102173" data-name="Trazado 102173" d="M936.379,158.259H931.02a1.015,1.015,0,0,0-1.014,1.015v5.36a1.014,1.014,0,0,0,1.014,1.014h5.359a1.014,1.014,0,0,0,1.014-1.014v-5.36A1.015,1.015,0,0,0,936.379,158.259Zm-1.015,5.36h-3.329v-3.33h3.329Z" fill="#fff"/>
        <path id="Trazado_102174" data-name="Trazado 102174" d="M945.824,158.259h-5.358a1.015,1.015,0,0,0-1.015,1.015v5.36a1.014,1.014,0,0,0,1.015,1.014h5.358a1.014,1.014,0,0,0,1.015-1.014v-5.36a1.015,1.015,0,0,0-1.015-1.015Zm-1.014,5.36h-3.329v-3.33h3.329Z" fill="#fff"/>
        <path id="Trazado_102175" data-name="Trazado 102175" d="M948.9,164.633a1.014,1.014,0,0,0,1.014,1.015h5.359a1.014,1.014,0,0,0,1.014-1.015v-5.359a1.015,1.015,0,0,0-1.014-1.015h-5.359a1.015,1.015,0,0,0-1.014,1.015Zm2.029-4.344h3.329v3.33h-3.329Z" fill="#fff"/>
        <path id="Trazado_102176" data-name="Trazado 102176" d="M942.876,168.406a1.014,1.014,0,1,0,0,2.029h0a1.014,1.014,0,1,0,0-2.029Z" fill="#fff"/>
      </g>
    </g>
    <path id="Trazado_105777" data-name="Trazado 105777" d="M-234.537,0V-13.108h3.871a6.072,6.072,0,0,1,3.083.774,5.279,5.279,0,0,1,2.084,2.2,6.973,6.973,0,0,1,.738,3.259v.657a6.944,6.944,0,0,1-.743,3.277,5.216,5.216,0,0,1-2.116,2.179A6.353,6.353,0,0,1-230.765,0Zm2.278-11.271v9.435h1.485a3.424,3.424,0,0,0,2.75-1.119,4.867,4.867,0,0,0,.977-3.212V-6.9a4.994,4.994,0,0,0-.927-3.253,3.29,3.29,0,0,0-2.692-1.123ZM-220.376,0h-2.188V-9.741h2.188ZM-222.7-12.28a1.175,1.175,0,0,1,.32-.844,1.2,1.2,0,0,1,.914-.336,1.217,1.217,0,0,1,.918.336,1.166,1.166,0,0,1,.324.844,1.139,1.139,0,0,1-.324.83,1.227,1.227,0,0,1-.918.331,1.211,1.211,0,0,1-.914-.331A1.148,1.148,0,0,1-222.7-12.28ZM-212.175,0a3.376,3.376,0,0,1-.252-.909A3.405,3.405,0,0,1-214.984.18a3.437,3.437,0,0,1-2.395-.837,2.679,2.679,0,0,1-.927-2.071,2.766,2.766,0,0,1,1.157-2.39,5.606,5.606,0,0,1,3.308-.833h1.341V-6.59a1.706,1.706,0,0,0-.423-1.211,1.677,1.677,0,0,0-1.287-.455,1.927,1.927,0,0,0-1.224.374,1.156,1.156,0,0,0-.477.95H-218.1a2.428,2.428,0,0,1,.531-1.5,3.539,3.539,0,0,1,1.445-1.094,5.075,5.075,0,0,1,2.039-.4,4.087,4.087,0,0,1,2.728.86,3.066,3.066,0,0,1,1.044,2.417v4.393a4.979,4.979,0,0,0,.369,2.1V0Zm-2.4-1.575a2.489,2.489,0,0,0,1.22-.315,2.105,2.105,0,0,0,.86-.846V-4.573h-1.179a3.225,3.225,0,0,0-1.828.423,1.371,1.371,0,0,0-.612,1.2,1.278,1.278,0,0,0,.419,1A1.621,1.621,0,0,0-214.579-1.575Zm6.176-3.367a5.7,5.7,0,0,1,1.067-3.624A3.424,3.424,0,0,1-204.5-9.921a3.208,3.208,0,0,1,2.62,1.161l.1-.981h1.972V-.3a3.925,3.925,0,0,1-1.193,3.025,4.543,4.543,0,0,1-3.218,1.107,5.187,5.187,0,0,1-2.093-.446,3.719,3.719,0,0,1-1.553-1.166l1.035-1.314a3.127,3.127,0,0,0,2.485,1.2,2.417,2.417,0,0,0,1.72-.59A2.26,2.26,0,0,0-202-.216V-.873A3.221,3.221,0,0,1-204.523.18a3.416,3.416,0,0,1-2.8-1.359A5.882,5.882,0,0,1-208.4-4.942Zm2.179.189a3.922,3.922,0,0,0,.6,2.309,1.925,1.925,0,0,0,1.661.842A2.105,2.105,0,0,0-202-2.737V-7.022a2.075,2.075,0,0,0-1.945-1.107,1.933,1.933,0,0,0-1.679.855A4.391,4.391,0,0,0-206.224-4.753Zm10.686-4.987.063,1.125a3.5,3.5,0,0,1,2.836-1.305q3.043,0,3.1,3.484V0h-2.188V-6.311a2.006,2.006,0,0,0-.4-1.373,1.685,1.685,0,0,0-1.31-.446,2.108,2.108,0,0,0-1.972,1.2V0H-197.6V-9.741Zm7.814,4.78a5.744,5.744,0,0,1,.567-2.579A4.142,4.142,0,0,1-185.563-9.3a4.49,4.49,0,0,1,2.359-.617A4.255,4.255,0,0,1-180-8.652a4.993,4.993,0,0,1,1.328,3.367l.009.513a5.8,5.8,0,0,1-.554,2.575,4.092,4.092,0,0,1-1.584,1.756,4.523,4.523,0,0,1-2.381.621,4.225,4.225,0,0,1-3.3-1.373,5.258,5.258,0,0,1-1.238-3.66Zm2.188.189a3.925,3.925,0,0,0,.621,2.354,2.019,2.019,0,0,0,1.729.851,2,2,0,0,0,1.724-.864,4.335,4.335,0,0,0,.617-2.53A3.874,3.874,0,0,0-181.48-7.3a2.027,2.027,0,0,0-1.724-.864,2.008,2.008,0,0,0-1.7.851A4.253,4.253,0,0,0-185.536-4.771Zm2.935-9.057h2.494L-182.6-11.1l-1.756,0Zm11.244,11.181a.992.992,0,0,0-.482-.891,5.123,5.123,0,0,0-1.6-.54,8.215,8.215,0,0,1-1.864-.594,2.487,2.487,0,0,1-1.638-2.3,2.593,2.593,0,0,1,1.062-2.107,4.2,4.2,0,0,1,2.7-.846,4.37,4.37,0,0,1,2.822.864,2.742,2.742,0,0,1,1.076,2.242h-2.188a1.348,1.348,0,0,0-.468-1.049,1.794,1.794,0,0,0-1.242-.419,1.939,1.939,0,0,0-1.175.333,1.05,1.05,0,0,0-.455.891.887.887,0,0,0,.423.783,5.818,5.818,0,0,0,1.71.563,8.1,8.1,0,0,1,2.021.675,2.862,2.862,0,0,1,1.089.941,2.4,2.4,0,0,1,.356,1.332,2.538,2.538,0,0,1-1.089,2.129,4.645,4.645,0,0,1-2.854.815,5.037,5.037,0,0,1-2.134-.432A3.511,3.511,0,0,1-176.74-1.44a2.813,2.813,0,0,1-.522-1.629h2.125a1.542,1.542,0,0,0,.585,1.193,2.274,2.274,0,0,0,1.431.419,2.212,2.212,0,0,0,1.314-.329A1.017,1.017,0,0,0-171.357-2.647Zm6.8-9.462v2.368h1.72v1.62h-1.72v5.438a1.2,1.2,0,0,0,.221.806,1.023,1.023,0,0,0,.788.248,3.37,3.37,0,0,0,.765-.09V-.027a5.388,5.388,0,0,1-1.44.207q-2.521,0-2.521-2.782V-8.12h-1.6v-1.62h1.6v-2.368ZM-158.843,0h-2.188V-9.741h2.188Zm-2.323-12.28a1.175,1.175,0,0,1,.32-.844,1.2,1.2,0,0,1,.914-.336,1.217,1.217,0,0,1,.918.336,1.166,1.166,0,0,1,.324.844,1.139,1.139,0,0,1-.324.83,1.227,1.227,0,0,1-.918.331,1.211,1.211,0,0,1-.914-.331A1.148,1.148,0,0,1-161.166-12.28Zm8.706,10.713a1.978,1.978,0,0,0,1.359-.477,1.63,1.63,0,0,0,.576-1.179h2.062a3.213,3.213,0,0,1-.567,1.7,3.72,3.72,0,0,1-1.44,1.247,4.293,4.293,0,0,1-1.963.459,4.153,4.153,0,0,1-3.241-1.323,5.249,5.249,0,0,1-1.2-3.655v-.225a5.162,5.162,0,0,1,1.188-3.561,4.115,4.115,0,0,1,3.241-1.337,4,4,0,0,1,2.831,1.013,3.628,3.628,0,0,1,1.148,2.66h-2.062a2,2,0,0,0-.572-1.377,1.839,1.839,0,0,0-1.364-.54,1.925,1.925,0,0,0-1.638.77,3.928,3.928,0,0,0-.585,2.336v.351a3.993,3.993,0,0,0,.572,2.363A1.923,1.923,0,0,0-152.46-1.566Zm5.24-3.394a5.744,5.744,0,0,1,.567-2.579A4.142,4.142,0,0,1-145.06-9.3a4.49,4.49,0,0,1,2.359-.617,4.255,4.255,0,0,1,3.2,1.269,4.993,4.993,0,0,1,1.328,3.367l.009.513a5.8,5.8,0,0,1-.554,2.575A4.092,4.092,0,0,1-140.3-.441a4.523,4.523,0,0,1-2.381.621,4.225,4.225,0,0,1-3.3-1.373,5.258,5.258,0,0,1-1.238-3.66Zm2.188.189a3.925,3.925,0,0,0,.621,2.354,2.019,2.019,0,0,0,1.729.851,2,2,0,0,0,1.724-.864,4.335,4.335,0,0,0,.617-2.53,3.874,3.874,0,0,0-.635-2.341,2.027,2.027,0,0,0-1.724-.864,2.008,2.008,0,0,0-1.7.851A4.253,4.253,0,0,0-145.033-4.771Zm14.179,2.125a.992.992,0,0,0-.482-.891,5.123,5.123,0,0,0-1.6-.54,8.215,8.215,0,0,1-1.864-.594,2.487,2.487,0,0,1-1.638-2.3,2.593,2.593,0,0,1,1.062-2.107,4.2,4.2,0,0,1,2.7-.846,4.37,4.37,0,0,1,2.822.864,2.742,2.742,0,0,1,1.076,2.242h-2.188a1.348,1.348,0,0,0-.468-1.049,1.794,1.794,0,0,0-1.242-.419,1.939,1.939,0,0,0-1.175.333,1.05,1.05,0,0,0-.455.891.887.887,0,0,0,.423.783,5.818,5.818,0,0,0,1.71.563,8.1,8.1,0,0,1,2.021.675,2.862,2.862,0,0,1,1.089.941,2.4,2.4,0,0,1,.356,1.332,2.538,2.538,0,0,1-1.089,2.129,4.645,4.645,0,0,1-2.854.815,5.037,5.037,0,0,1-2.134-.432,3.511,3.511,0,0,1-1.458-1.188,2.813,2.813,0,0,1-.522-1.629h2.125a1.542,1.542,0,0,0,.585,1.193,2.274,2.274,0,0,0,1.431.419,2.212,2.212,0,0,0,1.314-.329A1.017,1.017,0,0,0-130.854-2.647Zm10.7-7.094.063,1.017a3.505,3.505,0,0,1,2.809-1.2A2.693,2.693,0,0,1-114.6-8.426a3.455,3.455,0,0,1,2.989-1.494,3.037,3.037,0,0,1,2.4.891A3.924,3.924,0,0,1-108.41-6.4V0H-110.6V-6.338A1.937,1.937,0,0,0-111-7.7a1.773,1.773,0,0,0-1.341-.432,1.821,1.821,0,0,0-1.22.4,2.113,2.113,0,0,0-.662,1.049l.009,6.68H-116.4V-6.41a1.561,1.561,0,0,0-1.756-1.72,1.926,1.926,0,0,0-1.864,1.071V0h-2.188V-9.741Zm13.576,4.78a5.744,5.744,0,0,1,.567-2.579A4.142,4.142,0,0,1-104.413-9.3a4.49,4.49,0,0,1,2.359-.617,4.255,4.255,0,0,1,3.2,1.269,4.993,4.993,0,0,1,1.328,3.367l.009.513A5.8,5.8,0,0,1-98.071-2.2,4.092,4.092,0,0,1-99.655-.441a4.523,4.523,0,0,1-2.381.621,4.225,4.225,0,0,1-3.3-1.373,5.258,5.258,0,0,1-1.238-3.66Zm2.188.189a3.925,3.925,0,0,0,.621,2.354,2.019,2.019,0,0,0,1.729.851,2,2,0,0,0,1.724-.864A4.335,4.335,0,0,0-99.7-4.96,3.874,3.874,0,0,0-100.33-7.3a2.027,2.027,0,0,0-1.724-.864,2.008,2.008,0,0,0-1.7.851A4.253,4.253,0,0,0-104.386-4.771Zm8.309-.171a5.791,5.791,0,0,1,1.044-3.615,3.346,3.346,0,0,1,2.8-1.364,3.179,3.179,0,0,1,2.5,1.08v-4.987h2.188V0h-1.981l-.108-1.008A3.225,3.225,0,0,1-92.25.18,3.327,3.327,0,0,1-95.019-1.2,6,6,0,0,1-96.076-4.942Zm2.188.189a4.055,4.055,0,0,0,.572,2.318,1.855,1.855,0,0,0,1.625.833A2.066,2.066,0,0,0-89.73-2.8V-6.959a2.035,2.035,0,0,0-1.945-1.17,1.869,1.869,0,0,0-1.638.842A4.515,4.515,0,0,0-93.889-4.753Zm8.219-.207A5.744,5.744,0,0,1-85.1-7.54,4.142,4.142,0,0,1-83.509-9.3a4.49,4.49,0,0,1,2.359-.617,4.255,4.255,0,0,1,3.2,1.269,4.993,4.993,0,0,1,1.328,3.367l.009.513A5.8,5.8,0,0,1-77.166-2.2,4.092,4.092,0,0,1-78.751-.441,4.523,4.523,0,0,1-81.132.18a4.225,4.225,0,0,1-3.3-1.373,5.258,5.258,0,0,1-1.238-3.66Zm2.188.189a3.925,3.925,0,0,0,.621,2.354,2.019,2.019,0,0,0,1.729.851,2,2,0,0,0,1.724-.864,4.335,4.335,0,0,0,.617-2.53A3.874,3.874,0,0,0-79.426-7.3a2.027,2.027,0,0,0-1.724-.864,2.008,2.008,0,0,0-1.7.851A4.253,4.253,0,0,0-83.482-4.771Zm18.771,2.125a.992.992,0,0,0-.482-.891,5.123,5.123,0,0,0-1.6-.54,8.215,8.215,0,0,1-1.864-.594,2.487,2.487,0,0,1-1.638-2.3,2.593,2.593,0,0,1,1.062-2.107,4.2,4.2,0,0,1,2.7-.846,4.37,4.37,0,0,1,2.822.864,2.742,2.742,0,0,1,1.076,2.242h-2.188a1.348,1.348,0,0,0-.468-1.049,1.794,1.794,0,0,0-1.242-.419,1.939,1.939,0,0,0-1.175.333,1.05,1.05,0,0,0-.455.891.887.887,0,0,0,.423.783,5.819,5.819,0,0,0,1.711.563A8.1,8.1,0,0,1-64-5.037a2.862,2.862,0,0,1,1.089.941,2.4,2.4,0,0,1,.356,1.332A2.538,2.538,0,0,1-63.649-.635,4.645,4.645,0,0,1-66.5.18a5.037,5.037,0,0,1-2.134-.432A3.512,3.512,0,0,1-70.095-1.44a2.813,2.813,0,0,1-.522-1.629h2.125a1.541,1.541,0,0,0,.585,1.193,2.274,2.274,0,0,0,1.431.419,2.212,2.212,0,0,0,1.314-.329A1.017,1.017,0,0,0-64.711-2.647ZM-56.366.18a4.526,4.526,0,0,1-3.371-1.31,4.752,4.752,0,0,1-1.292-3.489v-.27a5.845,5.845,0,0,1,.563-2.606,4.283,4.283,0,0,1,1.58-1.787,4.177,4.177,0,0,1,2.269-.639,3.823,3.823,0,0,1,3.074,1.269,5.368,5.368,0,0,1,1.085,3.592v.882h-6.365a2.925,2.925,0,0,0,.806,1.909,2.419,2.419,0,0,0,1.778.7,2.962,2.962,0,0,0,2.449-1.215l1.179,1.125A3.938,3.938,0,0,1-54.174-.3,4.89,4.89,0,0,1-56.366.18Zm-.261-8.345a1.842,1.842,0,0,0-1.454.63,3.266,3.266,0,0,0-.707,1.756h4.168v-.162A2.659,2.659,0,0,0-55.2-7.6,1.828,1.828,0,0,0-56.627-8.165Zm9.867,6.6A1.978,1.978,0,0,0-45.4-2.044a1.63,1.63,0,0,0,.576-1.179h2.062a3.213,3.213,0,0,1-.567,1.7A3.72,3.72,0,0,1-44.77-.279,4.293,4.293,0,0,1-46.733.18a4.153,4.153,0,0,1-3.241-1.323,5.249,5.249,0,0,1-1.2-3.655v-.225a5.162,5.162,0,0,1,1.188-3.561,4.115,4.115,0,0,1,3.241-1.337,4,4,0,0,1,2.831,1.013,3.628,3.628,0,0,1,1.148,2.66h-2.062A2,2,0,0,0-45.4-7.625a1.839,1.839,0,0,0-1.364-.54A1.925,1.925,0,0,0-48.4-7.4a3.928,3.928,0,0,0-.585,2.336v.351a3.993,3.993,0,0,0,.572,2.363A1.923,1.923,0,0,0-46.76-1.566Zm8.39-10.542v2.368h1.72v1.62h-1.72v5.438a1.2,1.2,0,0,0,.221.806,1.023,1.023,0,0,0,.788.248,3.37,3.37,0,0,0,.765-.09V-.027a5.388,5.388,0,0,1-1.44.207q-2.521,0-2.521-2.782V-8.12h-1.6v-1.62h1.6v-2.368Zm2.71,7.148a5.744,5.744,0,0,1,.567-2.579A4.142,4.142,0,0,1-33.5-9.3a4.49,4.49,0,0,1,2.359-.617,4.255,4.255,0,0,1,3.2,1.269,4.993,4.993,0,0,1,1.328,3.367l.009.513A5.8,5.8,0,0,1-27.157-2.2,4.092,4.092,0,0,1-28.741-.441,4.523,4.523,0,0,1-31.122.18a4.225,4.225,0,0,1-3.3-1.373,5.258,5.258,0,0,1-1.238-3.66Zm2.188.189a3.925,3.925,0,0,0,.621,2.354,2.019,2.019,0,0,0,1.729.851A2,2,0,0,0-29.4-2.431a4.335,4.335,0,0,0,.617-2.53A3.874,3.874,0,0,0-29.416-7.3a2.027,2.027,0,0,0-1.724-.864,2.008,2.008,0,0,0-1.7.851A4.253,4.253,0,0,0-33.472-4.771Zm13.819-2.971a5.413,5.413,0,0,0-.891-.072A2.007,2.007,0,0,0-22.57-6.662V0h-2.188V-9.741h2.089l.054,1.089a2.465,2.465,0,0,1,2.2-1.269,2.048,2.048,0,0,1,.774.126ZM-15.944,0h-2.188V-9.741h2.188Zm-2.323-12.28a1.175,1.175,0,0,1,.32-.844,1.2,1.2,0,0,1,.914-.336,1.217,1.217,0,0,1,.918.336,1.166,1.166,0,0,1,.324.844,1.139,1.139,0,0,1-.324.83,1.227,1.227,0,0,1-.918.331,1.211,1.211,0,0,1-.914-.331A1.148,1.148,0,0,1-18.266-12.28ZM-7.742,0a3.376,3.376,0,0,1-.252-.909A3.405,3.405,0,0,1-10.551.18a3.437,3.437,0,0,1-2.395-.837,2.679,2.679,0,0,1-.927-2.071,2.766,2.766,0,0,1,1.157-2.39,5.606,5.606,0,0,1,3.308-.833h1.341V-6.59A1.706,1.706,0,0,0-8.49-7.8a1.677,1.677,0,0,0-1.287-.455A1.927,1.927,0,0,0-11-7.882a1.156,1.156,0,0,0-.477.95h-2.188a2.428,2.428,0,0,1,.531-1.5A3.539,3.539,0,0,1-11.69-9.525a5.075,5.075,0,0,1,2.039-.4,4.087,4.087,0,0,1,2.728.86A3.066,3.066,0,0,1-5.879-6.644v4.393a4.979,4.979,0,0,0,.369,2.1V0Zm-2.4-1.575a2.488,2.488,0,0,0,1.22-.315,2.105,2.105,0,0,0,.86-.846V-4.573H-9.246a3.225,3.225,0,0,0-1.828.423,1.371,1.371,0,0,0-.612,1.2,1.278,1.278,0,0,0,.419,1A1.621,1.621,0,0,0-10.146-1.575ZM-1.26,0H-3.448V-13.828H-1.26Z" transform="translate(918 4846.927)" fill="#0075a4"/>
  </g>
</svg>
