<svg xmlns="http://www.w3.org/2000/svg" width="404" height="187.12" viewBox="0 0 404 187.12">
  <g id="Grupo_57936" data-name="Grupo 57936" transform="translate(-1018.5 -4667)">
    <path id="Trazado_102167" data-name="Trazado 102167" d="M724.625,275.72v-46.31h-400v46.31" transform="translate(695.875 4578.4)" fill="none" stroke="#ff8a5b" stroke-miterlimit="10" stroke-width="4"/>
    <g id="Grupo_56469" data-name="Grupo 56469" transform="translate(716.973 4578.4)">
      <line id="Línea_250" data-name="Línea 250" y2="16.157" transform="translate(505.159 212.166)" fill="none" stroke="#ff8a5b" stroke-miterlimit="10" stroke-width="4"/>
      <circle id="Elipse_4084" data-name="Elipse 4084" cx="59.211" cy="59.211" r="59.211" transform="translate(445.948 93.744)" fill="none" stroke="#ff8a5b" stroke-miterlimit="10" stroke-width="4"/>
      <circle id="Elipse_4085" data-name="Elipse 4085" cx="48.496" cy="48.496" r="48.496" transform="translate(456.663 104.458)" fill="#0075a4"/>
      <g id="Grupo_56465" data-name="Grupo 56465">
        <path id="Trazado_102168" data-name="Trazado 102168" d="M448.677,154.647h-7.149A66.046,66.046,0,0,1,507.575,88.6v7.15A58.964,58.964,0,0,0,448.677,154.647Z" fill="#0075a4"/>
      </g>
      <g id="Grupo_56473" data-name="Grupo 56473" transform="translate(-864.356 0.09)">
        <path id="Trazado_102177" data-name="Trazado 102177" d="M1392.5,159.859h-47.365a2.624,2.624,0,0,0-2.621,2.621v7.608a3.814,3.814,0,0,0,3.809,3.81h1.247v1.029a1.917,1.917,0,0,0,1.914,1.914h2.261a1.916,1.916,0,0,0,1.913-1.914V173.9h28.489v1.029a1.916,1.916,0,0,0,1.913,1.914h2.261a1.917,1.917,0,0,0,1.914-1.914V173.9h1.247a3.814,3.814,0,0,0,3.809-3.81V160.65A.791.791,0,0,0,1392.5,159.859Zm-43.826,1.582h5.106v1.1a.372.372,0,0,1-.372.371h-4.363a.371.371,0,0,1-.371-.371Zm-4.578,8.647V162.48a1.04,1.04,0,0,1,1.039-1.039h1.957v1.1a1.956,1.956,0,0,0,1.953,1.954h4.363a1.957,1.957,0,0,0,1.954-1.954v-1.1h6.569v10.875H1346.32A2.23,2.23,0,0,1,1344.093,170.088Zm7.98,4.839a.332.332,0,0,1-.331.332h-2.261a.332.332,0,0,1-.331-.332V173.9h2.923Zm34.576,0a.332.332,0,0,1-.331.332h-2.261a.332.332,0,0,1-.331-.332V173.9h2.923Zm5.057-4.839a2.23,2.23,0,0,1-2.227,2.228h-25.968V161.441h28.2Z" fill="#fff"/>
        <path id="Trazado_102178" data-name="Trazado 102178" d="M1394.458,137.445h-1.176a6.017,6.017,0,0,0-6.005-5.739H1382.3v-.762a2.058,2.058,0,0,0-2.055-2.056H1378a2.058,2.058,0,0,0-2.055,2.056v.762h-24.171a7.048,7.048,0,0,0-7.04,7.04v10.247a2.615,2.615,0,0,0,2.612,2.613h.634v.81a2.031,2.031,0,0,0,2.028,2.029h.421v1.1a.791.791,0,0,0,1.582,0v-1.1h.421a2.031,2.031,0,0,0,2.028-2.029v-.81h.595a2.617,2.617,0,0,0,2.525-1.94l1.131-4.25a2.108,2.108,0,0,1,2.035-1.564h9.963a2.109,2.109,0,0,1,2.106,2.106v11.48a.791.791,0,0,0,1.582,0v-11.48a3.692,3.692,0,0,0-3.688-3.688h-9.963a3.692,3.692,0,0,0-3.564,2.739l-1.132,4.249a1.03,1.03,0,0,1-.995.766h-7.709a1.031,1.031,0,0,1-1.03-1.031V138.746a5.465,5.465,0,0,1,5.458-5.458h35.5a4.434,4.434,0,0,1,4.429,4.429v19.721a.791.791,0,1,0,1.582,0v-8.15h1.17a2.065,2.065,0,0,0,2.062-2.063v-7.717A2.065,2.065,0,0,0,1394.458,137.445Zm-41.576,14.971a.447.447,0,0,1-.446.446h-2.424a.446.446,0,0,1-.446-.446v-.81h3.316Zm24.649-21.472a.473.473,0,0,1,.473-.473h2.237a.473.473,0,0,1,.473.473v.762h-3.183Zm17.407,16.281a.48.48,0,0,1-.48.48h-1.17v-8.677h1.17a.48.48,0,0,1,.48.48Z" fill="#fff"/>
        <path id="Trazado_102179" data-name="Trazado 102179" d="M1389.567,151.226a6.662,6.662,0,1,0-6.662,6.662A6.669,6.669,0,0,0,1389.567,151.226Zm-11.741,0a5.079,5.079,0,1,1,5.079,5.079A5.084,5.084,0,0,1,1377.826,151.226Z" fill="#fff"/>
        <path id="Trazado_102180" data-name="Trazado 102180" d="M1386.309,151.226a3.4,3.4,0,1,0-3.4,3.4A3.408,3.408,0,0,0,1386.309,151.226Zm-5.226,0a1.822,1.822,0,1,1,1.822,1.822A1.825,1.825,0,0,1,1381.083,151.226Z" fill="#fff"/>
      </g>
    </g>
    <path id="Trazado_105778" data-name="Trazado 105778" d="M-240-2.854l3.331-10.254h2.5L-238.886,0h-2.206l-4.7-13.108h2.494ZM-230.576,0h-2.188V-9.741h2.188ZM-232.9-12.28a1.175,1.175,0,0,1,.32-.844,1.2,1.2,0,0,1,.914-.336,1.217,1.217,0,0,1,.918.336,1.166,1.166,0,0,1,.324.844,1.139,1.139,0,0,1-.324.83,1.227,1.227,0,0,1-.918.331,1.211,1.211,0,0,1-.914-.331A1.148,1.148,0,0,1-232.9-12.28Zm10.164,9.633a.992.992,0,0,0-.482-.891,5.123,5.123,0,0,0-1.6-.54,8.214,8.214,0,0,1-1.864-.594,2.487,2.487,0,0,1-1.638-2.3,2.593,2.593,0,0,1,1.062-2.107,4.2,4.2,0,0,1,2.7-.846,4.37,4.37,0,0,1,2.822.864,2.742,2.742,0,0,1,1.076,2.242h-2.188a1.348,1.348,0,0,0-.468-1.049,1.794,1.794,0,0,0-1.242-.419,1.939,1.939,0,0,0-1.175.333,1.05,1.05,0,0,0-.455.891.887.887,0,0,0,.423.783,5.819,5.819,0,0,0,1.711.563,8.1,8.1,0,0,1,2.021.675,2.862,2.862,0,0,1,1.089.941,2.4,2.4,0,0,1,.356,1.332,2.538,2.538,0,0,1-1.089,2.129,4.645,4.645,0,0,1-2.854.815,5.037,5.037,0,0,1-2.134-.432,3.511,3.511,0,0,1-1.458-1.188,2.813,2.813,0,0,1-.522-1.629h2.125a1.542,1.542,0,0,0,.585,1.193,2.274,2.274,0,0,0,1.431.419,2.212,2.212,0,0,0,1.314-.329A1.017,1.017,0,0,0-222.735-2.647ZM-216.352,0h-2.188V-9.741h2.188Zm-2.323-12.28a1.175,1.175,0,0,1,.32-.844,1.2,1.2,0,0,1,.914-.336,1.217,1.217,0,0,1,.918.336,1.166,1.166,0,0,1,.324.844,1.139,1.139,0,0,1-.324.83,1.227,1.227,0,0,1-.918.331,1.211,1.211,0,0,1-.914-.331A1.148,1.148,0,0,1-218.675-12.28Zm4.294,7.319a5.744,5.744,0,0,1,.567-2.579A4.142,4.142,0,0,1-212.22-9.3a4.49,4.49,0,0,1,2.359-.617,4.255,4.255,0,0,1,3.2,1.269,4.993,4.993,0,0,1,1.328,3.367l.009.513a5.8,5.8,0,0,1-.554,2.575,4.092,4.092,0,0,1-1.584,1.756,4.523,4.523,0,0,1-2.381.621,4.225,4.225,0,0,1-3.3-1.373,5.258,5.258,0,0,1-1.238-3.66Zm2.188.189a3.925,3.925,0,0,0,.621,2.354,2.019,2.019,0,0,0,1.729.851,2,2,0,0,0,1.724-.864,4.335,4.335,0,0,0,.617-2.53,3.874,3.874,0,0,0-.635-2.341,2.027,2.027,0,0,0-1.724-.864,2.008,2.008,0,0,0-1.7.851A4.253,4.253,0,0,0-212.193-4.771Zm2.935-9.057h2.494l-2.494,2.728-1.756,0Zm7.814,4.087.063,1.125a3.5,3.5,0,0,1,2.836-1.305q3.043,0,3.1,3.484V0h-2.188V-6.311a2.006,2.006,0,0,0-.4-1.373,1.685,1.685,0,0,0-1.31-.446,2.108,2.108,0,0,0-1.972,1.2V0h-2.188V-9.741ZM-182.808,0a3.376,3.376,0,0,1-.252-.909A3.405,3.405,0,0,1-185.617.18a3.437,3.437,0,0,1-2.395-.837,2.679,2.679,0,0,1-.927-2.071,2.766,2.766,0,0,1,1.157-2.39,5.606,5.606,0,0,1,3.308-.833h1.341V-6.59a1.706,1.706,0,0,0-.423-1.211,1.677,1.677,0,0,0-1.287-.455,1.927,1.927,0,0,0-1.224.374,1.156,1.156,0,0,0-.477.95h-2.188a2.428,2.428,0,0,1,.531-1.5,3.539,3.539,0,0,1,1.445-1.094,5.075,5.075,0,0,1,2.039-.4,4.087,4.087,0,0,1,2.728.86,3.066,3.066,0,0,1,1.044,2.417v4.393a4.979,4.979,0,0,0,.369,2.1V0Zm-2.4-1.575a2.489,2.489,0,0,0,1.22-.315,2.105,2.105,0,0,0,.86-.846V-4.573h-1.179a3.225,3.225,0,0,0-1.828.423,1.371,1.371,0,0,0-.612,1.2,1.278,1.278,0,0,0,.419,1A1.621,1.621,0,0,0-185.212-1.575Zm8.616-8.165.063,1.017a3.505,3.505,0,0,1,2.809-1.2,2.693,2.693,0,0,1,2.674,1.494,3.455,3.455,0,0,1,2.989-1.494,3.037,3.037,0,0,1,2.4.891,3.924,3.924,0,0,1,.806,2.629V0h-2.188V-6.338A1.937,1.937,0,0,0-167.45-7.7a1.773,1.773,0,0,0-1.341-.432,1.821,1.821,0,0,0-1.22.4,2.113,2.113,0,0,0-.662,1.049l.009,6.68h-2.188V-6.41a1.561,1.561,0,0,0-1.756-1.72,1.926,1.926,0,0,0-1.864,1.071V0h-2.188V-9.741Zm22.534,4.969a5.851,5.851,0,0,1-1.013,3.61A3.3,3.3,0,0,1-157.862.18a3.178,3.178,0,0,1-2.665-1.233L-160.635,0h-1.981V-13.828h2.188V-8.8a3.166,3.166,0,0,1,2.548-1.116,3.337,3.337,0,0,1,2.8,1.323,5.948,5.948,0,0,1,1.017,3.7Zm-2.188-.189a4.135,4.135,0,0,0-.558-2.377,1.859,1.859,0,0,0-1.62-.792,2.031,2.031,0,0,0-2,1.242v4.015A2.052,2.052,0,0,0-158.411-1.6a1.845,1.845,0,0,0,1.584-.765,4.007,4.007,0,0,0,.576-2.314ZM-149.9,0h-2.188V-9.741h2.188Zm-2.323-12.28a1.175,1.175,0,0,1,.32-.844,1.2,1.2,0,0,1,.914-.336,1.217,1.217,0,0,1,.918.336,1.166,1.166,0,0,1,.324.844,1.139,1.139,0,0,1-.324.83,1.227,1.227,0,0,1-.918.331,1.211,1.211,0,0,1-.914-.331A1.148,1.148,0,0,1-152.226-12.28ZM-143.232.18A4.526,4.526,0,0,1-146.6-1.13,4.752,4.752,0,0,1-147.9-4.618v-.27a5.845,5.845,0,0,1,.563-2.606,4.282,4.282,0,0,1,1.58-1.787,4.177,4.177,0,0,1,2.269-.639,3.823,3.823,0,0,1,3.074,1.269,5.368,5.368,0,0,1,1.085,3.592v.882h-6.365a2.925,2.925,0,0,0,.806,1.909,2.419,2.419,0,0,0,1.778.7,2.962,2.962,0,0,0,2.449-1.215l1.179,1.125A3.938,3.938,0,0,1-141.04-.3,4.89,4.89,0,0,1-143.232.18Zm-.261-8.345a1.842,1.842,0,0,0-1.454.63,3.267,3.267,0,0,0-.707,1.756h4.168v-.162a2.659,2.659,0,0,0-.585-1.661A1.828,1.828,0,0,0-143.493-8.165Zm7.9-1.575.063,1.125A3.5,3.5,0,0,1-132.7-9.921q3.043,0,3.1,3.484V0h-2.188V-6.311a2.006,2.006,0,0,0-.4-1.373,1.685,1.685,0,0,0-1.31-.446,2.108,2.108,0,0,0-1.972,1.2V0h-2.188V-9.741Zm10.965-2.368v2.368h1.72v1.62h-1.72v5.438a1.2,1.2,0,0,0,.221.806,1.023,1.023,0,0,0,.788.248,3.37,3.37,0,0,0,.765-.09V-.027A5.388,5.388,0,0,1-124.3.18q-2.521,0-2.521-2.782V-8.12h-1.6v-1.62h1.6v-2.368ZM-115.423,0a3.376,3.376,0,0,1-.252-.909A3.405,3.405,0,0,1-118.232.18a3.437,3.437,0,0,1-2.395-.837,2.679,2.679,0,0,1-.927-2.071,2.766,2.766,0,0,1,1.157-2.39,5.606,5.606,0,0,1,3.308-.833h1.341V-6.59A1.706,1.706,0,0,0-116.17-7.8a1.677,1.677,0,0,0-1.287-.455,1.927,1.927,0,0,0-1.224.374,1.156,1.156,0,0,0-.477.95h-2.188a2.428,2.428,0,0,1,.531-1.5,3.539,3.539,0,0,1,1.445-1.094,5.075,5.075,0,0,1,2.039-.4,4.087,4.087,0,0,1,2.728.86,3.066,3.066,0,0,1,1.044,2.417v4.393a4.979,4.979,0,0,0,.369,2.1V0Zm-2.4-1.575a2.488,2.488,0,0,0,1.22-.315,2.105,2.105,0,0,0,.86-.846V-4.573h-1.179a3.225,3.225,0,0,0-1.828.423,1.371,1.371,0,0,0-.612,1.2,1.278,1.278,0,0,0,.419,1A1.621,1.621,0,0,0-117.827-1.575ZM-108.941,0h-2.188V-13.828h2.188Zm15.5-4.771a5.8,5.8,0,0,1-1.026,3.606A3.287,3.287,0,0,1-97.22.18,3.309,3.309,0,0,1-99.786-.873V3.745h-2.188V-9.741h2.017l.09.99a3.213,3.213,0,0,1,2.62-1.17,3.32,3.32,0,0,1,2.8,1.328,5.954,5.954,0,0,1,1.013,3.687Zm-2.179-.189A4.063,4.063,0,0,0-96.2-7.274a1.888,1.888,0,0,0-1.661-.855,2.013,2.013,0,0,0-1.927,1.107V-2.7a2.032,2.032,0,0,0,1.945,1.134,1.886,1.886,0,0,0,1.634-.842A4.472,4.472,0,0,0-95.617-4.96Zm3.619,0a5.744,5.744,0,0,1,.567-2.579A4.142,4.142,0,0,1-89.838-9.3a4.49,4.49,0,0,1,2.359-.617,4.255,4.255,0,0,1,3.2,1.269,4.993,4.993,0,0,1,1.328,3.367l.009.513A5.8,5.8,0,0,1-83.5-2.2,4.092,4.092,0,0,1-85.08-.441,4.523,4.523,0,0,1-87.461.18a4.225,4.225,0,0,1-3.3-1.373A5.258,5.258,0,0,1-92-4.852Zm2.188.189a3.925,3.925,0,0,0,.621,2.354,2.019,2.019,0,0,0,1.729.851,2,2,0,0,0,1.724-.864,4.335,4.335,0,0,0,.617-2.53A3.874,3.874,0,0,0-85.755-7.3a2.027,2.027,0,0,0-1.724-.864,2.008,2.008,0,0,0-1.7.851A4.253,4.253,0,0,0-89.811-4.771Zm13.819-2.971a5.414,5.414,0,0,0-.891-.072,2.007,2.007,0,0,0-2.026,1.152V0H-81.1V-9.741h2.089l.054,1.089a2.465,2.465,0,0,1,2.2-1.269,2.048,2.048,0,0,1,.774.126Zm11.433,5.1a.992.992,0,0,0-.482-.891,5.123,5.123,0,0,0-1.6-.54A8.215,8.215,0,0,1-68.5-4.672a2.487,2.487,0,0,1-1.638-2.3,2.593,2.593,0,0,1,1.062-2.107,4.2,4.2,0,0,1,2.7-.846,4.37,4.37,0,0,1,2.822.864,2.742,2.742,0,0,1,1.076,2.242h-2.188a1.348,1.348,0,0,0-.468-1.049,1.794,1.794,0,0,0-1.242-.419,1.939,1.939,0,0,0-1.175.333,1.05,1.05,0,0,0-.455.891.887.887,0,0,0,.423.783,5.819,5.819,0,0,0,1.711.563,8.1,8.1,0,0,1,2.021.675,2.862,2.862,0,0,1,1.089.941,2.4,2.4,0,0,1,.356,1.332A2.538,2.538,0,0,1-63.5-.635,4.645,4.645,0,0,1-66.35.18a5.037,5.037,0,0,1-2.134-.432A3.512,3.512,0,0,1-69.942-1.44a2.813,2.813,0,0,1-.522-1.629h2.125a1.541,1.541,0,0,0,.585,1.193,2.274,2.274,0,0,0,1.431.419,2.212,2.212,0,0,0,1.314-.329A1.017,1.017,0,0,0-64.558-2.647ZM-56.213.18a4.526,4.526,0,0,1-3.371-1.31,4.752,4.752,0,0,1-1.292-3.489v-.27a5.845,5.845,0,0,1,.563-2.606,4.283,4.283,0,0,1,1.58-1.787,4.177,4.177,0,0,1,2.269-.639A3.823,3.823,0,0,1-53.39-8.652a5.368,5.368,0,0,1,1.085,3.592v.882H-58.67a2.925,2.925,0,0,0,.806,1.909,2.419,2.419,0,0,0,1.778.7,2.962,2.962,0,0,0,2.449-1.215l1.179,1.125A3.938,3.938,0,0,1-54.021-.3,4.89,4.89,0,0,1-56.213.18Zm-.261-8.345a1.842,1.842,0,0,0-1.454.63,3.266,3.266,0,0,0-.707,1.756h4.168v-.162A2.659,2.659,0,0,0-55.051-7.6,1.828,1.828,0,0,0-56.474-8.165Zm9.867,6.6a1.978,1.978,0,0,0,1.359-.477,1.63,1.63,0,0,0,.576-1.179h2.062a3.213,3.213,0,0,1-.567,1.7,3.72,3.72,0,0,1-1.44,1.247A4.293,4.293,0,0,1-46.58.18a4.153,4.153,0,0,1-3.241-1.323,5.249,5.249,0,0,1-1.2-3.655v-.225A5.162,5.162,0,0,1-49.83-8.584a4.115,4.115,0,0,1,3.241-1.337,4,4,0,0,1,2.831,1.013,3.628,3.628,0,0,1,1.148,2.66h-2.062a2,2,0,0,0-.572-1.377,1.839,1.839,0,0,0-1.364-.54,1.925,1.925,0,0,0-1.638.77,3.928,3.928,0,0,0-.585,2.336v.351a3.993,3.993,0,0,0,.572,2.363A1.923,1.923,0,0,0-46.607-1.566Zm8.39-10.542v2.368h1.72v1.62h-1.72v5.438A1.2,1.2,0,0,0-38-1.877a1.023,1.023,0,0,0,.788.248,3.37,3.37,0,0,0,.765-.09V-.027a5.388,5.388,0,0,1-1.44.207Q-40.4.18-40.4-2.6V-8.12h-1.6v-1.62h1.6v-2.368Zm2.71,7.148a5.744,5.744,0,0,1,.567-2.579A4.142,4.142,0,0,1-33.346-9.3a4.49,4.49,0,0,1,2.359-.617,4.255,4.255,0,0,1,3.2,1.269,4.993,4.993,0,0,1,1.328,3.367l.009.513A5.8,5.8,0,0,1-27-2.2,4.092,4.092,0,0,1-28.588-.441,4.523,4.523,0,0,1-30.969.18a4.225,4.225,0,0,1-3.3-1.373,5.258,5.258,0,0,1-1.238-3.66Zm2.188.189A3.925,3.925,0,0,0-32.7-2.417a2.019,2.019,0,0,0,1.729.851,2,2,0,0,0,1.724-.864,4.335,4.335,0,0,0,.617-2.53A3.874,3.874,0,0,0-29.263-7.3a2.027,2.027,0,0,0-1.724-.864,2.008,2.008,0,0,0-1.7.851A4.253,4.253,0,0,0-33.319-4.771ZM-19.5-7.742a5.413,5.413,0,0,0-.891-.072,2.007,2.007,0,0,0-2.026,1.152V0H-24.6V-9.741h2.089l.054,1.089a2.465,2.465,0,0,1,2.2-1.269,2.048,2.048,0,0,1,.774.126ZM-14,.18a4.526,4.526,0,0,1-3.371-1.31,4.752,4.752,0,0,1-1.292-3.489v-.27A5.845,5.845,0,0,1-18.1-7.495a4.283,4.283,0,0,1,1.58-1.787,4.177,4.177,0,0,1,2.269-.639,3.823,3.823,0,0,1,3.074,1.269,5.368,5.368,0,0,1,1.085,3.592v.882h-6.365a2.925,2.925,0,0,0,.806,1.909,2.419,2.419,0,0,0,1.778.7,2.962,2.962,0,0,0,2.449-1.215l1.179,1.125A3.938,3.938,0,0,1-11.807-.3,4.89,4.89,0,0,1-14,.18Zm-.261-8.345a1.842,1.842,0,0,0-1.454.63,3.266,3.266,0,0,0-.707,1.756h4.168v-.162A2.659,2.659,0,0,0-12.838-7.6,1.828,1.828,0,0,0-14.26-8.165ZM-2.935-2.647a.992.992,0,0,0-.482-.891,5.123,5.123,0,0,0-1.6-.54,8.215,8.215,0,0,1-1.864-.594,2.487,2.487,0,0,1-1.638-2.3A2.593,2.593,0,0,1-7.454-9.075a4.2,4.2,0,0,1,2.7-.846,4.37,4.37,0,0,1,2.822.864A2.742,2.742,0,0,1-.855-6.815H-3.043a1.348,1.348,0,0,0-.468-1.049,1.794,1.794,0,0,0-1.242-.419,1.939,1.939,0,0,0-1.175.333,1.05,1.05,0,0,0-.455.891.887.887,0,0,0,.423.783,5.819,5.819,0,0,0,1.711.563,8.1,8.1,0,0,1,2.021.675A2.862,2.862,0,0,1-1.139-4.1,2.4,2.4,0,0,1-.783-2.764,2.538,2.538,0,0,1-1.873-.635,4.645,4.645,0,0,1-4.726.18,5.037,5.037,0,0,1-6.86-.252,3.512,3.512,0,0,1-8.318-1.44,2.813,2.813,0,0,1-8.841-3.07h2.125a1.542,1.542,0,0,0,.585,1.193A2.274,2.274,0,0,0-4.7-1.458a2.212,2.212,0,0,0,1.314-.329A1.017,1.017,0,0,0-2.935-2.647Z" transform="translate(1343 4846.927)" fill="#0075a4"/>
  </g>
</svg>
