<svg xmlns="http://www.w3.org/2000/svg" xmlns:xlink="http://www.w3.org/1999/xlink" width="820" height="426.477" viewBox="0 0 820 426.477">
  <defs>
    <linearGradient id="linear-gradient" x1="0.025" y1="-1.789" x2="0.888" y2="2.369" gradientUnits="objectBoundingBox">
      <stop offset="0" stop-color="#0075a4"/>
      <stop offset="0.233" stop-color="#0178a5"/>
      <stop offset="0.439" stop-color="#0583ab"/>
      <stop offset="0.634" stop-color="#0d95b4"/>
      <stop offset="0.822" stop-color="#17aec1"/>
      <stop offset="1" stop-color="#25ced1"/>
    </linearGradient>
  </defs>
  <g id="Grupo_57926" data-name="Grupo 57926" transform="translate(-389 -1932.571)">
    <g id="Grupo_53847" data-name="Grupo 53847" transform="translate(-2182.957 1354.063)">
      <rect id="Rectángulo_5193" data-name="Rectángulo 5193" width="331.087" height="44.036" transform="translate(2815.957 578.507)" fill="url(#linear-gradient)"/>
      <rect id="Rectángulo_5194" data-name="Rectángulo 5194" width="4.893" height="44.036" transform="translate(2815.957 578.507)" fill="#055c77"/>
      <rect id="Rectángulo_5195" data-name="Rectángulo 5195" width="4.893" height="44.036" transform="translate(3142.151 578.507)" fill="#0075a4"/>
      <text id="FUNCIÓN_DE_PRODUCCIÓN" data-name="FUNCIÓN DE PRODUCCIÓN" transform="translate(2871.606 606.196)" fill="#fff" font-size="18" font-family="Roboto-Bold, Roboto" font-weight="700"><tspan x="0" y="0">FUNCIÓN DE PRODUCCIÓN</tspan></text>
    </g>
    <path id="Trazado_105681" data-name="Trazado 105681" d="M0,0H249.933V36.9H0Z" transform="translate(389 2051.139)" fill="#ffae78"/>
    <path id="Trazado_105678" data-name="Trazado 105678" d="M0,0H249.933V5.978H0Z" transform="translate(389 2183.801)" fill="#ffe8de"/>
    <path id="Trazado_105692" data-name="Trazado 105692" d="M0,0H4.1V36.9H0Z" transform="translate(389 2051.139)" fill="#ef7348"/>
    <path id="Trazado_105682" data-name="Trazado 105682" d="M0,0H4.1V36.9H0Z" transform="translate(634.832 2051.139)" fill="#ef7348"/>
    <path id="Trazado_105689" data-name="Trazado 105689" d="M7.989-3.3A1.545,1.545,0,0,0,7.4-4.6a7.138,7.138,0,0,0-2.14-.923A10.335,10.335,0,0,1,2.795-6.557,3.284,3.284,0,0,1,1.046-9.422a3.118,3.118,0,0,1,1.261-2.549,5.1,5.1,0,0,1,3.274-1,5.53,5.53,0,0,1,2.382.492,3.909,3.909,0,0,1,1.644,1.4,3.6,3.6,0,0,1,.6,2.017H7.989a1.981,1.981,0,0,0-.628-1.556,2.608,2.608,0,0,0-1.8-.562,2.717,2.717,0,0,0-1.692.464,1.542,1.542,0,0,0-.6,1.3,1.4,1.4,0,0,0,.65,1.169,7.509,7.509,0,0,0,2.145.91,9.821,9.821,0,0,1,2.4,1.009,3.816,3.816,0,0,1,1.327,1.3,3.388,3.388,0,0,1,.422,1.718A3.045,3.045,0,0,1,8.987-.769,5.318,5.318,0,0,1,5.66.176,6.251,6.251,0,0,1,3.107-.338,4.289,4.289,0,0,1,1.3-1.758,3.537,3.537,0,0,1,.65-3.867H2.874A2.07,2.07,0,0,0,3.595-2.18a3.156,3.156,0,0,0,2.065.6A2.742,2.742,0,0,0,7.4-2.052,1.517,1.517,0,0,0,7.989-3.3ZM16.146.176A4.419,4.419,0,0,1,12.854-1.1a4.639,4.639,0,0,1-1.261-3.406v-.264a5.706,5.706,0,0,1,.549-2.544,4.181,4.181,0,0,1,1.542-1.745A4.078,4.078,0,0,1,15.9-9.686a3.733,3.733,0,0,1,3,1.239A5.24,5.24,0,0,1,19.96-4.939v.861H13.746a2.856,2.856,0,0,0,.787,1.863,2.362,2.362,0,0,0,1.736.686,2.892,2.892,0,0,0,2.391-1.187l1.151,1.1A3.845,3.845,0,0,1,18.286-.294,4.774,4.774,0,0,1,16.146.176Zm-.255-8.147a1.8,1.8,0,0,0-1.419.615,3.189,3.189,0,0,0-.69,1.714h4.069V-5.8a2.6,2.6,0,0,0-.571-1.622A1.785,1.785,0,0,0,15.891-7.972Zm9.633,6.442A1.931,1.931,0,0,0,26.851-2a1.591,1.591,0,0,0,.563-1.151h2.013a3.137,3.137,0,0,1-.554,1.657A3.632,3.632,0,0,1,27.466-.272,4.191,4.191,0,0,1,25.55.176a4.055,4.055,0,0,1-3.164-1.292,5.124,5.124,0,0,1-1.169-3.568V-4.9a5.039,5.039,0,0,1,1.16-3.476,4.018,4.018,0,0,1,3.164-1.305,3.907,3.907,0,0,1,2.764.989,3.542,3.542,0,0,1,1.121,2.6H27.413a1.956,1.956,0,0,0-.558-1.345,1.8,1.8,0,0,0-1.332-.527,1.879,1.879,0,0,0-1.6.751,3.834,3.834,0,0,0-.571,2.281V-4.6a3.9,3.9,0,0,0,.558,2.307A1.878,1.878,0,0,0,25.523-1.529Zm8.191-10.292V-9.51h1.679v1.582H33.715v5.309a1.169,1.169,0,0,0,.215.787,1,1,0,0,0,.769.242,3.29,3.29,0,0,0,.747-.088V-.026a5.26,5.26,0,0,1-1.406.2q-2.461,0-2.461-2.716V-7.928H30.015V-9.51h1.564v-2.312ZM36.36-4.843a5.607,5.607,0,0,1,.554-2.518A4.044,4.044,0,0,1,38.47-9.083a4.383,4.383,0,0,1,2.3-.6A4.154,4.154,0,0,1,43.9-8.446a4.874,4.874,0,0,1,1.3,3.287l.009.5a5.658,5.658,0,0,1-.541,2.514A4,4,0,0,1,43.115-.431,4.415,4.415,0,0,1,40.79.176a4.125,4.125,0,0,1-3.221-1.34A5.133,5.133,0,0,1,36.36-4.737Zm2.136.185a3.832,3.832,0,0,0,.606,2.3,1.971,1.971,0,0,0,1.688.831,1.95,1.95,0,0,0,1.683-.844,4.232,4.232,0,0,0,.6-2.47,3.782,3.782,0,0,0-.62-2.285,1.979,1.979,0,0,0-1.683-.844,1.96,1.96,0,0,0-1.661.831A4.152,4.152,0,0,0,38.5-4.658Zm13.491-2.9a5.285,5.285,0,0,0-.87-.07A1.959,1.959,0,0,0,49.14-6.5V0H47V-9.51h2.039L49.1-8.446A2.406,2.406,0,0,1,51.24-9.686,2,2,0,0,1,52-9.562Zm14.159,2.9a5.662,5.662,0,0,1-1,3.52A3.209,3.209,0,0,1,62.455.176a3.23,3.23,0,0,1-2.5-1.028V3.656H57.814V-9.51h1.969l.088.967a3.137,3.137,0,0,1,2.558-1.143,3.242,3.242,0,0,1,2.729,1.3,5.813,5.813,0,0,1,.989,3.6ZM64.02-4.843A3.966,3.966,0,0,0,63.453-7.1a1.843,1.843,0,0,0-1.622-.835A1.965,1.965,0,0,0,59.95-6.855v4.219a1.983,1.983,0,0,0,1.9,1.107,1.841,1.841,0,0,0,1.6-.822A4.366,4.366,0,0,0,64.02-4.843Zm8.912-2.716a5.285,5.285,0,0,0-.87-.07A1.959,1.959,0,0,0,70.084-6.5V0H67.948V-9.51h2.039l.053,1.063a2.406,2.406,0,0,1,2.145-1.239,2,2,0,0,1,.756.123ZM76.553,0H74.417V-9.51h2.136ZM74.285-11.988a1.147,1.147,0,0,1,.312-.824,1.173,1.173,0,0,1,.892-.328,1.188,1.188,0,0,1,.9.328,1.138,1.138,0,0,1,.316.824,1.112,1.112,0,0,1-.316.811,1.2,1.2,0,0,1-.9.323,1.182,1.182,0,0,1-.892-.323A1.12,1.12,0,0,1,74.285-11.988Zm6.6,2.479.062.993a3.422,3.422,0,0,1,2.742-1.169A2.629,2.629,0,0,1,86.3-8.227a3.373,3.373,0,0,1,2.918-1.459,2.965,2.965,0,0,1,2.342.87,3.831,3.831,0,0,1,.787,2.566V0H90.211V-6.187a1.891,1.891,0,0,0-.4-1.327,1.731,1.731,0,0,0-1.31-.422,1.778,1.778,0,0,0-1.191.391,2.063,2.063,0,0,0-.646,1.024L86.678,0H84.542V-6.258a1.523,1.523,0,0,0-1.714-1.679,1.88,1.88,0,0,0-1.819,1.046V0H78.873V-9.51ZM100.222,0a3.3,3.3,0,0,1-.246-.888,3.325,3.325,0,0,1-2.5,1.063,3.355,3.355,0,0,1-2.338-.817,2.615,2.615,0,0,1-.905-2.021A2.7,2.7,0,0,1,95.366-5,5.473,5.473,0,0,1,98.6-5.81h1.31v-.624a1.666,1.666,0,0,0-.413-1.182,1.638,1.638,0,0,0-1.257-.444,1.881,1.881,0,0,0-1.2.365,1.129,1.129,0,0,0-.466.927H94.438a2.37,2.37,0,0,1,.519-1.463A3.455,3.455,0,0,1,96.368-9.3a4.955,4.955,0,0,1,1.991-.387,3.99,3.99,0,0,1,2.663.839,2.993,2.993,0,0,1,1.02,2.36V-2.2a4.861,4.861,0,0,0,.36,2.048V0ZM97.875-1.538a2.429,2.429,0,0,0,1.191-.308,2.055,2.055,0,0,0,.839-.826V-4.465H98.754a3.148,3.148,0,0,0-1.784.413,1.338,1.338,0,0,0-.6,1.169,1.248,1.248,0,0,0,.409.98A1.583,1.583,0,0,0,97.875-1.538Zm11.382-6.021a5.285,5.285,0,0,0-.87-.07A1.959,1.959,0,0,0,106.409-6.5V0h-2.136V-9.51h2.039l.053,1.063a2.406,2.406,0,0,1,2.145-1.239,2,2,0,0,1,.756.123ZM112.878,0h-2.136V-9.51h2.136ZM110.61-11.988a1.147,1.147,0,0,1,.312-.824,1.173,1.173,0,0,1,.892-.328,1.188,1.188,0,0,1,.9.328,1.138,1.138,0,0,1,.316.824,1.112,1.112,0,0,1-.316.811,1.2,1.2,0,0,1-.9.323,1.182,1.182,0,0,1-.892-.323A1.12,1.12,0,0,1,110.61-11.988ZM114.8-4.843a5.607,5.607,0,0,1,.554-2.518,4.044,4.044,0,0,1,1.556-1.723,4.383,4.383,0,0,1,2.3-.6,4.154,4.154,0,0,1,3.125,1.239,4.874,4.874,0,0,1,1.3,3.287l.009.5a5.658,5.658,0,0,1-.541,2.514,4,4,0,0,1-1.547,1.714,4.415,4.415,0,0,1-2.325.606,4.125,4.125,0,0,1-3.221-1.34A5.133,5.133,0,0,1,114.8-4.737Zm2.136.185a3.832,3.832,0,0,0,.606,2.3,1.971,1.971,0,0,0,1.688.831,1.95,1.95,0,0,0,1.683-.844,4.232,4.232,0,0,0,.6-2.47,3.782,3.782,0,0,0-.62-2.285,1.979,1.979,0,0,0-1.683-.844,1.96,1.96,0,0,0-1.661.831A4.152,4.152,0,0,0,116.938-4.658Z" transform="translate(451.789 2074.344)"/>
    <path id="Trazado_105680" data-name="Trazado 105680" d="M3.242,0H1.273V-11.375H3.242ZM7.25-8.453l.055.977A3.039,3.039,0,0,1,9.766-8.609q2.641,0,2.688,3.023V0h-1.9V-5.477a1.741,1.741,0,0,0-.348-1.191A1.462,1.462,0,0,0,9.07-7.055,1.829,1.829,0,0,0,7.359-6.016V0h-1.9V-8.453Zm6.781,4.164a5.026,5.026,0,0,1,.906-3.137,2.9,2.9,0,0,1,2.43-1.184,2.759,2.759,0,0,1,2.172.938V-12h1.9V0H19.719l-.094-.875A2.8,2.8,0,0,1,17.352.156a2.887,2.887,0,0,1-2.4-1.2A5.21,5.21,0,0,1,14.031-4.289Zm1.9.164a3.519,3.519,0,0,0,.5,2.012,1.61,1.61,0,0,0,1.41.723,1.793,1.793,0,0,0,1.7-1.039V-6.039a1.766,1.766,0,0,0-1.687-1.016,1.622,1.622,0,0,0-1.422.73A3.918,3.918,0,0,0,15.93-4.125Zm12.609,3.3a2.944,2.944,0,0,1-2.375.984,2.624,2.624,0,0,1-2.082-.8,3.423,3.423,0,0,1-.707-2.328V-8.453h1.9V-3q0,1.609,1.336,1.609a1.876,1.876,0,0,0,1.867-.992v-6.07h1.9V0H28.586ZM37.047-2.3a.861.861,0,0,0-.418-.773,4.445,4.445,0,0,0-1.387-.469,7.129,7.129,0,0,1-1.617-.516A2.158,2.158,0,0,1,32.2-6.047a2.25,2.25,0,0,1,.922-1.828,3.644,3.644,0,0,1,2.344-.734,3.792,3.792,0,0,1,2.449.75,2.38,2.38,0,0,1,.934,1.945h-1.9a1.17,1.17,0,0,0-.406-.91,1.557,1.557,0,0,0-1.078-.363,1.682,1.682,0,0,0-1.02.289.911.911,0,0,0-.395.773.769.769,0,0,0,.367.68,5.049,5.049,0,0,0,1.484.488,7.027,7.027,0,0,1,1.754.586,2.484,2.484,0,0,1,.945.816A2.082,2.082,0,0,1,38.914-2.4a2.2,2.2,0,0,1-.945,1.848,4.031,4.031,0,0,1-2.477.707,4.371,4.371,0,0,1-1.852-.375A3.047,3.047,0,0,1,32.375-1.25a2.441,2.441,0,0,1-.453-1.414h1.844a1.338,1.338,0,0,0,.508,1.035,1.973,1.973,0,0,0,1.242.363,1.92,1.92,0,0,0,1.141-.285A.883.883,0,0,0,37.047-2.3Zm5.9-8.211v2.055h1.492v1.406H42.945v4.719a1.039,1.039,0,0,0,.191.7.888.888,0,0,0,.684.215,2.924,2.924,0,0,0,.664-.078V-.023a4.676,4.676,0,0,1-1.25.18q-2.187,0-2.187-2.414V-7.047H39.656V-8.453h1.391v-2.055Zm7.367,3.789a4.7,4.7,0,0,0-.773-.062,1.741,1.741,0,0,0-1.758,1V0h-1.9V-8.453H47.7l.047.945a2.139,2.139,0,0,1,1.906-1.1,1.777,1.777,0,0,1,.672.109ZM53.531,0h-1.9V-8.453h1.9ZM51.516-10.656a1.02,1.02,0,0,1,.277-.732,1.043,1.043,0,0,1,.793-.291,1.056,1.056,0,0,1,.8.291,1.012,1.012,0,0,1,.281.732.988.988,0,0,1-.281.72,1.064,1.064,0,0,1-.8.287,1.051,1.051,0,0,1-.793-.287A1,1,0,0,1,51.516-10.656ZM60.648,0a2.93,2.93,0,0,1-.219-.789,2.955,2.955,0,0,1-2.219.945A2.982,2.982,0,0,1,56.133-.57a2.325,2.325,0,0,1-.8-1.8,2.4,2.4,0,0,1,1-2.074A4.865,4.865,0,0,1,59.2-5.164h1.164v-.555A1.481,1.481,0,0,0,60-6.77a1.456,1.456,0,0,0-1.117-.395,1.672,1.672,0,0,0-1.062.324,1,1,0,0,0-.414.824h-1.9a2.107,2.107,0,0,1,.461-1.3,3.071,3.071,0,0,1,1.254-.949,4.4,4.4,0,0,1,1.77-.344,3.547,3.547,0,0,1,2.367.746,2.661,2.661,0,0,1,.906,2.1v3.813a4.321,4.321,0,0,0,.32,1.82V0ZM58.563-1.367a2.16,2.16,0,0,0,1.059-.273,1.827,1.827,0,0,0,.746-.734V-3.969H59.344a2.8,2.8,0,0,0-1.586.367,1.189,1.189,0,0,0-.531,1.039,1.109,1.109,0,0,0,.363.871A1.407,1.407,0,0,0,58.563-1.367ZM75.07-5.078H70.4v3.484h5.461V0H68.422V-11.375H75.8v1.594H70.4v3.141H75.07Zm5.25-.594L81.93-8.453h2.109L81.453-4.289,84.125,0H82.031L80.344-2.891,78.664,0H76.555l2.672-4.289L76.648-8.453h2.094Zm7.391-4.836v2.055H89.2v1.406H87.711v4.719a1.039,1.039,0,0,0,.191.7.888.888,0,0,0,.684.215,2.924,2.924,0,0,0,.664-.078V-.023A4.676,4.676,0,0,1,88,.156q-2.188,0-2.187-2.414V-7.047H84.422V-8.453h1.391v-2.055Zm7.367,3.789a4.7,4.7,0,0,0-.773-.062,1.741,1.741,0,0,0-1.758,1V0h-1.9V-8.453h1.813l.047.945a2.139,2.139,0,0,1,1.906-1.1,1.777,1.777,0,0,1,.672.109ZM101.094,0a2.93,2.93,0,0,1-.219-.789,2.955,2.955,0,0,1-2.219.945A2.982,2.982,0,0,1,96.578-.57a2.325,2.325,0,0,1-.8-1.8,2.4,2.4,0,0,1,1-2.074,4.865,4.865,0,0,1,2.871-.723h1.164v-.555a1.481,1.481,0,0,0-.367-1.051,1.456,1.456,0,0,0-1.117-.395,1.672,1.672,0,0,0-1.062.324,1,1,0,0,0-.414.824h-1.9a2.107,2.107,0,0,1,.461-1.3,3.071,3.071,0,0,1,1.254-.949,4.4,4.4,0,0,1,1.77-.344,3.547,3.547,0,0,1,2.367.746,2.661,2.661,0,0,1,.906,2.1v3.813a4.321,4.321,0,0,0,.32,1.82V0ZM99.008-1.367a2.159,2.159,0,0,0,1.059-.273,1.827,1.827,0,0,0,.746-.734V-3.969H99.789A2.8,2.8,0,0,0,98.2-3.6a1.189,1.189,0,0,0-.531,1.039,1.109,1.109,0,0,0,.363.871A1.407,1.407,0,0,0,99.008-1.367Zm9.164.008a1.716,1.716,0,0,0,1.18-.414,1.415,1.415,0,0,0,.5-1.023h1.789a2.789,2.789,0,0,1-.492,1.473A3.228,3.228,0,0,1,109.9-.242a3.725,3.725,0,0,1-1.7.4,3.6,3.6,0,0,1-2.812-1.148,4.555,4.555,0,0,1-1.039-3.172v-.2a4.479,4.479,0,0,1,1.031-3.09,3.571,3.571,0,0,1,2.813-1.16,3.473,3.473,0,0,1,2.457.879,3.148,3.148,0,0,1,1,2.309h-1.789a1.738,1.738,0,0,0-.5-1.2,1.6,1.6,0,0,0-1.184-.469,1.671,1.671,0,0,0-1.422.668,3.408,3.408,0,0,0-.508,2.027v.3a3.465,3.465,0,0,0,.5,2.051A1.669,1.669,0,0,0,108.172-1.359Zm7.281-9.148v2.055h1.492v1.406h-1.492v4.719a1.039,1.039,0,0,0,.191.7.888.888,0,0,0,.684.215,2.924,2.924,0,0,0,.664-.078V-.023a4.676,4.676,0,0,1-1.25.18q-2.188,0-2.187-2.414V-7.047h-1.391V-8.453h1.391v-2.055ZM120.414,0h-1.9V-8.453h1.9ZM118.4-10.656a1.02,1.02,0,0,1,.277-.732,1.043,1.043,0,0,1,.793-.291,1.056,1.056,0,0,1,.8.291,1.012,1.012,0,0,1,.281.732.988.988,0,0,1-.281.72,1.064,1.064,0,0,1-.8.287,1.051,1.051,0,0,1-.793-.287A1,1,0,0,1,118.4-10.656Zm7.063,8.25,1.789-6.047h1.961L126.281,0h-1.648L121.68-8.453h1.969ZM135.328,0a2.93,2.93,0,0,1-.219-.789,2.955,2.955,0,0,1-2.219.945,2.982,2.982,0,0,1-2.078-.727,2.325,2.325,0,0,1-.8-1.8,2.4,2.4,0,0,1,1-2.074,4.865,4.865,0,0,1,2.871-.723h1.164v-.555a1.481,1.481,0,0,0-.367-1.051,1.456,1.456,0,0,0-1.117-.395,1.672,1.672,0,0,0-1.062.324,1,1,0,0,0-.414.824h-1.9a2.107,2.107,0,0,1,.461-1.3,3.071,3.071,0,0,1,1.254-.949,4.4,4.4,0,0,1,1.77-.344,3.547,3.547,0,0,1,2.367.746,2.661,2.661,0,0,1,.906,2.1v3.813a4.321,4.321,0,0,0,.32,1.82V0Zm-2.086-1.367a2.16,2.16,0,0,0,1.059-.273,1.827,1.827,0,0,0,.746-.734V-3.969h-1.023a2.8,2.8,0,0,0-1.586.367,1.189,1.189,0,0,0-.531,1.039,1.109,1.109,0,0,0,.363.871A1.407,1.407,0,0,0,133.242-1.367Z" transform="translate(444.986 2214.063)" fill="#0075a4"/>
    <path id="Trazado_105683" data-name="Trazado 105683" d="M0,0H249.933V36.9H0Z" transform="translate(674 2051.139)" fill="#ffae78"/>
    <path id="Trazado_105684" data-name="Trazado 105684" d="M0,0H4.1V36.9H0Z" transform="translate(674.034 2051.139)" fill="#ef7348"/>
    <path id="Trazado_105685" data-name="Trazado 105685" d="M0,0H4.1V36.9H0Z" transform="translate(919.866 2051.139)" fill="#ef7348"/>
    <path id="Trazado_105690" data-name="Trazado 105690" d="M7.989-3.3A1.545,1.545,0,0,0,7.4-4.6a7.138,7.138,0,0,0-2.14-.923A10.335,10.335,0,0,1,2.795-6.557,3.284,3.284,0,0,1,1.046-9.422a3.118,3.118,0,0,1,1.261-2.549,5.1,5.1,0,0,1,3.274-1,5.53,5.53,0,0,1,2.382.492,3.909,3.909,0,0,1,1.644,1.4,3.6,3.6,0,0,1,.6,2.017H7.989a1.981,1.981,0,0,0-.628-1.556,2.608,2.608,0,0,0-1.8-.562,2.717,2.717,0,0,0-1.692.464,1.542,1.542,0,0,0-.6,1.3,1.4,1.4,0,0,0,.65,1.169,7.509,7.509,0,0,0,2.145.91,9.821,9.821,0,0,1,2.4,1.009,3.816,3.816,0,0,1,1.327,1.3,3.388,3.388,0,0,1,.422,1.718A3.045,3.045,0,0,1,8.987-.769,5.318,5.318,0,0,1,5.66.176,6.251,6.251,0,0,1,3.107-.338,4.289,4.289,0,0,1,1.3-1.758,3.537,3.537,0,0,1,.65-3.867H2.874A2.07,2.07,0,0,0,3.595-2.18a3.156,3.156,0,0,0,2.065.6A2.742,2.742,0,0,0,7.4-2.052,1.517,1.517,0,0,0,7.989-3.3ZM16.146.176A4.419,4.419,0,0,1,12.854-1.1a4.639,4.639,0,0,1-1.261-3.406v-.264a5.706,5.706,0,0,1,.549-2.544,4.181,4.181,0,0,1,1.542-1.745A4.078,4.078,0,0,1,15.9-9.686a3.733,3.733,0,0,1,3,1.239A5.24,5.24,0,0,1,19.96-4.939v.861H13.746a2.856,2.856,0,0,0,.787,1.863,2.362,2.362,0,0,0,1.736.686,2.892,2.892,0,0,0,2.391-1.187l1.151,1.1A3.845,3.845,0,0,1,18.286-.294,4.774,4.774,0,0,1,16.146.176Zm-.255-8.147a1.8,1.8,0,0,0-1.419.615,3.189,3.189,0,0,0-.69,1.714h4.069V-5.8a2.6,2.6,0,0,0-.571-1.622A1.785,1.785,0,0,0,15.891-7.972Zm9.633,6.442A1.931,1.931,0,0,0,26.851-2a1.591,1.591,0,0,0,.563-1.151h2.013a3.137,3.137,0,0,1-.554,1.657A3.632,3.632,0,0,1,27.466-.272,4.191,4.191,0,0,1,25.55.176a4.055,4.055,0,0,1-3.164-1.292,5.124,5.124,0,0,1-1.169-3.568V-4.9a5.039,5.039,0,0,1,1.16-3.476,4.018,4.018,0,0,1,3.164-1.305,3.907,3.907,0,0,1,2.764.989,3.542,3.542,0,0,1,1.121,2.6H27.413a1.956,1.956,0,0,0-.558-1.345,1.8,1.8,0,0,0-1.332-.527,1.879,1.879,0,0,0-1.6.751,3.834,3.834,0,0,0-.571,2.281V-4.6a3.9,3.9,0,0,0,.558,2.307A1.878,1.878,0,0,0,25.523-1.529Zm8.191-10.292V-9.51h1.679v1.582H33.715v5.309a1.169,1.169,0,0,0,.215.787,1,1,0,0,0,.769.242,3.29,3.29,0,0,0,.747-.088V-.026a5.26,5.26,0,0,1-1.406.2q-2.461,0-2.461-2.716V-7.928H30.015V-9.51h1.564v-2.312ZM36.36-4.843a5.607,5.607,0,0,1,.554-2.518A4.044,4.044,0,0,1,38.47-9.083a4.383,4.383,0,0,1,2.3-.6A4.154,4.154,0,0,1,43.9-8.446a4.874,4.874,0,0,1,1.3,3.287l.009.5a5.658,5.658,0,0,1-.541,2.514A4,4,0,0,1,43.115-.431,4.415,4.415,0,0,1,40.79.176a4.125,4.125,0,0,1-3.221-1.34A5.133,5.133,0,0,1,36.36-4.737Zm2.136.185a3.832,3.832,0,0,0,.606,2.3,1.971,1.971,0,0,0,1.688.831,1.95,1.95,0,0,0,1.683-.844,4.232,4.232,0,0,0,.6-2.47,3.782,3.782,0,0,0-.62-2.285,1.979,1.979,0,0,0-1.683-.844,1.96,1.96,0,0,0-1.661.831A4.152,4.152,0,0,0,38.5-4.658Zm13.491-2.9a5.285,5.285,0,0,0-.87-.07A1.959,1.959,0,0,0,49.14-6.5V0H47V-9.51h2.039L49.1-8.446A2.406,2.406,0,0,1,51.24-9.686,2,2,0,0,1,52-9.562ZM64.714-3.3a1.545,1.545,0,0,0-.593-1.3,7.138,7.138,0,0,0-2.14-.923A10.335,10.335,0,0,1,59.52-6.557a3.284,3.284,0,0,1-1.749-2.865,3.118,3.118,0,0,1,1.261-2.549,5.1,5.1,0,0,1,3.274-1,5.53,5.53,0,0,1,2.382.492,3.909,3.909,0,0,1,1.644,1.4,3.6,3.6,0,0,1,.6,2.017H64.714a1.981,1.981,0,0,0-.628-1.556,2.608,2.608,0,0,0-1.8-.562,2.717,2.717,0,0,0-1.692.464,1.542,1.542,0,0,0-.6,1.3,1.4,1.4,0,0,0,.65,1.169,7.509,7.509,0,0,0,2.145.91,9.821,9.821,0,0,1,2.4,1.009,3.816,3.816,0,0,1,1.327,1.3,3.388,3.388,0,0,1,.422,1.718A3.045,3.045,0,0,1,65.711-.769a5.318,5.318,0,0,1-3.327.945,6.251,6.251,0,0,1-2.553-.514,4.289,4.289,0,0,1-1.811-1.419,3.537,3.537,0,0,1-.646-2.109H59.6a2.07,2.07,0,0,0,.721,1.688,3.156,3.156,0,0,0,2.065.6,2.742,2.742,0,0,0,1.745-.47A1.517,1.517,0,0,0,64.714-3.3ZM72.87.176A4.419,4.419,0,0,1,69.579-1.1a4.639,4.639,0,0,1-1.261-3.406v-.264a5.706,5.706,0,0,1,.549-2.544,4.181,4.181,0,0,1,1.542-1.745,4.078,4.078,0,0,1,2.215-.624,3.733,3.733,0,0,1,3,1.239,5.24,5.24,0,0,1,1.059,3.507v.861H70.471a2.856,2.856,0,0,0,.787,1.863,2.362,2.362,0,0,0,1.736.686,2.892,2.892,0,0,0,2.391-1.187l1.151,1.1A3.845,3.845,0,0,1,75.01-.294,4.774,4.774,0,0,1,72.87.176Zm-.255-8.147a1.8,1.8,0,0,0-1.419.615,3.189,3.189,0,0,0-.69,1.714h4.069V-5.8A2.6,2.6,0,0,0,74-7.422,1.785,1.785,0,0,0,72.615-7.972Zm9.633,6.442A1.931,1.931,0,0,0,83.575-2a1.591,1.591,0,0,0,.563-1.151H86.15A3.137,3.137,0,0,1,85.6-1.49,3.632,3.632,0,0,1,84.19-.272a4.191,4.191,0,0,1-1.916.448A4.055,4.055,0,0,1,79.11-1.116a5.124,5.124,0,0,1-1.169-3.568V-4.9A5.039,5.039,0,0,1,79.1-8.38a4.018,4.018,0,0,1,3.164-1.305A3.907,3.907,0,0,1,85.03-8.7,3.542,3.542,0,0,1,86.15-6.1H84.138a1.956,1.956,0,0,0-.558-1.345,1.8,1.8,0,0,0-1.332-.527,1.879,1.879,0,0,0-1.6.751,3.834,3.834,0,0,0-.571,2.281V-4.6a3.9,3.9,0,0,0,.558,2.307A1.878,1.878,0,0,0,82.248-1.529Zm11.276.6A3.312,3.312,0,0,1,90.853.176,2.952,2.952,0,0,1,88.51-.729a3.851,3.851,0,0,1-.8-2.619V-9.51h2.136v6.135q0,1.811,1.5,1.811a2.111,2.111,0,0,0,2.1-1.116V-9.51H95.59V0H93.577ZM99.747-9.51l.062,1.1a3.419,3.419,0,0,1,2.769-1.274q2.971,0,3.023,3.4V0h-2.136V-6.161a1.958,1.958,0,0,0-.391-1.34,1.645,1.645,0,0,0-1.279-.435A2.058,2.058,0,0,0,99.87-6.768V0H97.734V-9.51Zm7.629,4.685a5.654,5.654,0,0,1,1.02-3.529,3.267,3.267,0,0,1,2.733-1.332,3.1,3.1,0,0,1,2.443,1.055V-13.5h2.136V0h-1.934l-.105-.984a3.148,3.148,0,0,1-2.558,1.16,3.248,3.248,0,0,1-2.7-1.345A5.861,5.861,0,0,1,107.376-4.825Zm2.136.185a3.958,3.958,0,0,0,.558,2.263,1.811,1.811,0,0,0,1.586.813,2.017,2.017,0,0,0,1.916-1.169V-6.794a1.986,1.986,0,0,0-1.9-1.143,1.824,1.824,0,0,0-1.6.822A4.408,4.408,0,0,0,109.512-4.641ZM123.618,0a3.3,3.3,0,0,1-.246-.888,3.325,3.325,0,0,1-2.5,1.063,3.355,3.355,0,0,1-2.338-.817,2.615,2.615,0,0,1-.905-2.021A2.7,2.7,0,0,1,118.762-5a5.473,5.473,0,0,1,3.23-.813h1.31v-.624a1.666,1.666,0,0,0-.413-1.182,1.638,1.638,0,0,0-1.257-.444,1.881,1.881,0,0,0-1.2.365,1.129,1.129,0,0,0-.466.927h-2.136a2.37,2.37,0,0,1,.519-1.463A3.455,3.455,0,0,1,119.764-9.3a4.955,4.955,0,0,1,1.991-.387,3.99,3.99,0,0,1,2.663.839,2.993,2.993,0,0,1,1.02,2.36V-2.2a4.861,4.861,0,0,0,.36,2.048V0Zm-2.347-1.538a2.429,2.429,0,0,0,1.191-.308,2.055,2.055,0,0,0,.839-.826V-4.465H122.15a3.148,3.148,0,0,0-1.784.413,1.338,1.338,0,0,0-.6,1.169,1.248,1.248,0,0,0,.409.98A1.583,1.583,0,0,0,121.271-1.538Zm11.382-6.021a5.285,5.285,0,0,0-.87-.07A1.959,1.959,0,0,0,129.806-6.5V0H127.67V-9.51h2.039l.053,1.063a2.406,2.406,0,0,1,2.145-1.239,2,2,0,0,1,.756.123ZM136.274,0h-2.136V-9.51h2.136Zm-2.268-11.988a1.147,1.147,0,0,1,.312-.824,1.173,1.173,0,0,1,.892-.328,1.188,1.188,0,0,1,.9.328,1.138,1.138,0,0,1,.316.824,1.112,1.112,0,0,1-.316.811,1.2,1.2,0,0,1-.9.323,1.182,1.182,0,0,1-.892-.323A1.12,1.12,0,0,1,134.007-11.988ZM138.2-4.843a5.607,5.607,0,0,1,.554-2.518,4.044,4.044,0,0,1,1.556-1.723,4.383,4.383,0,0,1,2.3-.6,4.154,4.154,0,0,1,3.125,1.239,4.874,4.874,0,0,1,1.3,3.287l.009.5a5.658,5.658,0,0,1-.541,2.514,4,4,0,0,1-1.547,1.714,4.415,4.415,0,0,1-2.325.606,4.125,4.125,0,0,1-3.221-1.34A5.133,5.133,0,0,1,138.2-4.737Zm2.136.185a3.832,3.832,0,0,0,.606,2.3,1.971,1.971,0,0,0,1.688.831,1.95,1.95,0,0,0,1.683-.844,4.232,4.232,0,0,0,.6-2.47,3.782,3.782,0,0,0-.62-2.285,1.979,1.979,0,0,0-1.683-.844,1.96,1.96,0,0,0-1.661.831A4.152,4.152,0,0,0,140.335-4.658Z" transform="translate(725 2074.344)"/>
    <path id="Trazado_105686" data-name="Trazado 105686" d="M0,0H249.933V36.9H0Z" transform="translate(959 2051.139)" fill="#ffae78"/>
    <path id="Trazado_105687" data-name="Trazado 105687" d="M0,0H4.1V36.9H0Z" transform="translate(959.067 2051.139)" fill="#ef7348"/>
    <path id="Trazado_105688" data-name="Trazado 105688" d="M0,0H4.1V36.9H0Z" transform="translate(1204.899 2051.139)" fill="#ef7348"/>
    <path id="Trazado_105691" data-name="Trazado 105691" d="M7.989-3.3A1.545,1.545,0,0,0,7.4-4.6a7.138,7.138,0,0,0-2.14-.923A10.335,10.335,0,0,1,2.795-6.557,3.284,3.284,0,0,1,1.046-9.422a3.118,3.118,0,0,1,1.261-2.549,5.1,5.1,0,0,1,3.274-1,5.53,5.53,0,0,1,2.382.492,3.909,3.909,0,0,1,1.644,1.4,3.6,3.6,0,0,1,.6,2.017H7.989a1.981,1.981,0,0,0-.628-1.556,2.608,2.608,0,0,0-1.8-.562,2.717,2.717,0,0,0-1.692.464,1.542,1.542,0,0,0-.6,1.3,1.4,1.4,0,0,0,.65,1.169,7.509,7.509,0,0,0,2.145.91,9.821,9.821,0,0,1,2.4,1.009,3.816,3.816,0,0,1,1.327,1.3,3.388,3.388,0,0,1,.422,1.718A3.045,3.045,0,0,1,8.987-.769,5.318,5.318,0,0,1,5.66.176,6.251,6.251,0,0,1,3.107-.338,4.289,4.289,0,0,1,1.3-1.758,3.537,3.537,0,0,1,.65-3.867H2.874A2.07,2.07,0,0,0,3.595-2.18a3.156,3.156,0,0,0,2.065.6A2.742,2.742,0,0,0,7.4-2.052,1.517,1.517,0,0,0,7.989-3.3ZM16.146.176A4.419,4.419,0,0,1,12.854-1.1a4.639,4.639,0,0,1-1.261-3.406v-.264a5.706,5.706,0,0,1,.549-2.544,4.181,4.181,0,0,1,1.542-1.745A4.078,4.078,0,0,1,15.9-9.686a3.733,3.733,0,0,1,3,1.239A5.24,5.24,0,0,1,19.96-4.939v.861H13.746a2.856,2.856,0,0,0,.787,1.863,2.362,2.362,0,0,0,1.736.686,2.892,2.892,0,0,0,2.391-1.187l1.151,1.1A3.845,3.845,0,0,1,18.286-.294,4.774,4.774,0,0,1,16.146.176Zm-.255-8.147a1.8,1.8,0,0,0-1.419.615,3.189,3.189,0,0,0-.69,1.714h4.069V-5.8a2.6,2.6,0,0,0-.571-1.622A1.785,1.785,0,0,0,15.891-7.972Zm9.633,6.442A1.931,1.931,0,0,0,26.851-2a1.591,1.591,0,0,0,.563-1.151h2.013a3.137,3.137,0,0,1-.554,1.657A3.632,3.632,0,0,1,27.466-.272,4.191,4.191,0,0,1,25.55.176a4.055,4.055,0,0,1-3.164-1.292,5.124,5.124,0,0,1-1.169-3.568V-4.9a5.039,5.039,0,0,1,1.16-3.476,4.018,4.018,0,0,1,3.164-1.305,3.907,3.907,0,0,1,2.764.989,3.542,3.542,0,0,1,1.121,2.6H27.413a1.956,1.956,0,0,0-.558-1.345,1.8,1.8,0,0,0-1.332-.527,1.879,1.879,0,0,0-1.6.751,3.834,3.834,0,0,0-.571,2.281V-4.6a3.9,3.9,0,0,0,.558,2.307A1.878,1.878,0,0,0,25.523-1.529Zm8.191-10.292V-9.51h1.679v1.582H33.715v5.309a1.169,1.169,0,0,0,.215.787,1,1,0,0,0,.769.242,3.29,3.29,0,0,0,.747-.088V-.026a5.26,5.26,0,0,1-1.406.2q-2.461,0-2.461-2.716V-7.928H30.015V-9.51h1.564v-2.312ZM36.36-4.843a5.607,5.607,0,0,1,.554-2.518A4.044,4.044,0,0,1,38.47-9.083a4.383,4.383,0,0,1,2.3-.6A4.154,4.154,0,0,1,43.9-8.446a4.874,4.874,0,0,1,1.3,3.287l.009.5a5.658,5.658,0,0,1-.541,2.514A4,4,0,0,1,43.115-.431,4.415,4.415,0,0,1,40.79.176a4.125,4.125,0,0,1-3.221-1.34A5.133,5.133,0,0,1,36.36-4.737Zm2.136.185a3.832,3.832,0,0,0,.606,2.3,1.971,1.971,0,0,0,1.688.831,1.95,1.95,0,0,0,1.683-.844,4.232,4.232,0,0,0,.6-2.47,3.782,3.782,0,0,0-.62-2.285,1.979,1.979,0,0,0-1.683-.844,1.96,1.96,0,0,0-1.661.831A4.152,4.152,0,0,0,38.5-4.658Zm13.491-2.9a5.285,5.285,0,0,0-.87-.07A1.959,1.959,0,0,0,49.14-6.5V0H47V-9.51h2.039L49.1-8.446A2.406,2.406,0,0,1,51.24-9.686,2,2,0,0,1,52-9.562ZM66.744-11h-3.99V0H60.548V-11H56.593V-12.8H66.744ZM71.622.176A4.419,4.419,0,0,1,68.331-1.1a4.639,4.639,0,0,1-1.261-3.406v-.264a5.706,5.706,0,0,1,.549-2.544,4.181,4.181,0,0,1,1.542-1.745,4.078,4.078,0,0,1,2.215-.624,3.733,3.733,0,0,1,3,1.239,5.24,5.24,0,0,1,1.059,3.507v.861H69.223a2.856,2.856,0,0,0,.787,1.863,2.362,2.362,0,0,0,1.736.686,2.892,2.892,0,0,0,2.391-1.187l1.151,1.1A3.845,3.845,0,0,1,73.762-.294,4.774,4.774,0,0,1,71.622.176Zm-.255-8.147a1.8,1.8,0,0,0-1.419.615,3.189,3.189,0,0,0-.69,1.714h4.069V-5.8a2.6,2.6,0,0,0-.571-1.622A1.785,1.785,0,0,0,71.367-7.972Zm10.705.413a5.285,5.285,0,0,0-.87-.07A1.959,1.959,0,0,0,79.225-6.5V0H77.089V-9.51h2.039l.053,1.063a2.406,2.406,0,0,1,2.145-1.239,2,2,0,0,1,.756.123Zm5.089,6.029A1.931,1.931,0,0,0,88.488-2a1.591,1.591,0,0,0,.563-1.151h2.013A3.137,3.137,0,0,1,90.51-1.49,3.632,3.632,0,0,1,89.1-.272a4.191,4.191,0,0,1-1.916.448,4.055,4.055,0,0,1-3.164-1.292,5.124,5.124,0,0,1-1.169-3.568V-4.9a5.039,5.039,0,0,1,1.16-3.476,4.018,4.018,0,0,1,3.164-1.305,3.907,3.907,0,0,1,2.764.989,3.542,3.542,0,0,1,1.121,2.6H89.051a1.956,1.956,0,0,0-.558-1.345,1.8,1.8,0,0,0-1.332-.527,1.879,1.879,0,0,0-1.6.751,3.834,3.834,0,0,0-.571,2.281V-4.6a3.9,3.9,0,0,0,.558,2.307A1.878,1.878,0,0,0,87.161-1.529ZM94.948,0H92.813V-9.51h2.136ZM92.681-11.988a1.147,1.147,0,0,1,.312-.824,1.173,1.173,0,0,1,.892-.328,1.188,1.188,0,0,1,.9.328,1.138,1.138,0,0,1,.316.824,1.112,1.112,0,0,1-.316.811,1.2,1.2,0,0,1-.9.323,1.182,1.182,0,0,1-.892-.323A1.12,1.12,0,0,1,92.681-11.988ZM102.955,0a3.3,3.3,0,0,1-.246-.888,3.325,3.325,0,0,1-2.5,1.063,3.355,3.355,0,0,1-2.338-.817,2.615,2.615,0,0,1-.905-2.021A2.7,2.7,0,0,1,98.1-5a5.473,5.473,0,0,1,3.23-.813h1.31v-.624a1.666,1.666,0,0,0-.413-1.182,1.638,1.638,0,0,0-1.257-.444,1.881,1.881,0,0,0-1.2.365,1.129,1.129,0,0,0-.466.927H97.172a2.37,2.37,0,0,1,.519-1.463A3.455,3.455,0,0,1,99.1-9.3a4.955,4.955,0,0,1,1.991-.387,3.99,3.99,0,0,1,2.663.839,2.993,2.993,0,0,1,1.02,2.36V-2.2a4.861,4.861,0,0,0,.36,2.048V0Zm-2.347-1.538a2.429,2.429,0,0,0,1.191-.308,2.055,2.055,0,0,0,.839-.826V-4.465h-1.151a3.148,3.148,0,0,0-1.784.413,1.338,1.338,0,0,0-.6,1.169,1.248,1.248,0,0,0,.409.98A1.583,1.583,0,0,0,100.608-1.538ZM111.99-7.559a5.285,5.285,0,0,0-.87-.07A1.959,1.959,0,0,0,109.143-6.5V0h-2.136V-9.51h2.039l.053,1.063a2.406,2.406,0,0,1,2.145-1.239,2,2,0,0,1,.756.123ZM115.611,0h-2.136V-9.51h2.136Zm-2.268-11.988a1.147,1.147,0,0,1,.312-.824,1.173,1.173,0,0,1,.892-.328,1.188,1.188,0,0,1,.9.328,1.138,1.138,0,0,1,.316.824,1.112,1.112,0,0,1-.316.811,1.2,1.2,0,0,1-.9.323,1.182,1.182,0,0,1-.892-.323A1.12,1.12,0,0,1,113.344-11.988Zm4.192,7.146a5.607,5.607,0,0,1,.554-2.518,4.044,4.044,0,0,1,1.556-1.723,4.383,4.383,0,0,1,2.3-.6,4.154,4.154,0,0,1,3.125,1.239,4.874,4.874,0,0,1,1.3,3.287l.009.5a5.658,5.658,0,0,1-.541,2.514,4,4,0,0,1-1.547,1.714,4.415,4.415,0,0,1-2.325.606,4.125,4.125,0,0,1-3.221-1.34,5.133,5.133,0,0,1-1.208-3.573Zm2.136.185a3.832,3.832,0,0,0,.606,2.3,1.971,1.971,0,0,0,1.688.831,1.95,1.95,0,0,0,1.683-.844,4.232,4.232,0,0,0,.6-2.47,3.782,3.782,0,0,0-.62-2.285,1.979,1.979,0,0,0-1.683-.844,1.96,1.96,0,0,0-1.661.831A4.152,4.152,0,0,0,119.672-4.658Z" transform="translate(1020.488 2074.344)"/>
    <g id="Grupo_53849" data-name="Grupo 53849" transform="translate(-2183.247 1354.063)">
      <path id="Trazado_100662" data-name="Trazado 100662" d="M2981.5,672.538l-8.253-3.623,8.233,19.648.02-.04.02.04,8.233-19.648Z" fill="#0075a4"/>
      <rect id="Rectángulo_5206" data-name="Rectángulo 5206" width="3.402" height="42.236" transform="translate(2979.8 630.795)" fill="#0075a4"/>
    </g>
    <g id="Grupo_53850" data-name="Grupo 53850" transform="translate(-2182.5 1354.063)">
      <path id="Trazado_100663" data-name="Trazado 100663" d="M3371.534,672.538l-8.253-3.623,8.233,19.648.02-.04.02.04,8.233-19.648Z" fill="#0075a4"/>
      <rect id="Rectángulo_5207" data-name="Rectángulo 5207" width="3.402" height="72.506" transform="translate(3369.833 600.525)" fill="#0075a4"/>
      <rect id="Rectángulo_5208" data-name="Rectángulo 5208" width="213.085" height="3.402" transform="translate(3160.15 598.824)" fill="#0075a4"/>
    </g>
    <g id="Grupo_53851" data-name="Grupo 53851" transform="translate(-2182.5 1354.063)">
      <path id="Trazado_100664" data-name="Trazado 100664" d="M2595.226,672.538l8.253-3.623-8.233,19.648-.02-.04-.02.04-8.233-19.648Z" fill="#0075a4"/>
      <rect id="Rectángulo_5209" data-name="Rectángulo 5209" width="3.402" height="72.506" transform="translate(2593.525 600.525)" fill="#0075a4"/>
      <rect id="Rectángulo_5210" data-name="Rectángulo 5210" width="213.085" height="3.402" transform="translate(2593.525 598.824)" fill="#0075a4"/>
    </g>
    <g id="Grupo_53852" data-name="Grupo 53852" transform="translate(-2183.247 1354.063)">
      <path id="Trazado_100665" data-name="Trazado 100665" d="M2981.5,794.717l-8.253-3.623,8.233,19.648.02-.04.02.04,8.233-19.648Z" fill="#0075a4"/>
      <rect id="Rectángulo_5211" data-name="Rectángulo 5211" width="3.402" height="42.236" transform="translate(2979.8 752.974)" fill="#0075a4"/>
    </g>
    <g id="Grupo_53854" data-name="Grupo 53854" transform="translate(-2077.5 1354.063)">
      <path id="Trazado_100667" data-name="Trazado 100667" d="M2591.467,794.717l-8.253-3.623,8.233,19.648.02-.04.02.04,8.233-19.648Z" fill="#0075a4"/>
      <rect id="Rectángulo_5213" data-name="Rectángulo 5213" width="3.402" height="42.236" transform="translate(2589.766 752.974)" fill="#0075a4"/>
    </g>
    <path id="Trazado_105676" data-name="Trazado 105676" d="M0,0H249.933V5.978H0Z" transform="translate(674 2183.801)" fill="#ffe8de"/>
    <path id="Trazado_105679" data-name="Trazado 105679" d="M0,0H249.933V5.978H0Z" transform="translate(959 2120.061)" fill="#ffe8de"/>
    <path id="Trazado_105675" data-name="Trazado 105675" d="M3.242,0H1.273V-11.375H3.242ZM7.25-8.453l.055.977A3.039,3.039,0,0,1,9.766-8.609q2.641,0,2.688,3.023V0h-1.9V-5.477a1.741,1.741,0,0,0-.348-1.191A1.462,1.462,0,0,0,9.07-7.055,1.829,1.829,0,0,0,7.359-6.016V0h-1.9V-8.453Zm6.781,4.164a5.026,5.026,0,0,1,.906-3.137,2.9,2.9,0,0,1,2.43-1.184,2.759,2.759,0,0,1,2.172.938V-12h1.9V0H19.719l-.094-.875A2.8,2.8,0,0,1,17.352.156a2.887,2.887,0,0,1-2.4-1.2A5.21,5.21,0,0,1,14.031-4.289Zm1.9.164a3.519,3.519,0,0,0,.5,2.012,1.61,1.61,0,0,0,1.41.723,1.793,1.793,0,0,0,1.7-1.039V-6.039a1.766,1.766,0,0,0-1.687-1.016,1.622,1.622,0,0,0-1.422.73A3.918,3.918,0,0,0,15.93-4.125Zm12.609,3.3a2.944,2.944,0,0,1-2.375.984,2.624,2.624,0,0,1-2.082-.8,3.423,3.423,0,0,1-.707-2.328V-8.453h1.9V-3q0,1.609,1.336,1.609a1.876,1.876,0,0,0,1.867-.992v-6.07h1.9V0H28.586ZM37.047-2.3a.861.861,0,0,0-.418-.773,4.445,4.445,0,0,0-1.387-.469,7.129,7.129,0,0,1-1.617-.516A2.158,2.158,0,0,1,32.2-6.047a2.25,2.25,0,0,1,.922-1.828,3.644,3.644,0,0,1,2.344-.734,3.792,3.792,0,0,1,2.449.75,2.38,2.38,0,0,1,.934,1.945h-1.9a1.17,1.17,0,0,0-.406-.91,1.557,1.557,0,0,0-1.078-.363,1.682,1.682,0,0,0-1.02.289.911.911,0,0,0-.395.773.769.769,0,0,0,.367.68,5.049,5.049,0,0,0,1.484.488,7.027,7.027,0,0,1,1.754.586,2.484,2.484,0,0,1,.945.816A2.082,2.082,0,0,1,38.914-2.4a2.2,2.2,0,0,1-.945,1.848,4.031,4.031,0,0,1-2.477.707,4.371,4.371,0,0,1-1.852-.375A3.047,3.047,0,0,1,32.375-1.25a2.441,2.441,0,0,1-.453-1.414h1.844a1.338,1.338,0,0,0,.508,1.035,1.973,1.973,0,0,0,1.242.363,1.92,1.92,0,0,0,1.141-.285A.883.883,0,0,0,37.047-2.3Zm5.9-8.211v2.055h1.492v1.406H42.945v4.719a1.039,1.039,0,0,0,.191.7.888.888,0,0,0,.684.215,2.924,2.924,0,0,0,.664-.078V-.023a4.676,4.676,0,0,1-1.25.18q-2.187,0-2.187-2.414V-7.047H39.656V-8.453h1.391v-2.055Zm7.367,3.789a4.7,4.7,0,0,0-.773-.062,1.741,1.741,0,0,0-1.758,1V0h-1.9V-8.453H47.7l.047.945a2.139,2.139,0,0,1,1.906-1.1,1.777,1.777,0,0,1,.672.109ZM53.531,0h-1.9V-8.453h1.9ZM51.516-10.656a1.02,1.02,0,0,1,.277-.732,1.043,1.043,0,0,1,.793-.291,1.056,1.056,0,0,1,.8.291,1.012,1.012,0,0,1,.281.732.988.988,0,0,1-.281.72,1.064,1.064,0,0,1-.8.287,1.051,1.051,0,0,1-.793-.287A1,1,0,0,1,51.516-10.656ZM60.648,0a2.93,2.93,0,0,1-.219-.789,2.955,2.955,0,0,1-2.219.945A2.982,2.982,0,0,1,56.133-.57a2.325,2.325,0,0,1-.8-1.8,2.4,2.4,0,0,1,1-2.074A4.865,4.865,0,0,1,59.2-5.164h1.164v-.555A1.481,1.481,0,0,0,60-6.77a1.456,1.456,0,0,0-1.117-.395,1.672,1.672,0,0,0-1.062.324,1,1,0,0,0-.414.824h-1.9a2.107,2.107,0,0,1,.461-1.3,3.071,3.071,0,0,1,1.254-.949,4.4,4.4,0,0,1,1.77-.344,3.547,3.547,0,0,1,2.367.746,2.661,2.661,0,0,1,.906,2.1v3.813a4.321,4.321,0,0,0,.32,1.82V0ZM58.563-1.367a2.16,2.16,0,0,0,1.059-.273,1.827,1.827,0,0,0,.746-.734V-3.969H59.344a2.8,2.8,0,0,0-1.586.367,1.189,1.189,0,0,0-.531,1.039,1.109,1.109,0,0,0,.363.871A1.407,1.407,0,0,0,58.563-1.367ZM70.984-11.375l3.281,8.719,3.273-8.719h2.555V0H78.125V-3.75l.2-5.016L74.961,0H73.547L70.2-8.758l.2,5.008V0H68.422V-11.375ZM87.3,0a2.93,2.93,0,0,1-.219-.789,2.955,2.955,0,0,1-2.219.945A2.982,2.982,0,0,1,82.781-.57a2.325,2.325,0,0,1-.8-1.8,2.4,2.4,0,0,1,1-2.074,4.865,4.865,0,0,1,2.871-.723h1.164v-.555a1.481,1.481,0,0,0-.367-1.051,1.456,1.456,0,0,0-1.117-.395,1.672,1.672,0,0,0-1.062.324,1,1,0,0,0-.414.824h-1.9a2.107,2.107,0,0,1,.461-1.3,3.071,3.071,0,0,1,1.254-.949,4.4,4.4,0,0,1,1.77-.344,3.547,3.547,0,0,1,2.367.746,2.661,2.661,0,0,1,.906,2.1v3.813a4.321,4.321,0,0,0,.32,1.82V0ZM85.211-1.367a2.159,2.159,0,0,0,1.059-.273,1.827,1.827,0,0,0,.746-.734V-3.969H85.992a2.8,2.8,0,0,0-1.586.367,1.189,1.189,0,0,0-.531,1.039,1.109,1.109,0,0,0,.363.871A1.407,1.407,0,0,0,85.211-1.367Zm7.453-7.086.055.977A3.039,3.039,0,0,1,95.18-8.609q2.641,0,2.688,3.023V0h-1.9V-5.477a1.741,1.741,0,0,0-.348-1.191,1.462,1.462,0,0,0-1.137-.387,1.829,1.829,0,0,0-1.711,1.039V0h-1.9V-8.453ZM104.922-.828a2.944,2.944,0,0,1-2.375.984,2.624,2.624,0,0,1-2.082-.8,3.423,3.423,0,0,1-.707-2.328V-8.453h1.9V-3q0,1.609,1.336,1.609a1.876,1.876,0,0,0,1.867-.992v-6.07h1.9V0h-1.789ZM109.359,0V-7.047H108.07V-8.453h1.289v-.773a2.9,2.9,0,0,1,.781-2.172,2.993,2.993,0,0,1,2.188-.766,4.388,4.388,0,0,1,1.063.141l-.047,1.484a3.739,3.739,0,0,0-.727-.062,1.219,1.219,0,0,0-1.359,1.4v.75h1.719v1.406h-1.719V0Zm10.055,0a2.93,2.93,0,0,1-.219-.789,2.955,2.955,0,0,1-2.219.945A2.982,2.982,0,0,1,114.9-.57a2.325,2.325,0,0,1-.8-1.8,2.4,2.4,0,0,1,1-2.074,4.865,4.865,0,0,1,2.871-.723h1.164v-.555a1.481,1.481,0,0,0-.367-1.051,1.456,1.456,0,0,0-1.117-.395,1.672,1.672,0,0,0-1.062.324,1,1,0,0,0-.414.824h-1.9a2.107,2.107,0,0,1,.461-1.3,3.071,3.071,0,0,1,1.254-.949,4.4,4.4,0,0,1,1.77-.344,3.547,3.547,0,0,1,2.367.746,2.661,2.661,0,0,1,.906,2.1v3.813a4.321,4.321,0,0,0,.32,1.82V0Zm-2.086-1.367a2.159,2.159,0,0,0,1.059-.273,1.827,1.827,0,0,0,.746-.734V-3.969h-1.023a2.8,2.8,0,0,0-1.586.367,1.189,1.189,0,0,0-.531,1.039,1.109,1.109,0,0,0,.363.871A1.407,1.407,0,0,0,117.328-1.367Zm9.164.008a1.716,1.716,0,0,0,1.18-.414,1.415,1.415,0,0,0,.5-1.023h1.789a2.788,2.788,0,0,1-.492,1.473,3.228,3.228,0,0,1-1.25,1.082,3.725,3.725,0,0,1-1.7.4A3.6,3.6,0,0,1,123.7-.992a4.555,4.555,0,0,1-1.039-3.172v-.2a4.479,4.479,0,0,1,1.031-3.09,3.571,3.571,0,0,1,2.813-1.16,3.473,3.473,0,0,1,2.457.879,3.148,3.148,0,0,1,1,2.309h-1.789a1.738,1.738,0,0,0-.5-1.2,1.6,1.6,0,0,0-1.184-.469,1.671,1.671,0,0,0-1.422.668,3.408,3.408,0,0,0-.508,2.027v.3a3.465,3.465,0,0,0,.5,2.051A1.669,1.669,0,0,0,126.492-1.359Zm7.281-9.148v2.055h1.492v1.406h-1.492v4.719a1.039,1.039,0,0,0,.191.7.888.888,0,0,0,.684.215,2.924,2.924,0,0,0,.664-.078V-.023a4.676,4.676,0,0,1-1.25.18q-2.187,0-2.187-2.414V-7.047h-1.391V-8.453h1.391v-2.055Zm8.063,9.68a2.944,2.944,0,0,1-2.375.984,2.624,2.624,0,0,1-2.082-.8,3.423,3.423,0,0,1-.707-2.328V-8.453h1.9V-3q0,1.609,1.336,1.609a1.876,1.876,0,0,0,1.867-.992v-6.07h1.9V0h-1.789Zm8.2-5.891a4.7,4.7,0,0,0-.773-.062,1.741,1.741,0,0,0-1.758,1V0h-1.9V-8.453h1.813l.047.945a2.139,2.139,0,0,1,1.906-1.1,1.777,1.777,0,0,1,.672.109ZM156.047,0a2.93,2.93,0,0,1-.219-.789,2.955,2.955,0,0,1-2.219.945,2.982,2.982,0,0,1-2.078-.727,2.325,2.325,0,0,1-.8-1.8,2.4,2.4,0,0,1,1-2.074,4.865,4.865,0,0,1,2.871-.723h1.164v-.555A1.481,1.481,0,0,0,155.4-6.77a1.456,1.456,0,0,0-1.117-.395,1.672,1.672,0,0,0-1.062.324,1,1,0,0,0-.414.824h-1.9a2.107,2.107,0,0,1,.461-1.3,3.071,3.071,0,0,1,1.254-.949,4.4,4.4,0,0,1,1.77-.344,3.547,3.547,0,0,1,2.367.746,2.661,2.661,0,0,1,.906,2.1v3.813a4.321,4.321,0,0,0,.32,1.82V0Zm-2.086-1.367a2.16,2.16,0,0,0,1.059-.273,1.827,1.827,0,0,0,.746-.734V-3.969h-1.023a2.8,2.8,0,0,0-1.586.367,1.189,1.189,0,0,0-.531,1.039,1.109,1.109,0,0,0,.363.871A1.407,1.407,0,0,0,153.961-1.367Z" transform="translate(719 2214.063)" fill="#0075a4"/>
    <path id="Trazado_105677" data-name="Trazado 105677" d="M3.242,0H1.273V-11.375H3.242ZM7.25-8.453l.055.977A3.039,3.039,0,0,1,9.766-8.609q2.641,0,2.688,3.023V0h-1.9V-5.477a1.741,1.741,0,0,0-.348-1.191A1.462,1.462,0,0,0,9.07-7.055,1.829,1.829,0,0,0,7.359-6.016V0h-1.9V-8.453Zm6.781,4.164a5.026,5.026,0,0,1,.906-3.137,2.9,2.9,0,0,1,2.43-1.184,2.759,2.759,0,0,1,2.172.938V-12h1.9V0H19.719l-.094-.875A2.8,2.8,0,0,1,17.352.156a2.887,2.887,0,0,1-2.4-1.2A5.21,5.21,0,0,1,14.031-4.289Zm1.9.164a3.519,3.519,0,0,0,.5,2.012,1.61,1.61,0,0,0,1.41.723,1.793,1.793,0,0,0,1.7-1.039V-6.039a1.766,1.766,0,0,0-1.687-1.016,1.622,1.622,0,0,0-1.422.73A3.918,3.918,0,0,0,15.93-4.125Zm12.609,3.3a2.944,2.944,0,0,1-2.375.984,2.624,2.624,0,0,1-2.082-.8,3.423,3.423,0,0,1-.707-2.328V-8.453h1.9V-3q0,1.609,1.336,1.609a1.876,1.876,0,0,0,1.867-.992v-6.07h1.9V0H28.586ZM37.047-2.3a.861.861,0,0,0-.418-.773,4.445,4.445,0,0,0-1.387-.469,7.129,7.129,0,0,1-1.617-.516A2.158,2.158,0,0,1,32.2-6.047a2.25,2.25,0,0,1,.922-1.828,3.644,3.644,0,0,1,2.344-.734,3.792,3.792,0,0,1,2.449.75,2.38,2.38,0,0,1,.934,1.945h-1.9a1.17,1.17,0,0,0-.406-.91,1.557,1.557,0,0,0-1.078-.363,1.682,1.682,0,0,0-1.02.289.911.911,0,0,0-.395.773.769.769,0,0,0,.367.68,5.049,5.049,0,0,0,1.484.488,7.027,7.027,0,0,1,1.754.586,2.484,2.484,0,0,1,.945.816A2.082,2.082,0,0,1,38.914-2.4a2.2,2.2,0,0,1-.945,1.848,4.031,4.031,0,0,1-2.477.707,4.371,4.371,0,0,1-1.852-.375A3.047,3.047,0,0,1,32.375-1.25a2.441,2.441,0,0,1-.453-1.414h1.844a1.338,1.338,0,0,0,.508,1.035,1.973,1.973,0,0,0,1.242.363,1.92,1.92,0,0,0,1.141-.285A.883.883,0,0,0,37.047-2.3Zm5.9-8.211v2.055h1.492v1.406H42.945v4.719a1.039,1.039,0,0,0,.191.7.888.888,0,0,0,.684.215,2.924,2.924,0,0,0,.664-.078V-.023a4.676,4.676,0,0,1-1.25.18q-2.187,0-2.187-2.414V-7.047H39.656V-8.453h1.391v-2.055Zm7.367,3.789a4.7,4.7,0,0,0-.773-.062,1.741,1.741,0,0,0-1.758,1V0h-1.9V-8.453H47.7l.047.945a2.139,2.139,0,0,1,1.906-1.1,1.777,1.777,0,0,1,.672.109ZM53.531,0h-1.9V-8.453h1.9ZM51.516-10.656a1.02,1.02,0,0,1,.277-.732,1.043,1.043,0,0,1,.793-.291,1.056,1.056,0,0,1,.8.291,1.012,1.012,0,0,1,.281.732.988.988,0,0,1-.281.72,1.064,1.064,0,0,1-.8.287,1.051,1.051,0,0,1-.793-.287A1,1,0,0,1,51.516-10.656ZM60.648,0a2.93,2.93,0,0,1-.219-.789,2.955,2.955,0,0,1-2.219.945A2.982,2.982,0,0,1,56.133-.57a2.325,2.325,0,0,1-.8-1.8,2.4,2.4,0,0,1,1-2.074A4.865,4.865,0,0,1,59.2-5.164h1.164v-.555A1.481,1.481,0,0,0,60-6.77a1.456,1.456,0,0,0-1.117-.395,1.672,1.672,0,0,0-1.062.324,1,1,0,0,0-.414.824h-1.9a2.107,2.107,0,0,1,.461-1.3,3.071,3.071,0,0,1,1.254-.949,4.4,4.4,0,0,1,1.77-.344,3.547,3.547,0,0,1,2.367.746,2.661,2.661,0,0,1,.906,2.1v3.813a4.321,4.321,0,0,0,.32,1.82V0ZM58.563-1.367a2.16,2.16,0,0,0,1.059-.273,1.827,1.827,0,0,0,.746-.734V-3.969H59.344a2.8,2.8,0,0,0-1.586.367,1.189,1.189,0,0,0-.531,1.039,1.109,1.109,0,0,0,.363.871A1.407,1.407,0,0,0,58.563-1.367Z" transform="translate(1053 2150.922)" fill="#0075a4"/>
    <g id="Grupo_53877" data-name="Grupo 53877" transform="translate(-2280.506 1268.869)">
      <text id="Comercio_Servicios_públicos_Transporte_Créditos_seguros_y_finanzas_Turismo_Otros" data-name="Comercio
Servicios públicos 
Transporte 
Créditos, seguros y finanzas
Turismo 
Otros" transform="translate(3268.059 910.937)" font-size="16" font-family="Roboto-Medium, Roboto" font-weight="500"><tspan x="0" y="0">Comercio</tspan><tspan x="0" y="22">Servicios públicos </tspan><tspan x="0" y="44">Transporte </tspan><tspan x="0" y="66">Créditos, seguros y finanzas</tspan><tspan x="0" y="88">Turismo </tspan><tspan x="0" y="110">Otros</tspan></text>
      <circle id="Elipse_4054" data-name="Elipse 4054" cx="3.047" cy="3.047" r="3.047" transform="translate(3256.505 903.992)" fill="#25ced1"/>
      <circle id="Elipse_4055" data-name="Elipse 4055" cx="3.047" cy="3.047" r="3.047" transform="translate(3256.505 925.984)" fill="#25ced1"/>
      <circle id="Elipse_4056" data-name="Elipse 4056" cx="3.047" cy="3.047" r="3.047" transform="translate(3256.505 947.977)" fill="#25ced1"/>
      <circle id="Elipse_4057" data-name="Elipse 4057" cx="3.047" cy="3.047" r="3.047" transform="translate(3256.505 968.489)" fill="#25ced1"/>
      <circle id="Elipse_4058" data-name="Elipse 4058" cx="3.047" cy="3.047" r="3.047" transform="translate(3256.505 990.481)" fill="#25ced1"/>
      <circle id="Elipse_4059" data-name="Elipse 4059" cx="3.047" cy="3.047" r="3.047" transform="translate(3256.505 1012.592)" fill="#25ced1"/>
    </g>
    <g id="Grupo_53855" data-name="Grupo 53855" transform="translate(-2058.566 1354.063)">
      <rect id="Rectángulo_5216" data-name="Rectángulo 5216" width="4.033" height="4.033" transform="translate(2614.438 952.547)" fill="#25ced1"/>
      <rect id="Rectángulo_5217" data-name="Rectángulo 5217" width="4.033" height="4.033" transform="translate(2614.438 968.681)" fill="#25ced1"/>
      <rect id="Rectángulo_5218" data-name="Rectángulo 5218" width="4.033" height="4.033" transform="translate(2614.438 984.815)" fill="#25ced1"/>
      <path id="Trazado_100668" data-name="Trazado 100668" d="M2630.571,936.413h-9.041a28.09,28.09,0,0,0-6.471-12.7,17.714,17.714,0,0,0-5.012-3.933,14.1,14.1,0,0,0,6.093-11.6v-2.017h-10.084a14.109,14.109,0,0,0-12.1,6.883v-4.866a8.075,8.075,0,0,1,8.066-8.067v-4.034a12.113,12.113,0,0,0-12.1,12.1v11.19a15.627,15.627,0,0,0-16.965,4.223c-.518.577-1,1.176-1.47,1.789l.176-.841a20.7,20.7,0,0,0,.424-4.261,20.1,20.1,0,0,0-6.129-14.45l7.071-10.406a6.548,6.548,0,0,0,.416-.712,6.252,6.252,0,0,0-2.793-8.377l-.5-.252a6.248,6.248,0,0,0-8.394,2.821,6.075,6.075,0,0,0-.284.664l-4.111,11.309c-.279-.078-.561-.151-.844-.217l1.424-14.256a5.335,5.335,0,0,0,.032-.6,5.866,5.866,0,0,0-5.859-5.858h-.38a5.867,5.867,0,0,0-5.861,5.858,5.448,5.448,0,0,0,.031.585l1.426,14.275c-.285.066-.565.139-.844.217l-4.109-11.307a6.808,6.808,0,0,0-.3-.7,6.245,6.245,0,0,0-8.378-2.793l-.5.252a6.258,6.258,0,0,0-2.788,8.385,6.878,6.878,0,0,0,.415.708l7.075,10.412a20.338,20.338,0,0,0-5.713,18.7l2.474,11.875h-2.9a4.038,4.038,0,0,0-4.033,4.033v.162a14.089,14.089,0,0,0-2.017-.162h-10.083v2.017a14.1,14.1,0,0,0,6.092,11.6A17.6,17.6,0,0,0,2516.7,958a28.232,28.232,0,0,0,21.091,46.986c.378,0,.752-.008,1.131-.023a28.124,28.124,0,0,0,18.561-8.044h58.974a10.1,10.1,0,0,0,10.083-10.084V948.514h4.033a4.038,4.038,0,0,0,4.033-4.034v-4.033A4.038,4.038,0,0,0,2630.571,936.413ZM2606.055,910.2h5.847a10.1,10.1,0,0,1-9.88,8.067h-5.846A10.1,10.1,0,0,1,2606.055,910.2Zm-30.1,16.093a11.781,11.781,0,0,1,13.218-2.93c.242.1.5.184.75.271v4.306a14.843,14.843,0,0,1-4.626-3.035l-2.849,2.856c.472.473,4.759,4.624,9.492,4.624s9.021-4.151,9.493-4.624l-2.849-2.856a14.908,14.908,0,0,1-4.626,3.035V922.3h8.066a13.912,13.912,0,0,0,2.007-.159,12.357,12.357,0,0,1,8.017,4.256,24.059,24.059,0,0,1,5.335,10.021h-46.849A24.077,24.077,0,0,1,2575.954,926.289Zm-10.695-35.347a2.325,2.325,0,0,1,.116-.264,2.209,2.209,0,0,1,2.967-.988l.5.252a2.216,2.216,0,0,1,.841,3.219l-6.9,10.156q-.812-.523-1.676-.968ZM2549.9,885.8a1.827,1.827,0,0,1,1.825-1.825h.381a1.862,1.862,0,0,1,1.815,2.007l-1.416,14.157c-.2-.006-.389-.03-.589-.03s-.394.024-.591.03Zm-15.749,7.364a2.213,2.213,0,0,1,.837-3.225l.5-.252a2.2,2.2,0,0,1,1.688-.121,2.23,2.23,0,0,1,1.3,1.148,1.86,1.86,0,0,1,.1.228l4.149,11.409q-.862.445-1.675.968Zm17.765,10.979a16.267,16.267,0,0,1,15.795,19.57l-2.646,12.7H2542.6a7.991,7.991,0,0,1,5.28-2.017v-4.034a12.08,12.08,0,0,0-9.432,4.538l-2.331-11.185a16.746,16.746,0,0,1-.337-3.436A16.152,16.152,0,0,1,2551.918,904.145Zm-20.167,36.3h4.215a12.074,12.074,0,0,0-.181,2.017V944.7a14.142,14.142,0,0,0-4.034-2.874Zm-6.051,4.033a10.1,10.1,0,0,1,9.88,8.067h-5.846a10.1,10.1,0,0,1-9.88-8.067Zm13.064,56.45a24.2,24.2,0,0,1-19.056-40.254,12.342,12.342,0,0,1,8.018-4.256,13.927,13.927,0,0,0,2.007.16h6.051v5.639a14.835,14.835,0,0,1-4.626-3.035l-2.851,2.856c.473.474,4.76,4.624,9.493,4.624s9.02-4.15,9.493-4.624l-2.849-2.856a14.913,14.913,0,0,1-4.626,3.035v-3.8a11.726,11.726,0,0,0,2.766-.779,11.774,11.774,0,0,1,13.216,2.931,24.2,24.2,0,0,1-17.036,40.356ZM2566,976.748a28.086,28.086,0,0,0-2.687-12.1H2622.5v12.1Zm50.451,16.134h-55.535a28.038,28.038,0,0,0,4.826-12.1H2622.5v6.05A6.057,6.057,0,0,1,2616.454,992.882Zm14.116-48.4H2622.5v16.134h-61.56a28.311,28.311,0,0,0-2.144-2.736,15.664,15.664,0,0,0-17.8-3.941,7.851,7.851,0,0,1-1.18.361v-5.784h78.653V944.48h-78.654v-2.017a7.918,7.918,0,0,1,.286-2.017h90.466Z" transform="translate(0 0)" fill="#25ced1"/>
      <path id="Trazado_100669" data-name="Trazado 100669" d="M2523.588,999.8h-4.034a20.19,20.19,0,0,0,20.168,20.167v-4.033A16.153,16.153,0,0,1,2523.588,999.8Z" transform="translate(-1.921 -23.05)" fill="#25ced1"/>
      <rect id="Rectángulo_5219" data-name="Rectángulo 5219" width="4.033" height="4.033" transform="translate(2557.969 912.212)" fill="#25ced1"/>
      <rect id="Rectángulo_5220" data-name="Rectángulo 5220" width="4.033" height="4.033" transform="translate(2557.969 920.279)" fill="#25ced1"/>
      <rect id="Rectángulo_5221" data-name="Rectángulo 5221" width="4.033" height="4.033" transform="translate(2557.969 928.346)" fill="#25ced1"/>
    </g>
    <g id="Grupo_53878" data-name="Grupo 53878" transform="translate(-2147.547 1360.104)">
      <g id="Grupo_53857" data-name="Grupo 53857" transform="translate(2886.547 911.618)">
        <g id="Grupo_53856" data-name="Grupo 53856">
          <path id="Trazado_100670" data-name="Trazado 100670" d="M3003.8,1006.084h-5.71v-23.96a5.466,5.466,0,0,0-3.606-9.576h-11.4l-1.761-28.176a1.743,1.743,0,0,0-1.74-1.635h-7.452a1.743,1.743,0,0,0-1.74,1.635l-1.761,28.176h-4.178l-1.76-28.176a1.744,1.744,0,0,0-1.74-1.635H2953.5a1.743,1.743,0,0,0-1.74,1.635L2950,972.548h-4.177l-1.761-28.176a1.744,1.744,0,0,0-1.74-1.635h-7.453a1.743,1.743,0,0,0-1.74,1.635l-1.761,28.176h-4.855l-1.08-48.6a1.743,1.743,0,0,0-1.742-1.7h-11.179a1.743,1.743,0,0,0-1.743,1.7L2909.523,980h-13.78a5.465,5.465,0,0,0-3.607,9.576v16.508h-3.846a1.743,1.743,0,1,0,0,3.486H3003.8a1.743,1.743,0,1,0,0-3.486Zm-94.447-18.631H2903.2a1.743,1.743,0,1,0,0,3.486h6.084l-.337,15.145h-13.32V990.936l.12,0a1.743,1.743,0,0,0,0-3.486,1.983,1.983,0,1,1,0-3.966h13.7Zm64.411-41.229h4.177l1.645,26.324h-7.468Zm-18.631,0h4.177l1.646,26.324h-7.468Zm-18.631,0h4.177l1.645,26.324h-7.468Zm-20.149,59.86h-3.927l1.785-80.355h7.769l1.041,46.818h-3.062a5.466,5.466,0,0,0-3.606,9.576ZM2994.488,980h-3.726a1.743,1.743,0,0,0,0,3.486h3.726l.121,0v22.6h-74.765v-22.6l.12,0h63.347a1.743,1.743,0,1,0,0-3.486h-63.347a1.983,1.983,0,1,1,0-3.966h74.524a1.983,1.983,0,1,1,0,3.966Z" transform="translate(-2886.547 -922.244)" fill="#25ced1"/>
        </g>
      </g>
      <g id="Grupo_53859" data-name="Grupo 53859" transform="translate(2914.493 879.945)">
        <g id="Grupo_53858" data-name="Grupo 53858">
          <path id="Trazado_100671" data-name="Trazado 100671" d="M2992.685,879.945a22.092,22.092,0,0,0-14.259,5.191,16.591,16.591,0,0,0-21.623,1.456,12.9,12.9,0,0,0-16.937,6.69,7.909,7.909,0,0,0-2.143-.3,8.257,8.257,0,0,0-7.8,5.622,5.319,5.319,0,0,0-.58-.032,5.476,5.476,0,0,0-5.47,5.469,1.743,1.743,0,1,0,3.486,0,1.986,1.986,0,0,1,1.984-1.984,1.946,1.946,0,0,1,1.008.291,1.744,1.744,0,0,0,2.635-1.391,4.769,4.769,0,0,1,4.74-4.49,4.7,4.7,0,0,1,2.324.636,1.743,1.743,0,0,0,2.541-1.073,9.413,9.413,0,0,1,13.743-5.793,1.743,1.743,0,0,0,2.178-.377,13.114,13.114,0,0,1,18.793-1.14,1.743,1.743,0,0,0,2.382-.035,18.739,18.739,0,1,1-3.467,22.462,1.744,1.744,0,0,0-2.26-.748,13.1,13.1,0,0,1-15.449-3.358,1.743,1.743,0,0,0-2.177-.378,9.4,9.4,0,0,1-12.113-2.477,1.745,1.745,0,0,0-1.374-.682h-.008a1.744,1.744,0,0,0-1.372.668,4.743,4.743,0,0,1-3.741,1.85,1.743,1.743,0,1,0,0,3.486,8.147,8.147,0,0,0,5.036-1.737,12.884,12.884,0,0,0,14.043,2.544,16.624,16.624,0,0,0,11.661,4.783,16.427,16.427,0,0,0,5.487-.939,22.238,22.238,0,1,0,18.733-34.22Z" transform="translate(-2923.869 -879.945)" fill="#25ced1"/>
        </g>
      </g>
      <g id="Grupo_53861" data-name="Grupo 53861" transform="translate(2929.399 976.827)">
        <g id="Grupo_53860" data-name="Grupo 53860">
          <path id="Trazado_100672" data-name="Trazado 100672" d="M2945.518,1009.329a1.743,1.743,0,0,0-1.743,1.743v3.726a1.743,1.743,0,1,0,3.486,0v-3.726A1.743,1.743,0,0,0,2945.518,1009.329Z" transform="translate(-2943.775 -1009.329)" fill="#25ced1"/>
        </g>
      </g>
      <g id="Grupo_53863" data-name="Grupo 53863" transform="translate(2936.852 976.827)">
        <g id="Grupo_53862" data-name="Grupo 53862">
          <path id="Trazado_100673" data-name="Trazado 100673" d="M2955.471,1009.329a1.743,1.743,0,0,0-1.743,1.743v3.726a1.743,1.743,0,0,0,3.487,0v-3.726A1.744,1.744,0,0,0,2955.471,1009.329Z" transform="translate(-2953.728 -1009.329)" fill="#25ced1"/>
        </g>
      </g>
      <g id="Grupo_53865" data-name="Grupo 53865" transform="translate(2944.304 976.827)">
        <g id="Grupo_53864" data-name="Grupo 53864">
          <path id="Trazado_100674" data-name="Trazado 100674" d="M2965.423,1009.329a1.743,1.743,0,0,0-1.743,1.743v3.726a1.743,1.743,0,1,0,3.486,0v-3.726A1.743,1.743,0,0,0,2965.423,1009.329Z" transform="translate(-2963.68 -1009.329)" fill="#25ced1"/>
        </g>
      </g>
      <g id="Grupo_53867" data-name="Grupo 53867" transform="translate(2951.757 976.827)">
        <g id="Grupo_53866" data-name="Grupo 53866">
          <path id="Trazado_100675" data-name="Trazado 100675" d="M2975.376,1009.329a1.743,1.743,0,0,0-1.743,1.743v3.726a1.743,1.743,0,1,0,3.486,0v-3.726A1.743,1.743,0,0,0,2975.376,1009.329Z" transform="translate(-2973.633 -1009.329)" fill="#25ced1"/>
        </g>
      </g>
      <g id="Grupo_53869" data-name="Grupo 53869" transform="translate(2959.208 976.827)">
        <g id="Grupo_53868" data-name="Grupo 53868">
          <path id="Trazado_100676" data-name="Trazado 100676" d="M2985.328,1009.329a1.743,1.743,0,0,0-1.743,1.743v3.726a1.743,1.743,0,1,0,3.486,0v-3.726A1.743,1.743,0,0,0,2985.328,1009.329Z" transform="translate(-2983.585 -1009.329)" fill="#25ced1"/>
        </g>
      </g>
      <g id="Grupo_53871" data-name="Grupo 53871" transform="translate(2966.662 976.827)">
        <g id="Grupo_53870" data-name="Grupo 53870">
          <path id="Trazado_100677" data-name="Trazado 100677" d="M2995.281,1009.329a1.743,1.743,0,0,0-1.743,1.743v3.726a1.743,1.743,0,0,0,3.487,0v-3.726A1.743,1.743,0,0,0,2995.281,1009.329Z" transform="translate(-2993.538 -1009.329)" fill="#25ced1"/>
        </g>
      </g>
      <g id="Grupo_53873" data-name="Grupo 53873" transform="translate(2974.114 976.827)">
        <g id="Grupo_53872" data-name="Grupo 53872">
          <path id="Trazado_100678" data-name="Trazado 100678" d="M3005.234,1009.329a1.743,1.743,0,0,0-1.743,1.743v3.726a1.743,1.743,0,0,0,3.486,0v-3.726A1.744,1.744,0,0,0,3005.234,1009.329Z" transform="translate(-3003.491 -1009.329)" fill="#25ced1"/>
        </g>
      </g>
      <g id="Grupo_53875" data-name="Grupo 53875" transform="translate(2981.566 976.827)">
        <g id="Grupo_53874" data-name="Grupo 53874">
          <path id="Trazado_100679" data-name="Trazado 100679" d="M3015.186,1009.329a1.743,1.743,0,0,0-1.743,1.743v3.726a1.743,1.743,0,0,0,3.487,0v-3.726A1.743,1.743,0,0,0,3015.186,1009.329Z" transform="translate(-3013.443 -1009.329)" fill="#25ced1"/>
        </g>
      </g>
    </g>
    <g id="Grupo_53879" data-name="Grupo 53879" transform="translate(-2288.931 1149.116)">
      <g id="Grupo_53880" data-name="Grupo 53880" transform="translate(3332.99 1144.69)">
        <g id="Grupo_53879-2" data-name="Grupo 53879">
          <path id="Trazado_100680" data-name="Trazado 100680" d="M3416.07,1145.372a1.9,1.9,0,0,0-2.56-.334l-18.032,14.359-23.264-9.684a1.776,1.776,0,0,0-1.669.223l-24.934,17.81a1.779,1.779,0,0,0-.445,2.449,1.622,1.622,0,0,0,1.447.779,1.8,1.8,0,0,0,1-.334l24.155-17.253,23.375,9.684a2,2,0,0,0,1.781-.223l18.812-14.916A1.9,1.9,0,0,0,3416.07,1145.372Z" transform="translate(-3344.856 -1144.69)" fill="#25ced1"/>
        </g>
      </g>
      <g id="Grupo_53882" data-name="Grupo 53882" transform="translate(3313.931 1153.052)">
        <g id="Grupo_53881" data-name="Grupo 53881" transform="translate(0 0)">
          <path id="Trazado_100681" data-name="Trazado 100681" d="M3430.25,1211.576h-8.237v-51.537a1.758,1.758,0,0,0-1.781-1.781H3403.87a1.758,1.758,0,0,0-1.781,1.781v51.537h-6.011v-33.727a1.758,1.758,0,0,0-1.781-1.781h-16.474a1.759,1.759,0,0,0-1.781,1.781v33.727h-6.011v-36.4a1.758,1.758,0,0,0-1.78-1.781h-16.363a1.758,1.758,0,0,0-1.78,1.781v36.4H3344.1v-25.935a1.758,1.758,0,0,0-1.78-1.781h-16.474a1.759,1.759,0,0,0-1.781,1.781v25.935h-8.348a1.781,1.781,0,0,0,0,3.562h114.427a1.758,1.758,0,0,0,1.781-1.781A1.607,1.607,0,0,0,3430.25,1211.576Zm-89.828,0h-12.8v-24.154h12.8Zm26.047,0h-12.8v-34.618h12.8Zm25.936,0h-12.8V1179.63h12.8Zm26.046,0h-12.8V1161.82h12.8Z" transform="translate(-3313.931 -1158.258)" fill="#25ced1"/>
        </g>
      </g>
    </g>
  </g>
</svg>
