<svg xmlns="http://www.w3.org/2000/svg" width="820.944" height="356.923" viewBox="0 0 820.944 356.923">
  <g id="Grupo_57928" data-name="Grupo 57928" transform="translate(-390 -822.703)">
    <path id="Trazado_105713" data-name="Trazado 105713" d="M0,0H174.236V42.331H0Z" transform="translate(714.157 1024.379)" fill="#468ca5"/>
    <path id="Trazado_105714" data-name="Trazado 105714" d="M.672-.528,1.04-1.7a4.515,4.515,0,0,0,2.48.7,2.5,2.5,0,0,0,1.656-.5,1.658,1.658,0,0,0,.6-1.336A1.69,1.69,0,0,0,5.3-4.056a4.344,4.344,0,0,0-1.56-.9Q.9-6,.9-8.032a2.64,2.64,0,0,1,.968-2.1,3.753,3.753,0,0,1,2.52-.824,4.636,4.636,0,0,1,2.368.528L6.368-9.3a3.806,3.806,0,0,0-2.032-.512,2.125,2.125,0,0,0-1.52.488A1.515,1.515,0,0,0,2.3-8.192a1.531,1.531,0,0,0,.488,1.184,5.382,5.382,0,0,0,1.656.9A5.357,5.357,0,0,1,6.52-4.832a2.711,2.711,0,0,1,.664,1.888A2.908,2.908,0,0,1,6.216-.72a3.965,3.965,0,0,1-2.792.9,6.073,6.073,0,0,1-1.536-.2A3.954,3.954,0,0,1,.672-.528ZM15.536-7.744v5.616q0,1.312.064,2.128H14.352l-.08-1.264H14.24a2.919,2.919,0,0,1-.976,1.008A2.816,2.816,0,0,1,11.68.176a2.718,2.718,0,0,1-.936-.16A2.662,2.662,0,0,1,9.9-.5,2.432,2.432,0,0,1,9.248-1.56a5.1,5.1,0,0,1-.24-1.656V-7.744h1.408v4.272q0,2.48,1.728,2.48A1.829,1.829,0,0,0,13.3-1.376a2.138,2.138,0,0,0,.7-.912,1.848,1.848,0,0,0,.128-.72V-7.744ZM17.872-2v-9.36h1.392V-6.5H19.3A2.819,2.819,0,0,1,21.936-7.9a2.936,2.936,0,0,1,2.368,1.1,4.292,4.292,0,0,1,.912,2.84A4.25,4.25,0,0,1,24.176-.92a3.268,3.268,0,0,1-2.448,1.1,2.82,2.82,0,0,1-2.608-1.44h-.032L19.008,0h-1.2Q17.872-1.056,17.872-2Zm1.392-2.48V-3.1a1.762,1.762,0,0,0,.064.512A2.178,2.178,0,0,0,20.1-1.4a2.1,2.1,0,0,0,1.344.456,2.054,2.054,0,0,0,1.728-.816,3.464,3.464,0,0,0,.624-2.16,3.338,3.338,0,0,0-.616-2.056,2.009,2.009,0,0,0-1.7-.824,2.087,2.087,0,0,0-1.32.472,2.3,2.3,0,0,0-.808,1.256A2.2,2.2,0,0,0,19.264-4.48ZM29.68-4.832h3.952v1.024H29.68Zm8.992,8V-5.216q0-1.056-.064-2.528h1.248l.08,1.328h.032A2.969,2.969,0,0,1,42.72-7.9a2.981,2.981,0,0,1,2.36,1.088,4.189,4.189,0,0,1,.936,2.832A4.289,4.289,0,0,1,44.984-.912,3.323,3.323,0,0,1,42.48.176a3.054,3.054,0,0,1-1.4-.32,2.391,2.391,0,0,1-.984-.9h-.032V3.168ZM40.064-4.5v1.344a2.259,2.259,0,0,0,.064.576A2.162,2.162,0,0,0,40.9-1.384a2.112,2.112,0,0,0,1.336.456,2.054,2.054,0,0,0,1.728-.816,3.492,3.492,0,0,0,.624-2.176,3.311,3.311,0,0,0-.616-2.04,1.993,1.993,0,0,0-1.688-.824,2.108,2.108,0,0,0-1.336.472,2.219,2.219,0,0,0-.792,1.256A2.261,2.261,0,0,0,40.064-4.5ZM47.776,0V-5.328q0-1.456-.064-2.416h1.232l.064,1.536h.048A2.545,2.545,0,0,1,49.9-7.44,2.077,2.077,0,0,1,51.216-7.9a3.4,3.4,0,0,1,.384.032v1.328a2.494,2.494,0,0,0-.48-.032,1.7,1.7,0,0,0-1.24.5,2.346,2.346,0,0,0-.648,1.3,4.021,4.021,0,0,0-.048.656V0Zm8.352-7.9a3.52,3.52,0,0,1,2.7,1.1,4.025,4.025,0,0,1,1.032,2.864A3.938,3.938,0,0,1,58.7-.88,3.873,3.873,0,0,1,56,.176a3.534,3.534,0,0,1-2.656-1.1,3.987,3.987,0,0,1-1.056-2.888,4.066,4.066,0,0,1,1.1-2.984A3.7,3.7,0,0,1,56.128-7.9Zm1.7,1.968A1.928,1.928,0,0,0,56.1-6.848a2,2,0,0,0-1.76.888,3.633,3.633,0,0,0-.608,2.1,3.374,3.374,0,0,0,.656,2.128,2.034,2.034,0,0,0,1.68.848,2.056,2.056,0,0,0,1.68-.856,3.379,3.379,0,0,0,.672-2.152A3.717,3.717,0,0,0,57.832-5.936Zm9.08-5.424H68.3V-2q0,.944.064,2H67.12l-.064-1.344h-.048A2.58,2.58,0,0,1,66-.248a2.987,2.987,0,0,1-1.6.424,3.019,3.019,0,0,1-2.376-1.1,4.175,4.175,0,0,1-.952-2.84,4.285,4.285,0,0,1,1-3.008A3.2,3.2,0,0,1,64.544-7.9a2.921,2.921,0,0,1,1.448.336,2.279,2.279,0,0,1,.888.832h.032Zm0,8.112V-4.592a2.335,2.335,0,0,0-.064-.592,2.089,2.089,0,0,0-.712-1.152,1.985,1.985,0,0,0-1.32-.464,2,2,0,0,0-1.7.84A3.486,3.486,0,0,0,62.5-3.824a3.365,3.365,0,0,0,.6,2.048,1.973,1.973,0,0,0,1.688.816,2.034,2.034,0,0,0,1.3-.456,2.186,2.186,0,0,0,.768-1.224A2.532,2.532,0,0,0,66.912-3.248Zm10.224-4.5v5.616q0,1.312.064,2.128H75.952l-.08-1.264H75.84a2.919,2.919,0,0,1-.976,1.008A2.816,2.816,0,0,1,73.28.176a2.718,2.718,0,0,1-.936-.16A2.662,2.662,0,0,1,71.5-.5a2.431,2.431,0,0,1-.648-1.056,5.1,5.1,0,0,1-.24-1.656V-7.744h1.408v4.272q0,2.48,1.728,2.48A1.829,1.829,0,0,0,74.9-1.376a2.138,2.138,0,0,0,.7-.912,1.848,1.848,0,0,0,.128-.72V-7.744Zm7.616,6.416.24,1.056a5.14,5.14,0,0,1-2.224.448,3.724,3.724,0,0,1-2.8-1.088,3.938,3.938,0,0,1-1.056-2.864,4.049,4.049,0,0,1,1.144-2.968A4.047,4.047,0,0,1,83.072-7.9a4.072,4.072,0,0,1,1.952.416L84.7-6.416a3.473,3.473,0,0,0-1.632-.368,2.517,2.517,0,0,0-2.008.84,3.075,3.075,0,0,0-.728,2.088,2.905,2.905,0,0,0,.76,2.112,2.571,2.571,0,0,0,1.928.784A4.228,4.228,0,0,0,84.752-1.328Zm7.072,0,.24,1.056A5.14,5.14,0,0,1,89.84.176a3.724,3.724,0,0,1-2.8-1.088,3.938,3.938,0,0,1-1.056-2.864,4.049,4.049,0,0,1,1.144-2.968A4.047,4.047,0,0,1,90.144-7.9a4.072,4.072,0,0,1,1.952.416l-.32,1.072a3.473,3.473,0,0,0-1.632-.368,2.517,2.517,0,0,0-2.008.84,3.075,3.075,0,0,0-.728,2.088,2.905,2.905,0,0,0,.76,2.112A2.571,2.571,0,0,0,90.1-.96,4.228,4.228,0,0,0,91.824-1.328ZM95.12,0H93.712V-7.744H95.12ZM93.784-10.544a.842.842,0,0,1,.632-.256.83.83,0,0,1,.624.248.871.871,0,0,1,.24.632.851.851,0,0,1-.24.616.87.87,0,0,1-.656.248.8.8,0,0,1-.616-.248.867.867,0,0,1-.232-.616A.863.863,0,0,1,93.784-10.544Zm6.952,2.64a3.52,3.52,0,0,1,2.7,1.1,4.025,4.025,0,0,1,1.032,2.864A3.938,3.938,0,0,1,103.312-.88a3.873,3.873,0,0,1-2.7,1.056,3.534,3.534,0,0,1-2.656-1.1A3.987,3.987,0,0,1,96.9-3.808a4.066,4.066,0,0,1,1.1-2.984A3.7,3.7,0,0,1,100.736-7.9Zm1.7,1.968a1.928,1.928,0,0,0-1.736-.912,2,2,0,0,0-1.76.888,3.633,3.633,0,0,0-.608,2.1,3.374,3.374,0,0,0,.656,2.128,2.034,2.034,0,0,0,1.68.848,2.056,2.056,0,0,0,1.68-.856,3.379,3.379,0,0,0,.672-2.152A3.717,3.717,0,0,0,102.44-5.936Zm-1.208-5.152h1.552L100.832-8.8H99.84ZM106.24,0V-5.648q0-1.248-.064-2.1h1.248l.08,1.28h.032a2.675,2.675,0,0,1,.992-1.024A2.918,2.918,0,0,1,110.1-7.9a2.7,2.7,0,0,1,.888.152,2.961,2.961,0,0,1,.872.5,2.424,2.424,0,0,1,.7,1.024,4.368,4.368,0,0,1,.272,1.624V0h-1.408V-4.464a2.881,2.881,0,0,0-.432-1.656,1.531,1.531,0,0,0-1.36-.632,1.8,1.8,0,0,0-1.168.416,2.227,2.227,0,0,0-.72,1.024,1.894,1.894,0,0,0-.1.656V0Z" transform="translate(744.3 1050.24)" fill="#fff"/>
    <path id="Trazado_105712" data-name="Trazado 105712" d="M0,0H199.937V61.451H0Z" transform="translate(701.307 1014.818)" fill="none" stroke="#606060" stroke-width="1.888"/>
    <path id="Trazado_105717" data-name="Trazado 105717" d="M0,0H6.236V18.047H0Z" transform="translate(698 1013.418)" fill="#468ca5"/>
    <path id="Trazado_105715" data-name="Trazado 105715" d="M0,0H6.236V18.047H0Z" transform="translate(716.047 1012) rotate(90)" fill="#468ca5"/>
    <path id="Trazado_105728" data-name="Trazado 105728" d="M0,0H174.236V42.331H0Z" transform="translate(714.157 895.379)" fill="#ffae78"/>
    <path id="Trazado_105730" data-name="Trazado 105730" d="M.672-.528,1.04-1.7a4.515,4.515,0,0,0,2.48.7,2.5,2.5,0,0,0,1.656-.5,1.658,1.658,0,0,0,.6-1.336A1.69,1.69,0,0,0,5.3-4.056a4.344,4.344,0,0,0-1.56-.9Q.9-6,.9-8.032a2.64,2.64,0,0,1,.968-2.1,3.753,3.753,0,0,1,2.52-.824,4.636,4.636,0,0,1,2.368.528L6.368-9.3a3.806,3.806,0,0,0-2.032-.512,2.125,2.125,0,0,0-1.52.488A1.515,1.515,0,0,0,2.3-8.192a1.531,1.531,0,0,0,.488,1.184,5.382,5.382,0,0,0,1.656.9A5.357,5.357,0,0,1,6.52-4.832a2.711,2.711,0,0,1,.664,1.888A2.908,2.908,0,0,1,6.216-.72a3.965,3.965,0,0,1-2.792.9,6.073,6.073,0,0,1-1.536-.2A3.954,3.954,0,0,1,.672-.528ZM15.536-7.744v5.616q0,1.312.064,2.128H14.352l-.08-1.264H14.24a2.919,2.919,0,0,1-.976,1.008A2.816,2.816,0,0,1,11.68.176a2.718,2.718,0,0,1-.936-.16A2.662,2.662,0,0,1,9.9-.5,2.432,2.432,0,0,1,9.248-1.56a5.1,5.1,0,0,1-.24-1.656V-7.744h1.408v4.272q0,2.48,1.728,2.48A1.829,1.829,0,0,0,13.3-1.376a2.138,2.138,0,0,0,.7-.912,1.848,1.848,0,0,0,.128-.72V-7.744ZM17.872-2v-9.36h1.392V-6.5H19.3A2.819,2.819,0,0,1,21.936-7.9a2.936,2.936,0,0,1,2.368,1.1,4.292,4.292,0,0,1,.912,2.84A4.25,4.25,0,0,1,24.176-.92a3.268,3.268,0,0,1-2.448,1.1,2.82,2.82,0,0,1-2.608-1.44h-.032L19.008,0h-1.2Q17.872-1.056,17.872-2Zm1.392-2.48V-3.1a1.762,1.762,0,0,0,.064.512A2.178,2.178,0,0,0,20.1-1.4a2.1,2.1,0,0,0,1.344.456,2.054,2.054,0,0,0,1.728-.816,3.464,3.464,0,0,0,.624-2.16,3.338,3.338,0,0,0-.616-2.056,2.009,2.009,0,0,0-1.7-.824,2.087,2.087,0,0,0-1.32.472,2.3,2.3,0,0,0-.808,1.256A2.2,2.2,0,0,0,19.264-4.48ZM29.68-4.832h3.952v1.024H29.68ZM40.08,0H38.672V-7.744H40.08ZM38.744-10.544a.842.842,0,0,1,.632-.256.83.83,0,0,1,.624.248.871.871,0,0,1,.24.632A.851.851,0,0,1,40-9.3a.87.87,0,0,1-.656.248.8.8,0,0,1-.616-.248A.867.867,0,0,1,38.5-9.92.863.863,0,0,1,38.744-10.544ZM42.416,0V-5.648q0-1.248-.064-2.1H43.6l.08,1.28h.032A2.675,2.675,0,0,1,44.7-7.488,2.918,2.918,0,0,1,46.272-7.9a2.7,2.7,0,0,1,.888.152,2.961,2.961,0,0,1,.872.5,2.424,2.424,0,0,1,.7,1.024,4.368,4.368,0,0,1,.272,1.624V0H47.6V-4.464a2.881,2.881,0,0,0-.432-1.656,1.531,1.531,0,0,0-1.36-.632,1.8,1.8,0,0,0-1.168.416,2.227,2.227,0,0,0-.72,1.024,1.894,1.894,0,0,0-.1.656V0Zm7.712-7.744h1.5l1.52,4.336q.416,1.168.624,2h.048q.192-.688.656-2l1.5-4.336h1.472L54.416,0H53.072Zm14.72,4.128h-5.44a2.62,2.62,0,0,0,.76,2.024,2.741,2.741,0,0,0,1.9.664,5.3,5.3,0,0,0,2.144-.4L64.464-.32a6.278,6.278,0,0,1-2.592.5A3.668,3.668,0,0,1,59.088-.9a3.951,3.951,0,0,1-1.024-2.848,4.476,4.476,0,0,1,.992-2.976A3.271,3.271,0,0,1,61.7-7.9a3.225,3.225,0,0,1,1.56.36,2.5,2.5,0,0,1,1,.936,4.6,4.6,0,0,1,.488,1.16A4.651,4.651,0,0,1,64.9-4.272,3.51,3.51,0,0,1,64.848-3.616ZM59.424-4.624h4.112a2.736,2.736,0,0,0-.44-1.56A1.658,1.658,0,0,0,61.584-6.9a1.82,1.82,0,0,0-1.52.7A3.048,3.048,0,0,0,59.424-4.624ZM66.64,0V-5.328q0-1.456-.064-2.416h1.232l.064,1.536h.048a2.546,2.546,0,0,1,.848-1.232A2.077,2.077,0,0,1,70.08-7.9a3.4,3.4,0,0,1,.384.032v1.328a2.494,2.494,0,0,0-.48-.032,1.7,1.7,0,0,0-1.24.5,2.346,2.346,0,0,0-.648,1.3,4.019,4.019,0,0,0-.048.656V0Zm4.7-.368.336-1.056a3.611,3.611,0,0,0,1.872.544,1.682,1.682,0,0,0,1.1-.32,1.032,1.032,0,0,0,.384-.832,1.079,1.079,0,0,0-.32-.808,3.2,3.2,0,0,0-1.1-.6q-2.064-.752-2.064-2.192a2.08,2.08,0,0,1,.736-1.616A2.8,2.8,0,0,1,74.224-7.9a3.4,3.4,0,0,1,1.888.48L75.776-6.4a2.917,2.917,0,0,0-1.584-.464,1.357,1.357,0,0,0-.944.3.974.974,0,0,0-.336.752.906.906,0,0,0,.328.736,4.475,4.475,0,0,0,1.128.592,3.884,3.884,0,0,1,1.528.936,1.975,1.975,0,0,1,.5,1.384,2.1,2.1,0,0,1-.768,1.7,3.2,3.2,0,0,1-2.112.64A4.225,4.225,0,0,1,71.344-.368ZM79.616,0H78.208V-7.744h1.408ZM78.28-10.544a.842.842,0,0,1,.632-.256.83.83,0,0,1,.624.248.871.871,0,0,1,.24.632.851.851,0,0,1-.24.616.87.87,0,0,1-.656.248.8.8,0,0,1-.616-.248.867.867,0,0,1-.232-.616A.863.863,0,0,1,78.28-10.544ZM85.232-7.9a3.52,3.52,0,0,1,2.7,1.1A4.025,4.025,0,0,1,88.96-3.936,3.938,3.938,0,0,1,87.808-.88,3.873,3.873,0,0,1,85.1.176a3.534,3.534,0,0,1-2.656-1.1,3.987,3.987,0,0,1-1.056-2.888,4.066,4.066,0,0,1,1.1-2.984A3.7,3.7,0,0,1,85.232-7.9Zm1.7,1.968A1.928,1.928,0,0,0,85.2-6.848a2,2,0,0,0-1.76.888,3.633,3.633,0,0,0-.608,2.1,3.374,3.374,0,0,0,.656,2.128,2.034,2.034,0,0,0,1.68.848,2.056,2.056,0,0,0,1.68-.856,3.379,3.379,0,0,0,.672-2.152A3.717,3.717,0,0,0,86.936-5.936Zm-1.208-5.152H87.28L85.328-8.8h-.992ZM90.736,0V-5.648q0-1.248-.064-2.1H91.92L92-6.464h.032a2.675,2.675,0,0,1,.992-1.024A2.918,2.918,0,0,1,94.592-7.9a2.7,2.7,0,0,1,.888.152,2.961,2.961,0,0,1,.872.5,2.424,2.424,0,0,1,.7,1.024,4.368,4.368,0,0,1,.272,1.624V0H95.92V-4.464a2.881,2.881,0,0,0-.432-1.656,1.531,1.531,0,0,0-1.36-.632,1.8,1.8,0,0,0-1.168.416,2.227,2.227,0,0,0-.72,1.024,1.894,1.894,0,0,0-.1.656V0Z" transform="translate(752.275 921.24)" fill="#12263f"/>
    <path id="Trazado_105727" data-name="Trazado 105727" d="M0,0H199.937V61.451H0Z" transform="translate(701.307 885.818)" fill="none" stroke="#606060" stroke-width="1.888"/>
    <path id="Trazado_105731" data-name="Trazado 105731" d="M0,0H6.236V18.047H0Z" transform="translate(698 884.418)" fill="#ff8a5b"/>
    <path id="Trazado_105732" data-name="Trazado 105732" d="M0,0H6.236V18.047H0Z" transform="translate(716.047 883) rotate(90)" fill="#ff8a5b"/>
    <path id="Trazado_105726" data-name="Trazado 105726" d="M0,0H174.236V42.331H0Z" transform="translate(406.122 965.596)" fill="#ffae78"/>
    <path id="Trazado_105729" data-name="Trazado 105729" d="M.672-.528,1.04-1.7a4.515,4.515,0,0,0,2.48.7,2.5,2.5,0,0,0,1.656-.5,1.658,1.658,0,0,0,.6-1.336A1.69,1.69,0,0,0,5.3-4.056a4.344,4.344,0,0,0-1.56-.9Q.9-6,.9-8.032a2.64,2.64,0,0,1,.968-2.1,3.753,3.753,0,0,1,2.52-.824,4.636,4.636,0,0,1,2.368.528L6.368-9.3a3.806,3.806,0,0,0-2.032-.512,2.125,2.125,0,0,0-1.52.488A1.515,1.515,0,0,0,2.3-8.192a1.531,1.531,0,0,0,.488,1.184,5.382,5.382,0,0,0,1.656.9A5.357,5.357,0,0,1,6.52-4.832a2.711,2.711,0,0,1,.664,1.888A2.908,2.908,0,0,1,6.216-.72a3.965,3.965,0,0,1-2.792.9,6.073,6.073,0,0,1-1.536-.2A3.954,3.954,0,0,1,.672-.528ZM15.536-7.744v5.616q0,1.312.064,2.128H14.352l-.08-1.264H14.24a2.919,2.919,0,0,1-.976,1.008A2.816,2.816,0,0,1,11.68.176a2.718,2.718,0,0,1-.936-.16A2.662,2.662,0,0,1,9.9-.5,2.432,2.432,0,0,1,9.248-1.56a5.1,5.1,0,0,1-.24-1.656V-7.744h1.408v4.272q0,2.48,1.728,2.48A1.829,1.829,0,0,0,13.3-1.376a2.138,2.138,0,0,0,.7-.912,1.848,1.848,0,0,0,.128-.72V-7.744ZM17.872-2v-9.36h1.392V-6.5H19.3A2.819,2.819,0,0,1,21.936-7.9a2.936,2.936,0,0,1,2.368,1.1,4.292,4.292,0,0,1,.912,2.84A4.25,4.25,0,0,1,24.176-.92a3.268,3.268,0,0,1-2.448,1.1,2.82,2.82,0,0,1-2.608-1.44h-.032L19.008,0h-1.2Q17.872-1.056,17.872-2Zm1.392-2.48V-3.1a1.762,1.762,0,0,0,.064.512A2.178,2.178,0,0,0,20.1-1.4a2.1,2.1,0,0,0,1.344.456,2.054,2.054,0,0,0,1.728-.816,3.464,3.464,0,0,0,.624-2.16,3.338,3.338,0,0,0-.616-2.056,2.009,2.009,0,0,0-1.7-.824,2.087,2.087,0,0,0-1.32.472,2.3,2.3,0,0,0-.808,1.256A2.2,2.2,0,0,0,19.264-4.48ZM29.68-4.832h3.952v1.024H29.68Zm14.272,3.5.24,1.056a5.14,5.14,0,0,1-2.224.448,3.724,3.724,0,0,1-2.8-1.088,3.938,3.938,0,0,1-1.056-2.864,4.049,4.049,0,0,1,1.144-2.968A4.047,4.047,0,0,1,42.272-7.9a4.072,4.072,0,0,1,1.952.416L43.9-6.416a3.473,3.473,0,0,0-1.632-.368,2.517,2.517,0,0,0-2.008.84,3.075,3.075,0,0,0-.728,2.088,2.905,2.905,0,0,0,.76,2.112,2.571,2.571,0,0,0,1.928.784A4.228,4.228,0,0,0,43.952-1.328ZM49.024-7.9a3.52,3.52,0,0,1,2.7,1.1,4.025,4.025,0,0,1,1.032,2.864A3.938,3.938,0,0,1,51.6-.88,3.873,3.873,0,0,1,48.9.176,3.534,3.534,0,0,1,46.24-.92a3.987,3.987,0,0,1-1.056-2.888,4.066,4.066,0,0,1,1.1-2.984A3.7,3.7,0,0,1,49.024-7.9Zm1.7,1.968a1.928,1.928,0,0,0-1.736-.912,2,2,0,0,0-1.76.888,3.633,3.633,0,0,0-.608,2.1,3.374,3.374,0,0,0,.656,2.128,2.034,2.034,0,0,0,1.68.848,2.056,2.056,0,0,0,1.68-.856,3.379,3.379,0,0,0,.672-2.152A3.717,3.717,0,0,0,50.728-5.936ZM54.528,0V-5.648q0-.816-.064-2.1H55.7L55.76-6.48h.048A2.671,2.671,0,0,1,58.256-7.9,2.206,2.206,0,0,1,59.6-7.48a2.371,2.371,0,0,1,.832,1.128h.032a3.024,3.024,0,0,1,.88-1.008,2.734,2.734,0,0,1,1.7-.544,2.453,2.453,0,0,1,.848.152,2.592,2.592,0,0,1,.816.5A2.468,2.468,0,0,1,65.352-6.2,4.944,4.944,0,0,1,65.6-4.544V0H64.224V-4.368a3.11,3.11,0,0,0-.424-1.76,1.42,1.42,0,0,0-1.256-.624,1.59,1.59,0,0,0-1.024.36,2.1,2.1,0,0,0-.656.9,2.417,2.417,0,0,0-.112.7V0H59.376V-4.64a2.569,2.569,0,0,0-.416-1.536,1.389,1.389,0,0,0-1.2-.576,1.616,1.616,0,0,0-1.088.416,2.111,2.111,0,0,0-.656.992,1.82,1.82,0,0,0-.112.688V0ZM74.1-3.616h-5.44a2.62,2.62,0,0,0,.76,2.024,2.741,2.741,0,0,0,1.9.664,5.3,5.3,0,0,0,2.144-.4L73.712-.32a6.278,6.278,0,0,1-2.592.5A3.668,3.668,0,0,1,68.336-.9a3.951,3.951,0,0,1-1.024-2.848A4.476,4.476,0,0,1,68.3-6.72,3.271,3.271,0,0,1,70.944-7.9a3.225,3.225,0,0,1,1.56.36,2.5,2.5,0,0,1,1,.936,4.6,4.6,0,0,1,.488,1.16,4.651,4.651,0,0,1,.152,1.176A3.509,3.509,0,0,1,74.1-3.616ZM68.672-4.624h4.112a2.736,2.736,0,0,0-.44-1.56A1.658,1.658,0,0,0,70.832-6.9a1.82,1.82,0,0,0-1.52.7A3.048,3.048,0,0,0,68.672-4.624ZM75.888,0V-5.328q0-1.456-.064-2.416h1.232l.064,1.536h.048a2.546,2.546,0,0,1,.848-1.232A2.077,2.077,0,0,1,79.328-7.9a3.4,3.4,0,0,1,.384.032v1.328a2.494,2.494,0,0,0-.48-.032,1.7,1.7,0,0,0-1.24.5,2.346,2.346,0,0,0-.648,1.3,4.02,4.02,0,0,0-.048.656V0ZM86.24-1.328l.24,1.056a5.14,5.14,0,0,1-2.224.448,3.724,3.724,0,0,1-2.8-1.088A3.938,3.938,0,0,1,80.4-3.776a4.049,4.049,0,0,1,1.144-2.968A4.047,4.047,0,0,1,84.56-7.9a4.072,4.072,0,0,1,1.952.416l-.32,1.072a3.473,3.473,0,0,0-1.632-.368,2.517,2.517,0,0,0-2.008.84,3.075,3.075,0,0,0-.728,2.088,2.905,2.905,0,0,0,.76,2.112,2.571,2.571,0,0,0,1.928.784A4.228,4.228,0,0,0,86.24-1.328ZM89.536,0H88.128V-7.744h1.408ZM88.2-10.544a.842.842,0,0,1,.632-.256.83.83,0,0,1,.624.248.871.871,0,0,1,.24.632.851.851,0,0,1-.24.616.87.87,0,0,1-.656.248.8.8,0,0,1-.616-.248.867.867,0,0,1-.232-.616A.863.863,0,0,1,88.2-10.544Zm9.112,5.792v2.9A12.7,12.7,0,0,0,97.424,0H96.16l-.112-.976H96a2.736,2.736,0,0,1-.968.824,2.932,2.932,0,0,1-1.4.328A2.292,2.292,0,0,1,91.888-.48a2.2,2.2,0,0,1-.624-1.568A2.381,2.381,0,0,1,92.472-4.2a6.518,6.518,0,0,1,3.448-.728v-.16a2.654,2.654,0,0,0-.056-.552,2.085,2.085,0,0,0-.224-.568,1.153,1.153,0,0,0-.544-.48,2.2,2.2,0,0,0-.936-.176,3.529,3.529,0,0,0-2.032.576l-.32-.944a4.721,4.721,0,0,1,2.56-.672,2.657,2.657,0,0,1,2.28.9A3.686,3.686,0,0,1,97.312-4.752Zm-1.36,2.144V-3.952q-3.28-.064-3.28,1.744a1.287,1.287,0,0,0,.376,1,1.334,1.334,0,0,0,.936.344A1.954,1.954,0,0,0,95.2-1.24a1.96,1.96,0,0,0,.688-.92A1.516,1.516,0,0,0,95.952-2.608ZM99.584,0V-11.36h1.408V0Z" transform="translate(442.122 991.596)" fill="#12263f"/>
    <path id="Trazado_105724" data-name="Trazado 105724" d="M0,0H199.937V61.451H0Z" transform="translate(393.307 955.684)" fill="none" stroke="#606060" stroke-width="1.888"/>
    <path id="Trazado_105737" data-name="Trazado 105737" d="M0,0H6.236V18.047H0Z" transform="translate(390 954.283)" fill="#ff8a5b"/>
    <path id="Trazado_105736" data-name="Trazado 105736" d="M0,0H6.236V18.047H0Z" transform="translate(408.047 952.865) rotate(90)" fill="#ff8a5b"/>
    <path id="Trazado_105719" data-name="Trazado 105719" d="M0,0H174.236V42.331H0Z" transform="translate(1023 965.596)" fill="#ffae78"/>
    <path id="Trazado_105721" data-name="Trazado 105721" d="M.672-.528,1.04-1.7a4.515,4.515,0,0,0,2.48.7,2.5,2.5,0,0,0,1.656-.5,1.658,1.658,0,0,0,.6-1.336A1.69,1.69,0,0,0,5.3-4.056a4.344,4.344,0,0,0-1.56-.9Q.9-6,.9-8.032a2.64,2.64,0,0,1,.968-2.1,3.753,3.753,0,0,1,2.52-.824,4.636,4.636,0,0,1,2.368.528L6.368-9.3a3.806,3.806,0,0,0-2.032-.512,2.125,2.125,0,0,0-1.52.488A1.515,1.515,0,0,0,2.3-8.192a1.531,1.531,0,0,0,.488,1.184,5.382,5.382,0,0,0,1.656.9A5.357,5.357,0,0,1,6.52-4.832a2.711,2.711,0,0,1,.664,1.888A2.908,2.908,0,0,1,6.216-.72a3.965,3.965,0,0,1-2.792.9,6.073,6.073,0,0,1-1.536-.2A3.954,3.954,0,0,1,.672-.528ZM15.536-7.744v5.616q0,1.312.064,2.128H14.352l-.08-1.264H14.24a2.919,2.919,0,0,1-.976,1.008A2.816,2.816,0,0,1,11.68.176a2.718,2.718,0,0,1-.936-.16A2.662,2.662,0,0,1,9.9-.5,2.432,2.432,0,0,1,9.248-1.56a5.1,5.1,0,0,1-.24-1.656V-7.744h1.408v4.272q0,2.48,1.728,2.48A1.829,1.829,0,0,0,13.3-1.376a2.138,2.138,0,0,0,.7-.912,1.848,1.848,0,0,0,.128-.72V-7.744ZM17.872-2v-9.36h1.392V-6.5H19.3A2.819,2.819,0,0,1,21.936-7.9a2.936,2.936,0,0,1,2.368,1.1,4.292,4.292,0,0,1,.912,2.84A4.25,4.25,0,0,1,24.176-.92a3.268,3.268,0,0,1-2.448,1.1,2.82,2.82,0,0,1-2.608-1.44h-.032L19.008,0h-1.2Q17.872-1.056,17.872-2Zm1.392-2.48V-3.1a1.762,1.762,0,0,0,.064.512A2.178,2.178,0,0,0,20.1-1.4a2.1,2.1,0,0,0,1.344.456,2.054,2.054,0,0,0,1.728-.816,3.464,3.464,0,0,0,.624-2.16,3.338,3.338,0,0,0-.616-2.056,2.009,2.009,0,0,0-1.7-.824,2.087,2.087,0,0,0-1.32.472,2.3,2.3,0,0,0-.808,1.256A2.2,2.2,0,0,0,19.264-4.48ZM29.68-4.832h3.952v1.024H29.68ZM40.08,0H38.672V-7.744H40.08ZM38.744-10.544a.842.842,0,0,1,.632-.256.83.83,0,0,1,.624.248.871.871,0,0,1,.24.632A.851.851,0,0,1,40-9.3a.87.87,0,0,1-.656.248.8.8,0,0,1-.616-.248A.867.867,0,0,1,38.5-9.92.863.863,0,0,1,38.744-10.544ZM42.416,0V-5.648q0-1.248-.064-2.1H43.6l.08,1.28h.032A2.675,2.675,0,0,1,44.7-7.488,2.918,2.918,0,0,1,46.272-7.9a2.7,2.7,0,0,1,.888.152,2.961,2.961,0,0,1,.872.5,2.424,2.424,0,0,1,.7,1.024,4.368,4.368,0,0,1,.272,1.624V0H47.6V-4.464a2.881,2.881,0,0,0-.432-1.656,1.531,1.531,0,0,0-1.36-.632,1.8,1.8,0,0,0-1.168.416,2.227,2.227,0,0,0-.72,1.024,1.894,1.894,0,0,0-.1.656V0ZM52.832,0H51.44V-6.672H50.368V-7.744H51.44v-.368a3.641,3.641,0,0,1,.9-2.7,2.587,2.587,0,0,1,1.888-.72,3.123,3.123,0,0,1,1.2.224l-.192,1.088a2.132,2.132,0,0,0-.9-.176q-1.5,0-1.5,2.24v.416H54.7v1.072H52.832ZM59.04-7.9a3.52,3.52,0,0,1,2.7,1.1,4.025,4.025,0,0,1,1.032,2.864A3.938,3.938,0,0,1,61.616-.88a3.873,3.873,0,0,1-2.7,1.056,3.534,3.534,0,0,1-2.656-1.1A3.987,3.987,0,0,1,55.2-3.808a4.066,4.066,0,0,1,1.1-2.984A3.7,3.7,0,0,1,59.04-7.9Zm1.7,1.968a1.928,1.928,0,0,0-1.736-.912,2,2,0,0,0-1.76.888,3.633,3.633,0,0,0-.608,2.1A3.374,3.374,0,0,0,57.3-1.728a2.034,2.034,0,0,0,1.68.848,2.056,2.056,0,0,0,1.68-.856,3.379,3.379,0,0,0,.672-2.152A3.717,3.717,0,0,0,60.744-5.936ZM64.544,0V-5.328q0-1.456-.064-2.416h1.232l.064,1.536h.048a2.546,2.546,0,0,1,.848-1.232A2.077,2.077,0,0,1,67.984-7.9a3.4,3.4,0,0,1,.384.032v1.328a2.494,2.494,0,0,0-.48-.032,1.7,1.7,0,0,0-1.24.5A2.346,2.346,0,0,0,66-4.784a4.02,4.02,0,0,0-.048.656V0Zm5.3,0V-5.648q0-.816-.064-2.1h1.232l.064,1.264h.048A2.671,2.671,0,0,1,73.568-7.9a2.206,2.206,0,0,1,1.344.424,2.371,2.371,0,0,1,.832,1.128h.032a3.024,3.024,0,0,1,.88-1.008,2.734,2.734,0,0,1,1.7-.544,2.453,2.453,0,0,1,.848.152,2.592,2.592,0,0,1,.816.5A2.468,2.468,0,0,1,80.664-6.2a4.944,4.944,0,0,1,.248,1.656V0H79.536V-4.368a3.11,3.11,0,0,0-.424-1.76,1.42,1.42,0,0,0-1.256-.624,1.59,1.59,0,0,0-1.024.36,2.1,2.1,0,0,0-.656.9,2.417,2.417,0,0,0-.112.7V0H74.688V-4.64a2.569,2.569,0,0,0-.416-1.536,1.389,1.389,0,0,0-1.2-.576,1.616,1.616,0,0,0-1.088.416,2.111,2.111,0,0,0-.656.992,1.82,1.82,0,0,0-.112.688V0ZM88.624-4.752v2.9A12.7,12.7,0,0,0,88.736,0H87.472L87.36-.976h-.048a2.736,2.736,0,0,1-.968.824,2.932,2.932,0,0,1-1.4.328A2.292,2.292,0,0,1,83.2-.48a2.2,2.2,0,0,1-.624-1.568A2.381,2.381,0,0,1,83.784-4.2a6.518,6.518,0,0,1,3.448-.728v-.16a2.655,2.655,0,0,0-.056-.552,2.085,2.085,0,0,0-.224-.568,1.153,1.153,0,0,0-.544-.48,2.2,2.2,0,0,0-.936-.176,3.529,3.529,0,0,0-2.032.576l-.32-.944A4.721,4.721,0,0,1,85.68-7.9a2.657,2.657,0,0,1,2.28.9A3.686,3.686,0,0,1,88.624-4.752Zm-1.36,2.144V-3.952q-3.28-.064-3.28,1.744a1.287,1.287,0,0,0,.376,1,1.334,1.334,0,0,0,.936.344,1.954,1.954,0,0,0,1.216-.376,1.96,1.96,0,0,0,.688-.92A1.516,1.516,0,0,0,87.264-2.608Zm8.912,1.28.24,1.056a5.14,5.14,0,0,1-2.224.448,3.724,3.724,0,0,1-2.8-1.088,3.938,3.938,0,0,1-1.056-2.864A4.049,4.049,0,0,1,91.48-6.744,4.047,4.047,0,0,1,94.5-7.9a4.072,4.072,0,0,1,1.952.416l-.32,1.072A3.473,3.473,0,0,0,94.5-6.784a2.517,2.517,0,0,0-2.008.84,3.075,3.075,0,0,0-.728,2.088,2.905,2.905,0,0,0,.76,2.112,2.571,2.571,0,0,0,1.928.784A4.228,4.228,0,0,0,96.176-1.328ZM99.472,0H98.064V-7.744h1.408ZM98.136-10.544a.842.842,0,0,1,.632-.256.83.83,0,0,1,.624.248.871.871,0,0,1,.24.632.851.851,0,0,1-.24.616.87.87,0,0,1-.656.248A.8.8,0,0,1,98.12-9.3a.867.867,0,0,1-.232-.616A.863.863,0,0,1,98.136-10.544Zm6.952,2.64a3.52,3.52,0,0,1,2.7,1.1,4.025,4.025,0,0,1,1.032,2.864A3.938,3.938,0,0,1,107.664-.88a3.873,3.873,0,0,1-2.7,1.056A3.534,3.534,0,0,1,102.3-.92a3.987,3.987,0,0,1-1.056-2.888,4.066,4.066,0,0,1,1.1-2.984A3.7,3.7,0,0,1,105.088-7.9Zm1.7,1.968a1.928,1.928,0,0,0-1.736-.912,2,2,0,0,0-1.76.888,3.633,3.633,0,0,0-.608,2.1,3.374,3.374,0,0,0,.656,2.128,2.034,2.034,0,0,0,1.68.848,2.056,2.056,0,0,0,1.68-.856,3.379,3.379,0,0,0,.672-2.152A3.717,3.717,0,0,0,106.792-5.936Zm-1.208-5.152h1.552L105.184-8.8h-.992ZM110.592,0V-5.648q0-1.248-.064-2.1h1.248l.08,1.28h.032a2.675,2.675,0,0,1,.992-1.024,2.918,2.918,0,0,1,1.568-.416,2.7,2.7,0,0,1,.888.152,2.961,2.961,0,0,1,.872.5,2.424,2.424,0,0,1,.7,1.024,4.368,4.368,0,0,1,.272,1.624V0h-1.408V-4.464a2.881,2.881,0,0,0-.432-1.656,1.531,1.531,0,0,0-1.36-.632,1.8,1.8,0,0,0-1.168.416,2.227,2.227,0,0,0-.72,1.024,1.894,1.894,0,0,0-.1.656V0Z" transform="translate(1051 991.596)" fill="#12263f"/>
    <path id="Trazado_105716" data-name="Trazado 105716" d="M0,0H199.937V61.451H0Z" transform="translate(1010.063 955.684)" fill="none" stroke="#606060" stroke-width="1.888"/>
    <path id="Trazado_105723" data-name="Trazado 105723" d="M0,0H6.236V18.047H0Z" transform="translate(1006.756 954.283)" fill="#ff8a5b"/>
    <path id="Trazado_105725" data-name="Trazado 105725" d="M0,0H6.236V18.047H0Z" transform="translate(1024.803 952.865) rotate(90)" fill="#ff8a5b"/>
    <path id="Trazado_105720" data-name="Trazado 105720" d="M0,0H174.236V42.331H0Z" transform="translate(511.122 1127.143)" fill="#ffae78"/>
    <path id="Trazado_105722" data-name="Trazado 105722" d="M.672-.528,1.04-1.7a4.515,4.515,0,0,0,2.48.7,2.5,2.5,0,0,0,1.656-.5,1.658,1.658,0,0,0,.6-1.336A1.69,1.69,0,0,0,5.3-4.056a4.344,4.344,0,0,0-1.56-.9Q.9-6,.9-8.032a2.64,2.64,0,0,1,.968-2.1,3.753,3.753,0,0,1,2.52-.824,4.636,4.636,0,0,1,2.368.528L6.368-9.3a3.806,3.806,0,0,0-2.032-.512,2.125,2.125,0,0,0-1.52.488A1.515,1.515,0,0,0,2.3-8.192a1.531,1.531,0,0,0,.488,1.184,5.382,5.382,0,0,0,1.656.9A5.357,5.357,0,0,1,6.52-4.832a2.711,2.711,0,0,1,.664,1.888A2.908,2.908,0,0,1,6.216-.72a3.965,3.965,0,0,1-2.792.9,6.073,6.073,0,0,1-1.536-.2A3.954,3.954,0,0,1,.672-.528ZM15.536-7.744v5.616q0,1.312.064,2.128H14.352l-.08-1.264H14.24a2.919,2.919,0,0,1-.976,1.008A2.816,2.816,0,0,1,11.68.176a2.718,2.718,0,0,1-.936-.16A2.662,2.662,0,0,1,9.9-.5,2.432,2.432,0,0,1,9.248-1.56a5.1,5.1,0,0,1-.24-1.656V-7.744h1.408v4.272q0,2.48,1.728,2.48A1.829,1.829,0,0,0,13.3-1.376a2.138,2.138,0,0,0,.7-.912,1.848,1.848,0,0,0,.128-.72V-7.744ZM17.872-2v-9.36h1.392V-6.5H19.3A2.819,2.819,0,0,1,21.936-7.9a2.936,2.936,0,0,1,2.368,1.1,4.292,4.292,0,0,1,.912,2.84A4.25,4.25,0,0,1,24.176-.92a3.268,3.268,0,0,1-2.448,1.1,2.82,2.82,0,0,1-2.608-1.44h-.032L19.008,0h-1.2Q17.872-1.056,17.872-2Zm1.392-2.48V-3.1a1.762,1.762,0,0,0,.064.512A2.178,2.178,0,0,0,20.1-1.4a2.1,2.1,0,0,0,1.344.456,2.054,2.054,0,0,0,1.728-.816,3.464,3.464,0,0,0,.624-2.16,3.338,3.338,0,0,0-.616-2.056,2.009,2.009,0,0,0-1.7-.824,2.087,2.087,0,0,0-1.32.472,2.3,2.3,0,0,0-.808,1.256A2.2,2.2,0,0,0,19.264-4.48ZM29.68-4.832h3.952v1.024H29.68ZM43.952-11.36h1.392V-2q0,.944.064,2H44.16L44.1-1.344h-.048a2.58,2.58,0,0,1-1.008,1.1,2.987,2.987,0,0,1-1.6.424,3.019,3.019,0,0,1-2.376-1.1,4.175,4.175,0,0,1-.952-2.84,4.285,4.285,0,0,1,1-3.008A3.2,3.2,0,0,1,41.584-7.9a2.921,2.921,0,0,1,1.448.336,2.279,2.279,0,0,1,.888.832h.032Zm0,8.112V-4.592a2.335,2.335,0,0,0-.064-.592,2.089,2.089,0,0,0-.712-1.152,1.985,1.985,0,0,0-1.32-.464,2,2,0,0,0-1.7.84,3.486,3.486,0,0,0-.624,2.136,3.365,3.365,0,0,0,.6,2.048,1.973,1.973,0,0,0,1.688.816,2.034,2.034,0,0,0,1.3-.456,2.186,2.186,0,0,0,.768-1.224A2.532,2.532,0,0,0,43.952-3.248ZM49.1,0H47.7V-7.744H49.1ZM47.768-10.544A.842.842,0,0,1,48.4-10.8a.83.83,0,0,1,.624.248.871.871,0,0,1,.24.632.851.851,0,0,1-.24.616.87.87,0,0,1-.656.248.8.8,0,0,1-.616-.248.867.867,0,0,1-.232-.616A.863.863,0,0,1,47.768-10.544ZM51.44,0V-5.328q0-1.456-.064-2.416h1.232l.064,1.536h.048a2.545,2.545,0,0,1,.848-1.232A2.077,2.077,0,0,1,54.88-7.9a3.4,3.4,0,0,1,.384.032v1.328a2.494,2.494,0,0,0-.48-.032,1.7,1.7,0,0,0-1.24.5,2.346,2.346,0,0,0-.648,1.3,4.021,4.021,0,0,0-.048.656V0Zm11.3-3.616H57.3a2.62,2.62,0,0,0,.76,2.024,2.741,2.741,0,0,0,1.9.664,5.3,5.3,0,0,0,2.144-.4L62.352-.32a6.278,6.278,0,0,1-2.592.5A3.668,3.668,0,0,1,56.976-.9a3.951,3.951,0,0,1-1.024-2.848,4.476,4.476,0,0,1,.992-2.976A3.271,3.271,0,0,1,59.584-7.9a3.225,3.225,0,0,1,1.56.36,2.5,2.5,0,0,1,1,.936,4.6,4.6,0,0,1,.488,1.16,4.651,4.651,0,0,1,.152,1.176A3.51,3.51,0,0,1,62.736-3.616ZM57.312-4.624h4.112a2.736,2.736,0,0,0-.44-1.56A1.658,1.658,0,0,0,59.472-6.9a1.82,1.82,0,0,0-1.52.7A3.048,3.048,0,0,0,57.312-4.624Zm12.5,3.3.24,1.056a5.14,5.14,0,0,1-2.224.448,3.724,3.724,0,0,1-2.8-1.088,3.938,3.938,0,0,1-1.056-2.864,4.049,4.049,0,0,1,1.144-2.968A4.047,4.047,0,0,1,68.128-7.9a4.072,4.072,0,0,1,1.952.416l-.32,1.072a3.473,3.473,0,0,0-1.632-.368,2.517,2.517,0,0,0-2.008.84,3.075,3.075,0,0,0-.728,2.088,2.905,2.905,0,0,0,.76,2.112A2.571,2.571,0,0,0,68.08-.96,4.228,4.228,0,0,0,69.808-1.328Zm7.072,0,.24,1.056A5.14,5.14,0,0,1,74.9.176,3.724,3.724,0,0,1,72.1-.912,3.938,3.938,0,0,1,71.04-3.776a4.049,4.049,0,0,1,1.144-2.968A4.047,4.047,0,0,1,75.2-7.9a4.072,4.072,0,0,1,1.952.416l-.32,1.072A3.473,3.473,0,0,0,75.2-6.784a2.517,2.517,0,0,0-2.008.84,3.075,3.075,0,0,0-.728,2.088,2.905,2.905,0,0,0,.76,2.112,2.571,2.571,0,0,0,1.928.784A4.228,4.228,0,0,0,76.88-1.328ZM80.176,0H78.768V-7.744h1.408ZM78.84-10.544a.842.842,0,0,1,.632-.256.83.83,0,0,1,.624.248.871.871,0,0,1,.24.632.851.851,0,0,1-.24.616.87.87,0,0,1-.656.248.8.8,0,0,1-.616-.248.867.867,0,0,1-.232-.616A.863.863,0,0,1,78.84-10.544ZM85.792-7.9a3.52,3.52,0,0,1,2.7,1.1A4.025,4.025,0,0,1,89.52-3.936,3.938,3.938,0,0,1,88.368-.88a3.873,3.873,0,0,1-2.7,1.056,3.534,3.534,0,0,1-2.656-1.1,3.987,3.987,0,0,1-1.056-2.888,4.066,4.066,0,0,1,1.1-2.984A3.7,3.7,0,0,1,85.792-7.9Zm1.7,1.968a1.928,1.928,0,0,0-1.736-.912A2,2,0,0,0,84-5.96a3.633,3.633,0,0,0-.608,2.1,3.374,3.374,0,0,0,.656,2.128,2.034,2.034,0,0,0,1.68.848,2.056,2.056,0,0,0,1.68-.856,3.379,3.379,0,0,0,.672-2.152A3.717,3.717,0,0,0,87.5-5.936Zm-1.208-5.152H87.84L85.888-8.8H84.9ZM91.3,0V-5.648q0-1.248-.064-2.1H92.48l.08,1.28h.032a2.675,2.675,0,0,1,.992-1.024A2.918,2.918,0,0,1,95.152-7.9a2.7,2.7,0,0,1,.888.152,2.961,2.961,0,0,1,.872.5,2.424,2.424,0,0,1,.7,1.024,4.368,4.368,0,0,1,.272,1.624V0H96.48V-4.464a2.881,2.881,0,0,0-.432-1.656,1.531,1.531,0,0,0-1.36-.632,1.8,1.8,0,0,0-1.168.416,2.227,2.227,0,0,0-.72,1.024,1.894,1.894,0,0,0-.1.656V0Z" transform="translate(547.122 1153.143)" fill="#12263f"/>
    <path id="Trazado_105718" data-name="Trazado 105718" d="M0,0H199.937V61.451H0Z" transform="translate(498.307 1117.231)" fill="none" stroke="#606060" stroke-width="1.888"/>
    <path id="Trazado_105734" data-name="Trazado 105734" d="M0,0H6.236V18.047H0Z" transform="translate(495 1115.831)" fill="#ff8a5b"/>
    <path id="Trazado_105733" data-name="Trazado 105733" d="M0,0H6.236V18.047H0Z" transform="translate(513.047 1114.413) rotate(90)" fill="#ff8a5b"/>
    <path id="Trazado_105708" data-name="Trazado 105708" d="M0,0H180.992V42.331H0Z" transform="translate(911.122 1127.143)" fill="#ffae78"/>
    <path id="Trazado_105709" data-name="Trazado 105709" d="M.672-.528,1.04-1.7a4.515,4.515,0,0,0,2.48.7,2.5,2.5,0,0,0,1.656-.5,1.658,1.658,0,0,0,.6-1.336A1.69,1.69,0,0,0,5.3-4.056a4.344,4.344,0,0,0-1.56-.9Q.9-6,.9-8.032a2.64,2.64,0,0,1,.968-2.1,3.753,3.753,0,0,1,2.52-.824,4.636,4.636,0,0,1,2.368.528L6.368-9.3a3.806,3.806,0,0,0-2.032-.512,2.125,2.125,0,0,0-1.52.488A1.515,1.515,0,0,0,2.3-8.192a1.531,1.531,0,0,0,.488,1.184,5.382,5.382,0,0,0,1.656.9A5.357,5.357,0,0,1,6.52-4.832a2.711,2.711,0,0,1,.664,1.888A2.908,2.908,0,0,1,6.216-.72a3.965,3.965,0,0,1-2.792.9,6.073,6.073,0,0,1-1.536-.2A3.954,3.954,0,0,1,.672-.528ZM15.536-7.744v5.616q0,1.312.064,2.128H14.352l-.08-1.264H14.24a2.919,2.919,0,0,1-.976,1.008A2.816,2.816,0,0,1,11.68.176a2.718,2.718,0,0,1-.936-.16A2.662,2.662,0,0,1,9.9-.5,2.432,2.432,0,0,1,9.248-1.56a5.1,5.1,0,0,1-.24-1.656V-7.744h1.408v4.272q0,2.48,1.728,2.48A1.829,1.829,0,0,0,13.3-1.376a2.138,2.138,0,0,0,.7-.912,1.848,1.848,0,0,0,.128-.72V-7.744ZM17.872-2v-9.36h1.392V-6.5H19.3A2.819,2.819,0,0,1,21.936-7.9a2.936,2.936,0,0,1,2.368,1.1,4.292,4.292,0,0,1,.912,2.84A4.25,4.25,0,0,1,24.176-.92a3.268,3.268,0,0,1-2.448,1.1,2.82,2.82,0,0,1-2.608-1.44h-.032L19.008,0h-1.2Q17.872-1.056,17.872-2Zm1.392-2.48V-3.1a1.762,1.762,0,0,0,.064.512A2.178,2.178,0,0,0,20.1-1.4a2.1,2.1,0,0,0,1.344.456,2.054,2.054,0,0,0,1.728-.816,3.464,3.464,0,0,0,.624-2.16,3.338,3.338,0,0,0-.616-2.056,2.009,2.009,0,0,0-1.7-.824,2.087,2.087,0,0,0-1.32.472,2.3,2.3,0,0,0-.808,1.256A2.2,2.2,0,0,0,19.264-4.48ZM29.68-4.832h3.952v1.024H29.68ZM38.672,0V-5.328q0-1.456-.064-2.416H39.84L39.9-6.208h.048A2.545,2.545,0,0,1,40.8-7.44,2.077,2.077,0,0,1,42.112-7.9a3.4,3.4,0,0,1,.384.032v1.328a2.494,2.494,0,0,0-.48-.032,1.7,1.7,0,0,0-1.24.5,2.346,2.346,0,0,0-.648,1.3,4.021,4.021,0,0,0-.048.656V0Zm11.3-3.616h-5.44a2.62,2.62,0,0,0,.76,2.024,2.741,2.741,0,0,0,1.9.664,5.3,5.3,0,0,0,2.144-.4L49.584-.32a6.278,6.278,0,0,1-2.592.5A3.668,3.668,0,0,1,44.208-.9a3.951,3.951,0,0,1-1.024-2.848,4.476,4.476,0,0,1,.992-2.976A3.271,3.271,0,0,1,46.816-7.9a3.225,3.225,0,0,1,1.56.36,2.5,2.5,0,0,1,1,.936,4.6,4.6,0,0,1,.488,1.16,4.651,4.651,0,0,1,.152,1.176A3.51,3.51,0,0,1,49.968-3.616ZM44.544-4.624h4.112a2.736,2.736,0,0,0-.44-1.56A1.658,1.658,0,0,0,46.7-6.9a1.82,1.82,0,0,0-1.52.7A3.048,3.048,0,0,0,44.544-4.624Zm12.5,3.3.24,1.056a5.14,5.14,0,0,1-2.224.448,3.724,3.724,0,0,1-2.8-1.088A3.938,3.938,0,0,1,51.2-3.776a4.049,4.049,0,0,1,1.144-2.968A4.047,4.047,0,0,1,55.36-7.9a4.072,4.072,0,0,1,1.952.416l-.32,1.072a3.473,3.473,0,0,0-1.632-.368,2.517,2.517,0,0,0-2.008.84,3.075,3.075,0,0,0-.728,2.088,2.905,2.905,0,0,0,.76,2.112,2.571,2.571,0,0,0,1.928.784A4.228,4.228,0,0,0,57.04-1.328Zm8.368-6.416v5.616q0,1.312.064,2.128H64.224l-.08-1.264h-.032a2.919,2.919,0,0,1-.976,1.008,2.816,2.816,0,0,1-1.584.432,2.718,2.718,0,0,1-.936-.16,2.662,2.662,0,0,1-.848-.52A2.432,2.432,0,0,1,59.12-1.56a5.1,5.1,0,0,1-.24-1.656V-7.744h1.408v4.272q0,2.48,1.728,2.48a1.829,1.829,0,0,0,1.152-.384,2.139,2.139,0,0,0,.7-.912A1.848,1.848,0,0,0,64-3.008V-7.744ZM67.744,0V-5.328q0-1.456-.064-2.416h1.232l.064,1.536h.048a2.546,2.546,0,0,1,.848-1.232A2.077,2.077,0,0,1,71.184-7.9a3.4,3.4,0,0,1,.384.032v1.328a2.494,2.494,0,0,0-.48-.032,1.7,1.7,0,0,0-1.24.5,2.346,2.346,0,0,0-.648,1.3,4.02,4.02,0,0,0-.048.656V0Zm4.7-.368.336-1.056a3.611,3.611,0,0,0,1.872.544,1.682,1.682,0,0,0,1.1-.32,1.032,1.032,0,0,0,.384-.832,1.079,1.079,0,0,0-.32-.808,3.2,3.2,0,0,0-1.1-.6q-2.064-.752-2.064-2.192a2.08,2.08,0,0,1,.736-1.616A2.8,2.8,0,0,1,75.328-7.9a3.4,3.4,0,0,1,1.888.48L76.88-6.4A2.917,2.917,0,0,0,75.3-6.864a1.357,1.357,0,0,0-.944.3.974.974,0,0,0-.336.752.906.906,0,0,0,.328.736,4.475,4.475,0,0,0,1.128.592A3.884,3.884,0,0,1,77-3.544a1.975,1.975,0,0,1,.5,1.384,2.1,2.1,0,0,1-.768,1.7,3.2,3.2,0,0,1-2.112.64A4.225,4.225,0,0,1,72.448-.368ZM82.592-7.9a3.52,3.52,0,0,1,2.7,1.1A4.025,4.025,0,0,1,86.32-3.936,3.938,3.938,0,0,1,85.168-.88a3.873,3.873,0,0,1-2.7,1.056,3.534,3.534,0,0,1-2.656-1.1,3.987,3.987,0,0,1-1.056-2.888,4.066,4.066,0,0,1,1.1-2.984A3.7,3.7,0,0,1,82.592-7.9Zm1.7,1.968a1.928,1.928,0,0,0-1.736-.912,2,2,0,0,0-1.76.888,3.633,3.633,0,0,0-.608,2.1,3.374,3.374,0,0,0,.656,2.128,2.034,2.034,0,0,0,1.68.848,2.056,2.056,0,0,0,1.68-.856,3.379,3.379,0,0,0,.672-2.152A3.717,3.717,0,0,0,84.3-5.936ZM87.568-.368,87.9-1.424a3.611,3.611,0,0,0,1.872.544,1.682,1.682,0,0,0,1.1-.32,1.032,1.032,0,0,0,.384-.832,1.079,1.079,0,0,0-.32-.808,3.2,3.2,0,0,0-1.1-.6q-2.064-.752-2.064-2.192a2.08,2.08,0,0,1,.736-1.616A2.8,2.8,0,0,1,90.448-7.9a3.4,3.4,0,0,1,1.888.48L92-6.4a2.917,2.917,0,0,0-1.584-.464,1.357,1.357,0,0,0-.944.3.974.974,0,0,0-.336.752.906.906,0,0,0,.328.736,4.475,4.475,0,0,0,1.128.592,3.884,3.884,0,0,1,1.528.936,1.975,1.975,0,0,1,.5,1.384,2.1,2.1,0,0,1-.768,1.7,3.2,3.2,0,0,1-2.112.64A4.225,4.225,0,0,1,87.568-.368ZM97.824,0V-11.36h1.408v4.848h.032a2.545,2.545,0,0,1,1.008-1.008,2.855,2.855,0,0,1,1.44-.384,2.736,2.736,0,0,1,.68.088,2.754,2.754,0,0,1,.72.312,2.352,2.352,0,0,1,.656.584,2.989,2.989,0,0,1,.464.952,4.585,4.585,0,0,1,.184,1.36V0h-1.408V-4.448a2.881,2.881,0,0,0-.432-1.656,1.531,1.531,0,0,0-1.36-.632,1.846,1.846,0,0,0-1.168.4,2.138,2.138,0,0,0-.72.992,1.951,1.951,0,0,0-.1.672V0Zm15.36-7.744v5.616q0,1.312.064,2.128H112l-.08-1.264h-.032a2.919,2.919,0,0,1-.976,1.008,2.816,2.816,0,0,1-1.584.432,2.718,2.718,0,0,1-.936-.16,2.662,2.662,0,0,1-.848-.52A2.431,2.431,0,0,1,106.9-1.56a5.1,5.1,0,0,1-.24-1.656V-7.744h1.408v4.272q0,2.48,1.728,2.48a1.829,1.829,0,0,0,1.152-.384,2.138,2.138,0,0,0,.7-.912,1.848,1.848,0,0,0,.128-.72V-7.744ZM115.52,0V-5.648q0-.816-.064-2.1h1.232l.064,1.264h.048A2.671,2.671,0,0,1,119.248-7.9a2.206,2.206,0,0,1,1.344.424,2.371,2.371,0,0,1,.832,1.128h.032a3.024,3.024,0,0,1,.88-1.008,2.734,2.734,0,0,1,1.7-.544,2.453,2.453,0,0,1,.848.152,2.592,2.592,0,0,1,.816.5,2.468,2.468,0,0,1,.648,1.048,4.944,4.944,0,0,1,.248,1.656V0h-1.376V-4.368a3.11,3.11,0,0,0-.424-1.76,1.42,1.42,0,0,0-1.256-.624,1.59,1.59,0,0,0-1.024.36,2.1,2.1,0,0,0-.656.9,2.417,2.417,0,0,0-.112.7V0h-1.376V-4.64a2.569,2.569,0,0,0-.416-1.536,1.389,1.389,0,0,0-1.2-.576,1.616,1.616,0,0,0-1.088.416,2.111,2.111,0,0,0-.656.992,1.82,1.82,0,0,0-.112.688V0ZM134.3-4.752v2.9A12.7,12.7,0,0,0,134.416,0h-1.264l-.112-.976h-.048a2.736,2.736,0,0,1-.968.824,2.932,2.932,0,0,1-1.4.328A2.292,2.292,0,0,1,128.88-.48a2.2,2.2,0,0,1-.624-1.568A2.381,2.381,0,0,1,129.464-4.2a6.518,6.518,0,0,1,3.448-.728v-.16a2.654,2.654,0,0,0-.056-.552,2.085,2.085,0,0,0-.224-.568,1.153,1.153,0,0,0-.544-.48,2.2,2.2,0,0,0-.936-.176,3.529,3.529,0,0,0-2.032.576l-.32-.944a4.721,4.721,0,0,1,2.56-.672,2.657,2.657,0,0,1,2.28.9A3.686,3.686,0,0,1,134.3-4.752Zm-1.36,2.144V-3.952q-3.28-.064-3.28,1.744a1.287,1.287,0,0,0,.376,1,1.334,1.334,0,0,0,.936.344,1.954,1.954,0,0,0,1.216-.376,1.96,1.96,0,0,0,.688-.92A1.516,1.516,0,0,0,132.944-2.608ZM136.576,0V-5.648q0-1.248-.064-2.1h1.248l.08,1.28h.032a2.675,2.675,0,0,1,.992-1.024,2.918,2.918,0,0,1,1.568-.416,2.7,2.7,0,0,1,.888.152,2.961,2.961,0,0,1,.872.5,2.424,2.424,0,0,1,.7,1.024,4.368,4.368,0,0,1,.272,1.624V0H141.76V-4.464a2.881,2.881,0,0,0-.432-1.656,1.531,1.531,0,0,0-1.36-.632,1.8,1.8,0,0,0-1.168.416,2.227,2.227,0,0,0-.72,1.024,1.894,1.894,0,0,0-.1.656V0Zm12.16-7.9a3.52,3.52,0,0,1,2.7,1.1,4.025,4.025,0,0,1,1.032,2.864A3.938,3.938,0,0,1,151.312-.88a3.873,3.873,0,0,1-2.7,1.056,3.534,3.534,0,0,1-2.656-1.1A3.987,3.987,0,0,1,144.9-3.808a4.066,4.066,0,0,1,1.1-2.984A3.7,3.7,0,0,1,148.736-7.9Zm1.7,1.968a1.928,1.928,0,0,0-1.736-.912,2,2,0,0,0-1.76.888,3.633,3.633,0,0,0-.608,2.1,3.374,3.374,0,0,0,.656,2.128,2.034,2.034,0,0,0,1.68.848,2.056,2.056,0,0,0,1.68-.856,3.379,3.379,0,0,0,.672-2.152A3.717,3.717,0,0,0,150.44-5.936Zm3.272,5.568.336-1.056a3.611,3.611,0,0,0,1.872.544,1.682,1.682,0,0,0,1.1-.32,1.032,1.032,0,0,0,.384-.832,1.079,1.079,0,0,0-.32-.808,3.2,3.2,0,0,0-1.1-.6q-2.064-.752-2.064-2.192a2.08,2.08,0,0,1,.736-1.616,2.8,2.8,0,0,1,1.936-.656,3.4,3.4,0,0,1,1.888.48L158.144-6.4a2.917,2.917,0,0,0-1.584-.464,1.357,1.357,0,0,0-.944.3.974.974,0,0,0-.336.752.906.906,0,0,0,.328.736,4.475,4.475,0,0,0,1.128.592,3.884,3.884,0,0,1,1.528.936,1.975,1.975,0,0,1,.5,1.384A2.1,2.1,0,0,1,158-.464a3.2,3.2,0,0,1-2.112.64A4.225,4.225,0,0,1,153.712-.368Z" transform="translate(922.153 1153.143)" fill="#12263f"/>
    <path id="Trazado_105707" data-name="Trazado 105707" d="M0,0H206.693V61.451H0Z" transform="translate(898.307 1117.231)" fill="none" stroke="#606060" stroke-width="1.888"/>
    <path id="Trazado_105711" data-name="Trazado 105711" d="M0,0H6.236V18.047H0Z" transform="translate(895 1115.831)" fill="#ff8a5b"/>
    <path id="Trazado_105710" data-name="Trazado 105710" d="M0,0H6.236V18.047H0Z" transform="translate(913.047 1114.413) rotate(90)" fill="#ff8a5b"/>
    <g id="Grupo_53852" data-name="Grupo 53852" transform="translate(-2179.754 215.438)">
      <path id="Trazado_100665" data-name="Trazado 100665" d="M5.492,1.567,0,0,5.479,8.5l.013-.017.013.017L10.984,0Z" transform="translate(2984.231 753.471) rotate(180)" fill="#0075a4"/>
      <rect id="Rectángulo_5211" data-name="Rectángulo 5211" width="2.263" height="36.207" transform="translate(2977.607 747.636)" fill="#0075a4"/>
      <path id="Trazado_100712" data-name="Trazado 100712" d="M2978.739,792.661l-5.492-1.567,5.479,8.5.013-.017.013.017,5.479-8.5Z" transform="translate(0 -11.5)" fill="#0075a4"/>
    </g>
    <g id="Grupo_55778" data-name="Grupo 55778" transform="translate(689.974 -2041.877) rotate(71)">
      <path id="Trazado_100665-2" data-name="Trazado 100665" d="M5.492,1.567,0,0,5.479,8.5l.013-.017.013.017L10.984,0Z" transform="translate(2984.016 711.092) rotate(180)" fill="#0075a4"/>
      <rect id="Rectángulo_5211-2" data-name="Rectángulo 5211" width="2.263" height="75.207" transform="translate(2977.607 708.636)" fill="#0075a4"/>
      <path id="Trazado_100712-2" data-name="Trazado 100712" d="M2978.739,792.661l-5.492-1.567,5.479,8.5.013-.017.013.017,5.479-8.5Z" transform="translate(0 -11.5)" fill="#0075a4"/>
    </g>
    <g id="Grupo_55780" data-name="Grupo 55780" transform="matrix(-0.5, 0.866, -0.866, -0.5, 3089.622, -1122.928)">
      <path id="Trazado_100665-3" data-name="Trazado 100665" d="M5.492,1.567,0,0,5.479,8.5l.013-.017.013.017L10.984,0Z" transform="translate(2984.016 711.092) rotate(180)" fill="#0075a4"/>
      <rect id="Rectángulo_5211-3" data-name="Rectángulo 5211" width="2.263" height="75.207" transform="translate(2977.607 708.636)" fill="#0075a4"/>
      <path id="Trazado_100712-3" data-name="Trazado 100712" d="M2978.739,792.661l-5.492-1.567,5.479,8.5.013-.017.013.017,5.479-8.5Z" transform="translate(0 -11.5)" fill="#0075a4"/>
    </g>
    <g id="Grupo_55781" data-name="Grupo 55781" transform="matrix(0.5, 0.866, -0.866, 0.5, -198.649, -1868.271)">
      <path id="Trazado_100665-4" data-name="Trazado 100665" d="M5.492,1.567,0,0,5.479,8.5l.013-.017.013.017L10.984,0Z" transform="translate(2984.016 711.092) rotate(180)" fill="#0075a4"/>
      <rect id="Rectángulo_5211-4" data-name="Rectángulo 5211" width="2.263" height="75.207" transform="translate(2977.607 708.636)" fill="#0075a4"/>
      <path id="Trazado_100712-4" data-name="Trazado 100712" d="M2978.739,792.661l-5.492-1.567,5.479,8.5.013-.017.013.017,5.479-8.5Z" transform="translate(0 -11.5)" fill="#0075a4"/>
    </g>
    <g id="Grupo_55779" data-name="Grupo 55779" transform="matrix(-0.5, 0.866, -0.866, -0.5, 2779.982, -1196.775)">
      <path id="Trazado_100665-5" data-name="Trazado 100665" d="M5.492,1.567,0,0,5.479,8.5l.013-.017.013.017L10.984,0Z" transform="translate(2984.016 711.092) rotate(180)" fill="#0075a4"/>
      <rect id="Rectángulo_5211-5" data-name="Rectángulo 5211" width="2.263" height="75.207" transform="translate(2977.607 708.636)" fill="#0075a4"/>
      <path id="Trazado_100712-5" data-name="Trazado 100712" d="M2978.739,792.661l-5.492-1.567,5.479,8.5.013-.017.013.017,5.479-8.5Z" transform="translate(0 -11.5)" fill="#0075a4"/>
    </g>
    <path id="Trazado_105735" data-name="Trazado 105735" d="M11.789-7.418H5.039v4.594h7.922V0H1.523V-17.062H12.938v2.848h-7.9v4.066h6.75Zm7.828-9.645L24-4.687l4.359-12.375h4.617V0H29.449V-4.664l.352-8.051L25.2,0H22.781L18.188-12.7l.352,8.039V0H15.023V-17.062ZM39.563-6.012V0H36.047V-17.062H42.7a7.7,7.7,0,0,1,3.381.7,5.181,5.181,0,0,1,2.244,2,5.571,5.571,0,0,1,.785,2.947A4.9,4.9,0,0,1,47.4-7.459a7.15,7.15,0,0,1-4.752,1.447Zm0-2.848H42.7a3.088,3.088,0,0,0,2.127-.656,2.387,2.387,0,0,0,.732-1.875,2.814,2.814,0,0,0-.738-2.027,2.758,2.758,0,0,0-2.039-.8H39.563ZM57.844-6.246h-2.8V0H51.527V-17.062h6.34a7.167,7.167,0,0,1,4.664,1.348,4.651,4.651,0,0,1,1.641,3.809,5.249,5.249,0,0,1-.756,2.912,5.155,5.155,0,0,1-2.291,1.857L64.816-.164V0H61.043Zm-2.8-2.848h2.836a2.9,2.9,0,0,0,2.051-.674,2.408,2.408,0,0,0,.727-1.857,2.578,2.578,0,0,0-.686-1.9,2.849,2.849,0,0,0-2.1-.691H55.043ZM77.109-7.418h-6.75v4.594h7.922V0H66.844V-17.062H78.258v2.848h-7.9v4.066h6.75ZM89.191-4.477a1.8,1.8,0,0,0-.7-1.529,9.222,9.222,0,0,0-2.531-1.125A17.944,17.944,0,0,1,83.063-8.3q-2.906-1.57-2.906-4.23a4.12,4.12,0,0,1,.779-2.467,5.083,5.083,0,0,1,2.238-1.693,8.425,8.425,0,0,1,3.275-.609,7.668,7.668,0,0,1,3.258.662,5.187,5.187,0,0,1,2.221,1.869,4.891,4.891,0,0,1,.791,2.742H89.2a2.3,2.3,0,0,0-.738-1.822,3.035,3.035,0,0,0-2.074-.65,3.242,3.242,0,0,0-2,.545,1.719,1.719,0,0,0-.715,1.436,1.646,1.646,0,0,0,.838,1.395,9.466,9.466,0,0,0,2.467,1.055,10.658,10.658,0,0,1,4.371,2.238A4.458,4.458,0,0,1,92.719-4.5a4.106,4.106,0,0,1-1.676,3.475A7.336,7.336,0,0,1,86.531.234a8.712,8.712,0,0,1-3.586-.721,5.674,5.674,0,0,1-2.467-1.975,5.057,5.057,0,0,1-.85-2.906h3.527q0,2.824,3.375,2.824a3.283,3.283,0,0,0,1.957-.51A1.658,1.658,0,0,0,89.191-4.477Zm15.539.961H98.566L97.395,0H93.656l6.352-17.062h3.258L109.652,0h-3.738ZM99.516-6.363h4.266l-2.145-6.387Z" transform="translate(745 840)" fill="#0075a4"/>
    <path id="Trazado_100713" data-name="Trazado 100713" d="M-6916.988-10854h131.343" transform="translate(7652 11700)" fill="none" stroke="#0075a4" stroke-width="1"/>
  </g>
</svg>
