<svg xmlns="http://www.w3.org/2000/svg" width="1030.761" height="94.044" viewBox="0 0 1030.761 94.044">
  <g id="Grupo_57930" data-name="Grupo 57930" transform="translate(-285 -1772.58)">
    <rect id="Rectángulo_5264-5" data-name="Rectángulo 5264-5" width="252.897" height="61.442" transform="translate(308.4 1791.056)" fill="#dbfafa"/>
    <rect id="Rectángulo_5265-5" data-name="Rectángulo 5265-5" width="290.201" height="89.194" transform="translate(289.799 1776.67)" fill="none" stroke="#52d0d3" stroke-miterlimit="10" stroke-width="1.522"/>
    <rect id="Rectángulo_5266-5" data-name="Rectángulo 5266-5" width="9.051" height="26.194" transform="translate(285 1774.637)" fill="#25ced1"/>
    <rect id="Rectángulo_5267-5" data-name="Rectángulo 5267-5" width="26.194" height="9.051" transform="translate(285.001 1772.58)" fill="#25ced1"/>
    <path id="Rectángulo_5264-5-2" data-name="Rectángulo 5264-5" d="M0,0H252.9V61.442H0Z" transform="translate(1043.4 1791.056)" fill="#fce5e9"/>
    <rect id="Rectángulo_5265-5-2" data-name="Rectángulo 5265-5" width="290.201" height="89.194" transform="translate(1024.799 1776.67)" fill="none" stroke="#ea526f" stroke-miterlimit="10" stroke-width="1.522"/>
    <rect id="Rectángulo_5266-5-2" data-name="Rectángulo 5266-5" width="9.051" height="26.194" transform="translate(1020 1774.637)" fill="#ea526f"/>
    <rect id="Rectángulo_5264-5-3" data-name="Rectángulo 5264-5" width="252.897" height="61.442" transform="translate(676.4 1791.056)" fill="#ffe8de"/>
    <rect id="Rectángulo_5267-5-2" data-name="Rectángulo 5267-5" width="26.194" height="9.051" transform="translate(1020.001 1772.58)" fill="#ea526f"/>
    <rect id="Rectángulo_5265-5-3" data-name="Rectángulo 5265-5" width="290.201" height="89.194" transform="translate(657.799 1776.67)" fill="none" stroke="#ff8a5b" stroke-miterlimit="10" stroke-width="1.522"/>
    <rect id="Rectángulo_5266-5-3" data-name="Rectángulo 5266-5" width="9.051" height="26.194" transform="translate(653 1774.637)" fill="#ff8a5b"/>
    <rect id="Rectángulo_5267-5-3" data-name="Rectángulo 5267-5" width="26.194" height="9.051" transform="translate(653.001 1772.58)" fill="#ff8a5b"/>
    <g id="Descripción_Detallada_del_Escenario" data-name="Descripción Detallada del Escenario" transform="translate(-3507.523 615.547)" style="isolation: isolate">
      <path id="Trazado_105763" data-name="Trazado 105763" d="M-49.327-12.086l3.1,8.766,3.088-8.766h3.271V0h-2.5V-3.3l.249-5.7L-45.376,0h-1.71L-50.34-9l.249,5.694V0h-2.49V-12.086Zm11.106,7.512a5.327,5.327,0,0,1,.515-2.382,3.767,3.767,0,0,1,1.482-1.619,4.323,4.323,0,0,1,2.245-.573,4.09,4.09,0,0,1,2.968,1.112,4.464,4.464,0,0,1,1.282,3.021l.017.614a4.694,4.694,0,0,1-1.154,3.316,4.011,4.011,0,0,1-3.1,1.249,4.031,4.031,0,0,1-3.1-1.245,4.777,4.777,0,0,1-1.158-3.387Zm2.4.17a3.357,3.357,0,0,0,.481,1.958,1.588,1.588,0,0,0,1.378.678A1.592,1.592,0,0,0-32.6-2.437a3.674,3.674,0,0,0,.49-2.141,3.324,3.324,0,0,0-.49-1.945,1.592,1.592,0,0,0-1.378-.69,1.566,1.566,0,0,0-1.361.686A3.735,3.735,0,0,0-35.822-4.4Zm7.213-.154A5.413,5.413,0,0,1-27.667-7.9a3.057,3.057,0,0,1,2.577-1.245,2.751,2.751,0,0,1,2.167.979V-12.75h2.407V0h-2.167L-22.8-.955A2.823,2.823,0,0,1-25.106.166,3.049,3.049,0,0,1-27.65-1.083,5.587,5.587,0,0,1-28.609-4.557Zm2.4.171a3.565,3.565,0,0,0,.44,1.943,1.432,1.432,0,0,0,1.278.675,1.6,1.6,0,0,0,1.569-.942V-6.271a1.582,1.582,0,0,0-1.552-.942Q-26.21-7.213-26.21-4.386ZM-14.522.166a4.409,4.409,0,0,1-3.217-1.212A4.308,4.308,0,0,1-18.98-4.275v-.232a5.426,5.426,0,0,1,.523-2.42,3.838,3.838,0,0,1,1.482-1.644,4.159,4.159,0,0,1,2.187-.577,3.727,3.727,0,0,1,2.9,1.162,4.722,4.722,0,0,1,1.058,3.3v.979h-5.719a2.229,2.229,0,0,0,.7,1.411,2.12,2.12,0,0,0,1.482.531,2.589,2.589,0,0,0,2.167-1l1.179,1.32A3.6,3.6,0,0,1-12.48-.261,4.793,4.793,0,0,1-14.522.166ZM-14.8-7.213a1.5,1.5,0,0,0-1.158.484,2.5,2.5,0,0,0-.569,1.384h3.337v-.192a1.786,1.786,0,0,0-.432-1.238A1.547,1.547,0,0,0-14.8-7.213ZM-6.935,0H-9.343V-12.75h2.407Zm1.6-4.574a5.327,5.327,0,0,1,.515-2.382A3.768,3.768,0,0,1-3.337-8.575a4.323,4.323,0,0,1,2.245-.573A4.09,4.09,0,0,1,1.876-8.035,4.464,4.464,0,0,1,3.158-5.014l.017.614A4.694,4.694,0,0,1,2.021-1.083,4.011,4.011,0,0,1-1.075.166a4.031,4.031,0,0,1-3.1-1.245A4.777,4.777,0,0,1-5.333-4.466Zm2.4.17a3.357,3.357,0,0,0,.481,1.958,1.588,1.588,0,0,0,1.378.678A1.592,1.592,0,0,0,.286-2.437a3.674,3.674,0,0,0,.49-2.141,3.324,3.324,0,0,0-.49-1.945,1.592,1.592,0,0,0-1.378-.69,1.566,1.566,0,0,0-1.361.686A3.735,3.735,0,0,0-2.934-4.4Zm19.25-.536H11.534V0H9.044V-12.086h7.869v2.017H11.534v3.121h4.781ZM20.789,0h-2.4V-8.981h2.4Zm-.706-12.625H22.7l-2.3,2.573H18.448ZM27.72-2.482a.773.773,0,0,0-.436-.693,4.95,4.95,0,0,0-1.4-.452q-3.2-.672-3.2-2.723a2.468,2.468,0,0,1,.992-2,4,4,0,0,1,2.594-.8A4.307,4.307,0,0,1,29-8.342,2.538,2.538,0,0,1,30.028-6.25h-2.4A1.161,1.161,0,0,0,27.3-7.1a1.405,1.405,0,0,0-1.038-.336,1.436,1.436,0,0,0-.938.274.865.865,0,0,0-.332.7.739.739,0,0,0,.378.643,3.885,3.885,0,0,0,1.274.423,10.407,10.407,0,0,1,1.511.4,2.482,2.482,0,0,1,1.9,2.416A2.343,2.343,0,0,1,29-.594a4.548,4.548,0,0,1-2.723.76,4.75,4.75,0,0,1-2-.4,3.363,3.363,0,0,1-1.374-1.1,2.565,2.565,0,0,1-.5-1.515h2.274a1.252,1.252,0,0,0,.473.979,1.877,1.877,0,0,0,1.179.34A1.737,1.737,0,0,0,27.368-1.8.814.814,0,0,0,27.72-2.482ZM34.129,0H31.721V-8.981h2.407ZM31.58-11.306a1.181,1.181,0,0,1,.361-.888,1.356,1.356,0,0,1,.984-.349,1.36,1.36,0,0,1,.979.349,1.175,1.175,0,0,1,.365.888,1.178,1.178,0,0,1-.369.9,1.363,1.363,0,0,1-.975.349,1.363,1.363,0,0,1-.975-.349A1.178,1.178,0,0,1,31.58-11.306ZM39.84-1.768a1.573,1.573,0,0,0,1.079-.365A1.28,1.28,0,0,0,41.35-3.1H43.6a3.077,3.077,0,0,1-.5,1.673A3.286,3.286,0,0,1,41.761-.253a4.2,4.2,0,0,1-1.88.419,3.9,3.9,0,0,1-3.038-1.224,4.845,4.845,0,0,1-1.112-3.383V-4.6a4.79,4.79,0,0,1,1.1-3.312,3.854,3.854,0,0,1,3.03-1.237,3.778,3.778,0,0,1,2.7.959A3.4,3.4,0,0,1,43.6-5.636H41.35a1.648,1.648,0,0,0-.432-1.139,1.439,1.439,0,0,0-1.1-.438,1.445,1.445,0,0,0-1.266.611A3.541,3.541,0,0,0,38.13-4.62v.249a3.586,3.586,0,0,0,.423,2A1.463,1.463,0,0,0,39.84-1.768ZM44.6-4.574a5.327,5.327,0,0,1,.515-2.382,3.767,3.767,0,0,1,1.482-1.619,4.323,4.323,0,0,1,2.245-.573,4.09,4.09,0,0,1,2.968,1.112,4.464,4.464,0,0,1,1.282,3.021L53.1-4.4A4.694,4.694,0,0,1,51.95-1.083a4.011,4.011,0,0,1-3.1,1.249,4.031,4.031,0,0,1-3.1-1.245A4.777,4.777,0,0,1,44.6-4.466Zm2.4.17a3.357,3.357,0,0,0,.481,1.958,1.588,1.588,0,0,0,1.378.678,1.592,1.592,0,0,0,1.361-.669,3.674,3.674,0,0,0,.49-2.141,3.324,3.324,0,0,0-.49-1.945,1.592,1.592,0,0,0-1.378-.69,1.566,1.566,0,0,0-1.361.686A3.735,3.735,0,0,0,46.995-4.4Z" transform="translate(3940.523 1211.675)" fill="#12263f"/>
    </g>
    <g id="Descripción_Detallada_del_Escenario-2" data-name="Descripción Detallada del Escenario" transform="translate(-3060.524 615.547)" style="isolation: isolate">
      <path id="Trazado_105762" data-name="Trazado 105762" d="M-76.064-12.086l3.1,8.766,3.088-8.766H-66.6V0h-2.5V-3.3l.249-5.7L-72.113,0h-1.71l-3.254-9,.249,5.694V0h-2.49V-12.086Zm11.106,7.512a5.326,5.326,0,0,1,.515-2.382,3.768,3.768,0,0,1,1.482-1.619,4.323,4.323,0,0,1,2.245-.573,4.09,4.09,0,0,1,2.968,1.112,4.464,4.464,0,0,1,1.282,3.021l.017.614A4.694,4.694,0,0,1-57.6-1.083,4.011,4.011,0,0,1-60.7.166a4.031,4.031,0,0,1-3.1-1.245,4.777,4.777,0,0,1-1.158-3.387Zm2.4.17a3.357,3.357,0,0,0,.481,1.958,1.588,1.588,0,0,0,1.378.678,1.592,1.592,0,0,0,1.361-.669,3.674,3.674,0,0,0,.49-2.141,3.324,3.324,0,0,0-.49-1.945,1.592,1.592,0,0,0-1.378-.69,1.566,1.566,0,0,0-1.361.686A3.735,3.735,0,0,0-62.559-4.4Zm7.213-.154A5.413,5.413,0,0,1-54.4-7.9a3.057,3.057,0,0,1,2.577-1.245,2.751,2.751,0,0,1,2.167.979V-12.75h2.407V0h-2.167l-.116-.955A2.823,2.823,0,0,1-51.843.166a3.049,3.049,0,0,1-2.544-1.249A5.587,5.587,0,0,1-55.345-4.557Zm2.4.171a3.565,3.565,0,0,0,.44,1.943,1.432,1.432,0,0,0,1.278.675,1.6,1.6,0,0,0,1.569-.942V-6.271a1.582,1.582,0,0,0-1.552-.942Q-52.947-7.213-52.947-4.386ZM-41.259.166a4.409,4.409,0,0,1-3.217-1.212,4.308,4.308,0,0,1-1.241-3.229v-.232a5.426,5.426,0,0,1,.523-2.42,3.838,3.838,0,0,1,1.482-1.644,4.159,4.159,0,0,1,2.187-.577,3.727,3.727,0,0,1,2.9,1.162,4.722,4.722,0,0,1,1.058,3.3v.979h-5.719a2.229,2.229,0,0,0,.7,1.411,2.12,2.12,0,0,0,1.482.531,2.589,2.589,0,0,0,2.167-1l1.179,1.32A3.6,3.6,0,0,1-39.217-.261,4.793,4.793,0,0,1-41.259.166Zm-.274-7.379a1.5,1.5,0,0,0-1.158.484,2.5,2.5,0,0,0-.569,1.384h3.337v-.192a1.786,1.786,0,0,0-.432-1.238A1.547,1.547,0,0,0-41.533-7.213ZM-33.672,0h-2.407V-12.75h2.407Zm1.6-4.574a5.327,5.327,0,0,1,.515-2.382,3.768,3.768,0,0,1,1.482-1.619,4.323,4.323,0,0,1,2.245-.573,4.09,4.09,0,0,1,2.968,1.112,4.464,4.464,0,0,1,1.282,3.021l.017.614a4.694,4.694,0,0,1-1.154,3.316,4.011,4.011,0,0,1-3.1,1.249,4.031,4.031,0,0,1-3.1-1.245A4.777,4.777,0,0,1-32.07-4.466Zm2.4.17a3.357,3.357,0,0,0,.481,1.958,1.588,1.588,0,0,0,1.378.678,1.592,1.592,0,0,0,1.361-.669,3.674,3.674,0,0,0,.49-2.141,3.324,3.324,0,0,0-.49-1.945,1.592,1.592,0,0,0-1.378-.69,1.566,1.566,0,0,0-1.361.686A3.735,3.735,0,0,0-29.671-4.4Zm19.25-.851H-15.2V-2h5.611V0h-8.1V-12.086h8.085v2.017H-15.2v2.88h4.781Zm7,2.772a.773.773,0,0,0-.436-.693,4.95,4.95,0,0,0-1.4-.452q-3.2-.672-3.2-2.723a2.468,2.468,0,0,1,.992-2,4,4,0,0,1,2.594-.8,4.307,4.307,0,0,1,2.735.805A2.538,2.538,0,0,1-1.116-6.25h-2.4A1.161,1.161,0,0,0-3.847-7.1a1.405,1.405,0,0,0-1.038-.336,1.436,1.436,0,0,0-.938.274.865.865,0,0,0-.332.7.739.739,0,0,0,.378.643A3.885,3.885,0,0,0-4.5-5.4,10.407,10.407,0,0,1-2.992-5a2.482,2.482,0,0,1,1.9,2.416A2.343,2.343,0,0,1-2.146-.594a4.548,4.548,0,0,1-2.723.76,4.75,4.75,0,0,1-2-.4,3.363,3.363,0,0,1-1.374-1.1,2.565,2.565,0,0,1-.5-1.515H-6.47A1.252,1.252,0,0,0-6-1.876a1.877,1.877,0,0,0,1.179.34A1.737,1.737,0,0,0-3.777-1.8.814.814,0,0,0-3.424-2.482Zm3.5-2.092a5.369,5.369,0,0,1,.942-3.345A3.08,3.08,0,0,1,3.607-9.147a2.758,2.758,0,0,1,2.3,1.1l.158-.938H8.172V3.453H5.765V-.772A2.765,2.765,0,0,1,3.59.166,3.057,3.057,0,0,1,1.033-1.079,5.632,5.632,0,0,1,.079-4.574Zm2.4.17A3.522,3.522,0,0,0,2.93-2.441,1.448,1.448,0,0,0,4.2-1.768a1.613,1.613,0,0,0,1.561-.881V-6.365a1.6,1.6,0,0,0-1.544-.848,1.466,1.466,0,0,0-1.287.673A3.889,3.889,0,0,0,2.478-4.4ZM15.435-.913A3.008,3.008,0,0,1,12.978.166a2.837,2.837,0,0,1-2.2-.83A3.543,3.543,0,0,1,10-3.1V-8.981h2.4v5.809q0,1.4,1.278,1.4a1.732,1.732,0,0,0,1.677-.848V-8.981H17.76V0H15.5ZM23.7.166a4.409,4.409,0,0,1-3.217-1.212,4.308,4.308,0,0,1-1.241-3.229v-.232a5.426,5.426,0,0,1,.523-2.42A3.838,3.838,0,0,1,21.25-8.571a4.159,4.159,0,0,1,2.187-.577,3.727,3.727,0,0,1,2.9,1.162A4.722,4.722,0,0,1,27.4-4.69v.979H21.677a2.229,2.229,0,0,0,.7,1.411,2.12,2.12,0,0,0,1.482.531,2.589,2.589,0,0,0,2.167-1l1.179,1.32A3.6,3.6,0,0,1,25.745-.261,4.793,4.793,0,0,1,23.7.166Zm-.274-7.379a1.5,1.5,0,0,0-1.158.484A2.5,2.5,0,0,0,21.7-5.346h3.337v-.192a1.786,1.786,0,0,0-.432-1.238A1.547,1.547,0,0,0,23.429-7.213Zm7.579-1.768.075,1a3.156,3.156,0,0,1,2.582-1.17,2.4,2.4,0,0,1,2.382,1.37,3.084,3.084,0,0,1,2.7-1.37,2.679,2.679,0,0,1,2.175.851,3.911,3.911,0,0,1,.714,2.561V0H39.225V-5.741a1.717,1.717,0,0,0-.3-1.119,1.322,1.322,0,0,0-1.054-.354,1.5,1.5,0,0,0-1.494,1.032L36.386,0h-2.4V-5.732a1.7,1.7,0,0,0-.307-1.132,1.335,1.335,0,0,0-1.046-.349,1.554,1.554,0,0,0-1.478.849V0h-2.4V-8.981ZM48.68,0a2.664,2.664,0,0,1-.241-.805,2.9,2.9,0,0,1-2.266.971A3.189,3.189,0,0,1,43.986-.6a2.456,2.456,0,0,1-.867-1.926,2.538,2.538,0,0,1,1.058-2.191,5.222,5.222,0,0,1,3.059-.772h1.1V-6a1.48,1.48,0,0,0-.32-1,1.257,1.257,0,0,0-1.009-.374,1.429,1.429,0,0,0-.95.291.987.987,0,0,0-.344.8h-2.4A2.41,2.41,0,0,1,43.8-7.728,3.182,3.182,0,0,1,45.16-8.77a4.961,4.961,0,0,1,1.976-.378,3.92,3.92,0,0,1,2.635.834,2.918,2.918,0,0,1,.975,2.345v3.893A4.294,4.294,0,0,0,51.1-.141V0ZM46.7-1.668a2.066,2.066,0,0,0,.979-.237,1.554,1.554,0,0,0,.664-.635V-4.084h-.9q-1.8,0-1.917,1.245l-.008.141a.96.96,0,0,0,.315.739A1.225,1.225,0,0,0,46.7-1.668Zm.913-11.082h2.615l-2.3,2.573H45.974Zm7.853,1.561v2.208H57v1.76H55.462v4.482a1.07,1.07,0,0,0,.191.714.959.959,0,0,0,.73.216,3.826,3.826,0,0,0,.706-.058V-.05a4.939,4.939,0,0,1-1.453.216,2.29,2.29,0,0,1-2.573-2.548V-7.222H51.751v-1.76h1.312v-2.208ZM60.865,0H58.458V-8.981h2.407ZM58.317-11.306a1.181,1.181,0,0,1,.361-.888,1.356,1.356,0,0,1,.984-.349,1.36,1.36,0,0,1,.979.349,1.175,1.175,0,0,1,.365.888,1.178,1.178,0,0,1-.369.9,1.363,1.363,0,0,1-.975.349,1.363,1.363,0,0,1-.975-.349A1.178,1.178,0,0,1,58.317-11.306Zm8.259,9.538a1.573,1.573,0,0,0,1.079-.365,1.28,1.28,0,0,0,.432-.971h2.25a3.077,3.077,0,0,1-.5,1.673A3.286,3.286,0,0,1,68.5-.253a4.2,4.2,0,0,1-1.88.419A3.9,3.9,0,0,1,63.58-1.058a4.845,4.845,0,0,1-1.112-3.383V-4.6a4.79,4.79,0,0,1,1.1-3.312A3.854,3.854,0,0,1,66.6-9.147a3.778,3.778,0,0,1,2.7.959,3.4,3.4,0,0,1,1.033,2.552h-2.25a1.648,1.648,0,0,0-.432-1.139,1.439,1.439,0,0,0-1.1-.438,1.445,1.445,0,0,0-1.266.611,3.541,3.541,0,0,0-.427,1.983v.249a3.586,3.586,0,0,0,.423,2A1.463,1.463,0,0,0,66.576-1.768Zm4.756-2.806a5.326,5.326,0,0,1,.515-2.382,3.768,3.768,0,0,1,1.482-1.619,4.323,4.323,0,0,1,2.245-.573,4.09,4.09,0,0,1,2.968,1.112,4.464,4.464,0,0,1,1.282,3.021l.017.614a4.694,4.694,0,0,1-1.154,3.316,4.011,4.011,0,0,1-3.1,1.249,4.031,4.031,0,0,1-3.1-1.245,4.777,4.777,0,0,1-1.158-3.387Zm2.4.17a3.357,3.357,0,0,0,.481,1.958,1.588,1.588,0,0,0,1.378.678,1.592,1.592,0,0,0,1.361-.669,3.674,3.674,0,0,0,.49-2.141,3.324,3.324,0,0,0-.49-1.945,1.592,1.592,0,0,0-1.378-.69,1.566,1.566,0,0,0-1.361.686A3.736,3.736,0,0,0,73.732-4.4Z" transform="translate(3861.524 1211.675)" fill="#12263f"/>
    </g>
    <g id="Descripción_Detallada_del_Escenario-3" data-name="Descripción Detallada del Escenario" transform="translate(-2693.524 615.547)" style="isolation: isolate">
      <path id="Trazado_105764" data-name="Trazado 105764" d="M-72.229-12.086l3.1,8.766,3.088-8.766h3.271V0h-2.5V-3.3l.249-5.7L-68.278,0h-1.71l-3.254-9,.249,5.694V0h-2.49V-12.086Zm11.106,7.512a5.327,5.327,0,0,1,.515-2.382,3.767,3.767,0,0,1,1.482-1.619,4.323,4.323,0,0,1,2.245-.573,4.09,4.09,0,0,1,2.968,1.112,4.464,4.464,0,0,1,1.282,3.021l.017.614a4.694,4.694,0,0,1-1.154,3.316,4.011,4.011,0,0,1-3.1,1.249,4.031,4.031,0,0,1-3.1-1.245,4.777,4.777,0,0,1-1.158-3.387Zm2.4.17a3.357,3.357,0,0,0,.481,1.958,1.588,1.588,0,0,0,1.378.678A1.592,1.592,0,0,0-55.5-2.437a3.674,3.674,0,0,0,.49-2.141,3.324,3.324,0,0,0-.49-1.945,1.592,1.592,0,0,0-1.378-.69,1.566,1.566,0,0,0-1.361.686A3.735,3.735,0,0,0-58.724-4.4Zm7.213-.154A5.413,5.413,0,0,1-50.568-7.9a3.057,3.057,0,0,1,2.577-1.245,2.751,2.751,0,0,1,2.167.979V-12.75h2.407V0h-2.167L-45.7-.955A2.823,2.823,0,0,1-48.008.166a3.049,3.049,0,0,1-2.544-1.249A5.587,5.587,0,0,1-51.51-4.557Zm2.4.171a3.565,3.565,0,0,0,.44,1.943,1.432,1.432,0,0,0,1.278.675,1.6,1.6,0,0,0,1.569-.942V-6.271a1.582,1.582,0,0,0-1.552-.942Q-49.112-7.213-49.112-4.386ZM-37.424.166a4.409,4.409,0,0,1-3.217-1.212,4.308,4.308,0,0,1-1.241-3.229v-.232a5.426,5.426,0,0,1,.523-2.42,3.838,3.838,0,0,1,1.482-1.644,4.159,4.159,0,0,1,2.187-.577,3.727,3.727,0,0,1,2.9,1.162,4.722,4.722,0,0,1,1.058,3.3v.979h-5.719a2.229,2.229,0,0,0,.7,1.411,2.12,2.12,0,0,0,1.482.531,2.589,2.589,0,0,0,2.167-1l1.179,1.32A3.6,3.6,0,0,1-35.382-.261,4.793,4.793,0,0,1-37.424.166ZM-37.7-7.213a1.5,1.5,0,0,0-1.158.484,2.5,2.5,0,0,0-.569,1.384h3.337v-.192a1.786,1.786,0,0,0-.432-1.238A1.547,1.547,0,0,0-37.7-7.213ZM-29.837,0h-2.407V-12.75h2.407Zm1.6-4.574a5.327,5.327,0,0,1,.515-2.382,3.768,3.768,0,0,1,1.482-1.619,4.323,4.323,0,0,1,2.245-.573,4.09,4.09,0,0,1,2.968,1.112,4.464,4.464,0,0,1,1.282,3.021l.017.614a4.694,4.694,0,0,1-1.154,3.316,4.011,4.011,0,0,1-3.1,1.249,4.031,4.031,0,0,1-3.1-1.245,4.777,4.777,0,0,1-1.158-3.387Zm2.4.17a3.357,3.357,0,0,0,.481,1.958,1.588,1.588,0,0,0,1.378.678,1.592,1.592,0,0,0,1.361-.669,3.674,3.674,0,0,0,.49-2.141,3.324,3.324,0,0,0-.49-1.945,1.592,1.592,0,0,0-1.378-.69,1.566,1.566,0,0,0-1.361.686A3.735,3.735,0,0,0-25.836-4.4ZM-10.6-12.086-7.5-3.32l3.088-8.766h3.271V0h-2.5V-3.3l.249-5.7L-6.653,0h-1.71l-3.254-9,.249,5.694V0h-2.49V-12.086ZM6.08,0A2.664,2.664,0,0,1,5.84-.805,2.9,2.9,0,0,1,3.573.166,3.189,3.189,0,0,1,1.386-.6,2.456,2.456,0,0,1,.519-2.523,2.538,2.538,0,0,1,1.577-4.715a5.222,5.222,0,0,1,3.059-.772h1.1V-6a1.48,1.48,0,0,0-.32-1,1.257,1.257,0,0,0-1.009-.374,1.429,1.429,0,0,0-.95.291.987.987,0,0,0-.344.8H.718A2.41,2.41,0,0,1,1.2-7.728,3.182,3.182,0,0,1,2.561-8.77a4.961,4.961,0,0,1,1.976-.378,3.92,3.92,0,0,1,2.635.834,2.918,2.918,0,0,1,.975,2.345v3.893A4.294,4.294,0,0,0,8.5-.141V0ZM4.1-1.668a2.066,2.066,0,0,0,.979-.237A1.554,1.554,0,0,0,5.74-2.54V-4.084h-.9q-1.8,0-1.917,1.245L2.918-2.7a.96.96,0,0,0,.315.739A1.225,1.225,0,0,0,4.1-1.668Zm8.766-9.521v2.208H14.4v1.76H12.862v4.482a1.07,1.07,0,0,0,.191.714.959.959,0,0,0,.73.216,3.826,3.826,0,0,0,.706-.058V-.05a4.939,4.939,0,0,1-1.453.216,2.29,2.29,0,0,1-2.573-2.548V-7.222H9.152v-1.76h1.312v-2.208ZM19.868.166a4.409,4.409,0,0,1-3.217-1.212A4.308,4.308,0,0,1,15.41-4.275v-.232a5.426,5.426,0,0,1,.523-2.42,3.838,3.838,0,0,1,1.482-1.644A4.159,4.159,0,0,1,19.6-9.147a3.727,3.727,0,0,1,2.9,1.162,4.722,4.722,0,0,1,1.058,3.3v.979H17.843a2.229,2.229,0,0,0,.7,1.411,2.12,2.12,0,0,0,1.482.531,2.589,2.589,0,0,0,2.167-1l1.179,1.32A3.6,3.6,0,0,1,21.91-.261,4.793,4.793,0,0,1,19.868.166Zm-.274-7.379a1.5,1.5,0,0,0-1.158.484,2.5,2.5,0,0,0-.569,1.384H21.2v-.192a1.786,1.786,0,0,0-.432-1.238A1.547,1.547,0,0,0,19.594-7.213Zm7.579-1.768.075,1a3.156,3.156,0,0,1,2.582-1.17,2.4,2.4,0,0,1,2.382,1.37,3.084,3.084,0,0,1,2.7-1.37,2.679,2.679,0,0,1,2.175.851A3.911,3.911,0,0,1,37.8-5.736V0H35.39V-5.741a1.717,1.717,0,0,0-.3-1.119,1.322,1.322,0,0,0-1.054-.354,1.5,1.5,0,0,0-1.494,1.032L32.552,0h-2.4V-5.732a1.7,1.7,0,0,0-.307-1.132A1.335,1.335,0,0,0,28.8-7.213a1.554,1.554,0,0,0-1.478.849V0h-2.4V-8.981ZM44.845,0A2.664,2.664,0,0,1,44.6-.805a2.9,2.9,0,0,1-2.266.971A3.189,3.189,0,0,1,40.151-.6a2.456,2.456,0,0,1-.867-1.926,2.538,2.538,0,0,1,1.058-2.191A5.222,5.222,0,0,1,43.4-5.487h1.1V-6a1.48,1.48,0,0,0-.32-1,1.257,1.257,0,0,0-1.009-.374,1.429,1.429,0,0,0-.95.291.987.987,0,0,0-.344.8h-2.4a2.41,2.41,0,0,1,.481-1.444A3.182,3.182,0,0,1,41.325-8.77,4.961,4.961,0,0,1,43.3-9.147a3.92,3.92,0,0,1,2.635.834,2.918,2.918,0,0,1,.975,2.345v3.893a4.294,4.294,0,0,0,.357,1.934V0ZM42.861-1.668a2.066,2.066,0,0,0,.979-.237A1.554,1.554,0,0,0,44.5-2.54V-4.084h-.9q-1.8,0-1.917,1.245l-.008.141A.96.96,0,0,0,42-1.959,1.225,1.225,0,0,0,42.861-1.668Zm.913-11.082h2.615l-2.3,2.573H42.139Zm7.853,1.561v2.208h1.536v1.76H51.627v4.482a1.07,1.07,0,0,0,.191.714.959.959,0,0,0,.73.216,3.826,3.826,0,0,0,.706-.058V-.05A4.939,4.939,0,0,1,51.8.166a2.29,2.29,0,0,1-2.573-2.548V-7.222H47.916v-1.76h1.312v-2.208ZM57.031,0H54.623V-8.981h2.407ZM54.482-11.306a1.181,1.181,0,0,1,.361-.888,1.356,1.356,0,0,1,.984-.349,1.36,1.36,0,0,1,.979.349,1.175,1.175,0,0,1,.365.888,1.178,1.178,0,0,1-.369.9,1.363,1.363,0,0,1-.975.349,1.363,1.363,0,0,1-.975-.349A1.178,1.178,0,0,1,54.482-11.306Zm8.259,9.538a1.573,1.573,0,0,0,1.079-.365,1.28,1.28,0,0,0,.432-.971H66.5A3.077,3.077,0,0,1,66-1.432,3.286,3.286,0,0,1,64.663-.253a4.2,4.2,0,0,1-1.88.419,3.9,3.9,0,0,1-3.038-1.224,4.845,4.845,0,0,1-1.112-3.383V-4.6a4.79,4.79,0,0,1,1.1-3.312,3.854,3.854,0,0,1,3.03-1.237,3.778,3.778,0,0,1,2.7.959A3.4,3.4,0,0,1,66.5-5.636h-2.25a1.648,1.648,0,0,0-.432-1.139,1.439,1.439,0,0,0-1.1-.438,1.445,1.445,0,0,0-1.266.611,3.541,3.541,0,0,0-.427,1.983v.249a3.586,3.586,0,0,0,.423,2A1.463,1.463,0,0,0,62.741-1.768ZM67.5-4.574a5.326,5.326,0,0,1,.515-2.382,3.768,3.768,0,0,1,1.482-1.619,4.323,4.323,0,0,1,2.245-.573,4.09,4.09,0,0,1,2.968,1.112A4.464,4.464,0,0,1,75.99-5.014l.017.614a4.694,4.694,0,0,1-1.154,3.316,4.011,4.011,0,0,1-3.1,1.249,4.031,4.031,0,0,1-3.1-1.245A4.777,4.777,0,0,1,67.5-4.466Zm2.4.17a3.357,3.357,0,0,0,.481,1.958,1.588,1.588,0,0,0,1.378.678,1.592,1.592,0,0,0,1.361-.669,3.674,3.674,0,0,0,.49-2.141,3.324,3.324,0,0,0-.49-1.945,1.592,1.592,0,0,0-1.378-.69,1.566,1.566,0,0,0-1.361.686A3.736,3.736,0,0,0,69.9-4.4Z" transform="translate(3861.524 1211.675)" fill="#12263f"/>
    </g>
  </g>
</svg>
