<svg xmlns="http://www.w3.org/2000/svg" width="296.261" height="312.044" viewBox="0 0 296.261 312.044">
  <g id="Grupo_55775" data-name="Grupo 55775" transform="translate(-59.917 -712.426)">
    <g id="Grupo_55771-5" data-name="Grupo 55771-5" transform="translate(59.917 712.426)">
      <rect id="Rectángulo_5264-5" data-name="Rectángulo 5264-5" width="252.897" height="61.442" transform="translate(23.401 18.476)" fill="#dbfafa"/>
      <rect id="Rectángulo_5265-5" data-name="Rectángulo 5265-5" width="290.201" height="89.194" transform="translate(4.799 4.09)" fill="none" stroke="#52d0d3" stroke-miterlimit="10" stroke-width="1.522"/>
      <rect id="Rectángulo_5266-5" data-name="Rectángulo 5266-5" width="9.051" height="26.194" transform="translate(0 2.057)" fill="#25ced1"/>
      <rect id="Rectángulo_5267-5" data-name="Rectángulo 5267-5" width="26.194" height="9.051" transform="translate(0.001)" fill="#25ced1"/>
    </g>
  </g>
  <g id="Grupo_55775-2" data-name="Grupo 55775" transform="translate(-59.917 -494.426)">
    <g id="Grupo_55771-5-2" data-name="Grupo 55771-5" transform="translate(59.917 712.426)">
      <path id="Rectángulo_5264-5-2" data-name="Rectángulo 5264-5" d="M0,0H252.9V61.442H0Z" transform="translate(23.401 18.476)" fill="#f5e6e9"/>
      <rect id="Rectángulo_5265-5-2" data-name="Rectángulo 5265-5" width="290.201" height="89.194" transform="translate(4.799 4.09)" fill="none" stroke="#9f0925" stroke-miterlimit="10" stroke-width="1.522"/>
      <rect id="Rectángulo_5266-5-2" data-name="Rectángulo 5266-5" width="9.051" height="26.194" transform="translate(0 2.057)" fill="#9f0925"/>
      <rect id="Rectángulo_5267-5-2" data-name="Rectángulo 5267-5" width="26.194" height="9.051" transform="translate(0.001)" fill="#9f0925"/>
    </g>
  </g>
  <g id="Grupo_55775-3" data-name="Grupo 55775" transform="translate(-59.417 -603.426)">
    <g id="Grupo_55771-5-3" data-name="Grupo 55771-5" transform="translate(59.917 712.426)">
      <rect id="Rectángulo_5264-5-3" data-name="Rectángulo 5264-5" width="252.897" height="61.442" transform="translate(23.401 18.476)" fill="#ffe8de"/>
      <rect id="Rectángulo_5265-5-3" data-name="Rectángulo 5265-5" width="290.201" height="89.194" transform="translate(4.799 4.09)" fill="none" stroke="#ff8a5b" stroke-miterlimit="10" stroke-width="1.522"/>
      <rect id="Rectángulo_5266-5-3" data-name="Rectángulo 5266-5" width="9.051" height="26.194" transform="translate(0 2.057)" fill="#ff8a5b"/>
      <rect id="Rectángulo_5267-5-3" data-name="Rectángulo 5267-5" width="26.194" height="9.051" transform="translate(0.001)" fill="#ff8a5b"/>
    </g>
  </g>
  <g id="Descripción_Detallada_del_Escenario" data-name="Descripción Detallada del Escenario" transform="translate(-3792.524 -1157.033)" style="isolation: isolate">
    <path id="Trazado_735328" data-name="Trazado 735328" d="M-49.327-12.086l3.1,8.766,3.088-8.766h3.271V0h-2.5V-3.3l.249-5.7L-45.376,0h-1.71L-50.34-9l.249,5.694V0h-2.49V-12.086Zm11.106,7.512a5.327,5.327,0,0,1,.515-2.382,3.767,3.767,0,0,1,1.482-1.619,4.323,4.323,0,0,1,2.245-.573,4.09,4.09,0,0,1,2.968,1.112,4.464,4.464,0,0,1,1.282,3.021l.017.614a4.694,4.694,0,0,1-1.154,3.316,4.011,4.011,0,0,1-3.1,1.249,4.031,4.031,0,0,1-3.1-1.245,4.777,4.777,0,0,1-1.158-3.387Zm2.4.174a3.348,3.348,0,0,0,.481,1.955,1.589,1.589,0,0,0,1.378.677A1.593,1.593,0,0,0-32.6-2.436a3.664,3.664,0,0,0,.49-2.137,3.315,3.315,0,0,0-.49-1.942,1.593,1.593,0,0,0-1.378-.689,1.567,1.567,0,0,0-1.361.685A3.725,3.725,0,0,0-35.822-4.4Zm7.213-.158A5.413,5.413,0,0,1-27.667-7.9a3.057,3.057,0,0,1,2.577-1.245,2.751,2.751,0,0,1,2.167.979V-12.75h2.407V0h-2.167L-22.8-.955A2.823,2.823,0,0,1-25.106.166,3.049,3.049,0,0,1-27.65-1.083,5.587,5.587,0,0,1-28.609-4.557Zm2.4.174a3.536,3.536,0,0,0,.44,1.934,1.434,1.434,0,0,0,1.278.672,1.605,1.605,0,0,0,1.569-.938V-6.259A1.582,1.582,0,0,0-24.475-7.2Q-26.21-7.2-26.21-4.383ZM-14.522.166a4.409,4.409,0,0,1-3.217-1.212A4.308,4.308,0,0,1-18.98-4.275v-.232a5.426,5.426,0,0,1,.523-2.42,3.838,3.838,0,0,1,1.482-1.644,4.159,4.159,0,0,1,2.187-.577,3.727,3.727,0,0,1,2.9,1.162,4.722,4.722,0,0,1,1.058,3.3v.979h-5.719a2.229,2.229,0,0,0,.7,1.411,2.12,2.12,0,0,0,1.482.531,2.589,2.589,0,0,0,2.167-1l1.179,1.32A3.6,3.6,0,0,1-12.48-.261,4.793,4.793,0,0,1-14.522.166ZM-14.8-7.205a1.5,1.5,0,0,0-1.158.481,2.487,2.487,0,0,0-.569,1.378h3.337v-.191a1.773,1.773,0,0,0-.432-1.233A1.55,1.55,0,0,0-14.8-7.205ZM-6.935,0H-9.343V-12.75h2.407Zm1.6-4.574a5.327,5.327,0,0,1,.515-2.382A3.768,3.768,0,0,1-3.337-8.575a4.323,4.323,0,0,1,2.245-.573A4.09,4.09,0,0,1,1.876-8.035,4.464,4.464,0,0,1,3.158-5.014l.017.614A4.694,4.694,0,0,1,2.021-1.083,4.011,4.011,0,0,1-1.075.166a4.031,4.031,0,0,1-3.1-1.245A4.777,4.777,0,0,1-5.333-4.466Zm2.4.174a3.348,3.348,0,0,0,.481,1.955,1.589,1.589,0,0,0,1.378.677A1.593,1.593,0,0,0,.286-2.436a3.664,3.664,0,0,0,.49-2.137,3.315,3.315,0,0,0-.49-1.942,1.593,1.593,0,0,0-1.378-.689,1.567,1.567,0,0,0-1.361.685A3.725,3.725,0,0,0-2.934-4.4Zm19.25-.54H11.534V0H9.044V-12.086h7.869v2.017H11.534v3.121h4.781ZM20.789,0h-2.4V-8.981h2.4Zm-.706-12.625H22.7l-2.3,2.573H18.448ZM27.72-2.482a.773.773,0,0,0-.436-.693,4.95,4.95,0,0,0-1.4-.452q-3.2-.672-3.2-2.723a2.468,2.468,0,0,1,.992-2,4,4,0,0,1,2.594-.8A4.307,4.307,0,0,1,29-8.342,2.538,2.538,0,0,1,30.028-6.25h-2.4A1.161,1.161,0,0,0,27.3-7.1a1.405,1.405,0,0,0-1.038-.336,1.436,1.436,0,0,0-.938.274.865.865,0,0,0-.332.7.739.739,0,0,0,.378.643,3.885,3.885,0,0,0,1.274.423,10.407,10.407,0,0,1,1.511.4,2.482,2.482,0,0,1,1.9,2.416A2.343,2.343,0,0,1,29-.594a4.548,4.548,0,0,1-2.723.76,4.75,4.75,0,0,1-2-.4,3.363,3.363,0,0,1-1.374-1.1,2.565,2.565,0,0,1-.5-1.515h2.274a1.252,1.252,0,0,0,.473.979,1.877,1.877,0,0,0,1.179.34A1.737,1.737,0,0,0,27.368-1.8.814.814,0,0,0,27.72-2.482ZM34.129,0H31.721V-8.981h2.407ZM31.58-11.306a1.181,1.181,0,0,1,.361-.888,1.356,1.356,0,0,1,.984-.349,1.36,1.36,0,0,1,.979.349,1.175,1.175,0,0,1,.365.888,1.178,1.178,0,0,1-.369.9,1.363,1.363,0,0,1-.975.349,1.363,1.363,0,0,1-.975-.349A1.178,1.178,0,0,1,31.58-11.306ZM39.84-1.768a1.573,1.573,0,0,0,1.079-.365A1.28,1.28,0,0,0,41.35-3.1H43.6a3.077,3.077,0,0,1-.5,1.673A3.286,3.286,0,0,1,41.761-.253a4.2,4.2,0,0,1-1.88.419,3.9,3.9,0,0,1-3.038-1.224,4.845,4.845,0,0,1-1.112-3.383V-4.6a4.79,4.79,0,0,1,1.1-3.312,3.854,3.854,0,0,1,3.03-1.237,3.778,3.778,0,0,1,2.7.959A3.4,3.4,0,0,1,43.6-5.636H41.35a1.635,1.635,0,0,0-.432-1.133,1.443,1.443,0,0,0-1.1-.436,1.446,1.446,0,0,0-1.266.61,3.532,3.532,0,0,0-.427,1.98v.249a3.576,3.576,0,0,0,.423,1.992A1.464,1.464,0,0,0,39.84-1.768ZM44.6-4.574a5.327,5.327,0,0,1,.515-2.382,3.767,3.767,0,0,1,1.482-1.619,4.323,4.323,0,0,1,2.245-.573,4.09,4.09,0,0,1,2.968,1.112,4.464,4.464,0,0,1,1.282,3.021L53.1-4.4A4.694,4.694,0,0,1,51.95-1.083a4.011,4.011,0,0,1-3.1,1.249,4.031,4.031,0,0,1-3.1-1.245A4.777,4.777,0,0,1,44.6-4.466Zm2.4.174a3.348,3.348,0,0,0,.481,1.955,1.589,1.589,0,0,0,1.378.677,1.593,1.593,0,0,0,1.361-.668,3.664,3.664,0,0,0,.49-2.137,3.315,3.315,0,0,0-.49-1.942,1.593,1.593,0,0,0-1.378-.689,1.567,1.567,0,0,0-1.361.685A3.725,3.725,0,0,0,46.995-4.4Z" transform="translate(3940.523 1211.675)" fill="#12263f"/>
  </g>
  <g id="Descripción_Detallada_del_Escenario-2" data-name="Descripción Detallada del Escenario" transform="translate(-3713.026 -1048.033)" style="isolation: isolate">
    <text id="Modelo_Esquemático" data-name="Modelo Esquemático" transform="translate(3861.524 1211.675)" fill="#12263f" font-size="17" font-family="Roboto-Bold, Roboto" font-weight="700" style="isolation: isolate"><tspan x="-80.397" y="0">Modelo Esquemático</tspan></text>
  </g>
  <g id="Descripción_Detallada_del_Escenario-3" data-name="Descripción Detallada del Escenario" transform="translate(-3713.525 -939.033)" style="isolation: isolate">
    <text id="Modelo_Matemático" data-name="Modelo Matemático" transform="translate(3861.524 1211.675)" fill="#12263f" font-size="17" font-family="Roboto-Bold, Roboto" font-weight="700" style="isolation: isolate"><tspan x="-76.562" y="0">Modelo Matemático</tspan></text>
  </g>
</svg>
