<svg xmlns="http://www.w3.org/2000/svg" xmlns:xlink="http://www.w3.org/1999/xlink" width="385.044" height="1149.049" viewBox="0 0 385.044 1149.049">
  <defs>
    <clipPath id="clip-path">
      <rect id="Rectángulo_344878" data-name="Rectángulo 344878" width="87" height="87" transform="translate(0 -0.001)" fill="none"/>
    </clipPath>
    <clipPath id="clip-path-2">
      <rect id="Rectángulo_344890" data-name="Rectángulo 344890" width="82" height="82" fill="none"/>
    </clipPath>
    <clipPath id="clip-path-3">
      <rect id="Rectángulo_344858" data-name="Rectángulo 344858" width="75" height="75" transform="translate(0 0)" fill="none"/>
    </clipPath>
  </defs>
  <g id="Grupo_1009986" data-name="Grupo 1009986" transform="translate(14295.5 9627.049)">
    <g id="Grupo_53848" data-name="Grupo 53848" transform="translate(-17057.5 -10205.556)">
      <g id="Grupo_53847" data-name="Grupo 53847">
        <rect id="Rectángulo_5193" data-name="Rectángulo 5193" width="331.087" height="44.036" transform="translate(2815.957 578.507)" fill="#0ce6ea"/>
        <rect id="Rectángulo_5194" data-name="Rectángulo 5194" width="4.893" height="44.036" transform="translate(2815.957 578.507)" fill="#19a4a7"/>
        <rect id="Rectángulo_5195" data-name="Rectángulo 5195" width="4.893" height="44.036" transform="translate(3142.151 578.507)" fill="#19a4a7"/>
        <path id="Trazado_735293" data-name="Trazado 735293" d="M10.029-5.664H4.5V0H1.074V-14.219h9.512v2.646H4.5V-8.3h5.527Zm13.135-8.555v9.307a5.349,5.349,0,0,1-.674,2.739A4.365,4.365,0,0,1,20.557-.41,6.812,6.812,0,0,1,17.578.2a5.885,5.885,0,0,1-4.092-1.348,4.806,4.806,0,0,1-1.523-3.691v-9.375H15.41v9.443q.059,2.334,2.168,2.334a2.1,2.1,0,0,0,1.611-.586,2.739,2.739,0,0,0,.547-1.9v-9.287ZM37.178,0H33.77L28.73-8.848V0H25.3V-14.219H28.73L33.76-5.371v-8.848h3.418ZM50.85-4.814a5.193,5.193,0,0,1-.8,2.622A4.833,4.833,0,0,1,47.993-.43,7,7,0,0,1,44.971.2a5.584,5.584,0,0,1-4.414-1.826,7.54,7.54,0,0,1-1.611-5.156v-.7a8.607,8.607,0,0,1,.728-3.657,5.513,5.513,0,0,1,2.095-2.422,5.844,5.844,0,0,1,3.164-.854,6.129,6.129,0,0,1,4.16,1.362,5.383,5.383,0,0,1,1.787,3.755H47.461a2.547,2.547,0,0,0-.654-1.865,2.691,2.691,0,0,0-1.875-.566,2.048,2.048,0,0,0-1.875.957,6.151,6.151,0,0,0-.625,3.057v1.006A6.806,6.806,0,0,0,43-3.467a2.091,2.091,0,0,0,1.968.977,2.632,2.632,0,0,0,1.807-.557,2.363,2.363,0,0,0,.664-1.768ZM56.123,0H52.705V-14.219h3.418ZM70.547-6.816a8.385,8.385,0,0,1-.771,3.682A5.7,5.7,0,0,1,67.583-.669,6.1,6.1,0,0,1,64.346.2,6.191,6.191,0,0,1,61.123-.64a5.692,5.692,0,0,1-2.192-2.388,8.144,8.144,0,0,1-.825-3.564v-.8a8.422,8.422,0,0,1,.767-3.687,5.688,5.688,0,0,1,2.2-2.466,6.147,6.147,0,0,1,3.257-.869,6.087,6.087,0,0,1,3.223.859,5.79,5.79,0,0,1,2.2,2.446,8.18,8.18,0,0,1,.8,3.638Zm-3.486-.6a5.979,5.979,0,0,0-.708-3.218,2.271,2.271,0,0,0-2.026-1.1q-2.578,0-2.725,3.867l-.01,1.045A6.149,6.149,0,0,0,62.285-3.6,2.268,2.268,0,0,0,64.346-2.48a2.24,2.24,0,0,0,2-1.1,5.982,5.982,0,0,0,.713-3.174ZM64.727-18.027H68.2l-2.715,3.066H62.8ZM84.189,0H80.781L75.742-8.848V0H72.314V-14.219h3.428l5.029,8.848v-8.848h3.418Zm7.148,0V-14.219h4.58a6.737,6.737,0,0,1,3.389.854,6.006,6.006,0,0,1,2.349,2.412,7.283,7.283,0,0,1,.854,3.491v.654a7.325,7.325,0,0,1-.825,3.5A6.032,6.032,0,0,1,99.36-.884,6.589,6.589,0,0,1,96.016,0Zm3.428-11.572v8.936h1.191a2.666,2.666,0,0,0,2.266-1.05,5.145,5.145,0,0,0,.791-3.12v-.615a5.1,5.1,0,0,0-.791-3.105,2.713,2.713,0,0,0-2.3-1.045Zm18.32,5.547H107.7v3.389h6.367V0h-9.795V-14.219h9.814v2.646H107.7v3h5.391Zm10.781,1.2V0h-3.428V-14.219h5.674a6.608,6.608,0,0,1,2.886.6,4.526,4.526,0,0,1,1.943,1.709,4.667,4.667,0,0,1,.688,2.515,4.114,4.114,0,0,1-1.489,3.325,6.179,6.179,0,0,1-4.087,1.245Zm0-2.646h2.246a2.118,2.118,0,0,0,1.519-.5,1.85,1.85,0,0,0,.522-1.406,2.287,2.287,0,0,0-.537-1.592,1.9,1.9,0,0,0-1.465-.605h-2.285ZM138.74-5.02h-1.855V0h-3.428V-14.219h5.6a6.241,6.241,0,0,1,3.955,1.123,3.807,3.807,0,0,1,1.426,3.174,4.625,4.625,0,0,1-.6,2.461,4.264,4.264,0,0,1-1.88,1.582l2.969,5.732V0H141.25Zm-1.855-2.646h2.168a1.949,1.949,0,0,0,1.47-.513,1.979,1.979,0,0,0,.493-1.431,2,2,0,0,0-.5-1.44,1.931,1.931,0,0,0-1.465-.522h-2.168Zm21.66.85a8.385,8.385,0,0,1-.771,3.682,5.7,5.7,0,0,1-2.192,2.466A6.1,6.1,0,0,1,152.344.2a6.191,6.191,0,0,1-3.223-.835,5.692,5.692,0,0,1-2.192-2.388,8.144,8.144,0,0,1-.825-3.564v-.8a8.422,8.422,0,0,1,.767-3.687,5.688,5.688,0,0,1,2.2-2.466,6.147,6.147,0,0,1,3.257-.869,6.087,6.087,0,0,1,3.223.859,5.79,5.79,0,0,1,2.2,2.446,8.18,8.18,0,0,1,.8,3.638Zm-3.486-.6a5.979,5.979,0,0,0-.708-3.218,2.271,2.271,0,0,0-2.026-1.1q-2.578,0-2.725,3.867l-.01,1.045a6.15,6.15,0,0,0,.693,3.213,2.268,2.268,0,0,0,2.061,1.123,2.24,2.24,0,0,0,2-1.1,5.982,5.982,0,0,0,.713-3.174ZM160.313,0V-14.219h4.58a6.737,6.737,0,0,1,3.389.854,6.006,6.006,0,0,1,2.349,2.412,7.283,7.283,0,0,1,.854,3.491v.654a7.325,7.325,0,0,1-.825,3.5,6.032,6.032,0,0,1-2.324,2.422A6.589,6.589,0,0,1,164.99,0Zm3.428-11.572v8.936h1.191a2.666,2.666,0,0,0,2.266-1.05,5.145,5.145,0,0,0,.791-3.12v-.615a5.1,5.1,0,0,0-.791-3.105,2.713,2.713,0,0,0-2.3-1.045Zm20.654-2.646v9.307a5.349,5.349,0,0,1-.674,2.739A4.365,4.365,0,0,1,181.787-.41,6.812,6.812,0,0,1,178.809.2a5.885,5.885,0,0,1-4.092-1.348,4.806,4.806,0,0,1-1.523-3.691v-9.375h3.447v9.443q.059,2.334,2.168,2.334a2.1,2.1,0,0,0,1.611-.586,2.739,2.739,0,0,0,.547-1.9v-9.287Zm13.643,9.4a5.193,5.193,0,0,1-.8,2.622A4.833,4.833,0,0,1,195.181-.43,7,7,0,0,1,192.158.2a5.584,5.584,0,0,1-4.414-1.826,7.54,7.54,0,0,1-1.611-5.156v-.7a8.607,8.607,0,0,1,.728-3.657,5.513,5.513,0,0,1,2.095-2.422,5.844,5.844,0,0,1,3.164-.854,6.129,6.129,0,0,1,4.16,1.362,5.383,5.383,0,0,1,1.787,3.755h-3.418a2.547,2.547,0,0,0-.654-1.865,2.691,2.691,0,0,0-1.875-.566,2.048,2.048,0,0,0-1.875.957,6.151,6.151,0,0,0-.625,3.057v1.006a6.806,6.806,0,0,0,.571,3.252,2.091,2.091,0,0,0,1.968.977,2.632,2.632,0,0,0,1.807-.557,2.363,2.363,0,0,0,.664-1.768Zm13.125,0a5.193,5.193,0,0,1-.8,2.622A4.833,4.833,0,0,1,208.306-.43,7,7,0,0,1,205.283.2a5.584,5.584,0,0,1-4.414-1.826,7.54,7.54,0,0,1-1.611-5.156v-.7a8.607,8.607,0,0,1,.728-3.657,5.513,5.513,0,0,1,2.095-2.422,5.844,5.844,0,0,1,3.164-.854,6.129,6.129,0,0,1,4.16,1.362,5.383,5.383,0,0,1,1.787,3.755h-3.418a2.547,2.547,0,0,0-.654-1.865,2.691,2.691,0,0,0-1.875-.566,2.048,2.048,0,0,0-1.875.957,6.151,6.151,0,0,0-.625,3.057v1.006a6.806,6.806,0,0,0,.571,3.252,2.091,2.091,0,0,0,1.968.977,2.632,2.632,0,0,0,1.807-.557,2.363,2.363,0,0,0,.664-1.768ZM216.436,0h-3.418V-14.219h3.418Zm14.424-6.816a8.385,8.385,0,0,1-.771,3.682A5.7,5.7,0,0,1,227.9-.669,6.1,6.1,0,0,1,224.658.2a6.191,6.191,0,0,1-3.223-.835,5.692,5.692,0,0,1-2.192-2.388,8.144,8.144,0,0,1-.825-3.564v-.8a8.422,8.422,0,0,1,.767-3.687,5.688,5.688,0,0,1,2.2-2.466,6.147,6.147,0,0,1,3.257-.869,6.087,6.087,0,0,1,3.223.859,5.79,5.79,0,0,1,2.2,2.446,8.18,8.18,0,0,1,.8,3.638Zm-3.486-.6a5.979,5.979,0,0,0-.708-3.218,2.271,2.271,0,0,0-2.026-1.1q-2.578,0-2.725,3.867l-.01,1.045A6.15,6.15,0,0,0,222.6-3.6a2.268,2.268,0,0,0,2.061,1.123,2.24,2.24,0,0,0,2-1.1,5.982,5.982,0,0,0,.713-3.174Zm-2.334-10.615h3.477L225.8-14.961h-2.686ZM244.5,0h-3.408l-5.039-8.848V0h-3.428V-14.219h3.428l5.029,8.848v-8.848H244.5Z" transform="translate(2859.957 607.196)" fill="#12263f"/>
      </g>
    </g>
    <rect id="Rectángulo_5196" data-name="Rectángulo 5196" width="249.933" height="36.904" transform="translate(-14203 -9544.48)" fill="#ffae78"/>
    <rect id="Rectángulo_5197" data-name="Rectángulo 5197" width="249.933" height="5.978" transform="translate(-14203 -9411.818)" fill="#ffe8de"/>
    <rect id="Rectángulo_5198" data-name="Rectángulo 5198" width="4.1" height="36.904" transform="translate(-14203 -9544.48)" fill="#ef7348"/>
    <rect id="Rectángulo_5199" data-name="Rectángulo 5199" width="4.1" height="36.904" transform="translate(-13957.521 -9544.48)" fill="#ef7348"/>
    <path id="Trazado_735292" data-name="Trazado 735292" d="M7.989-3.3A1.545,1.545,0,0,0,7.4-4.6a7.138,7.138,0,0,0-2.14-.923A10.335,10.335,0,0,1,2.795-6.557,3.284,3.284,0,0,1,1.046-9.422a3.118,3.118,0,0,1,1.261-2.549,5.1,5.1,0,0,1,3.274-1,5.53,5.53,0,0,1,2.382.492,3.909,3.909,0,0,1,1.644,1.4,3.6,3.6,0,0,1,.6,2.017H7.989a2.005,2.005,0,0,0-.628-1.569,2.594,2.594,0,0,0-1.8-.567,2.709,2.709,0,0,0-1.692.466,1.551,1.551,0,0,0-.6,1.3,1.4,1.4,0,0,0,.65,1.173,7.493,7.493,0,0,0,2.145.914,9.865,9.865,0,0,1,2.4,1.011,3.816,3.816,0,0,1,1.327,1.3,3.388,3.388,0,0,1,.422,1.718A3.045,3.045,0,0,1,8.987-.769,5.318,5.318,0,0,1,5.66.176,6.251,6.251,0,0,1,3.107-.338,4.289,4.289,0,0,1,1.3-1.758,3.537,3.537,0,0,1,.65-3.867H2.874A2.07,2.07,0,0,0,3.595-2.18a3.156,3.156,0,0,0,2.065.6A2.742,2.742,0,0,0,7.4-2.052,1.517,1.517,0,0,0,7.989-3.3ZM16.146.176A4.419,4.419,0,0,1,12.854-1.1a4.639,4.639,0,0,1-1.261-3.406v-.264a5.706,5.706,0,0,1,.549-2.544,4.181,4.181,0,0,1,1.542-1.745A4.078,4.078,0,0,1,15.9-9.686a3.733,3.733,0,0,1,3,1.239A5.24,5.24,0,0,1,19.96-4.939v.861H13.746a2.856,2.856,0,0,0,.787,1.863,2.362,2.362,0,0,0,1.736.686,2.892,2.892,0,0,0,2.391-1.187l1.151,1.1A3.845,3.845,0,0,1,18.286-.294,4.774,4.774,0,0,1,16.146.176Zm-.255-8.147a1.8,1.8,0,0,0-1.419.615,3.189,3.189,0,0,0-.69,1.714h4.069V-5.8a2.6,2.6,0,0,0-.571-1.622A1.785,1.785,0,0,0,15.891-7.972Zm9.633,6.442A1.931,1.931,0,0,0,26.851-2a1.591,1.591,0,0,0,.563-1.151h2.013a3.137,3.137,0,0,1-.554,1.657A3.632,3.632,0,0,1,27.466-.272,4.191,4.191,0,0,1,25.55.176a4.055,4.055,0,0,1-3.164-1.292,5.124,5.124,0,0,1-1.169-3.568V-4.9a5.039,5.039,0,0,1,1.16-3.476,4.018,4.018,0,0,1,3.164-1.305,3.907,3.907,0,0,1,2.764.989,3.542,3.542,0,0,1,1.121,2.6H27.413a1.956,1.956,0,0,0-.558-1.345,1.8,1.8,0,0,0-1.332-.527,1.879,1.879,0,0,0-1.6.751,3.834,3.834,0,0,0-.571,2.281V-4.6a3.9,3.9,0,0,0,.558,2.307A1.878,1.878,0,0,0,25.523-1.529Zm8.191-10.292V-9.51h1.679v1.582H33.715v5.309a1.169,1.169,0,0,0,.215.787,1,1,0,0,0,.769.242,3.29,3.29,0,0,0,.747-.088V-.026a5.26,5.26,0,0,1-1.406.2q-2.461,0-2.461-2.716V-7.928H30.015V-9.51h1.564v-2.312ZM36.36-4.843a5.607,5.607,0,0,1,.554-2.518A4.044,4.044,0,0,1,38.47-9.083a4.383,4.383,0,0,1,2.3-.6A4.154,4.154,0,0,1,43.9-8.446a4.874,4.874,0,0,1,1.3,3.287l.009.5a5.658,5.658,0,0,1-.541,2.514A4,4,0,0,1,43.115-.431,4.415,4.415,0,0,1,40.79.176a4.125,4.125,0,0,1-3.221-1.34A5.133,5.133,0,0,1,36.36-4.737Zm2.136.185a3.832,3.832,0,0,0,.606,2.3,1.971,1.971,0,0,0,1.688.831,1.95,1.95,0,0,0,1.683-.844,4.232,4.232,0,0,0,.6-2.47,3.782,3.782,0,0,0-.62-2.285,1.979,1.979,0,0,0-1.683-.844,1.96,1.96,0,0,0-1.661.831A4.152,4.152,0,0,0,38.5-4.658Zm13.491-2.9a5.285,5.285,0,0,0-.87-.07A1.959,1.959,0,0,0,49.14-6.5V0H47V-9.51h2.039L49.1-8.446A2.406,2.406,0,0,1,51.24-9.686,2,2,0,0,1,52-9.562Zm14.159,2.9a5.662,5.662,0,0,1-1,3.52A3.209,3.209,0,0,1,62.455.176a3.23,3.23,0,0,1-2.5-1.028V3.656H57.814V-9.51h1.969l.088.967a3.137,3.137,0,0,1,2.558-1.143,3.242,3.242,0,0,1,2.729,1.3,5.813,5.813,0,0,1,.989,3.6ZM64.02-4.843A3.966,3.966,0,0,0,63.453-7.1a1.843,1.843,0,0,0-1.622-.835A1.965,1.965,0,0,0,59.95-6.855v4.219a1.983,1.983,0,0,0,1.9,1.107,1.841,1.841,0,0,0,1.6-.822A4.366,4.366,0,0,0,64.02-4.843Zm8.912-2.716a5.285,5.285,0,0,0-.87-.07A1.959,1.959,0,0,0,70.084-6.5V0H67.948V-9.51h2.039l.053,1.063a2.406,2.406,0,0,1,2.145-1.239,2,2,0,0,1,.756.123ZM76.553,0H74.417V-9.51h2.136ZM74.285-11.979A1.133,1.133,0,0,1,74.6-12.8a1.179,1.179,0,0,1,.892-.325,1.193,1.193,0,0,1,.9.325,1.125,1.125,0,0,1,.316.817,1.1,1.1,0,0,1-.316.8,1.2,1.2,0,0,1-.9.321,1.188,1.188,0,0,1-.892-.321A1.107,1.107,0,0,1,74.285-11.979Zm6.6,2.47.062.993a3.422,3.422,0,0,1,2.742-1.169A2.629,2.629,0,0,1,86.3-8.227a3.373,3.373,0,0,1,2.918-1.459,2.965,2.965,0,0,1,2.342.87,3.831,3.831,0,0,1,.787,2.566V0H90.211V-6.187a1.891,1.891,0,0,0-.4-1.327,1.731,1.731,0,0,0-1.31-.422,1.778,1.778,0,0,0-1.191.391,2.063,2.063,0,0,0-.646,1.024L86.678,0H84.542V-6.258a1.523,1.523,0,0,0-1.714-1.679,1.88,1.88,0,0,0-1.819,1.046V0H78.873V-9.51ZM100.222,0a3.3,3.3,0,0,1-.246-.888,3.325,3.325,0,0,1-2.5,1.063,3.355,3.355,0,0,1-2.338-.817,2.615,2.615,0,0,1-.905-2.021A2.7,2.7,0,0,1,95.366-5,5.473,5.473,0,0,1,98.6-5.81h1.31v-.624a1.666,1.666,0,0,0-.413-1.182,1.638,1.638,0,0,0-1.257-.444,1.881,1.881,0,0,0-1.2.365,1.129,1.129,0,0,0-.466.927H94.438a2.37,2.37,0,0,1,.519-1.463A3.455,3.455,0,0,1,96.368-9.3a4.955,4.955,0,0,1,1.991-.387,3.99,3.99,0,0,1,2.663.839,2.993,2.993,0,0,1,1.02,2.36V-2.2a4.861,4.861,0,0,0,.36,2.048V0ZM97.875-1.538a2.429,2.429,0,0,0,1.191-.308,2.055,2.055,0,0,0,.839-.826V-4.465H98.754a3.148,3.148,0,0,0-1.784.413,1.338,1.338,0,0,0-.6,1.169,1.248,1.248,0,0,0,.409.98A1.583,1.583,0,0,0,97.875-1.538Zm11.382-6.021a5.285,5.285,0,0,0-.87-.07A1.959,1.959,0,0,0,106.409-6.5V0h-2.136V-9.51h2.039l.053,1.063a2.406,2.406,0,0,1,2.145-1.239,2,2,0,0,1,.756.123ZM112.878,0h-2.136V-9.51h2.136ZM110.61-11.979a1.133,1.133,0,0,1,.312-.817,1.179,1.179,0,0,1,.892-.325,1.193,1.193,0,0,1,.9.325,1.125,1.125,0,0,1,.316.817,1.1,1.1,0,0,1-.316.8,1.2,1.2,0,0,1-.9.321,1.188,1.188,0,0,1-.892-.321A1.107,1.107,0,0,1,110.61-11.979ZM114.8-4.843a5.607,5.607,0,0,1,.554-2.518,4.044,4.044,0,0,1,1.556-1.723,4.383,4.383,0,0,1,2.3-.6,4.154,4.154,0,0,1,3.125,1.239,4.874,4.874,0,0,1,1.3,3.287l.009.5a5.658,5.658,0,0,1-.541,2.514,4,4,0,0,1-1.547,1.714,4.415,4.415,0,0,1-2.325.606,4.125,4.125,0,0,1-3.221-1.34A5.133,5.133,0,0,1,114.8-4.737Zm2.136.185a3.832,3.832,0,0,0,.606,2.3,1.971,1.971,0,0,0,1.688.831,1.95,1.95,0,0,0,1.683-.844,4.232,4.232,0,0,0,.6-2.47,3.782,3.782,0,0,0-.62-2.285,1.979,1.979,0,0,0-1.683-.844,1.96,1.96,0,0,0-1.661.831A4.152,4.152,0,0,0,116.938-4.658Z" transform="translate(-14140.211 -9521.275)"/>
    <path id="Trazado_735291" data-name="Trazado 735291" d="M3.508,0H1.164V-11.375H3.508Zm4.1-8.453.07.977a2.951,2.951,0,0,1,2.43-1.133,2.453,2.453,0,0,1,2,.789,3.682,3.682,0,0,1,.672,2.359V0H10.523V-5.406a1.465,1.465,0,0,0-.312-1.043,1.4,1.4,0,0,0-1.039-.324,1.553,1.553,0,0,0-1.43.813V0H5.484V-8.453Zm6.531,4.164a5.094,5.094,0,0,1,.887-3.148,2.877,2.877,0,0,1,2.426-1.172,2.589,2.589,0,0,1,2.039.922V-12h2.266V0H19.719l-.109-.9A2.657,2.657,0,0,1,17.438.156,2.869,2.869,0,0,1,15.043-1.02,5.258,5.258,0,0,1,14.141-4.289Zm2.258.164a3.328,3.328,0,0,0,.414,1.82,1.349,1.349,0,0,0,1.2.633,1.511,1.511,0,0,0,1.477-.883V-5.891a1.489,1.489,0,0,0-1.461-.883Q16.4-6.773,16.4-4.125ZM28.57-.859A2.831,2.831,0,0,1,26.258.156a2.67,2.67,0,0,1-2.074-.781,3.335,3.335,0,0,1-.73-2.289V-8.453h2.258v5.461q0,1.32,1.2,1.32a1.631,1.631,0,0,0,1.578-.8V-8.453h2.266V0H28.633Zm8.469-1.477a.727.727,0,0,0-.41-.652,4.659,4.659,0,0,0-1.316-.426Q32.3-4.047,32.3-5.977a2.323,2.323,0,0,1,.934-1.879,3.766,3.766,0,0,1,2.441-.754,4.053,4.053,0,0,1,2.574.758,2.388,2.388,0,0,1,.965,1.969H36.953a1.092,1.092,0,0,0-.312-.8A1.322,1.322,0,0,0,35.664-7a1.351,1.351,0,0,0-.883.258.814.814,0,0,0-.312.656.7.7,0,0,0,.355.605,3.657,3.657,0,0,0,1.2.4,9.8,9.8,0,0,1,1.422.379A2.336,2.336,0,0,1,39.234-2.43a2.2,2.2,0,0,1-.992,1.871A4.28,4.28,0,0,1,35.68.156a4.47,4.47,0,0,1-1.887-.379A3.166,3.166,0,0,1,32.5-1.262a2.414,2.414,0,0,1-.469-1.426h2.141a1.179,1.179,0,0,0,.445.922,1.766,1.766,0,0,0,1.109.32,1.635,1.635,0,0,0,.98-.246A.766.766,0,0,0,37.039-2.336Zm6.352-8.2v2.078h1.445V-6.8H43.391v4.219a1.007,1.007,0,0,0,.18.672.9.9,0,0,0,.688.2,3.6,3.6,0,0,0,.664-.055V-.047a4.648,4.648,0,0,1-1.367.2,2.156,2.156,0,0,1-2.422-2.4V-6.8H39.9V-8.453h1.234v-2.078Zm7.453,4.2a6.134,6.134,0,0,0-.812-.062,1.654,1.654,0,0,0-1.68.867V0H46.094V-8.453h2.133l.063,1.008a2.092,2.092,0,0,1,1.883-1.164,2.366,2.366,0,0,1,.7.1ZM54.313,0H52.047V-8.453h2.266Zm-2.4-10.641a1.112,1.112,0,0,1,.34-.836,1.277,1.277,0,0,1,.926-.328,1.28,1.28,0,0,1,.922.328,1.105,1.105,0,0,1,.344.836A1.108,1.108,0,0,1,54.1-9.8a1.283,1.283,0,0,1-.918.328,1.283,1.283,0,0,1-.918-.328A1.108,1.108,0,0,1,51.914-10.641ZM61.07,0a2.507,2.507,0,0,1-.227-.758,2.732,2.732,0,0,1-2.133.914,3,3,0,0,1-2.059-.719,2.312,2.312,0,0,1-.816-1.812,2.389,2.389,0,0,1,1-2.062,4.915,4.915,0,0,1,2.879-.727H60.75v-.484a1.393,1.393,0,0,0-.3-.937,1.183,1.183,0,0,0-.949-.352,1.345,1.345,0,0,0-.895.273.929.929,0,0,0-.324.75H56.023a2.268,2.268,0,0,1,.453-1.359,3,3,0,0,1,1.281-.98,4.669,4.669,0,0,1,1.859-.355,3.689,3.689,0,0,1,2.48.785,2.747,2.747,0,0,1,.918,2.207v3.664a4.041,4.041,0,0,0,.336,1.82V0ZM59.2-1.57a1.945,1.945,0,0,0,.922-.223,1.462,1.462,0,0,0,.625-.6V-3.844h-.844q-1.7,0-1.8,1.172l-.008.133a.9.9,0,0,0,.3.7A1.153,1.153,0,0,0,59.2-1.57ZM75.727-4.93h-4.5v3.047h5.281V0H68.883V-11.375h7.609v1.9H71.227v2.711h4.5Zm5.227-1,1.422-2.523h2.414L82.383-4.312,84.891,0H82.469L80.961-2.656,79.461,0h-2.43l2.508-4.312-2.4-4.141h2.422Zm7.625-4.6v2.078h1.445V-6.8H88.578v4.219a1.007,1.007,0,0,0,.18.672.9.9,0,0,0,.688.2,3.6,3.6,0,0,0,.664-.055V-.047a4.648,4.648,0,0,1-1.367.2,2.156,2.156,0,0,1-2.422-2.4V-6.8H85.086V-8.453H86.32v-2.078Zm7.453,4.2a6.134,6.134,0,0,0-.812-.062,1.654,1.654,0,0,0-1.68.867V0H91.281V-8.453h2.133l.063,1.008a2.092,2.092,0,0,1,1.883-1.164,2.366,2.366,0,0,1,.7.1ZM101.781,0a2.507,2.507,0,0,1-.227-.758,2.732,2.732,0,0,1-2.133.914,3,3,0,0,1-2.059-.719,2.312,2.312,0,0,1-.816-1.812,2.389,2.389,0,0,1,1-2.062,4.915,4.915,0,0,1,2.879-.727h1.039v-.484a1.393,1.393,0,0,0-.3-.937,1.183,1.183,0,0,0-.949-.352,1.345,1.345,0,0,0-.895.273.929.929,0,0,0-.324.75H96.734a2.268,2.268,0,0,1,.453-1.359,3,3,0,0,1,1.281-.98,4.669,4.669,0,0,1,1.859-.355,3.689,3.689,0,0,1,2.48.785,2.747,2.747,0,0,1,.918,2.207v3.664a4.041,4.041,0,0,0,.336,1.82V0ZM99.914-1.57a1.945,1.945,0,0,0,.922-.223,1.462,1.462,0,0,0,.625-.6V-3.844h-.844q-1.7,0-1.8,1.172l-.008.133a.9.9,0,0,0,.3.7A1.153,1.153,0,0,0,99.914-1.57Zm9.063-.094a1.481,1.481,0,0,0,1.016-.344,1.2,1.2,0,0,0,.406-.914h2.117a2.9,2.9,0,0,1-.469,1.574,3.093,3.093,0,0,1-1.262,1.109,3.949,3.949,0,0,1-1.77.395A3.67,3.67,0,0,1,106.156-1a4.56,4.56,0,0,1-1.047-3.184v-.148a4.508,4.508,0,0,1,1.039-3.117A3.627,3.627,0,0,1,109-8.609a3.555,3.555,0,0,1,2.543.9,3.2,3.2,0,0,1,.973,2.4H110.4a1.539,1.539,0,0,0-.406-1.066,1.358,1.358,0,0,0-1.031-.41,1.361,1.361,0,0,0-1.191.574,3.324,3.324,0,0,0-.4,1.863v.234a3.366,3.366,0,0,0,.4,1.875A1.378,1.378,0,0,0,108.977-1.664Zm7.531-8.867v2.078h1.445V-6.8h-1.445v4.219a1.007,1.007,0,0,0,.18.672.9.9,0,0,0,.688.2,3.6,3.6,0,0,0,.664-.055V-.047a4.648,4.648,0,0,1-1.367.2,2.156,2.156,0,0,1-2.422-2.4V-6.8h-1.234V-8.453h1.234v-2.078ZM121.594,0h-2.266V-8.453h2.266Zm-2.4-10.641a1.112,1.112,0,0,1,.34-.836,1.277,1.277,0,0,1,.926-.328,1.28,1.28,0,0,1,.922.328,1.105,1.105,0,0,1,.344.836,1.108,1.108,0,0,1-.348.844,1.283,1.283,0,0,1-.918.328,1.283,1.283,0,0,1-.918-.328A1.108,1.108,0,0,1,119.2-10.641Zm7.422,7.883,1.57-5.7h2.359L127.7,0h-2.156l-2.852-8.453h2.359ZM136.32,0a2.507,2.507,0,0,1-.227-.758,2.732,2.732,0,0,1-2.133.914A3,3,0,0,1,131.9-.562a2.312,2.312,0,0,1-.816-1.812,2.389,2.389,0,0,1,1-2.062,4.915,4.915,0,0,1,2.879-.727H136v-.484a1.393,1.393,0,0,0-.3-.937,1.183,1.183,0,0,0-.949-.352,1.345,1.345,0,0,0-.895.273.929.929,0,0,0-.324.75h-2.258a2.268,2.268,0,0,1,.453-1.359,3,3,0,0,1,1.281-.98,4.669,4.669,0,0,1,1.859-.355,3.689,3.689,0,0,1,2.48.785,2.747,2.747,0,0,1,.918,2.207v3.664a4.041,4.041,0,0,0,.336,1.82V0Zm-1.867-1.57a1.945,1.945,0,0,0,.922-.223,1.462,1.462,0,0,0,.625-.6V-3.844h-.844q-1.7,0-1.8,1.172l-.008.133a.9.9,0,0,0,.3.7A1.153,1.153,0,0,0,134.453-1.57Z" transform="translate(-14147.014 -9381.556)" fill="#0075a4"/>
    <g id="Grupo_53854" data-name="Grupo 53854" transform="translate(-16670.381 -10241.556)">
      <path id="Trazado_100667" data-name="Trazado 100667" d="M2591.467,794.717l-8.253-3.623,8.233,19.648.02-.04.02.04,8.233-19.648Z" fill="#c05e71"/>
      <rect id="Rectángulo_5213" data-name="Rectángulo 5213" width="3.402" height="42.236" transform="translate(2589.766 752.974)" fill="#c05e71"/>
    </g>
    <rect id="Rectángulo_5200" data-name="Rectángulo 5200" width="249.933" height="36.904" transform="translate(-14203 -9188.039)" fill="#ffae78"/>
    <rect id="Rectángulo_5201" data-name="Rectángulo 5201" width="4.1" height="36.904" transform="translate(-14202.965 -9188.039)" fill="#ef7348"/>
    <rect id="Rectángulo_5202" data-name="Rectángulo 5202" width="4.1" height="36.904" transform="translate(-13957.133 -9188.039)" fill="#ef7348"/>
    <path id="Trazado_735290" data-name="Trazado 735290" d="M7.989-3.3A1.545,1.545,0,0,0,7.4-4.6a7.138,7.138,0,0,0-2.14-.923A10.335,10.335,0,0,1,2.795-6.557,3.284,3.284,0,0,1,1.046-9.422a3.118,3.118,0,0,1,1.261-2.549,5.1,5.1,0,0,1,3.274-1,5.53,5.53,0,0,1,2.382.492,3.909,3.909,0,0,1,1.644,1.4,3.6,3.6,0,0,1,.6,2.017H7.989a2.005,2.005,0,0,0-.628-1.569,2.594,2.594,0,0,0-1.8-.567,2.709,2.709,0,0,0-1.692.466,1.551,1.551,0,0,0-.6,1.3,1.4,1.4,0,0,0,.65,1.173,7.493,7.493,0,0,0,2.145.914,9.865,9.865,0,0,1,2.4,1.011,3.816,3.816,0,0,1,1.327,1.3,3.388,3.388,0,0,1,.422,1.718A3.045,3.045,0,0,1,8.987-.769,5.318,5.318,0,0,1,5.66.176,6.251,6.251,0,0,1,3.107-.338,4.289,4.289,0,0,1,1.3-1.758,3.537,3.537,0,0,1,.65-3.867H2.874A2.07,2.07,0,0,0,3.595-2.18a3.156,3.156,0,0,0,2.065.6A2.742,2.742,0,0,0,7.4-2.052,1.517,1.517,0,0,0,7.989-3.3ZM16.146.176A4.419,4.419,0,0,1,12.854-1.1a4.639,4.639,0,0,1-1.261-3.406v-.264a5.706,5.706,0,0,1,.549-2.544,4.181,4.181,0,0,1,1.542-1.745A4.078,4.078,0,0,1,15.9-9.686a3.733,3.733,0,0,1,3,1.239A5.24,5.24,0,0,1,19.96-4.939v.861H13.746a2.856,2.856,0,0,0,.787,1.863,2.362,2.362,0,0,0,1.736.686,2.892,2.892,0,0,0,2.391-1.187l1.151,1.1A3.845,3.845,0,0,1,18.286-.294,4.774,4.774,0,0,1,16.146.176Zm-.255-8.147a1.8,1.8,0,0,0-1.419.615,3.189,3.189,0,0,0-.69,1.714h4.069V-5.8a2.6,2.6,0,0,0-.571-1.622A1.785,1.785,0,0,0,15.891-7.972Zm9.633,6.442A1.931,1.931,0,0,0,26.851-2a1.591,1.591,0,0,0,.563-1.151h2.013a3.137,3.137,0,0,1-.554,1.657A3.632,3.632,0,0,1,27.466-.272,4.191,4.191,0,0,1,25.55.176a4.055,4.055,0,0,1-3.164-1.292,5.124,5.124,0,0,1-1.169-3.568V-4.9a5.039,5.039,0,0,1,1.16-3.476,4.018,4.018,0,0,1,3.164-1.305,3.907,3.907,0,0,1,2.764.989,3.542,3.542,0,0,1,1.121,2.6H27.413a1.956,1.956,0,0,0-.558-1.345,1.8,1.8,0,0,0-1.332-.527,1.879,1.879,0,0,0-1.6.751,3.834,3.834,0,0,0-.571,2.281V-4.6a3.9,3.9,0,0,0,.558,2.307A1.878,1.878,0,0,0,25.523-1.529Zm8.191-10.292V-9.51h1.679v1.582H33.715v5.309a1.169,1.169,0,0,0,.215.787,1,1,0,0,0,.769.242,3.29,3.29,0,0,0,.747-.088V-.026a5.26,5.26,0,0,1-1.406.2q-2.461,0-2.461-2.716V-7.928H30.015V-9.51h1.564v-2.312ZM36.36-4.843a5.607,5.607,0,0,1,.554-2.518A4.044,4.044,0,0,1,38.47-9.083a4.383,4.383,0,0,1,2.3-.6A4.154,4.154,0,0,1,43.9-8.446a4.874,4.874,0,0,1,1.3,3.287l.009.5a5.658,5.658,0,0,1-.541,2.514A4,4,0,0,1,43.115-.431,4.415,4.415,0,0,1,40.79.176a4.125,4.125,0,0,1-3.221-1.34A5.133,5.133,0,0,1,36.36-4.737Zm2.136.185a3.832,3.832,0,0,0,.606,2.3,1.971,1.971,0,0,0,1.688.831,1.95,1.95,0,0,0,1.683-.844,4.232,4.232,0,0,0,.6-2.47,3.782,3.782,0,0,0-.62-2.285,1.979,1.979,0,0,0-1.683-.844,1.96,1.96,0,0,0-1.661.831A4.152,4.152,0,0,0,38.5-4.658Zm13.491-2.9a5.285,5.285,0,0,0-.87-.07A1.959,1.959,0,0,0,49.14-6.5V0H47V-9.51h2.039L49.1-8.446A2.406,2.406,0,0,1,51.24-9.686,2,2,0,0,1,52-9.562ZM64.714-3.3a1.545,1.545,0,0,0-.593-1.3,7.138,7.138,0,0,0-2.14-.923A10.335,10.335,0,0,1,59.52-6.557a3.284,3.284,0,0,1-1.749-2.865,3.118,3.118,0,0,1,1.261-2.549,5.1,5.1,0,0,1,3.274-1,5.53,5.53,0,0,1,2.382.492,3.909,3.909,0,0,1,1.644,1.4,3.6,3.6,0,0,1,.6,2.017H64.714a2.005,2.005,0,0,0-.628-1.569,2.594,2.594,0,0,0-1.8-.567,2.709,2.709,0,0,0-1.692.466,1.551,1.551,0,0,0-.6,1.3,1.4,1.4,0,0,0,.65,1.173,7.493,7.493,0,0,0,2.145.914,9.865,9.865,0,0,1,2.4,1.011,3.816,3.816,0,0,1,1.327,1.3,3.388,3.388,0,0,1,.422,1.718A3.045,3.045,0,0,1,65.711-.769a5.318,5.318,0,0,1-3.327.945,6.251,6.251,0,0,1-2.553-.514,4.289,4.289,0,0,1-1.811-1.419,3.537,3.537,0,0,1-.646-2.109H59.6a2.07,2.07,0,0,0,.721,1.688,3.156,3.156,0,0,0,2.065.6,2.742,2.742,0,0,0,1.745-.47A1.517,1.517,0,0,0,64.714-3.3ZM72.87.176A4.419,4.419,0,0,1,69.579-1.1a4.639,4.639,0,0,1-1.261-3.406v-.264a5.706,5.706,0,0,1,.549-2.544,4.181,4.181,0,0,1,1.542-1.745,4.078,4.078,0,0,1,2.215-.624,3.733,3.733,0,0,1,3,1.239,5.24,5.24,0,0,1,1.059,3.507v.861H70.471a2.856,2.856,0,0,0,.787,1.863,2.362,2.362,0,0,0,1.736.686,2.892,2.892,0,0,0,2.391-1.187l1.151,1.1A3.845,3.845,0,0,1,75.01-.294,4.774,4.774,0,0,1,72.87.176Zm-.255-8.147a1.8,1.8,0,0,0-1.419.615,3.189,3.189,0,0,0-.69,1.714h4.069V-5.8A2.6,2.6,0,0,0,74-7.422,1.785,1.785,0,0,0,72.615-7.972Zm9.633,6.442A1.931,1.931,0,0,0,83.575-2a1.591,1.591,0,0,0,.563-1.151H86.15A3.137,3.137,0,0,1,85.6-1.49,3.632,3.632,0,0,1,84.19-.272a4.191,4.191,0,0,1-1.916.448A4.055,4.055,0,0,1,79.11-1.116a5.124,5.124,0,0,1-1.169-3.568V-4.9A5.039,5.039,0,0,1,79.1-8.38a4.018,4.018,0,0,1,3.164-1.305A3.907,3.907,0,0,1,85.03-8.7,3.542,3.542,0,0,1,86.15-6.1H84.138a1.956,1.956,0,0,0-.558-1.345,1.8,1.8,0,0,0-1.332-.527,1.879,1.879,0,0,0-1.6.751,3.834,3.834,0,0,0-.571,2.281V-4.6a3.9,3.9,0,0,0,.558,2.307A1.878,1.878,0,0,0,82.248-1.529Zm11.276.6A3.312,3.312,0,0,1,90.853.176,2.952,2.952,0,0,1,88.51-.729a3.851,3.851,0,0,1-.8-2.619V-9.51h2.136v6.135q0,1.811,1.5,1.811a2.111,2.111,0,0,0,2.1-1.116V-9.51H95.59V0H93.577ZM99.747-9.51l.062,1.1a3.419,3.419,0,0,1,2.769-1.274q2.971,0,3.023,3.4V0h-2.136V-6.161a1.958,1.958,0,0,0-.391-1.34,1.645,1.645,0,0,0-1.279-.435A2.058,2.058,0,0,0,99.87-6.768V0H97.734V-9.51Zm7.629,4.685a5.654,5.654,0,0,1,1.02-3.529,3.267,3.267,0,0,1,2.733-1.332,3.1,3.1,0,0,1,2.443,1.055V-13.5h2.136V0h-1.934l-.105-.984a3.148,3.148,0,0,1-2.558,1.16,3.248,3.248,0,0,1-2.7-1.345A5.861,5.861,0,0,1,107.376-4.825Zm2.136.185a3.958,3.958,0,0,0,.558,2.263,1.811,1.811,0,0,0,1.586.813,2.017,2.017,0,0,0,1.916-1.169V-6.794a1.986,1.986,0,0,0-1.9-1.143,1.824,1.824,0,0,0-1.6.822A4.408,4.408,0,0,0,109.512-4.641ZM123.618,0a3.3,3.3,0,0,1-.246-.888,3.325,3.325,0,0,1-2.5,1.063,3.355,3.355,0,0,1-2.338-.817,2.615,2.615,0,0,1-.905-2.021A2.7,2.7,0,0,1,118.762-5a5.473,5.473,0,0,1,3.23-.813h1.31v-.624a1.666,1.666,0,0,0-.413-1.182,1.638,1.638,0,0,0-1.257-.444,1.881,1.881,0,0,0-1.2.365,1.129,1.129,0,0,0-.466.927h-2.136a2.37,2.37,0,0,1,.519-1.463A3.455,3.455,0,0,1,119.764-9.3a4.955,4.955,0,0,1,1.991-.387,3.99,3.99,0,0,1,2.663.839,2.993,2.993,0,0,1,1.02,2.36V-2.2a4.861,4.861,0,0,0,.36,2.048V0Zm-2.347-1.538a2.429,2.429,0,0,0,1.191-.308,2.055,2.055,0,0,0,.839-.826V-4.465H122.15a3.148,3.148,0,0,0-1.784.413,1.338,1.338,0,0,0-.6,1.169,1.248,1.248,0,0,0,.409.98A1.583,1.583,0,0,0,121.271-1.538Zm11.382-6.021a5.285,5.285,0,0,0-.87-.07A1.959,1.959,0,0,0,129.806-6.5V0H127.67V-9.51h2.039l.053,1.063a2.406,2.406,0,0,1,2.145-1.239,2,2,0,0,1,.756.123ZM136.274,0h-2.136V-9.51h2.136Zm-2.268-11.979a1.133,1.133,0,0,1,.312-.817,1.179,1.179,0,0,1,.892-.325,1.193,1.193,0,0,1,.9.325,1.125,1.125,0,0,1,.316.817,1.1,1.1,0,0,1-.316.8,1.2,1.2,0,0,1-.9.321,1.188,1.188,0,0,1-.892-.321A1.107,1.107,0,0,1,134.007-11.979ZM138.2-4.843a5.607,5.607,0,0,1,.554-2.518,4.044,4.044,0,0,1,1.556-1.723,4.383,4.383,0,0,1,2.3-.6,4.154,4.154,0,0,1,3.125,1.239,4.874,4.874,0,0,1,1.3,3.287l.009.5a5.658,5.658,0,0,1-.541,2.514,4,4,0,0,1-1.547,1.714,4.415,4.415,0,0,1-2.325.606,4.125,4.125,0,0,1-3.221-1.34A5.133,5.133,0,0,1,138.2-4.737Zm2.136.185a3.832,3.832,0,0,0,.606,2.3,1.971,1.971,0,0,0,1.688.831,1.95,1.95,0,0,0,1.683-.844,4.232,4.232,0,0,0,.6-2.47,3.782,3.782,0,0,0-.62-2.285,1.979,1.979,0,0,0-1.683-.844,1.96,1.96,0,0,0-1.661.831A4.152,4.152,0,0,0,140.335-4.658Z" transform="translate(-14152 -9164.835)"/>
    <g id="Grupo_53852" data-name="Grupo 53852" transform="translate(-17061.127 -9885.115)">
      <path id="Trazado_100665" data-name="Trazado 100665" d="M2981.5,794.717l-8.253-3.623,8.233,19.648.02-.04.02.04,8.233-19.648Z" fill="#c05e71"/>
      <rect id="Rectángulo_5211" data-name="Rectángulo 5211" width="3.402" height="42.236" transform="translate(2979.8 752.974)" fill="#c05e71"/>
    </g>
    <rect id="Rectángulo_5214" data-name="Rectángulo 5214" width="249.933" height="5.978" transform="translate(-14203 -9055.378)" fill="#ffe8de"/>
    <path id="Trazado_735289" data-name="Trazado 735289" d="M3.508,0H1.164V-11.375H3.508Zm4.1-8.453.07.977a2.951,2.951,0,0,1,2.43-1.133,2.453,2.453,0,0,1,2,.789,3.682,3.682,0,0,1,.672,2.359V0H10.523V-5.406a1.465,1.465,0,0,0-.312-1.043,1.4,1.4,0,0,0-1.039-.324,1.553,1.553,0,0,0-1.43.813V0H5.484V-8.453Zm6.531,4.164a5.094,5.094,0,0,1,.887-3.148,2.877,2.877,0,0,1,2.426-1.172,2.589,2.589,0,0,1,2.039.922V-12h2.266V0H19.719l-.109-.9A2.657,2.657,0,0,1,17.438.156,2.869,2.869,0,0,1,15.043-1.02,5.258,5.258,0,0,1,14.141-4.289Zm2.258.164a3.328,3.328,0,0,0,.414,1.82,1.349,1.349,0,0,0,1.2.633,1.511,1.511,0,0,0,1.477-.883V-5.891a1.489,1.489,0,0,0-1.461-.883Q16.4-6.773,16.4-4.125ZM28.57-.859A2.831,2.831,0,0,1,26.258.156a2.67,2.67,0,0,1-2.074-.781,3.335,3.335,0,0,1-.73-2.289V-8.453h2.258v5.461q0,1.32,1.2,1.32a1.631,1.631,0,0,0,1.578-.8V-8.453h2.266V0H28.633Zm8.469-1.477a.727.727,0,0,0-.41-.652,4.659,4.659,0,0,0-1.316-.426Q32.3-4.047,32.3-5.977a2.323,2.323,0,0,1,.934-1.879,3.766,3.766,0,0,1,2.441-.754,4.053,4.053,0,0,1,2.574.758,2.388,2.388,0,0,1,.965,1.969H36.953a1.092,1.092,0,0,0-.312-.8A1.322,1.322,0,0,0,35.664-7a1.351,1.351,0,0,0-.883.258.814.814,0,0,0-.312.656.7.7,0,0,0,.355.605,3.657,3.657,0,0,0,1.2.4,9.8,9.8,0,0,1,1.422.379A2.336,2.336,0,0,1,39.234-2.43a2.2,2.2,0,0,1-.992,1.871A4.28,4.28,0,0,1,35.68.156a4.47,4.47,0,0,1-1.887-.379A3.166,3.166,0,0,1,32.5-1.262a2.414,2.414,0,0,1-.469-1.426h2.141a1.179,1.179,0,0,0,.445.922,1.766,1.766,0,0,0,1.109.32,1.635,1.635,0,0,0,.98-.246A.766.766,0,0,0,37.039-2.336Zm6.352-8.2v2.078h1.445V-6.8H43.391v4.219a1.007,1.007,0,0,0,.18.672.9.9,0,0,0,.688.2,3.6,3.6,0,0,0,.664-.055V-.047a4.648,4.648,0,0,1-1.367.2,2.156,2.156,0,0,1-2.422-2.4V-6.8H39.9V-8.453h1.234v-2.078Zm7.453,4.2a6.134,6.134,0,0,0-.812-.062,1.654,1.654,0,0,0-1.68.867V0H46.094V-8.453h2.133l.063,1.008a2.092,2.092,0,0,1,1.883-1.164,2.366,2.366,0,0,1,.7.1ZM54.313,0H52.047V-8.453h2.266Zm-2.4-10.641a1.112,1.112,0,0,1,.34-.836,1.277,1.277,0,0,1,.926-.328,1.28,1.28,0,0,1,.922.328,1.105,1.105,0,0,1,.344.836A1.108,1.108,0,0,1,54.1-9.8a1.283,1.283,0,0,1-.918.328,1.283,1.283,0,0,1-.918-.328A1.108,1.108,0,0,1,51.914-10.641ZM61.07,0a2.507,2.507,0,0,1-.227-.758,2.732,2.732,0,0,1-2.133.914,3,3,0,0,1-2.059-.719,2.312,2.312,0,0,1-.816-1.812,2.389,2.389,0,0,1,1-2.062,4.915,4.915,0,0,1,2.879-.727H60.75v-.484a1.393,1.393,0,0,0-.3-.937,1.183,1.183,0,0,0-.949-.352,1.345,1.345,0,0,0-.895.273.929.929,0,0,0-.324.75H56.023a2.268,2.268,0,0,1,.453-1.359,3,3,0,0,1,1.281-.98,4.669,4.669,0,0,1,1.859-.355,3.689,3.689,0,0,1,2.48.785,2.747,2.747,0,0,1,.918,2.207v3.664a4.041,4.041,0,0,0,.336,1.82V0ZM59.2-1.57a1.945,1.945,0,0,0,.922-.223,1.462,1.462,0,0,0,.625-.6V-3.844h-.844q-1.7,0-1.8,1.172l-.008.133a.9.9,0,0,0,.3.7A1.153,1.153,0,0,0,59.2-1.57Zm12.742-9.8,2.922,8.25,2.906-8.25h3.078V0H78.5V-3.109l.234-5.367L75.664,0H74.055L70.992-8.469l.234,5.359V0H68.883V-11.375ZM87.648,0a2.507,2.507,0,0,1-.227-.758,2.732,2.732,0,0,1-2.133.914A3,3,0,0,1,83.23-.562a2.312,2.312,0,0,1-.816-1.812,2.389,2.389,0,0,1,1-2.062,4.915,4.915,0,0,1,2.879-.727h1.039v-.484a1.393,1.393,0,0,0-.3-.937,1.183,1.183,0,0,0-.949-.352,1.345,1.345,0,0,0-.895.273.929.929,0,0,0-.324.75H82.6a2.268,2.268,0,0,1,.453-1.359,3,3,0,0,1,1.281-.98A4.669,4.669,0,0,1,86.2-8.609a3.689,3.689,0,0,1,2.48.785,2.747,2.747,0,0,1,.918,2.207v3.664a4.041,4.041,0,0,0,.336,1.82V0ZM85.781-1.57a1.945,1.945,0,0,0,.922-.223,1.462,1.462,0,0,0,.625-.6V-3.844h-.844q-1.7,0-1.8,1.172l-.008.133a.9.9,0,0,0,.3.7A1.153,1.153,0,0,0,85.781-1.57Zm7.625-6.883.07.977a2.951,2.951,0,0,1,2.43-1.133,2.453,2.453,0,0,1,2,.789,3.682,3.682,0,0,1,.672,2.359V0H96.32V-5.406a1.465,1.465,0,0,0-.312-1.043,1.4,1.4,0,0,0-1.039-.324,1.553,1.553,0,0,0-1.43.813V0H91.281V-8.453ZM105.352-.859A2.831,2.831,0,0,1,103.039.156a2.67,2.67,0,0,1-2.074-.781,3.335,3.335,0,0,1-.73-2.289V-8.453h2.258v5.461q0,1.32,1.2,1.32a1.631,1.631,0,0,0,1.578-.8V-8.453h2.266V0h-2.125ZM109.859,0V-6.8H108.6V-8.453h1.258v-.719a2.918,2.918,0,0,1,.816-2.207,3.162,3.162,0,0,1,2.285-.785,5.278,5.278,0,0,1,1.148.156l-.023,1.75a2.878,2.878,0,0,0-.687-.07q-1.273,0-1.273,1.2v.68h1.68V-6.8h-1.68V0Zm10.016,0a2.507,2.507,0,0,1-.227-.758,2.732,2.732,0,0,1-2.133.914,3,3,0,0,1-2.059-.719,2.312,2.312,0,0,1-.816-1.812,2.389,2.389,0,0,1,1-2.062,4.915,4.915,0,0,1,2.879-.727h1.039v-.484a1.393,1.393,0,0,0-.3-.937,1.183,1.183,0,0,0-.949-.352,1.345,1.345,0,0,0-.895.273.929.929,0,0,0-.324.75h-2.258a2.268,2.268,0,0,1,.453-1.359,3,3,0,0,1,1.281-.98,4.669,4.669,0,0,1,1.859-.355,3.689,3.689,0,0,1,2.48.785,2.747,2.747,0,0,1,.918,2.207v3.664a4.041,4.041,0,0,0,.336,1.82V0Zm-1.867-1.57a1.945,1.945,0,0,0,.922-.223,1.462,1.462,0,0,0,.625-.6V-3.844h-.844q-1.7,0-1.8,1.172l-.008.133a.9.9,0,0,0,.3.7A1.153,1.153,0,0,0,118.008-1.57Zm9.063-.094a1.481,1.481,0,0,0,1.016-.344,1.2,1.2,0,0,0,.406-.914h2.117a2.9,2.9,0,0,1-.469,1.574,3.093,3.093,0,0,1-1.262,1.109,3.949,3.949,0,0,1-1.77.395A3.67,3.67,0,0,1,124.25-1,4.56,4.56,0,0,1,123.2-4.18v-.148a4.508,4.508,0,0,1,1.039-3.117,3.627,3.627,0,0,1,2.852-1.164,3.555,3.555,0,0,1,2.543.9,3.2,3.2,0,0,1,.973,2.4h-2.117a1.539,1.539,0,0,0-.406-1.066,1.358,1.358,0,0,0-1.031-.41,1.361,1.361,0,0,0-1.191.574,3.324,3.324,0,0,0-.4,1.863v.234a3.366,3.366,0,0,0,.4,1.875A1.378,1.378,0,0,0,127.07-1.664Zm7.531-8.867v2.078h1.445V-6.8H134.6v4.219a1.007,1.007,0,0,0,.18.672.9.9,0,0,0,.688.2,3.6,3.6,0,0,0,.664-.055V-.047a4.648,4.648,0,0,1-1.367.2,2.156,2.156,0,0,1-2.422-2.4V-6.8h-1.234V-8.453h1.234v-2.078Zm7.766,9.672A2.831,2.831,0,0,1,140.055.156a2.67,2.67,0,0,1-2.074-.781,3.335,3.335,0,0,1-.73-2.289V-8.453h2.258v5.461q0,1.32,1.2,1.32a1.631,1.631,0,0,0,1.578-.8V-8.453h2.266V0H142.43Zm8.641-5.477A6.134,6.134,0,0,0,150.2-6.4a1.654,1.654,0,0,0-1.68.867V0h-2.258V-8.453h2.133l.063,1.008a2.092,2.092,0,0,1,1.883-1.164,2.366,2.366,0,0,1,.7.1ZM156.758,0a2.507,2.507,0,0,1-.227-.758A2.732,2.732,0,0,1,154.4.156a3,3,0,0,1-2.059-.719,2.312,2.312,0,0,1-.816-1.812,2.389,2.389,0,0,1,1-2.062,4.915,4.915,0,0,1,2.879-.727h1.039v-.484a1.393,1.393,0,0,0-.3-.937,1.183,1.183,0,0,0-.949-.352,1.345,1.345,0,0,0-.895.273.929.929,0,0,0-.324.75h-2.258a2.268,2.268,0,0,1,.453-1.359,3,3,0,0,1,1.281-.98,4.669,4.669,0,0,1,1.859-.355,3.689,3.689,0,0,1,2.48.785,2.747,2.747,0,0,1,.918,2.207v3.664a4.041,4.041,0,0,0,.336,1.82V0Zm-1.867-1.57a1.945,1.945,0,0,0,.922-.223,1.462,1.462,0,0,0,.625-.6V-3.844h-.844q-1.7,0-1.8,1.172l-.008.133a.9.9,0,0,0,.3.7A1.153,1.153,0,0,0,154.891-1.57Z" transform="translate(-14158 -9025.115)" fill="#0075a4"/>
    <g id="Grupo_1009689" data-name="Grupo 1009689" transform="translate(-37 -935.118)">
      <rect id="Rectángulo_5203" data-name="Rectángulo 5203" width="249.933" height="36.904" transform="translate(-14166 -7896.48)" fill="#ffae78"/>
      <rect id="Rectángulo_5204" data-name="Rectángulo 5204" width="4.1" height="36.904" transform="translate(-14165.933 -7896.48)" fill="#ef7348"/>
      <rect id="Rectángulo_5205" data-name="Rectángulo 5205" width="4.1" height="36.904" transform="translate(-13920.101 -7896.48)" fill="#ef7348"/>
      <path id="Trazado_735287" data-name="Trazado 735287" d="M7.989-3.3A1.545,1.545,0,0,0,7.4-4.6a7.138,7.138,0,0,0-2.14-.923A10.335,10.335,0,0,1,2.795-6.557,3.284,3.284,0,0,1,1.046-9.422a3.118,3.118,0,0,1,1.261-2.549,5.1,5.1,0,0,1,3.274-1,5.53,5.53,0,0,1,2.382.492,3.909,3.909,0,0,1,1.644,1.4,3.6,3.6,0,0,1,.6,2.017H7.989a2.005,2.005,0,0,0-.628-1.569,2.594,2.594,0,0,0-1.8-.567,2.709,2.709,0,0,0-1.692.466,1.551,1.551,0,0,0-.6,1.3,1.4,1.4,0,0,0,.65,1.173,7.493,7.493,0,0,0,2.145.914,9.865,9.865,0,0,1,2.4,1.011,3.816,3.816,0,0,1,1.327,1.3,3.388,3.388,0,0,1,.422,1.718A3.045,3.045,0,0,1,8.987-.769,5.318,5.318,0,0,1,5.66.176,6.251,6.251,0,0,1,3.107-.338,4.289,4.289,0,0,1,1.3-1.758,3.537,3.537,0,0,1,.65-3.867H2.874A2.07,2.07,0,0,0,3.595-2.18a3.156,3.156,0,0,0,2.065.6A2.742,2.742,0,0,0,7.4-2.052,1.517,1.517,0,0,0,7.989-3.3ZM16.146.176A4.419,4.419,0,0,1,12.854-1.1a4.639,4.639,0,0,1-1.261-3.406v-.264a5.706,5.706,0,0,1,.549-2.544,4.181,4.181,0,0,1,1.542-1.745A4.078,4.078,0,0,1,15.9-9.686a3.733,3.733,0,0,1,3,1.239A5.24,5.24,0,0,1,19.96-4.939v.861H13.746a2.856,2.856,0,0,0,.787,1.863,2.362,2.362,0,0,0,1.736.686,2.892,2.892,0,0,0,2.391-1.187l1.151,1.1A3.845,3.845,0,0,1,18.286-.294,4.774,4.774,0,0,1,16.146.176Zm-.255-8.147a1.8,1.8,0,0,0-1.419.615,3.189,3.189,0,0,0-.69,1.714h4.069V-5.8a2.6,2.6,0,0,0-.571-1.622A1.785,1.785,0,0,0,15.891-7.972Zm9.633,6.442A1.931,1.931,0,0,0,26.851-2a1.591,1.591,0,0,0,.563-1.151h2.013a3.137,3.137,0,0,1-.554,1.657A3.632,3.632,0,0,1,27.466-.272,4.191,4.191,0,0,1,25.55.176a4.055,4.055,0,0,1-3.164-1.292,5.124,5.124,0,0,1-1.169-3.568V-4.9a5.039,5.039,0,0,1,1.16-3.476,4.018,4.018,0,0,1,3.164-1.305,3.907,3.907,0,0,1,2.764.989,3.542,3.542,0,0,1,1.121,2.6H27.413a1.956,1.956,0,0,0-.558-1.345,1.8,1.8,0,0,0-1.332-.527,1.879,1.879,0,0,0-1.6.751,3.834,3.834,0,0,0-.571,2.281V-4.6a3.9,3.9,0,0,0,.558,2.307A1.878,1.878,0,0,0,25.523-1.529Zm8.191-10.292V-9.51h1.679v1.582H33.715v5.309a1.169,1.169,0,0,0,.215.787,1,1,0,0,0,.769.242,3.29,3.29,0,0,0,.747-.088V-.026a5.26,5.26,0,0,1-1.406.2q-2.461,0-2.461-2.716V-7.928H30.015V-9.51h1.564v-2.312ZM36.36-4.843a5.607,5.607,0,0,1,.554-2.518A4.044,4.044,0,0,1,38.47-9.083a4.383,4.383,0,0,1,2.3-.6A4.154,4.154,0,0,1,43.9-8.446a4.874,4.874,0,0,1,1.3,3.287l.009.5a5.658,5.658,0,0,1-.541,2.514A4,4,0,0,1,43.115-.431,4.415,4.415,0,0,1,40.79.176a4.125,4.125,0,0,1-3.221-1.34A5.133,5.133,0,0,1,36.36-4.737Zm2.136.185a3.832,3.832,0,0,0,.606,2.3,1.971,1.971,0,0,0,1.688.831,1.95,1.95,0,0,0,1.683-.844,4.232,4.232,0,0,0,.6-2.47,3.782,3.782,0,0,0-.62-2.285,1.979,1.979,0,0,0-1.683-.844,1.96,1.96,0,0,0-1.661.831A4.152,4.152,0,0,0,38.5-4.658Zm13.491-2.9a5.285,5.285,0,0,0-.87-.07A1.959,1.959,0,0,0,49.14-6.5V0H47V-9.51h2.039L49.1-8.446A2.406,2.406,0,0,1,51.24-9.686,2,2,0,0,1,52-9.562ZM66.744-11h-3.99V0H60.548V-11H56.593V-12.8H66.744ZM72.4.176A4.419,4.419,0,0,1,69.113-1.1a4.639,4.639,0,0,1-1.261-3.406v-.264A5.706,5.706,0,0,1,68.4-7.317a4.181,4.181,0,0,1,1.542-1.745,4.078,4.078,0,0,1,2.215-.624,3.733,3.733,0,0,1,3,1.239,5.24,5.24,0,0,1,1.059,3.507v.861H70a2.856,2.856,0,0,0,.787,1.863,2.362,2.362,0,0,0,1.736.686,2.892,2.892,0,0,0,2.391-1.187l1.151,1.1A3.845,3.845,0,0,1,74.544-.294,4.774,4.774,0,0,1,72.4.176Zm-.255-8.147a1.8,1.8,0,0,0-1.419.615,3.189,3.189,0,0,0-.69,1.714h4.069V-5.8a2.6,2.6,0,0,0-.571-1.622A1.785,1.785,0,0,0,72.149-7.972Zm10.705.413a5.285,5.285,0,0,0-.87-.07A1.959,1.959,0,0,0,80.007-6.5V0H77.871V-9.51H79.91l.053,1.063a2.406,2.406,0,0,1,2.145-1.239,2,2,0,0,1,.756.123Zm5.089,6.029A1.931,1.931,0,0,0,89.271-2a1.591,1.591,0,0,0,.563-1.151h2.013a3.137,3.137,0,0,1-.554,1.657A3.632,3.632,0,0,1,89.886-.272,4.191,4.191,0,0,1,87.97.176a4.055,4.055,0,0,1-3.164-1.292,5.124,5.124,0,0,1-1.169-3.568V-4.9A5.039,5.039,0,0,1,84.8-8.38a4.018,4.018,0,0,1,3.164-1.305,3.907,3.907,0,0,1,2.764.989,3.542,3.542,0,0,1,1.121,2.6H89.833a1.956,1.956,0,0,0-.558-1.345,1.8,1.8,0,0,0-1.332-.527,1.879,1.879,0,0,0-1.6.751,3.834,3.834,0,0,0-.571,2.281V-4.6a3.9,3.9,0,0,0,.558,2.307A1.878,1.878,0,0,0,87.943-1.529ZM95.73,0H93.595V-9.51H95.73ZM93.463-11.979a1.133,1.133,0,0,1,.312-.817,1.179,1.179,0,0,1,.892-.325,1.193,1.193,0,0,1,.9.325,1.125,1.125,0,0,1,.316.817,1.1,1.1,0,0,1-.316.8,1.2,1.2,0,0,1-.9.321,1.188,1.188,0,0,1-.892-.321A1.107,1.107,0,0,1,93.463-11.979ZM103.737,0a3.3,3.3,0,0,1-.246-.888A3.325,3.325,0,0,1,101,.176a3.355,3.355,0,0,1-2.338-.817,2.615,2.615,0,0,1-.905-2.021A2.7,2.7,0,0,1,98.881-5a5.473,5.473,0,0,1,3.23-.813h1.31v-.624a1.666,1.666,0,0,0-.413-1.182,1.638,1.638,0,0,0-1.257-.444,1.881,1.881,0,0,0-1.2.365,1.129,1.129,0,0,0-.466.927H97.954a2.37,2.37,0,0,1,.519-1.463A3.455,3.455,0,0,1,99.883-9.3a4.955,4.955,0,0,1,1.991-.387,3.99,3.99,0,0,1,2.663.839,2.993,2.993,0,0,1,1.02,2.36V-2.2a4.861,4.861,0,0,0,.36,2.048V0Zm-2.347-1.538a2.429,2.429,0,0,0,1.191-.308,2.055,2.055,0,0,0,.839-.826V-4.465H102.27a3.148,3.148,0,0,0-1.784.413,1.338,1.338,0,0,0-.6,1.169,1.248,1.248,0,0,0,.409.98A1.583,1.583,0,0,0,101.391-1.538Zm11.382-6.021a5.285,5.285,0,0,0-.87-.07A1.959,1.959,0,0,0,109.925-6.5V0h-2.136V-9.51h2.039l.053,1.063a2.406,2.406,0,0,1,2.145-1.239,2,2,0,0,1,.756.123ZM116.394,0h-2.136V-9.51h2.136Zm-2.268-11.979a1.133,1.133,0,0,1,.312-.817,1.179,1.179,0,0,1,.892-.325,1.193,1.193,0,0,1,.9.325,1.125,1.125,0,0,1,.316.817,1.1,1.1,0,0,1-.316.8,1.2,1.2,0,0,1-.9.321,1.188,1.188,0,0,1-.892-.321A1.107,1.107,0,0,1,114.126-11.979Zm4.192,7.137a5.607,5.607,0,0,1,.554-2.518,4.044,4.044,0,0,1,1.556-1.723,4.383,4.383,0,0,1,2.3-.6,4.154,4.154,0,0,1,3.125,1.239,4.874,4.874,0,0,1,1.3,3.287l.009.5a5.658,5.658,0,0,1-.541,2.514,4,4,0,0,1-1.547,1.714,4.415,4.415,0,0,1-2.325.606,4.125,4.125,0,0,1-3.221-1.34,5.133,5.133,0,0,1-1.208-3.573Zm2.136.185a3.832,3.832,0,0,0,.606,2.3,1.971,1.971,0,0,0,1.688.831,1.95,1.95,0,0,0,1.683-.844,4.232,4.232,0,0,0,.6-2.47,3.782,3.782,0,0,0-.62-2.285,1.979,1.979,0,0,0-1.683-.844,1.96,1.96,0,0,0-1.661.831A4.152,4.152,0,0,0,120.454-4.658Z" transform="translate(-14104.512 -7873.276)"/>
      <rect id="Rectángulo_5222" data-name="Rectángulo 5222" width="249.933" height="5.978" transform="translate(-14166 -7827.559)" fill="#ffe8de"/>
      <path id="Trazado_735288" data-name="Trazado 735288" d="M3.508,0H1.164V-11.375H3.508Zm4.1-8.453.07.977a2.951,2.951,0,0,1,2.43-1.133,2.453,2.453,0,0,1,2,.789,3.682,3.682,0,0,1,.672,2.359V0H10.523V-5.406a1.465,1.465,0,0,0-.312-1.043,1.4,1.4,0,0,0-1.039-.324,1.553,1.553,0,0,0-1.43.813V0H5.484V-8.453Zm6.531,4.164a5.094,5.094,0,0,1,.887-3.148,2.877,2.877,0,0,1,2.426-1.172,2.589,2.589,0,0,1,2.039.922V-12h2.266V0H19.719l-.109-.9A2.657,2.657,0,0,1,17.438.156,2.869,2.869,0,0,1,15.043-1.02,5.258,5.258,0,0,1,14.141-4.289Zm2.258.164a3.328,3.328,0,0,0,.414,1.82,1.349,1.349,0,0,0,1.2.633,1.511,1.511,0,0,0,1.477-.883V-5.891a1.489,1.489,0,0,0-1.461-.883Q16.4-6.773,16.4-4.125ZM28.57-.859A2.831,2.831,0,0,1,26.258.156a2.67,2.67,0,0,1-2.074-.781,3.335,3.335,0,0,1-.73-2.289V-8.453h2.258v5.461q0,1.32,1.2,1.32a1.631,1.631,0,0,0,1.578-.8V-8.453h2.266V0H28.633Zm8.469-1.477a.727.727,0,0,0-.41-.652,4.659,4.659,0,0,0-1.316-.426Q32.3-4.047,32.3-5.977a2.323,2.323,0,0,1,.934-1.879,3.766,3.766,0,0,1,2.441-.754,4.053,4.053,0,0,1,2.574.758,2.388,2.388,0,0,1,.965,1.969H36.953a1.092,1.092,0,0,0-.312-.8A1.322,1.322,0,0,0,35.664-7a1.351,1.351,0,0,0-.883.258.814.814,0,0,0-.312.656.7.7,0,0,0,.355.605,3.657,3.657,0,0,0,1.2.4,9.8,9.8,0,0,1,1.422.379A2.336,2.336,0,0,1,39.234-2.43a2.2,2.2,0,0,1-.992,1.871A4.28,4.28,0,0,1,35.68.156a4.47,4.47,0,0,1-1.887-.379A3.166,3.166,0,0,1,32.5-1.262a2.414,2.414,0,0,1-.469-1.426h2.141a1.179,1.179,0,0,0,.445.922,1.766,1.766,0,0,0,1.109.32,1.635,1.635,0,0,0,.98-.246A.766.766,0,0,0,37.039-2.336Zm6.352-8.2v2.078h1.445V-6.8H43.391v4.219a1.007,1.007,0,0,0,.18.672.9.9,0,0,0,.688.2,3.6,3.6,0,0,0,.664-.055V-.047a4.648,4.648,0,0,1-1.367.2,2.156,2.156,0,0,1-2.422-2.4V-6.8H39.9V-8.453h1.234v-2.078Zm7.453,4.2a6.134,6.134,0,0,0-.812-.062,1.654,1.654,0,0,0-1.68.867V0H46.094V-8.453h2.133l.063,1.008a2.092,2.092,0,0,1,1.883-1.164,2.366,2.366,0,0,1,.7.1ZM54.313,0H52.047V-8.453h2.266Zm-2.4-10.641a1.112,1.112,0,0,1,.34-.836,1.277,1.277,0,0,1,.926-.328,1.28,1.28,0,0,1,.922.328,1.105,1.105,0,0,1,.344.836A1.108,1.108,0,0,1,54.1-9.8a1.283,1.283,0,0,1-.918.328,1.283,1.283,0,0,1-.918-.328A1.108,1.108,0,0,1,51.914-10.641ZM61.07,0a2.507,2.507,0,0,1-.227-.758,2.732,2.732,0,0,1-2.133.914,3,3,0,0,1-2.059-.719,2.312,2.312,0,0,1-.816-1.812,2.389,2.389,0,0,1,1-2.062,4.915,4.915,0,0,1,2.879-.727H60.75v-.484a1.393,1.393,0,0,0-.3-.937,1.183,1.183,0,0,0-.949-.352,1.345,1.345,0,0,0-.895.273.929.929,0,0,0-.324.75H56.023a2.268,2.268,0,0,1,.453-1.359,3,3,0,0,1,1.281-.98,4.669,4.669,0,0,1,1.859-.355,3.689,3.689,0,0,1,2.48.785,2.747,2.747,0,0,1,.918,2.207v3.664a4.041,4.041,0,0,0,.336,1.82V0ZM59.2-1.57a1.945,1.945,0,0,0,.922-.223,1.462,1.462,0,0,0,.625-.6V-3.844h-.844q-1.7,0-1.8,1.172l-.008.133a.9.9,0,0,0,.3.7A1.153,1.153,0,0,0,59.2-1.57Z" transform="translate(-14072 -7796.697)" fill="#0075a4"/>
      <g id="Grupo_53877" data-name="Grupo 53877" transform="translate(-17405.506 -8678.75)">
        <text id="Comercio._Servicios_públicos._Transporte._Créditos_seguros_y_finanzas._Turismo._Otros." data-name="Comercio.
Servicios públicos. 
Transporte. 
Créditos, seguros y finanzas.
Turismo. 
Otros." transform="translate(3268.059 910.937)" font-size="16" font-family="Roboto-Medium, Roboto" font-weight="500"><tspan x="0" y="0">Comercio.</tspan><tspan x="0" y="22">Servicios públicos. </tspan><tspan x="0" y="44">Transporte. </tspan><tspan x="0" y="66">Créditos, seguros y finanzas.</tspan><tspan x="0" y="88">Turismo. </tspan><tspan x="0" y="110">Otros.</tspan></text>
        <circle id="Elipse_4054" data-name="Elipse 4054" cx="3.047" cy="3.047" r="3.047" transform="translate(3256.505 903.992)" fill="#25ced1"/>
        <circle id="Elipse_4055" data-name="Elipse 4055" cx="3.047" cy="3.047" r="3.047" transform="translate(3256.505 925.984)" fill="#25ced1"/>
        <circle id="Elipse_4056" data-name="Elipse 4056" cx="3.047" cy="3.047" r="3.047" transform="translate(3256.505 947.977)" fill="#25ced1"/>
        <circle id="Elipse_4057" data-name="Elipse 4057" cx="3.047" cy="3.047" r="3.047" transform="translate(3256.505 968.489)" fill="#25ced1"/>
        <circle id="Elipse_4058" data-name="Elipse 4058" cx="3.047" cy="3.047" r="3.047" transform="translate(3256.505 990.481)" fill="#25ced1"/>
        <circle id="Elipse_4059" data-name="Elipse 4059" cx="3.047" cy="3.047" r="3.047" transform="translate(3256.505 1012.592)" fill="#25ced1"/>
      </g>
    </g>
    <path id="Trazado_734794" data-name="Trazado 734794" d="M-14241.543-9605.031H-14294V-8808h78" fill="none" stroke="#c05e71" stroke-width="3"/>
    <g id="Grupo_1009692" data-name="Grupo 1009692" transform="translate(-15014.742 -5826.5) rotate(-90)">
      <path id="Trazado_100665-2" data-name="Trazado 100665" d="M2981.5,794.717l-8.253-3.623,8.233,19.648.02-.04.02.04,8.233-19.648Z" fill="#c05e71"/>
    </g>
    <g id="Grupo_1009693" data-name="Grupo 1009693" transform="translate(-15014.742 -6190.5) rotate(-90)">
      <path id="Trazado_100665-3" data-name="Trazado 100665" d="M2981.5,794.717l-8.253-3.623,8.233,19.648.02-.04.02.04,8.233-19.648Z" fill="#c05e71"/>
      <rect id="Rectángulo_5211-2" data-name="Rectángulo 5211" width="3.402" height="73.469" transform="translate(2979.8 721.742)" fill="#c05e71"/>
    </g>
    <g id="Grupo_1009694" data-name="Grupo 1009694" transform="translate(-15014.742 -6543.5) rotate(-90)">
      <path id="Trazado_100665-4" data-name="Trazado 100665" d="M2981.5,794.717l-8.253-3.623,8.233,19.648.02-.04.02.04,8.233-19.648Z" fill="#c05e71"/>
      <rect id="Rectángulo_5211-3" data-name="Rectángulo 5211" width="3.402" height="74.469" transform="translate(2979.8 720.742)" fill="#c05e71"/>
    </g>
    <g id="Grupo_1009983" data-name="Grupo 1009983" transform="translate(-14504 -11987)">
      <rect id="Rectángulo_338875" data-name="Rectángulo 338875" width="96" height="104" rx="10" transform="translate(377 2637)" fill="#ff6e33"/>
      <g id="Grupo_1009977" data-name="Grupo 1009977" transform="translate(-194 -291.999)">
        <g id="Grupo_1009978" data-name="Grupo 1009978" transform="translate(576 2938)">
          <g id="Grupo_1009977-2" data-name="Grupo 1009977" clip-path="url(#clip-path)">
            <path id="Trazado_735217" data-name="Trazado 735217" d="M385.508,145.06l-18.85-5.141-.763,2.8,11.711,3.194-1.137,4.546,2.813.7,1.122-4.486,2.971.81-1.106,4.422,2.813.7,1.45-5.8A1.45,1.45,0,0,0,385.508,145.06Z" transform="translate(-299.577 -114.559)" fill="#045f9c"/>
            <rect id="Rectángulo_344859" data-name="Rectángulo 344859" width="7.25" height="8.286" transform="translate(26.1 20.134)" fill="#efd66a"/>
            <path id="Trazado_735218" data-name="Trazado 735218" d="M257.692,36.625H238.586L241.742,24h15.95Z" transform="translate(-195.342 -19.65)" fill="#2993ce"/>
            <path id="Trazado_735219" data-name="Trazado 735219" d="M178.9,18.85H176V1.45A1.45,1.45,0,0,1,177.45,0h4.35V2.9h-2.9Z" transform="translate(-144.1)" fill="#0a4566"/>
            <path id="Trazado_735220" data-name="Trazado 735220" d="M173.7,105.4H136v-4.35l7.25-2.9V93.8h-5.8V92.184A4.184,4.184,0,0,1,141.634,88H173.7Z" transform="translate(-111.35 -72.05)" fill="#1448d3"/>
            <rect id="Rectángulo_344860" data-name="Rectángulo 344860" width="85" height="45" transform="translate(1 40.999)" fill="#feac4f"/>
            <path id="Trazado_735221" data-name="Trazado 735221" d="M156.35,176a4.35,4.35,0,1,1-4.35,4.35,4.35,4.35,0,0,1,4.35-4.35" transform="translate(-124.45 -144.1)" fill="#0a4566"/>
            <path id="Trazado_735222" data-name="Trazado 735222" d="M169.45,192a1.45,1.45,0,1,1-1.45,1.45,1.45,1.45,0,0,1,1.45-1.45" transform="translate(-137.55 -157.2)" fill="#2993ce"/>
            <path id="Trazado_735223" data-name="Trazado 735223" d="M95.95,268.95l5.8-44.95H91.6L80,268.95Z" transform="translate(-65.5 -183.4)" fill="#d68029"/>
            <path id="Trazado_735224" data-name="Trazado 735224" d="M111.95,268.95l5.8-44.95H107.6L96,268.95Z" transform="translate(-78.6 -183.4)" fill="#66af8d"/>
            <path id="Trazado_735225" data-name="Trazado 735225" d="M269.75,268.95,258.15,224H248l5.8,44.95Z" transform="translate(-203.05 -183.4)" fill="#d68029"/>
            <path id="Trazado_735226" data-name="Trazado 735226" d="M285.75,268.95,274.15,224H264l5.8,44.95Z" transform="translate(-216.15 -183.4)" fill="#66af8d"/>
            <path id="Trazado_735227" data-name="Trazado 735227" d="M276.376,96A12.377,12.377,0,0,0,264,108.376v3.574h14.5V96Z" transform="translate(-216.15 -78.6)" fill="#1448d3"/>
            <rect id="Rectángulo_344861" data-name="Rectángulo 344861" width="3" height="4" transform="translate(36 21.999)" fill="#af1e4b"/>
            <path id="Trazado_735228" data-name="Trazado 735228" d="M258.9,105.4H256v-3.574A13.827,13.827,0,0,1,269.826,88H279.2v2.9h-9.374A10.927,10.927,0,0,0,258.9,101.826Z" transform="translate(-209.6 -72.05)" fill="#c3e0ed"/>
            <rect id="Rectángulo_344862" data-name="Rectángulo 344862" width="3" height="4" transform="translate(42 21.999)" fill="#af1e4b"/>
            <path id="Trazado_735229" data-name="Trazado 735229" d="M251.175,40.143l-5.8-5.8-2.051,2.051,1.875,1.875-5,5-.2.8h3.5l3.749-3.749,1.875,1.875Z" transform="translate(-196.5 -28.118)" fill="#89103c"/>
            <rect id="Rectángulo_344863" data-name="Rectángulo 344863" width="6" height="6" transform="translate(30 5.999)" fill="#045f9c"/>
            <path id="Trazado_735230" data-name="Trazado 735230" d="M8,234.15,15.25,224h8.7L8,266.05Z" transform="translate(-6.55 -183.4)" fill="#66af8d"/>
            <path id="Trazado_735231" data-name="Trazado 735231" d="M386.931,238.324,376.7,224H368l17.05,44.95h1.8Z" transform="translate(-301.3 -183.4)" fill="#d68029"/>
            <path id="Trazado_735232" data-name="Trazado 735232" d="M399.95,234.15,392.7,224H384l15.95,42.05Z" transform="translate(-314.4 -183.4)" fill="#66af8d"/>
            <path id="Trazado_735233" data-name="Trazado 735233" d="M12.35,104h0a4.35,4.35,0,0,1,4.35,4.35v5.8a4.35,4.35,0,1,1-8.7,0v-5.8A4.35,4.35,0,0,1,12.35,104" transform="translate(-6.55 -85.15)" fill="#66af8d"/>
            <rect id="Rectángulo_344864" data-name="Rectángulo 344864" width="3" height="12" transform="translate(4 28.999)" fill="#d68029"/>
            <path id="Trazado_735234" data-name="Trazado 735234" d="M60.35,104h0a4.35,4.35,0,0,1,4.35,4.35v5.8a4.35,4.35,0,0,1-8.7,0v-5.8A4.35,4.35,0,0,1,60.35,104" transform="translate(-45.85 -85.15)" fill="#66af8d"/>
            <rect id="Rectángulo_344865" data-name="Rectángulo 344865" width="3" height="12" transform="translate(13 28.999)" fill="#d68029"/>
            <path id="Trazado_735235" data-name="Trazado 735235" d="M220.35,391.25a1.45,1.45,0,0,1-1.376-.991l-.533-1.6A2.57,2.57,0,0,0,216,386.9V384a5.467,5.467,0,0,1,4.35,2.149A5.467,5.467,0,0,1,224.7,384v2.9a2.57,2.57,0,0,0-2.441,1.76l-.533,1.6A1.45,1.45,0,0,1,220.35,391.25Z" transform="translate(-176.85 -314.4)" fill="#2d7a54"/>
            <path id="Trazado_735236" data-name="Trazado 735236" d="M220.35,335.25a1.45,1.45,0,0,1-1.376-.991l-.533-1.6A2.57,2.57,0,0,0,216,330.9V328a5.467,5.467,0,0,1,4.35,2.149A5.467,5.467,0,0,1,224.7,328v2.9a2.57,2.57,0,0,0-2.441,1.76l-.533,1.6A1.45,1.45,0,0,1,220.35,335.25Z" transform="translate(-176.85 -268.55)" fill="#2d7a54"/>
            <path id="Trazado_735237" data-name="Trazado 735237" d="M220.35,447.25a1.45,1.45,0,0,1-1.376-.991l-.533-1.6A2.57,2.57,0,0,0,216,442.9V440a5.467,5.467,0,0,1,4.35,2.149A5.467,5.467,0,0,1,224.7,440v2.9a2.57,2.57,0,0,0-2.441,1.76l-.533,1.6A1.45,1.45,0,0,1,220.35,447.25Z" transform="translate(-176.85 -360.25)" fill="#2d7a54"/>
            <path id="Trazado_735238" data-name="Trazado 735238" d="M36.35,439.25a1.45,1.45,0,0,1-1.376-.991l-.533-1.6A2.57,2.57,0,0,0,32,434.9V432a5.467,5.467,0,0,1,4.35,2.149A5.467,5.467,0,0,1,40.7,432v2.9a2.57,2.57,0,0,0-2.441,1.76l-.533,1.6a1.45,1.45,0,0,1-1.376.991" transform="translate(-26.2 -353.7)" fill="#2d7a54"/>
            <path id="Trazado_735239" data-name="Trazado 735239" d="M60.35,375.25a1.45,1.45,0,0,1-1.376-.991l-.533-1.6A2.57,2.57,0,0,0,56,370.9V368a5.467,5.467,0,0,1,4.35,2.149A5.467,5.467,0,0,1,64.7,368v2.9a2.57,2.57,0,0,0-2.441,1.76l-.533,1.6a1.45,1.45,0,0,1-1.376.991" transform="translate(-45.85 -301.3)" fill="#2d7a54"/>
            <path id="Trazado_735240" data-name="Trazado 735240" d="M404.35,439.25a1.45,1.45,0,0,1-1.376-.991l-.533-1.6A2.57,2.57,0,0,0,400,434.9V432a5.467,5.467,0,0,1,4.35,2.149A5.467,5.467,0,0,1,408.7,432v2.9a2.57,2.57,0,0,0-2.441,1.76l-.533,1.6a1.45,1.45,0,0,1-1.375.991" transform="translate(-327.5 -353.7)" fill="#2d7a54"/>
            <path id="Trazado_735241" data-name="Trazado 735241" d="M380.35,375.25a1.45,1.45,0,0,1-1.375-.991l-.533-1.6A2.57,2.57,0,0,0,376,370.9V368a5.467,5.467,0,0,1,4.35,2.149A5.467,5.467,0,0,1,384.7,368v2.9a2.57,2.57,0,0,0-2.441,1.76l-.533,1.6a1.45,1.45,0,0,1-1.376.991" transform="translate(-307.85 -301.3)" fill="#2d7a54"/>
            <path id="Trazado_735242" data-name="Trazado 735242" d="M222.268,287.718a1.445,1.445,0,0,1-1.025-.425l-2.9-2.9,2.051-2.051,1.875,1.875,1.875-1.875,2.051,2.051-2.9,2.9A1.445,1.445,0,0,1,222.268,287.718Z" transform="translate(-178.768 -231.168)" fill="#2d7a54"/>
            <path id="Trazado_735243" data-name="Trazado 735243" d="M78.268,319.718a1.445,1.445,0,0,1-1.025-.425l-2.9-2.9,2.051-2.051,1.875,1.875,1.875-1.875,2.051,2.051-2.9,2.9A1.445,1.445,0,0,1,78.268,319.718Z" transform="translate(-60.868 -257.368)" fill="#2d7a54"/>
            <path id="Trazado_735244" data-name="Trazado 735244" d="M366.268,319.718a1.445,1.445,0,0,1-1.025-.425l-2.9-2.9,2.051-2.051,1.875,1.875,1.875-1.875,2.051,2.051-2.9,2.9A1.445,1.445,0,0,1,366.268,319.718Z" transform="translate(-296.668 -257.368)" fill="#2d7a54"/>
            <rect id="Rectángulo_344866" data-name="Rectángulo 344866" width="3" height="3" transform="translate(20 44.999)" fill="#2d7a54"/>
            <rect id="Rectángulo_344867" data-name="Rectángulo 344867" width="3" height="3" transform="translate(17 50.999)" fill="#2d7a54"/>
            <rect id="Rectángulo_344868" data-name="Rectángulo 344868" width="3" height="3" transform="translate(42 44.999)" fill="#2d7a54"/>
            <rect id="Rectángulo_344869" data-name="Rectángulo 344869" width="3" height="3" transform="translate(64 44.999)" fill="#2d7a54"/>
            <rect id="Rectángulo_344870" data-name="Rectángulo 344870" width="3" height="3" transform="translate(67 50.999)" fill="#2d7a54"/>
            <path id="Trazado_735245" data-name="Trazado 735245" d="M304.7,128a8.7,8.7,0,1,1-8.7,8.7,8.7,8.7,0,0,1,8.7-8.7" transform="translate(-242.35 -104.8)" fill="#0a4566"/>
            <path id="Trazado_735246" data-name="Trazado 735246" d="M330.9,160a2.9,2.9,0,1,1-2.9,2.9,2.9,2.9,0,0,1,2.9-2.9" transform="translate(-268.55 -131)" fill="#2993ce"/>
            <path id="Trazado_735247" data-name="Trazado 735247" d="M328.7,156.35a4.35,4.35,0,1,0-4.35,4.35,4.35,4.35,0,0,0,4.35-4.35m-5.8,0a1.45,1.45,0,1,1,1.45,1.45,1.45,1.45,0,0,1-1.45-1.45" transform="translate(-262 -124.45)"/>
            <rect id="Rectángulo_344871" data-name="Rectángulo 344871" width="3" height="4" transform="translate(36 21.999)"/>
            <rect id="Rectángulo_344872" data-name="Rectángulo 344872" width="3" height="4" transform="translate(42 21.999)"/>
            <path id="Trazado_735248" data-name="Trazado 735248" d="M85.931,30.5,70.87,26.393A10.15,10.15,0,0,0,58.7,22.426l1.043,2.706a7.26,7.26,0,1,1-2.187,1.329l-1.919-2.175A10.158,10.158,0,0,0,52.2,31.9H49.3V29.776A10.927,10.927,0,0,1,60.226,18.85H69.6v-2.9H63.8V4.35A1.45,1.45,0,0,0,62.35,2.9H46.4A1.45,1.45,0,0,0,44.993,4L42.368,14.5H34.8V13.05h1.45A1.45,1.45,0,0,0,37.7,11.6V5.8a1.45,1.45,0,0,0-1.45-1.45H34.8V2.9h2.9V0H33.35A1.45,1.45,0,0,0,31.9,1.45v2.9H30.45A1.45,1.45,0,0,0,29,5.8v5.8a1.45,1.45,0,0,0,1.45,1.45H31.9V14.5H30.284a5.64,5.64,0,0,0-5.634,5.634v7.3l-.538.215A1.45,1.45,0,0,0,23.2,29v4.35a1.45,1.45,0,0,0,1.45,1.45h1.634a5.792,5.792,0,0,0,.6,4.35H15.95V34.616A5.81,5.81,0,0,0,20.3,29V23.2a5.8,5.8,0,0,0-10.15-3.83A5.8,5.8,0,0,0,0,23.2V29a5.81,5.81,0,0,0,4.35,5.616V39.15H1.45v2.9H5.882L.27,49.907l2.36,1.686L9.446,42.05H15.3L.094,82.136l2.711,1.028L18.4,42.05h8.728L16,85.187l2.808.725L30.124,42.05H37.5L31.912,85.364l2.876.371L40.425,42.05h6.15l5.637,43.685,2.876-.371L49.5,42.05h7.377L68.2,85.912,71,85.187,59.871,42.05H68.6l15.6,41.114,2.712-1.028L71.7,42.05h5.853l6.816,9.543,2.36-1.686L81.117,42.05H85.55v-2.9H69.444a10.128,10.128,0,0,0,2.833-9.367l5.754,1.569L76.893,35.9l2.813.7,1.122-4.486,2.971.81-1.106,4.422,2.813.7,1.45-5.8A1.45,1.45,0,0,0,85.931,30.5ZM4.35,29v2.508A2.9,2.9,0,0,1,2.9,29V23.2a2.9,2.9,0,0,1,5.8,0V29a2.9,2.9,0,0,1-1.45,2.508V29Zm8.7,10.15H7.25V34.616a5.807,5.807,0,0,0,2.9-1.786,5.808,5.808,0,0,0,2.9,1.786Zm0-10.15v2.508A2.9,2.9,0,0,1,11.6,29V23.2a2.9,2.9,0,0,1,5.8,0V29a2.9,2.9,0,0,1-1.45,2.508V29ZM47.532,5.8H60.9v8.7H48.451l2.3-2.3,1.875,1.875,2.051-2.051-5.8-5.8L46.944,8.157ZM46.9,8.346l1.8,1.8-3.006,3.006Zm-15-1.1h2.9v2.9H31.9ZM27.55,23.2h2.9v1.918l-2.9,1.16ZM31.9,39.15a2.9,2.9,0,1,1,2.9-2.9,2.9,2.9,0,0,1-2.9,2.9m0-8.7a5.774,5.774,0,0,0-3.83,1.45H26.1V29.982l6.338-2.535A1.45,1.45,0,0,0,33.35,26.1V21.75A1.45,1.45,0,0,0,31.9,20.3H27.55v-.166A2.737,2.737,0,0,1,30.284,17.4H54.056A13.843,13.843,0,0,0,46.4,29.776V31.9H35.73a5.774,5.774,0,0,0-3.83-1.45m5.021,8.7a5.792,5.792,0,0,0,.6-4.35H52.625a10.16,10.16,0,0,0,2.632,4.35Z" transform="translate(0)"/>
            <path id="Trazado_735249" data-name="Trazado 735249" d="M220.35,386.149A5.467,5.467,0,0,0,216,384v2.9a2.57,2.57,0,0,1,2.441,1.76l.533,1.6a1.45,1.45,0,0,0,2.751,0l.533-1.6a2.57,2.57,0,0,1,2.441-1.76V384a5.467,5.467,0,0,0-4.35,2.149" transform="translate(-176.85 -314.4)"/>
            <path id="Trazado_735250" data-name="Trazado 735250" d="M220.35,330.149A5.467,5.467,0,0,0,216,328v2.9a2.57,2.57,0,0,1,2.441,1.76l.533,1.6a1.45,1.45,0,0,0,2.751,0l.533-1.6a2.57,2.57,0,0,1,2.441-1.76V328a5.467,5.467,0,0,0-4.35,2.149" transform="translate(-176.85 -268.55)"/>
            <path id="Trazado_735251" data-name="Trazado 735251" d="M220.35,442.149A5.467,5.467,0,0,0,216,440v2.9a2.57,2.57,0,0,1,2.441,1.76l.533,1.6a1.45,1.45,0,0,0,2.751,0l.533-1.6a2.57,2.57,0,0,1,2.441-1.76V440a5.467,5.467,0,0,0-4.35,2.149" transform="translate(-176.85 -360.25)"/>
            <path id="Trazado_735252" data-name="Trazado 735252" d="M36.35,434.149A5.467,5.467,0,0,0,32,432v2.9a2.57,2.57,0,0,1,2.441,1.76l.533,1.6a1.45,1.45,0,0,0,2.751,0l.533-1.6A2.57,2.57,0,0,1,40.7,434.9V432a5.467,5.467,0,0,0-4.35,2.149" transform="translate(-26.2 -353.7)"/>
            <path id="Trazado_735253" data-name="Trazado 735253" d="M64.7,370.9V368a5.467,5.467,0,0,0-4.35,2.149A5.467,5.467,0,0,0,56,368v2.9a2.57,2.57,0,0,1,2.441,1.76l.533,1.6a1.45,1.45,0,0,0,2.751,0l.533-1.6A2.57,2.57,0,0,1,64.7,370.9" transform="translate(-45.85 -301.3)"/>
            <path id="Trazado_735254" data-name="Trazado 735254" d="M404.35,434.149A5.467,5.467,0,0,0,400,432v2.9a2.57,2.57,0,0,1,2.441,1.76l.533,1.6a1.45,1.45,0,0,0,2.751,0l.533-1.6a2.57,2.57,0,0,1,2.441-1.76V432A5.467,5.467,0,0,0,404.35,434.149Z" transform="translate(-327.5 -353.7)"/>
            <path id="Trazado_735255" data-name="Trazado 735255" d="M381.725,374.259l.533-1.6a2.57,2.57,0,0,1,2.441-1.76V368a5.467,5.467,0,0,0-4.35,2.149A5.467,5.467,0,0,0,376,368v2.9a2.57,2.57,0,0,1,2.441,1.76l.533,1.6a1.45,1.45,0,0,0,2.751,0Z" transform="translate(-307.85 -301.3)"/>
            <path id="Trazado_735256" data-name="Trazado 735256" d="M218.343,284.394l2.9,2.9a1.45,1.45,0,0,0,2.051,0l2.9-2.9-2.051-2.051-1.875,1.875-1.875-1.875Z" transform="translate(-178.768 -231.168)"/>
            <path id="Trazado_735257" data-name="Trazado 735257" d="M76.394,314.343l-2.051,2.051,2.9,2.9a1.45,1.45,0,0,0,2.051,0l2.9-2.9-2.051-2.051-1.875,1.875Z" transform="translate(-60.868 -257.368)"/>
            <path id="Trazado_735258" data-name="Trazado 735258" d="M366.268,319.718a1.445,1.445,0,0,0,1.025-.425l2.9-2.9-2.051-2.051-1.875,1.875-1.875-1.875-2.051,2.051,2.9,2.9A1.445,1.445,0,0,0,366.268,319.718Z" transform="translate(-296.668 -257.368)"/>
            <rect id="Rectángulo_344873" data-name="Rectángulo 344873" width="3" height="3" transform="translate(20 44.999)"/>
            <rect id="Rectángulo_344874" data-name="Rectángulo 344874" width="3" height="3" transform="translate(17 50.999)"/>
            <rect id="Rectángulo_344875" data-name="Rectángulo 344875" width="3" height="3" transform="translate(42 44.999)"/>
            <rect id="Rectángulo_344876" data-name="Rectángulo 344876" width="3" height="3" transform="translate(64 44.999)"/>
            <rect id="Rectángulo_344877" data-name="Rectángulo 344877" width="3" height="3" transform="translate(67 50.999)"/>
          </g>
        </g>
      </g>
    </g>
    <g id="Grupo_1009984" data-name="Grupo 1009984" transform="translate(-14504 -11219)">
      <rect id="Rectángulo_338875-2" data-name="Rectángulo 338875" width="96" height="104" rx="10" transform="translate(377 2637)" fill="#ff6e33"/>
      <g id="Grupo_1009980" data-name="Grupo 1009980" transform="translate(384 2648)">
        <g id="Grupo_1009979" data-name="Grupo 1009979" clip-path="url(#clip-path-2)">
          <path id="Trazado_735259" data-name="Trazado 735259" d="M61.161,415.6v11.969H40v-11.9l.026-.04a15.9,15.9,0,0,0,21.135-.026" transform="translate(-33.387 -346.892)" fill="#969faa"/>
          <path id="Trazado_735260" data-name="Trazado 735260" d="M380.6,200l.661,5.277-.079.013h-9.1l-.079-.013.661-5.277Z" transform="translate(-310.5 -166.936)" fill="#dfb28b"/>
          <path id="Trazado_735261" data-name="Trazado 735261" d="M371.242,231.92l1.984,15.884H360l1.984-15.884.079.013h9.1Z" transform="translate(-300.484 -193.578)" fill="#d3a06c"/>
          <path id="Trazado_735262" data-name="Trazado 735262" d="M63.935,56v5.29H56V56Z" transform="translate(-46.742 -46.742)" fill="#ccd1d9"/>
          <path id="Trazado_735263" data-name="Trazado 735263" d="M142.613,8l1.323,13.226H136L137.323,8Z" transform="translate(-113.516 -6.677)" fill="#ccd1d9"/>
          <path id="Trazado_735264" data-name="Trazado 735264" d="M88,114.676V88h18.516v13.226H98.581v5.29H93.29v8.16a15.672,15.672,0,0,0-5.29,0" transform="translate(-73.452 -73.452)" fill="#dfb28b"/>
          <path id="Trazado_735265" data-name="Trazado 735265" d="M47.935,88v26.676a15.691,15.691,0,0,0-7.909,3.783l-.026-.04V88Z" transform="translate(-33.387 -73.452)" fill="#cf9e76"/>
          <path id="Trazado_735266" data-name="Trazado 735266" d="M167.871,168v5.29H152V168h15.871Z" transform="translate(-126.871 -140.226)" fill="#fcd770"/>
          <path id="Trazado_735267" data-name="Trazado 735267" d="M146.452,200v21.161H133a15.616,15.616,0,0,0-1.9-5.3,15.848,15.848,0,0,0-11.1-7.7V200h26.452Z" transform="translate(-100.161 -166.936)" fill="#ffeaa7"/>
          <path id="Trazado_735268" data-name="Trazado 735268" d="M243.833,328v5.29H198.64a15.673,15.673,0,0,0,0-5.29h45.193Z" transform="translate(-165.8 -273.774)" fill="#ccd1d9"/>
          <path id="Trazado_735269" data-name="Trazado 735269" d="M173.065,360a15.616,15.616,0,0,1-1.9,5.3A16.306,16.306,0,0,1,168,369.192v11.969h50.258V360Z" transform="translate(-140.226 -300.484)" fill="#e6e9ed"/>
          <path id="Trazado_735270" data-name="Trazado 735270" d="M23.871,248A15.871,15.871,0,1,1,8,263.871,15.871,15.871,0,0,1,23.871,248" transform="translate(-6.677 -207)" fill="#69d6f4"/>
          <rect id="Rectángulo_344879" data-name="Rectángulo 344879" width="8" height="14" transform="translate(65 67)" fill="#aab2bd"/>
          <rect id="Rectángulo_344880" data-name="Rectángulo 344880" width="8" height="14" transform="translate(49 67)" fill="#aab2bd"/>
          <rect id="Rectángulo_344881" data-name="Rectángulo 344881" width="8" height="14" transform="translate(33 67)" fill="#aab2bd"/>
          <path id="Trazado_735271" data-name="Trazado 735271" d="M303.935,66.581a5.29,5.29,0,0,1,0-10.581h9.919a4.634,4.634,0,0,1,4.629,4.629v.661h3.968a5.29,5.29,0,1,1,0,10.581h-3.968a2.653,2.653,0,0,0-2.645,2.645v1.323h-5.29V74.516a2.653,2.653,0,0,0-2.645-2.645h-9.258A2.664,2.664,0,0,1,296,69.226a2.653,2.653,0,0,1,2.645-2.645Z" transform="translate(-247.065 -46.742)" fill="#ccd1d9"/>
          <path id="Trazado_735272" data-name="Trazado 735272" d="M71.265,31.742H60.993L58.348,52.9H47.613V31.742h-5.29v-5.29H34.387V13.226H31.616L30.294,0H22.608L21.286,13.226H18.516V7.935H7.935v5.29H5.29V44.493a17.126,17.126,0,0,0,0,24.756V82H79.355V52.9H73.91Zm-2.336,2.645.331,2.645H63l.331-2.645Zm-6.261,5.29H69.59L71.243,52.9H61.013ZM44.968,52.9H33.907A17.23,17.23,0,0,0,21.161,40.158v-5.77H44.968ZM22.106,70.548a18.331,18.331,0,0,0,1.84-4.419h4.461a14.6,14.6,0,0,1-6.3,4.419M5.979,66.129H10.44a18.278,18.278,0,0,0,1.84,4.419,14.613,14.613,0,0,1-6.3-4.419m6.3-22.935a18.278,18.278,0,0,0-1.84,4.419H5.979a14.609,14.609,0,0,1,6.3-4.419m.944-19.388H7.935V21.161h5.29Zm0,5.29H7.935V26.452h5.29Zm0,5.29H7.935V31.742h5.29ZM25.1,55.548a36.272,36.272,0,0,0-.541-5.29h5.576a14.441,14.441,0,0,1,1.539,5.29Zm-13.169,0a32.946,32.946,0,0,1,.608-5.29h9.308a32.8,32.8,0,0,1,.608,5.29Zm10.525,2.645a32.946,32.946,0,0,1-.608,5.29H12.539a32.8,32.8,0,0,1-.608-5.29Zm1.489-10.581a18.278,18.278,0,0,0-1.84-4.419,14.586,14.586,0,0,1,6.3,4.419Zm-2.772,0H13.213c1.044-3.271,2.559-5.29,3.98-5.29s2.937,2.02,3.981,5.29M9.828,50.258a36.272,36.272,0,0,0-.541,5.29H2.713a14.416,14.416,0,0,1,1.539-5.29Zm-.541,7.935a36.272,36.272,0,0,0,.541,5.29H4.251a14.441,14.441,0,0,1-1.539-5.29Zm3.927,7.935h7.961c-1.044,3.271-2.559,5.29-3.98,5.29s-2.937-2.02-3.981-5.29m16.922-2.645H24.56a36.272,36.272,0,0,0,.541-5.29h6.575A14.441,14.441,0,0,1,30.136,63.484Zm9.541-31.742H26.452V29.1H39.677Zm-7.935-5.29H23.806v5.29h-5.29v8c-.438-.034-.876-.067-1.323-.067s-.885.033-1.323.067V15.871H31.742ZM25,2.645h2.9l1.058,10.581H23.944ZM10.581,10.581h5.29v2.645h-5.29Zm2.645,7.935H7.935V15.871h5.29ZM7.935,37.032h5.29v3.125a17.056,17.056,0,0,0-5.29,2.248Zm0,34.3a17.071,17.071,0,0,0,18.516,0v8.019H7.935Zm31.742,8.019h-5.29V68.774h5.29Zm15.871,0h-5.29V68.774h5.29Zm15.871,0h-5.29V68.774h5.29Zm2.645,0V66.129H63.484V79.355h-5.29V66.129H47.613V79.355h-5.29V66.129H31.742V79.355H29.1V69.249a17.182,17.182,0,0,0,4.81-8.41h42.8V79.355ZM76.71,58.194H34.32c.034-.438.067-.876.067-1.323s-.033-.885-.067-1.323H76.71Z"/>
          <path id="Trazado_735273" data-name="Trazado 735273" d="M395.9,53.29h-2.681A5.961,5.961,0,0,0,387.306,48H384v2.645h3.306a3.31,3.31,0,0,1,3.306,3.306v1.984h5.29a3.968,3.968,0,0,1,0,7.935h-3.968a3.973,3.973,0,0,0-3.968,3.968v1.323h2.645V67.839a1.324,1.324,0,0,1,1.323-1.323H395.9a6.613,6.613,0,1,0,0-13.226" transform="translate(-320.516 -40.065)"/>
          <path id="Trazado_735274" data-name="Trazado 735274" d="M291.968,66.516h9.258a1.324,1.324,0,0,1,1.323,1.323v1.323h2.645V67.839a3.973,3.973,0,0,0-3.968-3.968h-9.258a1.323,1.323,0,0,1,0-2.645H299.9V58.581h-2.645a3.968,3.968,0,0,1,0-7.935h3.968V48h-3.968a6.62,6.62,0,0,0-6.613,6.613A6.544,6.544,0,0,0,292,58.581h-.034a3.968,3.968,0,1,0,0,7.935" transform="translate(-240.387 -40.065)"/>
          <rect id="Rectángulo_344882" data-name="Rectángulo 344882" width="2" height="3" transform="translate(40 37)"/>
          <rect id="Rectángulo_344883" data-name="Rectángulo 344883" width="2" height="3" transform="translate(24 37)"/>
          <rect id="Rectángulo_344884" data-name="Rectángulo 344884" width="3" height="3" transform="translate(29 37)"/>
          <rect id="Rectángulo_344885" data-name="Rectángulo 344885" width="3" height="3" transform="translate(34 37)"/>
          <rect id="Rectángulo_344886" data-name="Rectángulo 344886" width="2" height="3" transform="translate(40 42)"/>
          <rect id="Rectángulo_344887" data-name="Rectángulo 344887" width="3" height="3" transform="translate(34 42)"/>
          <rect id="Rectángulo_344888" data-name="Rectángulo 344888" width="3" height="2" transform="translate(34 48)"/>
          <rect id="Rectángulo_344889" data-name="Rectángulo 344889" width="2" height="2" transform="translate(40 48)"/>
        </g>
      </g>
    </g>
    <g id="Grupo_1009985" data-name="Grupo 1009985" transform="translate(-14871 -12145)">
      <g id="Grupo_1009973" data-name="Grupo 1009973" transform="translate(367 514)">
        <rect id="Rectángulo_338875-3" data-name="Rectángulo 338875" width="96" height="104" rx="10" transform="translate(377 2637)" fill="#ff6e33"/>
      </g>
      <g id="Grupo_1009976" data-name="Grupo 1009976" transform="translate(755.003 3164.994)">
        <g id="Grupo_1009975" data-name="Grupo 1009975" transform="translate(-0.003 0.006)" clip-path="url(#clip-path-3)">
          <path id="Trazado_735183" data-name="Trazado 735183" d="M148.924,93.206v6.688h-5V93.206a7.361,7.361,0,0,0,5,0" transform="translate(-121.429 -78.647)" fill="#ee8700"/>
          <path id="Trazado_735184" data-name="Trazado 735184" d="M55.428,398.257a6.251,6.251,0,0,1-6.251,6.251h-35a6.251,6.251,0,1,1,0-12.5h35a6.232,6.232,0,0,1,6.251,6.213v.037" transform="translate(-6.682 -330.754)" fill="#ff9811"/>
          <rect id="Rectángulo_344849" data-name="Rectángulo 344849" width="35.004" height="10.001" transform="translate(27.494 3.745)" fill="#ee8700"/>
          <path id="Trazado_735185" data-name="Trazado 735185" d="M227.673,416.006a3.75,3.75,0,1,1-3.75,3.75,3.75,3.75,0,0,1,3.75-3.75" transform="translate(-188.928 -351.004)" fill="#ee8700"/>
          <path id="Trazado_735186" data-name="Trazado 735186" d="M147.673,416.006a3.75,3.75,0,1,1-3.75,3.75,3.75,3.75,0,0,1,3.75-3.75" transform="translate(-121.429 -351.004)" fill="#ee8700"/>
          <path id="Trazado_735187" data-name="Trazado 735187" d="M67.673,416.006a3.75,3.75,0,1,1-3.75,3.75,3.75,3.75,0,0,1,3.75-3.75" transform="translate(-53.931 -351.004)" fill="#ee8700"/>
          <path id="Trazado_735188" data-name="Trazado 735188" d="M219.673,408.006a3.75,3.75,0,1,1-3.75,3.75,3.75,3.75,0,0,1,3.75-3.75" transform="translate(-182.178 -344.254)" fill="#cc7400"/>
          <rect id="Rectángulo_344850" data-name="Rectángulo 344850" width="10.001" height="5.001" transform="translate(34.995 51.25)" fill="#e6e7e8"/>
          <path id="Trazado_735189" data-name="Trazado 735189" d="M239.424,248.006v5h-7.5v-5Z" transform="translate(-195.678 -209.257)" fill="#0ce6ea"/>
          <path id="Trazado_735190" data-name="Trazado 735190" d="M233.924,360.006v5h-10v-5Z" transform="translate(-188.928 -303.755)" fill="#5aaae7"/>
          <path id="Trazado_735191" data-name="Trazado 735191" d="M231.424,283.756l2.5,2.5v1.25h-10v-1.25l2.5-2.5v-3.75h5Z" transform="translate(-188.928 -236.257)" fill="#0ce6ea"/>
          <path id="Trazado_735192" data-name="Trazado 735192" d="M47.424,248.006v5h-7.5v-5Z" transform="translate(-33.681 -209.257)" fill="#0ce6ea"/>
          <rect id="Rectángulo_344851" data-name="Rectángulo 344851" width="10.001" height="5.001" transform="translate(19.993 51.25)" fill="#e6e7e8"/>
          <path id="Trazado_735193" data-name="Trazado 735193" d="M143.424,248.006v5h-7.5v-5Z" transform="translate(-114.679 -209.257)" fill="#0ce6ea"/>
          <path id="Trazado_735194" data-name="Trazado 735194" d="M139.673,408.006a3.75,3.75,0,1,1-3.75,3.75,3.75,3.75,0,0,1,3.75-3.75" transform="translate(-114.679 -344.254)" fill="#cc7400"/>
          <rect id="Rectángulo_344852" data-name="Rectángulo 344852" width="10.001" height="5.001" transform="translate(19.993 56.251)" fill="#5aaae7"/>
          <path id="Trazado_735195" data-name="Trazado 735195" d="M135.424,280.006v3.75l2.5,2.5v1.25h-10v-1.25l2.5-2.5v-3.75Z" transform="translate(-107.93 -236.257)" fill="#0ce6ea"/>
          <rect id="Rectángulo_344853" data-name="Rectángulo 344853" width="10.001" height="5.001" transform="translate(4.992 51.25)" fill="#e6e7e8"/>
          <path id="Trazado_735196" data-name="Trazado 735196" d="M59.673,408.006a3.75,3.75,0,1,1-3.75,3.75,3.75,3.75,0,0,1,3.75-3.75" transform="translate(-47.181 -344.254)" fill="#cc7400"/>
          <path id="Trazado_735197" data-name="Trazado 735197" d="M39.424,283.756l2.5,2.5v1.25h-10v-1.25l2.5-2.5v-3.75h5Z" transform="translate(-26.931 -236.257)" fill="#0ce6ea"/>
          <path id="Trazado_735198" data-name="Trazado 735198" d="M41.924,360.006v5h-10v-5Z" transform="translate(-26.931 -303.755)" fill="#5aaae7"/>
          <path id="Trazado_735199" data-name="Trazado 735199" d="M393.924,75.686v39.43h-10V75.686a7.457,7.457,0,0,0,10,0" transform="translate(-323.925 -63.865)" fill="#ee8700"/>
          <path id="Trazado_735200" data-name="Trazado 735200" d="M393.924,75.686v5a7.457,7.457,0,0,1-10,0v-5a7.457,7.457,0,0,0,10,0" transform="translate(-323.925 -63.865)" fill="#cc7400"/>
          <path id="Trazado_735201" data-name="Trazado 735201" d="M383.006,15.507a7.488,7.488,0,0,1-12.5,5.576,4.167,4.167,0,0,1-.575-.575,7.5,7.5,0,1,1,13.077-5" transform="translate(-310.507 -6.761)" fill="#ff9811"/>
          <path id="Trazado_735202" data-name="Trazado 735202" d="M402.423,48.006a2.5,2.5,0,1,1-2.5,2.5,2.5,2.5,0,0,1,2.5-2.5" transform="translate(-337.425 -40.511)" fill="#ee8700"/>
          <path id="Trazado_735203" data-name="Trazado 735203" d="M402.423,40.006a2.5,2.5,0,1,1-2.5,2.5,2.5,2.5,0,0,1,2.5-2.5" transform="translate(-337.425 -33.761)" fill="#cc7400"/>
          <rect id="Rectángulo_344854" data-name="Rectángulo 344854" width="17.502" height="15.002" transform="translate(56.248 58.751)" fill="#ee8700"/>
          <path id="Trazado_735204" data-name="Trazado 735204" d="M374.925,328.006l2.5,7.5h-17.5l2.5-7.5h12.5Z" transform="translate(-303.676 -276.756)" fill="#ff9811"/>
          <path id="Trazado_735205" data-name="Trazado 735205" d="M148.924,93.206v3.75a7.361,7.361,0,0,1-5,0v-3.75a7.361,7.361,0,0,0,5,0" transform="translate(-121.429 -78.647)" fill="#cc7400"/>
          <path id="Trazado_735206" data-name="Trazado 735206" d="M127.062,15.629a7.527,7.527,0,0,1-5,7.063,7.361,7.361,0,0,1-5,0,7.487,7.487,0,1,1,10-7.063" transform="translate(-94.568 -6.884)" fill="#ff9811"/>
          <path id="Trazado_735207" data-name="Trazado 735207" d="M137.924,136.006v5h-10v-5h10Z" transform="translate(-107.93 -114.759)" fill="#ee8700"/>
          <rect id="Rectángulo_344855" data-name="Rectángulo 344855" width="5.001" height="2.5" transform="translate(7.492 43.749)" fill="#3d9ae2"/>
          <rect id="Rectángulo_344856" data-name="Rectángulo 344856" width="5.001" height="2.5" transform="translate(22.494 43.749)" fill="#3d9ae2"/>
          <rect id="Rectángulo_344857" data-name="Rectángulo 344857" width="5.001" height="2.5" transform="translate(37.495 43.749)" fill="#3d9ae2"/>
          <path id="Trazado_735208" data-name="Trazado 735208" d="M146.423,48.006a2.5,2.5,0,1,1-2.5,2.5,2.5,2.5,0,0,1,2.5-2.5" transform="translate(-121.429 -40.511)" fill="#ee8700"/>
          <path id="Trazado_735209" data-name="Trazado 735209" d="M146.423,40.006a2.5,2.5,0,1,1-2.5,2.5,2.5,2.5,0,0,1,2.5-2.5" transform="translate(-121.429 -33.761)" fill="#cc7400"/>
          <path id="Trazado_735210" data-name="Trazado 735210" d="M57.924,405.007a5,5,0,1,0-5,5,5,5,0,0,0,5-5m-5,2.5a2.5,2.5,0,1,1,2.5-2.5,2.5,2.5,0,0,1-2.5,2.5" transform="translate(-40.431 -337.504)"/>
          <path id="Trazado_735211" data-name="Trazado 735211" d="M137.924,405.007a5,5,0,1,0-5,5,5,5,0,0,0,5-5m-5,2.5a2.5,2.5,0,1,1,2.5-2.5,2.5,2.5,0,0,1-2.5,2.5" transform="translate(-107.93 -337.504)"/>
          <path id="Trazado_735212" data-name="Trazado 735212" d="M217.924,405.007a5,5,0,1,0-5,5,5,5,0,0,0,5-5m-5,2.5a2.5,2.5,0,1,1,2.5-2.5,2.5,2.5,0,0,1-2.5,2.5" transform="translate(-175.428 -337.504)"/>
          <path id="Trazado_735213" data-name="Trazado 735213" d="M46.243,263.521V252.507a1.291,1.291,0,0,0-.363-.888l-2.138-2.125v-1.988a1.25,1.25,0,0,0,1.25-1.25v-5a1.25,1.25,0,0,0-1.25-1.25h-7.5a1.25,1.25,0,0,0-1.25,1.25v5a1.25,1.25,0,0,0,1.25,1.25v1.988L34.1,251.62a1.291,1.291,0,0,0-.363.888v10h-2.5v-10a1.291,1.291,0,0,0-.363-.888l-2.138-2.125v-1.988a1.25,1.25,0,0,0,1.25-1.25v-5a1.25,1.25,0,0,0-1.25-1.25h-7.5a1.25,1.25,0,0,0-1.25,1.25v5a1.25,1.25,0,0,0,1.25,1.25v1.988L19.1,251.62a1.291,1.291,0,0,0-.363.888v10h-2.5v-10a1.291,1.291,0,0,0-.363-.888l-2.138-2.125v-1.988a1.25,1.25,0,0,0,1.25-1.25v-5a1.25,1.25,0,0,0-1.25-1.25h-7.5a1.25,1.25,0,0,0-1.25,1.25v5a1.25,1.25,0,0,0,1.25,1.25v1.988L4.1,251.62a1.291,1.291,0,0,0-.363.888v11.014a7.5,7.5,0,0,0,3.75,13.989h35a7.5,7.5,0,0,0,3.75-13.989m-8.751-21.015h5v2.5h-5Zm.888,8.388a1.291,1.291,0,0,0,.363-.888v-2.5h2.5v2.5a1.291,1.291,0,0,0,.363.888l1.625,1.613H36.755Zm-2.138,4.113h7.5v2.5h-7.5Zm0,5h7.5v2.5h-7.5Zm-13.752-17.5h5v2.5h-5Zm.888,8.388a1.291,1.291,0,0,0,.363-.888v-2.5h2.5v2.5a1.291,1.291,0,0,0,.363.888l1.625,1.613H21.753Zm-2.138,4.113h7.5v2.5h-7.5Zm0,5h7.5v2.5h-7.5Zm-13.752-17.5h5v2.5h-5Zm.888,8.388a1.291,1.291,0,0,0,.363-.888v-2.5h2.5v2.5a1.291,1.291,0,0,0,.363.888l1.625,1.613H6.751Zm-2.138,4.113h7.5v2.5h-7.5Zm0,5h7.5v2.5h-7.5Zm36.254,15h-35a5,5,0,0,1,0-10h35a5,5,0,0,1,0,10" transform="translate(0.003 -202.507)"/>
          <path id="Trazado_735214" data-name="Trazado 735214" d="M395.673,39.507a3.75,3.75,0,1,0-3.75-3.75,3.75,3.75,0,0,0,3.75,3.75m0-5a1.25,1.25,0,1,1-1.25,1.25,1.25,1.25,0,0,1,1.25-1.25" transform="translate(-330.675 -27.011)"/>
          <path id="Trazado_735215" data-name="Trazado 735215" d="M139.673,32.006a3.75,3.75,0,1,0,3.75,3.75,3.75,3.75,0,0,0-3.75-3.75m0,5a1.25,1.25,0,1,1,1.25-1.25,1.25,1.25,0,0,1-1.25,1.25" transform="translate(-114.679 -27.011)"/>
          <path id="Trazado_735216" data-name="Trazado 735216" d="M162.627,58.357l-2.5-7.5a1.268,1.268,0,0,0-1.188-.85V14.865A8.744,8.744,0,0,0,146.575,2.5H118.8a8.741,8.741,0,1,0-9.864,14.139V20h-1.25a1.25,1.25,0,0,0-1.25,1.25V30a1.208,1.208,0,0,0,.213.688l2.5,3.75,2.075-1.375-2.288-3.438V27.5h7.5v2.125l-2.288,3.438,2.075,1.375,2.5-3.75a1.208,1.208,0,0,0,.213-.688V21.253a1.25,1.25,0,0,0-1.25-1.25h-1.25V16.64A8.6,8.6,0,0,0,118.8,15h27.641v35a1.268,1.268,0,0,0-1.188.85l-2.5,7.5a1.484,1.484,0,0,0-.063.4v15a1.25,1.25,0,0,0,1.25,1.25h17.5a1.25,1.25,0,0,0,1.25-1.25v-15a1.483,1.483,0,0,0-.063-.4M116.434,25h-7.5V22.5h7.5Zm-5-5V17.4a7.866,7.866,0,0,0,2.5,0V20Zm1.25-5a6.251,6.251,0,1,1,6.251-6.251A6.251,6.251,0,0,1,112.684,15M144.8,12.5H120.572a8.584,8.584,0,0,0,0-7.5H144.8a8.585,8.585,0,0,0,0,7.5m7.888-10a6.251,6.251,0,1,1-6.251,6.251A6.251,6.251,0,0,1,152.689,2.5m3.75,14.139V50.006h-7.5V16.64a8.584,8.584,0,0,0,7.5,0m-9.1,35.867h10.7l1.663,5H145.675Zm12.851,20h-15v-12.5h15Z" transform="translate(-87.69 -0.006)"/>
        </g>
      </g>
    </g>
  </g>
</svg>
