<svg xmlns="http://www.w3.org/2000/svg" xmlns:xlink="http://www.w3.org/1999/xlink" width="370.795" height="353.868" viewBox="0 0 370.795 353.868">
  <defs>
    <clipPath id="clip-path">
      <path id="Trazado_113926" data-name="Trazado 113926" d="M93.9,0A93.9,93.9,0,1,1,0,93.9,93.9,93.9,0,0,1,93.9,0Z" transform="translate(0 -0.001)" fill="#1448d3"/>
    </clipPath>
    <clipPath id="clip-path-2">
      <rect id="Rectángulo_344832" data-name="Rectángulo 344832" width="237.374" height="294.358" fill="none"/>
    </clipPath>
    <clipPath id="clip-path-4">
      <rect id="Rectángulo_344830" data-name="Rectángulo 344830" width="159.487" height="170.789" fill="none"/>
    </clipPath>
  </defs>
  <g id="Grupo_1010005" data-name="Grupo 1010005" transform="translate(-895 -4650.131)">
    <g id="Grupo_985925" data-name="Grupo 985925" transform="translate(814.968 4595.066)">
      <path id="Rectángulo_33771" data-name="Rectángulo 33771" d="M136.717,0h0A136.717,136.717,0,0,1,273.433,136.717V344.665a0,0,0,0,1,0,0H0a0,0,0,0,1,0,0V136.717A136.717,136.717,0,0,1,136.717,0Z" transform="translate(80.032 55.065)" fill="#fee7dd"/>
      <g id="Grupo_80252" data-name="Grupo 80252" transform="translate(263.032 55.065)">
        <g id="Grupo_80252-2" data-name="Grupo 80252" transform="translate(0)" clip-path="url(#clip-path)">
          <path id="Trazado_113845" data-name="Trazado 113845" d="M0,2.471A2.472,2.472,0,1,1,2.471,4.941,2.47,2.47,0,0,1,0,2.471" transform="translate(182.852 -0.002)" fill="#1448d3"/>
          <path id="Trazado_113846" data-name="Trazado 113846" d="M10.076,2.471a2.471,2.471,0,1,1,2.471,2.471,2.47,2.47,0,0,1-2.471-2.471" transform="translate(149.919 -0.002)" fill="#1448d3"/>
          <path id="Trazado_113847" data-name="Trazado 113847" d="M20.151,2.471a2.471,2.471,0,1,1,2.471,2.471,2.47,2.47,0,0,1-2.471-2.471" transform="translate(116.988 -0.002)" fill="#1448d3"/>
          <path id="Trazado_113848" data-name="Trazado 113848" d="M30.225,2.471A2.472,2.472,0,1,1,32.7,4.941a2.47,2.47,0,0,1-2.471-2.471" transform="translate(84.057 -0.002)" fill="#1448d3"/>
          <path id="Trazado_113849" data-name="Trazado 113849" d="M40.3,2.471a2.471,2.471,0,1,1,2.471,2.471A2.47,2.47,0,0,1,40.3,2.471" transform="translate(51.125 -0.002)" fill="#1448d3"/>
          <path id="Trazado_113850" data-name="Trazado 113850" d="M50.376,2.471a2.471,2.471,0,1,1,2.471,2.471,2.47,2.47,0,0,1-2.471-2.471" transform="translate(18.193 -0.002)" fill="#1448d3"/>
          <path id="Trazado_113851" data-name="Trazado 113851" d="M60.45,2.471a2.472,2.472,0,1,1,2.471,2.471A2.47,2.47,0,0,1,60.45,2.471" transform="translate(-14.737 -0.002)" fill="#1448d3"/>
          <path id="Trazado_113852" data-name="Trazado 113852" d="M70.526,2.471A2.471,2.471,0,1,1,73,4.941a2.47,2.47,0,0,1-2.471-2.471" transform="translate(-47.67 -0.002)" fill="#1448d3"/>
          <path id="Trazado_113853" data-name="Trazado 113853" d="M80.6,2.471a2.472,2.472,0,1,1,2.471,2.471A2.47,2.47,0,0,1,80.6,2.471" transform="translate(-80.6 -0.002)" fill="#1448d3"/>
          <path id="Trazado_113854" data-name="Trazado 113854" d="M0,12.546a2.472,2.472,0,1,1,2.471,2.471A2.47,2.47,0,0,1,0,12.546" transform="translate(182.852 12.779)" fill="#1448d3"/>
          <path id="Trazado_113855" data-name="Trazado 113855" d="M10.076,12.546a2.471,2.471,0,1,1,2.471,2.471,2.47,2.47,0,0,1-2.471-2.471" transform="translate(149.919 12.779)" fill="#1448d3"/>
          <path id="Trazado_113856" data-name="Trazado 113856" d="M20.151,12.546a2.471,2.471,0,1,1,2.471,2.471,2.47,2.47,0,0,1-2.471-2.471" transform="translate(116.988 12.779)" fill="#1448d3"/>
          <path id="Trazado_113857" data-name="Trazado 113857" d="M30.225,12.546A2.472,2.472,0,1,1,32.7,15.016a2.47,2.47,0,0,1-2.471-2.471" transform="translate(84.057 12.779)" fill="#1448d3"/>
          <path id="Trazado_113858" data-name="Trazado 113858" d="M40.3,12.546a2.471,2.471,0,1,1,2.471,2.471A2.47,2.47,0,0,1,40.3,12.546" transform="translate(51.125 12.779)" fill="#1448d3"/>
          <path id="Trazado_113859" data-name="Trazado 113859" d="M50.376,12.546a2.471,2.471,0,1,1,2.471,2.471,2.47,2.47,0,0,1-2.471-2.471" transform="translate(18.193 12.779)" fill="#1448d3"/>
          <path id="Trazado_113860" data-name="Trazado 113860" d="M60.45,12.546a2.472,2.472,0,1,1,2.471,2.471,2.47,2.47,0,0,1-2.471-2.471" transform="translate(-14.737 12.779)" fill="#1448d3"/>
          <path id="Trazado_113861" data-name="Trazado 113861" d="M70.526,12.546A2.471,2.471,0,1,1,73,15.016a2.47,2.47,0,0,1-2.471-2.471" transform="translate(-47.67 12.779)" fill="#1448d3"/>
          <path id="Trazado_113862" data-name="Trazado 113862" d="M80.6,12.546a2.472,2.472,0,1,1,2.471,2.471A2.47,2.47,0,0,1,80.6,12.546" transform="translate(-80.6 12.779)" fill="#1448d3"/>
          <path id="Trazado_113863" data-name="Trazado 113863" d="M0,22.621a2.472,2.472,0,1,1,2.471,2.471A2.47,2.47,0,0,1,0,22.621" transform="translate(182.852 25.561)" fill="#1448d3"/>
          <path id="Trazado_113864" data-name="Trazado 113864" d="M10.076,22.621a2.471,2.471,0,1,1,2.471,2.471,2.47,2.47,0,0,1-2.471-2.471" transform="translate(149.919 25.561)" fill="#1448d3"/>
          <path id="Trazado_113865" data-name="Trazado 113865" d="M20.151,22.621a2.471,2.471,0,1,1,2.471,2.471,2.47,2.47,0,0,1-2.471-2.471" transform="translate(116.988 25.561)" fill="#1448d3"/>
          <path id="Trazado_113866" data-name="Trazado 113866" d="M30.225,22.621A2.472,2.472,0,1,1,32.7,25.091a2.47,2.47,0,0,1-2.471-2.471" transform="translate(84.057 25.561)" fill="#1448d3"/>
          <path id="Trazado_113867" data-name="Trazado 113867" d="M40.3,22.621a2.471,2.471,0,1,1,2.471,2.471A2.47,2.47,0,0,1,40.3,22.621" transform="translate(51.125 25.561)" fill="#1448d3"/>
          <path id="Trazado_113868" data-name="Trazado 113868" d="M50.376,22.621a2.471,2.471,0,1,1,2.471,2.471,2.47,2.47,0,0,1-2.471-2.471" transform="translate(18.193 25.561)" fill="#1448d3"/>
          <path id="Trazado_113869" data-name="Trazado 113869" d="M60.45,22.621a2.472,2.472,0,1,1,2.471,2.471,2.47,2.47,0,0,1-2.471-2.471" transform="translate(-14.737 25.561)" fill="#1448d3"/>
          <path id="Trazado_113870" data-name="Trazado 113870" d="M70.526,22.621A2.471,2.471,0,1,1,73,25.091a2.47,2.47,0,0,1-2.471-2.471" transform="translate(-47.67 25.561)" fill="#1448d3"/>
          <path id="Trazado_113871" data-name="Trazado 113871" d="M80.6,22.621a2.472,2.472,0,1,1,2.471,2.471A2.47,2.47,0,0,1,80.6,22.621" transform="translate(-80.6 25.561)" fill="#1448d3"/>
          <path id="Trazado_113872" data-name="Trazado 113872" d="M0,32.7a2.472,2.472,0,1,1,2.471,2.471A2.47,2.47,0,0,1,0,32.7" transform="translate(182.852 38.342)" fill="#1448d3"/>
          <path id="Trazado_113873" data-name="Trazado 113873" d="M10.076,32.7a2.471,2.471,0,1,1,2.471,2.471A2.47,2.47,0,0,1,10.076,32.7" transform="translate(149.919 38.342)" fill="#1448d3"/>
          <path id="Trazado_113874" data-name="Trazado 113874" d="M20.151,32.7a2.471,2.471,0,1,1,2.471,2.471A2.47,2.47,0,0,1,20.151,32.7" transform="translate(116.988 38.342)" fill="#1448d3"/>
          <path id="Trazado_113875" data-name="Trazado 113875" d="M30.225,32.7A2.472,2.472,0,1,1,32.7,35.166,2.47,2.47,0,0,1,30.225,32.7" transform="translate(84.057 38.342)" fill="#1448d3"/>
          <path id="Trazado_113876" data-name="Trazado 113876" d="M40.3,32.7a2.471,2.471,0,1,1,2.471,2.471A2.47,2.47,0,0,1,40.3,32.7" transform="translate(51.125 38.342)" fill="#1448d3"/>
          <path id="Trazado_113877" data-name="Trazado 113877" d="M50.376,32.7a2.471,2.471,0,1,1,2.471,2.471A2.47,2.47,0,0,1,50.376,32.7" transform="translate(18.193 38.342)" fill="#1448d3"/>
          <path id="Trazado_113878" data-name="Trazado 113878" d="M60.45,32.7a2.472,2.472,0,1,1,2.471,2.471A2.47,2.47,0,0,1,60.45,32.7" transform="translate(-14.737 38.342)" fill="#1448d3"/>
          <path id="Trazado_113879" data-name="Trazado 113879" d="M70.526,32.7A2.471,2.471,0,1,1,73,35.166,2.47,2.47,0,0,1,70.526,32.7" transform="translate(-47.67 38.342)" fill="#1448d3"/>
          <path id="Trazado_113880" data-name="Trazado 113880" d="M80.6,32.7a2.472,2.472,0,1,1,2.471,2.471A2.47,2.47,0,0,1,80.6,32.7" transform="translate(-80.6 38.342)" fill="#1448d3"/>
          <path id="Trazado_113881" data-name="Trazado 113881" d="M0,42.771a2.472,2.472,0,1,1,2.471,2.471A2.47,2.47,0,0,1,0,42.771" transform="translate(182.852 51.124)" fill="#1448d3"/>
          <path id="Trazado_113882" data-name="Trazado 113882" d="M10.076,42.771a2.471,2.471,0,1,1,2.471,2.471,2.47,2.47,0,0,1-2.471-2.471" transform="translate(149.919 51.124)" fill="#1448d3"/>
          <path id="Trazado_113883" data-name="Trazado 113883" d="M20.151,42.771a2.471,2.471,0,1,1,2.471,2.471,2.47,2.47,0,0,1-2.471-2.471" transform="translate(116.988 51.124)" fill="#1448d3"/>
          <path id="Trazado_113884" data-name="Trazado 113884" d="M30.225,42.771A2.472,2.472,0,1,1,32.7,45.241a2.47,2.47,0,0,1-2.471-2.471" transform="translate(84.057 51.124)" fill="#1448d3"/>
          <path id="Trazado_113885" data-name="Trazado 113885" d="M40.3,42.771a2.471,2.471,0,1,1,2.471,2.471A2.47,2.47,0,0,1,40.3,42.771" transform="translate(51.125 51.124)" fill="#1448d3"/>
          <path id="Trazado_113886" data-name="Trazado 113886" d="M50.376,42.771a2.471,2.471,0,1,1,2.471,2.471,2.47,2.47,0,0,1-2.471-2.471" transform="translate(18.193 51.124)" fill="#1448d3"/>
          <path id="Trazado_113887" data-name="Trazado 113887" d="M60.45,42.771a2.472,2.472,0,1,1,2.471,2.471,2.47,2.47,0,0,1-2.471-2.471" transform="translate(-14.737 51.124)" fill="#1448d3"/>
          <path id="Trazado_113888" data-name="Trazado 113888" d="M70.526,42.771A2.471,2.471,0,1,1,73,45.241a2.47,2.47,0,0,1-2.471-2.471" transform="translate(-47.67 51.124)" fill="#1448d3"/>
          <path id="Trazado_113889" data-name="Trazado 113889" d="M80.6,42.771a2.472,2.472,0,1,1,2.471,2.471A2.47,2.47,0,0,1,80.6,42.771" transform="translate(-80.6 51.124)" fill="#1448d3"/>
          <path id="Trazado_113890" data-name="Trazado 113890" d="M0,52.846a2.472,2.472,0,1,1,2.471,2.471A2.47,2.47,0,0,1,0,52.846" transform="translate(182.852 63.905)" fill="#1448d3"/>
          <path id="Trazado_113891" data-name="Trazado 113891" d="M10.076,52.846a2.471,2.471,0,1,1,2.471,2.471,2.47,2.47,0,0,1-2.471-2.471" transform="translate(149.919 63.905)" fill="#1448d3"/>
          <path id="Trazado_113892" data-name="Trazado 113892" d="M20.151,52.846a2.471,2.471,0,1,1,2.471,2.471,2.47,2.47,0,0,1-2.471-2.471" transform="translate(116.988 63.905)" fill="#1448d3"/>
          <path id="Trazado_113893" data-name="Trazado 113893" d="M30.225,52.846A2.472,2.472,0,1,1,32.7,55.316a2.47,2.47,0,0,1-2.471-2.471" transform="translate(84.057 63.905)" fill="#1448d3"/>
          <path id="Trazado_113894" data-name="Trazado 113894" d="M40.3,52.846a2.471,2.471,0,1,1,2.471,2.471A2.47,2.47,0,0,1,40.3,52.846" transform="translate(51.125 63.905)" fill="#1448d3"/>
          <path id="Trazado_113895" data-name="Trazado 113895" d="M50.376,52.846a2.471,2.471,0,1,1,2.471,2.471,2.47,2.47,0,0,1-2.471-2.471" transform="translate(18.193 63.905)" fill="#1448d3"/>
          <path id="Trazado_113896" data-name="Trazado 113896" d="M60.45,52.846a2.472,2.472,0,1,1,2.471,2.471,2.47,2.47,0,0,1-2.471-2.471" transform="translate(-14.737 63.905)" fill="#1448d3"/>
          <path id="Trazado_113897" data-name="Trazado 113897" d="M70.526,52.846A2.471,2.471,0,1,1,73,55.316a2.47,2.47,0,0,1-2.471-2.471" transform="translate(-47.67 63.905)" fill="#1448d3"/>
          <path id="Trazado_113898" data-name="Trazado 113898" d="M80.6,52.846a2.472,2.472,0,1,1,2.471,2.471A2.47,2.47,0,0,1,80.6,52.846" transform="translate(-80.6 63.905)" fill="#1448d3"/>
          <path id="Trazado_113899" data-name="Trazado 113899" d="M0,62.921a2.472,2.472,0,1,1,2.471,2.471A2.47,2.47,0,0,1,0,62.921" transform="translate(182.852 76.687)" fill="#1448d3"/>
          <path id="Trazado_113900" data-name="Trazado 113900" d="M10.076,62.921a2.471,2.471,0,1,1,2.471,2.471,2.47,2.47,0,0,1-2.471-2.471" transform="translate(149.919 76.687)" fill="#1448d3"/>
          <path id="Trazado_113901" data-name="Trazado 113901" d="M20.151,62.921a2.471,2.471,0,1,1,2.471,2.471,2.47,2.47,0,0,1-2.471-2.471" transform="translate(116.988 76.687)" fill="#1448d3"/>
          <path id="Trazado_113902" data-name="Trazado 113902" d="M30.225,62.921A2.472,2.472,0,1,1,32.7,65.391a2.47,2.47,0,0,1-2.471-2.471" transform="translate(84.057 76.687)" fill="#1448d3"/>
          <path id="Trazado_113903" data-name="Trazado 113903" d="M40.3,62.921a2.471,2.471,0,1,1,2.471,2.471A2.47,2.47,0,0,1,40.3,62.921" transform="translate(51.125 76.687)" fill="#1448d3"/>
          <path id="Trazado_113904" data-name="Trazado 113904" d="M50.376,62.921a2.471,2.471,0,1,1,2.471,2.471,2.47,2.47,0,0,1-2.471-2.471" transform="translate(18.193 76.687)" fill="#1448d3"/>
          <path id="Trazado_113905" data-name="Trazado 113905" d="M60.45,62.921a2.472,2.472,0,1,1,2.471,2.471,2.47,2.47,0,0,1-2.471-2.471" transform="translate(-14.737 76.687)" fill="#1448d3"/>
          <path id="Trazado_113906" data-name="Trazado 113906" d="M70.526,62.921A2.471,2.471,0,1,1,73,65.391a2.47,2.47,0,0,1-2.471-2.471" transform="translate(-47.67 76.687)" fill="#1448d3"/>
          <path id="Trazado_113907" data-name="Trazado 113907" d="M80.6,62.921a2.472,2.472,0,1,1,2.471,2.471A2.47,2.47,0,0,1,80.6,62.921" transform="translate(-80.6 76.687)" fill="#1448d3"/>
          <path id="Trazado_113908" data-name="Trazado 113908" d="M0,73a2.472,2.472,0,1,1,2.471,2.471A2.47,2.47,0,0,1,0,73" transform="translate(182.852 89.469)" fill="#1448d3"/>
          <path id="Trazado_113909" data-name="Trazado 113909" d="M10.076,73a2.471,2.471,0,1,1,2.471,2.471A2.47,2.47,0,0,1,10.076,73" transform="translate(149.919 89.469)" fill="#1448d3"/>
          <path id="Trazado_113910" data-name="Trazado 113910" d="M20.151,73a2.471,2.471,0,1,1,2.471,2.471A2.47,2.47,0,0,1,20.151,73" transform="translate(116.988 89.469)" fill="#1448d3"/>
          <path id="Trazado_113911" data-name="Trazado 113911" d="M30.225,73A2.472,2.472,0,1,1,32.7,75.467,2.47,2.47,0,0,1,30.225,73" transform="translate(84.057 89.469)" fill="#1448d3"/>
          <path id="Trazado_113912" data-name="Trazado 113912" d="M40.3,73a2.471,2.471,0,1,1,2.471,2.471A2.47,2.47,0,0,1,40.3,73" transform="translate(51.125 89.469)" fill="#1448d3"/>
          <path id="Trazado_113913" data-name="Trazado 113913" d="M50.376,73a2.471,2.471,0,1,1,2.471,2.471A2.47,2.47,0,0,1,50.376,73" transform="translate(18.193 89.469)" fill="#1448d3"/>
          <path id="Trazado_113914" data-name="Trazado 113914" d="M60.45,73a2.472,2.472,0,1,1,2.471,2.471A2.47,2.47,0,0,1,60.45,73" transform="translate(-14.737 89.469)" fill="#1448d3"/>
          <path id="Trazado_113915" data-name="Trazado 113915" d="M70.526,73A2.471,2.471,0,1,1,73,75.467,2.47,2.47,0,0,1,70.526,73" transform="translate(-47.67 89.469)" fill="#1448d3"/>
          <path id="Trazado_113916" data-name="Trazado 113916" d="M80.6,73a2.472,2.472,0,1,1,2.471,2.471A2.47,2.47,0,0,1,80.6,73" transform="translate(-80.6 89.469)" fill="#1448d3"/>
          <path id="Trazado_113917" data-name="Trazado 113917" d="M0,83.072a2.472,2.472,0,1,1,2.471,2.471A2.47,2.47,0,0,1,0,83.072" transform="translate(182.852 102.251)" fill="#1448d3"/>
          <path id="Trazado_113918" data-name="Trazado 113918" d="M10.076,83.072a2.471,2.471,0,1,1,2.471,2.471,2.47,2.47,0,0,1-2.471-2.471" transform="translate(149.919 102.251)" fill="#1448d3"/>
          <path id="Trazado_113919" data-name="Trazado 113919" d="M20.151,83.072a2.471,2.471,0,1,1,2.471,2.471,2.47,2.47,0,0,1-2.471-2.471" transform="translate(116.988 102.251)" fill="#1448d3"/>
          <path id="Trazado_113920" data-name="Trazado 113920" d="M30.225,83.072A2.472,2.472,0,1,1,32.7,85.542a2.47,2.47,0,0,1-2.471-2.471" transform="translate(84.057 102.251)" fill="#1448d3"/>
          <path id="Trazado_113921" data-name="Trazado 113921" d="M40.3,83.072a2.471,2.471,0,1,1,2.471,2.471A2.47,2.47,0,0,1,40.3,83.072" transform="translate(51.125 102.251)" fill="#1448d3"/>
          <path id="Trazado_113922" data-name="Trazado 113922" d="M50.376,83.072a2.471,2.471,0,1,1,2.471,2.471,2.47,2.47,0,0,1-2.471-2.471" transform="translate(18.193 102.251)" fill="#1448d3"/>
          <path id="Trazado_113923" data-name="Trazado 113923" d="M60.45,83.072a2.472,2.472,0,1,1,2.471,2.471,2.47,2.47,0,0,1-2.471-2.471" transform="translate(-14.737 102.251)" fill="#1448d3"/>
          <path id="Trazado_113924" data-name="Trazado 113924" d="M70.526,83.072A2.471,2.471,0,1,1,73,85.542a2.47,2.47,0,0,1-2.471-2.471" transform="translate(-47.67 102.251)" fill="#1448d3"/>
          <path id="Trazado_113925" data-name="Trazado 113925" d="M80.6,83.072a2.472,2.472,0,1,1,2.471,2.471A2.47,2.47,0,0,1,80.6,83.072" transform="translate(-80.6 102.251)" fill="#1448d3"/>
        </g>
      </g>
    </g>
    <g id="Grupo_1009958" data-name="Grupo 1009958" transform="translate(310.626 -110.358)">
      <g id="Grupo_1009950" data-name="Grupo 1009950" transform="translate(601 4820)">
        <g id="Grupo_1009949" data-name="Grupo 1009949" clip-path="url(#clip-path-2)">
          <g id="Grupo_1009948" data-name="Grupo 1009948">
            <g id="Grupo_1009947" data-name="Grupo 1009947" clip-path="url(#clip-path-2)">
              <path id="Trazado_735069" data-name="Trazado 735069" d="M141.457,8A85.459,85.459,0,1,1,56,93.459,85.459,85.459,0,0,1,141.457,8" transform="translate(-22.765 -3.252)" fill="#0ce6ea"/>
              <path id="Trazado_735070" data-name="Trazado 735070" d="M131.961,155.085A16.617,16.617,0,0,1,115.344,171.7H73.849A85.312,85.312,0,0,1,70.431,72H84.484a9.523,9.523,0,0,1,9.5,9.5,9.523,9.523,0,0,0,9.5,9.5h4.748a9.5,9.5,0,0,1,0,18.991h-9.5a14.243,14.243,0,0,0,0,28.486h16.617a16.617,16.617,0,0,1,16.617,16.617" transform="translate(-22.765 -29.271)" fill="#88d392"/>
              <path id="Trazado_735071" data-name="Trazado 735071" d="M288.7,109.718a85.106,85.106,0,0,1-3.371,23.739H272.078a7.122,7.122,0,0,1-7.122-7.122,7.122,7.122,0,0,0-7.122-7.122H222.227a14.243,14.243,0,0,1-14.263-14.223q0-.39.02-.78a14.851,14.851,0,0,1,15.05-13.483h20.558a11.872,11.872,0,0,0,11.822-13.1,12.344,12.344,0,0,0-12.486-10.635H226.975a9.5,9.5,0,0,1-9.353-11.11A9.837,9.837,0,0,1,227.5,48h34.278c1.044.95,2.042,1.947,3.039,2.944A85.341,85.341,0,0,1,288.7,109.718" transform="translate(-84.545 -19.512)" fill="#88d392"/>
              <path id="Trazado_735072" data-name="Trazado 735072" d="M286.977,224A84.605,84.605,0,0,1,266.7,247.739H243.867a11.869,11.869,0,0,1,0-23.739Z" transform="translate(-94.316 -91.064)" fill="#88d392"/>
              <g id="Grupo_1009946" data-name="Grupo 1009946" transform="translate(44.67 4.895)" opacity="0.1" style="isolation: isolate">
                <g id="Grupo_1009945" data-name="Grupo 1009945">
                  <g id="Grupo_1009944" data-name="Grupo 1009944" clip-path="url(#clip-path-4)">
                    <path id="Trazado_735073" data-name="Trazado 735073" d="M152.183,8.248A75.911,75.911,0,1,1,75.27,136.156,85.411,85.411,0,1,0,152.183,8.248" transform="translate(-75.27 -8.248)" fill="#231f20"/>
                  </g>
                </g>
              </g>
              <path id="Trazado_735074" data-name="Trazado 735074" d="M231.9,335.085,180.292,386.5l-1.377,1.377h-99.7L50.727,416.366l-6.694-6.694L8,373.637l52.225-52.225h75.963a14.243,14.243,0,0,1,0,28.486h42.539L212.719,315.9a13.564,13.564,0,1,1,19.453,18.908q-.134.138-.272.272" transform="translate(-3.251 -126.756)" fill="#f9c0af"/>
              <path id="Trazado_735075" data-name="Trazado 735075" d="M191.475,362.991H148.746a4.748,4.748,0,0,1,0-9.5h42.729a4.748,4.748,0,0,0,4.748-4.748,4.748,4.748,0,0,1,9.5,0,14.243,14.243,0,0,1-14.243,14.243" transform="translate(-58.54 -139.849)" fill="#eaa696"/>
              <path id="Trazado_735076" data-name="Trazado 735076" d="M256.585,337.119l-51.608,51.418a4.67,4.67,0,0,1-3.323,1.377H103.9L75.412,418.4l-6.694-6.694,29.863-29.911a4.9,4.9,0,0,1,3.371-1.377H199.66l50.231-49.993a4.154,4.154,0,0,0,0-5.792,4.748,4.748,0,0,1,6.694-6.694,13.526,13.526,0,0,1,.052,19.129l-.052.052" transform="translate(-27.936 -128.789)" fill="#eaa696"/>
              <path id="Trazado_735077" data-name="Trazado 735077" d="M4.747,381.72a4.748,4.748,0,0,1-3.357-8.1l52.225-52.225A4.747,4.747,0,0,1,56.971,320h75.963a18.991,18.991,0,0,1,0,37.982H85.458a4.748,4.748,0,0,1,0-9.5h47.477a9.5,9.5,0,0,0,0-18.991h-74L8.1,380.329a4.747,4.747,0,0,1-3.357,1.391" transform="translate(0 -130.092)" fill="#636363"/>
              <path id="Trazado_735078" data-name="Trazado 735078" d="M76.747,418.063a4.748,4.748,0,0,1-3.357-8.1l28.486-28.486a4.747,4.747,0,0,1,3.357-1.391h97.741l51.631-51.474a8.816,8.816,0,0,0,0-12.425,8.916,8.916,0,0,0-12.344,0L208.315,350.2a4.749,4.749,0,0,1-3.38,1.391H114.728a4.748,4.748,0,0,1,0-9.5h88.236l32.555-32.626a18.644,18.644,0,0,1,25.8,0,18.336,18.336,0,0,1,0,25.842l-53.032,52.875a4.744,4.744,0,0,1-3.352,1.386H107.2l-27.1,27.1A4.747,4.747,0,0,1,76.747,418.063Z" transform="translate(-29.271 -123.705)" fill="#636363"/>
              <path id="Trazado_735079" data-name="Trazado 735079" d="M138.2,180.413a90.206,90.206,0,1,1,90.206-90.206A90.207,90.207,0,0,1,138.2,180.413M138.2,9.5a80.711,80.711,0,1,0,80.711,80.711A80.711,80.711,0,0,0,138.2,9.5" transform="translate(-19.513)" fill="#636363"/>
              <path id="Trazado_735080" data-name="Trazado 735080" d="M282.066,134.953H268.82a11.869,11.869,0,0,1-11.869-11.869,2.374,2.374,0,0,0-2.374-2.374H218.969a19.105,19.105,0,0,1-13.768-5.925,18.814,18.814,0,0,1-5.223-14.072,19.707,19.707,0,0,1,19.8-17.984h20.558a7.121,7.121,0,0,0,7.162-7.08,7.029,7.029,0,0,0-.041-.806,7.563,7.563,0,0,0-7.786-6.357H223.717a14.242,14.242,0,0,1-14.034-16.617A14.632,14.632,0,0,1,224.239,40h34.8a4.748,4.748,0,0,1,0,9.5h-34.8a5.137,5.137,0,0,0-5.184,3.9,4.747,4.747,0,0,0,4.662,5.6h15.952A17.125,17.125,0,0,1,256.88,73.9a16.618,16.618,0,0,1-16.546,18.321H219.776a10.1,10.1,0,0,0-10.3,9.021,9.5,9.5,0,0,0,9.009,9.958c.162.008.325.012.487.012h35.608a11.869,11.869,0,0,1,11.869,11.869,2.374,2.374,0,0,0,2.374,2.374h13.246a4.748,4.748,0,1,1,0,9.5" transform="translate(-81.287 -16.261)" fill="#636363"/>
              <path id="Trazado_735081" data-name="Trazado 735081" d="M263.435,249.234H240.6a16.617,16.617,0,1,1,0-33.234h43.109a4.748,4.748,0,1,1,0,9.5H240.6a7.122,7.122,0,1,0,0,14.243h22.837a4.748,4.748,0,0,1,0,9.5" transform="translate(-91.046 -87.812)" fill="#231f20"/>
              <path id="Trazado_735082" data-name="Trazado 735082" d="M121.979,173.2H80.484a4.748,4.748,0,0,1,0-9.5h41.495a11.869,11.869,0,1,0,0-23.739H105.362a18.991,18.991,0,1,1,0-37.982h9.5a4.748,4.748,0,0,0,0-9.5H110.11A14.243,14.243,0,0,1,95.867,78.243,4.748,4.748,0,0,0,91.119,73.5H77.066a4.748,4.748,0,1,1,0-9.5H91.119a14.243,14.243,0,0,1,14.243,14.243,4.748,4.748,0,0,0,4.748,4.748h4.748a14.243,14.243,0,1,1,0,28.486h-9.5a9.5,9.5,0,0,0,0,18.991h16.617a21.365,21.365,0,1,1,0,42.729" transform="translate(-29.4 -26.018)" fill="#636363"/>
            </g>
          </g>
        </g>
      </g>
    </g>
  </g>
</svg>
