<svg xmlns="http://www.w3.org/2000/svg" xmlns:xlink="http://www.w3.org/1999/xlink" width="85" height="92" viewBox="0 0 85 92">
  <defs>
    <clipPath id="clip-path">
      <rect id="Rectángulo_344832" data-name="Rectángulo 344832" width="66.029" height="81.88" fill="none"/>
    </clipPath>
    <clipPath id="clip-path-3">
      <rect id="Rectángulo_344830" data-name="Rectángulo 344830" width="44.364" height="47.508" fill="none"/>
    </clipPath>
  </defs>
  <g id="Grupo_1010018" data-name="Grupo 1010018" transform="translate(-377 -2637)">
    <g id="Grupo_1010017" data-name="Grupo 1010017">
      <rect id="Rectángulo_338875" data-name="Rectángulo 338875" width="85" height="92" rx="10" transform="translate(377 2637)" fill="#ff6e33"/>
      <g id="Grupo_1009958" data-name="Grupo 1009958" transform="translate(-214.515 -2178)">
        <g id="Grupo_1009950" data-name="Grupo 1009950" transform="translate(601 4820)">
          <g id="Grupo_1009949" data-name="Grupo 1009949" clip-path="url(#clip-path)">
            <g id="Grupo_1009948" data-name="Grupo 1009948">
              <g id="Grupo_1009947" data-name="Grupo 1009947" clip-path="url(#clip-path)">
                <path id="Trazado_735069" data-name="Trazado 735069" d="M79.77,8A23.772,23.772,0,1,1,56,31.772,23.772,23.772,0,0,1,79.77,8" transform="translate(-46.754 -6.679)" fill="#0ce6ea"/>
                <path id="Trazado_735070" data-name="Trazado 735070" d="M77.128,95.111a4.622,4.622,0,0,1-4.622,4.622H60.964A23.731,23.731,0,0,1,60.013,72h3.909a2.649,2.649,0,0,1,2.641,2.641A2.649,2.649,0,0,0,69.2,77.283h1.321a2.641,2.641,0,1,1,0,5.283H67.884a3.962,3.962,0,0,0,0,7.924h4.622a4.622,4.622,0,0,1,4.622,4.622" transform="translate(-46.754 -60.114)" fill="#88d392"/>
                <path id="Trazado_735071" data-name="Trazado 735071" d="M230.421,65.165a23.674,23.674,0,0,1-.938,6.6H225.8a1.981,1.981,0,0,1-1.981-1.981,1.981,1.981,0,0,0-1.981-1.981h-9.9a3.962,3.962,0,0,1-3.968-3.956q0-.108.006-.217a4.131,4.131,0,0,1,4.186-3.751h5.718a3.3,3.3,0,0,0,3.288-3.645,3.434,3.434,0,0,0-3.473-2.958h-4.437a2.641,2.641,0,0,1-2.6-3.09A2.736,2.736,0,0,1,213.4,48h9.535c.291.264.568.541.845.819a23.739,23.739,0,0,1,6.643,16.35" transform="translate(-173.633 -40.072)" fill="#88d392"/>
                <path id="Trazado_735072" data-name="Trazado 735072" d="M247.291,224a23.534,23.534,0,0,1-5.639,6.6H235.3a3.3,3.3,0,0,1,0-6.6Z" transform="translate(-193.699 -187.022)" fill="#88d392"/>
                <g id="Grupo_1009946" data-name="Grupo 1009946" transform="translate(12.426 1.362)" opacity="0.1" style="isolation: isolate">
                  <g id="Grupo_1009945" data-name="Grupo 1009945">
                    <g id="Grupo_1009944" data-name="Grupo 1009944" clip-path="url(#clip-path-3)">
                      <path id="Trazado_735073" data-name="Trazado 735073" d="M96.665,8.248A21.116,21.116,0,1,1,75.27,43.828,23.759,23.759,0,1,0,96.665,8.248" transform="translate(-75.27 -8.248)" fill="#231f20"/>
                    </g>
                  </g>
                </g>
                <path id="Trazado_735074" data-name="Trazado 735074" d="M70.28,318.273l-14.355,14.3-.383.383H27.808l-7.924,7.924-1.862-1.862L8,329,22.525,314.47h21.13a3.962,3.962,0,1,1,0,7.924H55.489l9.456-9.456a3.773,3.773,0,1,1,5.411,5.26l-.076.076" transform="translate(-6.678 -260.323)" fill="#f9c0af"/>
                <path id="Trazado_735075" data-name="Trazado 735075" d="M157.2,349.283H145.319a1.321,1.321,0,0,1,0-2.641H157.2a1.321,1.321,0,0,0,1.321-1.321,1.321,1.321,0,0,1,2.641,0,3.962,3.962,0,0,1-3.962,3.962" transform="translate(-120.227 -287.212)" fill="#eaa696"/>
                <path id="Trazado_735076" data-name="Trazado 735076" d="M120.976,322.449l-14.355,14.3a1.3,1.3,0,0,1-.924.383H78.5l-7.924,7.924L68.718,343.2l8.307-8.32a1.364,1.364,0,0,1,.938-.383h27.179l13.972-13.906a1.156,1.156,0,0,0,0-1.611,1.321,1.321,0,0,1,1.862-1.862,3.763,3.763,0,0,1,.014,5.321l-.014.014" transform="translate(-57.374 -264.499)" fill="#eaa696"/>
                <path id="Trazado_735077" data-name="Trazado 735077" d="M1.32,337.168a1.321,1.321,0,0,1-.934-2.254l14.527-14.527a1.32,1.32,0,0,1,.934-.387h21.13a5.283,5.283,0,0,1,0,10.565H23.771a1.321,1.321,0,0,1,0-2.641H36.978a2.641,2.641,0,1,0,0-5.283H16.394l-14.14,14.14a1.32,1.32,0,0,1-.934.387" transform="translate(0 -267.174)" fill="#231f20"/>
                <path id="Trazado_735078" data-name="Trazado 735078" d="M73.32,335.939a1.321,1.321,0,0,1-.934-2.254l7.924-7.924a1.321,1.321,0,0,1,.934-.387h27.188l14.362-14.318a2.452,2.452,0,0,0,0-3.456,2.48,2.48,0,0,0-3.434,0l-9.443,9.464a1.321,1.321,0,0,1-.94.387H83.886a1.321,1.321,0,0,1,0-2.641H108.43l9.056-9.076a5.186,5.186,0,0,1,7.176,0,5.1,5.1,0,0,1,0,7.188L109.91,327.629a1.32,1.32,0,0,1-.932.386H81.791l-7.537,7.537A1.321,1.321,0,0,1,73.32,335.939Z" transform="translate(-60.114 -254.058)" fill="#231f20"/>
                <path id="Trazado_735079" data-name="Trazado 735079" d="M73.09,50.185A25.092,25.092,0,1,1,98.183,25.092,25.092,25.092,0,0,1,73.09,50.185m0-47.543A22.451,22.451,0,1,0,95.541,25.092,22.451,22.451,0,0,0,73.09,2.641" transform="translate(-40.074)" fill="#231f20"/>
                <path id="Trazado_735080" data-name="Trazado 735080" d="M222.792,66.411h-3.685a3.3,3.3,0,0,1-3.3-3.3.66.66,0,0,0-.66-.66h-9.9a5.314,5.314,0,0,1-3.83-1.648,5.234,5.234,0,0,1-1.453-3.914,5.482,5.482,0,0,1,5.507-5h5.718a1.981,1.981,0,0,0,1.992-1.969,1.953,1.953,0,0,0-.011-.224A2.1,2.1,0,0,0,211,47.922h-4.437a3.962,3.962,0,0,1-3.9-4.622,4.07,4.07,0,0,1,4.049-3.3h9.68a1.321,1.321,0,0,1,0,2.641h-9.68a1.429,1.429,0,0,0-1.442,1.084,1.321,1.321,0,0,0,1.3,1.557H211a4.764,4.764,0,0,1,4.787,4.148,4.623,4.623,0,0,1-4.6,5.1h-5.718a2.81,2.81,0,0,0-2.866,2.509,2.641,2.641,0,0,0,2.506,2.77c.045,0,.09,0,.135,0h9.9a3.3,3.3,0,0,1,3.3,3.3.66.66,0,0,0,.66.66h3.685a1.321,1.321,0,0,1,0,2.641" transform="translate(-166.942 -33.395)" fill="#231f20"/>
                <path id="Trazado_735081" data-name="Trazado 735081" d="M234.938,225.245h-6.352a4.622,4.622,0,1,1,0-9.245h11.992a1.321,1.321,0,0,1,0,2.641H228.585a1.981,1.981,0,1,0,0,3.962h6.352a1.321,1.321,0,0,1,0,2.641" transform="translate(-186.985 -180.342)" fill="#231f20"/>
                <path id="Trazado_735082" data-name="Trazado 735082" d="M86.132,94.375H74.59a1.321,1.321,0,0,1,0-2.641H86.132a3.3,3.3,0,1,0,0-6.6H81.51a5.283,5.283,0,1,1,0-10.565h2.641a1.321,1.321,0,0,0,0-2.641H82.83a3.962,3.962,0,0,1-3.962-3.962,1.321,1.321,0,0,0-1.321-1.321H73.639a1.321,1.321,0,1,1,0-2.641h3.909a3.962,3.962,0,0,1,3.962,3.962,1.321,1.321,0,0,0,1.321,1.321h1.321a3.962,3.962,0,0,1,0,7.924H81.51a2.641,2.641,0,0,0,0,5.283h4.622a5.943,5.943,0,1,1,0,11.886" transform="translate(-60.38 -53.435)" fill="#231f20"/>
              </g>
            </g>
          </g>
        </g>
      </g>
    </g>
  </g>
</svg>
