<svg xmlns="http://www.w3.org/2000/svg" xmlns:xlink="http://www.w3.org/1999/xlink" width="85" height="92" viewBox="0 0 85 92">
  <defs>
    <clipPath id="clip-path">
      <rect id="Rectángulo_344837" data-name="Rectángulo 344837" width="74" height="74" transform="translate(0 0)" fill="none"/>
    </clipPath>
  </defs>
  <g id="Grupo_1010020" data-name="Grupo 1010020" transform="translate(-377 -2637)">
    <g id="Grupo_1010019" data-name="Grupo 1010019">
      <rect id="Rectángulo_338875" data-name="Rectángulo 338875" width="85" height="92" rx="10" transform="translate(377 2637)" fill="#ff6e33"/>
      <g id="Grupo_1009959" data-name="Grupo 1009959" transform="translate(383 2647)">
        <path id="Trazado_735083" data-name="Trazado 735083" d="M373.961,131.482l-.319-3.18.319-.5-.532-5.7-.925-.575h-6.251l-.759.575-.532,5.7.333.369-.333,3.469-.387.313-1.393,14.925.686.51h11.273l.6-.51-1.393-14.925Z" transform="translate(-310.69 -103.963)" fill="#dbedff"/>
        <g id="Grupo_1009953" data-name="Grupo 1009953" transform="translate(0 0)">
          <g id="Grupo_1009952" data-name="Grupo 1009952" clip-path="url(#clip-path)">
            <path id="Trazado_735084" data-name="Trazado 735084" d="M343.892,296.961H322.221l-1.124,1.094V323.01h23.269l.331-.3V297.767a.806.806,0,0,0-.806-.806" transform="translate(-274.689 -254.041)" fill="#8479c2"/>
            <path id="Trazado_735085" data-name="Trazado 735085" d="M327.179,297.767a.806.806,0,0,1,.806-.806h-5.764l-1.124,1.094V323.01h6.414l-.331-.3Z" transform="translate(-274.689 -254.041)" fill="#6e60b8"/>
            <path id="Trazado_735086" data-name="Trazado 735086" d="M380.521,96.779h-8.8a.754.754,0,0,0-.754.754v2.644a.754.754,0,0,0,.754.754h8.8a.754.754,0,0,0,.754-.754V97.533a.754.754,0,0,0-.754-.754" transform="translate(-317.349 -82.792)" fill="#b5dcff"/>
            <path id="Trazado_735087" data-name="Trazado 735087" d="M268.119,10.127a.647.647,0,0,1-.713-.354,4.238,4.238,0,0,0-6.634-1.206.642.642,0,0,1-.868,0,4.229,4.229,0,0,0-5.715,0,.642.642,0,0,1-.869,0,4.23,4.23,0,1,0,0,6.236.642.642,0,0,1,.869,0,4.229,4.229,0,0,0,5.716,0,.642.642,0,0,1,.868,0,4.23,4.23,0,0,0,5.264.365.649.649,0,0,1,.8.034,2.928,2.928,0,1,0,1.283-5.07Z" transform="translate(-210.642 -6.378)" fill="#dbedff"/>
            <path id="Trazado_735088" data-name="Trazado 735088" d="M372.817,169.124h9.774l-.387-4.151h-9Z" transform="translate(-318.934 -141.13)" fill="#f27182"/>
            <path id="Trazado_735089" data-name="Trazado 735089" d="M373.2,164.973l-.388,4.151H377.2l.387-4.151Z" transform="translate(-318.933 -141.13)" fill="#ed5469"/>
            <rect id="Rectángulo_344833" data-name="Rectángulo 344833" width="12.947" height="4.345" transform="translate(52.297 64.516)" fill="#00d2fc"/>
            <rect id="Rectángulo_344834" data-name="Rectángulo 344834" width="12.947" height="4.345" transform="translate(52.297 56.579)" fill="#00d2fc"/>
            <path id="Trazado_735090" data-name="Trazado 735090" d="M238.819,246.552l-12.748,6.417a.881.881,0,0,0-.485.787l-.49.51v25.539h14.4l.594-.3v-32.17a.881.881,0,0,0-1.277-.787" transform="translate(-192.564 -210.836)" fill="#ffc365"/>
            <rect id="Rectángulo_344835" data-name="Rectángulo 344835" width="12.947" height="3.968" transform="translate(52.297 60.736)" fill="#62ddfc"/>
            <path id="Trazado_735091" data-name="Trazado 735091" d="M374.594,362.309h-12.56a.681.681,0,0,1-.194-.031v4.408h12.947v-4.408a.681.681,0,0,1-.194.031" transform="translate(-309.543 -309.918)" fill="#62ddfc"/>
            <rect id="Rectángulo_344836" data-name="Rectángulo 344836" width="14.068" height="4.151" rx="2.076" transform="translate(51.737 48.676)" fill="#dbedff"/>
            <path id="Trazado_735092" data-name="Trazado 735092" d="M232.545,255.16a.881.881,0,0,1,.485-.787l9.964-5.016v-2.018a.881.881,0,0,0-1.277-.787l-12.748,6.417a.881.881,0,0,0-.485.787v25.753h4.061V255.16Z" transform="translate(-195.461 -210.836)" fill="#ffa90f"/>
            <path id="Trazado_735093" data-name="Trazado 735093" d="M137.621,246.552l-12.748,6.417a.881.881,0,0,0-.485.787l-.626.51V280.19h14.019l1.116-.682v-32.17a.881.881,0,0,0-1.277-.787" transform="translate(-105.875 -210.836)" fill="#ffc365"/>
            <path id="Trazado_735094" data-name="Trazado 735094" d="M132.155,255.16a.881.881,0,0,1,.485-.787l9.964-5.016v-2.018a.881.881,0,0,0-1.277-.787l-12.748,6.417a.881.881,0,0,0-.485.787v25.753h4.061V255.16Z" transform="translate(-109.58 -210.836)" fill="#ffa90f"/>
            <path id="Trazado_735095" data-name="Trazado 735095" d="M40.937,246.552l-12.748,6.417a.881.881,0,0,0-.485.787v25.753H42.213v-32.17A.881.881,0,0,0,40.937,246.552Z" transform="translate(-23.7 -210.836)" fill="#ffc365"/>
            <path id="Trazado_735096" data-name="Trazado 735096" d="M31.765,255.16a.881.881,0,0,1,.485-.787l9.964-5.016v-2.018a.881.881,0,0,0-1.277-.787l-12.748,6.417a.881.881,0,0,0-.485.787v25.753h4.061V255.16Z" transform="translate(-23.7 -210.836)" fill="#ffa90f"/>
            <path id="Trazado_735097" data-name="Trazado 735097" d="M78.329,474.144H8.593a1.048,1.048,0,0,0-1.048,1.048v2.286a1.048,1.048,0,0,0,1.048,1.048H78.329a1.048,1.048,0,0,0,1.048-1.048v-2.286a1.048,1.048,0,0,0-1.048-1.048" transform="translate(-6.455 -405.616)" fill="#dbedff"/>
            <path id="Trazado_735098" data-name="Trazado 735098" d="M78.329,483.1H8.593a1.048,1.048,0,0,1-1.048-1.048v2.19a1.048,1.048,0,0,0,1.048,1.048H78.329a1.048,1.048,0,0,0,1.048-1.048v-2.19a1.048,1.048,0,0,1-1.048,1.048" transform="translate(-6.455 -412.38)" fill="#b5dcff"/>
            <path id="Trazado_735099" data-name="Trazado 735099" d="M261.363,319.318h-4.887a.9.9,0,0,0-.9.9v5.465a.9.9,0,0,0,.9.9h4.887a.9.9,0,0,0,.9-.9v-5.465a.9.9,0,0,0-.9-.9" transform="translate(-218.642 -273.167)" fill="#00d2fc"/>
            <path id="Trazado_735100" data-name="Trazado 735100" d="M160.973,319.318h-4.887a.9.9,0,0,0-.9.9v5.465a.9.9,0,0,0,.9.9h4.887a.9.9,0,0,0,.9-.9v-5.465a.9.9,0,0,0-.9-.9" transform="translate(-132.761 -273.167)" fill="#00d2fc"/>
            <path id="Trazado_735101" data-name="Trazado 735101" d="M60.583,319.318H55.7a.9.9,0,0,0-.9.9v5.465a.9.9,0,0,0,.9.9h4.887a.9.9,0,0,0,.9-.9v-5.465a.9.9,0,0,0-.9-.9" transform="translate(-46.881 -273.167)" fill="#00d2fc"/>
            <path id="Trazado_735102" data-name="Trazado 735102" d="M49.235,321.283h4.887A1.981,1.981,0,0,0,56.1,319.3v-5.465a1.981,1.981,0,0,0-1.979-1.979H49.235a1.981,1.981,0,0,0-1.979,1.979V319.3a1.981,1.981,0,0,0,1.979,1.979m.189-7.255h4.509v5.087H49.424Z" transform="translate(-40.426 -266.787)"/>
            <path id="Trazado_735103" data-name="Trazado 735103" d="M149.625,321.283h4.887a1.981,1.981,0,0,0,1.979-1.979v-5.465a1.981,1.981,0,0,0-1.979-1.979h-4.887a1.981,1.981,0,0,0-1.979,1.979V319.3a1.981,1.981,0,0,0,1.979,1.979m.189-7.255h4.509v5.087h-4.509Z" transform="translate(-126.307 -266.787)"/>
            <path id="Trazado_735104" data-name="Trazado 735104" d="M250.016,321.283H254.9a1.981,1.981,0,0,0,1.979-1.979v-5.465a1.981,1.981,0,0,0-1.979-1.979h-4.887a1.981,1.981,0,0,0-1.979,1.979V319.3a1.981,1.981,0,0,0,1.979,1.979m.189-7.255h4.509v5.087H250.2Z" transform="translate(-212.188 -266.787)"/>
            <path id="Trazado_735105" data-name="Trazado 735105" d="M261.764,2.637a5.328,5.328,0,0,0-7.888-1.5,5.342,5.342,0,0,0-6.581,0,5.31,5.31,0,0,0-5.431-.684,5.224,5.224,0,0,0-3.178,4.857,5.223,5.223,0,0,0,3.178,4.856,5.31,5.31,0,0,0,5.431-.684,5.342,5.342,0,0,0,6.584,0,5.351,5.351,0,0,0,6.048.374,4.013,4.013,0,1,0,1.838-7.219m-.671,5.378a1.729,1.729,0,0,0-2.135-.113,3.159,3.159,0,0,1-3.912-.271,1.734,1.734,0,0,0-2.337,0,3.153,3.153,0,0,1-4.247,0,1.731,1.731,0,0,0-2.343,0,3.1,3.1,0,0,1-3.392.543,3.045,3.045,0,0,1-1.874-2.868,3.046,3.046,0,0,1,1.875-2.868,3.1,3.1,0,0,1,3.391.543,1.731,1.731,0,0,0,2.343,0,3.152,3.152,0,0,1,4.246,0,1.732,1.732,0,0,0,2.34,0,3.154,3.154,0,0,1,4.928.9,1.726,1.726,0,0,0,1.921.927h0a1.844,1.844,0,1,1-.8,3.2" transform="translate(-204.188 -0.001)"/>
            <path id="Trazado_735106" data-name="Trazado 735106" d="M71.868,144.007h-.782V120.144a1.892,1.892,0,0,0-1.89-1.89H66.032l-.43-4.606a1.084,1.084,0,0,0-2.159.2l.411,4.4H53.674l1.19-12.757h7.8l.307,3.294a1.084,1.084,0,0,0,2.159-.2L63.907,95.484A1.84,1.84,0,0,0,65,93.8V91.16a1.84,1.84,0,0,0-1.838-1.838h-8.8a1.84,1.84,0,0,0-1.838,1.838V93.8a1.84,1.84,0,0,0,1.1,1.68c-.093.993-2.032,21.779-2.125,22.771H48.61v-5.333a1.965,1.965,0,0,0-2.848-1.755L34.1,117.036v-4.116a1.965,1.965,0,0,0-2.848-1.755l-11.661,5.87v-4.115a1.965,1.965,0,0,0-2.848-1.755L3.995,117.583a1.955,1.955,0,0,0-1.081,1.755v24.669H2.132A2.134,2.134,0,0,0,0,146.139v2.141a2.134,2.134,0,0,0,2.132,2.132H34.471a1.084,1.084,0,0,0,0-2.168H2.168v-2.069H71.832v2.069h-32.3a1.084,1.084,0,0,0,0,2.168H71.868A2.134,2.134,0,0,0,74,148.28v-2.141A2.134,2.134,0,0,0,71.868,144.007Zm-16.8-40.678.185-1.983h7.024l.185,1.983Zm.387-4.151.33-3.537h5.96l.33,3.537Zm-.761-7.688h8.142v1.983H54.693Zm-37.27,52.517H5.082V119.463l12.341-6.213Zm14.509,0H19.591V119.463l12.341-6.213Zm14.509,0H34.1V119.464l12.341-6.213Zm17.712,0H53.374v-1.8H64.154Zm0-3.968H53.374v-1.8H64.154Zm0-3.968H53.374v-1.8H64.154Zm0-3.968H53.374V130.33H64.154Zm.56-3.94h-11.9v-1.983h11.9Zm4.2,15.845h-2.6v-14.2a1.831,1.831,0,0,0,.56-1.318v-2.643a1.84,1.84,0,0,0-1.838-1.838H52.484a1.84,1.84,0,0,0-1.838,1.838v2.644a1.831,1.831,0,0,0,.56,1.318v14.2h-2.6V120.422H68.919Z" transform="translate(0 -76.413)"/>
          </g>
        </g>
      </g>
    </g>
  </g>
</svg>
