<svg xmlns="http://www.w3.org/2000/svg" xmlns:xlink="http://www.w3.org/1999/xlink" width="370.795" height="344.665" viewBox="0 0 370.795 344.665">
  <defs>
    <clipPath id="clip-path">
      <path id="Trazado_113926" data-name="Trazado 113926" d="M93.9,0A93.9,93.9,0,1,1,0,93.9,93.9,93.9,0,0,1,93.9,0Z" transform="translate(0 -0.001)" fill="#1448d3"/>
    </clipPath>
    <clipPath id="clip-path-2">
      <rect id="Rectángulo_344837" data-name="Rectángulo 344837" width="256" height="256" transform="translate(0 -0.333)" fill="none"/>
    </clipPath>
  </defs>
  <g id="Grupo_1010007" data-name="Grupo 1010007" transform="translate(-895 -4650.131)">
    <g id="Grupo_985925" data-name="Grupo 985925" transform="translate(814.968 4595.066)">
      <path id="Rectángulo_33771" data-name="Rectángulo 33771" d="M136.717,0h0A136.717,136.717,0,0,1,273.433,136.717V344.665a0,0,0,0,1,0,0H0a0,0,0,0,1,0,0V136.717A136.717,136.717,0,0,1,136.717,0Z" transform="translate(80.032 55.065)" fill="#fee7dd"/>
      <g id="Grupo_80252" data-name="Grupo 80252" transform="translate(263.032 55.065)">
        <g id="Grupo_80252-2" data-name="Grupo 80252" transform="translate(0)" clip-path="url(#clip-path)">
          <path id="Trazado_113845" data-name="Trazado 113845" d="M0,2.471A2.472,2.472,0,1,1,2.471,4.941,2.47,2.47,0,0,1,0,2.471" transform="translate(182.852 -0.002)" fill="#1448d3"/>
          <path id="Trazado_113846" data-name="Trazado 113846" d="M10.076,2.471a2.471,2.471,0,1,1,2.471,2.471,2.47,2.47,0,0,1-2.471-2.471" transform="translate(149.919 -0.002)" fill="#1448d3"/>
          <path id="Trazado_113847" data-name="Trazado 113847" d="M20.151,2.471a2.471,2.471,0,1,1,2.471,2.471,2.47,2.47,0,0,1-2.471-2.471" transform="translate(116.988 -0.002)" fill="#1448d3"/>
          <path id="Trazado_113848" data-name="Trazado 113848" d="M30.225,2.471A2.472,2.472,0,1,1,32.7,4.941a2.47,2.47,0,0,1-2.471-2.471" transform="translate(84.057 -0.002)" fill="#1448d3"/>
          <path id="Trazado_113849" data-name="Trazado 113849" d="M40.3,2.471a2.471,2.471,0,1,1,2.471,2.471A2.47,2.47,0,0,1,40.3,2.471" transform="translate(51.125 -0.002)" fill="#1448d3"/>
          <path id="Trazado_113850" data-name="Trazado 113850" d="M50.376,2.471a2.471,2.471,0,1,1,2.471,2.471,2.47,2.47,0,0,1-2.471-2.471" transform="translate(18.193 -0.002)" fill="#1448d3"/>
          <path id="Trazado_113851" data-name="Trazado 113851" d="M60.45,2.471a2.472,2.472,0,1,1,2.471,2.471A2.47,2.47,0,0,1,60.45,2.471" transform="translate(-14.737 -0.002)" fill="#1448d3"/>
          <path id="Trazado_113852" data-name="Trazado 113852" d="M70.526,2.471A2.471,2.471,0,1,1,73,4.941a2.47,2.47,0,0,1-2.471-2.471" transform="translate(-47.67 -0.002)" fill="#1448d3"/>
          <path id="Trazado_113853" data-name="Trazado 113853" d="M80.6,2.471a2.472,2.472,0,1,1,2.471,2.471A2.47,2.47,0,0,1,80.6,2.471" transform="translate(-80.6 -0.002)" fill="#1448d3"/>
          <path id="Trazado_113854" data-name="Trazado 113854" d="M0,12.546a2.472,2.472,0,1,1,2.471,2.471A2.47,2.47,0,0,1,0,12.546" transform="translate(182.852 12.779)" fill="#1448d3"/>
          <path id="Trazado_113855" data-name="Trazado 113855" d="M10.076,12.546a2.471,2.471,0,1,1,2.471,2.471,2.47,2.47,0,0,1-2.471-2.471" transform="translate(149.919 12.779)" fill="#1448d3"/>
          <path id="Trazado_113856" data-name="Trazado 113856" d="M20.151,12.546a2.471,2.471,0,1,1,2.471,2.471,2.47,2.47,0,0,1-2.471-2.471" transform="translate(116.988 12.779)" fill="#1448d3"/>
          <path id="Trazado_113857" data-name="Trazado 113857" d="M30.225,12.546A2.472,2.472,0,1,1,32.7,15.016a2.47,2.47,0,0,1-2.471-2.471" transform="translate(84.057 12.779)" fill="#1448d3"/>
          <path id="Trazado_113858" data-name="Trazado 113858" d="M40.3,12.546a2.471,2.471,0,1,1,2.471,2.471A2.47,2.47,0,0,1,40.3,12.546" transform="translate(51.125 12.779)" fill="#1448d3"/>
          <path id="Trazado_113859" data-name="Trazado 113859" d="M50.376,12.546a2.471,2.471,0,1,1,2.471,2.471,2.47,2.47,0,0,1-2.471-2.471" transform="translate(18.193 12.779)" fill="#1448d3"/>
          <path id="Trazado_113860" data-name="Trazado 113860" d="M60.45,12.546a2.472,2.472,0,1,1,2.471,2.471,2.47,2.47,0,0,1-2.471-2.471" transform="translate(-14.737 12.779)" fill="#1448d3"/>
          <path id="Trazado_113861" data-name="Trazado 113861" d="M70.526,12.546A2.471,2.471,0,1,1,73,15.016a2.47,2.47,0,0,1-2.471-2.471" transform="translate(-47.67 12.779)" fill="#1448d3"/>
          <path id="Trazado_113862" data-name="Trazado 113862" d="M80.6,12.546a2.472,2.472,0,1,1,2.471,2.471A2.47,2.47,0,0,1,80.6,12.546" transform="translate(-80.6 12.779)" fill="#1448d3"/>
          <path id="Trazado_113863" data-name="Trazado 113863" d="M0,22.621a2.472,2.472,0,1,1,2.471,2.471A2.47,2.47,0,0,1,0,22.621" transform="translate(182.852 25.561)" fill="#1448d3"/>
          <path id="Trazado_113864" data-name="Trazado 113864" d="M10.076,22.621a2.471,2.471,0,1,1,2.471,2.471,2.47,2.47,0,0,1-2.471-2.471" transform="translate(149.919 25.561)" fill="#1448d3"/>
          <path id="Trazado_113865" data-name="Trazado 113865" d="M20.151,22.621a2.471,2.471,0,1,1,2.471,2.471,2.47,2.47,0,0,1-2.471-2.471" transform="translate(116.988 25.561)" fill="#1448d3"/>
          <path id="Trazado_113866" data-name="Trazado 113866" d="M30.225,22.621A2.472,2.472,0,1,1,32.7,25.091a2.47,2.47,0,0,1-2.471-2.471" transform="translate(84.057 25.561)" fill="#1448d3"/>
          <path id="Trazado_113867" data-name="Trazado 113867" d="M40.3,22.621a2.471,2.471,0,1,1,2.471,2.471A2.47,2.47,0,0,1,40.3,22.621" transform="translate(51.125 25.561)" fill="#1448d3"/>
          <path id="Trazado_113868" data-name="Trazado 113868" d="M50.376,22.621a2.471,2.471,0,1,1,2.471,2.471,2.47,2.47,0,0,1-2.471-2.471" transform="translate(18.193 25.561)" fill="#1448d3"/>
          <path id="Trazado_113869" data-name="Trazado 113869" d="M60.45,22.621a2.472,2.472,0,1,1,2.471,2.471,2.47,2.47,0,0,1-2.471-2.471" transform="translate(-14.737 25.561)" fill="#1448d3"/>
          <path id="Trazado_113870" data-name="Trazado 113870" d="M70.526,22.621A2.471,2.471,0,1,1,73,25.091a2.47,2.47,0,0,1-2.471-2.471" transform="translate(-47.67 25.561)" fill="#1448d3"/>
          <path id="Trazado_113871" data-name="Trazado 113871" d="M80.6,22.621a2.472,2.472,0,1,1,2.471,2.471A2.47,2.47,0,0,1,80.6,22.621" transform="translate(-80.6 25.561)" fill="#1448d3"/>
          <path id="Trazado_113872" data-name="Trazado 113872" d="M0,32.7a2.472,2.472,0,1,1,2.471,2.471A2.47,2.47,0,0,1,0,32.7" transform="translate(182.852 38.342)" fill="#1448d3"/>
          <path id="Trazado_113873" data-name="Trazado 113873" d="M10.076,32.7a2.471,2.471,0,1,1,2.471,2.471A2.47,2.47,0,0,1,10.076,32.7" transform="translate(149.919 38.342)" fill="#1448d3"/>
          <path id="Trazado_113874" data-name="Trazado 113874" d="M20.151,32.7a2.471,2.471,0,1,1,2.471,2.471A2.47,2.47,0,0,1,20.151,32.7" transform="translate(116.988 38.342)" fill="#1448d3"/>
          <path id="Trazado_113875" data-name="Trazado 113875" d="M30.225,32.7A2.472,2.472,0,1,1,32.7,35.166,2.47,2.47,0,0,1,30.225,32.7" transform="translate(84.057 38.342)" fill="#1448d3"/>
          <path id="Trazado_113876" data-name="Trazado 113876" d="M40.3,32.7a2.471,2.471,0,1,1,2.471,2.471A2.47,2.47,0,0,1,40.3,32.7" transform="translate(51.125 38.342)" fill="#1448d3"/>
          <path id="Trazado_113877" data-name="Trazado 113877" d="M50.376,32.7a2.471,2.471,0,1,1,2.471,2.471A2.47,2.47,0,0,1,50.376,32.7" transform="translate(18.193 38.342)" fill="#1448d3"/>
          <path id="Trazado_113878" data-name="Trazado 113878" d="M60.45,32.7a2.472,2.472,0,1,1,2.471,2.471A2.47,2.47,0,0,1,60.45,32.7" transform="translate(-14.737 38.342)" fill="#1448d3"/>
          <path id="Trazado_113879" data-name="Trazado 113879" d="M70.526,32.7A2.471,2.471,0,1,1,73,35.166,2.47,2.47,0,0,1,70.526,32.7" transform="translate(-47.67 38.342)" fill="#1448d3"/>
          <path id="Trazado_113880" data-name="Trazado 113880" d="M80.6,32.7a2.472,2.472,0,1,1,2.471,2.471A2.47,2.47,0,0,1,80.6,32.7" transform="translate(-80.6 38.342)" fill="#1448d3"/>
          <path id="Trazado_113881" data-name="Trazado 113881" d="M0,42.771a2.472,2.472,0,1,1,2.471,2.471A2.47,2.47,0,0,1,0,42.771" transform="translate(182.852 51.124)" fill="#1448d3"/>
          <path id="Trazado_113882" data-name="Trazado 113882" d="M10.076,42.771a2.471,2.471,0,1,1,2.471,2.471,2.47,2.47,0,0,1-2.471-2.471" transform="translate(149.919 51.124)" fill="#1448d3"/>
          <path id="Trazado_113883" data-name="Trazado 113883" d="M20.151,42.771a2.471,2.471,0,1,1,2.471,2.471,2.47,2.47,0,0,1-2.471-2.471" transform="translate(116.988 51.124)" fill="#1448d3"/>
          <path id="Trazado_113884" data-name="Trazado 113884" d="M30.225,42.771A2.472,2.472,0,1,1,32.7,45.241a2.47,2.47,0,0,1-2.471-2.471" transform="translate(84.057 51.124)" fill="#1448d3"/>
          <path id="Trazado_113885" data-name="Trazado 113885" d="M40.3,42.771a2.471,2.471,0,1,1,2.471,2.471A2.47,2.47,0,0,1,40.3,42.771" transform="translate(51.125 51.124)" fill="#1448d3"/>
          <path id="Trazado_113886" data-name="Trazado 113886" d="M50.376,42.771a2.471,2.471,0,1,1,2.471,2.471,2.47,2.47,0,0,1-2.471-2.471" transform="translate(18.193 51.124)" fill="#1448d3"/>
          <path id="Trazado_113887" data-name="Trazado 113887" d="M60.45,42.771a2.472,2.472,0,1,1,2.471,2.471,2.47,2.47,0,0,1-2.471-2.471" transform="translate(-14.737 51.124)" fill="#1448d3"/>
          <path id="Trazado_113888" data-name="Trazado 113888" d="M70.526,42.771A2.471,2.471,0,1,1,73,45.241a2.47,2.47,0,0,1-2.471-2.471" transform="translate(-47.67 51.124)" fill="#1448d3"/>
          <path id="Trazado_113889" data-name="Trazado 113889" d="M80.6,42.771a2.472,2.472,0,1,1,2.471,2.471A2.47,2.47,0,0,1,80.6,42.771" transform="translate(-80.6 51.124)" fill="#1448d3"/>
          <path id="Trazado_113890" data-name="Trazado 113890" d="M0,52.846a2.472,2.472,0,1,1,2.471,2.471A2.47,2.47,0,0,1,0,52.846" transform="translate(182.852 63.905)" fill="#1448d3"/>
          <path id="Trazado_113891" data-name="Trazado 113891" d="M10.076,52.846a2.471,2.471,0,1,1,2.471,2.471,2.47,2.47,0,0,1-2.471-2.471" transform="translate(149.919 63.905)" fill="#1448d3"/>
          <path id="Trazado_113892" data-name="Trazado 113892" d="M20.151,52.846a2.471,2.471,0,1,1,2.471,2.471,2.47,2.47,0,0,1-2.471-2.471" transform="translate(116.988 63.905)" fill="#1448d3"/>
          <path id="Trazado_113893" data-name="Trazado 113893" d="M30.225,52.846A2.472,2.472,0,1,1,32.7,55.316a2.47,2.47,0,0,1-2.471-2.471" transform="translate(84.057 63.905)" fill="#1448d3"/>
          <path id="Trazado_113894" data-name="Trazado 113894" d="M40.3,52.846a2.471,2.471,0,1,1,2.471,2.471A2.47,2.47,0,0,1,40.3,52.846" transform="translate(51.125 63.905)" fill="#1448d3"/>
          <path id="Trazado_113895" data-name="Trazado 113895" d="M50.376,52.846a2.471,2.471,0,1,1,2.471,2.471,2.47,2.47,0,0,1-2.471-2.471" transform="translate(18.193 63.905)" fill="#1448d3"/>
          <path id="Trazado_113896" data-name="Trazado 113896" d="M60.45,52.846a2.472,2.472,0,1,1,2.471,2.471,2.47,2.47,0,0,1-2.471-2.471" transform="translate(-14.737 63.905)" fill="#1448d3"/>
          <path id="Trazado_113897" data-name="Trazado 113897" d="M70.526,52.846A2.471,2.471,0,1,1,73,55.316a2.47,2.47,0,0,1-2.471-2.471" transform="translate(-47.67 63.905)" fill="#1448d3"/>
          <path id="Trazado_113898" data-name="Trazado 113898" d="M80.6,52.846a2.472,2.472,0,1,1,2.471,2.471A2.47,2.47,0,0,1,80.6,52.846" transform="translate(-80.6 63.905)" fill="#1448d3"/>
          <path id="Trazado_113899" data-name="Trazado 113899" d="M0,62.921a2.472,2.472,0,1,1,2.471,2.471A2.47,2.47,0,0,1,0,62.921" transform="translate(182.852 76.687)" fill="#1448d3"/>
          <path id="Trazado_113900" data-name="Trazado 113900" d="M10.076,62.921a2.471,2.471,0,1,1,2.471,2.471,2.47,2.47,0,0,1-2.471-2.471" transform="translate(149.919 76.687)" fill="#1448d3"/>
          <path id="Trazado_113901" data-name="Trazado 113901" d="M20.151,62.921a2.471,2.471,0,1,1,2.471,2.471,2.47,2.47,0,0,1-2.471-2.471" transform="translate(116.988 76.687)" fill="#1448d3"/>
          <path id="Trazado_113902" data-name="Trazado 113902" d="M30.225,62.921A2.472,2.472,0,1,1,32.7,65.391a2.47,2.47,0,0,1-2.471-2.471" transform="translate(84.057 76.687)" fill="#1448d3"/>
          <path id="Trazado_113903" data-name="Trazado 113903" d="M40.3,62.921a2.471,2.471,0,1,1,2.471,2.471A2.47,2.47,0,0,1,40.3,62.921" transform="translate(51.125 76.687)" fill="#1448d3"/>
          <path id="Trazado_113904" data-name="Trazado 113904" d="M50.376,62.921a2.471,2.471,0,1,1,2.471,2.471,2.47,2.47,0,0,1-2.471-2.471" transform="translate(18.193 76.687)" fill="#1448d3"/>
          <path id="Trazado_113905" data-name="Trazado 113905" d="M60.45,62.921a2.472,2.472,0,1,1,2.471,2.471,2.47,2.47,0,0,1-2.471-2.471" transform="translate(-14.737 76.687)" fill="#1448d3"/>
          <path id="Trazado_113906" data-name="Trazado 113906" d="M70.526,62.921A2.471,2.471,0,1,1,73,65.391a2.47,2.47,0,0,1-2.471-2.471" transform="translate(-47.67 76.687)" fill="#1448d3"/>
          <path id="Trazado_113907" data-name="Trazado 113907" d="M80.6,62.921a2.472,2.472,0,1,1,2.471,2.471A2.47,2.47,0,0,1,80.6,62.921" transform="translate(-80.6 76.687)" fill="#1448d3"/>
          <path id="Trazado_113908" data-name="Trazado 113908" d="M0,73a2.472,2.472,0,1,1,2.471,2.471A2.47,2.47,0,0,1,0,73" transform="translate(182.852 89.469)" fill="#1448d3"/>
          <path id="Trazado_113909" data-name="Trazado 113909" d="M10.076,73a2.471,2.471,0,1,1,2.471,2.471A2.47,2.47,0,0,1,10.076,73" transform="translate(149.919 89.469)" fill="#1448d3"/>
          <path id="Trazado_113910" data-name="Trazado 113910" d="M20.151,73a2.471,2.471,0,1,1,2.471,2.471A2.47,2.47,0,0,1,20.151,73" transform="translate(116.988 89.469)" fill="#1448d3"/>
          <path id="Trazado_113911" data-name="Trazado 113911" d="M30.225,73A2.472,2.472,0,1,1,32.7,75.467,2.47,2.47,0,0,1,30.225,73" transform="translate(84.057 89.469)" fill="#1448d3"/>
          <path id="Trazado_113912" data-name="Trazado 113912" d="M40.3,73a2.471,2.471,0,1,1,2.471,2.471A2.47,2.47,0,0,1,40.3,73" transform="translate(51.125 89.469)" fill="#1448d3"/>
          <path id="Trazado_113913" data-name="Trazado 113913" d="M50.376,73a2.471,2.471,0,1,1,2.471,2.471A2.47,2.47,0,0,1,50.376,73" transform="translate(18.193 89.469)" fill="#1448d3"/>
          <path id="Trazado_113914" data-name="Trazado 113914" d="M60.45,73a2.472,2.472,0,1,1,2.471,2.471A2.47,2.47,0,0,1,60.45,73" transform="translate(-14.737 89.469)" fill="#1448d3"/>
          <path id="Trazado_113915" data-name="Trazado 113915" d="M70.526,73A2.471,2.471,0,1,1,73,75.467,2.47,2.47,0,0,1,70.526,73" transform="translate(-47.67 89.469)" fill="#1448d3"/>
          <path id="Trazado_113916" data-name="Trazado 113916" d="M80.6,73a2.472,2.472,0,1,1,2.471,2.471A2.47,2.47,0,0,1,80.6,73" transform="translate(-80.6 89.469)" fill="#1448d3"/>
          <path id="Trazado_113917" data-name="Trazado 113917" d="M0,83.072a2.472,2.472,0,1,1,2.471,2.471A2.47,2.47,0,0,1,0,83.072" transform="translate(182.852 102.251)" fill="#1448d3"/>
          <path id="Trazado_113918" data-name="Trazado 113918" d="M10.076,83.072a2.471,2.471,0,1,1,2.471,2.471,2.47,2.47,0,0,1-2.471-2.471" transform="translate(149.919 102.251)" fill="#1448d3"/>
          <path id="Trazado_113919" data-name="Trazado 113919" d="M20.151,83.072a2.471,2.471,0,1,1,2.471,2.471,2.47,2.47,0,0,1-2.471-2.471" transform="translate(116.988 102.251)" fill="#1448d3"/>
          <path id="Trazado_113920" data-name="Trazado 113920" d="M30.225,83.072A2.472,2.472,0,1,1,32.7,85.542a2.47,2.47,0,0,1-2.471-2.471" transform="translate(84.057 102.251)" fill="#1448d3"/>
          <path id="Trazado_113921" data-name="Trazado 113921" d="M40.3,83.072a2.471,2.471,0,1,1,2.471,2.471A2.47,2.47,0,0,1,40.3,83.072" transform="translate(51.125 102.251)" fill="#1448d3"/>
          <path id="Trazado_113922" data-name="Trazado 113922" d="M50.376,83.072a2.471,2.471,0,1,1,2.471,2.471,2.47,2.47,0,0,1-2.471-2.471" transform="translate(18.193 102.251)" fill="#1448d3"/>
          <path id="Trazado_113923" data-name="Trazado 113923" d="M60.45,83.072a2.472,2.472,0,1,1,2.471,2.471,2.47,2.47,0,0,1-2.471-2.471" transform="translate(-14.737 102.251)" fill="#1448d3"/>
          <path id="Trazado_113924" data-name="Trazado 113924" d="M70.526,83.072A2.471,2.471,0,1,1,73,85.542a2.47,2.47,0,0,1-2.471-2.471" transform="translate(-47.67 102.251)" fill="#1448d3"/>
          <path id="Trazado_113925" data-name="Trazado 113925" d="M80.6,83.072a2.472,2.472,0,1,1,2.471,2.471A2.47,2.47,0,0,1,80.6,83.072" transform="translate(-80.6 102.251)" fill="#1448d3"/>
        </g>
      </g>
    </g>
    <g id="Grupo_1010008" data-name="Grupo 1010008" transform="translate(901.795 4733.666)">
      <path id="Trazado_735083" data-name="Trazado 735083" d="M400.367,155.867l-1.1-10.969,1.1-1.709-1.836-19.68-3.192-1.982H373.775l-2.617,1.982-1.836,19.68,1.15,1.273-1.15,11.966-1.337,1.081L363.181,209l2.368,1.76h38.89l2.07-1.76-4.8-51.487Z" transform="translate(-182.105 -60.879)" fill="#dbedff"/>
      <g id="Grupo_1009953" data-name="Grupo 1009953" transform="translate(0 -0.333)">
        <g id="Grupo_1009952" data-name="Grupo 1009952" transform="translate(0 0)" clip-path="url(#clip-path-2)">
          <path id="Trazado_735084" data-name="Trazado 735084" d="M399.731,296.961H324.974l-3.878,3.772v86.089h80.272l1.143-1.022V299.742a2.781,2.781,0,0,0-2.781-2.781" transform="translate(-161.003 -148.512)" fill="#8479c2"/>
          <path id="Trazado_735085" data-name="Trazado 735085" d="M342.079,299.742a2.781,2.781,0,0,1,2.781-2.781H324.974l-3.878,3.772v86.089h22.125l-1.143-1.022Z" transform="translate(-161.003 -148.512)" fill="#6e60b8"/>
          <path id="Trazado_735086" data-name="Trazado 735086" d="M403.93,96.779H373.566a2.6,2.6,0,0,0-2.6,2.6v9.12a2.6,2.6,0,0,0,2.6,2.6H403.93a2.6,2.6,0,0,0,2.6-2.6V99.38a2.6,2.6,0,0,0-2.6-2.6" transform="translate(-186.008 -48.137)" fill="#b5dcff"/>
          <path id="Trazado_735087" data-name="Trazado 735087" d="M321.741,16.674a2.231,2.231,0,0,1-2.461-1.222,14.618,14.618,0,0,0-22.886-4.161,2.216,2.216,0,0,1-3,0,14.59,14.59,0,0,0-19.715,0,2.214,2.214,0,0,1-3,0c-8.948-8.349-24.456-2.264-24.456,10.756s15.51,19.1,24.456,10.756a2.214,2.214,0,0,1,3,0,14.59,14.59,0,0,0,19.718-.007,2.216,2.216,0,0,1,2.993,0,14.594,14.594,0,0,0,18.158,1.257,2.24,2.24,0,0,1,2.761.119c6.217,5.492,16.715,1.285,16.715-7.631A10.109,10.109,0,0,0,321.741,16.674Z" transform="translate(-123.464 -3.349)" fill="#dbedff"/>
          <path id="Trazado_735088" data-name="Trazado 735088" d="M372.817,179.294h33.719L405.2,164.973H374.154Z" transform="translate(-186.937 -82.331)" fill="#f27182"/>
          <path id="Trazado_735089" data-name="Trazado 735089" d="M374.154,164.973l-1.337,14.321h15.124l1.337-14.321Z" transform="translate(-186.937 -82.331)" fill="#ed5469"/>
          <rect id="Rectángulo_344833" data-name="Rectángulo 344833" width="44.665" height="14.99" transform="translate(180.407 222.949)" fill="#00d2fc"/>
          <rect id="Rectángulo_344834" data-name="Rectángulo 344834" width="44.665" height="14.99" transform="translate(180.407 195.57)" fill="#00d2fc"/>
          <path id="Trazado_735090" data-name="Trazado 735090" d="M272.433,246.785l-43.975,22.138a3.04,3.04,0,0,0-1.672,2.714L225.1,273.4v88.1h49.692l2.05-1.022V249.5a3.039,3.039,0,0,0-4.406-2.714" transform="translate(-112.867 -123.188)" fill="#ffc365"/>
          <rect id="Rectángulo_344835" data-name="Rectángulo 344835" width="44.665" height="13.69" transform="translate(180.407 209.909)" fill="#62ddfc"/>
          <path id="Trazado_735091" data-name="Trazado 735091" d="M405.836,362.386H362.509a2.347,2.347,0,0,1-.669-.108v15.2H406.5v-15.2a2.345,2.345,0,0,1-.669.108" transform="translate(-181.432 -181.263)" fill="#62ddfc"/>
          <rect id="Rectángulo_344836" data-name="Rectángulo 344836" width="48.529" height="14.321" rx="5.216" transform="translate(178.475 168.307)" fill="#dbedff"/>
          <path id="Trazado_735092" data-name="Trazado 735092" d="M242.493,276.479a3.04,3.04,0,0,1,1.672-2.714l34.371-17.3V249.5a3.039,3.039,0,0,0-4.405-2.714l-43.975,22.138a3.039,3.039,0,0,0-1.672,2.714v88.839h14.009v-84Z" transform="translate(-114.566 -123.188)" fill="#ffa90f"/>
          <path id="Trazado_735093" data-name="Trazado 735093" d="M171.57,246.785l-43.976,22.138a3.04,3.04,0,0,0-1.672,2.714l-2.159,1.761v89.43h48.363l3.85-2.351V249.5a3.039,3.039,0,0,0-4.405-2.714" transform="translate(-62.057 -123.188)" fill="#ffc365"/>
          <path id="Trazado_735094" data-name="Trazado 735094" d="M142.1,276.479a3.04,3.04,0,0,1,1.672-2.714l34.371-17.3V249.5a3.039,3.039,0,0,0-4.4-2.714l-43.976,22.138a3.039,3.039,0,0,0-1.672,2.714v88.839H142.1v-84Z" transform="translate(-64.228 -123.188)" fill="#ffa90f"/>
          <path id="Trazado_735095" data-name="Trazado 735095" d="M73.352,246.785,29.376,268.923a3.039,3.039,0,0,0-1.672,2.714v88.839H77.757V249.5A3.039,3.039,0,0,0,73.352,246.785Z" transform="translate(-13.891 -123.188)" fill="#ffc365"/>
          <path id="Trazado_735096" data-name="Trazado 735096" d="M41.713,276.479a3.04,3.04,0,0,1,1.672-2.714l34.371-17.3V249.5a3.039,3.039,0,0,0-4.4-2.714L29.376,268.923a3.039,3.039,0,0,0-1.672,2.714v88.839H41.713v-84Z" transform="translate(-13.891 -123.188)" fill="#ffa90f"/>
          <path id="Trazado_735097" data-name="Trazado 735097" d="M251.728,474.144H11.159a3.614,3.614,0,0,0-3.614,3.614v7.885a3.614,3.614,0,0,0,3.614,3.614H251.728a3.614,3.614,0,0,0,3.614-3.614v-7.885a3.614,3.614,0,0,0-3.614-3.614" transform="translate(-3.783 -237.354)" fill="#dbedff"/>
          <path id="Trazado_735098" data-name="Trazado 735098" d="M251.728,485.665H11.159a3.614,3.614,0,0,1-3.614-3.614v7.556a3.614,3.614,0,0,0,3.614,3.614H251.728a3.614,3.614,0,0,0,3.614-3.614v-7.556a3.614,3.614,0,0,1-3.614,3.614" transform="translate(-3.783 -241.319)" fill="#b5dcff"/>
          <path id="Trazado_735099" data-name="Trazado 735099" d="M275.526,319.318H258.669a3.088,3.088,0,0,0-3.088,3.088v18.851a3.088,3.088,0,0,0,3.088,3.088h16.857a3.088,3.088,0,0,0,3.088-3.088V322.406a3.088,3.088,0,0,0-3.088-3.088" transform="translate(-128.153 -159.722)" fill="#00d2fc"/>
          <path id="Trazado_735100" data-name="Trazado 735100" d="M175.136,319.318H158.279a3.088,3.088,0,0,0-3.088,3.088v18.851a3.088,3.088,0,0,0,3.088,3.088h16.857a3.088,3.088,0,0,0,3.088-3.088V322.406a3.088,3.088,0,0,0-3.088-3.088" transform="translate(-77.815 -159.722)" fill="#00d2fc"/>
          <path id="Trazado_735101" data-name="Trazado 735101" d="M74.746,319.318H57.889a3.088,3.088,0,0,0-3.088,3.088v18.851a3.088,3.088,0,0,0,3.088,3.088H74.746a3.088,3.088,0,0,0,3.088-3.088V322.406a3.088,3.088,0,0,0-3.088-3.088" transform="translate(-27.478 -159.722)" fill="#00d2fc"/>
          <path id="Trazado_735102" data-name="Trazado 735102" d="M54.083,344.365H70.94a6.835,6.835,0,0,0,6.827-6.827V318.686a6.834,6.834,0,0,0-6.827-6.826H54.083a6.834,6.834,0,0,0-6.827,6.826v18.852a6.835,6.835,0,0,0,6.827,6.827m.652-25.026H70.288v17.548H54.735Z" transform="translate(-23.695 -155.982)" fill="#636363"/>
          <path id="Trazado_735103" data-name="Trazado 735103" d="M154.473,344.365H171.33a6.835,6.835,0,0,0,6.827-6.827V318.686a6.834,6.834,0,0,0-6.827-6.826H154.473a6.834,6.834,0,0,0-6.827,6.826v18.852a6.835,6.835,0,0,0,6.827,6.827m.652-25.026h15.553v17.548H155.125Z" transform="translate(-74.032 -155.982)" fill="#636363"/>
          <path id="Trazado_735104" data-name="Trazado 735104" d="M254.864,344.365h16.857a6.835,6.835,0,0,0,6.827-6.827V318.686a6.835,6.835,0,0,0-6.827-6.826H254.864a6.834,6.834,0,0,0-6.827,6.826v18.852a6.834,6.834,0,0,0,6.827,6.827m.652-25.026h15.553v17.548H255.515Z" transform="translate(-124.37 -155.982)" fill="#636363"/>
          <path id="Trazado_735105" data-name="Trazado 735105" d="M318.3,9.1a18.379,18.379,0,0,0-27.211-5.158,18.427,18.427,0,0,0-22.7,0,18.318,18.318,0,0,0-18.734-2.36,18.02,18.02,0,0,0-10.964,16.753,18.019,18.019,0,0,0,10.963,16.752,18.318,18.318,0,0,0,18.736-2.359,18.428,18.428,0,0,0,22.712-.01A18.46,18.46,0,0,0,311.959,34c8.834,6.5,22,.4,22-11.181A13.855,13.855,0,0,0,318.3,9.1m-2.315,18.551a5.966,5.966,0,0,0-7.366-.389,10.9,10.9,0,0,1-13.495-.935,5.982,5.982,0,0,0-8.06,0,10.876,10.876,0,0,1-14.652.005,5.97,5.97,0,0,0-8.081.016,10.7,10.7,0,0,1-11.7,1.872,10.505,10.505,0,0,1-6.466-9.893,10.506,10.506,0,0,1,6.467-9.894,10.678,10.678,0,0,1,11.7,1.873,5.971,5.971,0,0,0,8.082.017,10.874,10.874,0,0,1,14.649,0,5.976,5.976,0,0,0,8.071-.006,10.88,10.88,0,0,1,17,3.09,5.955,5.955,0,0,0,6.626,3.2h0a6.361,6.361,0,1,1-2.775,11.042" transform="translate(-119.681 0.389)" fill="#636363"/>
          <path id="Trazado_735106" data-name="Trazado 735106" d="M247.923,277.969h-2.7V195.649a6.527,6.527,0,0,0-6.52-6.52H227.788l-1.483-15.888a3.74,3.74,0,0,0-7.447.7l1.418,15.193H185.158l4.107-44.007h26.9l1.06,11.364a3.74,3.74,0,0,0,7.447-.7c-.5-5.382-3.729-39.963-4.219-45.213a6.346,6.346,0,0,0,3.782-5.8v-9.12a6.347,6.347,0,0,0-6.34-6.34H187.535a6.347,6.347,0,0,0-6.34,6.34v9.12a6.346,6.346,0,0,0,3.782,5.8c-.32,3.425-7.011,75.129-7.33,78.552h-9.959v-18.4a6.778,6.778,0,0,0-9.826-6.054l-40.227,20.251v-14.2a6.778,6.778,0,0,0-9.826-6.054L67.582,184.927v-14.2a6.778,6.778,0,0,0-9.826-6.054L13.781,186.814a6.744,6.744,0,0,0-3.729,6.054v85.1h-2.7A7.362,7.362,0,0,0,0,285.322v7.387a7.362,7.362,0,0,0,7.354,7.353H118.913a3.739,3.739,0,0,0,0-7.479H7.479v-7.136H247.8v7.136H136.363a3.739,3.739,0,0,0,0,7.479h111.56a7.362,7.362,0,0,0,7.353-7.354v-7.387A7.361,7.361,0,0,0,247.923,277.969Zm-57.96-140.326.638-6.842h24.232l.639,6.842Zm1.336-14.32,1.139-12.2H213l1.139,12.2ZM188.673,96.8h28.087v6.842H188.673ZM60.1,277.969H17.53V193.3L60.1,171.867Zm50.052,0H67.582V193.3l42.574-21.433Zm50.053,0H117.635V193.3l42.574-21.433Zm61.1,0H184.124v-6.211H221.31Zm0-13.69H184.124v-6.211H221.31Zm0-13.69H184.124v-6.211H221.31Zm0-13.69H184.124v-6.113H221.31Zm1.932-13.592h-41.05v-6.842h41.05Zm14.5,54.661h-8.958V228.994a6.317,6.317,0,0,0,1.932-4.548v-9.119a6.347,6.347,0,0,0-6.34-6.34H181.054a6.347,6.347,0,0,0-6.34,6.34v9.12a6.317,6.317,0,0,0,1.933,4.548v48.974h-8.958V196.608h70.059Z" transform="translate(0 -44.398)" fill="#636363"/>
        </g>
      </g>
    </g>
  </g>
</svg>
