<svg xmlns="http://www.w3.org/2000/svg" xmlns:xlink="http://www.w3.org/1999/xlink" width="85" height="92" viewBox="0 0 85 92">
  <defs>
    <clipPath id="clip-path">
      <rect id="Rectángulo_344839" data-name="Rectángulo 344839" width="67" height="59" transform="translate(0 0.232)" fill="none"/>
    </clipPath>
  </defs>
  <g id="Grupo_1010022" data-name="Grupo 1010022" transform="translate(-377 -2637)">
    <g id="Grupo_1010021" data-name="Grupo 1010021">
      <rect id="Rectángulo_338875" data-name="Rectángulo 338875" width="85" height="92" rx="10" transform="translate(377 2637)" fill="#ff6e33"/>
      <g id="Grupo_1009956" data-name="Grupo 1009956" transform="translate(388 2653.769)">
        <g id="Grupo_1009955" data-name="Grupo 1009955" transform="translate(0 0)" clip-path="url(#clip-path)">
          <path id="Trazado_735107" data-name="Trazado 735107" d="M99.3,40H52.188A4.186,4.186,0,0,0,48,44.188V63.031a4.186,4.186,0,0,0,4.188,4.188h8.375a4.186,4.186,0,0,0,4.188-4.188V58.844a2.087,2.087,0,0,1,2.094-2.094H80.453a2.093,2.093,0,0,1,2.094,2.094V78.734h20.938V44.188A4.186,4.186,0,0,0,99.3,40" transform="translate(-41.719 -35.206)" fill="#ac92ec"/>
          <path id="Trazado_735108" data-name="Trazado 735108" d="M357.234,216A5.234,5.234,0,1,1,352,221.234,5.234,5.234,0,0,1,357.234,216" transform="translate(-305.938 -188.174)" fill="#e6e9ed"/>
          <path id="Trazado_735109" data-name="Trazado 735109" d="M68.719,336v10.469a4.186,4.186,0,0,1-4.187,4.188H16.375A8.373,8.373,0,0,1,8,342.281v-4.187A2.087,2.087,0,0,1,10.094,336H68.719Z" transform="translate(-6.953 -292.471)" fill="#e6e9ed"/>
          <path id="Trazado_735110" data-name="Trazado 735110" d="M277.234,8l-2.094,4.188H272V8Z" transform="translate(-236.406 -7.393)" fill="#e6e9ed"/>
          <path id="Trazado_735111" data-name="Trazado 735111" d="M302.281,8l-2.094,4.188H296L298.094,8Z" transform="translate(-257.266 -7.393)" fill="#656d78"/>
          <path id="Trazado_735112" data-name="Trazado 735112" d="M333.234,8v4.188H328L330.094,8Z" transform="translate(-285.078 -7.393)" fill="#e6e9ed"/>
          <rect id="Rectángulo_344838" data-name="Rectángulo 344838" width="10" height="6" transform="translate(46 9.232)" fill="#967adc"/>
          <path id="Trazado_735113" data-name="Trazado 735113" d="M475.141,80a1.05,1.05,0,0,1,1.047,1.047V91.516a1.05,1.05,0,0,1-1.047,1.047H472V80Z" transform="translate(-410.234 -69.971)" fill="#e6e9ed"/>
          <path id="Trazado_735114" data-name="Trazado 735114" d="M210.094,88A2.094,2.094,0,1,1,208,90.094,2.1,2.1,0,0,1,210.094,88" transform="translate(-180.781 -76.924)" fill="#e6e9ed"/>
          <path id="Trazado_735115" data-name="Trazado 735115" d="M226.094,90.094A2.1,2.1,0,0,0,224,88h6.281a2.094,2.094,0,0,1,0,4.188H224a2.1,2.1,0,0,0,2.094-2.094" transform="translate(-194.688 -76.924)" fill="#967adc"/>
          <path id="Trazado_735116" data-name="Trazado 735116" d="M9.422,386.469A9.432,9.432,0,0,1,0,377.047a1.047,1.047,0,0,1,2.094,0,7.338,7.338,0,0,0,7.328,7.328,1.047,1.047,0,0,1,0,2.094" transform="translate(0 -327.237)"/>
          <path id="Trazado_735117" data-name="Trazado 735117" d="M433.047,414.281a1.047,1.047,0,0,1,0-2.094,3.144,3.144,0,0,0,3.141-3.141,1.047,1.047,0,0,1,2.094,0,5.24,5.24,0,0,1-5.234,5.234" transform="translate(-375.469 -355.049)"/>
          <path id="Trazado_735118" data-name="Trazado 735118" d="M437.242,38.281a1.046,1.046,0,0,1-1.047-1.047,3.144,3.144,0,0,0-3.141-3.141,1.047,1.047,0,0,1,0-2.094,5.24,5.24,0,0,1,5.234,5.234,1.046,1.046,0,0,1-1.047,1.047" transform="translate(-375.476 -28.252)"/>
          <path id="Trazado_735119" data-name="Trazado 735119" d="M41.031,38.281a1.046,1.046,0,0,1-1.047-1.047A5.24,5.24,0,0,1,45.218,32a1.047,1.047,0,0,1,0,2.094,3.144,3.144,0,0,0-3.141,3.141,1.046,1.046,0,0,1-1.047,1.047" transform="translate(-34.752 -28.252)"/>
          <path id="Trazado_735120" data-name="Trazado 735120" d="M45.218,214.281a5.24,5.24,0,0,1-5.234-5.234,1.047,1.047,0,1,1,2.094,0,3.144,3.144,0,0,0,3.141,3.141,1.047,1.047,0,0,1,0,2.094" transform="translate(-34.752 -181.221)"/>
          <path id="Trazado_735121" data-name="Trazado 735121" d="M137.047,214.281a1.047,1.047,0,0,1,0-2.094,3.144,3.144,0,0,0,3.141-3.141,1.047,1.047,0,1,1,2.094,0,5.24,5.24,0,0,1-5.234,5.234" transform="translate(-118.203 -181.221)"/>
          <path id="Trazado_735122" data-name="Trazado 735122" d="M169.047,164.188A1.046,1.046,0,0,1,168,163.141,3.144,3.144,0,0,1,171.141,160a1.047,1.047,0,0,1,0,2.094,1.047,1.047,0,0,0-1.047,1.047,1.046,1.046,0,0,1-1.047,1.047" transform="translate(-146.016 -139.502)"/>
          <path id="Trazado_735123" data-name="Trazado 735123" d="M291.133,164.188a1.046,1.046,0,0,1-1.047-1.047,1.047,1.047,0,0,0-1.047-1.047,1.047,1.047,0,0,1,0-2.094,3.144,3.144,0,0,1,3.141,3.141,1.046,1.046,0,0,1-1.047,1.047" transform="translate(-250.306 -139.502)"/>
          <path id="Trazado_735124" data-name="Trazado 735124" d="M1.047,350.281A1.046,1.046,0,0,1,0,349.234v-4.187a1.047,1.047,0,0,1,2.094,0v4.188a1.046,1.046,0,0,1-1.047,1.047" transform="translate(0 -299.424)"/>
          <path id="Trazado_735125" data-name="Trazado 735125" d="M465.047,111.109A1.046,1.046,0,0,1,464,110.063V65.047a1.047,1.047,0,0,1,2.094,0v45.016a1.046,1.046,0,0,1-1.047,1.047" transform="translate(-403.281 -56.065)"/>
          <path id="Trazado_735126" data-name="Trazado 735126" d="M113.2,442.094H65.047a1.047,1.047,0,0,1,0-2.094H113.2a1.047,1.047,0,0,1,0,2.094" transform="translate(-55.625 -382.862)"/>
          <path id="Trazado_735127" data-name="Trazado 735127" d="M1.047,332.188A1.046,1.046,0,0,1,0,331.141,3.144,3.144,0,0,1,3.141,328a1.047,1.047,0,0,1,0,2.094,1.047,1.047,0,0,0-1.047,1.047,1.046,1.046,0,0,1-1.047,1.047" transform="translate(0 -285.518)"/>
          <path id="Trazado_735128" data-name="Trazado 735128" d="M75.673,330.094H17.047a1.047,1.047,0,0,1,0-2.094H75.673a1.047,1.047,0,0,1,0,2.094" transform="translate(-13.906 -285.518)"/>
          <path id="Trazado_735129" data-name="Trazado 735129" d="M120.157,34.094H73.047a1.047,1.047,0,1,1,0-2.094h47.11a1.047,1.047,0,0,1,0,2.094" transform="translate(-62.578 -28.252)"/>
          <path id="Trazado_735130" data-name="Trazado 735130" d="M41.031,84.938a1.046,1.046,0,0,1-1.047-1.047V65.047a1.047,1.047,0,0,1,2.094,0V83.891a1.046,1.046,0,0,1-1.047,1.047" transform="translate(-34.752 -56.065)"/>
          <path id="Trazado_735131" data-name="Trazado 735131" d="M81.408,242.094H73.031a1.047,1.047,0,1,1,0-2.094h8.377a1.047,1.047,0,0,1,0,2.094" transform="translate(-62.564 -209.034)"/>
          <path id="Trazado_735132" data-name="Trazado 735132" d="M305.039,197.984a1.046,1.046,0,0,1-1.047-1.047V177.047a1.047,1.047,0,0,1,2.094,0v19.891a1.046,1.046,0,0,1-1.047,1.047" transform="translate(-264.212 -153.409)"/>
          <path id="Trazado_735133" data-name="Trazado 735133" d="M198.655,162.094H185.047a1.047,1.047,0,0,1,0-2.094h13.608a1.047,1.047,0,0,1,0,2.094" transform="translate(-159.922 -139.502)"/>
          <path id="Trazado_735134" data-name="Trazado 735134" d="M169.047,182.281A1.046,1.046,0,0,1,168,181.234v-4.187a1.047,1.047,0,1,1,2.094,0v4.188a1.046,1.046,0,0,1-1.047,1.047" transform="translate(-146.016 -153.409)"/>
          <path id="Trazado_735135" data-name="Trazado 735135" d="M105.047,250.476A1.046,1.046,0,0,1,104,249.429v-8.374a1.047,1.047,0,0,1,2.094,0v8.374a1.046,1.046,0,0,1-1.047,1.047" transform="translate(-90.391 -209.041)"/>
          <path id="Trazado_735136" data-name="Trazado 735136" d="M107.134,266.086h-2.095a1.047,1.047,0,0,1,0-2.094h2.095a1.047,1.047,0,0,1,0,2.094" transform="translate(-90.384 -229.886)"/>
          <path id="Trazado_735137" data-name="Trazado 735137" d="M468.194,74.094h-3.14a1.047,1.047,0,0,1,0-2.094h3.14a1.047,1.047,0,0,1,0,2.094" transform="translate(-403.288 -63.018)"/>
          <path id="Trazado_735138" data-name="Trazado 735138" d="M490.094,75.141a1.046,1.046,0,0,1-1.047-1.047v0a1.046,1.046,0,1,1,0-2.092,2.1,2.1,0,0,1,2.094,2.094,1.046,1.046,0,0,1-1.047,1.047" transform="translate(-424.141 -63.018)"/>
          <path id="Trazado_735139" data-name="Trazado 735139" d="M468.194,170.094h-3.14a1.047,1.047,0,1,1,0-2.094h3.14a1.047,1.047,0,0,1,0,2.094" transform="translate(-403.288 -146.456)"/>
          <path id="Trazado_735140" data-name="Trazado 735140" d="M489.047,163.141a1.655,1.655,0,1,1,2.094-2.094,2.1,2.1,0,0,1-2.094,2.094" transform="translate(-424.141 -139.502)"/>
          <path id="Trazado_735141" data-name="Trazado 735141" d="M497.047,92.563A1.046,1.046,0,0,1,496,91.516V81.047a1.047,1.047,0,0,1,2.094,0V91.516a1.046,1.046,0,0,1-1.047,1.047" transform="translate(-431.094 -69.971)"/>
          <path id="Trazado_735142" data-name="Trazado 735142" d="M466.094,106.094h-1.047a1.047,1.047,0,0,1,0-2.094h1.047a1.047,1.047,0,0,1,0,2.094" transform="translate(-403.281 -90.831)"/>
          <path id="Trazado_735143" data-name="Trazado 735143" d="M466.1,138.094h-1.046a1.047,1.047,0,1,1,0-2.094H466.1a1.047,1.047,0,0,1,0,2.094" transform="translate(-403.288 -118.643)"/>
          <path id="Trazado_735144" data-name="Trazado 735144" d="M350.281,220.563a6.281,6.281,0,1,1,6.281-6.281,6.288,6.288,0,0,1-6.281,6.281m0-10.469a4.188,4.188,0,1,0,4.188,4.188,4.192,4.192,0,0,0-4.187-4.187" transform="translate(-298.984 -181.221)"/>
          <path id="Trazado_735145" data-name="Trazado 735145" d="M385.252,186.094a1.047,1.047,0,0,1-.012-2.094h.012a1.047,1.047,0,0,1,0,2.094" transform="translate(-333.924 -160.362)"/>
          <path id="Trazado_735146" data-name="Trazado 735146" d="M385.252,234.094a1.047,1.047,0,0,1-.012-2.094h.012a1.047,1.047,0,0,1,0,2.094" transform="translate(-333.924 -202.081)"/>
          <path id="Trazado_735147" data-name="Trazado 735147" d="M353.252,194.67a1.047,1.047,0,0,1-.012-2.094h.012a1.047,1.047,0,0,1,0,2.094" transform="translate(-306.111 -167.816)"/>
          <path id="Trazado_735148" data-name="Trazado 735148" d="M329.828,218.094a1.047,1.047,0,0,1-.011-2.094h.011a1.047,1.047,0,0,1,0,2.094" transform="translate(-285.753 -188.174)"/>
          <path id="Trazado_735149" data-name="Trazado 735149" d="M440.668,218.094a1.047,1.047,0,0,1-.012-2.094h.012a1.047,1.047,0,0,1,0,2.094" transform="translate(-382.088 -188.174)"/>
          <path id="Trazado_735150" data-name="Trazado 735150" d="M417.236,194.67a1.047,1.047,0,0,1-.012-2.094h.012a1.047,1.047,0,0,1,0,2.094" transform="translate(-361.722 -167.816)"/>
          <path id="Trazado_735151" data-name="Trazado 735151" d="M105.047,58.172A1.046,1.046,0,0,1,104,57.125V33.047a1.047,1.047,0,0,1,2.094,0V57.125a1.046,1.046,0,0,1-1.047,1.047" transform="translate(-90.391 -28.252)"/>
          <path id="Trazado_735152" data-name="Trazado 735152" d="M355.516,79.328H345.047A1.046,1.046,0,0,1,344,78.281V73.047A1.046,1.046,0,0,1,345.047,72h10.469a1.046,1.046,0,0,1,1.047,1.047v5.234a1.046,1.046,0,0,1-1.047,1.047m-9.422-2.094h8.375V74.094h-8.375Z" transform="translate(-298.984 -63.018)"/>
          <path id="Trazado_735153" data-name="Trazado 735153" d="M203.141,86.281a3.141,3.141,0,1,1,3.141-3.141,3.144,3.144,0,0,1-3.141,3.141m0-4.187a1.047,1.047,0,1,0,1.047,1.047,1.047,1.047,0,0,0-1.047-1.047" transform="translate(-173.828 -69.971)"/>
          <path id="Trazado_735154" data-name="Trazado 735154" d="M265.047,86.281a1.047,1.047,0,0,1,0-2.094,1.047,1.047,0,0,0,0-2.094,1.047,1.047,0,0,1,0-2.094,3.141,3.141,0,0,1,0,6.281" transform="translate(-229.453 -69.971)"/>
          <path id="Trazado_735155" data-name="Trazado 735155" d="M223.328,114.094h-6.281a1.047,1.047,0,0,1,0-2.094h6.281a1.047,1.047,0,0,1,0,2.094" transform="translate(-187.734 -97.784)"/>
          <path id="Trazado_735156" data-name="Trazado 735156" d="M223.328,82.094h-6.281a1.047,1.047,0,0,1,0-2.094h6.281a1.047,1.047,0,0,1,0,2.094" transform="translate(-187.734 -69.971)"/>
          <path id="Trazado_735157" data-name="Trazado 735157" d="M265.047,6.281A1.046,1.046,0,0,1,264,5.234V1.047a1.047,1.047,0,0,1,2.094,0V5.234a1.046,1.046,0,0,1-1.047,1.047" transform="translate(-229.453 -0.44)"/>
          <path id="Trazado_735158" data-name="Trazado 735158" d="M277.609,2.094H265.047a1.047,1.047,0,0,1,0-2.094h12.563a1.047,1.047,0,0,1,0,2.094" transform="translate(-229.453 -0.44)"/>
          <path id="Trazado_735159" data-name="Trazado 735159" d="M361.047,6.281A1.046,1.046,0,0,1,360,5.234V1.047a1.047,1.047,0,0,1,2.094,0V5.234a1.046,1.046,0,0,1-1.047,1.047" transform="translate(-312.891 -0.44)"/>
          <path id="Trazado_735160" data-name="Trazado 735160" d="M289.047,6.285a1.046,1.046,0,0,1-.935-1.515L290.206.583a1.047,1.047,0,0,1,1.873.937l-2.094,4.187a1.049,1.049,0,0,1-.938.578" transform="translate(-250.314 -0.444)"/>
          <path id="Trazado_735161" data-name="Trazado 735161" d="M321.047,6.285a1.046,1.046,0,0,1-.935-1.515L322.206.583a1.047,1.047,0,0,1,1.873.937l-2.094,4.187a1.049,1.049,0,0,1-.938.578" transform="translate(-278.126 -0.444)"/>
          <path id="Trazado_735162" data-name="Trazado 735162" d="M425.047,13.234A1.046,1.046,0,0,1,424,12.188V9.047a1.047,1.047,0,0,1,2.094,0v3.141a1.046,1.046,0,0,1-1.047,1.047" transform="translate(-368.516 -7.393)"/>
          <path id="Trazado_735163" data-name="Trazado 735163" d="M419.142,10.094h-2.095a1.047,1.047,0,1,1,0-2.094h2.095a1.047,1.047,0,0,1,0,2.094" transform="translate(-361.563 -7.393)"/>
          <path id="Trazado_735164" data-name="Trazado 735164" d="M81.422,298.086H73.047a1.047,1.047,0,1,1,0-2.094h8.375a1.047,1.047,0,0,1,0,2.094" transform="translate(-62.578 -257.699)"/>
          <path id="Trazado_735165" data-name="Trazado 735165" d="M137.045,291.138a1.047,1.047,0,0,1-.74-1.787l1.047-1.046a1.047,1.047,0,0,1,1.48,1.48l-1.047,1.046A1.044,1.044,0,0,1,137.045,291.138Z" transform="translate(-118.201 -250.751)"/>
          <path id="Trazado_735166" data-name="Trazado 735166" d="M66.092,291.138a1.044,1.044,0,0,1-.74-.307l-1.047-1.046a1.047,1.047,0,0,1,1.48-1.48l1.047,1.046a1.047,1.047,0,0,1-.74,1.787" transform="translate(-55.623 -250.751)"/>
        </g>
      </g>
    </g>
  </g>
</svg>
