<svg xmlns="http://www.w3.org/2000/svg" xmlns:xlink="http://www.w3.org/1999/xlink" width="74" height="74" viewBox="0 0 74 74">
  <defs>
    <clipPath id="clip-path">
      <rect id="Rectángulo_344794" data-name="Rectángulo 344794" width="74" height="74" transform="translate(0 0.004)" fill="none"/>
    </clipPath>
  </defs>
  <g id="Grupo_1009861" data-name="Grupo 1009861" transform="translate(0 -0.004)">
    <g id="Grupo_1009860" data-name="Grupo 1009860" clip-path="url(#clip-path)">
      <path id="Trazado_735042" data-name="Trazado 735042" d="M126.977,7.5H70.637a1.012,1.012,0,0,0-1.012,1.012V20.359h58.363V8.512A1.012,1.012,0,0,0,126.977,7.5" transform="translate(-59.562 -6.416)" fill="#b9def9"/>
      <path id="Trazado_735043" data-name="Trazado 735043" d="M417.857,264.745a4.488,4.488,0,0,1-2.253-3.894l-4.522-35.916h8.506a1.012,1.012,0,0,1,1.012,1.012l1.943,34.9C422.543,263.331,418.516,265.124,417.857,264.745Z" transform="translate(-351.667 -192.425)" fill="#ffc344"/>
      <path id="Trazado_735044" data-name="Trazado 735044" d="M463.674,224.936H459.2a1.012,1.012,0,0,1,1.012,1.012v34.9a4.488,4.488,0,0,1-2.253,3.894,4.491,4.491,0,0,0,6.726-3.894v-34.9A1.012,1.012,0,0,0,463.674,224.936Z" transform="translate(-391.77 -192.425)" fill="#feb137"/>
      <path id="Trazado_735045" data-name="Trazado 735045" d="M97.368,101.424H38.562V39.574a1.012,1.012,0,0,1,1.012-1.012H94.681L99.247,45.3V99.545a1.879,1.879,0,0,1-1.879,1.879" transform="translate(-32.989 -32.989)" fill="#f0fcff"/>
      <path id="Trazado_735046" data-name="Trazado 735046" d="M430.774,64.978l.956,2.916v54.248a1.81,1.81,0,0,1-1.8,1.879h4.408a1.879,1.879,0,0,0,1.879-1.879V67.894Z" transform="translate(-367.795 -55.587)" fill="#d7ecfe"/>
      <path id="Trazado_735047" data-name="Trazado 735047" d="M426.84,38.562v5.722a1.012,1.012,0,0,0,1.012,1.012h5.722Z" transform="translate(-365.148 -32.989)" fill="#9dcffd"/>
      <path id="Trazado_735048" data-name="Trazado 735048" d="M67.756,234.279V194.886a1.012,1.012,0,0,0-1.012-1.012H50.15l-4.489,6.734H8.512A1.012,1.012,0,0,0,7.5,201.62v32.669a4.48,4.48,0,0,0,4.481,4.48H72.245A4.489,4.489,0,0,1,67.756,234.279Z" transform="translate(-6.416 -165.853)" fill="#ffe177"/>
      <path id="Trazado_735049" data-name="Trazado 735049" d="M410.72,234.279h0V194.886a1.012,1.012,0,0,0-1.012-1.012h-4.336a1.012,1.012,0,0,1,1.012,1.012v39.394h0a4.489,4.489,0,0,0,4.489,4.489h4.336a4.489,4.489,0,0,1-4.489-4.489" transform="translate(-346.783 -165.853)" fill="#f9d45d"/>
      <path id="Trazado_735050" data-name="Trazado 735050" d="M67.828,404.757H55.1a1.012,1.012,0,0,1-1.012-1.012V396.79a1.012,1.012,0,0,1,1.012-1.012H67.828a1.012,1.012,0,0,1,1.012,1.012v6.956a1.012,1.012,0,0,1-1.012,1.012" transform="translate(-46.275 -338.575)" fill="#ffc344"/>
      <path id="Trazado_735051" data-name="Trazado 735051" d="M145.678,395.778h-4.336a1.012,1.012,0,0,1,1.012,1.012v6.956a1.012,1.012,0,0,1-1.012,1.012h4.336a1.012,1.012,0,0,0,1.012-1.012V396.79a1.012,1.012,0,0,0-1.012-1.012" transform="translate(-120.913 -338.575)" fill="#feb137"/>
      <path id="Trazado_735052" data-name="Trazado 735052" d="M71.9,31.427H69.511V2.1a2.1,2.1,0,0,0-2.1-2.1H11.075a2.1,2.1,0,0,0-2.1,2.1V4.489H6.585a2.1,2.1,0,0,0-2.1,2.1V19.74a1.084,1.084,0,0,0,2.168,0V6.657H60.608V11.3a2.1,2.1,0,0,0,2.1,2.1h4.638V66.556a.8.8,0,0,1-.795.795H65.021V43.44a1.084,1.084,0,1,0-2.168,0V68.427a5.545,5.545,0,0,0,1.164,3.405H5.564a3.4,3.4,0,0,1-3.4-3.4v-32.6H39.245a1.084,1.084,0,0,0,.9-.483L44.314,29.1H62.853v9.611a1.084,1.084,0,1,0,2.168,0V29.033a2.1,2.1,0,0,0-2.1-2.1H43.734a1.083,1.083,0,0,0-.9.483l-4.168,6.252H6.657V24.464a1.084,1.084,0,1,0-2.168,0v9.207H2.1a2.1,2.1,0,0,0-2.1,2.1V68.436A5.571,5.571,0,0,0,5.564,74H68.427A5.58,5.58,0,0,0,74,68.427v-34.9A2.1,2.1,0,0,0,71.9,31.427ZM11.147,2.168h56.2V9.691c-4.99-4.99-4.865-4.88-4.983-4.972L62.337,4.7a1.112,1.112,0,0,0-.591-.211h-50.6ZM62.776,8.191l3.033,3.033H62.776Zm9.056,60.236a3.41,3.41,0,0,1-3.391,3.405h-.015A3.411,3.411,0,0,1,65.2,69.519h1.346a2.966,2.966,0,0,0,2.963-2.963V33.595h2.321V68.427Z"/>
      <path id="Trazado_735053" data-name="Trazado 735053" d="M78.74,95.355H116.9a1.084,1.084,0,1,0,0-2.168H78.74a1.084,1.084,0,0,0,0,2.168" transform="translate(-66.432 -79.718)"/>
      <path id="Trazado_735054" data-name="Trazado 735054" d="M78.74,147.588h24.692a1.084,1.084,0,1,0,0-2.168H78.74a1.084,1.084,0,1,0,0,2.168" transform="translate(-66.432 -124.402)"/>
      <path id="Trazado_735055" data-name="Trazado 735055" d="M78.74,178.65h24.692a1.084,1.084,0,1,0,0-2.168H78.74a1.084,1.084,0,1,0,0,2.168" transform="translate(-66.432 -150.975)"/>
      <path id="Trazado_735056" data-name="Trazado 735056" d="M60.784,397.257a1.084,1.084,0,1,0,0,2.168h3.84a2.1,2.1,0,0,0,2.1-2.1v-6.955a2.1,2.1,0,0,0-2.1-2.1H48.689a2.1,2.1,0,0,0-2.1,2.1v6.955a2.1,2.1,0,0,0,2.1,2.1h7.371a1.084,1.084,0,1,0,0-2.168h-7.3v-6.811h15.79v6.811Z" transform="translate(-39.859 -332.159)"/>
    </g>
  </g>
</svg>
