<svg xmlns="http://www.w3.org/2000/svg" width="573" height="298" viewBox="0 0 573 298">
  <g id="Grupo_57923" data-name="Grupo 57923" transform="translate(-3848.39 1742.438)">
    <rect id="Rectángulo_5242" data-name="Rectángulo 5242" width="573" height="298" transform="translate(3848.39 -1742.438)" fill="none"/>
    <g id="Grupo_56525" data-name="Grupo 56525">
      <path id="Trazado_102182" data-name="Trazado 102182" d="M3848.39-1444.438l32.363-46.087h505.984l34.653,46.087Z" fill="#0075a4"/>
      <g id="Icons">
        <g id="Grupo_56495" data-name="Grupo 56495">
          <g id="Grupo_56474" data-name="Grupo 56474">
            <path id="Trazado_102183" data-name="Trazado 102183" d="M4075.149-1594.756c9.109,0,16.5-8.155,16.5-18.214v-9.106c0-10.058-7.386-18.213-16.5-18.213H4066.9v36.426C4066.9-1598.832,4070.592-1594.756,4075.149-1594.756Z" fill="#0a5078"/>
          </g>
          <g id="Grupo_56475" data-name="Grupo 56475">
            <path id="Trazado_102184" data-name="Trazado 102184" d="M4042.157-1594.756c4.557,0,8.248-4.076,8.248-9.107v-36.426h-8.248c-9.109,0-16.495,8.155-16.495,18.213v9.106C4025.662-1602.911,4033.048-1594.756,4042.157-1594.756Z" fill="#0a5078"/>
          </g>
          <g id="Grupo_56476" data-name="Grupo 56476">
            <path id="Trazado_102185" data-name="Trazado 102185" d="M4050.405-1685.822h16.5v27.32h-16.5Z" fill="#0a5078"/>
          </g>
          <g id="Grupo_56477" data-name="Grupo 56477">
            <path id="Trazado_102186" data-name="Trazado 102186" d="M4050.405-1663.056h8.248a15.257,15.257,0,0,0,8.248-2.436v-20.33h-16.5Z" fill="#00325a"/>
          </g>
          <g id="Grupo_56480" data-name="Grupo 56480">
            <g id="Grupo_56478" data-name="Grupo 56478">
              <path id="Trazado_102187" data-name="Trazado 102187" d="M4075.149-1640.289H4066.9v22.766h8.248c4.557,0,8.247-4.075,8.247-9.106v-11.224A15.252,15.252,0,0,0,4075.149-1640.289Z" fill="#00325a"/>
            </g>
            <g id="Grupo_56479" data-name="Grupo 56479">
              <path id="Trazado_102188" data-name="Trazado 102188" d="M4050.405-1617.523v-22.766h-8.248a15.252,15.252,0,0,0-8.247,2.436v11.224c0,5.031,3.691,9.106,8.247,9.106Z" fill="#00325a"/>
            </g>
          </g>
          <g id="Grupo_56481" data-name="Grupo 56481">
            <path id="Trazado_102189" data-name="Trazado 102189" d="M4042.157-1622.076h32.992c4.557,0,8.247-4.075,8.247-9.107V-1649.4c0-5.031-3.69-9.106-8.247-9.106h-32.992c-4.556,0-8.247,4.075-8.247,9.106v18.213C4033.91-1626.151,4037.6-1622.076,4042.157-1622.076Z" fill="#25ced1"/>
          </g>
          <g id="Grupo_56482" data-name="Grupo 56482">
            <path id="Trazado_102190" data-name="Trazado 102190" d="M3992.675-1503.69a15.8,15.8,0,0,1-12.269-6.029l-74.23-91.066a19.648,19.648,0,0,1-.07-24.283l57.734-72.852a15.882,15.882,0,0,1,12.335-6.115h82.478c9.11,0,16.5,8.155,16.5,18.213s-7.386,18.213-16.5,18.213h-75.071l-43.013,54.562,64.362,78.959a19.562,19.562,0,0,1-1.229,25.721A15.576,15.576,0,0,1,3992.675-1503.69Z" fill="#8e8e8e"/>
          </g>
          <g id="Grupo_56483" data-name="Grupo 56483">
            <path id="Trazado_102191" data-name="Trazado 102191" d="M3963.845-1697.92l-8.232,10.222c-.037.619-.057,1.247-.057,1.876,0,13.664,9.085,24.988,20.953,27l7.073-8.788h15.155a28.86,28.86,0,0,0,6.3-18.213,28.876,28.876,0,0,0-6.3-18.213h-22.566a15.865,15.865,0,0,0-12.33,6.115Z" fill="#636363"/>
          </g>
          <g id="Grupo_56484" data-name="Grupo 56484">
            <path id="Trazado_102192" data-name="Trazado 102192" d="M3940.573-1613.047l2.586-3.283c.017-.391.025-.792.025-1.193,0-13.906-9.407-25.38-21.576-27.1l-15.494,19.551a19.643,19.643,0,0,0,.07,24.283l8.347,10.24a22.5,22.5,0,0,0,3.909.342c11.556,0,21.263-8.747,23.981-20.572Z" fill="#636363"/>
          </g>
          <g id="Grupo_56485" data-name="Grupo 56485">
            <ellipse id="Elipse_4086" data-name="Elipse 4086" cx="24.743" cy="27.32" rx="24.743" ry="27.32" transform="translate(3893.697 -1640.289)" fill="#25ced1"/>
          </g>
          <g id="Grupo_56486" data-name="Grupo 56486">
            <ellipse id="Elipse_4087" data-name="Elipse 4087" cx="24.743" cy="27.32" rx="24.743" ry="27.32" transform="translate(3951.432 -1713.142)" fill="#25ced1"/>
          </g>
          <g id="Grupo_56487" data-name="Grupo 56487">
            <ellipse id="Elipse_4088" data-name="Elipse 4088" cx="8.248" cy="9.107" rx="8.248" ry="9.107" transform="translate(3967.927 -1694.929)" fill="#f0f0f0"/>
          </g>
          <g id="Grupo_56488" data-name="Grupo 56488">
            <ellipse id="Elipse_4089" data-name="Elipse 4089" cx="8.248" cy="9.107" rx="8.248" ry="9.107" transform="translate(3910.193 -1622.076)" fill="#f0f0f0"/>
          </g>
          <g id="Grupo_56489" data-name="Grupo 56489">
            <ellipse id="Elipse_4090" data-name="Elipse 4090" cx="8.248" cy="9.107" rx="8.248" ry="9.107" transform="translate(4050.405 -1694.929)" fill="#fab400"/>
          </g>
          <g id="Grupo_56490" data-name="Grupo 56490">
            <ellipse id="Elipse_4091" data-name="Elipse 4091" cx="4.124" cy="4.553" rx="4.124" ry="4.553" transform="translate(4042.157 -1640.289)" fill="#636363"/>
          </g>
          <g id="Grupo_56491" data-name="Grupo 56491">
            <ellipse id="Elipse_4092" data-name="Elipse 4092" cx="4.124" cy="4.553" rx="4.124" ry="4.553" transform="translate(4066.901 -1640.289)" fill="#636363"/>
          </g>
          <g id="Grupo_56492" data-name="Grupo 56492">
            <path id="Trazado_102193" data-name="Trazado 102193" d="M3984.423-1567.437c13.666,0,24.743,12.231,24.743,27.32v27.32h-49.487v-27.32C3959.679-1555.206,3970.756-1567.437,3984.423-1567.437Z" fill="#0a5078"/>
          </g>
          <g id="Grupo_56493" data-name="Grupo 56493">
            <ellipse id="Elipse_4093" data-name="Elipse 4093" cx="8.248" cy="9.107" rx="8.248" ry="9.107" transform="translate(3976.175 -1549.223)" fill="#f0f0f0"/>
          </g>
          <g id="Grupo_56494" data-name="Grupo 56494">
            <path id="Trazado_102194" data-name="Trazado 102194" d="M3959.991-1514.593h49.175v3.634h-49.175Z" fill="#00325a"/>
          </g>
        </g>
      </g>
      <path id="Trazado_102195" data-name="Trazado 102195" d="M4373.98-1555.725v12.939s-4.127,7.27-6.856,8.4h-49.486l-3.635-1.134-1.595,3.635h-123.5l-.328-.117-5.574-1.931-42,5.449s-1.329-.063-3.236-.313c-5.347-.7-15.221-2.861-12.884-9.225,0,0-2.228-12.062,0-19.067,0,0,.68-9.764,9.077-13.173s33.147-9.991,46.765-12.023c0,0,12.031-3.636,17.254-8.4a150.437,150.437,0,0,1,26.33-15.182,80.366,80.366,0,0,1,24.75-6.255c16.488-1.547,52.324-3.932,75.136,1.681a79.13,79.13,0,0,1,38.987,23.039,21.653,21.653,0,0,1,5.738,14.736v4.91l1.587,5.675C4370.525-1562.081,4373.98-1559.587,4373.98-1555.725Z" fill="#ff8a5b"/>
      <path id="Trazado_102196" data-name="Trazado 102196" d="M4188.686-1534.3c0,.774-.032,1.548-.1,2.306l-5.574-1.931-42,5.449s-1.329-.063-3.236-.313a25.611,25.611,0,0,1-.594-5.511,25.753,25.753,0,0,1,25.751-25.752A25.754,25.754,0,0,1,4188.686-1534.3Z" fill="#2e3235"/>
      <circle id="Elipse_4094" data-name="Elipse 4094" cx="21.045" cy="21.045" r="21.045" transform="translate(4141.889 -1555.349)" fill="#3e4347"/>
      <path id="Trazado_102197" data-name="Trazado 102197" d="M4313.511-1534.4l.492-1.126,3.635,1.134h47.368a25.749,25.749,0,0,0-25.744-25.666A25.748,25.748,0,0,0,4313.511-1534.4Z" fill="#2e3235"/>
      <g id="Grupo_56496" data-name="Grupo 56496">
        <circle id="Elipse_4095" data-name="Elipse 4095" cx="21.045" cy="21.045" r="21.045" transform="translate(4318.209 -1555.349)" fill="#3e4347"/>
        <path id="Trazado_102198" data-name="Trazado 102198" d="M4264.376-1607.228c-4.37.149-7.137.3-7.192.305l-.156.008h-.156c-.438-.016-.876-.016-1.314-.016-19.083,0-38.1,11.336-47.735,18.09a27.907,27.907,0,0,0-9.764,12.188l60.814-4.855Z" fill="#3e4347"/>
        <path id="Trazado_102199" data-name="Trazado 102199" d="M4321.188-1603.42c-6.043-2.643-20.436-4.1-40.59-4.1-2.361,0-4.651.023-6.809.055l-2.189,24.93h0l60.267-4.808c.195-1.125.359-2.2.476-3.173l.008-.079.016-.078C4333-1594.36,4326.136-1600.4,4321.188-1603.42Z" fill="#3e4347"/>
      </g>
      <g id="Grupo_56497" data-name="Grupo 56497">
        <path id="Trazado_102200" data-name="Trazado 102200" d="M4129.287-1560.9s8.373-9.749,17.754-9.014c2.283.18,9.107,3.237-1.564,9.014-3.338,1.806-9.905,2.869-14.9,2.947C4126.527-1557.9,4129.287-1560.9,4129.287-1560.9Z" fill="#ffd83b"/>
        <path id="Trazado_102201" data-name="Trazado 102201" d="M4368.938-1567.756v-4.91a21.846,21.846,0,0,0-.977-6.168c-3.377-.422-7.607-.633-8.983.743-1.829,1.829-1.829,8.521,0,10.35,1.533,1.533,6.645,1.1,10.124.595Z" fill="#ffd83b"/>
      </g>
      <circle id="Elipse_4096" data-name="Elipse 4096" cx="14.048" cy="14.048" r="14.048" transform="translate(4148.886 -1548.353)" fill="#cbd6e0"/>
      <circle id="Elipse_4097" data-name="Elipse 4097" cx="11.461" cy="11.461" r="11.461" transform="translate(4151.474 -1545.765)" fill="#939799"/>
      <g id="Grupo_56498" data-name="Grupo 56498">
        <circle id="Elipse_4098" data-name="Elipse 4098" cx="8.248" cy="8.248" r="8.248" transform="translate(4154.687 -1542.552)" fill="#cbd6e0"/>
        <circle id="Elipse_4099" data-name="Elipse 4099" cx="14.048" cy="14.048" r="14.048" transform="translate(4325.206 -1548.353)" fill="#cbd6e0"/>
      </g>
      <circle id="Elipse_4100" data-name="Elipse 4100" cx="11.461" cy="11.461" r="11.461" transform="translate(4327.793 -1545.765)" fill="#939799"/>
      <circle id="Elipse_4101" data-name="Elipse 4101" cx="8.248" cy="8.248" r="8.248" transform="translate(4331.007 -1542.552)" fill="#cbd6e0"/>
      <g id="Grupo_56499" data-name="Grupo 56499">
        <path id="Trazado_102202" data-name="Trazado 102202" d="M4212.279-1577.794l12.8-1.024,16.1-26.174a86.99,86.99,0,0,0-15.792,5.895Z" fill="#5a5f63"/>
        <path id="Trazado_102203" data-name="Trazado 102203" d="M4229.588-1579.178l6.676-.531,16.628-27.042a57.131,57.131,0,0,0-6.825.774Z" fill="#5a5f63"/>
        <path id="Trazado_102204" data-name="Trazado 102204" d="M4275.079-1582.805l12.8-1.024L4302-1606.806c-3.565-.265-7.521-.461-11.82-.57Z" fill="#5a5f63"/>
        <path id="Trazado_102205" data-name="Trazado 102205" d="M4292.379-1584.189l6.677-.532,12.907-20.99c-1.8-.282-3.729-.539-5.887-.751Z" fill="#5a5f63"/>
      </g>
      <g id="Grupo_56524" data-name="Grupo 56524">
        <g id="Grupo_56500" data-name="Grupo 56500">
          <path id="Trazado_102206" data-name="Trazado 102206" d="M4369.424-1466.187H3904.055a22.688,22.688,0,0,1-22.689-22.688v-3.3a22.689,22.689,0,0,1,22.689-22.688h465.369a22.688,22.688,0,0,1,22.688,22.688v3.3A22.688,22.688,0,0,1,4369.424-1466.187Z" fill="#596c76"/>
        </g>
        <g id="Grupo_56501" data-name="Grupo 56501">
          <path id="Trazado_102207" data-name="Trazado 102207" d="M3901.623-1476.255a14.439,14.439,0,0,1-12.361-14.27,14.439,14.439,0,0,1,12.361-14.27,22.664,22.664,0,0,1,18.855-10.068h-20.122a22.689,22.689,0,0,0-22.689,22.688v3.3a22.688,22.688,0,0,0,22.689,22.688h20.122a22.664,22.664,0,0,1-18.855-10.068Z" fill="#465a61"/>
        </g>
        <g id="Grupo_56523" data-name="Grupo 56523">
          <g id="Grupo_56502" data-name="Grupo 56502">
            <circle id="Elipse_4102" data-name="Elipse 4102" cx="10.802" cy="10.802" r="10.802" transform="translate(3904.766 -1501.327)" fill="#fff"/>
          </g>
          <g id="Grupo_56503" data-name="Grupo 56503">
            <path id="Trazado_102208" data-name="Trazado 102208" d="M3915.142-1490.525a10.8,10.8,0,0,1,5.614-9.476,10.753,10.753,0,0,0-5.188-1.326,10.8,10.8,0,0,0-10.8,10.8,10.8,10.8,0,0,0,10.8,10.8,10.753,10.753,0,0,0,5.188-1.327A10.8,10.8,0,0,1,3915.142-1490.525Z" fill="#f2fbff"/>
          </g>
          <g id="Grupo_56504" data-name="Grupo 56504">
            <path id="Trazado_102209" data-name="Trazado 102209" d="M3915.568-1476.106a14.436,14.436,0,0,1-14.419-14.419,14.436,14.436,0,0,1,14.419-14.419,14.435,14.435,0,0,1,14.419,14.419A14.436,14.436,0,0,1,3915.568-1476.106Zm0-21.6a7.192,7.192,0,0,0-7.184,7.184,7.193,7.193,0,0,0,7.184,7.185,7.193,7.193,0,0,0,7.185-7.185A7.193,7.193,0,0,0,3915.568-1497.71Z" fill="#8d9ca8"/>
          </g>
          <g id="Grupo_56505" data-name="Grupo 56505">
            <circle id="Elipse_4103" data-name="Elipse 4103" cx="10.802" cy="10.802" r="10.802" transform="translate(3978.288 -1501.327)" fill="#fff"/>
          </g>
          <g id="Grupo_56506" data-name="Grupo 56506">
            <circle id="Elipse_4104" data-name="Elipse 4104" cx="10.802" cy="10.802" r="10.802" transform="translate(4130.999 -1501.327)" fill="#fff"/>
          </g>
          <g id="Grupo_56507" data-name="Grupo 56507">
            <path id="Trazado_102210" data-name="Trazado 102210" d="M4141.375-1490.525a10.8,10.8,0,0,1,5.614-9.476,10.75,10.75,0,0,0-5.188-1.326,10.8,10.8,0,0,0-10.8,10.8,10.8,10.8,0,0,0,10.8,10.8,10.75,10.75,0,0,0,5.188-1.327A10.8,10.8,0,0,1,4141.375-1490.525Z" fill="#f2fbff"/>
          </g>
          <g id="Grupo_56508" data-name="Grupo 56508">
            <path id="Trazado_102211" data-name="Trazado 102211" d="M4141.8-1476.106a14.436,14.436,0,0,1-14.418-14.419,14.435,14.435,0,0,1,14.418-14.419,14.435,14.435,0,0,1,14.419,14.419A14.436,14.436,0,0,1,4141.8-1476.106Zm0-21.6a7.191,7.191,0,0,0-7.184,7.184,7.192,7.192,0,0,0,7.184,7.185,7.193,7.193,0,0,0,7.185-7.185A7.192,7.192,0,0,0,4141.8-1497.71Z" fill="#8d9ca8"/>
          </g>
          <g id="Grupo_56509" data-name="Grupo 56509">
            <circle id="Elipse_4105" data-name="Elipse 4105" cx="10.802" cy="10.802" r="10.802" transform="translate(4053.979 -1501.327)" fill="#fff"/>
          </g>
          <g id="Grupo_56510" data-name="Grupo 56510">
            <path id="Trazado_102212" data-name="Trazado 102212" d="M4064.355-1490.525a10.8,10.8,0,0,1,5.614-9.476,10.753,10.753,0,0,0-5.188-1.326,10.8,10.8,0,0,0-10.8,10.8,10.8,10.8,0,0,0,10.8,10.8,10.753,10.753,0,0,0,5.188-1.327A10.8,10.8,0,0,1,4064.355-1490.525Z" fill="#f2fbff"/>
          </g>
          <g id="Grupo_56511" data-name="Grupo 56511">
            <path id="Trazado_102213" data-name="Trazado 102213" d="M4064.781-1476.106a14.436,14.436,0,0,1-14.419-14.419,14.436,14.436,0,0,1,14.419-14.419,14.435,14.435,0,0,1,14.419,14.419A14.436,14.436,0,0,1,4064.781-1476.106Zm0-21.6a7.192,7.192,0,0,0-7.184,7.184,7.193,7.193,0,0,0,7.184,7.185,7.193,7.193,0,0,0,7.185-7.185A7.193,7.193,0,0,0,4064.781-1497.71Z" fill="#8d9ca8"/>
          </g>
          <g id="Grupo_56512" data-name="Grupo 56512">
            <circle id="Elipse_4106" data-name="Elipse 4106" cx="10.802" cy="10.802" r="10.802" transform="translate(4204.317 -1501.327)" fill="#fff"/>
          </g>
          <g id="Grupo_56513" data-name="Grupo 56513">
            <path id="Trazado_102214" data-name="Trazado 102214" d="M4214.693-1490.525a10.8,10.8,0,0,1,5.614-9.476,10.753,10.753,0,0,0-5.188-1.326,10.8,10.8,0,0,0-10.8,10.8,10.8,10.8,0,0,0,10.8,10.8,10.753,10.753,0,0,0,5.188-1.327A10.8,10.8,0,0,1,4214.693-1490.525Z" fill="#f2fbff"/>
          </g>
          <g id="Grupo_56514" data-name="Grupo 56514">
            <path id="Trazado_102215" data-name="Trazado 102215" d="M4215.118-1476.106a14.435,14.435,0,0,1-14.418-14.419,14.435,14.435,0,0,1,14.418-14.419,14.435,14.435,0,0,1,14.419,14.419A14.436,14.436,0,0,1,4215.118-1476.106Zm0-21.6a7.193,7.193,0,0,0-7.184,7.184,7.193,7.193,0,0,0,7.184,7.185,7.193,7.193,0,0,0,7.185-7.185A7.193,7.193,0,0,0,4215.118-1497.71Z" fill="#8d9ca8"/>
          </g>
          <g id="Grupo_56515" data-name="Grupo 56515">
            <circle id="Elipse_4107" data-name="Elipse 4107" cx="10.802" cy="10.802" r="10.802" transform="translate(4277.264 -1501.327)" fill="#fff"/>
          </g>
          <g id="Grupo_56516" data-name="Grupo 56516">
            <path id="Trazado_102216" data-name="Trazado 102216" d="M4287.64-1490.525a10.8,10.8,0,0,1,5.614-9.476,10.753,10.753,0,0,0-5.188-1.326,10.8,10.8,0,0,0-10.8,10.8,10.8,10.8,0,0,0,10.8,10.8,10.753,10.753,0,0,0,5.188-1.327A10.8,10.8,0,0,1,4287.64-1490.525Z" fill="#f2fbff"/>
          </g>
          <g id="Grupo_56517" data-name="Grupo 56517">
            <path id="Trazado_102217" data-name="Trazado 102217" d="M4288.065-1476.106a14.436,14.436,0,0,1-14.419-14.419,14.436,14.436,0,0,1,14.419-14.419,14.435,14.435,0,0,1,14.419,14.419A14.435,14.435,0,0,1,4288.065-1476.106Zm0-21.6a7.192,7.192,0,0,0-7.184,7.184,7.193,7.193,0,0,0,7.184,7.185,7.193,7.193,0,0,0,7.185-7.185A7.193,7.193,0,0,0,4288.065-1497.71Z" fill="#8d9ca8"/>
          </g>
          <g id="Grupo_56518" data-name="Grupo 56518">
            <circle id="Elipse_4108" data-name="Elipse 4108" cx="10.802" cy="10.802" r="10.802" transform="translate(4355.297 -1501.327)" fill="#fff"/>
          </g>
          <g id="Grupo_56519" data-name="Grupo 56519">
            <path id="Trazado_102218" data-name="Trazado 102218" d="M3988.664-1490.525a10.8,10.8,0,0,1,5.614-9.476,10.753,10.753,0,0,0-5.188-1.326,10.8,10.8,0,0,0-10.8,10.8,10.8,10.8,0,0,0,10.8,10.8,10.753,10.753,0,0,0,5.188-1.327A10.8,10.8,0,0,1,3988.664-1490.525Z" fill="#f2fbff"/>
          </g>
          <g id="Grupo_56520" data-name="Grupo 56520">
            <path id="Trazado_102219" data-name="Trazado 102219" d="M3989.09-1476.106a14.435,14.435,0,0,1-14.418-14.419,14.435,14.435,0,0,1,14.418-14.419,14.435,14.435,0,0,1,14.419,14.419A14.436,14.436,0,0,1,3989.09-1476.106Zm0-21.6a7.192,7.192,0,0,0-7.184,7.184,7.193,7.193,0,0,0,7.184,7.185,7.193,7.193,0,0,0,7.185-7.185A7.193,7.193,0,0,0,3989.09-1497.71Z" fill="#8d9ca8"/>
          </g>
          <g id="Grupo_56521" data-name="Grupo 56521">
            <path id="Trazado_102220" data-name="Trazado 102220" d="M4365.673-1490.525a10.8,10.8,0,0,1,5.614-9.476,10.753,10.753,0,0,0-5.188-1.326,10.8,10.8,0,0,0-10.8,10.8,10.8,10.8,0,0,0,10.8,10.8,10.753,10.753,0,0,0,5.188-1.327A10.8,10.8,0,0,1,4365.673-1490.525Z" fill="#f2fbff"/>
          </g>
          <g id="Grupo_56522" data-name="Grupo 56522">
            <path id="Trazado_102221" data-name="Trazado 102221" d="M4366.1-1476.106a14.436,14.436,0,0,1-14.419-14.419,14.435,14.435,0,0,1,14.419-14.419,14.435,14.435,0,0,1,14.419,14.419A14.436,14.436,0,0,1,4366.1-1476.106Zm0-21.6a7.193,7.193,0,0,0-7.185,7.184,7.194,7.194,0,0,0,7.185,7.185,7.193,7.193,0,0,0,7.185-7.185A7.193,7.193,0,0,0,4366.1-1497.71Z" fill="#8d9ca8"/>
          </g>
        </g>
      </g>
    </g>
  </g>
</svg>
