<svg xmlns="http://www.w3.org/2000/svg" width="573" height="298" viewBox="0 0 573 298">
  <g id="Grupo_56563" data-name="Grupo 56563" transform="translate(-3848.39 1380.738)">
    <path id="Rectángulo_5242" data-name="Rectángulo 5242" d="M0,0H573V298H0Z" transform="translate(3848.39 -1380.738)" fill="none"/>
    <g id="Grupo_56562" data-name="Grupo 56562">
      <path id="Trazado_102222" data-name="Trazado 102222" d="M3848.39-1082.738l32.363-46.087h505.984l34.653,46.087Z" fill="#0075a4"/>
      <g id="Grupo_56561" data-name="Grupo 56561">
        <path id="Trazado_102223" data-name="Trazado 102223" d="M4255.665-1306.049h15.212v41.866h-15.212Z" fill="#595959"/>
        <path id="Trazado_102224" data-name="Trazado 102224" d="M4362.473-1311.905a10.256,10.256,0,0,1,2.193-6.338h-113.31a6.338,6.338,0,0,0-6.339,6.338,6.339,6.339,0,0,0,6.339,6.338h113.311A10.25,10.25,0,0,1,4362.473-1311.905Z" fill="#8e8e8e"/>
        <g id="Grupo_56527" data-name="Grupo 56527">
          <path id="Trazado_102225" data-name="Trazado 102225" d="M4278.533-1244.891h-30.524a2.484,2.484,0,0,1-2.485-2.484v-14.806a2.484,2.484,0,0,1,2.485-2.485h30.524a2.484,2.484,0,0,1,2.485,2.485v14.806A2.484,2.484,0,0,1,4278.533-1244.891Z" fill="#ea526f"/>
        </g>
        <g id="Grupo_56528" data-name="Grupo 56528">
          <path id="Trazado_102226" data-name="Trazado 102226" d="M4261.067-1247.375v-14.806a2.484,2.484,0,0,1,2.484-2.485h-15.542a2.484,2.484,0,0,0-2.484,2.485v14.806a2.484,2.484,0,0,0,2.484,2.484h15.542a2.484,2.484,0,0,1-2.484-2.484Z" fill="#fb2b3a"/>
        </g>
        <path id="Trazado_102227" data-name="Trazado 102227" d="M4048.993-1380.738H4064.2v116.555h-15.211Z" fill="#595959"/>
        <g id="Grupo_56529" data-name="Grupo 56529">
          <path id="Trazado_102228" data-name="Trazado 102228" d="M4071.861-1244.891h-30.525a2.484,2.484,0,0,1-2.484-2.484v-14.806a2.484,2.484,0,0,1,2.484-2.485h30.525a2.484,2.484,0,0,1,2.484,2.485v14.806A2.484,2.484,0,0,1,4071.861-1244.891Z" fill="#25ced1"/>
        </g>
        <g id="Grupo_56530" data-name="Grupo 56530">
          <path id="Trazado_102229" data-name="Trazado 102229" d="M4054.394-1247.375v-14.806a2.484,2.484,0,0,1,2.484-2.485h-15.542a2.484,2.484,0,0,0-2.484,2.485v14.806a2.484,2.484,0,0,0,2.484,2.484h15.542a2.484,2.484,0,0,1-2.484-2.484Z" fill="#0aa3a3"/>
        </g>
        <path id="Trazado_102230" data-name="Trazado 102230" d="M4359.676-1119.119H3918.239c-2.742,0-5.427-.11-8.046-.31v16.561c0,1.372,2.435,2.485,5.441,2.485h446.647c3.006,0,5.441-1.113,5.441-2.485v-16.561c-2.619.2-5.3.31-8.046.31Z" fill="#25ced1"/>
        <path id="Trazado_102231" data-name="Trazado 102231" d="M3960-1102.868v-16.251h-41.759c-2.742,0-5.427-.11-8.046-.31v16.561c0,1.372,2.435,2.485,5.441,2.485h49.8C3962.434-1100.383,3960-1101.5,3960-1102.868Z" fill="#27b7b7"/>
        <g id="Grupo_56536" data-name="Grupo 56536">
          <g id="Grupo_56533" data-name="Grupo 56533">
            <path id="Trazado_102232" data-name="Trazado 102232" d="M4379.131-1252.162v-51.617a10.256,10.256,0,0,1-6.338,2.193,10.256,10.256,0,0,1-6.338-2.193v51.617Z" fill="#8e8e8e"/>
            <path id="Trazado_102233" data-name="Trazado 102233" d="M4381.768-1252.645h-17.951a4.969,4.969,0,0,0-4.968,4.969v29.634h2.28a1.009,1.009,0,0,1,1.009,1.008v50.2h1.91a22.228,22.228,0,0,1,22.2,21.8l.492.4v-103.052A4.968,4.968,0,0,0,4381.768-1252.645Z" fill="#8e8e8e"/>
            <path id="Trazado_102234" data-name="Trazado 102234" d="M4361.129-1218.043a1.01,1.01,0,0,1,1.009,1.008v50.2h1.91a22.136,22.136,0,0,1,5.051.587v-81.432a4.969,4.969,0,0,1,4.968-4.969h-10.249a4.969,4.969,0,0,0-4.969,4.969v29.634h2.28Z" fill="#595959"/>
            <g id="Grupo_56531" data-name="Grupo 56531">
              <circle id="Elipse_4109" data-name="Elipse 4109" cx="10.802" cy="10.802" r="10.802" transform="translate(4365.2 -1322.707)" fill="#25ced1"/>
            </g>
            <g id="Grupo_56532" data-name="Grupo 56532">
              <path id="Trazado_102235" data-name="Trazado 102235" d="M4372.834-1311.905a10.8,10.8,0,0,1,5.38-9.342,10.747,10.747,0,0,0-5.421-1.46,10.8,10.8,0,0,0-10.8,10.8,10.8,10.8,0,0,0,10.8,10.8,10.748,10.748,0,0,0,5.421-1.461A10.8,10.8,0,0,1,4372.834-1311.905Z" fill="#0aa3a3"/>
            </g>
          </g>
          <path id="Trazado_102236" data-name="Trazado 102236" d="M4184.552-1166.831v-50.2a1.491,1.491,0,0,0-1.491-1.491H4132.8a1.492,1.492,0,0,0-1.491,1.491v50.2Z" fill="#ea9b58"/>
          <path id="Trazado_102237" data-name="Trazado 102237" d="M4147.114-1166.831v-50.2a1.492,1.492,0,0,1,1.491-1.491h-15.8a1.491,1.491,0,0,0-1.49,1.491v50.2Z" fill="#d88a55"/>
          <path id="Trazado_102238" data-name="Trazado 102238" d="M4083.218-1166.831v-50.2a1.491,1.491,0,0,0-1.491-1.491h-50.258a1.491,1.491,0,0,0-1.49,1.491v50.2Z" fill="#ea9b58"/>
          <path id="Trazado_102239" data-name="Trazado 102239" d="M4045.781-1166.831v-50.2a1.491,1.491,0,0,1,1.49-1.491h-15.8a1.491,1.491,0,0,0-1.49,1.491v50.2Z" fill="#d88a55"/>
          <path id="Trazado_102240" data-name="Trazado 102240" d="M3982.175-1166.831v-50.2a1.491,1.491,0,0,0-1.49-1.491h-50.259a1.491,1.491,0,0,0-1.49,1.491v50.2Z" fill="#ea9b58"/>
          <path id="Trazado_102241" data-name="Trazado 102241" d="M3944.738-1166.831v-50.2a1.491,1.491,0,0,1,1.491-1.491h-15.8a1.491,1.491,0,0,0-1.49,1.491v50.2Z" fill="#d88a55"/>
          <path id="Trazado_102242" data-name="Trazado 102242" d="M4289.891-1166.831v-50.2a1.492,1.492,0,0,0-1.491-1.491h-17.048l-.483.936v20.914a1.009,1.009,0,0,1-1.008,1.008H4256.68a1.009,1.009,0,0,1-1.008-1.008v-20.795l-.483-1.055h-17.048a1.492,1.492,0,0,0-1.491,1.491v50.2Z" fill="#ea9b58"/>
          <path id="Trazado_102243" data-name="Trazado 102243" d="M4252.263-1166.831v-50.2a1.491,1.491,0,0,1,1.491-1.491h-15.612a1.492,1.492,0,0,0-1.491,1.491v50.2Z" fill="#d88a55"/>
          <g id="Grupo_56534" data-name="Grupo 56534">
            <path id="Trazado_102244" data-name="Trazado 102244" d="M4256.681-1195.185h13.181a1.49,1.49,0,0,0,1.49-1.49v-21.85H4255.19v21.85A1.49,1.49,0,0,0,4256.681-1195.185Z" fill="#fd4755"/>
          </g>
          <path id="Trazado_102245" data-name="Trazado 102245" d="M4262.306-1196.675v-21.85h-7.116v21.85a1.491,1.491,0,0,0,1.491,1.491h7.116A1.492,1.492,0,0,1,4262.306-1196.675Z" fill="#fb2b3a"/>
          <path id="Trazado_102246" data-name="Trazado 102246" d="M4362.62-1166.831v-50.2a1.491,1.491,0,0,0-1.491-1.491h-17.048l-.482,1.179v20.671a1.01,1.01,0,0,1-1.009,1.008h-13.181a1.009,1.009,0,0,1-1.008-1.008v-20.7l-.482-1.151H4310.87a1.491,1.491,0,0,0-1.49,1.491v50.2Z" fill="#ea9b58"/>
          <path id="Trazado_102247" data-name="Trazado 102247" d="M4324.8-1166.831v-50.2a1.492,1.492,0,0,1,1.491-1.491h-15.422a1.491,1.491,0,0,0-1.49,1.491v50.2Z" fill="#d88a55"/>
          <g id="Grupo_56535" data-name="Grupo 56535">
            <path id="Trazado_102248" data-name="Trazado 102248" d="M4329.41-1195.185h13.181a1.491,1.491,0,0,0,1.491-1.49v-21.85H4327.92v21.85a1.489,1.489,0,0,0,1.49,1.49Z" fill="#fd4755"/>
          </g>
          <path id="Trazado_102249" data-name="Trazado 102249" d="M4335.036-1196.675v-21.85h-7.117v21.85a1.492,1.492,0,0,0,1.491,1.491h7.117A1.492,1.492,0,0,1,4335.036-1196.675Z" fill="#fb2b3a"/>
          <path id="Trazado_102250" data-name="Trazado 102250" d="M3931.823-1217.738l-7.37-27.213-2.977.709,7.229,30.9Z" fill="#d88a55"/>
          <path id="Trazado_102251" data-name="Trazado 102251" d="M3979.078-1217.738l7.37-27.213,2.976.709-7.228,30.9Z" fill="#ea9b58"/>
        </g>
        <g id="Grupo_56537" data-name="Grupo 56537">
          <path id="Trazado_102252" data-name="Trazado 102252" d="M4364.048-1118.637H3898.679a22.688,22.688,0,0,1-22.688-22.688v-3.3a22.688,22.688,0,0,1,22.688-22.688h465.369a22.687,22.687,0,0,1,22.688,22.688v3.3A22.688,22.688,0,0,1,4364.048-1118.637Z" fill="#596c76"/>
        </g>
        <g id="Grupo_56538" data-name="Grupo 56538">
          <path id="Trazado_102253" data-name="Trazado 102253" d="M3896.247-1128.7a14.44,14.44,0,0,1-12.361-14.27,14.439,14.439,0,0,1,12.361-14.27,22.664,22.664,0,0,1,18.855-10.068H3894.98a22.688,22.688,0,0,0-22.688,22.688v3.3a22.688,22.688,0,0,0,22.688,22.688H3915.1a22.664,22.664,0,0,1-18.855-10.068Z" fill="#465a61"/>
        </g>
        <g id="Grupo_56560" data-name="Grupo 56560">
          <g id="Grupo_56539" data-name="Grupo 56539">
            <circle id="Elipse_4110" data-name="Elipse 4110" cx="10.802" cy="10.802" r="10.802" transform="translate(3899.39 -1153.777)" fill="#fff"/>
          </g>
          <g id="Grupo_56540" data-name="Grupo 56540">
            <path id="Trazado_102254" data-name="Trazado 102254" d="M3909.766-1142.975a10.8,10.8,0,0,1,5.614-9.476,10.749,10.749,0,0,0-5.188-1.326,10.8,10.8,0,0,0-10.8,10.8,10.8,10.8,0,0,0,10.8,10.8,10.75,10.75,0,0,0,5.188-1.327A10.8,10.8,0,0,1,3909.766-1142.975Z" fill="#f2fbff"/>
          </g>
          <g id="Grupo_56541" data-name="Grupo 56541">
            <path id="Trazado_102255" data-name="Trazado 102255" d="M3910.193-1128.556a14.436,14.436,0,0,1-14.419-14.419,14.435,14.435,0,0,1,14.419-14.419,14.436,14.436,0,0,1,14.419,14.419A14.436,14.436,0,0,1,3910.193-1128.556Zm0-21.6a7.193,7.193,0,0,0-7.185,7.184,7.193,7.193,0,0,0,7.185,7.185,7.193,7.193,0,0,0,7.184-7.185A7.192,7.192,0,0,0,3910.193-1150.16Z" fill="#8d9ca8"/>
          </g>
          <g id="Grupo_56542" data-name="Grupo 56542">
            <circle id="Elipse_4111" data-name="Elipse 4111" cx="10.802" cy="10.802" r="10.802" transform="translate(3972.913 -1153.777)" fill="#fff"/>
          </g>
          <g id="Grupo_56543" data-name="Grupo 56543">
            <circle id="Elipse_4112" data-name="Elipse 4112" cx="10.802" cy="10.802" r="10.802" transform="translate(4125.624 -1153.777)" fill="#fff"/>
          </g>
          <g id="Grupo_56544" data-name="Grupo 56544">
            <path id="Trazado_102256" data-name="Trazado 102256" d="M4136-1142.975a10.8,10.8,0,0,1,5.614-9.476,10.747,10.747,0,0,0-5.188-1.326,10.8,10.8,0,0,0-10.8,10.8,10.8,10.8,0,0,0,10.8,10.8,10.748,10.748,0,0,0,5.188-1.327A10.8,10.8,0,0,1,4136-1142.975Z" fill="#f2fbff"/>
          </g>
          <g id="Grupo_56545" data-name="Grupo 56545">
            <path id="Trazado_102257" data-name="Trazado 102257" d="M4136.426-1128.556a14.436,14.436,0,0,1-14.419-14.419,14.435,14.435,0,0,1,14.419-14.419,14.435,14.435,0,0,1,14.418,14.419A14.436,14.436,0,0,1,4136.426-1128.556Zm0-21.6a7.192,7.192,0,0,0-7.185,7.184,7.193,7.193,0,0,0,7.185,7.185,7.192,7.192,0,0,0,7.184-7.185A7.192,7.192,0,0,0,4136.426-1150.16Z" fill="#8d9ca8"/>
          </g>
          <g id="Grupo_56546" data-name="Grupo 56546">
            <circle id="Elipse_4113" data-name="Elipse 4113" cx="10.802" cy="10.802" r="10.802" transform="translate(4048.604 -1153.777)" fill="#fff"/>
          </g>
          <g id="Grupo_56547" data-name="Grupo 56547">
            <path id="Trazado_102258" data-name="Trazado 102258" d="M4058.979-1142.975a10.8,10.8,0,0,1,5.614-9.476,10.75,10.75,0,0,0-5.188-1.326,10.8,10.8,0,0,0-10.8,10.8,10.8,10.8,0,0,0,10.8,10.8,10.751,10.751,0,0,0,5.188-1.327A10.8,10.8,0,0,1,4058.979-1142.975Z" fill="#f2fbff"/>
          </g>
          <g id="Grupo_56548" data-name="Grupo 56548">
            <path id="Trazado_102259" data-name="Trazado 102259" d="M4059.406-1128.556a14.436,14.436,0,0,1-14.419-14.419,14.435,14.435,0,0,1,14.419-14.419,14.435,14.435,0,0,1,14.418,14.419A14.435,14.435,0,0,1,4059.406-1128.556Zm0-21.6a7.193,7.193,0,0,0-7.185,7.184,7.193,7.193,0,0,0,7.185,7.185,7.193,7.193,0,0,0,7.184-7.185A7.193,7.193,0,0,0,4059.406-1150.16Z" fill="#8d9ca8"/>
          </g>
          <g id="Grupo_56549" data-name="Grupo 56549">
            <circle id="Elipse_4114" data-name="Elipse 4114" cx="10.802" cy="10.802" r="10.802" transform="translate(4198.941 -1153.777)" fill="#fff"/>
          </g>
          <g id="Grupo_56550" data-name="Grupo 56550">
            <path id="Trazado_102260" data-name="Trazado 102260" d="M4209.317-1142.975a10.8,10.8,0,0,1,5.614-9.476,10.75,10.75,0,0,0-5.188-1.326,10.8,10.8,0,0,0-10.8,10.8,10.8,10.8,0,0,0,10.8,10.8,10.751,10.751,0,0,0,5.188-1.327A10.8,10.8,0,0,1,4209.317-1142.975Z" fill="#f2fbff"/>
          </g>
          <g id="Grupo_56551" data-name="Grupo 56551">
            <path id="Trazado_102261" data-name="Trazado 102261" d="M4209.743-1128.556a14.435,14.435,0,0,1-14.419-14.419,14.435,14.435,0,0,1,14.419-14.419,14.436,14.436,0,0,1,14.419,14.419A14.436,14.436,0,0,1,4209.743-1128.556Zm0-21.6a7.193,7.193,0,0,0-7.185,7.184,7.194,7.194,0,0,0,7.185,7.185,7.192,7.192,0,0,0,7.184-7.185A7.192,7.192,0,0,0,4209.743-1150.16Z" fill="#8d9ca8"/>
          </g>
          <g id="Grupo_56552" data-name="Grupo 56552">
            <circle id="Elipse_4115" data-name="Elipse 4115" cx="10.802" cy="10.802" r="10.802" transform="translate(4271.888 -1153.777)" fill="#fff"/>
          </g>
          <g id="Grupo_56553" data-name="Grupo 56553">
            <path id="Trazado_102262" data-name="Trazado 102262" d="M4282.264-1142.975a10.8,10.8,0,0,1,5.614-9.476,10.753,10.753,0,0,0-5.188-1.326,10.8,10.8,0,0,0-10.8,10.8,10.8,10.8,0,0,0,10.8,10.8,10.754,10.754,0,0,0,5.188-1.327A10.8,10.8,0,0,1,4282.264-1142.975Z" fill="#f2fbff"/>
          </g>
          <g id="Grupo_56554" data-name="Grupo 56554">
            <path id="Trazado_102263" data-name="Trazado 102263" d="M4282.689-1128.556a14.435,14.435,0,0,1-14.418-14.419,14.435,14.435,0,0,1,14.418-14.419,14.435,14.435,0,0,1,14.419,14.419A14.435,14.435,0,0,1,4282.689-1128.556Zm0-21.6a7.193,7.193,0,0,0-7.184,7.184,7.193,7.193,0,0,0,7.184,7.185,7.193,7.193,0,0,0,7.185-7.185A7.193,7.193,0,0,0,4282.689-1150.16Z" fill="#8d9ca8"/>
          </g>
          <g id="Grupo_56555" data-name="Grupo 56555">
            <circle id="Elipse_4116" data-name="Elipse 4116" cx="10.802" cy="10.802" r="10.802" transform="translate(4349.921 -1153.777)" fill="#fff"/>
          </g>
          <g id="Grupo_56556" data-name="Grupo 56556">
            <path id="Trazado_102264" data-name="Trazado 102264" d="M3983.288-1142.975a10.8,10.8,0,0,1,5.614-9.476,10.75,10.75,0,0,0-5.188-1.326,10.8,10.8,0,0,0-10.8,10.8,10.8,10.8,0,0,0,10.8,10.8,10.751,10.751,0,0,0,5.188-1.327A10.8,10.8,0,0,1,3983.288-1142.975Z" fill="#f2fbff"/>
          </g>
          <g id="Grupo_56557" data-name="Grupo 56557">
            <path id="Trazado_102265" data-name="Trazado 102265" d="M3983.715-1128.556a14.436,14.436,0,0,1-14.419-14.419,14.435,14.435,0,0,1,14.419-14.419,14.436,14.436,0,0,1,14.419,14.419A14.436,14.436,0,0,1,3983.715-1128.556Zm0-21.6a7.193,7.193,0,0,0-7.185,7.184,7.193,7.193,0,0,0,7.185,7.185,7.193,7.193,0,0,0,7.184-7.185A7.192,7.192,0,0,0,3983.715-1150.16Z" fill="#8d9ca8"/>
          </g>
          <g id="Grupo_56558" data-name="Grupo 56558">
            <path id="Trazado_102266" data-name="Trazado 102266" d="M4360.3-1142.975a10.8,10.8,0,0,1,5.613-9.476,10.75,10.75,0,0,0-5.188-1.326,10.8,10.8,0,0,0-10.8,10.8,10.8,10.8,0,0,0,10.8,10.8,10.751,10.751,0,0,0,5.188-1.327A10.8,10.8,0,0,1,4360.3-1142.975Z" fill="#f2fbff"/>
          </g>
          <g id="Grupo_56559" data-name="Grupo 56559">
            <path id="Trazado_102267" data-name="Trazado 102267" d="M4360.723-1128.556a14.436,14.436,0,0,1-14.419-14.419,14.435,14.435,0,0,1,14.419-14.419,14.435,14.435,0,0,1,14.419,14.419A14.436,14.436,0,0,1,4360.723-1128.556Zm0-21.6a7.192,7.192,0,0,0-7.184,7.184,7.193,7.193,0,0,0,7.184,7.185,7.193,7.193,0,0,0,7.185-7.185A7.193,7.193,0,0,0,4360.723-1150.16Z" fill="#8d9ca8"/>
          </g>
        </g>
      </g>
    </g>
  </g>
</svg>
