<svg xmlns="http://www.w3.org/2000/svg" width="573" height="298" viewBox="0 0 573 298">
  <g id="Grupo_56658" data-name="Grupo 56658" transform="translate(-3848.39 564.417)">
    <path id="Rectángulo_5242" data-name="Rectángulo 5242" d="M0,0H573V298H0Z" transform="translate(3848.39 -564.417)" fill="none"/>
    <g id="Grupo_56657" data-name="Grupo 56657">
      <path id="Trazado_102321" data-name="Trazado 102321" d="M3848.39-266.417l32.363-46.087h505.984l34.653,46.087Z" fill="#0075a4"/>
      <g id="Grupo_56655" data-name="Grupo 56655">
        <path id="Trazado_102322" data-name="Trazado 102322" d="M4359.676-302.8H3918.239c-2.742,0-5.427-.11-8.046-.31v16.561c0,1.372,2.435,2.484,5.441,2.484h446.647c3.006,0,5.441-1.112,5.441-2.484v-16.561c-2.619.2-5.3.31-8.046.31Z" fill="#25ced1"/>
        <path id="Trazado_102323" data-name="Trazado 102323" d="M3960-286.547V-302.8h-41.759c-2.742,0-5.427-.11-8.046-.31v16.561c0,1.372,2.435,2.484,5.441,2.484h49.8C3962.434-284.063,3960-285.175,3960-286.547Z" fill="#27b7b7"/>
        <g id="Grupo_56631" data-name="Grupo 56631">
          <path id="Trazado_102324" data-name="Trazado 102324" d="M4364.048-302.316H3898.679A22.688,22.688,0,0,1,3875.991-325v-3.3a22.688,22.688,0,0,1,22.688-22.688h465.369a22.687,22.687,0,0,1,22.688,22.688v3.3A22.687,22.687,0,0,1,4364.048-302.316Z" fill="#596c76"/>
        </g>
        <g id="Grupo_56632" data-name="Grupo 56632">
          <path id="Trazado_102325" data-name="Trazado 102325" d="M3896.247-312.384a14.441,14.441,0,0,1-12.361-14.27,14.44,14.44,0,0,1,12.361-14.27,22.664,22.664,0,0,1,18.855-10.068H3894.98a22.688,22.688,0,0,0-22.688,22.688v3.3a22.688,22.688,0,0,0,22.688,22.688H3915.1a22.664,22.664,0,0,1-18.855-10.068Z" fill="#465a61"/>
        </g>
        <g id="Grupo_56654" data-name="Grupo 56654">
          <g id="Grupo_56633" data-name="Grupo 56633">
            <circle id="Elipse_4126" data-name="Elipse 4126" cx="10.802" cy="10.802" r="10.802" transform="translate(3899.39 -337.456)" fill="#fff"/>
          </g>
          <g id="Grupo_56634" data-name="Grupo 56634">
            <path id="Trazado_102326" data-name="Trazado 102326" d="M3909.766-326.654a10.8,10.8,0,0,1,5.614-9.476,10.749,10.749,0,0,0-5.188-1.326,10.8,10.8,0,0,0-10.8,10.8,10.8,10.8,0,0,0,10.8,10.8,10.749,10.749,0,0,0,5.188-1.326A10.8,10.8,0,0,1,3909.766-326.654Z" fill="#f2fbff"/>
          </g>
          <g id="Grupo_56635" data-name="Grupo 56635">
            <path id="Trazado_102327" data-name="Trazado 102327" d="M3910.193-312.235a14.436,14.436,0,0,1-14.419-14.419,14.435,14.435,0,0,1,14.419-14.419,14.436,14.436,0,0,1,14.419,14.419A14.436,14.436,0,0,1,3910.193-312.235Zm0-21.6a7.193,7.193,0,0,0-7.185,7.184,7.193,7.193,0,0,0,7.185,7.185,7.193,7.193,0,0,0,7.184-7.185A7.192,7.192,0,0,0,3910.193-333.839Z" fill="#8d9ca8"/>
          </g>
          <g id="Grupo_56636" data-name="Grupo 56636">
            <circle id="Elipse_4127" data-name="Elipse 4127" cx="10.802" cy="10.802" r="10.802" transform="translate(3972.913 -337.456)" fill="#fff"/>
          </g>
          <g id="Grupo_56637" data-name="Grupo 56637">
            <circle id="Elipse_4128" data-name="Elipse 4128" cx="10.802" cy="10.802" r="10.802" transform="translate(4125.624 -337.456)" fill="#fff"/>
          </g>
          <g id="Grupo_56638" data-name="Grupo 56638">
            <path id="Trazado_102328" data-name="Trazado 102328" d="M4136-326.654a10.8,10.8,0,0,1,5.614-9.476,10.747,10.747,0,0,0-5.188-1.326,10.8,10.8,0,0,0-10.8,10.8,10.8,10.8,0,0,0,10.8,10.8,10.747,10.747,0,0,0,5.188-1.326A10.8,10.8,0,0,1,4136-326.654Z" fill="#f2fbff"/>
          </g>
          <g id="Grupo_56639" data-name="Grupo 56639">
            <path id="Trazado_102329" data-name="Trazado 102329" d="M4136.426-312.235a14.436,14.436,0,0,1-14.419-14.419,14.435,14.435,0,0,1,14.419-14.419,14.435,14.435,0,0,1,14.418,14.419A14.436,14.436,0,0,1,4136.426-312.235Zm0-21.6a7.192,7.192,0,0,0-7.185,7.184,7.193,7.193,0,0,0,7.185,7.185,7.192,7.192,0,0,0,7.184-7.185A7.192,7.192,0,0,0,4136.426-333.839Z" fill="#8d9ca8"/>
          </g>
          <g id="Grupo_56640" data-name="Grupo 56640">
            <circle id="Elipse_4129" data-name="Elipse 4129" cx="10.802" cy="10.802" r="10.802" transform="translate(4048.604 -337.456)" fill="#fff"/>
          </g>
          <g id="Grupo_56641" data-name="Grupo 56641">
            <path id="Trazado_102330" data-name="Trazado 102330" d="M4058.979-326.654a10.8,10.8,0,0,1,5.614-9.476,10.75,10.75,0,0,0-5.188-1.326,10.8,10.8,0,0,0-10.8,10.8,10.8,10.8,0,0,0,10.8,10.8,10.75,10.75,0,0,0,5.188-1.326A10.8,10.8,0,0,1,4058.979-326.654Z" fill="#f2fbff"/>
          </g>
          <g id="Grupo_56642" data-name="Grupo 56642">
            <path id="Trazado_102331" data-name="Trazado 102331" d="M4059.406-312.235a14.436,14.436,0,0,1-14.419-14.419,14.435,14.435,0,0,1,14.419-14.419,14.435,14.435,0,0,1,14.418,14.419A14.435,14.435,0,0,1,4059.406-312.235Zm0-21.6a7.193,7.193,0,0,0-7.185,7.184,7.193,7.193,0,0,0,7.185,7.185,7.193,7.193,0,0,0,7.184-7.185A7.193,7.193,0,0,0,4059.406-333.839Z" fill="#8d9ca8"/>
          </g>
          <g id="Grupo_56643" data-name="Grupo 56643">
            <circle id="Elipse_4130" data-name="Elipse 4130" cx="10.802" cy="10.802" r="10.802" transform="translate(4198.941 -337.456)" fill="#fff"/>
          </g>
          <g id="Grupo_56644" data-name="Grupo 56644">
            <path id="Trazado_102332" data-name="Trazado 102332" d="M4209.317-326.654a10.8,10.8,0,0,1,5.614-9.476,10.75,10.75,0,0,0-5.188-1.326,10.8,10.8,0,0,0-10.8,10.8,10.8,10.8,0,0,0,10.8,10.8,10.75,10.75,0,0,0,5.188-1.326A10.8,10.8,0,0,1,4209.317-326.654Z" fill="#f2fbff"/>
          </g>
          <g id="Grupo_56645" data-name="Grupo 56645">
            <path id="Trazado_102333" data-name="Trazado 102333" d="M4209.743-312.235a14.435,14.435,0,0,1-14.419-14.419,14.435,14.435,0,0,1,14.419-14.419,14.436,14.436,0,0,1,14.419,14.419A14.436,14.436,0,0,1,4209.743-312.235Zm0-21.6a7.192,7.192,0,0,0-7.185,7.184,7.194,7.194,0,0,0,7.185,7.185,7.192,7.192,0,0,0,7.184-7.185A7.192,7.192,0,0,0,4209.743-333.839Z" fill="#8d9ca8"/>
          </g>
          <g id="Grupo_56646" data-name="Grupo 56646">
            <circle id="Elipse_4131" data-name="Elipse 4131" cx="10.802" cy="10.802" r="10.802" transform="translate(4271.888 -337.456)" fill="#fff"/>
          </g>
          <g id="Grupo_56647" data-name="Grupo 56647">
            <path id="Trazado_102334" data-name="Trazado 102334" d="M4282.264-326.654a10.8,10.8,0,0,1,5.614-9.476,10.753,10.753,0,0,0-5.188-1.326,10.8,10.8,0,0,0-10.8,10.8,10.8,10.8,0,0,0,10.8,10.8,10.753,10.753,0,0,0,5.188-1.326A10.8,10.8,0,0,1,4282.264-326.654Z" fill="#f2fbff"/>
          </g>
          <g id="Grupo_56648" data-name="Grupo 56648">
            <path id="Trazado_102335" data-name="Trazado 102335" d="M4282.689-312.235a14.435,14.435,0,0,1-14.418-14.419,14.435,14.435,0,0,1,14.418-14.419,14.435,14.435,0,0,1,14.419,14.419A14.435,14.435,0,0,1,4282.689-312.235Zm0-21.6a7.193,7.193,0,0,0-7.184,7.184,7.193,7.193,0,0,0,7.184,7.185,7.193,7.193,0,0,0,7.185-7.185A7.193,7.193,0,0,0,4282.689-333.839Z" fill="#8d9ca8"/>
          </g>
          <g id="Grupo_56649" data-name="Grupo 56649">
            <circle id="Elipse_4132" data-name="Elipse 4132" cx="10.802" cy="10.802" r="10.802" transform="translate(4349.921 -337.456)" fill="#fff"/>
          </g>
          <g id="Grupo_56650" data-name="Grupo 56650">
            <path id="Trazado_102336" data-name="Trazado 102336" d="M3983.288-326.654a10.8,10.8,0,0,1,5.614-9.476,10.75,10.75,0,0,0-5.188-1.326,10.8,10.8,0,0,0-10.8,10.8,10.8,10.8,0,0,0,10.8,10.8,10.75,10.75,0,0,0,5.188-1.326A10.8,10.8,0,0,1,3983.288-326.654Z" fill="#f2fbff"/>
          </g>
          <g id="Grupo_56651" data-name="Grupo 56651">
            <path id="Trazado_102337" data-name="Trazado 102337" d="M3983.715-312.235a14.436,14.436,0,0,1-14.419-14.419,14.435,14.435,0,0,1,14.419-14.419,14.436,14.436,0,0,1,14.419,14.419A14.436,14.436,0,0,1,3983.715-312.235Zm0-21.6a7.193,7.193,0,0,0-7.185,7.184,7.193,7.193,0,0,0,7.185,7.185,7.193,7.193,0,0,0,7.184-7.185A7.192,7.192,0,0,0,3983.715-333.839Z" fill="#8d9ca8"/>
          </g>
          <g id="Grupo_56652" data-name="Grupo 56652">
            <path id="Trazado_102338" data-name="Trazado 102338" d="M4360.3-326.654a10.8,10.8,0,0,1,5.613-9.476,10.75,10.75,0,0,0-5.188-1.326,10.8,10.8,0,0,0-10.8,10.8,10.8,10.8,0,0,0,10.8,10.8,10.75,10.75,0,0,0,5.188-1.326A10.8,10.8,0,0,1,4360.3-326.654Z" fill="#f2fbff"/>
          </g>
          <g id="Grupo_56653" data-name="Grupo 56653">
            <path id="Trazado_102339" data-name="Trazado 102339" d="M4360.723-312.235a14.436,14.436,0,0,1-14.419-14.419,14.435,14.435,0,0,1,14.419-14.419,14.435,14.435,0,0,1,14.419,14.419A14.436,14.436,0,0,1,4360.723-312.235Zm0-21.6a7.192,7.192,0,0,0-7.184,7.184,7.193,7.193,0,0,0,7.184,7.185,7.193,7.193,0,0,0,7.185-7.185A7.193,7.193,0,0,0,4360.723-333.839Z" fill="#8d9ca8"/>
          </g>
        </g>
      </g>
      <g id="Grupo_56656" data-name="Grupo 56656">
        <path id="Trazado_102340" data-name="Trazado 102340" d="M4240.1-350.992a124.11,124.11,0,0,0,11.72-33.555h21.5v-47.936h-21.5a123.937,123.937,0,0,0-19-45.779l16.533-16.538L4215.8-528.355l-16.538,16.538a123.958,123.958,0,0,0-45.779-19.007v-21.5h-47.936v21.5a123.941,123.941,0,0,0-45.778,19l-16.538-16.533L4009.675-494.8l16.537,16.538a123.945,123.945,0,0,0-19.006,45.779h-21.5v47.936h21.5a124.111,124.111,0,0,0,11.72,33.555H4240.1Z" fill="#535353"/>
        <path id="Trazado_102341" data-name="Trazado 102341" d="M4052.812-350.992h153.409a95.48,95.48,0,0,0,19.165-57.523,95.871,95.871,0,0,0-95.872-95.872,95.87,95.87,0,0,0-95.872,95.872A95.449,95.449,0,0,0,4052.812-350.992Z" fill="#fff"/>
        <path id="Trazado_102342" data-name="Trazado 102342" d="M4119.927-504.387v28.761H4139.1v-28.761" fill="#535353"/>
        <path id="Trazado_102343" data-name="Trazado 102343" d="M4059.265-398.765h58.5v48.748h-58.5Z" fill="#f4b23e"/>
        <path id="Trazado_102344" data-name="Trazado 102344" d="M4137.261-398.765h58.5v48.748h-58.5Z" fill="#f4b23e"/>
        <path id="Trazado_102345" data-name="Trazado 102345" d="M4156.761-398.765v19.5h19.5v-19.5" fill="#16a3a3"/>
        <path id="Trazado_102346" data-name="Trazado 102346" d="M4275.5-398.765H4334v48.748h-58.5Z" fill="#f4b23e"/>
        <path id="Trazado_102347" data-name="Trazado 102347" d="M4295-398.765v19.5h19.5v-19.5" fill="#16a3a3"/>
        <path id="Trazado_102348" data-name="Trazado 102348" d="M4078.764-398.765v19.5h19.5v-19.5" fill="#16a3a3"/>
        <path id="Trazado_102349" data-name="Trazado 102349" d="M3922.41-398.765h58.5v48.748h-58.5Z" fill="#f4b23e"/>
        <path id="Trazado_102350" data-name="Trazado 102350" d="M3941.909-398.765v19.5h19.5v-19.5" fill="#16a3a3"/>
        <path id="Trazado_102351" data-name="Trazado 102351" d="M4124.721-475.626h9.587v19.175h-9.587Z" fill="#535353"/>
        <path id="Trazado_102352" data-name="Trazado 102352" d="M4142.49-424.3l-6.778-6.778,8.183-8.182v-5.619l-6.778-6.778h-15.206l-6.778,6.778v5.619l8.183,8.182-6.778,6.778-9.587-9.587a4.781,4.781,0,0,1-1.405-3.389v-9.587a4.781,4.781,0,0,1,1.405-3.389l9.587-9.587a4.782,4.782,0,0,1,3.389-1.4H4139.1a4.78,4.78,0,0,1,3.389,1.4l9.588,9.587a4.781,4.781,0,0,1,1.4,3.389v9.587a4.781,4.781,0,0,1-1.4,3.389Z" fill="#535353"/>
      </g>
    </g>
  </g>
</svg>
