<svg xmlns="http://www.w3.org/2000/svg" width="1171" height="465" viewBox="0 0 1171 465">
  <g id="Grupo_57932" data-name="Grupo 57932" transform="translate(745 9177)">
    <rect id="Rectángulo_5473" data-name="Rectángulo 5473" width="1171" height="465" transform="translate(-745 -9177)" fill="#fff"/>
    <rect id="Rectángulo_5264-4" data-name="Rectángulo 5264-4" width="195.236" height="42.331" transform="translate(-562.931 -9015.583)" fill="#ffe8de"/>
    <rect id="Rectángulo_5265-4" data-name="Rectángulo 5265-4" width="220.937" height="61.451" transform="translate(-575.868 -9025.494)" fill="rgba(0,0,0,0)" stroke="#ff8a5b" stroke-miterlimit="10" stroke-width="2"/>
    <rect id="Rectángulo_5266-4" data-name="Rectángulo 5266-4" width="6.236" height="18.047" transform="translate(-579.175 -9026.895)" fill="#ff8a5b"/>
    <rect id="Rectángulo_5267-4" data-name="Rectángulo 5267-4" width="18.047" height="6.236" transform="translate(-579.174 -9028.312)" fill="#ff8a5b"/>
    <path id="Trazado_105772" data-name="Trazado 105772" d="M3.258-11.375,6.977-2.094,10.7-11.375h1.945V0h-1.5V-4.43l.141-4.781L7.547,0H6.4L2.672-9.187,2.82-4.43V0H1.32V-11.375ZM20.281,0a3.036,3.036,0,0,1-.2-.891A3.225,3.225,0,0,1,17.672.156a2.984,2.984,0,0,1-2.051-.707,2.287,2.287,0,0,1-.8-1.793,2.39,2.39,0,0,1,1-2.051,4.733,4.733,0,0,1,2.824-.73h1.406v-.664A1.623,1.623,0,0,0,19.6-7a1.821,1.821,0,0,0-1.336-.449,2.108,2.108,0,0,0-1.3.391,1.151,1.151,0,0,0-.523.945H14.992a2,2,0,0,1,.449-1.223,3.066,3.066,0,0,1,1.219-.934,4.1,4.1,0,0,1,1.691-.344,3.342,3.342,0,0,1,2.289.73A2.635,2.635,0,0,1,21.5-5.867v3.891a4.757,4.757,0,0,0,.3,1.852V0Zm-2.4-1.1a2.54,2.54,0,0,0,1.289-.352,2.127,2.127,0,0,0,.883-.914V-4.1H18.922q-2.656,0-2.656,1.555a1.316,1.316,0,0,0,.453,1.063A1.742,1.742,0,0,0,17.883-1.1Zm7.844-9.4v2.047H27.3v1.117H25.727v5.249a1.173,1.173,0,0,0,.211.763.888.888,0,0,0,.719.254,3.5,3.5,0,0,0,.688-.094V0a4.215,4.215,0,0,1-1.109.155A1.8,1.8,0,0,1,24.773-.43a2.517,2.517,0,0,1-.492-1.664V-7.336H22.742V-8.453h1.539V-10.5ZM32.5.156A3.693,3.693,0,0,1,29.7-.973a4.19,4.19,0,0,1-1.078-3.02v-.266a5.073,5.073,0,0,1,.48-2.246,3.748,3.748,0,0,1,1.344-1.547,3.378,3.378,0,0,1,1.871-.559,3.166,3.166,0,0,1,2.563,1.086A4.7,4.7,0,0,1,35.8-4.414v.6H30.07a3,3,0,0,0,.73,2.02,2.3,2.3,0,0,0,1.777.77,2.517,2.517,0,0,0,1.3-.312,3.259,3.259,0,0,0,.93-.828l.883.688A3.55,3.55,0,0,1,32.5.156Zm-.18-7.578a1.928,1.928,0,0,0-1.469.637A3.1,3.1,0,0,0,30.117-5h4.234v-.109a2.753,2.753,0,0,0-.594-1.707A1.815,1.815,0,0,0,32.32-7.422Zm9.234.266a4.331,4.331,0,0,0-.711-.055A1.9,1.9,0,0,0,38.914-6V0H37.469V-8.453h1.406l.023.977a2.251,2.251,0,0,1,2.016-1.133,1.477,1.477,0,0,1,.641.109ZM44.453,0H43.008V-8.453h1.445ZM42.891-10.7a.863.863,0,0,1,.215-.594.807.807,0,0,1,.637-.242.819.819,0,0,1,.641.242.854.854,0,0,1,.219.594.826.826,0,0,1-.219.586.834.834,0,0,1-.641.234.821.821,0,0,1-.637-.234A.834.834,0,0,1,42.891-10.7ZM51.984,0a3.036,3.036,0,0,1-.2-.891A3.225,3.225,0,0,1,49.375.156a2.984,2.984,0,0,1-2.051-.707,2.287,2.287,0,0,1-.8-1.793,2.39,2.39,0,0,1,1-2.051,4.733,4.733,0,0,1,2.824-.73h1.406v-.664A1.623,1.623,0,0,0,51.3-7a1.821,1.821,0,0,0-1.336-.449,2.107,2.107,0,0,0-1.3.391,1.151,1.151,0,0,0-.523.945H46.7a2,2,0,0,1,.449-1.223,3.066,3.066,0,0,1,1.219-.934,4.1,4.1,0,0,1,1.691-.344,3.342,3.342,0,0,1,2.289.73A2.635,2.635,0,0,1,53.2-5.867v3.891a4.757,4.757,0,0,0,.3,1.852V0Zm-2.4-1.1a2.54,2.54,0,0,0,1.289-.352,2.127,2.127,0,0,0,.883-.914V-4.1H50.625q-2.656,0-2.656,1.555a1.316,1.316,0,0,0,.453,1.063A1.742,1.742,0,0,0,49.586-1.1ZM66.57-4.133a5.062,5.062,0,0,1-.883,3.109A2.829,2.829,0,0,1,63.3.156,3.1,3.1,0,0,1,60.875-.82V3.25H59.43v-11.7h1.32l.07.938a2.977,2.977,0,0,1,2.453-1.094,2.882,2.882,0,0,1,2.41,1.148,5.117,5.117,0,0,1,.887,3.2ZM65.125-4.3a3.735,3.735,0,0,0-.609-2.258,1.963,1.963,0,0,0-1.672-.828,2.125,2.125,0,0,0-1.969,1.164V-2.18a2.129,2.129,0,0,0,1.984,1.156,1.954,1.954,0,0,0,1.652-.824A4.077,4.077,0,0,0,65.125-4.3Zm7.367-2.859a4.331,4.331,0,0,0-.711-.055A1.9,1.9,0,0,0,69.852-6V0H68.406V-8.453h1.406l.023.977a2.251,2.251,0,0,1,2.016-1.133,1.477,1.477,0,0,1,.641.109ZM75.391,0H73.945V-8.453h1.445ZM73.828-10.7a.863.863,0,0,1,.215-.594.807.807,0,0,1,.637-.242.819.819,0,0,1,.641.242.854.854,0,0,1,.219.594.826.826,0,0,1-.219.586.834.834,0,0,1-.641.234.821.821,0,0,1-.637-.234A.834.834,0,0,1,73.828-10.7Zm5.234,2.242.039.938a3.122,3.122,0,0,1,2.508-1.094A2.417,2.417,0,0,1,84.023-7.25a3.2,3.2,0,0,1,1.1-.984,3.242,3.242,0,0,1,1.6-.375q2.781,0,2.828,2.945V0H88.1V-5.578a1.941,1.941,0,0,0-.414-1.355A1.823,1.823,0,0,0,86.3-7.383a1.916,1.916,0,0,0-1.336.48,1.949,1.949,0,0,0-.617,1.293V0H82.891V-5.539a1.613,1.613,0,0,0-1.8-1.844,1.934,1.934,0,0,0-1.945,1.211V0H77.7V-8.453ZM96.945,0a3.036,3.036,0,0,1-.2-.891A3.225,3.225,0,0,1,94.336.156a2.984,2.984,0,0,1-2.051-.707,2.288,2.288,0,0,1-.8-1.793,2.39,2.39,0,0,1,1-2.051,4.733,4.733,0,0,1,2.824-.73h1.406v-.664A1.623,1.623,0,0,0,96.266-7a1.821,1.821,0,0,0-1.336-.449,2.108,2.108,0,0,0-1.3.391,1.151,1.151,0,0,0-.523.945H91.656a2,2,0,0,1,.449-1.223,3.066,3.066,0,0,1,1.219-.934,4.1,4.1,0,0,1,1.691-.344,3.342,3.342,0,0,1,2.289.73,2.635,2.635,0,0,1,.859,2.012v3.891a4.757,4.757,0,0,0,.3,1.852V0Zm-2.4-1.1a2.54,2.54,0,0,0,1.289-.352,2.127,2.127,0,0,0,.883-.914V-4.1H95.586q-2.656,0-2.656,1.555a1.316,1.316,0,0,0,.453,1.063A1.742,1.742,0,0,0,94.547-1.1Z" transform="translate(-516.721 -8988.502)" fill="#12263f"/>
    <rect id="Rectángulo_5264-4-2" data-name="Rectángulo 5264-4" width="195.236" height="42.331" transform="translate(-258.881 -9015.583)" fill="#dbfafa"/>
    <rect id="Rectángulo_5265-4-2" data-name="Rectángulo 5265-4" width="220.937" height="61.451" transform="translate(-271.818 -9025.494)" fill="rgba(0,0,0,0)" stroke="#25ced1" stroke-miterlimit="10" stroke-width="2"/>
    <rect id="Rectángulo_5266-4-2" data-name="Rectángulo 5266-4" width="6.236" height="18.047" transform="translate(-275.125 -9026.895)" fill="#25ced1"/>
    <rect id="Rectángulo_5267-4-2" data-name="Rectángulo 5267-4" width="18.047" height="6.236" transform="translate(-275.125 -9028.312)" fill="#25ced1"/>
    <path id="Trazado_105771" data-name="Trazado 105771" d="M9.18-10.148H5.523V0H4.031V-10.148H.383v-1.227h8.8Zm.3,5.844a4.993,4.993,0,0,1,.488-2.234A3.643,3.643,0,0,1,11.332-8.07a3.7,3.7,0,0,1,1.988-.539,3.565,3.565,0,0,1,2.793,1.2,4.6,4.6,0,0,1,1.066,3.18v.1a5.036,5.036,0,0,1-.473,2.215A3.589,3.589,0,0,1,15.355-.391a3.743,3.743,0,0,1-2.02.547,3.556,3.556,0,0,1-2.785-1.2A4.575,4.575,0,0,1,9.484-4.2Zm1.453.172a3.616,3.616,0,0,0,.652,2.258,2.088,2.088,0,0,0,1.746.852,2.075,2.075,0,0,0,1.75-.863A3.955,3.955,0,0,0,15.734-4.3a3.61,3.61,0,0,0-.66-2.254,2.1,2.1,0,0,0-1.754-.863,2.075,2.075,0,0,0-1.727.852A3.925,3.925,0,0,0,10.938-4.133ZM23.078-7.156a4.331,4.331,0,0,0-.711-.055A1.9,1.9,0,0,0,20.438-6V0H18.992V-8.453H20.4l.023.977a2.251,2.251,0,0,1,2.016-1.133,1.477,1.477,0,0,1,.641.109Zm2.7-1.3.047,1.063a3.08,3.08,0,0,1,2.531-1.219q2.68,0,2.7,3.023V0H29.609V-5.594a1.946,1.946,0,0,0-.418-1.352,1.675,1.675,0,0,0-1.277-.437,2.086,2.086,0,0,0-1.234.375,2.546,2.546,0,0,0-.828.984V0H24.406V-8.453ZM32.852-4.3a4.993,4.993,0,0,1,.488-2.234A3.643,3.643,0,0,1,34.7-8.07a3.7,3.7,0,0,1,1.988-.539,3.565,3.565,0,0,1,2.793,1.2,4.6,4.6,0,0,1,1.066,3.18v.1a5.036,5.036,0,0,1-.473,2.215A3.589,3.589,0,0,1,38.723-.391,3.743,3.743,0,0,1,36.7.156a3.556,3.556,0,0,1-2.785-1.2A4.575,4.575,0,0,1,32.852-4.2Zm1.453.172a3.616,3.616,0,0,0,.652,2.258,2.088,2.088,0,0,0,1.746.852,2.075,2.075,0,0,0,1.75-.863A3.955,3.955,0,0,0,39.1-4.3a3.61,3.61,0,0,0-.66-2.254,2.1,2.1,0,0,0-1.754-.863,2.075,2.075,0,0,0-1.727.852A3.925,3.925,0,0,0,34.3-4.133Z" transform="translate(-183.637 -8988.502)" fill="#12263f"/>
    <rect id="Rectángulo_5264-4-3" data-name="Rectángulo 5264-4" width="195.236" height="42.331" transform="translate(51.174 -9015.583)" fill="#fce5e9"/>
    <rect id="Rectángulo_5265-4-3" data-name="Rectángulo 5265-4" width="220.937" height="61.451" transform="translate(38.237 -9025.494)" fill="rgba(0,0,0,0)" stroke="#ea526f" stroke-miterlimit="10" stroke-width="2"/>
    <rect id="Rectángulo_5266-4-3" data-name="Rectángulo 5266-4" width="6.236" height="18.047" transform="translate(34.931 -9026.895)" fill="#ea526f"/>
    <rect id="Rectángulo_5267-4-3" data-name="Rectángulo 5267-4" width="18.047" height="6.236" transform="translate(34.931 -9028.312)" fill="#ea526f"/>
    <path id="Trazado_105768" data-name="Trazado 105768" d="M2.82-4.453V0H1.32V-11.375h4.2a4.215,4.215,0,0,1,2.926.953A3.231,3.231,0,0,1,9.5-7.9,3.189,3.189,0,0,1,8.465-5.348,4.4,4.4,0,0,1,5.5-4.453Zm0-1.227h2.7a2.7,2.7,0,0,0,1.844-.567A2.075,2.075,0,0,0,8-7.887a2.143,2.143,0,0,0-.641-1.628A2.525,2.525,0,0,0,5.6-10.148H2.82ZM15.273-7.156a4.331,4.331,0,0,0-.711-.055A1.9,1.9,0,0,0,12.633-6V0H11.188V-8.453h1.406l.023.977a2.251,2.251,0,0,1,2.016-1.133,1.477,1.477,0,0,1,.641.109ZM19.961.156a3.693,3.693,0,0,1-2.8-1.129,4.19,4.19,0,0,1-1.078-3.02v-.266a5.073,5.073,0,0,1,.48-2.246A3.748,3.748,0,0,1,17.91-8.051a3.378,3.378,0,0,1,1.871-.559,3.166,3.166,0,0,1,2.563,1.086,4.7,4.7,0,0,1,.914,3.109v.6H17.531a3,3,0,0,0,.73,2.02,2.3,2.3,0,0,0,1.777.77,2.517,2.517,0,0,0,1.3-.312,3.259,3.259,0,0,0,.93-.828l.883.688A3.55,3.55,0,0,1,19.961.156Zm-.18-7.578a1.928,1.928,0,0,0-1.469.637A3.1,3.1,0,0,0,17.578-5h4.234v-.109a2.753,2.753,0,0,0-.594-1.707A1.815,1.815,0,0,0,19.781-7.422ZM26.3-8.453l.047,1.063a3.08,3.08,0,0,1,2.531-1.219q2.68,0,2.7,3.023V0H30.133V-5.594a1.946,1.946,0,0,0-.418-1.352,1.675,1.675,0,0,0-1.277-.437,2.086,2.086,0,0,0-1.234.375,2.546,2.546,0,0,0-.828.984V0H24.93V-8.453ZM38.68-2.242a1.064,1.064,0,0,0-.441-.91A4.249,4.249,0,0,0,36.7-3.711a7.277,7.277,0,0,1-1.742-.562A2.479,2.479,0,0,1,34-5.055,1.869,1.869,0,0,1,33.7-6.133a2.193,2.193,0,0,1,.879-1.758,3.432,3.432,0,0,1,2.246-.719,3.532,3.532,0,0,1,2.332.742,2.357,2.357,0,0,1,.895,1.9H38.594a1.3,1.3,0,0,0-.5-1.023,1.888,1.888,0,0,0-1.27-.43,1.976,1.976,0,0,0-1.234.344,1.082,1.082,0,0,0-.445.9.877.877,0,0,0,.414.789,5.1,5.1,0,0,0,1.5.508A7.8,7.8,0,0,1,38.8-4.3a2.558,2.558,0,0,1,1,.809,1.988,1.988,0,0,1,.324,1.152,2.163,2.163,0,0,1-.906,1.816,3.8,3.8,0,0,1-2.352.684A4.257,4.257,0,0,1,35.07-.2a2.922,2.922,0,0,1-1.223-1A2.42,2.42,0,0,1,33.406-2.6h1.445a1.5,1.5,0,0,0,.582,1.152,2.258,2.258,0,0,0,1.434.426,2.331,2.331,0,0,0,1.316-.332A1.02,1.02,0,0,0,38.68-2.242ZM47.227,0a3.036,3.036,0,0,1-.2-.891A3.225,3.225,0,0,1,44.617.156a2.984,2.984,0,0,1-2.051-.707,2.287,2.287,0,0,1-.8-1.793,2.39,2.39,0,0,1,1-2.051,4.733,4.733,0,0,1,2.824-.73H47v-.664A1.623,1.623,0,0,0,46.547-7a1.821,1.821,0,0,0-1.336-.449,2.107,2.107,0,0,0-1.3.391,1.151,1.151,0,0,0-.523.945H41.938a2,2,0,0,1,.449-1.223,3.066,3.066,0,0,1,1.219-.934A4.1,4.1,0,0,1,45.3-8.609a3.342,3.342,0,0,1,2.289.73,2.635,2.635,0,0,1,.859,2.012v3.891a4.757,4.757,0,0,0,.3,1.852V0Zm-2.4-1.1a2.54,2.54,0,0,0,1.289-.352A2.127,2.127,0,0,0,47-2.367V-4.1H45.867q-2.656,0-2.656,1.555a1.316,1.316,0,0,0,.453,1.063A1.742,1.742,0,0,0,44.828-1.1Z" transform="translate(122.243 -8988.502)" fill="#12263f"/>
    <rect id="Rectángulo_5264-4-4" data-name="Rectángulo 5264-4" width="195.236" height="42.331" transform="translate(-562.931 -8892.54)" fill="#dbfafa"/>
    <rect id="Rectángulo_5265-4-4" data-name="Rectángulo 5265-4" width="220.937" height="61.451" transform="translate(-575.868 -8902.451)" fill="rgba(0,0,0,0)" stroke="#25ced1" stroke-miterlimit="10" stroke-width="2"/>
    <rect id="Rectángulo_5266-4-4" data-name="Rectángulo 5266-4" width="6.236" height="18.047" transform="translate(-579.175 -8903.853)" fill="#25ced1"/>
    <rect id="Rectángulo_5267-4-4" data-name="Rectángulo 5267-4" width="18.047" height="6.236" transform="translate(-579.174 -8905.27)" fill="#25ced1"/>
    <path id="Trazado_105773" data-name="Trazado 105773" d="M2.82-4.453V0H1.32V-11.375h4.2a4.215,4.215,0,0,1,2.926.953A3.231,3.231,0,0,1,9.5-7.9,3.189,3.189,0,0,1,8.465-5.348,4.4,4.4,0,0,1,5.5-4.453Zm0-1.227h2.7a2.7,2.7,0,0,0,1.844-.567A2.075,2.075,0,0,0,8-7.887a2.143,2.143,0,0,0-.641-1.628A2.525,2.525,0,0,0,5.6-10.148H2.82ZM15.273-7.156a4.331,4.331,0,0,0-.711-.055A1.9,1.9,0,0,0,12.633-6V0H11.188V-8.453h1.406l.023.977a2.251,2.251,0,0,1,2.016-1.133,1.477,1.477,0,0,1,.641.109ZM16.063-4.3a4.993,4.993,0,0,1,.488-2.234A3.643,3.643,0,0,1,17.91-8.07,3.7,3.7,0,0,1,19.9-8.609a3.565,3.565,0,0,1,2.793,1.2,4.6,4.6,0,0,1,1.066,3.18v.1a5.036,5.036,0,0,1-.473,2.215A3.589,3.589,0,0,1,21.934-.391a3.743,3.743,0,0,1-2.02.547,3.556,3.556,0,0,1-2.785-1.2A4.575,4.575,0,0,1,16.063-4.2Zm1.453.172a3.616,3.616,0,0,0,.652,2.258,2.088,2.088,0,0,0,1.746.852,2.075,2.075,0,0,0,1.75-.863A3.955,3.955,0,0,0,22.313-4.3a3.61,3.61,0,0,0-.66-2.254A2.1,2.1,0,0,0,19.9-7.422a2.075,2.075,0,0,0-1.727.852A3.925,3.925,0,0,0,17.516-4.133Zm7.7-.164a4.952,4.952,0,0,1,.922-3.129,2.915,2.915,0,0,1,2.414-1.184,2.932,2.932,0,0,1,2.352,1.016V-12h1.445V0H31.023l-.07-.906A2.943,2.943,0,0,1,28.539.156a2.887,2.887,0,0,1-2.395-1.2,5.008,5.008,0,0,1-.926-3.141Zm1.445.164a3.749,3.749,0,0,0,.594,2.25A1.92,1.92,0,0,0,28.9-1.07,2.108,2.108,0,0,0,30.906-2.3V-6.187a2.125,2.125,0,0,0-1.992-1.2,1.929,1.929,0,0,0-1.656.82A4.128,4.128,0,0,0,26.664-4.133Zm13.148,3.3a3.07,3.07,0,0,1-2.477.992,2.628,2.628,0,0,1-2.059-.785,3.4,3.4,0,0,1-.715-2.324v-5.5h1.445v5.461q0,1.922,1.563,1.922a2.163,2.163,0,0,0,2.2-1.234V-8.453h1.445V0H39.844ZM46.8-1.023a2.082,2.082,0,0,0,1.352-.469A1.649,1.649,0,0,0,48.8-2.664h1.367a2.621,2.621,0,0,1-.5,1.383,3.293,3.293,0,0,1-1.23,1.047A3.55,3.55,0,0,1,46.8.156,3.482,3.482,0,0,1,44.059-1a4.59,4.59,0,0,1-1.02-3.152v-.242a5.089,5.089,0,0,1,.453-2.2,3.451,3.451,0,0,1,1.3-1.492,3.7,3.7,0,0,1,2-.531,3.39,3.39,0,0,1,2.363.852,3.043,3.043,0,0,1,1,2.211H48.8a1.992,1.992,0,0,0-.621-1.348A1.932,1.932,0,0,0,46.8-7.422a2.023,2.023,0,0,0-1.707.793,3.724,3.724,0,0,0-.605,2.293v.273a3.65,3.65,0,0,0,.6,2.25A2.033,2.033,0,0,0,46.8-1.023ZM53.75-10.5v2.047h1.578v1.117H53.75v5.249a1.173,1.173,0,0,0,.211.763.888.888,0,0,0,.719.254,3.5,3.5,0,0,0,.688-.094V0a4.215,4.215,0,0,1-1.109.155A1.8,1.8,0,0,1,52.8-.43,2.517,2.517,0,0,1,52.3-2.094V-7.336H50.766V-8.453H52.3V-10.5Zm2.727,6.2a4.993,4.993,0,0,1,.488-2.234A3.643,3.643,0,0,1,58.324-8.07a3.7,3.7,0,0,1,1.988-.539,3.565,3.565,0,0,1,2.793,1.2,4.6,4.6,0,0,1,1.066,3.18v.1A5.036,5.036,0,0,1,63.7-1.918,3.589,3.589,0,0,1,62.348-.391a3.743,3.743,0,0,1-2.02.547,3.556,3.556,0,0,1-2.785-1.2A4.575,4.575,0,0,1,56.477-4.2Zm1.453.172a3.616,3.616,0,0,0,.652,2.258,2.088,2.088,0,0,0,1.746.852,2.075,2.075,0,0,0,1.75-.863A3.955,3.955,0,0,0,62.727-4.3a3.61,3.61,0,0,0-.66-2.254,2.1,2.1,0,0,0-1.754-.863,2.075,2.075,0,0,0-1.727.852A3.925,3.925,0,0,0,57.93-4.133ZM75.164,0a3.036,3.036,0,0,1-.2-.891A3.225,3.225,0,0,1,72.555.156,2.984,2.984,0,0,1,70.5-.551a2.288,2.288,0,0,1-.8-1.793,2.39,2.39,0,0,1,1-2.051,4.733,4.733,0,0,1,2.824-.73h1.406v-.664A1.623,1.623,0,0,0,74.484-7a1.821,1.821,0,0,0-1.336-.449,2.108,2.108,0,0,0-1.3.391,1.151,1.151,0,0,0-.523.945H69.875a2,2,0,0,1,.449-1.223,3.066,3.066,0,0,1,1.219-.934,4.1,4.1,0,0,1,1.691-.344,3.342,3.342,0,0,1,2.289.73,2.635,2.635,0,0,1,.859,2.012v3.891a4.757,4.757,0,0,0,.3,1.852V0Zm-2.4-1.1a2.54,2.54,0,0,0,1.289-.352,2.127,2.127,0,0,0,.883-.914V-4.1H73.8q-2.656,0-2.656,1.555A1.316,1.316,0,0,0,71.6-1.484,1.742,1.742,0,0,0,72.766-1.1Zm9.273.078a2.082,2.082,0,0,0,1.352-.469,1.649,1.649,0,0,0,.641-1.172H85.4a2.621,2.621,0,0,1-.5,1.383,3.293,3.293,0,0,1-1.23,1.047,3.55,3.55,0,0,1-1.629.391A3.482,3.482,0,0,1,79.293-1a4.59,4.59,0,0,1-1.02-3.152v-.242a5.089,5.089,0,0,1,.453-2.2,3.451,3.451,0,0,1,1.3-1.492,3.7,3.7,0,0,1,2-.531,3.39,3.39,0,0,1,2.363.852,3.043,3.043,0,0,1,1,2.211H84.031a1.992,1.992,0,0,0-.621-1.348,1.932,1.932,0,0,0-1.379-.527,2.023,2.023,0,0,0-1.707.793,3.724,3.724,0,0,0-.605,2.293v.273a3.65,3.65,0,0,0,.6,2.25A2.033,2.033,0,0,0,82.039-1.023ZM92.242,0a3.036,3.036,0,0,1-.2-.891A3.225,3.225,0,0,1,89.633.156a2.984,2.984,0,0,1-2.051-.707,2.288,2.288,0,0,1-.8-1.793,2.39,2.39,0,0,1,1-2.051,4.733,4.733,0,0,1,2.824-.73h1.406v-.664A1.623,1.623,0,0,0,91.563-7a1.821,1.821,0,0,0-1.336-.449,2.108,2.108,0,0,0-1.3.391,1.151,1.151,0,0,0-.523.945H86.953A2,2,0,0,1,87.4-7.332a3.066,3.066,0,0,1,1.219-.934,4.1,4.1,0,0,1,1.691-.344,3.342,3.342,0,0,1,2.289.73,2.635,2.635,0,0,1,.859,2.012v3.891a4.757,4.757,0,0,0,.3,1.852V0Zm-2.4-1.1a2.54,2.54,0,0,0,1.289-.352,2.127,2.127,0,0,0,.883-.914V-4.1H90.883q-2.656,0-2.656,1.555a1.316,1.316,0,0,0,.453,1.063A1.742,1.742,0,0,0,89.844-1.1Zm13.039-3.031a5.026,5.026,0,0,1-.891,3.113A2.846,2.846,0,0,1,99.6.156,2.947,2.947,0,0,1,97.125-.977L97.055,0H95.727V-12h1.445v4.477a2.93,2.93,0,0,1,2.414-1.086A2.863,2.863,0,0,1,102-7.445a5.177,5.177,0,0,1,.879,3.188ZM101.438-4.3a3.906,3.906,0,0,0-.57-2.281,1.888,1.888,0,0,0-1.641-.8,2.122,2.122,0,0,0-2.055,1.328V-2.4a2.181,2.181,0,0,0,2.07,1.328,1.878,1.878,0,0,0,1.617-.8A4.153,4.153,0,0,0,101.438-4.3ZM109.922,0a3.036,3.036,0,0,1-.2-.891A3.225,3.225,0,0,1,107.313.156a2.984,2.984,0,0,1-2.051-.707,2.288,2.288,0,0,1-.8-1.793,2.39,2.39,0,0,1,1-2.051,4.733,4.733,0,0,1,2.824-.73H109.7v-.664A1.623,1.623,0,0,0,109.242-7a1.821,1.821,0,0,0-1.336-.449,2.108,2.108,0,0,0-1.3.391,1.151,1.151,0,0,0-.523.945h-1.453a2,2,0,0,1,.449-1.223,3.066,3.066,0,0,1,1.219-.934,4.1,4.1,0,0,1,1.691-.344,3.342,3.342,0,0,1,2.289.73,2.635,2.635,0,0,1,.859,2.012v3.891a4.757,4.757,0,0,0,.3,1.852V0Zm-2.4-1.1a2.54,2.54,0,0,0,1.289-.352,2.127,2.127,0,0,0,.883-.914V-4.1h-1.133q-2.656,0-2.656,1.555a1.316,1.316,0,0,0,.453,1.063A1.742,1.742,0,0,0,107.523-1.1Zm5.531-3.2a4.952,4.952,0,0,1,.922-3.129,2.915,2.915,0,0,1,2.414-1.184,2.932,2.932,0,0,1,2.352,1.016V-12h1.445V0h-1.328l-.07-.906A2.943,2.943,0,0,1,116.375.156a2.887,2.887,0,0,1-2.395-1.2,5.008,5.008,0,0,1-.926-3.141Zm1.445.164a3.749,3.749,0,0,0,.594,2.25,1.92,1.92,0,0,0,1.641.813A2.109,2.109,0,0,0,118.742-2.3V-6.187a2.125,2.125,0,0,0-1.992-1.2,1.929,1.929,0,0,0-1.656.82A4.128,4.128,0,0,0,114.5-4.133Zm7.547-.172a4.993,4.993,0,0,1,.488-2.234,3.643,3.643,0,0,1,1.359-1.531,3.7,3.7,0,0,1,1.988-.539,3.565,3.565,0,0,1,2.793,1.2,4.6,4.6,0,0,1,1.066,3.18v.1a5.036,5.036,0,0,1-.473,2.215,3.589,3.589,0,0,1-1.352,1.527,3.743,3.743,0,0,1-2.02.547,3.556,3.556,0,0,1-2.785-1.2A4.575,4.575,0,0,1,122.047-4.2Zm1.453.172a3.616,3.616,0,0,0,.652,2.258,2.088,2.088,0,0,0,1.746.852,2.075,2.075,0,0,0,1.75-.863A3.954,3.954,0,0,0,128.3-4.3a3.61,3.61,0,0,0-.66-2.254,2.1,2.1,0,0,0-1.754-.863,2.075,2.075,0,0,0-1.727.852A3.925,3.925,0,0,0,123.5-4.133Z" transform="translate(-532.284 -8865.459)" fill="#12263f"/>
    <rect id="Rectángulo_5264-4-5" data-name="Rectángulo 5264-4" width="195.236" height="42.331" transform="translate(-258.881 -8892.54)" fill="#fce5e9"/>
    <rect id="Rectángulo_5265-4-5" data-name="Rectángulo 5265-4" width="220.937" height="61.451" transform="translate(-271.818 -8902.451)" fill="rgba(0,0,0,0)" stroke="#ea526f" stroke-miterlimit="10" stroke-width="2"/>
    <rect id="Rectángulo_5266-4-5" data-name="Rectángulo 5266-4" width="6.236" height="18.047" transform="translate(-275.125 -8903.853)" fill="#ea526f"/>
    <rect id="Rectángulo_5267-4-5" data-name="Rectángulo 5267-4" width="18.047" height="6.236" transform="translate(-275.125 -8905.27)" fill="#ea526f"/>
    <path id="Trazado_105770" data-name="Trazado 105770" d="M7.75-5.258H2.82v4.031H8.547V0H1.32V-11.375H8.469v1.227H2.82v3.664H7.75Zm3.8-3.2.039.938a3.122,3.122,0,0,1,2.508-1.094A2.417,2.417,0,0,1,16.508-7.25a3.2,3.2,0,0,1,1.1-.984,3.242,3.242,0,0,1,1.6-.375q2.781,0,2.828,2.945V0H20.586V-5.578a1.941,1.941,0,0,0-.414-1.355,1.823,1.823,0,0,0-1.391-.449,1.916,1.916,0,0,0-1.336.48,1.949,1.949,0,0,0-.617,1.293V0H15.375V-5.539a1.613,1.613,0,0,0-1.8-1.844,1.934,1.934,0,0,0-1.945,1.211V0H10.18V-8.453Zm19.82,4.32a5.026,5.026,0,0,1-.891,3.113A2.846,2.846,0,0,1,28.086.156,2.947,2.947,0,0,1,25.609-.977L25.539,0H24.211V-12h1.445v4.477A2.93,2.93,0,0,1,28.07-8.609a2.863,2.863,0,0,1,2.418,1.164,5.177,5.177,0,0,1,.879,3.188ZM29.922-4.3a3.906,3.906,0,0,0-.57-2.281,1.888,1.888,0,0,0-1.641-.8,2.122,2.122,0,0,0-2.055,1.328V-2.4a2.181,2.181,0,0,0,2.07,1.328,1.878,1.878,0,0,0,1.617-.8A4.153,4.153,0,0,0,29.922-4.3ZM38.406,0a3.036,3.036,0,0,1-.2-.891A3.225,3.225,0,0,1,35.8.156a2.984,2.984,0,0,1-2.051-.707,2.287,2.287,0,0,1-.8-1.793,2.39,2.39,0,0,1,1-2.051,4.733,4.733,0,0,1,2.824-.73H38.18v-.664A1.623,1.623,0,0,0,37.727-7a1.821,1.821,0,0,0-1.336-.449,2.107,2.107,0,0,0-1.3.391,1.151,1.151,0,0,0-.523.945H33.117a2,2,0,0,1,.449-1.223,3.066,3.066,0,0,1,1.219-.934,4.1,4.1,0,0,1,1.691-.344,3.342,3.342,0,0,1,2.289.73,2.635,2.635,0,0,1,.859,2.012v3.891a4.757,4.757,0,0,0,.3,1.852V0Zm-2.4-1.1A2.54,2.54,0,0,0,37.3-1.453a2.127,2.127,0,0,0,.883-.914V-4.1H37.047q-2.656,0-2.656,1.555a1.316,1.316,0,0,0,.453,1.063A1.742,1.742,0,0,0,36.008-1.1ZM43.461,0H42.016V-12h1.445Zm7.531,0a3.036,3.036,0,0,1-.2-.891A3.225,3.225,0,0,1,48.383.156a2.984,2.984,0,0,1-2.051-.707,2.287,2.287,0,0,1-.8-1.793,2.39,2.39,0,0,1,1-2.051,4.733,4.733,0,0,1,2.824-.73h1.406v-.664A1.623,1.623,0,0,0,50.313-7a1.821,1.821,0,0,0-1.336-.449,2.107,2.107,0,0,0-1.3.391,1.151,1.151,0,0,0-.523.945H45.7a2,2,0,0,1,.449-1.223,3.066,3.066,0,0,1,1.219-.934,4.1,4.1,0,0,1,1.691-.344,3.342,3.342,0,0,1,2.289.73,2.635,2.635,0,0,1,.859,2.012v3.891a4.757,4.757,0,0,0,.3,1.852V0Zm-2.4-1.1a2.54,2.54,0,0,0,1.289-.352,2.127,2.127,0,0,0,.883-.914V-4.1H49.633q-2.656,0-2.656,1.555a1.316,1.316,0,0,0,.453,1.063A1.742,1.742,0,0,0,48.594-1.1Zm7.375-7.352V.977q0,2.437-2.211,2.438a2.7,2.7,0,0,1-.883-.14V2.125a2.794,2.794,0,0,0,.656.063.982.982,0,0,0,.738-.262,1.3,1.3,0,0,0,.254-.911V-8.453ZM54.375-10.7a.867.867,0,0,1,.215-.59.79.79,0,0,1,.629-.246.819.819,0,0,1,.641.242.854.854,0,0,1,.219.594.826.826,0,0,1-.219.586.834.834,0,0,1-.641.234.808.808,0,0,1-.633-.234A.843.843,0,0,1,54.375-10.7ZM61.8.156a3.693,3.693,0,0,1-2.8-1.129,4.19,4.19,0,0,1-1.078-3.02v-.266A5.073,5.073,0,0,1,58.41-6.5a3.748,3.748,0,0,1,1.344-1.547,3.378,3.378,0,0,1,1.871-.559,3.166,3.166,0,0,1,2.563,1.086A4.7,4.7,0,0,1,65.1-4.414v.6H59.375a3,3,0,0,0,.73,2.02,2.3,2.3,0,0,0,1.777.77,2.517,2.517,0,0,0,1.3-.312,3.259,3.259,0,0,0,.93-.828l.883.688A3.55,3.55,0,0,1,61.8.156Zm-.18-7.578a1.928,1.928,0,0,0-1.469.637A3.1,3.1,0,0,0,59.422-5h4.234v-.109a2.753,2.753,0,0,0-.594-1.707A1.815,1.815,0,0,0,61.625-7.422Z" transform="translate(-195.844 -8865.459)" fill="#12263f"/>
    <rect id="Rectángulo_5264-4-6" data-name="Rectángulo 5264-4" width="195.236" height="42.331" transform="translate(51.174 -8892.54)" fill="#ffe8de"/>
    <rect id="Rectángulo_5265-4-6" data-name="Rectángulo 5265-4" width="220.937" height="61.451" transform="translate(38.237 -8902.451)" fill="rgba(0,0,0,0)" stroke="#ff8a5b" stroke-miterlimit="10" stroke-width="2"/>
    <rect id="Rectángulo_5266-4-6" data-name="Rectángulo 5266-4" width="6.236" height="18.047" transform="translate(34.931 -8903.853)" fill="#ff8a5b"/>
    <rect id="Rectángulo_5267-4-6" data-name="Rectángulo 5267-4" width="18.047" height="6.236" transform="translate(34.931 -8905.27)" fill="#ff8a5b"/>
    <path id="Trazado_105769" data-name="Trazado 105769" d="M9.688-3.609A4.185,4.185,0,0,1,8.355-.824a4.365,4.365,0,0,1-2.98.98,4.008,4.008,0,0,1-3.23-1.445A5.815,5.815,0,0,1,.93-5.156V-6.25A6.481,6.481,0,0,1,1.5-9.039,4.231,4.231,0,0,1,3.1-10.887a4.47,4.47,0,0,1,2.406-.645A4.11,4.11,0,0,1,8.414-10.52a4.235,4.235,0,0,1,1.273,2.8H8.18a3.268,3.268,0,0,0-.848-1.975A2.565,2.565,0,0,0,5.508-10.3,2.684,2.684,0,0,0,3.254-9.241a4.882,4.882,0,0,0-.816,3.026v1.1a5.018,5.018,0,0,0,.773,2.948A2.5,2.5,0,0,0,5.375-1.07a2.887,2.887,0,0,0,1.918-.566A3.143,3.143,0,0,0,8.18-3.609ZM15.016.156a3.693,3.693,0,0,1-2.8-1.129,4.19,4.19,0,0,1-1.078-3.02v-.266a5.073,5.073,0,0,1,.48-2.246,3.748,3.748,0,0,1,1.344-1.547,3.378,3.378,0,0,1,1.871-.559A3.166,3.166,0,0,1,17.4-7.523a4.7,4.7,0,0,1,.914,3.109v.6H12.586a3,3,0,0,0,.73,2.02,2.3,2.3,0,0,0,1.777.77,2.517,2.517,0,0,0,1.3-.312,3.259,3.259,0,0,0,.93-.828l.883.688A3.55,3.55,0,0,1,15.016.156Zm-.18-7.578a1.928,1.928,0,0,0-1.469.637A3.1,3.1,0,0,0,12.633-5h4.234v-.109a2.753,2.753,0,0,0-.594-1.707A1.815,1.815,0,0,0,14.836-7.422ZM27.125-4.133a5.062,5.062,0,0,1-.883,3.109A2.829,2.829,0,0,1,23.852.156,3.1,3.1,0,0,1,21.43-.82V3.25H19.984v-11.7H21.3l.07.938a2.977,2.977,0,0,1,2.453-1.094,2.882,2.882,0,0,1,2.41,1.148,5.117,5.117,0,0,1,.887,3.2ZM25.68-4.3a3.735,3.735,0,0,0-.609-2.258A1.963,1.963,0,0,0,23.4-7.383,2.125,2.125,0,0,0,21.43-6.219V-2.18a2.129,2.129,0,0,0,1.984,1.156,1.954,1.954,0,0,0,1.652-.824A4.077,4.077,0,0,0,25.68-4.3ZM30.531,0H29.086V-8.453h1.445ZM28.969-10.7a.863.863,0,0,1,.215-.594.807.807,0,0,1,.637-.242.819.819,0,0,1,.641.242.854.854,0,0,1,.219.594.826.826,0,0,1-.219.586.834.834,0,0,1-.641.234.821.821,0,0,1-.637-.234A.834.834,0,0,1,28.969-10.7ZM34.414,0H32.969V-12h1.445ZM38.3,0H36.852V-12H38.3Zm1.93-4.3a4.993,4.993,0,0,1,.488-2.234A3.643,3.643,0,0,1,42.074-8.07a3.7,3.7,0,0,1,1.988-.539,3.565,3.565,0,0,1,2.793,1.2,4.6,4.6,0,0,1,1.066,3.18v.1a5.036,5.036,0,0,1-.473,2.215A3.589,3.589,0,0,1,46.1-.391a3.743,3.743,0,0,1-2.02.547,3.556,3.556,0,0,1-2.785-1.2A4.575,4.575,0,0,1,40.227-4.2Zm1.453.172a3.616,3.616,0,0,0,.652,2.258,2.088,2.088,0,0,0,1.746.852,2.075,2.075,0,0,0,1.75-.863A3.955,3.955,0,0,0,46.477-4.3a3.61,3.61,0,0,0-.66-2.254,2.1,2.1,0,0,0-1.754-.863,2.075,2.075,0,0,0-1.727.852A3.925,3.925,0,0,0,41.68-4.133Z" transform="translate(122.731 -8865.459)" fill="#12263f"/>
    <path id="Trazado_102353" data-name="Trazado 102353" d="M4795.406,166.7l-8.253-3.623,8.233,19.648.02-.04.02.04,8.233-19.648Z" transform="translate(-4638.36 -9096)" fill="#0075a4"/>
    <rect id="Rectángulo_5473-2" data-name="Rectángulo 5473" width="3.402" height="26.985" transform="translate(155.345 -8955.795)" fill="#0075a4"/>
    <path id="Trazado_102354" data-name="Trazado 102354" d="M4336.468,101.583l-3.623,8.253,19.648-8.233-.04-.02.04-.02-19.648-8.233Z" transform="translate(-4638.36 -9096)" fill="#0075a4"/>
    <rect id="Rectángulo_5474" data-name="Rectángulo 5474" width="42.236" height="3.402" transform="translate(-343.636 -8996.118)" fill="#0075a4"/>
    <path id="Trazado_102355" data-name="Trazado 102355" d="M4644.244,101.583l-3.623,8.253,19.647-8.233-.04-.02.04-.02-19.647-8.233Z" transform="translate(-4638.36 -9096)" fill="#0075a4"/>
    <rect id="Rectángulo_5475" data-name="Rectángulo 5475" width="42.236" height="3.402" transform="translate(-35.859 -8996.118)" fill="#0075a4"/>
    <path id="Trazado_102356" data-name="Trazado 102356" d="M4618.526,226.092l3.623-8.253-19.648,8.233.04.02-.04.02,19.648,8.233Z" transform="translate(-4638.36 -9096)" fill="#0075a4"/>
    <rect id="Rectángulo_5476" data-name="Rectángulo 5476" width="42.236" height="3.402" transform="translate(-20.328 -8871.608)" fill="#0075a4"/>
    <path id="Trazado_102357" data-name="Trazado 102357" d="M4310.75,226.092l3.623-8.253-19.648,8.233.04.02-.04.02,19.648,8.233Z" transform="translate(-4638.36 -9096)" fill="#0075a4"/>
    <rect id="Rectángulo_5477" data-name="Rectángulo 5477" width="42.236" height="3.402" transform="translate(-328.104 -8871.608)" fill="#0075a4"/>
    <path id="Trazado_102358" data-name="Trazado 102358" d="M3893.36,384l32.362-46.087H5029.707L5064.36,384Z" transform="translate(-4638.36 -9096)" fill="#0075a4"/>
    <path id="Trazado_102359" data-name="Trazado 102359" d="M5002.646,347.618H3963.21c-2.742,0-5.427-.109-8.047-.309V363.87c0,1.372,2.436,2.484,5.441,2.484H5005.252c3,0,5.441-1.112,5.441-2.484V347.309c-2.62.2-5.3.309-8.047.309Z" transform="translate(-4638.36 -9096)" fill="#25ced1"/>
    <path id="Trazado_102360" data-name="Trazado 102360" d="M4303.968,363.87V347.618H3963.21c-2.742,0-5.427-.109-8.047-.309V363.87c0,1.372,2.436,2.484,5.441,2.484h348.805C4306.4,366.354,4303.968,365.242,4303.968,363.87Z" transform="translate(-4638.36 -9096)" fill="#27b7b7"/>
    <path id="Trazado_102361" data-name="Trazado 102361" d="M5007.019,348.1H3943.649a22.688,22.688,0,0,1-22.688-22.688v-3.3a22.688,22.688,0,0,1,22.688-22.689h1063.37a22.689,22.689,0,0,1,22.688,22.689v3.3A22.688,22.688,0,0,1,5007.019,348.1Z" transform="translate(-4638.36 -9096)" fill="#596c76"/>
    <path id="Trazado_102362" data-name="Trazado 102362" d="M3941.217,338.033a14.417,14.417,0,0,1,0-28.54,22.666,22.666,0,0,1,18.856-10.069H3939.95a22.688,22.688,0,0,0-22.688,22.689v3.3A22.688,22.688,0,0,0,3939.95,348.1h20.122a22.665,22.665,0,0,1-18.855-10.068Z" transform="translate(-4638.36 -9096)" fill="#465a61"/>
    <circle id="Elipse_4133" data-name="Elipse 4133" cx="10.802" cy="10.802" r="10.802" transform="translate(-694 -8783.039)" fill="#fff"/>
    <path id="Trazado_102363" data-name="Trazado 102363" d="M3954.737,323.763a10.8,10.8,0,0,1,5.613-9.476,10.8,10.8,0,1,0,0,18.951A10.8,10.8,0,0,1,3954.737,323.763Z" transform="translate(-4638.36 -9096)" fill="#f2fbff"/>
    <path id="Trazado_102364" data-name="Trazado 102364" d="M3955.163,338.182a14.419,14.419,0,1,1,14.419-14.419A14.436,14.436,0,0,1,3955.163,338.182Zm0-21.605a7.185,7.185,0,1,0,7.185,7.185A7.193,7.193,0,0,0,3955.163,316.577Z" transform="translate(-4638.36 -9096)" fill="#8d9ca8"/>
    <circle id="Elipse_4134" data-name="Elipse 4134" cx="10.802" cy="10.802" r="10.802" transform="translate(-359.478 -8783.039)" fill="#fff"/>
    <circle id="Elipse_4135" data-name="Elipse 4135" cx="10.802" cy="10.802" r="10.802" transform="translate(-166.767 -8783.039)" fill="#fff"/>
    <path id="Trazado_102365" data-name="Trazado 102365" d="M4481.97,323.763a10.8,10.8,0,0,1,5.614-9.476,10.8,10.8,0,1,0,0,18.951A10.8,10.8,0,0,1,4481.97,323.763Z" transform="translate(-4638.36 -9096)" fill="#f2fbff"/>
    <path id="Trazado_102366" data-name="Trazado 102366" d="M4482.4,338.182a14.419,14.419,0,1,1,14.419-14.419A14.436,14.436,0,0,1,4482.4,338.182Zm0-21.605a7.185,7.185,0,1,0,7.184,7.185A7.194,7.194,0,0,0,4482.4,316.577Z" transform="translate(-4638.36 -9096)" fill="#8d9ca8"/>
    <circle id="Elipse_4136" data-name="Elipse 4136" cx="10.802" cy="10.802" r="10.802" transform="translate(-259.787 -8783.039)" fill="#fff"/>
    <path id="Trazado_102367" data-name="Trazado 102367" d="M4388.95,323.763a10.8,10.8,0,0,1,5.614-9.476,10.8,10.8,0,1,0,0,18.951A10.8,10.8,0,0,1,4388.95,323.763Z" transform="translate(-4638.36 -9096)" fill="#f2fbff"/>
    <path id="Trazado_102368" data-name="Trazado 102368" d="M4389.376,338.182a14.419,14.419,0,1,1,14.419-14.419A14.436,14.436,0,0,1,4389.376,338.182Zm0-21.605a7.185,7.185,0,1,0,7.184,7.185A7.194,7.194,0,0,0,4389.376,316.577Z" transform="translate(-4638.36 -9096)" fill="#8d9ca8"/>
    <circle id="Elipse_4137" data-name="Elipse 4137" cx="10.802" cy="10.802" r="10.802" transform="translate(-66.449 -8783.039)" fill="#fff"/>
    <path id="Trazado_102369" data-name="Trazado 102369" d="M4582.288,323.763a10.8,10.8,0,0,1,5.613-9.476,10.8,10.8,0,1,0,0,18.951A10.8,10.8,0,0,1,4582.288,323.763Z" transform="translate(-4638.36 -9096)" fill="#f2fbff"/>
    <path id="Trazado_102370" data-name="Trazado 102370" d="M4582.713,338.182a14.419,14.419,0,1,1,14.419-14.419A14.436,14.436,0,0,1,4582.713,338.182Zm0-21.605a7.185,7.185,0,1,0,7.185,7.185A7.193,7.193,0,0,0,4582.713,316.577Z" transform="translate(-4638.36 -9096)" fill="#8d9ca8"/>
    <circle id="Elipse_4138" data-name="Elipse 4138" cx="10.802" cy="10.802" r="10.802" transform="translate(35.498 -8783.039)" fill="#fff"/>
    <path id="Trazado_102371" data-name="Trazado 102371" d="M4684.234,323.763a10.8,10.8,0,0,1,5.614-9.476,10.8,10.8,0,1,0,0,18.951A10.8,10.8,0,0,1,4684.234,323.763Z" transform="translate(-4638.36 -9096)" fill="#f2fbff"/>
    <path id="Trazado_102372" data-name="Trazado 102372" d="M4684.66,338.182a14.419,14.419,0,1,1,14.419-14.419A14.435,14.435,0,0,1,4684.66,338.182Zm0-21.605a7.185,7.185,0,1,0,7.184,7.185A7.194,7.194,0,0,0,4684.66,316.577Z" transform="translate(-4638.36 -9096)" fill="#8d9ca8"/>
    <circle id="Elipse_4139" data-name="Elipse 4139" cx="10.802" cy="10.802" r="10.802" transform="translate(142.763 -8783.039)" fill="#fff"/>
    <path id="Trazado_102373" data-name="Trazado 102373" d="M4791.5,323.763a10.8,10.8,0,0,1,5.614-9.476,10.8,10.8,0,1,0,0,18.951A10.8,10.8,0,0,1,4791.5,323.763Z" transform="translate(-4638.36 -9096)" fill="#f2fbff"/>
    <path id="Trazado_102374" data-name="Trazado 102374" d="M4791.925,338.182a14.419,14.419,0,1,1,14.419-14.419A14.436,14.436,0,0,1,4791.925,338.182Zm0-21.605a7.185,7.185,0,1,0,7.185,7.185A7.193,7.193,0,0,0,4791.925,316.577Z" transform="translate(-4638.36 -9096)" fill="#8d9ca8"/>
    <circle id="Elipse_4140" data-name="Elipse 4140" cx="10.802" cy="10.802" r="10.802" transform="translate(250.028 -8783.039)" fill="#fff"/>
    <path id="Trazado_102375" data-name="Trazado 102375" d="M4898.764,323.763a10.8,10.8,0,0,1,5.614-9.476,10.8,10.8,0,1,0,0,18.951A10.8,10.8,0,0,1,4898.764,323.763Z" transform="translate(-4638.36 -9096)" fill="#f2fbff"/>
    <path id="Trazado_102376" data-name="Trazado 102376" d="M4899.189,338.182a14.419,14.419,0,1,1,14.419-14.419A14.435,14.435,0,0,1,4899.189,338.182Zm0-21.605a7.185,7.185,0,1,0,7.185,7.185A7.193,7.193,0,0,0,4899.189,316.577Z" transform="translate(-4638.36 -9096)" fill="#8d9ca8"/>
    <circle id="Elipse_4141" data-name="Elipse 4141" cx="10.802" cy="10.802" r="10.802" transform="translate(354.532 -8783.039)" fill="#fff"/>
    <path id="Trazado_102377" data-name="Trazado 102377" d="M4289.259,323.763a10.8,10.8,0,0,1,5.614-9.476,10.8,10.8,0,1,0,0,18.951A10.8,10.8,0,0,1,4289.259,323.763Z" transform="translate(-4638.36 -9096)" fill="#f2fbff"/>
    <path id="Trazado_102378" data-name="Trazado 102378" d="M4289.685,338.182a14.419,14.419,0,1,1,14.419-14.419A14.436,14.436,0,0,1,4289.685,338.182Zm0-21.605a7.185,7.185,0,1,0,7.185,7.185A7.194,7.194,0,0,0,4289.685,316.577Z" transform="translate(-4638.36 -9096)" fill="#8d9ca8"/>
    <circle id="Elipse_4142" data-name="Elipse 4142" cx="10.802" cy="10.802" r="10.802" transform="translate(-461.696 -8783.039)" fill="#fff"/>
    <path id="Trazado_102379" data-name="Trazado 102379" d="M4187.04,323.763a10.8,10.8,0,0,1,5.614-9.476,10.8,10.8,0,1,0,0,18.951A10.8,10.8,0,0,1,4187.04,323.763Z" transform="translate(-4638.36 -9096)" fill="#f2fbff"/>
    <path id="Trazado_102380" data-name="Trazado 102380" d="M4187.466,338.182a14.419,14.419,0,1,1,14.419-14.419A14.436,14.436,0,0,1,4187.466,338.182Zm0-21.605a7.185,7.185,0,1,0,7.185,7.185A7.192,7.192,0,0,0,4187.466,316.577Z" transform="translate(-4638.36 -9096)" fill="#8d9ca8"/>
    <circle id="Elipse_4143" data-name="Elipse 4143" cx="10.802" cy="10.802" r="10.802" transform="translate(-580.953 -8783.039)" fill="#fff"/>
    <path id="Trazado_102381" data-name="Trazado 102381" d="M4067.784,323.763a10.8,10.8,0,0,1,5.613-9.476,10.8,10.8,0,1,0,0,18.951A10.8,10.8,0,0,1,4067.784,323.763Z" transform="translate(-4638.36 -9096)" fill="#f2fbff"/>
    <path id="Trazado_102382" data-name="Trazado 102382" d="M4068.21,338.182a14.419,14.419,0,1,1,14.419-14.419A14.436,14.436,0,0,1,4068.21,338.182Zm0-21.605a7.185,7.185,0,1,0,7.185,7.185A7.194,7.194,0,0,0,4068.21,316.577Z" transform="translate(-4638.36 -9096)" fill="#8d9ca8"/>
    <path id="Trazado_102383" data-name="Trazado 102383" d="M5003.268,323.763a10.8,10.8,0,0,1,5.614-9.476,10.8,10.8,0,1,0,0,18.951A10.8,10.8,0,0,1,5003.268,323.763Z" transform="translate(-4638.36 -9096)" fill="#f2fbff"/>
    <path id="Trazado_102384" data-name="Trazado 102384" d="M5003.694,338.182a14.419,14.419,0,1,1,14.419-14.419A14.436,14.436,0,0,1,5003.694,338.182Zm0-21.605a7.185,7.185,0,1,0,7.184,7.185A7.194,7.194,0,0,0,5003.694,316.577Z" transform="translate(-4638.36 -9096)" fill="#8d9ca8"/>
    <path id="Trazado_102385" data-name="Trazado 102385" d="M4144.936,9.654h104.125V71.616H4144.936Z" transform="translate(-4640.417 -9100.166)" fill="#25ced1"/>
    <path id="Trazado_102386" data-name="Trazado 102386" d="M4144.936,59.5h104.125v8.664H4144.936Z" transform="translate(-4640.417 -9096.715)" fill="#1aaaaa"/>
    <path id="Trazado_102387" data-name="Trazado 102387" d="M4188.787,3.184a2.35,2.35,0,0,1-.656,1.736h-16.717a2.372,2.372,0,0,1-.655-1.736l1.576-37.957h14.876Z" transform="translate(-4638.629 -9103.242)" fill="#d4efff"/>
    <path id="Trazado_102388" data-name="Trazado 102388" d="M4188.088,3.184a2.35,2.35,0,0,1-.656,1.736h-5.67a2.36,2.36,0,0,0,.655-1.736l-1.576-37.957h5.671Z" transform="translate(-4637.931 -9103.242)" fill="#b7d4e2"/>
    <path id="Trazado_102389" data-name="Trazado 102389" d="M4193.822.974v9.445h-27.485V.974a2.362,2.362,0,0,1,2.363-2.363h22.759A2.362,2.362,0,0,1,4193.822.974Z" transform="translate(-4638.935 -9100.931)" fill="#ea526f"/>
    <path id="Trazado_102390" data-name="Trazado 102390" d="M4188.1-36.891h-16.458a2.363,2.363,0,0,0-2.363,2.363,2.364,2.364,0,0,0,2.363,2.363H4188.1a2.363,2.363,0,0,0,2.362-2.363A2.362,2.362,0,0,0,4188.1-36.891Z" transform="translate(-4638.73 -9103.39)" fill="#364c59"/>
    <path id="Trazado_102391" data-name="Trazado 102391" d="M4221.788,3.184a2.35,2.35,0,0,1-.656,1.736h-16.716a2.37,2.37,0,0,1-.656-1.736l1.575-37.957h14.877Z" transform="translate(-4636.344 -9103.242)" fill="#d4efff"/>
    <path id="Trazado_102392" data-name="Trazado 102392" d="M4221.089,3.184a2.35,2.35,0,0,1-.656,1.736h-5.671a2.35,2.35,0,0,0,.655-1.736l-1.575-37.957h5.671Z" transform="translate(-4635.646 -9103.242)" fill="#b7d4e2"/>
    <path id="Trazado_102393" data-name="Trazado 102393" d="M4226.823.974v9.445h-27.486V.974a2.362,2.362,0,0,1,2.363-2.363h22.76A2.361,2.361,0,0,1,4226.823.974Z" transform="translate(-4636.65 -9100.931)" fill="#ea526f"/>
    <path id="Trazado_102394" data-name="Trazado 102394" d="M4221.1-36.891h-16.458a2.362,2.362,0,0,0-2.362,2.363,2.363,2.363,0,0,0,2.362,2.363H4221.1a2.364,2.364,0,0,0,2.363-2.363A2.362,2.362,0,0,0,4221.1-36.891Z" transform="translate(-4636.446 -9103.39)" fill="#364c59"/>
    <path id="Trazado_102395" data-name="Trazado 102395" d="M4144.936,9.654h104.125v8.664H4144.936Z" transform="translate(-4640.417 -9100.166)" fill="#668fa3"/>
    <path id="Trazado_102396" data-name="Trazado 102396" d="M4251.424,7.444H4147.3a2.363,2.363,0,1,0,0,4.726h104.125a2.363,2.363,0,0,0,0-4.726Z" transform="translate(-4640.417 -9100.319)" fill="#364c59"/>
    <path id="Trazado_102397" data-name="Trazado 102397" d="M4158.258,29.706h12.415a2.363,2.363,0,0,0,0-4.726h-12.415a2.363,2.363,0,0,0,0,4.726Z" transform="translate(-4639.658 -9099.105)" fill="#d4efff"/>
    <path id="Trazado_102398" data-name="Trazado 102398" d="M4173.036,36.181V69.943h-17.142V36.181a2.364,2.364,0,0,1,2.363-2.363h12.416A2.363,2.363,0,0,1,4173.036,36.181Z" transform="translate(-4639.658 -9098.493)" fill="#d4efff"/>
    <path id="Trazado_102399" data-name="Trazado 102399" d="M4173.036,36.181v9.452h-17.142V36.181a2.364,2.364,0,0,1,2.363-2.363h12.416A2.363,2.363,0,0,1,4173.036,36.181Z" transform="translate(-4639.658 -9098.493)" fill="#668fa3"/>
    <path id="Trazado_102400" data-name="Trazado 102400" d="M4179.543,29.706h12.414a2.363,2.363,0,1,0,0-4.726h-12.414a2.363,2.363,0,1,0,0,4.726Z" transform="translate(-4638.184 -9099.105)" fill="#d4efff"/>
    <path id="Trazado_102401" data-name="Trazado 102401" d="M4194.322,36.181V69.943H4177.18V36.181a2.364,2.364,0,0,1,2.363-2.363h12.416A2.364,2.364,0,0,1,4194.322,36.181Z" transform="translate(-4638.184 -9098.493)" fill="#d4efff"/>
    <path id="Trazado_102402" data-name="Trazado 102402" d="M4194.321,36.181v9.452h-17.143V36.181a2.364,2.364,0,0,1,2.363-2.363h12.416A2.364,2.364,0,0,1,4194.321,36.181Z" transform="translate(-4638.184 -9098.493)" fill="#668fa3"/>
    <path id="Trazado_102403" data-name="Trazado 102403" d="M4200.828,29.706h12.415a2.363,2.363,0,0,0,0-4.726h-12.415a2.363,2.363,0,0,0,0,4.726Z" transform="translate(-4636.71 -9099.105)" fill="#d4efff"/>
    <path id="Trazado_102404" data-name="Trazado 102404" d="M4215.6,36.181V69.943h-17.143V36.181a2.364,2.364,0,0,1,2.363-2.363h12.417A2.364,2.364,0,0,1,4215.6,36.181Z" transform="translate(-4636.71 -9098.493)" fill="#d4efff"/>
    <path id="Trazado_102405" data-name="Trazado 102405" d="M4215.6,36.181v9.452h-17.141V36.181a2.364,2.364,0,0,1,2.362-2.363h12.417A2.364,2.364,0,0,1,4215.6,36.181Z" transform="translate(-4636.71 -9098.493)" fill="#668fa3"/>
    <path id="Trazado_102406" data-name="Trazado 102406" d="M4222.112,29.706h12.415a2.363,2.363,0,0,0,0-4.726h-12.415a2.363,2.363,0,1,0,0,4.726Z" transform="translate(-4635.236 -9099.105)" fill="#d4efff"/>
    <path id="Trazado_102407" data-name="Trazado 102407" d="M4236.89,36.181V69.943h-17.142V36.181a2.364,2.364,0,0,1,2.363-2.363h12.416A2.363,2.363,0,0,1,4236.89,36.181Z" transform="translate(-4635.236 -9098.493)" fill="#d4efff"/>
    <path id="Trazado_102408" data-name="Trazado 102408" d="M4236.89,36.181v9.452h-17.142V36.181a2.364,2.364,0,0,1,2.363-2.363h12.416A2.363,2.363,0,0,1,4236.89,36.181Z" transform="translate(-4635.236 -9098.493)" fill="#668fa3"/>
    <path id="Trazado_102409" data-name="Trazado 102409" d="M4155.894,59.5h17.142v8.664h-17.142Z" transform="translate(-4639.658 -9096.715)" fill="#b7d4e2"/>
    <path id="Trazado_102410" data-name="Trazado 102410" d="M4177.18,59.5h17.142v8.664H4177.18Z" transform="translate(-4638.184 -9096.715)" fill="#b7d4e2"/>
    <path id="Trazado_102411" data-name="Trazado 102411" d="M4198.461,59.5H4215.6v8.664h-17.143Z" transform="translate(-4636.71 -9096.715)" fill="#b7d4e2"/>
    <path id="Trazado_102412" data-name="Trazado 102412" d="M4219.748,59.5h17.142v8.664h-17.142Z" transform="translate(-4635.236 -9096.715)" fill="#b7d4e2"/>
    <path id="Trazado_102413" data-name="Trazado 102413" d="M4100.3-15.143h52.457V73.333H4100.3Z" transform="translate(-4643.508 -9101.884)" fill="#ea526f"/>
    <path id="Trazado_102414" data-name="Trazado 102414" d="M4100.3,59.5h52.457v8.664H4100.3Z" transform="translate(-4643.508 -9096.715)" fill="#c63c5d"/>
    <path id="Trazado_102415" data-name="Trazado 102415" d="M4100.3-15.143h52.457V-6.48H4100.3Z" transform="translate(-4643.508 -9101.884)" fill="#668fa3"/>
    <path id="Trazado_102416" data-name="Trazado 102416" d="M4122.79,51.073V68.911h-4.726V51.073a2.363,2.363,0,1,1,4.726,0Z" transform="translate(-4642.277 -9097.462)" fill="#d4efff"/>
    <path id="Trazado_102417" data-name="Trazado 102417" d="M4131.827,51.073V68.911H4127.1V51.073a2.363,2.363,0,1,1,4.726,0Z" transform="translate(-4641.652 -9097.462)" fill="#d4efff"/>
    <path id="Trazado_102418" data-name="Trazado 102418" d="M4111.495.442a2.364,2.364,0,0,0-2.363,2.363V9.6a2.363,2.363,0,1,0,4.726,0V2.805A2.363,2.363,0,0,0,4111.495.442Z" transform="translate(-4642.896 -9100.805)" fill="#d4efff"/>
    <path id="Trazado_102419" data-name="Trazado 102419" d="M4120.531.442a2.364,2.364,0,0,0-2.363,2.363V9.6a2.363,2.363,0,1,0,4.726,0V2.805A2.363,2.363,0,0,0,4120.531.442Z" transform="translate(-4642.271 -9100.805)" fill="#d4efff"/>
    <path id="Trazado_102420" data-name="Trazado 102420" d="M4129.567.442a2.364,2.364,0,0,0-2.363,2.363V9.6a2.363,2.363,0,1,0,4.726,0V2.805A2.363,2.363,0,0,0,4129.567.442Z" transform="translate(-4641.645 -9100.805)" fill="#d4efff"/>
    <path id="Trazado_102421" data-name="Trazado 102421" d="M4138.6.442a2.363,2.363,0,0,0-2.363,2.363V9.6a2.363,2.363,0,1,0,4.726,0V2.805A2.363,2.363,0,0,0,4138.6.442Z" transform="translate(-4641.02 -9100.805)" fill="#d4efff"/>
    <path id="Trazado_102422" data-name="Trazado 102422" d="M4111.426,28.028a2.363,2.363,0,0,0,2.363-2.363V18.872a2.363,2.363,0,0,0-4.726,0v6.793A2.362,2.362,0,0,0,4111.426,28.028Z" transform="translate(-4642.901 -9099.691)" fill="#d4efff"/>
    <path id="Trazado_102423" data-name="Trazado 102423" d="M4120.462,28.028a2.363,2.363,0,0,0,2.363-2.363V18.872a2.363,2.363,0,0,0-4.726,0v6.793A2.362,2.362,0,0,0,4120.462,28.028Z" transform="translate(-4642.275 -9099.691)" fill="#d4efff"/>
    <path id="Trazado_102424" data-name="Trazado 102424" d="M4129.5,28.028a2.363,2.363,0,0,0,2.363-2.363V18.872a2.363,2.363,0,0,0-4.727,0v6.793A2.363,2.363,0,0,0,4129.5,28.028Z" transform="translate(-4641.65 -9099.691)" fill="#d4efff"/>
    <path id="Trazado_102425" data-name="Trazado 102425" d="M4138.534,28.028a2.363,2.363,0,0,0,2.363-2.363V18.872a2.363,2.363,0,0,0-4.726,0v6.793A2.363,2.363,0,0,0,4138.534,28.028Z" transform="translate(-4641.023 -9099.691)" fill="#d4efff"/>
    <path id="Trazado_102426" data-name="Trazado 102426" d="M4111.461,32.644a2.362,2.362,0,0,0-2.363,2.363V41.8a2.363,2.363,0,1,0,4.726,0V35.007A2.363,2.363,0,0,0,4111.461,32.644Z" transform="translate(-4642.899 -9098.574)" fill="#d4efff"/>
    <path id="Trazado_102427" data-name="Trazado 102427" d="M4120.5,32.644a2.363,2.363,0,0,0-2.363,2.363V41.8a2.363,2.363,0,0,0,4.727,0V35.007A2.363,2.363,0,0,0,4120.5,32.644Z" transform="translate(-4642.273 -9098.574)" fill="#d4efff"/>
    <path id="Trazado_102428" data-name="Trazado 102428" d="M4129.532,32.644a2.362,2.362,0,0,0-2.362,2.363V41.8a2.362,2.362,0,1,0,4.725,0V35.007A2.362,2.362,0,0,0,4129.532,32.644Z" transform="translate(-4641.647 -9098.574)" fill="#d4efff"/>
    <path id="Trazado_102429" data-name="Trazado 102429" d="M4138.567,32.644a2.362,2.362,0,0,0-2.362,2.363V41.8a2.363,2.363,0,1,0,4.725,0V35.007A2.362,2.362,0,0,0,4138.567,32.644Z" transform="translate(-4641.021 -9098.574)" fill="#d4efff"/>
    <path id="Trazado_102430" data-name="Trazado 102430" d="M4111.391,48.711a2.363,2.363,0,0,0-2.363,2.363v6.793a2.363,2.363,0,0,0,4.727,0V51.074A2.363,2.363,0,0,0,4111.391,48.711Z" transform="translate(-4642.904 -9097.462)" fill="#d4efff"/>
    <path id="Trazado_102431" data-name="Trazado 102431" d="M4138.5,48.711a2.362,2.362,0,0,0-2.363,2.363v6.793a2.363,2.363,0,1,0,4.726,0V51.074A2.363,2.363,0,0,0,4138.5,48.711Z" transform="translate(-4641.026 -9097.462)" fill="#d4efff"/>
    <path id="Trazado_102432" data-name="Trazado 102432" d="M4118.063,59.5h4.726v8.664h-4.726Z" transform="translate(-4642.277 -9096.715)" fill="#b7d4e2"/>
    <path id="Trazado_102433" data-name="Trazado 102433" d="M4127.1,59.5h4.726v8.664H4127.1Z" transform="translate(-4641.652 -9096.715)" fill="#b7d4e2"/>
    <path id="Trazado_102434" data-name="Trazado 102434" d="M4254.822,65.394H4098.24a2.363,2.363,0,0,0,0,4.726h156.582a2.363,2.363,0,0,0,0-4.726Z" transform="translate(-4643.814 -9096.307)" fill="#364c59"/>
    <path id="Trazado_102435" data-name="Trazado 102435" d="M4155.423-17.352H4098.24a2.363,2.363,0,0,0-2.363,2.363,2.364,2.364,0,0,0,2.363,2.363h57.184a2.363,2.363,0,0,0,2.362-2.363A2.362,2.362,0,0,0,4155.423-17.352Z" transform="translate(-4643.814 -9102.036)" fill="#364c59"/>
    <g id="Grupo_57921" data-name="Grupo 57921" transform="translate(-1486 -11837)">
      <rect id="Rectángulo_5482" data-name="Rectángulo 5482" width="5" height="28" transform="translate(1484.5 2702.678)" fill="#ea526f"/>
      <text id="Figura_6._Sistemas_de_Producción_Lineal._" data-name="Figura 6. Sistemas de Producción Lineal. " transform="translate(1507.5 2721.678)" fill="#12263f" font-size="13" font-family="Roboto-Regular, Roboto"><tspan x="0" y="0">Figura 6. Sistemas de Producción Lineal. </tspan></text>
    </g>
  </g>
</svg>
