<svg xmlns="http://www.w3.org/2000/svg" width="820.944" height="356.924" viewBox="0 0 820.944 356.924">
  <g id="Grupo_1010007" data-name="Grupo 1010007" transform="translate(-390 -838.703)">
    <g id="Grupo_1009656" data-name="Grupo 1009656" transform="translate(0 16)">
      <g id="Grupo_55772" data-name="Grupo 55772" transform="translate(-0.378 55)">
        <g id="Grupo_55771" data-name="Grupo 55771" transform="translate(-6061.866 -2012.944)">
          <rect id="Rectángulo_5264" data-name="Rectángulo 5264" width="174.236" height="42.331" transform="translate(6776.401 2982.323)" fill="#dbfafa"/>
          <path id="Trazado_735301" data-name="Trazado 735301" d="M6.914-2.984A1.2,1.2,0,0,0,6.445-4a6.148,6.148,0,0,0-1.687-.75,11.963,11.963,0,0,1-1.93-.777A3.153,3.153,0,0,1,.891-8.352,2.747,2.747,0,0,1,1.41-10,3.389,3.389,0,0,1,2.9-11.125a5.616,5.616,0,0,1,2.184-.406,5.112,5.112,0,0,1,2.172.441,3.458,3.458,0,0,1,1.48,1.246,3.261,3.261,0,0,1,.527,1.828H6.922A1.534,1.534,0,0,0,6.43-9.23a2.023,2.023,0,0,0-1.383-.434A2.162,2.162,0,0,0,3.711-9.3a1.146,1.146,0,0,0-.477.957,1.1,1.1,0,0,0,.559.93,6.311,6.311,0,0,0,1.645.7A7.106,7.106,0,0,1,8.352-5.219,2.972,2.972,0,0,1,9.266-3,2.737,2.737,0,0,1,8.148-.684a4.891,4.891,0,0,1-3.008.84A5.808,5.808,0,0,1,2.75-.324,3.783,3.783,0,0,1,1.105-1.641,3.371,3.371,0,0,1,.539-3.578H2.891q0,1.883,2.25,1.883a2.189,2.189,0,0,0,1.3-.34A1.106,1.106,0,0,0,6.914-2.984ZM15.766-.859A2.831,2.831,0,0,1,13.453.156a2.67,2.67,0,0,1-2.074-.781,3.335,3.335,0,0,1-.73-2.289V-8.453h2.258v5.467q0,1.322,1.2,1.322a1.63,1.63,0,0,0,1.578-.8V-8.453h2.266V0H15.828ZM27.273-4.148A5.119,5.119,0,0,1,26.406-.98,2.872,2.872,0,0,1,23.984.156,2.639,2.639,0,0,1,21.789-.9l-.1.9H19.656V-12h2.258v4.3a2.571,2.571,0,0,1,2.055-.914,2.9,2.9,0,0,1,2.426,1.137,5.126,5.126,0,0,1,.879,3.2Zm-2.258-.164a3.363,3.363,0,0,0-.406-1.871,1.374,1.374,0,0,0-1.211-.59,1.489,1.489,0,0,0-1.484.883v3.336a1.509,1.509,0,0,0,1.5.891,1.394,1.394,0,0,0,1.438-1.078A5.562,5.562,0,0,0,25.016-4.312Zm12.023.352h-4.4v-1.82h4.4Zm13.406-.187a5.07,5.07,0,0,1-.887,3.129A2.843,2.843,0,0,1,47.164.156a2.633,2.633,0,0,1-2.07-.891V3.25H42.836v-11.7H44.93l.078.828a2.654,2.654,0,0,1,2.141-.984,2.862,2.862,0,0,1,2.43,1.156,5.207,5.207,0,0,1,.867,3.188Zm-2.258-.164a3.327,3.327,0,0,0-.418-1.82,1.361,1.361,0,0,0-1.215-.641,1.479,1.479,0,0,0-1.461.813V-2.5a1.5,1.5,0,0,0,1.477.836Q48.188-1.664,48.188-4.312Zm8.406-2.023a6.134,6.134,0,0,0-.812-.062,1.654,1.654,0,0,0-1.68.867V0H51.844V-8.453h2.133l.063,1.008a2.092,2.092,0,0,1,1.883-1.164,2.366,2.366,0,0,1,.7.1ZM57.047-4.3a5.013,5.013,0,0,1,.484-2.242A3.546,3.546,0,0,1,58.926-8.07a4.069,4.069,0,0,1,2.113-.539,3.849,3.849,0,0,1,2.793,1.047,4.2,4.2,0,0,1,1.207,2.844l.016.578A4.418,4.418,0,0,1,63.969-1.02,3.775,3.775,0,0,1,61.055.156a3.793,3.793,0,0,1-2.918-1.172A4.5,4.5,0,0,1,57.047-4.2Zm2.258.16A3.16,3.16,0,0,0,59.758-2.3a1.5,1.5,0,0,0,1.3.638,1.5,1.5,0,0,0,1.281-.63A3.457,3.457,0,0,0,62.8-4.309a3.128,3.128,0,0,0-.461-1.831,1.5,1.5,0,0,0-1.3-.649,1.474,1.474,0,0,0-1.281.646A3.516,3.516,0,0,0,59.3-4.144Zm6.789-.145a5.094,5.094,0,0,1,.887-3.148,2.877,2.877,0,0,1,2.426-1.172,2.589,2.589,0,0,1,2.039.922V-12h2.266V0H71.672l-.109-.9A2.657,2.657,0,0,1,69.391.156,2.869,2.869,0,0,1,67-1.02,5.258,5.258,0,0,1,66.094-4.289Zm2.258.168A3.337,3.337,0,0,0,68.766-2.3a1.349,1.349,0,0,0,1.2.634,1.511,1.511,0,0,0,1.477-.884V-5.889a1.489,1.489,0,0,0-1.461-.884Q68.352-6.773,68.352-4.121ZM80.523-.859A2.831,2.831,0,0,1,78.211.156a2.67,2.67,0,0,1-2.074-.781,3.335,3.335,0,0,1-.73-2.289V-8.453h2.258v5.467q0,1.322,1.2,1.322a1.63,1.63,0,0,0,1.578-.8V-8.453h2.266V0H80.586Zm7.406-.8a1.481,1.481,0,0,0,1.016-.344,1.2,1.2,0,0,0,.406-.914h2.117A2.9,2.9,0,0,1,91-1.348,3.093,3.093,0,0,1,89.738-.238a3.949,3.949,0,0,1-1.77.395A3.67,3.67,0,0,1,85.109-1,4.56,4.56,0,0,1,84.063-4.18v-.148A4.508,4.508,0,0,1,85.1-7.445a3.627,3.627,0,0,1,2.852-1.164,3.555,3.555,0,0,1,2.543.9,3.2,3.2,0,0,1,.973,2.4H89.352a1.551,1.551,0,0,0-.406-1.072,1.354,1.354,0,0,0-1.031-.412,1.36,1.36,0,0,0-1.191.575,3.333,3.333,0,0,0-.4,1.866v.235a3.375,3.375,0,0,0,.4,1.878A1.377,1.377,0,0,0,87.93-1.664Zm8.344,0a1.481,1.481,0,0,0,1.016-.344,1.2,1.2,0,0,0,.406-.914h2.117a2.9,2.9,0,0,1-.469,1.574A3.093,3.093,0,0,1,98.082-.238a3.949,3.949,0,0,1-1.77.395A3.67,3.67,0,0,1,93.453-1,4.56,4.56,0,0,1,92.406-4.18v-.148a4.508,4.508,0,0,1,1.039-3.117A3.627,3.627,0,0,1,96.3-8.609a3.555,3.555,0,0,1,2.543.9,3.2,3.2,0,0,1,.973,2.4H97.7a1.551,1.551,0,0,0-.406-1.072,1.354,1.354,0,0,0-1.031-.412,1.36,1.36,0,0,0-1.191.575,3.333,3.333,0,0,0-.4,1.866v.235a3.375,3.375,0,0,0,.4,1.878A1.377,1.377,0,0,0,96.273-1.664ZM103.484,0h-2.266V-8.453h2.266Zm-2.4-10.641a1.112,1.112,0,0,1,.34-.836,1.277,1.277,0,0,1,.926-.328,1.28,1.28,0,0,1,.922.328,1.105,1.105,0,0,1,.344.836,1.108,1.108,0,0,1-.348.844,1.283,1.283,0,0,1-.918.328,1.283,1.283,0,0,1-.918-.328A1.108,1.108,0,0,1,101.086-10.641ZM104.992-4.3a5.013,5.013,0,0,1,.484-2.242,3.546,3.546,0,0,1,1.395-1.523,4.069,4.069,0,0,1,2.113-.539,3.849,3.849,0,0,1,2.793,1.047,4.2,4.2,0,0,1,1.207,2.844l.016.578a4.418,4.418,0,0,1-1.086,3.121A3.775,3.775,0,0,1,109,.156a3.793,3.793,0,0,1-2.918-1.172,4.5,4.5,0,0,1-1.09-3.187Zm2.258.16A3.16,3.16,0,0,0,107.7-2.3a1.5,1.5,0,0,0,1.3.638,1.5,1.5,0,0,0,1.281-.63,3.457,3.457,0,0,0,.461-2.015,3.128,3.128,0,0,0-.461-1.831,1.5,1.5,0,0,0-1.3-.649,1.474,1.474,0,0,0-1.281.646A3.516,3.516,0,0,0,107.25-4.144ZM109.43-12h2.461l-2.164,2.422h-1.836Zm7.039,3.547.07.977a2.951,2.951,0,0,1,2.43-1.133,2.453,2.453,0,0,1,2,.789,3.682,3.682,0,0,1,.672,2.359V0h-2.258V-5.406a1.465,1.465,0,0,0-.312-1.043,1.4,1.4,0,0,0-1.039-.324,1.553,1.553,0,0,0-1.43.813V0h-2.258V-8.453Z" transform="translate(6803.544 3009.185)" fill="#12263f"/>
          <rect id="Rectángulo_5265" data-name="Rectángulo 5265" width="199.937" height="61.451" transform="translate(6763.551 2972.763)" fill="none" stroke="#606060" stroke-miterlimit="10" stroke-width="1.888"/>
          <rect id="Rectángulo_5266" data-name="Rectángulo 5266" width="6.236" height="18.047" transform="translate(6760.244 2971.362)" fill="#468ca5"/>
          <rect id="Rectángulo_5267" data-name="Rectángulo 5267" width="6.236" height="18.047" transform="translate(6778.292 2969.945) rotate(90)" fill="#468ca5"/>
        </g>
      </g>
      <g id="Grupo_55773" data-name="Grupo 55773" transform="translate(-0.378 -74)">
        <g id="Grupo_55771-2" data-name="Grupo 55771" transform="translate(-6061.866 -2012.944)">
          <rect id="Rectángulo_5264-2" data-name="Rectángulo 5264" width="174.236" height="42.331" transform="translate(6776.401 2982.323)" fill="#ffae78"/>
          <path id="Trazado_735298" data-name="Trazado 735298" d="M4.672-5.07A7.053,7.053,0,0,1,1.863-6.434a2.6,2.6,0,0,1-.879-2,2.751,2.751,0,0,1,1.074-2.223,4.269,4.269,0,0,1,2.793-.879,4.66,4.66,0,0,1,2.09.453,3.436,3.436,0,0,1,1.422,1.25,3.2,3.2,0,0,1,.5,1.742H7.359A2.08,2.08,0,0,0,6.7-9.713,2.669,2.669,0,0,0,4.852-10.3a2.732,2.732,0,0,0-1.73.489A1.632,1.632,0,0,0,2.5-8.458,1.468,1.468,0,0,0,3.09-7.28,5.785,5.785,0,0,0,5.1-6.4a9.316,9.316,0,0,1,2.219.88A3.367,3.367,0,0,1,8.5-4.4a2.861,2.861,0,0,1,.387,1.508A2.658,2.658,0,0,1,7.813-.676,4.6,4.6,0,0,1,4.93.156,5.347,5.347,0,0,1,2.742-.293a3.681,3.681,0,0,1-1.566-1.23A3,3,0,0,1,.625-3.3H2.133a1.959,1.959,0,0,0,.762,1.629,3.207,3.207,0,0,0,2.035.6,2.948,2.948,0,0,0,1.82-.484,1.573,1.573,0,0,0,.633-1.32A1.545,1.545,0,0,0,6.8-4.168,6.755,6.755,0,0,0,4.672-5.07ZM15.8-.836a3.07,3.07,0,0,1-2.477.992A2.628,2.628,0,0,1,11.27-.629a3.4,3.4,0,0,1-.715-2.324v-5.5H12v5.461Q12-1.07,13.563-1.07a2.163,2.163,0,0,0,2.2-1.234V-8.453h1.445V0H15.836Zm10.758-3.3a5.026,5.026,0,0,1-.891,3.113A2.846,2.846,0,0,1,23.281.156,2.947,2.947,0,0,1,20.8-.977L20.734,0H19.406V-12h1.445v4.477a2.93,2.93,0,0,1,2.414-1.086,2.863,2.863,0,0,1,2.418,1.164,5.177,5.177,0,0,1,.879,3.188ZM25.117-4.3a3.906,3.906,0,0,0-.57-2.281,1.888,1.888,0,0,0-1.641-.8,2.122,2.122,0,0,0-2.055,1.328V-2.4a2.181,2.181,0,0,0,2.07,1.328,1.878,1.878,0,0,0,1.617-.8A4.153,4.153,0,0,0,25.117-4.3Zm10.234.055H31.539v-1.18h3.813ZM42.289,0H40.844V-8.453h1.445ZM40.727-10.7a.863.863,0,0,1,.215-.594.807.807,0,0,1,.637-.242.819.819,0,0,1,.641.242.854.854,0,0,1,.219.594.826.826,0,0,1-.219.586.834.834,0,0,1-.641.234.821.821,0,0,1-.637-.234A.834.834,0,0,1,40.727-10.7Zm5.242,2.242.047,1.063a3.08,3.08,0,0,1,2.531-1.219q2.68,0,2.7,3.023V0H49.8V-5.594a1.946,1.946,0,0,0-.418-1.352,1.675,1.675,0,0,0-1.277-.437,2.086,2.086,0,0,0-1.234.375,2.546,2.546,0,0,0-.828.984V0H44.6V-8.453Zm10.25,6.492,2.094-6.492h1.477L56.758,0h-1.1L52.594-8.453H54.07ZM64.688.156a3.693,3.693,0,0,1-2.8-1.129,4.19,4.19,0,0,1-1.078-3.02v-.266a5.073,5.073,0,0,1,.48-2.246,3.748,3.748,0,0,1,1.344-1.547,3.378,3.378,0,0,1,1.871-.559A3.166,3.166,0,0,1,67.07-7.523a4.7,4.7,0,0,1,.914,3.109v.6H62.258a3,3,0,0,0,.73,2.02,2.3,2.3,0,0,0,1.777.77,2.517,2.517,0,0,0,1.3-.312,3.259,3.259,0,0,0,.93-.828l.883.688A3.55,3.55,0,0,1,64.688.156Zm-.18-7.578a1.928,1.928,0,0,0-1.469.637A3.1,3.1,0,0,0,62.3-5h4.234v-.109a2.753,2.753,0,0,0-.594-1.707A1.815,1.815,0,0,0,64.508-7.422Zm9.234.266a4.331,4.331,0,0,0-.711-.055A1.9,1.9,0,0,0,71.1-6V0H69.656V-8.453h1.406l.023.977A2.251,2.251,0,0,1,73.1-8.609a1.477,1.477,0,0,1,.641.109Zm6.25,4.914a1.064,1.064,0,0,0-.441-.91,4.249,4.249,0,0,0-1.539-.559,7.277,7.277,0,0,1-1.742-.562,2.479,2.479,0,0,1-.953-.781,1.869,1.869,0,0,1-.309-1.078,2.193,2.193,0,0,1,.879-1.758,3.432,3.432,0,0,1,2.246-.719,3.532,3.532,0,0,1,2.332.742,2.357,2.357,0,0,1,.895,1.9H79.906a1.3,1.3,0,0,0-.5-1.023,1.888,1.888,0,0,0-1.27-.43,1.976,1.976,0,0,0-1.234.344,1.082,1.082,0,0,0-.445.9.877.877,0,0,0,.414.789,5.1,5.1,0,0,0,1.5.508,7.8,7.8,0,0,1,1.754.578,2.558,2.558,0,0,1,1,.809,1.988,1.988,0,0,1,.324,1.152,2.163,2.163,0,0,1-.906,1.816A3.8,3.8,0,0,1,78.18.156a4.257,4.257,0,0,1-1.8-.359,2.922,2.922,0,0,1-1.223-1A2.42,2.42,0,0,1,74.719-2.6h1.445a1.5,1.5,0,0,0,.582,1.152,2.258,2.258,0,0,0,1.434.426A2.331,2.331,0,0,0,79.5-1.355,1.02,1.02,0,0,0,79.992-2.242ZM84.891,0H83.445V-8.453h1.445ZM83.328-10.7a.863.863,0,0,1,.215-.594.807.807,0,0,1,.637-.242.819.819,0,0,1,.641.242.854.854,0,0,1,.219.594.826.826,0,0,1-.219.586.834.834,0,0,1-.641.234.821.821,0,0,1-.637-.234A.834.834,0,0,1,83.328-10.7ZM86.82-4.3a4.993,4.993,0,0,1,.488-2.234A3.643,3.643,0,0,1,88.668-8.07a3.7,3.7,0,0,1,1.988-.539,3.565,3.565,0,0,1,2.793,1.2,4.6,4.6,0,0,1,1.066,3.18v.1a5.036,5.036,0,0,1-.473,2.215A3.589,3.589,0,0,1,92.691-.391a3.743,3.743,0,0,1-2.02.547,3.556,3.556,0,0,1-2.785-1.2A4.575,4.575,0,0,1,86.82-4.2Zm1.453.172a3.616,3.616,0,0,0,.652,2.258,2.088,2.088,0,0,0,1.746.852,2.075,2.075,0,0,0,1.75-.863A3.955,3.955,0,0,0,93.07-4.3a3.61,3.61,0,0,0-.66-2.254,2.1,2.1,0,0,0-1.754-.863,2.075,2.075,0,0,0-1.727.852A3.925,3.925,0,0,0,88.273-4.133ZM91.313-12h1.75L90.969-9.7l-1.164,0ZM97.7-8.453l.047,1.063a3.08,3.08,0,0,1,2.531-1.219q2.68,0,2.7,3.023V0h-1.445V-5.594a1.946,1.946,0,0,0-.418-1.352,1.675,1.675,0,0,0-1.277-.437,2.086,2.086,0,0,0-1.234.375,2.546,2.546,0,0,0-.828.984V0H96.328V-8.453Z" transform="translate(6814.52 3010.185)" fill="#12263f"/>
          <rect id="Rectángulo_5265-2" data-name="Rectángulo 5265" width="199.937" height="61.451" transform="translate(6763.551 2972.763)" fill="none" stroke="#606060" stroke-miterlimit="10" stroke-width="1.888"/>
          <rect id="Rectángulo_5266-2" data-name="Rectángulo 5266" width="6.236" height="18.047" transform="translate(6760.244 2971.362)" fill="#ff8a5b"/>
          <rect id="Rectángulo_5267-2" data-name="Rectángulo 5267" width="6.236" height="18.047" transform="translate(6778.292 2969.945) rotate(90)" fill="#ff8a5b"/>
        </g>
      </g>
      <g id="Grupo_55774" data-name="Grupo 55774" transform="translate(-308.378 -4.135)">
        <g id="Grupo_55771-3" data-name="Grupo 55771" transform="translate(-6061.866 -2012.944)">
          <rect id="Rectángulo_5264-3" data-name="Rectángulo 5264" width="174.236" height="42.331" transform="translate(6776.366 2982.674)" fill="#ffae78"/>
          <path id="Trazado_735299" data-name="Trazado 735299" d="M4.672-5.07A7.053,7.053,0,0,1,1.863-6.434a2.6,2.6,0,0,1-.879-2,2.751,2.751,0,0,1,1.074-2.223,4.269,4.269,0,0,1,2.793-.879,4.66,4.66,0,0,1,2.09.453,3.436,3.436,0,0,1,1.422,1.25,3.2,3.2,0,0,1,.5,1.742H7.359A2.08,2.08,0,0,0,6.7-9.713,2.669,2.669,0,0,0,4.852-10.3a2.732,2.732,0,0,0-1.73.489A1.632,1.632,0,0,0,2.5-8.458,1.468,1.468,0,0,0,3.09-7.28,5.785,5.785,0,0,0,5.1-6.4a9.316,9.316,0,0,1,2.219.88A3.367,3.367,0,0,1,8.5-4.4a2.861,2.861,0,0,1,.387,1.508A2.658,2.658,0,0,1,7.813-.676,4.6,4.6,0,0,1,4.93.156,5.347,5.347,0,0,1,2.742-.293a3.681,3.681,0,0,1-1.566-1.23A3,3,0,0,1,.625-3.3H2.133a1.959,1.959,0,0,0,.762,1.629,3.207,3.207,0,0,0,2.035.6,2.948,2.948,0,0,0,1.82-.484,1.573,1.573,0,0,0,.633-1.32A1.545,1.545,0,0,0,6.8-4.168,6.755,6.755,0,0,0,4.672-5.07ZM15.8-.836a3.07,3.07,0,0,1-2.477.992A2.628,2.628,0,0,1,11.27-.629a3.4,3.4,0,0,1-.715-2.324v-5.5H12v5.461Q12-1.07,13.563-1.07a2.163,2.163,0,0,0,2.2-1.234V-8.453h1.445V0H15.836Zm10.758-3.3a5.026,5.026,0,0,1-.891,3.113A2.846,2.846,0,0,1,23.281.156,2.947,2.947,0,0,1,20.8-.977L20.734,0H19.406V-12h1.445v4.477a2.93,2.93,0,0,1,2.414-1.086,2.863,2.863,0,0,1,2.418,1.164,5.177,5.177,0,0,1,.879,3.188ZM25.117-4.3a3.906,3.906,0,0,0-.57-2.281,1.888,1.888,0,0,0-1.641-.8,2.122,2.122,0,0,0-2.055,1.328V-2.4a2.181,2.181,0,0,0,2.07,1.328,1.878,1.878,0,0,0,1.617-.8A4.153,4.153,0,0,0,25.117-4.3Zm10.234.055H31.539v-1.18h3.813Zm8.758,3.219a2.082,2.082,0,0,0,1.352-.469A1.649,1.649,0,0,0,46.1-2.664h1.367a2.621,2.621,0,0,1-.5,1.383,3.293,3.293,0,0,1-1.23,1.047,3.55,3.55,0,0,1-1.629.391A3.482,3.482,0,0,1,41.363-1a4.59,4.59,0,0,1-1.02-3.152v-.242a5.089,5.089,0,0,1,.453-2.2,3.451,3.451,0,0,1,1.3-1.492,3.7,3.7,0,0,1,2-.531,3.39,3.39,0,0,1,2.363.852,3.043,3.043,0,0,1,1,2.211H46.1a1.992,1.992,0,0,0-.621-1.348A1.932,1.932,0,0,0,44.1-7.422a2.023,2.023,0,0,0-1.707.793,3.724,3.724,0,0,0-.605,2.293v.273a3.65,3.65,0,0,0,.6,2.25A2.033,2.033,0,0,0,44.109-1.023Zm4.6-3.281A4.993,4.993,0,0,1,49.2-6.539,3.643,3.643,0,0,1,50.559-8.07a3.7,3.7,0,0,1,1.988-.539,3.565,3.565,0,0,1,2.793,1.2,4.6,4.6,0,0,1,1.066,3.18v.1a5.036,5.036,0,0,1-.473,2.215A3.589,3.589,0,0,1,54.582-.391a3.743,3.743,0,0,1-2.02.547,3.556,3.556,0,0,1-2.785-1.2A4.575,4.575,0,0,1,48.711-4.2Zm1.453.172a3.616,3.616,0,0,0,.652,2.258,2.088,2.088,0,0,0,1.746.852,2.075,2.075,0,0,0,1.75-.863A3.955,3.955,0,0,0,54.961-4.3a3.61,3.61,0,0,0-.66-2.254,2.1,2.1,0,0,0-1.754-.863,2.075,2.075,0,0,0-1.727.852A3.925,3.925,0,0,0,50.164-4.133Zm9.414-4.32.039.938a3.122,3.122,0,0,1,2.508-1.094A2.417,2.417,0,0,1,64.539-7.25a3.2,3.2,0,0,1,1.1-.984,3.242,3.242,0,0,1,1.6-.375q2.781,0,2.828,2.945V0H68.617V-5.578A1.941,1.941,0,0,0,68.2-6.934a1.823,1.823,0,0,0-1.391-.449,1.916,1.916,0,0,0-1.336.48,1.949,1.949,0,0,0-.617,1.293V0H63.406V-5.539a1.613,1.613,0,0,0-1.8-1.844,1.934,1.934,0,0,0-1.945,1.211V0H58.211V-8.453ZM75.75.156a3.693,3.693,0,0,1-2.8-1.129,4.19,4.19,0,0,1-1.078-3.02v-.266a5.073,5.073,0,0,1,.48-2.246A3.748,3.748,0,0,1,73.7-8.051a3.378,3.378,0,0,1,1.871-.559,3.166,3.166,0,0,1,2.563,1.086,4.7,4.7,0,0,1,.914,3.109v.6H73.32a3,3,0,0,0,.73,2.02,2.3,2.3,0,0,0,1.777.77,2.517,2.517,0,0,0,1.3-.312,3.259,3.259,0,0,0,.93-.828l.883.688A3.55,3.55,0,0,1,75.75.156Zm-.18-7.578a1.928,1.928,0,0,0-1.469.637A3.1,3.1,0,0,0,73.367-5H77.6v-.109a2.753,2.753,0,0,0-.594-1.707A1.815,1.815,0,0,0,75.57-7.422Zm9.234.266a4.331,4.331,0,0,0-.711-.055A1.9,1.9,0,0,0,82.164-6V0H80.719V-8.453h1.406l.023.977a2.251,2.251,0,0,1,2.016-1.133A1.477,1.477,0,0,1,84.8-8.5Zm4.57,6.133a2.082,2.082,0,0,0,1.352-.469,1.649,1.649,0,0,0,.641-1.172h1.367a2.621,2.621,0,0,1-.5,1.383A3.293,3.293,0,0,1,91-.234a3.55,3.55,0,0,1-1.629.391A3.482,3.482,0,0,1,86.629-1a4.59,4.59,0,0,1-1.02-3.152v-.242a5.089,5.089,0,0,1,.453-2.2,3.451,3.451,0,0,1,1.3-1.492,3.7,3.7,0,0,1,2-.531,3.39,3.39,0,0,1,2.363.852,3.043,3.043,0,0,1,1,2.211H91.367a1.992,1.992,0,0,0-.621-1.348,1.932,1.932,0,0,0-1.379-.527,2.023,2.023,0,0,0-1.707.793,3.724,3.724,0,0,0-.605,2.293v.273a3.65,3.65,0,0,0,.6,2.25A2.033,2.033,0,0,0,89.375-1.023ZM95.93,0H94.484V-8.453H95.93ZM94.367-10.7a.863.863,0,0,1,.215-.594.807.807,0,0,1,.637-.242.819.819,0,0,1,.641.242.854.854,0,0,1,.219.594.826.826,0,0,1-.219.586.834.834,0,0,1-.641.234.821.821,0,0,1-.637-.234A.834.834,0,0,1,94.367-10.7ZM103.461,0a3.036,3.036,0,0,1-.2-.891A3.225,3.225,0,0,1,100.852.156,2.984,2.984,0,0,1,98.8-.551,2.288,2.288,0,0,1,98-2.344a2.39,2.39,0,0,1,1-2.051,4.733,4.733,0,0,1,2.824-.73h1.406v-.664A1.623,1.623,0,0,0,102.781-7a1.821,1.821,0,0,0-1.336-.449,2.108,2.108,0,0,0-1.3.391,1.151,1.151,0,0,0-.523.945H98.172a2,2,0,0,1,.449-1.223,3.066,3.066,0,0,1,1.219-.934,4.1,4.1,0,0,1,1.691-.344,3.342,3.342,0,0,1,2.289.73,2.635,2.635,0,0,1,.859,2.012v3.891a4.757,4.757,0,0,0,.3,1.852V0Zm-2.4-1.1a2.54,2.54,0,0,0,1.289-.352,2.127,2.127,0,0,0,.883-.914V-4.1H102.1q-2.656,0-2.656,1.555A1.316,1.316,0,0,0,99.9-1.484,1.742,1.742,0,0,0,101.063-1.1ZM108.516,0H107.07V-12h1.445Z" transform="translate(6810.366 3009.674)" fill="#12263f"/>
          <rect id="Rectángulo_5265-3" data-name="Rectángulo 5265" width="199.937" height="61.451" transform="translate(6763.551 2972.763)" fill="none" stroke="#606060" stroke-miterlimit="10" stroke-width="1.888"/>
          <rect id="Rectángulo_5266-3" data-name="Rectángulo 5266" width="6.236" height="18.047" transform="translate(6760.244 2971.362)" fill="#ff8a5b"/>
          <rect id="Rectángulo_5267-3" data-name="Rectángulo 5267" width="6.236" height="18.047" transform="translate(6778.292 2969.945) rotate(90)" fill="#ff8a5b"/>
        </g>
      </g>
      <g id="Grupo_55776" data-name="Grupo 55776" transform="translate(308.378 -4.135)">
        <g id="Grupo_55771-4" data-name="Grupo 55771" transform="translate(-6061.866 -2012.944)">
          <rect id="Rectángulo_5264-4" data-name="Rectángulo 5264" width="174.236" height="42.331" transform="translate(6776.488 2982.674)" fill="#ffae78"/>
          <path id="Trazado_735300" data-name="Trazado 735300" d="M4.672-5.07A7.053,7.053,0,0,1,1.863-6.434a2.6,2.6,0,0,1-.879-2,2.751,2.751,0,0,1,1.074-2.223,4.269,4.269,0,0,1,2.793-.879,4.66,4.66,0,0,1,2.09.453,3.436,3.436,0,0,1,1.422,1.25,3.2,3.2,0,0,1,.5,1.742H7.359A2.08,2.08,0,0,0,6.7-9.713,2.669,2.669,0,0,0,4.852-10.3a2.732,2.732,0,0,0-1.73.489A1.632,1.632,0,0,0,2.5-8.458,1.468,1.468,0,0,0,3.09-7.28,5.785,5.785,0,0,0,5.1-6.4a9.316,9.316,0,0,1,2.219.88A3.367,3.367,0,0,1,8.5-4.4a2.861,2.861,0,0,1,.387,1.508A2.658,2.658,0,0,1,7.813-.676,4.6,4.6,0,0,1,4.93.156,5.347,5.347,0,0,1,2.742-.293a3.681,3.681,0,0,1-1.566-1.23A3,3,0,0,1,.625-3.3H2.133a1.959,1.959,0,0,0,.762,1.629,3.207,3.207,0,0,0,2.035.6,2.948,2.948,0,0,0,1.82-.484,1.573,1.573,0,0,0,.633-1.32A1.545,1.545,0,0,0,6.8-4.168,6.755,6.755,0,0,0,4.672-5.07ZM15.8-.836a3.07,3.07,0,0,1-2.477.992A2.628,2.628,0,0,1,11.27-.629a3.4,3.4,0,0,1-.715-2.324v-5.5H12v5.461Q12-1.07,13.563-1.07a2.163,2.163,0,0,0,2.2-1.234V-8.453h1.445V0H15.836Zm10.758-3.3a5.026,5.026,0,0,1-.891,3.113A2.846,2.846,0,0,1,23.281.156,2.947,2.947,0,0,1,20.8-.977L20.734,0H19.406V-12h1.445v4.477a2.93,2.93,0,0,1,2.414-1.086,2.863,2.863,0,0,1,2.418,1.164,5.177,5.177,0,0,1,.879,3.188ZM25.117-4.3a3.906,3.906,0,0,0-.57-2.281,1.888,1.888,0,0,0-1.641-.8,2.122,2.122,0,0,0-2.055,1.328V-2.4a2.181,2.181,0,0,0,2.07,1.328,1.878,1.878,0,0,0,1.617-.8A4.153,4.153,0,0,0,25.117-4.3Zm10.234.055H31.539v-1.18h3.813ZM42.289,0H40.844V-8.453h1.445ZM40.727-10.7a.863.863,0,0,1,.215-.594.807.807,0,0,1,.637-.242.819.819,0,0,1,.641.242.854.854,0,0,1,.219.594.826.826,0,0,1-.219.586.834.834,0,0,1-.641.234.821.821,0,0,1-.637-.234A.834.834,0,0,1,40.727-10.7Zm5.242,2.242.047,1.063a3.08,3.08,0,0,1,2.531-1.219q2.68,0,2.7,3.023V0H49.8V-5.594a1.946,1.946,0,0,0-.418-1.352,1.675,1.675,0,0,0-1.277-.437,2.086,2.086,0,0,0-1.234.375,2.546,2.546,0,0,0-.828.984V0H44.6V-8.453ZM54.141,0V-7.336H52.8V-8.453h1.336V-9.32a2.878,2.878,0,0,1,.727-2.1,2.745,2.745,0,0,1,2.055-.742,3.816,3.816,0,0,1,.992.132l-.078,1.165a4.151,4.151,0,0,0-.781-.07,1.41,1.41,0,0,0-1.086.411,1.669,1.669,0,0,0-.383,1.18v.893h1.8v1.117h-1.8V0ZM58.6-4.3a4.993,4.993,0,0,1,.488-2.234A3.643,3.643,0,0,1,60.449-8.07a3.7,3.7,0,0,1,1.988-.539,3.565,3.565,0,0,1,2.793,1.2A4.6,4.6,0,0,1,66.3-4.234v.1a5.036,5.036,0,0,1-.473,2.215A3.589,3.589,0,0,1,64.473-.391a3.743,3.743,0,0,1-2.02.547,3.556,3.556,0,0,1-2.785-1.2A4.575,4.575,0,0,1,58.6-4.2Zm1.453.172a3.616,3.616,0,0,0,.652,2.258,2.088,2.088,0,0,0,1.746.852,2.075,2.075,0,0,0,1.75-.863A3.955,3.955,0,0,0,64.852-4.3a3.61,3.61,0,0,0-.66-2.254,2.1,2.1,0,0,0-1.754-.863,2.075,2.075,0,0,0-1.727.852A3.925,3.925,0,0,0,60.055-4.133ZM72.2-7.156a4.331,4.331,0,0,0-.711-.055A1.9,1.9,0,0,0,69.555-6V0H68.109V-8.453h1.406l.023.977a2.251,2.251,0,0,1,2.016-1.133A1.477,1.477,0,0,1,72.2-8.5Zm2.688-1.3.039.938A3.122,3.122,0,0,1,77.43-8.609,2.417,2.417,0,0,1,79.844-7.25a3.2,3.2,0,0,1,1.1-.984,3.242,3.242,0,0,1,1.6-.375q2.781,0,2.828,2.945V0H83.922V-5.578a1.941,1.941,0,0,0-.414-1.355,1.823,1.823,0,0,0-1.391-.449,1.916,1.916,0,0,0-1.336.48,1.949,1.949,0,0,0-.617,1.293V0H78.711V-5.539a1.613,1.613,0,0,0-1.8-1.844,1.934,1.934,0,0,0-1.945,1.211V0H73.516V-8.453ZM92.766,0a3.036,3.036,0,0,1-.2-.891A3.225,3.225,0,0,1,90.156.156a2.984,2.984,0,0,1-2.051-.707,2.288,2.288,0,0,1-.8-1.793,2.39,2.39,0,0,1,1-2.051,4.733,4.733,0,0,1,2.824-.73h1.406v-.664A1.623,1.623,0,0,0,92.086-7a1.821,1.821,0,0,0-1.336-.449,2.108,2.108,0,0,0-1.3.391,1.151,1.151,0,0,0-.523.945H87.477a2,2,0,0,1,.449-1.223,3.066,3.066,0,0,1,1.219-.934,4.1,4.1,0,0,1,1.691-.344,3.342,3.342,0,0,1,2.289.73,2.635,2.635,0,0,1,.859,2.012v3.891a4.757,4.757,0,0,0,.3,1.852V0Zm-2.4-1.1a2.54,2.54,0,0,0,1.289-.352,2.127,2.127,0,0,0,.883-.914V-4.1H91.406q-2.656,0-2.656,1.555A1.316,1.316,0,0,0,89.2-1.484,1.742,1.742,0,0,0,90.367-1.1Zm9.273.078a2.082,2.082,0,0,0,1.352-.469,1.649,1.649,0,0,0,.641-1.172H103a2.621,2.621,0,0,1-.5,1.383,3.293,3.293,0,0,1-1.23,1.047,3.55,3.55,0,0,1-1.629.391A3.482,3.482,0,0,1,96.895-1a4.59,4.59,0,0,1-1.02-3.152v-.242a5.089,5.089,0,0,1,.453-2.2,3.451,3.451,0,0,1,1.3-1.492,3.7,3.7,0,0,1,2-.531A3.39,3.39,0,0,1,102-7.758a3.043,3.043,0,0,1,1,2.211h-1.367a1.992,1.992,0,0,0-.621-1.348,1.932,1.932,0,0,0-1.379-.527,2.023,2.023,0,0,0-1.707.793,3.724,3.724,0,0,0-.605,2.293v.273a3.65,3.65,0,0,0,.6,2.25A2.033,2.033,0,0,0,99.641-1.023ZM106.2,0H104.75V-8.453H106.2Zm-1.562-10.7a.863.863,0,0,1,.215-.594.807.807,0,0,1,.637-.242.819.819,0,0,1,.641.242.854.854,0,0,1,.219.594.826.826,0,0,1-.219.586.834.834,0,0,1-.641.234.821.821,0,0,1-.637-.234A.834.834,0,0,1,104.633-10.7ZM108.125-4.3a4.993,4.993,0,0,1,.488-2.234,3.643,3.643,0,0,1,1.359-1.531,3.7,3.7,0,0,1,1.988-.539,3.565,3.565,0,0,1,2.793,1.2,4.6,4.6,0,0,1,1.066,3.18v.1a5.036,5.036,0,0,1-.473,2.215A3.589,3.589,0,0,1,114-.391a3.743,3.743,0,0,1-2.02.547,3.556,3.556,0,0,1-2.785-1.2A4.575,4.575,0,0,1,108.125-4.2Zm1.453.172a3.616,3.616,0,0,0,.652,2.258,2.088,2.088,0,0,0,1.746.852,2.075,2.075,0,0,0,1.75-.863,3.955,3.955,0,0,0,.648-2.418,3.61,3.61,0,0,0-.66-2.254,2.1,2.1,0,0,0-1.754-.863,2.075,2.075,0,0,0-1.727.852A3.925,3.925,0,0,0,109.578-4.133ZM112.617-12h1.75l-2.094,2.3-1.164,0ZM119-8.453l.047,1.063a3.08,3.08,0,0,1,2.531-1.219q2.68,0,2.7,3.023V0h-1.445V-5.594a1.946,1.946,0,0,0-.418-1.352,1.675,1.675,0,0,0-1.277-.437,2.086,2.086,0,0,0-1.234.375,2.546,2.546,0,0,0-.828.984V0h-1.445V-8.453Z" transform="translate(6804.488 3009.674)" fill="#12263f"/>
          <rect id="Rectángulo_5265-4" data-name="Rectángulo 5265" width="199.937" height="61.451" transform="translate(6763.551 2972.763)" fill="none" stroke="#606060" stroke-miterlimit="10" stroke-width="1.888"/>
          <rect id="Rectángulo_5266-4" data-name="Rectángulo 5266" width="6.236" height="18.047" transform="translate(6760.244 2971.362)" fill="#ff8a5b"/>
          <rect id="Rectángulo_5267-4" data-name="Rectángulo 5267" width="6.236" height="18.047" transform="translate(6778.292 2969.945) rotate(90)" fill="#ff8a5b"/>
        </g>
      </g>
      <g id="Grupo_55775" data-name="Grupo 55775" transform="translate(-203.378 157.413)">
        <g id="Grupo_55771-5" data-name="Grupo 55771" transform="translate(-6061.866 -2012.944)">
          <rect id="Rectángulo_5264-5" data-name="Rectángulo 5264" width="174.236" height="42.331" transform="translate(6776.366 2982.674)" fill="#ffae78"/>
          <path id="Trazado_735302" data-name="Trazado 735302" d="M4.672-5.07A7.053,7.053,0,0,1,1.863-6.434a2.6,2.6,0,0,1-.879-2,2.751,2.751,0,0,1,1.074-2.223,4.269,4.269,0,0,1,2.793-.879,4.66,4.66,0,0,1,2.09.453,3.436,3.436,0,0,1,1.422,1.25,3.2,3.2,0,0,1,.5,1.742H7.359A2.08,2.08,0,0,0,6.7-9.713,2.669,2.669,0,0,0,4.852-10.3a2.732,2.732,0,0,0-1.73.489A1.632,1.632,0,0,0,2.5-8.458,1.468,1.468,0,0,0,3.09-7.28,5.785,5.785,0,0,0,5.1-6.4a9.316,9.316,0,0,1,2.219.88A3.367,3.367,0,0,1,8.5-4.4a2.861,2.861,0,0,1,.387,1.508A2.658,2.658,0,0,1,7.813-.676,4.6,4.6,0,0,1,4.93.156,5.347,5.347,0,0,1,2.742-.293a3.681,3.681,0,0,1-1.566-1.23A3,3,0,0,1,.625-3.3H2.133a1.959,1.959,0,0,0,.762,1.629,3.207,3.207,0,0,0,2.035.6,2.948,2.948,0,0,0,1.82-.484,1.573,1.573,0,0,0,.633-1.32A1.545,1.545,0,0,0,6.8-4.168,6.755,6.755,0,0,0,4.672-5.07ZM15.8-.836a3.07,3.07,0,0,1-2.477.992A2.628,2.628,0,0,1,11.27-.629a3.4,3.4,0,0,1-.715-2.324v-5.5H12v5.461Q12-1.07,13.563-1.07a2.163,2.163,0,0,0,2.2-1.234V-8.453h1.445V0H15.836Zm10.758-3.3a5.026,5.026,0,0,1-.891,3.113A2.846,2.846,0,0,1,23.281.156,2.947,2.947,0,0,1,20.8-.977L20.734,0H19.406V-12h1.445v4.477a2.93,2.93,0,0,1,2.414-1.086,2.863,2.863,0,0,1,2.418,1.164,5.177,5.177,0,0,1,.879,3.188ZM25.117-4.3a3.906,3.906,0,0,0-.57-2.281,1.888,1.888,0,0,0-1.641-.8,2.122,2.122,0,0,0-2.055,1.328V-2.4a2.181,2.181,0,0,0,2.07,1.328,1.878,1.878,0,0,0,1.617-.8A4.153,4.153,0,0,0,25.117-4.3Zm10.234.055H31.539v-1.18h3.813ZM40.367-4.3a4.952,4.952,0,0,1,.922-3.129A2.915,2.915,0,0,1,43.7-8.609a2.932,2.932,0,0,1,2.352,1.016V-12H47.5V0H46.172L46.1-.906A2.943,2.943,0,0,1,43.688.156a2.887,2.887,0,0,1-2.395-1.2,5.008,5.008,0,0,1-.926-3.141Zm1.445.164a3.749,3.749,0,0,0,.594,2.25,1.92,1.92,0,0,0,1.641.813A2.108,2.108,0,0,0,46.055-2.3V-6.187a2.125,2.125,0,0,0-1.992-1.2,1.929,1.929,0,0,0-1.656.82A4.128,4.128,0,0,0,41.813-4.133ZM51.313,0H49.867V-8.453h1.445ZM49.75-10.7a.863.863,0,0,1,.215-.594.807.807,0,0,1,.637-.242.819.819,0,0,1,.641.242.854.854,0,0,1,.219.594.826.826,0,0,1-.219.586.834.834,0,0,1-.641.234.821.821,0,0,1-.637-.234A.834.834,0,0,1,49.75-10.7Zm7.961,3.539A4.331,4.331,0,0,0,57-7.211,1.9,1.9,0,0,0,55.07-6V0H53.625V-8.453h1.406l.023.977A2.251,2.251,0,0,1,57.07-8.609a1.477,1.477,0,0,1,.641.109ZM62.547.156a3.693,3.693,0,0,1-2.8-1.129,4.19,4.19,0,0,1-1.078-3.02v-.266a5.073,5.073,0,0,1,.48-2.246A3.748,3.748,0,0,1,60.5-8.051a3.378,3.378,0,0,1,1.871-.559A3.166,3.166,0,0,1,64.93-7.523a4.7,4.7,0,0,1,.914,3.109v.6H60.117a3,3,0,0,0,.73,2.02,2.3,2.3,0,0,0,1.777.77,2.517,2.517,0,0,0,1.3-.312,3.259,3.259,0,0,0,.93-.828l.883.688A3.55,3.55,0,0,1,62.547.156Zm-.18-7.578a1.928,1.928,0,0,0-1.469.637A3.1,3.1,0,0,0,60.164-5H64.4v-.109A2.753,2.753,0,0,0,63.8-6.816,1.815,1.815,0,0,0,62.367-7.422Zm8.539,6.4a2.082,2.082,0,0,0,1.352-.469A1.649,1.649,0,0,0,72.9-2.664h1.367a2.621,2.621,0,0,1-.5,1.383,3.293,3.293,0,0,1-1.23,1.047,3.55,3.55,0,0,1-1.629.391A3.482,3.482,0,0,1,68.16-1a4.59,4.59,0,0,1-1.02-3.152v-.242a5.089,5.089,0,0,1,.453-2.2,3.451,3.451,0,0,1,1.3-1.492,3.7,3.7,0,0,1,2-.531,3.39,3.39,0,0,1,2.363.852,3.043,3.043,0,0,1,1,2.211H72.9a1.992,1.992,0,0,0-.621-1.348A1.932,1.932,0,0,0,70.9-7.422a2.023,2.023,0,0,0-1.707.793,3.724,3.724,0,0,0-.605,2.293v.273a3.65,3.65,0,0,0,.6,2.25A2.033,2.033,0,0,0,70.906-1.023Zm8.375,0a2.082,2.082,0,0,0,1.352-.469,1.649,1.649,0,0,0,.641-1.172h1.367a2.621,2.621,0,0,1-.5,1.383A3.293,3.293,0,0,1,80.91-.234a3.55,3.55,0,0,1-1.629.391A3.482,3.482,0,0,1,76.535-1a4.59,4.59,0,0,1-1.02-3.152v-.242a5.089,5.089,0,0,1,.453-2.2,3.451,3.451,0,0,1,1.3-1.492,3.7,3.7,0,0,1,2-.531,3.39,3.39,0,0,1,2.363.852,3.043,3.043,0,0,1,1,2.211H81.273a1.992,1.992,0,0,0-.621-1.348,1.932,1.932,0,0,0-1.379-.527,2.023,2.023,0,0,0-1.707.793,3.724,3.724,0,0,0-.605,2.293v.273a3.65,3.65,0,0,0,.6,2.25A2.033,2.033,0,0,0,79.281-1.023ZM85.836,0H84.391V-8.453h1.445ZM84.273-10.7a.863.863,0,0,1,.215-.594.807.807,0,0,1,.637-.242.819.819,0,0,1,.641.242.854.854,0,0,1,.219.594.826.826,0,0,1-.219.586.834.834,0,0,1-.641.234.821.821,0,0,1-.637-.234A.834.834,0,0,1,84.273-10.7ZM87.766-4.3a4.993,4.993,0,0,1,.488-2.234A3.643,3.643,0,0,1,89.613-8.07,3.7,3.7,0,0,1,91.6-8.609a3.565,3.565,0,0,1,2.793,1.2,4.6,4.6,0,0,1,1.066,3.18v.1a5.036,5.036,0,0,1-.473,2.215A3.589,3.589,0,0,1,93.637-.391a3.743,3.743,0,0,1-2.02.547,3.556,3.556,0,0,1-2.785-1.2A4.575,4.575,0,0,1,87.766-4.2Zm1.453.172a3.616,3.616,0,0,0,.652,2.258,2.088,2.088,0,0,0,1.746.852,2.075,2.075,0,0,0,1.75-.863A3.955,3.955,0,0,0,94.016-4.3a3.61,3.61,0,0,0-.66-2.254A2.1,2.1,0,0,0,91.6-7.422a2.075,2.075,0,0,0-1.727.852A3.925,3.925,0,0,0,89.219-4.133ZM92.258-12h1.75L91.914-9.7l-1.164,0Zm6.383,3.547.047,1.063a3.08,3.08,0,0,1,2.531-1.219q2.68,0,2.7,3.023V0h-1.445V-5.594a1.946,1.946,0,0,0-.418-1.352,1.675,1.675,0,0,0-1.277-.437,2.086,2.086,0,0,0-1.234.375,2.546,2.546,0,0,0-.828.984V0H97.273V-8.453Z" transform="translate(6812.366 3009.674)" fill="#12263f"/>
          <rect id="Rectángulo_5265-5" data-name="Rectángulo 5265" width="199.937" height="61.451" transform="translate(6763.551 2972.763)" fill="none" stroke="#606060" stroke-miterlimit="10" stroke-width="1.888"/>
          <rect id="Rectángulo_5266-5" data-name="Rectángulo 5266" width="6.236" height="18.047" transform="translate(6760.244 2971.362)" fill="#ff8a5b"/>
          <rect id="Rectángulo_5267-5" data-name="Rectángulo 5267" width="6.236" height="18.047" transform="translate(6778.292 2969.945) rotate(90)" fill="#ff8a5b"/>
        </g>
      </g>
      <g id="Grupo_55777" data-name="Grupo 55777" transform="translate(196.622 157.413)">
        <g id="Grupo_55771-6" data-name="Grupo 55771" transform="translate(698.378 957)">
          <rect id="Rectángulo_5264-6" data-name="Rectángulo 5264" width="200.993" height="42.331" transform="translate(12.122 12.729)" fill="#ffae78"/>
          <path id="Trazado_735303" data-name="Trazado 735303" d="M4.672-5.07A7.053,7.053,0,0,1,1.863-6.434a2.6,2.6,0,0,1-.879-2,2.751,2.751,0,0,1,1.074-2.223,4.269,4.269,0,0,1,2.793-.879,4.66,4.66,0,0,1,2.09.453,3.436,3.436,0,0,1,1.422,1.25,3.2,3.2,0,0,1,.5,1.742H7.359A2.08,2.08,0,0,0,6.7-9.713,2.669,2.669,0,0,0,4.852-10.3a2.732,2.732,0,0,0-1.73.489A1.632,1.632,0,0,0,2.5-8.458,1.468,1.468,0,0,0,3.09-7.28,5.785,5.785,0,0,0,5.1-6.4a9.316,9.316,0,0,1,2.219.88A3.367,3.367,0,0,1,8.5-4.4a2.861,2.861,0,0,1,.387,1.508A2.658,2.658,0,0,1,7.813-.676,4.6,4.6,0,0,1,4.93.156,5.347,5.347,0,0,1,2.742-.293a3.681,3.681,0,0,1-1.566-1.23A3,3,0,0,1,.625-3.3H2.133a1.959,1.959,0,0,0,.762,1.629,3.207,3.207,0,0,0,2.035.6,2.948,2.948,0,0,0,1.82-.484,1.573,1.573,0,0,0,.633-1.32A1.545,1.545,0,0,0,6.8-4.168,6.755,6.755,0,0,0,4.672-5.07ZM15.8-.836a3.07,3.07,0,0,1-2.477.992A2.628,2.628,0,0,1,11.27-.629a3.4,3.4,0,0,1-.715-2.324v-5.5H12v5.461Q12-1.07,13.563-1.07a2.163,2.163,0,0,0,2.2-1.234V-8.453h1.445V0H15.836Zm10.758-3.3a5.026,5.026,0,0,1-.891,3.113A2.846,2.846,0,0,1,23.281.156,2.947,2.947,0,0,1,20.8-.977L20.734,0H19.406V-12h1.445v4.477a2.93,2.93,0,0,1,2.414-1.086,2.863,2.863,0,0,1,2.418,1.164,5.177,5.177,0,0,1,.879,3.188ZM25.117-4.3a3.906,3.906,0,0,0-.57-2.281,1.888,1.888,0,0,0-1.641-.8,2.122,2.122,0,0,0-2.055,1.328V-2.4a2.181,2.181,0,0,0,2.07,1.328,1.878,1.878,0,0,0,1.617-.8A4.153,4.153,0,0,0,25.117-4.3Zm10.234.055H31.539v-1.18h3.813ZM44.8-7.156a4.331,4.331,0,0,0-.711-.055A1.9,1.9,0,0,0,42.164-6V0H40.719V-8.453h1.406l.023.977a2.251,2.251,0,0,1,2.016-1.133A1.477,1.477,0,0,1,44.8-8.5ZM49.641.156a3.693,3.693,0,0,1-2.8-1.129,4.19,4.19,0,0,1-1.078-3.02v-.266a5.073,5.073,0,0,1,.48-2.246A3.748,3.748,0,0,1,47.59-8.051a3.378,3.378,0,0,1,1.871-.559,3.166,3.166,0,0,1,2.563,1.086,4.7,4.7,0,0,1,.914,3.109v.6H47.211a3,3,0,0,0,.73,2.02,2.3,2.3,0,0,0,1.777.77,2.517,2.517,0,0,0,1.3-.312,3.259,3.259,0,0,0,.93-.828l.883.688A3.55,3.55,0,0,1,49.641.156Zm-.18-7.578a1.928,1.928,0,0,0-1.469.637A3.1,3.1,0,0,0,47.258-5h4.234v-.109A2.753,2.753,0,0,0,50.9-6.816,1.815,1.815,0,0,0,49.461-7.422ZM58-1.023a2.082,2.082,0,0,0,1.352-.469,1.649,1.649,0,0,0,.641-1.172h1.367a2.621,2.621,0,0,1-.5,1.383,3.293,3.293,0,0,1-1.23,1.047A3.55,3.55,0,0,1,58,.156,3.482,3.482,0,0,1,55.254-1a4.59,4.59,0,0,1-1.02-3.152v-.242a5.089,5.089,0,0,1,.453-2.2,3.451,3.451,0,0,1,1.3-1.492,3.7,3.7,0,0,1,2-.531,3.39,3.39,0,0,1,2.363.852,3.043,3.043,0,0,1,1,2.211H59.992a1.992,1.992,0,0,0-.621-1.348,1.932,1.932,0,0,0-1.379-.527,2.023,2.023,0,0,0-1.707.793,3.724,3.724,0,0,0-.605,2.293v.273a3.65,3.65,0,0,0,.6,2.25A2.033,2.033,0,0,0,58-1.023Zm10.2.188a3.07,3.07,0,0,1-2.477.992,2.628,2.628,0,0,1-2.059-.785,3.4,3.4,0,0,1-.715-2.324v-5.5H64.4v5.461q0,1.922,1.563,1.922a2.163,2.163,0,0,0,2.2-1.234V-8.453h1.445V0H68.234Zm7.688-6.32a4.331,4.331,0,0,0-.711-.055A1.9,1.9,0,0,0,73.25-6V0H71.8V-8.453h1.406l.023.977A2.251,2.251,0,0,1,75.25-8.609a1.477,1.477,0,0,1,.641.109Zm6.25,4.914a1.064,1.064,0,0,0-.441-.91,4.249,4.249,0,0,0-1.539-.559,7.277,7.277,0,0,1-1.742-.562,2.479,2.479,0,0,1-.953-.781,1.869,1.869,0,0,1-.309-1.078,2.193,2.193,0,0,1,.879-1.758,3.432,3.432,0,0,1,2.246-.719,3.532,3.532,0,0,1,2.332.742,2.357,2.357,0,0,1,.895,1.9H82.055a1.3,1.3,0,0,0-.5-1.023,1.888,1.888,0,0,0-1.27-.43,1.976,1.976,0,0,0-1.234.344,1.082,1.082,0,0,0-.445.9.877.877,0,0,0,.414.789,5.1,5.1,0,0,0,1.5.508,7.8,7.8,0,0,1,1.754.578,2.558,2.558,0,0,1,1,.809,1.988,1.988,0,0,1,.324,1.152A2.163,2.163,0,0,1,82.68-.527a3.8,3.8,0,0,1-2.352.684,4.257,4.257,0,0,1-1.8-.359,2.922,2.922,0,0,1-1.223-1A2.42,2.42,0,0,1,76.867-2.6h1.445a1.5,1.5,0,0,0,.582,1.152,2.258,2.258,0,0,0,1.434.426,2.331,2.331,0,0,0,1.316-.332A1.02,1.02,0,0,0,82.141-2.242ZM85.086-4.3a4.993,4.993,0,0,1,.488-2.234A3.643,3.643,0,0,1,86.934-8.07a3.7,3.7,0,0,1,1.988-.539,3.565,3.565,0,0,1,2.793,1.2,4.6,4.6,0,0,1,1.066,3.18v.1a5.036,5.036,0,0,1-.473,2.215A3.589,3.589,0,0,1,90.957-.391a3.743,3.743,0,0,1-2.02.547,3.556,3.556,0,0,1-2.785-1.2A4.575,4.575,0,0,1,85.086-4.2Zm1.453.172a3.616,3.616,0,0,0,.652,2.258,2.088,2.088,0,0,0,1.746.852,2.075,2.075,0,0,0,1.75-.863A3.955,3.955,0,0,0,91.336-4.3a3.61,3.61,0,0,0-.66-2.254,2.1,2.1,0,0,0-1.754-.863A2.075,2.075,0,0,0,87.2-6.57,3.925,3.925,0,0,0,86.539-4.133ZM99.516-2.242a1.064,1.064,0,0,0-.441-.91,4.249,4.249,0,0,0-1.539-.559,7.277,7.277,0,0,1-1.742-.562,2.479,2.479,0,0,1-.953-.781,1.869,1.869,0,0,1-.309-1.078,2.193,2.193,0,0,1,.879-1.758,3.432,3.432,0,0,1,2.246-.719,3.532,3.532,0,0,1,2.332.742,2.357,2.357,0,0,1,.895,1.9H99.43a1.3,1.3,0,0,0-.5-1.023,1.888,1.888,0,0,0-1.27-.43,1.976,1.976,0,0,0-1.234.344,1.082,1.082,0,0,0-.445.9.877.877,0,0,0,.414.789,5.1,5.1,0,0,0,1.5.508,7.8,7.8,0,0,1,1.754.578,2.558,2.558,0,0,1,1,.809,1.988,1.988,0,0,1,.324,1.152,2.163,2.163,0,0,1-.906,1.816A3.8,3.8,0,0,1,97.7.156a4.257,4.257,0,0,1-1.8-.359,2.922,2.922,0,0,1-1.223-1A2.42,2.42,0,0,1,94.242-2.6h1.445a1.5,1.5,0,0,0,.582,1.152,2.258,2.258,0,0,0,1.434.426,2.331,2.331,0,0,0,1.316-.332A1.02,1.02,0,0,0,99.516-2.242ZM108.25-7.43a3.073,3.073,0,0,1,2.5-1.18q2.68,0,2.7,3.023V0h-1.445V-5.594a1.946,1.946,0,0,0-.418-1.352,1.675,1.675,0,0,0-1.277-.437,2.086,2.086,0,0,0-1.234.375,2.546,2.546,0,0,0-.828.984V0H106.8V-12h1.445ZM120.836-.836a3.07,3.07,0,0,1-2.477.992A2.628,2.628,0,0,1,116.3-.629a3.4,3.4,0,0,1-.715-2.324v-5.5h1.445v5.461q0,1.922,1.563,1.922A2.163,2.163,0,0,0,120.8-2.3V-8.453h1.445V0h-1.375ZM125.8-8.453l.039.938a3.122,3.122,0,0,1,2.508-1.094,2.417,2.417,0,0,1,2.414,1.359,3.2,3.2,0,0,1,1.1-.984,3.242,3.242,0,0,1,1.6-.375q2.781,0,2.828,2.945V0h-1.445V-5.578a1.941,1.941,0,0,0-.414-1.355,1.823,1.823,0,0,0-1.391-.449,1.917,1.917,0,0,0-1.336.48,1.949,1.949,0,0,0-.617,1.293V0h-1.453V-5.539a1.613,1.613,0,0,0-1.8-1.844,1.934,1.934,0,0,0-1.945,1.211V0H124.43V-8.453ZM143.68,0a3.036,3.036,0,0,1-.2-.891A3.225,3.225,0,0,1,141.07.156a2.984,2.984,0,0,1-2.051-.707,2.287,2.287,0,0,1-.8-1.793,2.39,2.39,0,0,1,1-2.051,4.733,4.733,0,0,1,2.824-.73h1.406v-.664A1.623,1.623,0,0,0,143-7a1.821,1.821,0,0,0-1.336-.449,2.107,2.107,0,0,0-1.3.391,1.151,1.151,0,0,0-.523.945h-1.453a2,2,0,0,1,.449-1.223,3.066,3.066,0,0,1,1.219-.934,4.1,4.1,0,0,1,1.691-.344,3.342,3.342,0,0,1,2.289.73,2.635,2.635,0,0,1,.859,2.012v3.891a4.757,4.757,0,0,0,.3,1.852V0Zm-2.4-1.1a2.54,2.54,0,0,0,1.289-.352,2.127,2.127,0,0,0,.883-.914V-4.1H142.32q-2.656,0-2.656,1.555a1.316,1.316,0,0,0,.453,1.063A1.742,1.742,0,0,0,141.281-1.1Zm7.25-7.352.047,1.063a3.08,3.08,0,0,1,2.531-1.219q2.68,0,2.7,3.023V0h-1.445V-5.594a1.946,1.946,0,0,0-.418-1.352,1.675,1.675,0,0,0-1.277-.437,2.086,2.086,0,0,0-1.234.375,2.546,2.546,0,0,0-.828.984V0h-1.445V-8.453ZM155.609-4.3a4.993,4.993,0,0,1,.488-2.234,3.642,3.642,0,0,1,1.359-1.531,3.7,3.7,0,0,1,1.988-.539,3.565,3.565,0,0,1,2.793,1.2,4.6,4.6,0,0,1,1.066,3.18v.1a5.036,5.036,0,0,1-.473,2.215A3.589,3.589,0,0,1,161.48-.391a3.743,3.743,0,0,1-2.02.547,3.556,3.556,0,0,1-2.785-1.2A4.575,4.575,0,0,1,155.609-4.2Zm1.453.172a3.616,3.616,0,0,0,.652,2.258,2.088,2.088,0,0,0,1.746.852,2.075,2.075,0,0,0,1.75-.863,3.954,3.954,0,0,0,.648-2.418,3.61,3.61,0,0,0-.66-2.254,2.1,2.1,0,0,0-1.754-.863,2.075,2.075,0,0,0-1.727.852A3.925,3.925,0,0,0,157.063-4.133Zm12.977,1.891a1.064,1.064,0,0,0-.441-.91,4.249,4.249,0,0,0-1.539-.559,7.277,7.277,0,0,1-1.742-.562,2.479,2.479,0,0,1-.953-.781,1.869,1.869,0,0,1-.309-1.078,2.193,2.193,0,0,1,.879-1.758,3.432,3.432,0,0,1,2.246-.719,3.532,3.532,0,0,1,2.332.742,2.357,2.357,0,0,1,.895,1.9h-1.453a1.3,1.3,0,0,0-.5-1.023,1.888,1.888,0,0,0-1.27-.43,1.976,1.976,0,0,0-1.234.344,1.082,1.082,0,0,0-.445.9.877.877,0,0,0,.414.789,5.1,5.1,0,0,0,1.5.508,7.8,7.8,0,0,1,1.754.578,2.558,2.558,0,0,1,1,.809,1.988,1.988,0,0,1,.324,1.152,2.163,2.163,0,0,1-.906,1.816,3.8,3.8,0,0,1-2.352.684,4.257,4.257,0,0,1-1.8-.359,2.922,2.922,0,0,1-1.223-1,2.42,2.42,0,0,1-.441-1.395h1.445a1.5,1.5,0,0,0,.582,1.152,2.258,2.258,0,0,0,1.434.426,2.331,2.331,0,0,0,1.316-.332A1.02,1.02,0,0,0,170.039-2.242Z" transform="translate(27.154 39.73)" fill="#12263f"/>
          <rect id="Rectángulo_5265-6" data-name="Rectángulo 5265" width="226.693" height="61.451" transform="translate(-0.693 2.818)" fill="none" stroke="#606060" stroke-miterlimit="10" stroke-width="1.888"/>
          <rect id="Rectángulo_5266-6" data-name="Rectángulo 5266" width="6.236" height="18.047" transform="translate(0 1.418)" fill="#ff8a5b"/>
          <rect id="Rectángulo_5267-6" data-name="Rectángulo 5267" width="6.236" height="18.047" transform="translate(18.047) rotate(90)" fill="#ff8a5b"/>
        </g>
      </g>
      <g id="Grupo_53852" data-name="Grupo 53852" transform="translate(-2179.754 215.438)" opacity="0.65">
        <path id="Trazado_100665" data-name="Trazado 100665" d="M5.492,1.567,0,0,5.479,8.5l.013-.017.013.017L10.984,0Z" transform="translate(2984.231 753.471) rotate(180)" fill="#9f0925"/>
        <rect id="Rectángulo_5211" data-name="Rectángulo 5211" width="2.263" height="36.207" transform="translate(2977.607 747.636)" fill="#9f0925"/>
        <path id="Trazado_100712" data-name="Trazado 100712" d="M2978.739,792.661l-5.492-1.567,5.479,8.5.013-.017.013.017,5.479-8.5Z" transform="translate(0 -11.5)" fill="#9f0925"/>
      </g>
      <g id="Grupo_55778" data-name="Grupo 55778" transform="translate(689.974 -2041.877) rotate(71)" opacity="0.65">
        <path id="Unión_7" data-name="Unión 7" d="M15796.926,11474.15l-.016.017-5.477-8.5,4.362,1.244v-71.053l-4.577,1.306,5.478-8.5.016.02.012-.02,5.481,8.5-4.148-1.183v70.93l4.362-1.244-5.481,8.5Z" transform="translate(-12818.187 -10686.076)" fill="#9f0925" stroke="rgba(0,0,0,0)" stroke-miterlimit="10" stroke-width="1"/>
      </g>
      <g id="Grupo_55780" data-name="Grupo 55780" transform="matrix(-0.5, 0.866, -0.866, -0.5, 3089.622, -1122.928)" opacity="0.65">
        <path id="Unión_8" data-name="Unión 8" d="M15794.739,11414.137l-.012.021-5.48-8.5,4.362,1.244v-71.051l-4.576,1.306,5.476-8.5.017.02.012-.02,5.479,8.5-4.147-1.184v70.929l4.362-1.244-5.48,8.5Z" transform="translate(-12816 -10626.065)" fill="#9f0925" stroke="rgba(0,0,0,0)" stroke-miterlimit="10" stroke-width="1"/>
      </g>
      <g id="Grupo_55781" data-name="Grupo 55781" transform="matrix(0.5, 0.866, -0.866, 0.5, -198.649, -1868.271)" opacity="0.65">
        <path id="Unión_6" data-name="Unión 6" d="M16104.27,11414.323l-.012.021-5.479-8.5,4.362,1.247v-71.055l-4.577,1.308,5.479-8.5.013.021.016-.021,5.479,8.5-4.148-1.185v70.931l4.362-1.246-5.478,8.5Z" transform="translate(-13125.532 -10626.252)" fill="#9f0925" stroke="rgba(0,0,0,0)" stroke-miterlimit="10" stroke-width="1"/>
      </g>
      <g id="Grupo_55779" data-name="Grupo 55779" transform="matrix(-0.5, 0.866, -0.866, -0.5, 2779.982, -1196.775)" opacity="0.65">
        <path id="Unión_5" data-name="Unión 5" d="M16104.378,11487.987l-.012.017-5.479-8.494,4.358,1.241v-71.05l-4.573,1.3,5.479-8.494.013.016.012-.016,5.482,8.494-4.148-1.182v70.93l4.362-1.242-5.478,8.494Z" transform="translate(-13125.64 -10699.913)" fill="#9f0925" stroke="rgba(0,0,0,0)" stroke-miterlimit="10" stroke-width="1"/>
      </g>
      <path id="Trazado_735297" data-name="Trazado 735297" d="M11.789-7.395H5.039v4.57h7.922V0H1.523V-17.062H12.938v2.848h-7.9v4.066h6.75Zm7.828-9.668L24-4.687l4.359-12.375h4.617V0H29.449V-4.664l.352-8.051L25.2,0H22.781L18.188-12.7l.352,8.039V0H15.023V-17.062ZM39.563-6.012V0H36.047V-17.062H42.7a7.7,7.7,0,0,1,3.381.7,5.181,5.181,0,0,1,2.244,2,5.571,5.571,0,0,1,.785,2.947A4.9,4.9,0,0,1,47.4-7.459a7.15,7.15,0,0,1-4.752,1.447Zm0-2.848H42.7a3.088,3.088,0,0,0,2.127-.656,2.387,2.387,0,0,0,.732-1.875,2.814,2.814,0,0,0-.738-2.027,2.758,2.758,0,0,0-2.039-.8H39.563ZM57.844-6.246h-2.8V0H51.527V-17.062h6.34a7.167,7.167,0,0,1,4.664,1.348,4.651,4.651,0,0,1,1.641,3.809,5.249,5.249,0,0,1-.756,2.912,5.155,5.155,0,0,1-2.291,1.857L64.816-.164V0H61.043Zm-2.8-2.848h2.836a2.9,2.9,0,0,0,2.051-.674,2.408,2.408,0,0,0,.727-1.857,2.578,2.578,0,0,0-.686-1.9,2.849,2.849,0,0,0-2.1-.691H55.043Zm22.066,1.7h-6.75v4.57h7.922V0H66.844V-17.062H78.258v2.848h-7.9v4.066h6.75ZM89.191-4.477a1.8,1.8,0,0,0-.7-1.529,9.222,9.222,0,0,0-2.531-1.125A17.944,17.944,0,0,1,83.063-8.3q-2.906-1.57-2.906-4.23a4.12,4.12,0,0,1,.779-2.467,5.083,5.083,0,0,1,2.238-1.693,8.425,8.425,0,0,1,3.275-.609,7.668,7.668,0,0,1,3.258.662,5.187,5.187,0,0,1,2.221,1.869,4.891,4.891,0,0,1,.791,2.742H89.2a2.3,2.3,0,0,0-.738-1.822,3.035,3.035,0,0,0-2.074-.65,3.242,3.242,0,0,0-2,.545,1.719,1.719,0,0,0-.715,1.436,1.646,1.646,0,0,0,.838,1.395,9.466,9.466,0,0,0,2.467,1.055,10.658,10.658,0,0,1,4.371,2.238A4.458,4.458,0,0,1,92.719-4.5a4.106,4.106,0,0,1-1.676,3.475A7.336,7.336,0,0,1,86.531.234a8.712,8.712,0,0,1-3.586-.721,5.674,5.674,0,0,1-2.467-1.975,5.057,5.057,0,0,1-.85-2.906h3.527q0,2.824,3.375,2.824a3.283,3.283,0,0,0,1.957-.51A1.658,1.658,0,0,0,89.191-4.477Zm15.539.961H98.566L97.395,0H93.656l6.352-17.062h3.258L109.652,0h-3.738ZM99.516-6.363h4.266l-2.145-6.387Z" transform="translate(745 840)" fill="#12263f"/>
      <path id="Trazado_100713" data-name="Trazado 100713" d="M-6916.988-10854h131.343" transform="translate(7652 11700)" fill="none" stroke="#0075a4" stroke-width="1"/>
    </g>
  </g>
</svg>
