<svg xmlns="http://www.w3.org/2000/svg" width="296.261" height="299.21" viewBox="0 0 296.261 299.21">
  <g id="Grupo_55775" data-name="Grupo 55775" transform="translate(-59.917 -712.426)">
    <g id="Grupo_55771-5" data-name="Grupo 55771-5" transform="translate(59.917 712.426)">
      <rect id="Rectángulo_5264-5" data-name="Rectángulo 5264-5" width="252.897" height="61.442" transform="translate(23.401 18.476)" fill="#dbfafa"/>
      <rect id="Rectángulo_5265-5" data-name="Rectángulo 5265-5" width="290.201" height="89.194" transform="translate(4.799 4.09)" fill="none" stroke="#52d0d3" stroke-miterlimit="10" stroke-width="1.522"/>
      <rect id="Rectángulo_5266-5" data-name="Rectángulo 5266-5" width="9.051" height="26.194" transform="translate(0 2.057)" fill="#25ced1"/>
      <rect id="Rectángulo_5267-5" data-name="Rectángulo 5267-5" width="26.194" height="9.051" transform="translate(0.001)" fill="#25ced1"/>
    </g>
  </g>
  <g id="Grupo_55775-2" data-name="Grupo 55775" transform="translate(-59.417 -507.26)">
    <g id="Grupo_55771-5-2" data-name="Grupo 55771-5" transform="translate(59.917 712.426)">
      <path id="Rectángulo_5264-5-2" data-name="Rectángulo 5264-5" d="M0,0H252.9V61.442H0Z" transform="translate(23.401 18.476)" fill="#fce5e9"/>
      <rect id="Rectángulo_5265-5-2" data-name="Rectángulo 5265-5" width="290.201" height="89.194" transform="translate(4.799 4.09)" fill="none" stroke="#9f0925" stroke-miterlimit="10" stroke-width="1.522"/>
      <rect id="Rectángulo_5266-5-2" data-name="Rectángulo 5266-5" width="9.051" height="26.194" transform="translate(0 2.057)" fill="#9f0925"/>
      <rect id="Rectángulo_5267-5-2" data-name="Rectángulo 5267-5" width="26.194" height="9.051" transform="translate(0.001)" fill="#9f0925"/>
    </g>
  </g>
  <g id="Grupo_55775-3" data-name="Grupo 55775" transform="translate(-59.417 -607.426)">
    <g id="Grupo_55771-5-3" data-name="Grupo 55771-5" transform="translate(59.917 712.426)">
      <rect id="Rectángulo_5264-5-3" data-name="Rectángulo 5264-5" width="252.897" height="61.442" transform="translate(23.401 18.476)" fill="#ffe8de"/>
      <rect id="Rectángulo_5265-5-3" data-name="Rectángulo 5265-5" width="290.201" height="89.194" transform="translate(4.799 4.09)" fill="none" stroke="#ff8a5b" stroke-miterlimit="10" stroke-width="1.522"/>
      <rect id="Rectángulo_5266-5-3" data-name="Rectángulo 5266-5" width="9.051" height="26.194" transform="translate(0 2.057)" fill="#ff8a5b"/>
      <rect id="Rectángulo_5267-5-3" data-name="Rectángulo 5267-5" width="26.194" height="9.051" transform="translate(0.001)" fill="#ff8a5b"/>
    </g>
  </g>
  <g id="Descripción_Detallada_del_Escenario" data-name="Descripción Detallada del Escenario" transform="translate(-3792.523 -1157.033)" style="isolation: isolate">
    <text id="Manuales" transform="translate(3940.523 1211.675)" fill="#12263f" font-size="17" font-family="Roboto-Bold, Roboto" font-weight="700" style="isolation: isolate"><tspan x="-37.295" y="0">Manuales</tspan></text>
  </g>
  <g id="Descripción_Detallada_del_Escenario-2" data-name="Descripción Detallada del Escenario" transform="translate(-3713.024 -1052.033)" style="isolation: isolate">
    <path id="Trazado_735332" data-name="Trazado 735332" d="M-61.471-3.171a1.278,1.278,0,0,0-.5-1.083,6.533,6.533,0,0,0-1.793-.8,12.71,12.71,0,0,1-2.05-.826,3.35,3.35,0,0,1-2.059-3,2.919,2.919,0,0,1,.552-1.747,3.6,3.6,0,0,1,1.585-1.2,5.967,5.967,0,0,1,2.32-.432,5.432,5.432,0,0,1,2.308.469,3.674,3.674,0,0,1,1.573,1.324,3.464,3.464,0,0,1,.56,1.942h-2.49a1.63,1.63,0,0,0-.523-1.291,2.15,2.15,0,0,0-1.469-.461,2.3,2.3,0,0,0-1.419.386,1.217,1.217,0,0,0-.506,1.017,1.166,1.166,0,0,0,.594.988,6.705,6.705,0,0,0,1.747.747,7.55,7.55,0,0,1,3.1,1.585,3.157,3.157,0,0,1,.971,2.357A2.909,2.909,0,0,1-60.16-.726a5.2,5.2,0,0,1-3.2.892,6.171,6.171,0,0,1-2.54-.51,4.019,4.019,0,0,1-1.747-1.4,3.582,3.582,0,0,1-.6-2.059h2.5q0,2,2.391,2a2.326,2.326,0,0,0,1.386-.361A1.175,1.175,0,0,0-61.471-3.171Zm8.16,3.337a4.409,4.409,0,0,1-3.217-1.212,4.308,4.308,0,0,1-1.241-3.229v-.232a5.426,5.426,0,0,1,.523-2.42,3.838,3.838,0,0,1,1.482-1.644,4.159,4.159,0,0,1,2.187-.577,3.727,3.727,0,0,1,2.9,1.162,4.722,4.722,0,0,1,1.058,3.3v.979h-5.719a2.229,2.229,0,0,0,.7,1.411,2.12,2.12,0,0,0,1.482.531,2.589,2.589,0,0,0,2.167-1l1.179,1.32A3.6,3.6,0,0,1-51.27-.261,4.793,4.793,0,0,1-53.312.166Zm-.274-7.371a1.5,1.5,0,0,0-1.158.481,2.487,2.487,0,0,0-.569,1.378h3.337v-.191a1.773,1.773,0,0,0-.432-1.233A1.55,1.55,0,0,0-53.586-7.205Zm7.579-1.776.075,1a3.156,3.156,0,0,1,2.582-1.17,2.4,2.4,0,0,1,2.382,1.37,3.084,3.084,0,0,1,2.7-1.37A2.679,2.679,0,0,1-36.1-8.3a3.911,3.911,0,0,1,.714,2.561V0h-2.407V-5.728a1.71,1.71,0,0,0-.3-1.116A1.324,1.324,0,0,0-39.142-7.2a1.5,1.5,0,0,0-1.494,1.029L-40.628,0h-2.4V-5.719a1.689,1.689,0,0,0-.307-1.129A1.337,1.337,0,0,0-44.38-7.2a1.555,1.555,0,0,0-1.478.847V0h-2.4V-8.981Zm15,8.981h-2.407V-8.981h2.407Zm-2.548-11.306a1.181,1.181,0,0,1,.361-.888,1.356,1.356,0,0,1,.984-.349,1.36,1.36,0,0,1,.979.349,1.175,1.175,0,0,1,.365.888,1.178,1.178,0,0,1-.369.9,1.363,1.363,0,0,1-.975.349,1.363,1.363,0,0,1-.975-.349A1.178,1.178,0,0,1-33.556-11.306ZM-23.827,0a2.664,2.664,0,0,1-.241-.805,2.9,2.9,0,0,1-2.266.971A3.189,3.189,0,0,1-28.521-.6a2.456,2.456,0,0,1-.867-1.926,2.538,2.538,0,0,1,1.058-2.191,5.222,5.222,0,0,1,3.059-.772h1.1V-6a1.48,1.48,0,0,0-.32-1A1.257,1.257,0,0,0-25.5-7.371a1.429,1.429,0,0,0-.95.291.987.987,0,0,0-.344.8h-2.4a2.41,2.41,0,0,1,.481-1.444A3.182,3.182,0,0,1-27.347-8.77a4.961,4.961,0,0,1,1.976-.378,3.92,3.92,0,0,1,2.635.834,2.918,2.918,0,0,1,.975,2.345v3.893A4.294,4.294,0,0,0-21.4-.141V0Zm-1.984-1.668a2.066,2.066,0,0,0,.979-.237,1.554,1.554,0,0,0,.664-.635V-4.084h-.9q-1.8,0-1.917,1.245l-.008.141a.96.96,0,0,0,.315.739A1.225,1.225,0,0,0-25.811-1.668Zm11.272.755A3.008,3.008,0,0,1-17,.166a2.837,2.837,0,0,1-2.2-.83A3.543,3.543,0,0,1-19.976-3.1V-8.981h2.4v5.8q0,1.4,1.278,1.4a1.733,1.733,0,0,0,1.677-.847V-8.981h2.407V0h-2.258Zm7.006-10.276v2.208H-6v1.76H-7.533v4.482a1.07,1.07,0,0,0,.191.714.959.959,0,0,0,.73.216,3.826,3.826,0,0,0,.706-.058V-.05A4.939,4.939,0,0,1-7.359.166,2.29,2.29,0,0,1-9.932-2.382V-7.222h-1.312v-1.76h1.312v-2.208Zm2.25,6.616a5.327,5.327,0,0,1,.515-2.382A3.768,3.768,0,0,1-3.287-8.575a4.323,4.323,0,0,1,2.245-.573A4.09,4.09,0,0,1,1.926-8.035,4.464,4.464,0,0,1,3.208-5.014l.017.614A4.694,4.694,0,0,1,2.071-1.083,4.011,4.011,0,0,1-1.025.166a4.031,4.031,0,0,1-3.1-1.245A4.777,4.777,0,0,1-5.283-4.466Zm2.4.174A3.348,3.348,0,0,0-2.4-2.445a1.589,1.589,0,0,0,1.378.677A1.593,1.593,0,0,0,.336-2.436a3.664,3.664,0,0,0,.49-2.137,3.315,3.315,0,0,0-.49-1.942,1.593,1.593,0,0,0-1.378-.689A1.567,1.567,0,0,0-2.4-6.52,3.725,3.725,0,0,0-2.885-4.4ZM6.952-8.981l.075,1a3.156,3.156,0,0,1,2.582-1.17,2.4,2.4,0,0,1,2.382,1.37,3.084,3.084,0,0,1,2.7-1.37,2.679,2.679,0,0,1,2.175.851,3.911,3.911,0,0,1,.714,2.561V0H15.17V-5.728a1.71,1.71,0,0,0-.3-1.116A1.324,1.324,0,0,0,13.817-7.2a1.5,1.5,0,0,0-1.494,1.029L12.331,0h-2.4V-5.719a1.689,1.689,0,0,0-.307-1.129A1.337,1.337,0,0,0,8.579-7.2,1.555,1.555,0,0,0,7.1-6.35V0H4.7V-8.981ZM24.624,0a2.664,2.664,0,0,1-.241-.805,2.9,2.9,0,0,1-2.266.971A3.189,3.189,0,0,1,19.93-.6a2.456,2.456,0,0,1-.867-1.926,2.538,2.538,0,0,1,1.058-2.191,5.222,5.222,0,0,1,3.059-.772h1.1V-6a1.48,1.48,0,0,0-.32-1,1.257,1.257,0,0,0-1.009-.374,1.429,1.429,0,0,0-.95.291.987.987,0,0,0-.344.8h-2.4a2.41,2.41,0,0,1,.481-1.444A3.182,3.182,0,0,1,21.1-8.77a4.961,4.961,0,0,1,1.976-.378,3.92,3.92,0,0,1,2.635.834,2.918,2.918,0,0,1,.975,2.345v3.893a4.294,4.294,0,0,0,.357,1.934V0ZM22.64-1.668a2.066,2.066,0,0,0,.979-.237,1.554,1.554,0,0,0,.664-.635V-4.084h-.9q-1.8,0-1.917,1.245l-.008.141a.96.96,0,0,0,.315.739A1.225,1.225,0,0,0,22.64-1.668Zm.913-11.082h2.615l-2.3,2.573H21.918Zm7.853,1.561v2.208h1.536v1.76H31.406v4.482a1.07,1.07,0,0,0,.191.714.959.959,0,0,0,.73.216,3.826,3.826,0,0,0,.706-.058V-.05A4.939,4.939,0,0,1,31.58.166a2.29,2.29,0,0,1-2.573-2.548V-7.222H27.7v-1.76h1.312v-2.208ZM36.81,0H34.4V-8.981H36.81ZM34.261-11.306a1.181,1.181,0,0,1,.361-.888,1.356,1.356,0,0,1,.984-.349,1.36,1.36,0,0,1,.979.349,1.175,1.175,0,0,1,.365.888,1.178,1.178,0,0,1-.369.9,1.363,1.363,0,0,1-.975.349,1.363,1.363,0,0,1-.975-.349A1.178,1.178,0,0,1,34.261-11.306Zm8.259,9.538A1.573,1.573,0,0,0,43.6-2.133a1.28,1.28,0,0,0,.432-.971h2.25a3.077,3.077,0,0,1-.5,1.673A3.286,3.286,0,0,1,44.442-.253a4.2,4.2,0,0,1-1.88.419,3.9,3.9,0,0,1-3.038-1.224,4.845,4.845,0,0,1-1.112-3.383V-4.6a4.79,4.79,0,0,1,1.1-3.312,3.854,3.854,0,0,1,3.03-1.237,3.778,3.778,0,0,1,2.7.959,3.4,3.4,0,0,1,1.033,2.552h-2.25A1.635,1.635,0,0,0,43.6-6.769a1.443,1.443,0,0,0-1.1-.436,1.446,1.446,0,0,0-1.266.61,3.532,3.532,0,0,0-.427,1.98v.249a3.576,3.576,0,0,0,.423,1.992A1.464,1.464,0,0,0,42.521-1.768ZM52.855,0a2.664,2.664,0,0,1-.241-.805,2.9,2.9,0,0,1-2.266.971A3.189,3.189,0,0,1,48.161-.6a2.456,2.456,0,0,1-.867-1.926,2.538,2.538,0,0,1,1.058-2.191,5.222,5.222,0,0,1,3.059-.772h1.1V-6a1.48,1.48,0,0,0-.32-1,1.257,1.257,0,0,0-1.009-.374,1.429,1.429,0,0,0-.95.291.987.987,0,0,0-.344.8h-2.4a2.41,2.41,0,0,1,.481-1.444A3.182,3.182,0,0,1,49.336-8.77a4.961,4.961,0,0,1,1.976-.378,3.92,3.92,0,0,1,2.635.834,2.918,2.918,0,0,1,.975,2.345v3.893a4.294,4.294,0,0,0,.357,1.934V0ZM50.871-1.668a2.066,2.066,0,0,0,.979-.237,1.554,1.554,0,0,0,.664-.635V-4.084h-.9q-1.8,0-1.917,1.245l-.008.141a.96.96,0,0,0,.315.739A1.225,1.225,0,0,0,50.871-1.668Zm10.758-.813a.773.773,0,0,0-.436-.693,4.95,4.95,0,0,0-1.4-.452q-3.2-.672-3.2-2.723a2.468,2.468,0,0,1,.992-2,4,4,0,0,1,2.594-.8,4.307,4.307,0,0,1,2.735.805A2.538,2.538,0,0,1,63.937-6.25h-2.4a1.161,1.161,0,0,0-.332-.851,1.405,1.405,0,0,0-1.038-.336,1.436,1.436,0,0,0-.938.274.865.865,0,0,0-.332.7.739.739,0,0,0,.378.643A3.885,3.885,0,0,0,60.55-5.4a10.407,10.407,0,0,1,1.511.4,2.482,2.482,0,0,1,1.9,2.416A2.343,2.343,0,0,1,62.907-.594a4.548,4.548,0,0,1-2.723.76,4.75,4.75,0,0,1-2-.4,3.363,3.363,0,0,1-1.374-1.1,2.565,2.565,0,0,1-.5-1.515h2.274a1.252,1.252,0,0,0,.473.979,1.877,1.877,0,0,0,1.179.34A1.737,1.737,0,0,0,61.276-1.8.814.814,0,0,0,61.629-2.482Z" transform="translate(3861.524 1211.675)" fill="#12263f"/>
  </g>
  <g id="Descripción_Detallada_del_Escenario-3" data-name="Descripción Detallada del Escenario" transform="translate(-3713.024 -951.867)" style="isolation: isolate">
    <text id="Completamente_automáticas" data-name="Completamente automáticas" transform="translate(3861.524 1211.675)" fill="#12263f" font-size="17" font-family="Roboto-Bold, Roboto" font-weight="700" style="isolation: isolate"><tspan x="-110.355" y="0">Completamente automáticas</tspan></text>
  </g>
</svg>
