<svg xmlns="http://www.w3.org/2000/svg" xmlns:xlink="http://www.w3.org/1999/xlink" width="820.516" height="145.248" viewBox="0 0 820.516 145.248">
  <defs>
    <linearGradient id="linear-gradient" y1="0.5" x2="1" y2="0.5" gradientUnits="objectBoundingBox">
      <stop offset="0" stop-color="#fff"/>
      <stop offset="1" stop-color="#f2f2f2"/>
    </linearGradient>
  </defs>
  <g id="Grupo_1009971" data-name="Grupo 1009971" transform="translate(-389.484 -1985.217)">
    <g id="Grupo_1009963" data-name="Grupo 1009963" transform="translate(0 659.807)">
      <g id="Grupo_1009657" data-name="Grupo 1009657" transform="translate(0 57)">
        <g id="Grupo_1009653" data-name="Grupo 1009653" transform="translate(1518.762 811.824)">
          <path id="Trazado_105668" data-name="Trazado 105668" d="M-597.346,521.688l-72.15-60.159a9.89,9.89,0,0,0-16.224,7.6v19.967a46.293,46.293,0,0,0-9.646-1.02H-781.2L-793.23,570.5h97.935a46.12,46.12,0,0,0,9.575-1.021v19.968a9.89,9.89,0,0,0,16.224,7.6l72.15-60.159A9.891,9.891,0,0,0-597.346,521.688Z" transform="translate(-1.142 -0.007)" fill="url(#linear-gradient)"/>
          <path id="Trazado_105669" data-name="Trazado 105669" d="M-596.087,520.15l-72.149-60.159a11.777,11.777,0,0,0-12.65-1.635,11.776,11.776,0,0,0-6.844,10.762v17.456h-93.754a1.994,1.994,0,0,0-1.993,1.993,1.993,1.993,0,0,0,1.993,1.993h95.747a1.993,1.993,0,0,0,1.993-1.993v-19.45a7.726,7.726,0,0,1,4.548-7.152,7.728,7.728,0,0,1,8.4,1.086l72.151,60.159a7.877,7.877,0,0,1,2.838,6.064,7.875,7.875,0,0,1-2.839,6.065l-72.15,60.159a7.725,7.725,0,0,1-8.4,1.086,7.727,7.727,0,0,1-4.548-7.152V571.17c0-.054-.011-.1-.016-.155s.016-.1.016-.156a1.993,1.993,0,0,0-1.993-1.993l-112.3.534c-1.1,0,2.046.358,2.046,1.459s-3.218,1.48-2.117,1.48l110.377.513v16.583a11.776,11.776,0,0,0,6.844,10.762,11.942,11.942,0,0,0,5.069,1.14,11.806,11.806,0,0,0,7.581-2.776l72.148-60.159a11.845,11.845,0,0,0,4.273-9.127A11.847,11.847,0,0,0-596.087,520.15Z" transform="translate(-1.125 0)" fill="#ff8a5b"/>
          <path id="Trazado_105670" data-name="Trazado 105670" d="M-312.178,521.688l-72.149-60.159a9.89,9.89,0,0,0-16.224,7.6v19.967a46.285,46.285,0,0,0-9.646-1.02h-79.851L-502.081,570.5h91.955a46.113,46.113,0,0,0,9.575-1.021v19.968a9.89,9.89,0,0,0,16.224,7.6l72.149-60.159A9.891,9.891,0,0,0-312.178,521.688Z" transform="translate(-2.134 -0.007)" fill="url(#linear-gradient)"/>
          <path id="Trazado_105671" data-name="Trazado 105671" d="M-310.939,520.15l-72.15-60.159a11.775,11.775,0,0,0-12.649-1.635,11.775,11.775,0,0,0-6.845,10.762v17.456h-90.764a1.994,1.994,0,0,0-1.993,1.993,1.993,1.993,0,0,0,1.993,1.993h92.757a1.993,1.993,0,0,0,1.993-1.993v-19.45a7.726,7.726,0,0,1,4.548-7.152,7.728,7.728,0,0,1,8.4,1.086l72.151,60.159a7.878,7.878,0,0,1,2.839,6.064,7.876,7.876,0,0,1-2.84,6.065l-72.15,60.159a7.725,7.725,0,0,1-8.4,1.086,7.727,7.727,0,0,1-4.548-7.152V571.17c0-.054-.011-.1-.015-.155s.015-.1.015-.156a1.993,1.993,0,0,0-1.993-1.993l-112.3.534c-1.1,0,2.046.358,2.046,1.459s-3.217,1.48-2.117,1.48l110.377.513v16.583a11.775,11.775,0,0,0,6.845,10.762,11.934,11.934,0,0,0,5.068,1.14,11.806,11.806,0,0,0,7.581-2.776L-310.94,538.4a11.846,11.846,0,0,0,4.274-9.127A11.848,11.848,0,0,0-310.939,520.15Z" transform="translate(-2.096 0)" fill="#25ced1"/>
          <path id="Trazado_103017" data-name="Trazado 103017" d="M-1107.8,505.76h-.259l-15.975,7.474-3.22-14.433,22.162-10.127h16.233v82.291H-1107.8Z" transform="translate(-0.005 -0.107)" fill="#ea526f" opacity="0.2" style="isolation: isolate"/>
          <path id="Trazado_105672" data-name="Trazado 105672" d="M-891.272,521.688l-72.149-60.159a9.89,9.89,0,0,0-16.224,7.6v19.967a46.287,46.287,0,0,0-9.646-1.02h-85.831l-12.034,82.425h97.935a46.114,46.114,0,0,0,9.575-1.021v19.968a9.89,9.89,0,0,0,16.224,7.6l72.149-60.159A9.891,9.891,0,0,0-891.272,521.688Z" transform="translate(-0.142 -0.007)" fill="url(#linear-gradient)"/>
          <g id="Grupo_54975" data-name="Grupo 54975" transform="translate(-560.149 484.63)">
            <path id="Trazado_103013" data-name="Trazado 103013" d="M-552.819,550.8c3.407,1.766,11.229,5.047,19.051,5.047,9.966,0,15.014-4.795,15.014-10.977,0-8.072-8.073-11.733-16.528-11.733H-543.1V519.382h7.445c6.434-.127,14.635-2.524,14.635-9.468,0-4.921-4.037-8.58-12.112-8.58-6.687,0-13.753,2.9-17.158,4.921l-3.91-13.878c4.919-3.153,14.761-6.179,25.358-6.179,17.535,0,27.25,9.21,27.25,20.438,0,8.705-4.92,15.518-15.012,19.05v.253c9.84,1.765,17.789,9.21,17.789,19.932,0,14.508-12.742,25.106-33.559,25.106-10.6,0-19.554-2.776-24.349-5.8Z" transform="translate(558.201 -484.729)" fill="#25ced1" opacity="0.2" style="isolation: isolate"/>
            <path id="Trazado_103015" data-name="Trazado 103015" d="M-532.385,572.451c-11.49,0-20.518-3.115-25.135-6.031a1.473,1.473,0,0,1-.634-1.63l3.91-14.383a1.47,1.47,0,0,1,1.8-1.034,1.441,1.441,0,0,1,.3.117c1.573.815,9.845,4.883,18.373,4.883,8.352,0,13.543-3.643,13.543-9.5,0-7.574-8.111-10.265-15.057-10.265H-543.1a1.472,1.472,0,0,1-1.472-1.472h0V519.377a1.47,1.47,0,0,1,1.47-1.472h7.447c1.32-.026,13.163-.474,13.163-7.991,0-4.45-3.978-7.108-10.641-7.108-6.685,0-13.653,3.089-16.408,4.715a1.471,1.471,0,0,1-2.015-.515,1.47,1.47,0,0,1-.15-.353l-3.91-13.878a1.472,1.472,0,0,1,.622-1.637c4.983-3.189,15-6.414,26.153-6.414,19.84,0,28.723,11,28.723,21.91,0,8.344-4.32,14.931-12.258,18.876,9.145,3.127,15.043,10.913,15.043,20.36a24.852,24.852,0,0,1-.552,5.25,1.473,1.473,0,0,1-1.792,1.06,1.474,1.474,0,0,1-1.083-1.684,21.927,21.927,0,0,0,.485-4.626c0-10.714-8.326-17-16.577-18.484a1.473,1.473,0,0,1-1.211-1.448v-.253a1.472,1.472,0,0,1,.989-1.388c9.178-3.21,14.027-9.319,14.027-17.661,0-11.345-10.36-18.966-25.778-18.966-9.824,0-18.854,2.7-23.637,5.393l3.106,11.023c3.708-1.873,10-4.22,16.244-4.22,10.015,0,13.583,5.191,13.583,10.05,0,7.838-8.66,10.788-16.077,10.936h-6V531.66h6.35c8.959,0,18,4.085,18,13.2,0,7.562-6.471,12.448-16.485,12.448-7.5,0-14.755-2.88-18.1-4.419L-555,564.479c4.371,2.43,12.525,5.026,22.632,5.026a1.473,1.473,0,0,1,1.433,1.51,1.472,1.472,0,0,1-1.433,1.433Z" transform="translate(558.206 -484.724)" fill="#25ced1"/>
            <path id="Trazado_103016" data-name="Trazado 103016" d="M-508.168,572.74h-24.1a1.47,1.47,0,0,1-1.509-1.433,1.472,1.472,0,0,1,1.433-1.51h24.171" transform="translate(558.123 -485.014)" fill="#25ced1"/>
          </g>
          <g id="Grupo_53884" data-name="Grupo 53884" transform="translate(-853.392 486.141)">
            <g id="Grupo_54978" data-name="Grupo 54978">
              <path id="Trazado_103021" data-name="Trazado 103021" d="M-850.968,570.96v-11.59l10.656-9.567c18.009-16,26.765-25.191,27.021-34.763,0-6.677-4.06-11.966-13.574-11.966-7.1,0-13.319,3.527-17.633,6.8l-5.454-13.727c6.216-4.66,15.856-8.439,27.02-8.439,18.646,0,28.922,10.833,28.922,25.7,0,13.729-10.021,24.687-21.945,35.269l-7.611,6.3v.25h31.079v15.747Z" transform="translate(852.446 -486.245)" fill="#ff8a5b" opacity="0.2" style="isolation: isolate"/>
              <path id="Trazado_103023" data-name="Trazado 103023" d="M-792.492,572.427h-58.48a1.474,1.474,0,0,1-1.479-1.469V559.368a1.467,1.467,0,0,1,.485-1.09l10.656-9.567c18.16-16.128,26.3-24.82,26.534-33.713,0-6.731-4.3-10.459-12.095-10.459-5.423,0-11.054,2.187-16.734,6.5a1.482,1.482,0,0,1-1.3.25,1.468,1.468,0,0,1-.979-.876l-5.455-13.73a1.463,1.463,0,0,1,.485-1.711c7.4-5.551,17.577-8.735,27.911-8.735,18.468,0,30.4,10.664,30.4,27.163,0,14.461-10.785,26.023-22.439,36.363l-4.817,3.986h27.3a1.47,1.47,0,0,1,1.473,1.465,1.47,1.47,0,0,1-1.465,1.473h-31.087a1.473,1.473,0,0,1-1.48-1.468h0v-.25a1.463,1.463,0,0,1,.533-1.129l7.61-6.3c12.84-11.391,21.414-21.574,21.414-34.138,0-14.943-10.517-24.226-27.443-24.226-9.287,0-18.408,2.718-25.223,7.487l4.33,10.9c5.688-3.956,11.385-5.962,16.96-5.962,9.422,0,15.049,5.023,15.049,13.436-.266,10.016-8.7,19.153-27.515,35.857l-10.165,9.129V569.5H-792.5a1.47,1.47,0,0,1,1.435,1.5,1.469,1.469,0,0,1-1.427,1.435h-.008Z" transform="translate(852.451 -486.24)" fill="#ff8a5b"/>
              <path id="Trazado_103024" data-name="Trazado 103024" d="M-800.635,572.711a1.468,1.468,0,0,1-1.479-1.458,1.471,1.471,0,0,1,1.459-1.48h.013" transform="translate(852.28 -486.524)" fill="#ff8a5b"/>
            </g>
          </g>
        </g>
        <g id="Guía_de_Implementación_del_escenario" data-name="Guía de Implementación del escenario" transform="translate(-3529.836 135.07)" style="isolation: isolate">
          <path id="Trazado_735282" data-name="Trazado 735282" d="M9.945-3.789A4.025,4.025,0,0,1,8.59-.9,4.76,4.76,0,0,1,5.367.156,4.28,4.28,0,0,1,1.926-1.316,6.038,6.038,0,0,1,.672-5.359v-.7A6.819,6.819,0,0,1,1.25-8.945,4.332,4.332,0,0,1,2.9-10.863a4.629,4.629,0,0,1,2.5-.668A4.637,4.637,0,0,1,8.57-10.477,4.326,4.326,0,0,1,9.961-7.516H7.617A2.376,2.376,0,0,0,7-9.113a2.271,2.271,0,0,0-1.605-.5,1.991,1.991,0,0,0-1.754.84,4.707,4.707,0,0,0-.6,2.605V-5.3a5.038,5.038,0,0,0,.559,2.7,1.954,1.954,0,0,0,1.762.852,2.314,2.314,0,0,0,1.621-.5A2.241,2.241,0,0,0,7.6-3.789Zm6.141-2.547a6.134,6.134,0,0,0-.812-.062,1.654,1.654,0,0,0-1.68.867V0H11.336V-8.453h2.133l.063,1.008a2.092,2.092,0,0,1,1.883-1.164,2.366,2.366,0,0,1,.7.1ZM21.063.156A4.15,4.15,0,0,1,18.035-.984a4.054,4.054,0,0,1-1.168-3.039v-.219a5.106,5.106,0,0,1,.492-2.277,3.612,3.612,0,0,1,1.395-1.547,3.914,3.914,0,0,1,2.059-.543,3.508,3.508,0,0,1,2.73,1.094,4.444,4.444,0,0,1,1,3.1v.922H19.156a2.1,2.1,0,0,0,.66,1.328,2,2,0,0,0,1.395.5,2.437,2.437,0,0,0,2.039-.945l1.109,1.242A3.389,3.389,0,0,1,22.984-.246,4.511,4.511,0,0,1,21.063.156ZM20.8-6.781a1.414,1.414,0,0,0-1.09.453,2.341,2.341,0,0,0-.535,1.3H22.32v-.18a1.669,1.669,0,0,0-.406-1.16A1.459,1.459,0,0,0,20.8-6.781ZM30.719,0a2.507,2.507,0,0,1-.227-.758,2.732,2.732,0,0,1-2.133.914A3,3,0,0,1,26.3-.562a2.312,2.312,0,0,1-.816-1.812,2.389,2.389,0,0,1,1-2.062,4.915,4.915,0,0,1,2.879-.727H30.4v-.484a1.393,1.393,0,0,0-.3-.937,1.183,1.183,0,0,0-.949-.352,1.345,1.345,0,0,0-.895.273.929.929,0,0,0-.324.75H25.672a2.268,2.268,0,0,1,.453-1.359,3,3,0,0,1,1.281-.98,4.669,4.669,0,0,1,1.859-.355,3.689,3.689,0,0,1,2.48.785,2.747,2.747,0,0,1,.918,2.207v3.664A4.041,4.041,0,0,0,33-.133V0ZM28.852-1.57a1.945,1.945,0,0,0,.922-.223,1.462,1.462,0,0,0,.625-.6V-3.844h-.844q-1.7,0-1.8,1.172l-.008.133a.9.9,0,0,0,.3.7A1.153,1.153,0,0,0,28.852-1.57Zm9.063-.094a1.481,1.481,0,0,0,1.016-.344,1.2,1.2,0,0,0,.406-.914h2.117a2.9,2.9,0,0,1-.469,1.574A3.093,3.093,0,0,1,39.723-.238a3.949,3.949,0,0,1-1.77.395A3.67,3.67,0,0,1,35.094-1,4.56,4.56,0,0,1,34.047-4.18v-.148a4.508,4.508,0,0,1,1.039-3.117,3.627,3.627,0,0,1,2.852-1.164,3.555,3.555,0,0,1,2.543.9,3.2,3.2,0,0,1,.973,2.4H39.336a1.539,1.539,0,0,0-.406-1.066,1.358,1.358,0,0,0-1.031-.41,1.361,1.361,0,0,0-1.191.574,3.324,3.324,0,0,0-.4,1.863v.234a3.366,3.366,0,0,0,.4,1.875A1.378,1.378,0,0,0,37.914-1.664ZM45.125,0H42.859V-8.453h2.266Zm-2.4-10.641a1.112,1.112,0,0,1,.34-.836,1.277,1.277,0,0,1,.926-.328,1.28,1.28,0,0,1,.922.328,1.105,1.105,0,0,1,.344.836,1.108,1.108,0,0,1-.348.844,1.283,1.283,0,0,1-.918.328,1.283,1.283,0,0,1-.918-.328A1.108,1.108,0,0,1,42.727-10.641ZM46.633-4.3a5.013,5.013,0,0,1,.484-2.242A3.546,3.546,0,0,1,48.512-8.07a4.069,4.069,0,0,1,2.113-.539,3.849,3.849,0,0,1,2.793,1.047,4.2,4.2,0,0,1,1.207,2.844l.016.578A4.418,4.418,0,0,1,53.555-1.02,3.775,3.775,0,0,1,50.641.156a3.793,3.793,0,0,1-2.918-1.172A4.5,4.5,0,0,1,46.633-4.2Zm2.258.164a3.151,3.151,0,0,0,.453,1.84,1.5,1.5,0,0,0,1.3.637,1.5,1.5,0,0,0,1.281-.629A3.448,3.448,0,0,0,52.383-4.3a3.12,3.12,0,0,0-.461-1.828,1.5,1.5,0,0,0-1.3-.648,1.475,1.475,0,0,0-1.281.645A3.506,3.506,0,0,0,48.891-4.141ZM51.07-12h2.461L51.367-9.578H49.531Zm7.039,3.547.07.977a2.951,2.951,0,0,1,2.43-1.133,2.453,2.453,0,0,1,2,.789,3.682,3.682,0,0,1,.672,2.359V0H61.023V-5.406a1.465,1.465,0,0,0-.312-1.043,1.4,1.4,0,0,0-1.039-.324,1.553,1.553,0,0,0-1.43.813V0H55.984V-8.453ZM68.625-4.289a5.094,5.094,0,0,1,.887-3.148,2.877,2.877,0,0,1,2.426-1.172,2.589,2.589,0,0,1,2.039.922V-12h2.266V0H74.2l-.109-.9A2.657,2.657,0,0,1,71.922.156,2.869,2.869,0,0,1,69.527-1.02,5.258,5.258,0,0,1,68.625-4.289Zm2.258.164A3.328,3.328,0,0,0,71.3-2.3a1.349,1.349,0,0,0,1.2.633,1.511,1.511,0,0,0,1.477-.883V-5.891a1.489,1.489,0,0,0-1.461-.883Q70.883-6.773,70.883-4.125Zm11,4.281A4.15,4.15,0,0,1,78.855-.984a4.054,4.054,0,0,1-1.168-3.039v-.219A5.106,5.106,0,0,1,78.18-6.52a3.612,3.612,0,0,1,1.395-1.547,3.914,3.914,0,0,1,2.059-.543,3.508,3.508,0,0,1,2.73,1.094,4.444,4.444,0,0,1,1,3.1v.922H79.977a2.1,2.1,0,0,0,.66,1.328,2,2,0,0,0,1.395.5,2.437,2.437,0,0,0,2.039-.945L85.18-1.367A3.389,3.389,0,0,1,83.8-.246,4.511,4.511,0,0,1,81.883.156Zm-.258-6.937a1.414,1.414,0,0,0-1.09.453A2.341,2.341,0,0,0,80-5.031h3.141v-.18a1.669,1.669,0,0,0-.406-1.16A1.459,1.459,0,0,0,81.625-6.781ZM93.789-2.758l1.57-5.7h2.359L94.867,0H92.711L89.859-8.453h2.359ZM103.492,0a2.507,2.507,0,0,1-.227-.758,2.732,2.732,0,0,1-2.133.914,3,3,0,0,1-2.059-.719,2.312,2.312,0,0,1-.816-1.812,2.389,2.389,0,0,1,1-2.062,4.915,4.915,0,0,1,2.879-.727h1.039v-.484a1.393,1.393,0,0,0-.3-.937,1.183,1.183,0,0,0-.949-.352,1.345,1.345,0,0,0-.895.273.929.929,0,0,0-.324.75H98.445A2.268,2.268,0,0,1,98.9-7.273a3,3,0,0,1,1.281-.98,4.669,4.669,0,0,1,1.859-.355,3.689,3.689,0,0,1,2.48.785,2.747,2.747,0,0,1,.918,2.207v3.664a4.041,4.041,0,0,0,.336,1.82V0Zm-1.867-1.57a1.945,1.945,0,0,0,.922-.223,1.462,1.462,0,0,0,.625-.6V-3.844h-.844q-1.7,0-1.8,1.172l-.008.133a.9.9,0,0,0,.3.7A1.153,1.153,0,0,0,101.625-1.57ZM109.555,0h-2.266V-12h2.266Zm1.508-4.3a5.013,5.013,0,0,1,.484-2.242,3.546,3.546,0,0,1,1.395-1.523,4.069,4.069,0,0,1,2.113-.539,3.849,3.849,0,0,1,2.793,1.047,4.2,4.2,0,0,1,1.207,2.844l.016.578a4.418,4.418,0,0,1-1.086,3.121A3.775,3.775,0,0,1,115.07.156a3.793,3.793,0,0,1-2.918-1.172,4.5,4.5,0,0,1-1.09-3.187Zm2.258.164a3.151,3.151,0,0,0,.453,1.84,1.5,1.5,0,0,0,1.3.637,1.5,1.5,0,0,0,1.281-.629,3.448,3.448,0,0,0,.461-2.012,3.12,3.12,0,0,0-.461-1.828,1.5,1.5,0,0,0-1.3-.648,1.475,1.475,0,0,0-1.281.645A3.506,3.506,0,0,0,113.32-4.141Zm11.891-2.2A6.134,6.134,0,0,0,124.4-6.4a1.654,1.654,0,0,0-1.68.867V0h-2.258V-8.453h2.133l.063,1.008a2.092,2.092,0,0,1,1.883-1.164,2.366,2.366,0,0,1,.7.1ZM.969,15.775a11.99,11.99,0,0,1,.477-3.406A8.989,8.989,0,0,1,2.852,9.505a5.251,5.251,0,0,1,2.016-1.73L5.3,8.994A5.438,5.438,0,0,0,3.523,11.6a12.082,12.082,0,0,0-.641,4.125v.242a12.313,12.313,0,0,0,.633,4.141A5.544,5.544,0,0,0,5.3,22.759l-.437,1.2a5.253,5.253,0,0,1-1.98-1.684,8.838,8.838,0,0,1-1.4-2.785,11.918,11.918,0,0,1-.516-3.3Zm12.086,2.281H8.945L8.164,20.4H5.672L9.906,9.025h2.172L16.336,20.4H13.844Zm-3.477-1.9h2.844L10.992,11.9Zm7.344-.047a4.954,4.954,0,0,1,.926-3.133,3,3,0,0,1,2.5-1.187,2.631,2.631,0,0,1,2.164.953l.094-.8h2.047v8.172a3.613,3.613,0,0,1-.5,1.93,3.236,3.236,0,0,1-1.418,1.25,4.985,4.985,0,0,1-2.141.43,4.635,4.635,0,0,1-1.812-.371,3.217,3.217,0,0,1-1.336-.957l1-1.375a2.645,2.645,0,0,0,2.047.945,1.936,1.936,0,0,0,1.4-.48,1.8,1.8,0,0,0,.5-1.363v-.453a2.612,2.612,0,0,1-2.055.883,2.992,2.992,0,0,1-2.465-1.191,4.953,4.953,0,0,1-.941-3.16Zm2.258.164a3.076,3.076,0,0,0,.461,1.8,1.467,1.467,0,0,0,1.266.652,1.568,1.568,0,0,0,1.477-.773V14.4a1.565,1.565,0,0,0-1.461-.773,1.476,1.476,0,0,0-1.277.664A3.467,3.467,0,0,0,19.18,16.275Zm11.953-2.211A6.134,6.134,0,0,0,30.32,14a1.654,1.654,0,0,0-1.68.867V20.4H26.383V11.947h2.133l.063,1.008a2.092,2.092,0,0,1,1.883-1.164,2.366,2.366,0,0,1,.7.1Zm4.977,6.492a4.15,4.15,0,0,1-3.027-1.141,4.054,4.054,0,0,1-1.168-3.039v-.219a5.106,5.106,0,0,1,.492-2.277A3.612,3.612,0,0,1,33.8,12.334a3.914,3.914,0,0,1,2.059-.543,3.508,3.508,0,0,1,2.73,1.094,4.444,4.444,0,0,1,1,3.1v.922H34.2a2.1,2.1,0,0,0,.66,1.328,2,2,0,0,0,1.395.5,2.437,2.437,0,0,0,2.039-.945l1.109,1.242a3.389,3.389,0,0,1-1.375,1.121A4.511,4.511,0,0,1,36.109,20.556Zm-.258-6.937a1.414,1.414,0,0,0-1.09.453,2.341,2.341,0,0,0-.535,1.3h3.141v-.18a1.669,1.669,0,0,0-.406-1.16A1.459,1.459,0,0,0,35.852,13.619Zm4.688,2.492a4.954,4.954,0,0,1,.926-3.133,3,3,0,0,1,2.5-1.187,2.631,2.631,0,0,1,2.164.953l.094-.8h2.047v8.172a3.613,3.613,0,0,1-.5,1.93,3.236,3.236,0,0,1-1.418,1.25,4.985,4.985,0,0,1-2.141.43,4.635,4.635,0,0,1-1.812-.371,3.217,3.217,0,0,1-1.336-.957l1-1.375a2.645,2.645,0,0,0,2.047.945,1.936,1.936,0,0,0,1.4-.48,1.8,1.8,0,0,0,.5-1.363v-.453a2.612,2.612,0,0,1-2.055.883,2.992,2.992,0,0,1-2.465-1.191,4.953,4.953,0,0,1-.941-3.16Zm2.258.164a3.076,3.076,0,0,0,.461,1.8,1.467,1.467,0,0,0,1.266.652A1.568,1.568,0,0,0,46,17.955V14.4a1.565,1.565,0,0,0-1.461-.773,1.476,1.476,0,0,0-1.277.664A3.467,3.467,0,0,0,42.8,16.275ZM54.9,20.4a2.507,2.507,0,0,1-.227-.758,2.732,2.732,0,0,1-2.133.914,3,3,0,0,1-2.059-.719,2.312,2.312,0,0,1-.816-1.812,2.389,2.389,0,0,1,1-2.062,4.915,4.915,0,0,1,2.879-.727h1.039v-.484a1.393,1.393,0,0,0-.3-.937,1.183,1.183,0,0,0-.949-.352,1.345,1.345,0,0,0-.895.273.929.929,0,0,0-.324.75H49.852a2.268,2.268,0,0,1,.453-1.359,3,3,0,0,1,1.281-.98,4.669,4.669,0,0,1,1.859-.355,3.689,3.689,0,0,1,2.48.785,2.747,2.747,0,0,1,.918,2.207v3.664a4.041,4.041,0,0,0,.336,1.82V20.4Zm-1.867-1.57a1.945,1.945,0,0,0,.922-.223,1.462,1.462,0,0,0,.625-.6V16.556h-.844q-1.7,0-1.8,1.172l-.008.133a.9.9,0,0,0,.3.7A1.153,1.153,0,0,0,53.031,18.83Zm10.3-4.766A6.134,6.134,0,0,0,62.516,14a1.654,1.654,0,0,0-1.68.867V20.4H58.578V11.947h2.133l.063,1.008a2.092,2.092,0,0,1,1.883-1.164,2.366,2.366,0,0,1,.7.1ZM72.75,17.58l2.578-8.555h2.609L73.977,20.4H71.531L67.586,9.025h2.6ZM83.4,20.4a2.507,2.507,0,0,1-.227-.758,2.732,2.732,0,0,1-2.133.914,3,3,0,0,1-2.059-.719,2.312,2.312,0,0,1-.816-1.812,2.389,2.389,0,0,1,1-2.062,4.915,4.915,0,0,1,2.879-.727h1.039v-.484a1.393,1.393,0,0,0-.3-.937,1.183,1.183,0,0,0-.949-.352,1.345,1.345,0,0,0-.895.273.929.929,0,0,0-.324.75H78.352a2.268,2.268,0,0,1,.453-1.359,3,3,0,0,1,1.281-.98,4.669,4.669,0,0,1,1.859-.355,3.689,3.689,0,0,1,2.48.785,2.747,2.747,0,0,1,.918,2.207v3.664a4.041,4.041,0,0,0,.336,1.82V20.4Zm-1.867-1.57a1.945,1.945,0,0,0,.922-.223,1.462,1.462,0,0,0,.625-.6V16.556h-.844q-1.7,0-1.8,1.172l-.008.133a.9.9,0,0,0,.3.7A1.153,1.153,0,0,0,81.531,18.83Zm7.93,1.57H87.2V8.4h2.266Zm1.508-4.3a5.013,5.013,0,0,1,.484-2.242,3.546,3.546,0,0,1,1.395-1.523,4.069,4.069,0,0,1,2.113-.539,3.849,3.849,0,0,1,2.793,1.047,4.2,4.2,0,0,1,1.207,2.844l.016.578a4.418,4.418,0,0,1-1.086,3.121,4.209,4.209,0,0,1-5.832,0,4.5,4.5,0,0,1-1.09-3.187Zm2.258.164a3.151,3.151,0,0,0,.453,1.84,1.629,1.629,0,0,0,2.578.008,3.448,3.448,0,0,0,.461-2.012,3.12,3.12,0,0,0-.461-1.828,1.5,1.5,0,0,0-1.3-.648,1.475,1.475,0,0,0-1.281.645A3.506,3.506,0,0,0,93.227,16.259Zm11.891-2.2A6.134,6.134,0,0,0,104.3,14a1.654,1.654,0,0,0-1.68.867V20.4h-2.258V11.947H102.5l.063,1.008a2.092,2.092,0,0,1,1.883-1.164,2.366,2.366,0,0,1,.7.1Zm4.977,1.891a11.377,11.377,0,0,1-.508,3.4,9.225,9.225,0,0,1-1.461,2.883,5.263,5.263,0,0,1-2.039,1.719l-.437-1.2a5.494,5.494,0,0,0,1.75-2.578,11.939,11.939,0,0,0,.664-4.008v-.414a12.209,12.209,0,0,0-.637-4.117,5.727,5.727,0,0,0-1.777-2.672l.438-1.2a5.265,5.265,0,0,1,2,1.672,9.106,9.106,0,0,1,1.461,2.82,11.3,11.3,0,0,1,.543,3.336Z" transform="translate(4277.225 1201.675)" fill="#151615"/>
        </g>
        <path id="Trazado_735280" data-name="Trazado 735280" d="M-19.562,0h-2.289l1.969-11.375h2.289Zm5.508-8.461-.187,1a3.042,3.042,0,0,1,2.461-1.148,2.028,2.028,0,0,1,1.766.875A3.526,3.526,0,0,1-9.6-5.375L-10.492,0h-2.2l.906-5.4a2.528,2.528,0,0,0,.016-.555.9.9,0,0,0-1-.82,1.9,1.9,0,0,0-1.555.8L-15.383,0h-2.2l1.469-8.453ZM-.648-4.2a6.981,6.981,0,0,1-.7,2.359A3.826,3.826,0,0,1-2.664-.312a3.058,3.058,0,0,1-1.75.477A2.44,2.44,0,0,1-6.352-.75l-.773,4h-2.2L-7.3-8.453l2.031-.008-.148.852a2.7,2.7,0,0,1,2.156-1,2.4,2.4,0,0,1,1.93.9A3.922,3.922,0,0,1-.6-5.344,9.132,9.132,0,0,1-.648-4.2Zm-2.187-.164.047-.75a2.084,2.084,0,0,0-.277-1.2,1,1,0,0,0-.855-.461,1.819,1.819,0,0,0-1.586.813l-.633,3.484a1.233,1.233,0,0,0,1.242.82A1.591,1.591,0,0,0-3.57-2.281,4.223,4.223,0,0,0-2.836-4.367ZM5.281-.875A2.919,2.919,0,0,1,2.953.156,2.172,2.172,0,0,1,1.109-.719,3.2,3.2,0,0,1,.625-2.984l.914-5.469h2.2l-.93,5.492a2.17,2.17,0,0,0-.008.484.8.8,0,0,0,.867.8,2.014,2.014,0,0,0,1.7-.789L6.422-8.453H8.641L7.172,0H5.117Zm8-9.656-.367,2.078H14.32L14.031-6.8H12.625l-.719,4.234a1.077,1.077,0,0,0,.063.609q.109.211.531.227.125.008.672-.039L13.016-.039a3.706,3.706,0,0,1-1.266.18,1.985,1.985,0,0,1-1.617-.68,2.456,2.456,0,0,1-.437-1.8L10.422-6.8h-1.2l.289-1.656h1.2l.359-2.078Zm5.75,8.148q.125-.625-.867-.906l-.711-.18Q14.93-4.164,15-5.922a2.428,2.428,0,0,1,1.059-1.949,3.942,3.942,0,0,1,2.457-.738,3.536,3.536,0,0,1,2.313.758,2.5,2.5,0,0,1,.9,1.977l-2.187-.008a.963.963,0,0,0-1.078-1.1,1.551,1.551,0,0,0-.895.258,1.061,1.061,0,0,0-.465.7q-.117.625.945.883l.313.07a6.285,6.285,0,0,1,1.648.59,2.488,2.488,0,0,1,.879.824,2.04,2.04,0,0,1,.285,1.18,2.251,2.251,0,0,1-.52,1.406,3.18,3.18,0,0,1-1.359.93,4.736,4.736,0,0,1-1.816.3,3.568,3.568,0,0,1-2.344-.809A2.607,2.607,0,0,1,14.18-2.7l2.078.016a1.142,1.142,0,0,0,1.3,1.227,1.845,1.845,0,0,0,1-.25A.987.987,0,0,0,19.031-2.383ZM-36.344,15.775a11.99,11.99,0,0,1,.477-3.406,8.989,8.989,0,0,1,1.406-2.863,5.251,5.251,0,0,1,2.016-1.73l.438,1.219A5.438,5.438,0,0,0-33.789,11.6a12.082,12.082,0,0,0-.641,4.125v.242a12.313,12.313,0,0,0,.633,4.141,5.544,5.544,0,0,0,1.789,2.648l-.437,1.2a5.253,5.253,0,0,1-1.98-1.684,8.838,8.838,0,0,1-1.4-2.785,11.918,11.918,0,0,1-.516-3.3Zm12.508-.3h-4.5v3.047h5.281V20.4H-30.68V9.025h7.609v1.9h-5.266v2.711h4.5Zm4.086-3.523.07.977a2.951,2.951,0,0,1,2.43-1.133,2.453,2.453,0,0,1,2,.789,3.682,3.682,0,0,1,.672,2.359V20.4h-2.258V14.994a1.465,1.465,0,0,0-.312-1.043,1.4,1.4,0,0,0-1.039-.324,1.553,1.553,0,0,0-1.43.813V20.4h-2.258V11.947Zm9.586-2.078v2.078h1.445V13.6h-1.445v4.219a1.007,1.007,0,0,0,.18.672.9.9,0,0,0,.688.2,3.6,3.6,0,0,0,.664-.055v1.711a4.648,4.648,0,0,1-1.367.2,2.156,2.156,0,0,1-2.422-2.4V13.6h-1.234V11.947h1.234V9.869Zm7.453,4.2A6.134,6.134,0,0,0-3.523,14a1.654,1.654,0,0,0-1.68.867V20.4H-7.461V11.947h2.133l.063,1.008a2.092,2.092,0,0,1,1.883-1.164,2.366,2.366,0,0,1,.7.1ZM3.039,20.4a2.507,2.507,0,0,1-.227-.758,2.732,2.732,0,0,1-2.133.914,3,3,0,0,1-2.059-.719A2.312,2.312,0,0,1-2.2,18.025a2.389,2.389,0,0,1,1-2.062,4.915,4.915,0,0,1,2.879-.727H2.719v-.484a1.393,1.393,0,0,0-.3-.937,1.183,1.183,0,0,0-.949-.352,1.345,1.345,0,0,0-.895.273.929.929,0,0,0-.324.75H-2.008a2.268,2.268,0,0,1,.453-1.359,3,3,0,0,1,1.281-.98,4.669,4.669,0,0,1,1.859-.355,3.689,3.689,0,0,1,2.48.785,2.747,2.747,0,0,1,.918,2.207v3.664a4.041,4.041,0,0,0,.336,1.82V20.4ZM1.172,18.83a1.945,1.945,0,0,0,.922-.223,1.462,1.462,0,0,0,.625-.6V16.556H1.875q-1.7,0-1.8,1.172l-.008.133a.9.9,0,0,0,.3.7A1.153,1.153,0,0,0,1.172,18.83Zm5.2-2.719a5.094,5.094,0,0,1,.887-3.148A2.877,2.877,0,0,1,9.68,11.791a2.589,2.589,0,0,1,2.039.922V8.4h2.266v12H11.945l-.109-.9a2.657,2.657,0,0,1-2.172,1.055A2.869,2.869,0,0,1,7.27,19.38,5.258,5.258,0,0,1,6.367,16.111Zm2.258.164a3.328,3.328,0,0,0,.414,1.82,1.349,1.349,0,0,0,1.2.633,1.511,1.511,0,0,0,1.477-.883V14.509a1.489,1.489,0,0,0-1.461-.883Q8.625,13.627,8.625,16.275ZM20.633,20.4a2.507,2.507,0,0,1-.227-.758,2.732,2.732,0,0,1-2.133.914,3,3,0,0,1-2.059-.719,2.312,2.312,0,0,1-.816-1.812,2.389,2.389,0,0,1,1-2.062,4.915,4.915,0,0,1,2.879-.727h1.039v-.484a1.393,1.393,0,0,0-.3-.937,1.183,1.183,0,0,0-.949-.352,1.345,1.345,0,0,0-.895.273.929.929,0,0,0-.324.75H15.586a2.268,2.268,0,0,1,.453-1.359,3,3,0,0,1,1.281-.98,4.669,4.669,0,0,1,1.859-.355,3.689,3.689,0,0,1,2.48.785,2.747,2.747,0,0,1,.918,2.207v3.664a4.041,4.041,0,0,0,.336,1.82V20.4Zm-1.867-1.57a1.945,1.945,0,0,0,.922-.223,1.462,1.462,0,0,0,.625-.6V16.556h-.844q-1.7,0-1.8,1.172l-.008.133a.9.9,0,0,0,.3.7A1.153,1.153,0,0,0,18.766,18.83Zm10.125-.766a.727.727,0,0,0-.41-.652,4.659,4.659,0,0,0-1.316-.426q-3.016-.633-3.016-2.562a2.323,2.323,0,0,1,.934-1.879,3.766,3.766,0,0,1,2.441-.754,4.053,4.053,0,0,1,2.574.758,2.388,2.388,0,0,1,.965,1.969H28.8a1.092,1.092,0,0,0-.312-.8,1.322,1.322,0,0,0-.977-.316,1.351,1.351,0,0,0-.883.258.814.814,0,0,0-.312.656.7.7,0,0,0,.355.605,3.657,3.657,0,0,0,1.2.4A9.8,9.8,0,0,1,29.3,15.7a2.336,2.336,0,0,1,1.789,2.273,2.2,2.2,0,0,1-.992,1.871,4.28,4.28,0,0,1-2.562.715,4.47,4.47,0,0,1-1.887-.379,3.166,3.166,0,0,1-1.293-1.039,2.414,2.414,0,0,1-.469-1.426h2.141a1.179,1.179,0,0,0,.445.922,1.766,1.766,0,0,0,1.109.32,1.635,1.635,0,0,0,.98-.246A.766.766,0,0,0,28.891,18.064Zm7.539-2.109a11.377,11.377,0,0,1-.508,3.4,9.225,9.225,0,0,1-1.461,2.883,5.264,5.264,0,0,1-2.039,1.719l-.437-1.2a5.494,5.494,0,0,0,1.75-2.578,11.939,11.939,0,0,0,.664-4.008v-.414a12.208,12.208,0,0,0-.637-4.117A5.727,5.727,0,0,0,31.984,8.97l.438-1.2a5.265,5.265,0,0,1,2,1.672,9.106,9.106,0,0,1,1.461,2.82A11.3,11.3,0,0,1,36.43,15.6Z" transform="translate(512 1334.744)" fill="#151615"/>
        <g id="Guía_de_Instalación_de_Docker" data-name="Guía de Instalación de Docker" transform="translate(1082.321 1325.457)">
          <g id="Grupo_53883" data-name="Grupo 53883" transform="translate(0 0)">
            <path id="Trazado_735281" data-name="Trazado 735281" d="M-23.184.156a4.008,4.008,0,0,1-2-.535,3.612,3.612,0,0,1-1.367-1.477,5.468,5.468,0,0,1-.582-2.215A8.9,8.9,0,0,1-26.855-6.8,7.3,7.3,0,0,1-25.7-9.359a5.256,5.256,0,0,1,1.871-1.648,4.844,4.844,0,0,1,2.324-.523,3.966,3.966,0,0,1,2.008.543A3.587,3.587,0,0,1-18.145-9.5a5.532,5.532,0,0,1,.563,2.207,9.188,9.188,0,0,1-.3,2.828,7.177,7.177,0,0,1-1.164,2.516A5.216,5.216,0,0,1-20.891-.352,4.83,4.83,0,0,1-23.184.156ZM-19.941-6l.063-.742a3.626,3.626,0,0,0-.371-2.109,1.567,1.567,0,0,0-1.363-.75,2.473,2.473,0,0,0-2.27,1.266,7.455,7.455,0,0,0-.949,3.672,3.762,3.762,0,0,0,.367,2.129,1.563,1.563,0,0,0,1.383.777,2.345,2.345,0,0,0,2.031-.957A5.79,5.79,0,0,0-20-5.578Zm8.078,5.125A2.919,2.919,0,0,1-14.191.156a2.172,2.172,0,0,1-1.844-.875,3.2,3.2,0,0,1-.484-2.266l.914-5.469h2.2l-.93,5.492a2.17,2.17,0,0,0-.008.484.8.8,0,0,0,.867.8,2.014,2.014,0,0,0,1.7-.789l1.055-5.992H-8.5L-9.973,0h-2.055Zm8-9.656L-4.23-8.453h1.406L-3.113-6.8H-4.52l-.719,4.234a1.077,1.077,0,0,0,.063.609q.109.211.531.227.125.008.672-.039L-4.129-.039a3.706,3.706,0,0,1-1.266.18,1.985,1.985,0,0,1-1.617-.68,2.456,2.456,0,0,1-.437-1.8L-6.723-6.8h-1.2l.289-1.656h1.2l.359-2.078ZM5.105-4.2a6.981,6.981,0,0,1-.7,2.359A3.826,3.826,0,0,1,3.09-.312,3.058,3.058,0,0,1,1.34.164,2.44,2.44,0,0,1-.6-.75l-.773,4h-2.2l2.023-11.7L.48-8.461l-.148.852a2.7,2.7,0,0,1,2.156-1,2.4,2.4,0,0,1,1.93.9,3.922,3.922,0,0,1,.734,2.363A9.133,9.133,0,0,1,5.105-4.2ZM2.918-4.367l.047-.75a2.084,2.084,0,0,0-.277-1.2,1,1,0,0,0-.855-.461,1.819,1.819,0,0,0-1.586.813L-.387-2.484a1.233,1.233,0,0,0,1.242.82,1.591,1.591,0,0,0,1.328-.617A4.223,4.223,0,0,0,2.918-4.367ZM11.035-.875A2.919,2.919,0,0,1,8.707.156,2.172,2.172,0,0,1,6.863-.719a3.2,3.2,0,0,1-.484-2.266l.914-5.469H9.5l-.93,5.492a2.17,2.17,0,0,0-.008.484.8.8,0,0,0,.867.8,2.014,2.014,0,0,0,1.7-.789l1.055-5.992h2.219L12.926,0H10.871Zm8-9.656-.367,2.078h1.406L19.785-6.8H18.379L17.66-2.562a1.077,1.077,0,0,0,.063.609q.109.211.531.227.125.008.672-.039L18.77-.039A3.706,3.706,0,0,1,17.5.141a1.985,1.985,0,0,1-1.617-.68,2.456,2.456,0,0,1-.437-1.8L16.176-6.8h-1.2l.289-1.656h1.2l.359-2.078Zm5.75,8.148q.125-.625-.867-.906l-.711-.18q-2.523-.7-2.453-2.453a2.428,2.428,0,0,1,1.059-1.949,3.942,3.942,0,0,1,2.457-.738,3.536,3.536,0,0,1,2.313.758,2.5,2.5,0,0,1,.9,1.977l-2.187-.008a.963.963,0,0,0-1.078-1.1,1.551,1.551,0,0,0-.895.258,1.061,1.061,0,0,0-.465.7q-.117.625.945.883l.313.07a6.285,6.285,0,0,1,1.648.59,2.488,2.488,0,0,1,.879.824,2.04,2.04,0,0,1,.285,1.18,2.251,2.251,0,0,1-.52,1.406,3.18,3.18,0,0,1-1.359.93,4.736,4.736,0,0,1-1.816.3,3.568,3.568,0,0,1-2.344-.809A2.607,2.607,0,0,1,19.934-2.7l2.078.016a1.142,1.142,0,0,0,1.3,1.227,1.845,1.845,0,0,0,1-.25A.987.987,0,0,0,24.785-2.383ZM-26.906,16.375a11.99,11.99,0,0,1,.477-3.406,8.989,8.989,0,0,1,1.406-2.863,5.251,5.251,0,0,1,2.016-1.73l.438,1.219A5.438,5.438,0,0,0-24.352,12.2a12.082,12.082,0,0,0-.641,4.125v.242a12.313,12.313,0,0,0,.633,4.141,5.544,5.544,0,0,0,1.789,2.648l-.437,1.2a5.253,5.253,0,0,1-1.98-1.684,8.838,8.838,0,0,1-1.4-2.785,11.918,11.918,0,0,1-.516-3.3Zm11.563,1.641A1.2,1.2,0,0,0-15.812,17a6.148,6.148,0,0,0-1.687-.75,11.963,11.963,0,0,1-1.93-.777,3.153,3.153,0,0,1-1.937-2.82A2.747,2.747,0,0,1-20.848,11a3.389,3.389,0,0,1,1.492-1.129,5.616,5.616,0,0,1,2.184-.406A5.112,5.112,0,0,1-15,9.91a3.458,3.458,0,0,1,1.48,1.246,3.261,3.261,0,0,1,.527,1.828h-2.344a1.534,1.534,0,0,0-.492-1.215,2.023,2.023,0,0,0-1.383-.434,2.162,2.162,0,0,0-1.336.363,1.146,1.146,0,0,0-.477.957,1.1,1.1,0,0,0,.559.93,6.311,6.311,0,0,0,1.645.7,7.106,7.106,0,0,1,2.914,1.492A2.972,2.972,0,0,1-12.992,18a2.737,2.737,0,0,1-1.117,2.316,4.891,4.891,0,0,1-3.008.84,5.808,5.808,0,0,1-2.391-.48,3.783,3.783,0,0,1-1.645-1.316,3.371,3.371,0,0,1-.566-1.937h2.352q0,1.883,2.25,1.883a2.189,2.189,0,0,0,1.3-.34A1.106,1.106,0,0,0-15.344,18.016ZM-6.656,21a2.507,2.507,0,0,1-.227-.758,2.732,2.732,0,0,1-2.133.914,3,3,0,0,1-2.059-.719,2.312,2.312,0,0,1-.816-1.812,2.389,2.389,0,0,1,1-2.062,4.915,4.915,0,0,1,2.879-.727h1.039v-.484a1.393,1.393,0,0,0-.3-.937,1.183,1.183,0,0,0-.949-.352,1.345,1.345,0,0,0-.895.273.929.929,0,0,0-.324.75H-11.7a2.268,2.268,0,0,1,.453-1.359,3,3,0,0,1,1.281-.98,4.669,4.669,0,0,1,1.859-.355,3.689,3.689,0,0,1,2.48.785,2.747,2.747,0,0,1,.918,2.207v3.664a4.041,4.041,0,0,0,.336,1.82V21Zm-1.867-1.57a1.945,1.945,0,0,0,.922-.223,1.462,1.462,0,0,0,.625-.6V17.156H-7.82q-1.7,0-1.8,1.172l-.008.133a.9.9,0,0,0,.3.7A1.153,1.153,0,0,0-8.523,19.43ZM-.594,21H-2.859V9H-.594Zm4.242,0H1.383V12.547H3.648ZM1.25,10.359a1.112,1.112,0,0,1,.34-.836A1.277,1.277,0,0,1,2.516,9.2a1.28,1.28,0,0,1,.922.328,1.193,1.193,0,0,1,0,1.68,1.283,1.283,0,0,1-.918.328A1.283,1.283,0,0,1,1.6,11.2,1.108,1.108,0,0,1,1.25,10.359Zm3.906,6.352a5.094,5.094,0,0,1,.887-3.148,2.877,2.877,0,0,1,2.426-1.172,2.589,2.589,0,0,1,2.039.922V9h2.266V21H10.734l-.109-.9a2.657,2.657,0,0,1-2.172,1.055A2.869,2.869,0,0,1,6.059,19.98,5.258,5.258,0,0,1,5.156,16.711Zm2.258.164a3.328,3.328,0,0,0,.414,1.82,1.349,1.349,0,0,0,1.2.633,1.511,1.511,0,0,0,1.477-.883V15.109a1.489,1.489,0,0,0-1.461-.883Q7.414,14.227,7.414,16.875ZM19.422,21a2.507,2.507,0,0,1-.227-.758,2.732,2.732,0,0,1-2.133.914A3,3,0,0,1,15,20.438a2.312,2.312,0,0,1-.816-1.812,2.389,2.389,0,0,1,1-2.062,4.915,4.915,0,0,1,2.879-.727H19.1v-.484a1.393,1.393,0,0,0-.3-.937,1.183,1.183,0,0,0-.949-.352,1.345,1.345,0,0,0-.895.273.929.929,0,0,0-.324.75H14.375a2.268,2.268,0,0,1,.453-1.359,3,3,0,0,1,1.281-.98,4.669,4.669,0,0,1,1.859-.355,3.689,3.689,0,0,1,2.48.785,2.747,2.747,0,0,1,.918,2.207v3.664a4.041,4.041,0,0,0,.336,1.82V21Zm-1.867-1.57a1.945,1.945,0,0,0,.922-.223,1.462,1.462,0,0,0,.625-.6V17.156h-.844q-1.7,0-1.8,1.172l-.008.133a.9.9,0,0,0,.3.7A1.153,1.153,0,0,0,17.555,19.43Zm9.438-2.875a11.377,11.377,0,0,1-.508,3.4,9.225,9.225,0,0,1-1.461,2.883,5.263,5.263,0,0,1-2.039,1.719l-.437-1.2a5.494,5.494,0,0,0,1.75-2.578,11.939,11.939,0,0,0,.664-4.008v-.414a12.208,12.208,0,0,0-.637-4.117A5.727,5.727,0,0,0,22.547,9.57l.438-1.2a5.265,5.265,0,0,1,2,1.672,9.106,9.106,0,0,1,1.461,2.82,11.3,11.3,0,0,1,.543,3.336Z" transform="translate(23 12)" fill="#151615"/>
          </g>
        </g>
      </g>
      <path id="Unión_2" data-name="Unión 2" d="M45936.066,31722.082a11.794,11.794,0,0,1-6.848-10.766v-16.586h-106.27a1.978,1.978,0,0,1-1.484-.668,1.474,1.474,0,0,1-.836-1.332v-80.809h-14.406l-20.766,9.482,2.563,11.471,14.266-6.676a1.575,1.575,0,0,1,.648-.139h.254a1.485,1.485,0,0,1,1.512,1.467v65.2a1.508,1.508,0,0,1-3.016,0v-62.986l-14.078,6.584a1.512,1.512,0,0,1-1.3,0,1.492,1.492,0,0,1-.809-1l-3.223-14.439a1.478,1.478,0,0,1,.832-1.65l22.164-10.131a1.5,1.5,0,0,1,.637-.139h16.227a1.5,1.5,0,0,1,1.5,1.467v80.313h107.582a1.991,1.991,0,0,1,1.988,2c0,.047-.012.094-.012.15s.012.1.012.15v18.273a7.9,7.9,0,0,0,12.961,6.064l72.145-60.156a7.908,7.908,0,0,0,0-12.141l-72.145-60.156a7.9,7.9,0,0,0-12.961,6.064v19.451a1.99,1.99,0,0,1-1.988,2h-95.754a1.992,1.992,0,0,1,0-3.984h93.758v-17.465a11.89,11.89,0,0,1,19.5-9.125l72.145,60.168a11.872,11.872,0,0,1,0,18.25l-72.145,60.156a11.817,11.817,0,0,1-12.648,1.641Z" transform="translate(-45392.238 -30253.055)" fill="#9f0925" stroke="rgba(0,0,0,0)" stroke-miterlimit="10" stroke-width="1" opacity="0.65"/>
    </g>
  </g>
</svg>
