<svg xmlns="http://www.w3.org/2000/svg" width="376.999" height="598.46" viewBox="0 0 376.999 598.46">
  <g id="Grupo_55774" data-name="Grupo 55774" transform="translate(5368.333 1634.807)">
    <g id="Grupo_55771-3" data-name="Grupo 55771-3">
      <rect id="Rectángulo_5264-3" data-name="Rectángulo 5264-3" width="309.498" height="73.035" transform="translate(-5346.661 -1270.696)" fill="#dbfafa"/>
      <path id="Trazado_102164" data-name="Trazado 102164" d="M-5018.573-1184.013h-346.585v-101.275h346.585Zm-344.047-2.537h341.509v-96.2H-5362.62Z" fill="#25ced1"/>
      <rect id="Rectángulo_5266-3" data-name="Rectángulo 5266-3" width="8.383" height="24.26" transform="translate(-5368.333 -1285.902)" fill="#25ced1"/>
      <rect id="Rectángulo_5267-3" data-name="Rectángulo 5267-3" width="24.26" height="8.383" transform="translate(-5368.332 -1287.807)" fill="#25ced1"/>
    </g>
  </g>
  <text id="Salud_ocupacional_y_seguridad_industrial" data-name="Salud ocupacional y 
seguridad industrial" transform="translate(101 392.995)" font-size="16" font-family="Roboto-Medium, Roboto" font-weight="500"><tspan x="0" y="0">Salud ocupacional y </tspan><tspan x="0" y="25.81">seguridad industrial</tspan></text>
  <g id="Grupo_53852" data-name="Grupo 53852" transform="translate(-1057.672 5704.227) rotate(90)">
    <path id="Trazado_100665" data-name="Trazado 100665" d="M-5407.092-1232.133l-5.728,13.048,31.062-13.016-.063-.032.063-.032-31.062-13.015Z" fill="#9f0925"/>
    <rect id="Rectángulo_5211" data-name="Rectángulo 5211" width="38.653" height="7.254" transform="translate(-5444.203 -1235.762)" fill="#9f0925"/>
  </g>
  <rect id="Rectángulo_5437" data-name="Rectángulo 5437" width="298.142" height="148.935" transform="translate(69.518 102.525)" fill="#f6f6f6"/>
  <rect id="Rectángulo_5438" data-name="Rectángulo 5438" width="298.142" height="148.935" transform="translate(78.857 449.525)" fill="#f6f6f6"/>
  <g id="Grupo_56447" data-name="Grupo 56447" transform="translate(5368.17 1634.807)">
    <text id="Conceptos_generales_Normas_ISO_14000-18000_Panorama_de_riesgos" data-name="Conceptos generales
Normas ISO 14000-18000
Panorama de riesgos" transform="translate(-5220.382 -1147.134)" fill="#232323" font-size="16" font-family="Roboto-Regular, Roboto"><tspan x="0" y="0">Conceptos generales</tspan><tspan x="0" y="40.328">Normas ISO 14000-18000</tspan><tspan x="0" y="80.656">Panorama de riesgos</tspan></text>
    <circle id="Elipse_4081" data-name="Elipse 4081" cx="3.048" cy="3.048" r="3.048" transform="translate(-5244.046 -1157.823)" fill="#232323"/>
    <circle id="Elipse_4082" data-name="Elipse 4082" cx="3.048" cy="3.048" r="3.048" transform="translate(-5244.046 -1115.687)" fill="#232323"/>
    <circle id="Elipse_4083" data-name="Elipse 4083" cx="3.048" cy="3.048" r="3.048" transform="translate(-5244.046 -1073.551)" fill="#232323"/>
  </g>
  <g id="Grupo_56446" data-name="Grupo 56446" transform="translate(5811.17 1287.807)">
    <text id="Plan_de_capacitación_Análisis_de_habilidades_Métodos_de_capacitación" data-name="Plan de capacitación
Análisis de habilidades
Métodos de capacitación" transform="translate(-5670.558 -1147.134)" fill="#232323" font-size="16" font-family="Roboto-Regular, Roboto"><tspan x="0" y="0">Plan de capacitación</tspan><tspan x="0" y="40.328">Análisis de habilidades</tspan><tspan x="0" y="80.656">Métodos de capacitación</tspan></text>
    <circle id="Elipse_4078" data-name="Elipse 4078" cx="3.048" cy="3.048" r="3.048" transform="translate(-5694.222 -1154.823)" fill="#232323"/>
    <circle id="Elipse_4079" data-name="Elipse 4079" cx="3.048" cy="3.048" r="3.048" transform="translate(-5694.222 -1114.687)" fill="#232323"/>
    <circle id="Elipse_4080" data-name="Elipse 4080" cx="3.048" cy="3.048" r="3.048" transform="translate(-5694.222 -1072.551)" fill="#232323"/>
  </g>
  <g id="Grupo_55774-2" data-name="Grupo 55774" transform="translate(5811.17 1287.807)">
    <g id="Grupo_55771-3-2" data-name="Grupo 55771-3">
      <path id="Rectángulo_5264-3-2" data-name="Rectángulo 5264-3" d="M0,0H309.5V73.035H0Z" transform="translate(-5789.498 -1270.696)" fill="#ffe8de"/>
      <path id="Trazado_102165" data-name="Trazado 102165" d="M-5461.41-1184.013H-5808v-101.275h346.585Zm-344.046-2.537h341.508v-96.2h-341.508Z" fill="#ff8a5b"/>
      <rect id="Rectángulo_5266-3-2" data-name="Rectángulo 5266-3" width="8.383" height="24.26" transform="translate(-5811.17 -1285.902)" fill="#ff8a5b"/>
      <rect id="Rectángulo_5267-3-2" data-name="Rectángulo 5267-3" width="24.26" height="8.383" transform="translate(-5811.169 -1287.807)" fill="#ff8a5b"/>
    </g>
  </g>
  <text id="Capacitación_del_personal" data-name="Capacitación del personal" transform="translate(81.461 55.938)" font-size="16" font-family="Roboto-Medium, Roboto" font-weight="500"><tspan x="0" y="0">Capacitación del personal</tspan></text>
</svg>
