<svg id="Grupo_1009859" data-name="Grupo 1009859" xmlns="http://www.w3.org/2000/svg" xmlns:xlink="http://www.w3.org/1999/xlink" width="92" height="82.294" viewBox="0 0 92 82.294">
  <defs>
    <clipPath id="clip-path">
      <rect id="Rectángulo_344793" data-name="Rectángulo 344793" width="92" height="82.294" fill="none"/>
    </clipPath>
  </defs>
  <g id="Grupo_1009858" data-name="Grupo 1009858" clip-path="url(#clip-path)">
    <path id="Trazado_735032" data-name="Trazado 735032" d="M84.391,44.5h8.625a5.39,5.39,0,0,0,5.391-5.391V15.391A5.39,5.39,0,0,0,93.016,10H15.391A5.39,5.39,0,0,0,10,15.391V39.109A5.39,5.39,0,0,0,15.391,44.5Z" transform="translate(-8.203 -8.203)" fill="#ffc66c"/>
    <path id="Trazado_735033" data-name="Trazado 735033" d="M378.094,330.169l14.93,14.93a4.3,4.3,0,1,0,6.076-6.075l-14.93-14.931Z" transform="translate(-310.155 -265.857)" fill="#ff5d5d"/>
    <path id="Trazado_735034" data-name="Trazado 735034" d="M233.129,157.563A21.563,21.563,0,1,1,211.566,136a21.563,21.563,0,0,1,21.563,21.563" transform="translate(-155.863 -111.563)" fill="#fff"/>
    <path id="Trazado_735035" data-name="Trazado 735035" d="M260.035,192.016A14.016,14.016,0,1,1,246.02,178a14.016,14.016,0,0,1,14.016,14.016" transform="translate(-190.316 -146.016)" fill="#72d8ff"/>
    <path id="Trazado_735036" data-name="Trazado 735036" d="M237.816,168a15.813,15.813,0,1,0,15.813,15.813A15.83,15.83,0,0,0,237.816,168m0,28.031a12.219,12.219,0,1,1,12.219-12.219,12.232,12.232,0,0,1-12.219,12.219" transform="translate(-182.113 -137.813)"/>
    <path id="Trazado_735037" data-name="Trazado 735037" d="M301.8,211a1.8,1.8,0,0,0,0,3.594,4.5,4.5,0,0,1,4.491,4.491,1.8,1.8,0,1,0,3.594,0A8.094,8.094,0,0,0,301.8,211" transform="translate(-246.097 -173.089)"/>
    <path id="Trazado_735038" data-name="Trazado 735038" d="M46.154,70.967a1.8,1.8,0,1,0-3.192,1.652L47.8,81.963a1.8,1.8,0,0,0,3.216-.048l2.929-6.1,3.18,6.145a1.8,1.8,0,0,0,1.6.971h.027a1.8,1.8,0,0,0,1.593-1.019l4.488-9.344a1.8,1.8,0,1,0-3.239-1.555l-2.928,6.1-3.181-6.145a1.8,1.8,0,0,0-3.216.049l-2.928,6.1Z" transform="translate(-35.077 -57.419)"/>
    <path id="Trazado_735039" data-name="Trazado 735039" d="M117.785,3.594a1.8,1.8,0,0,0,1.27-3.067,1.8,1.8,0,0,0-3.067,1.27,1.8,1.8,0,0,0,1.8,1.8" transform="translate(-95.146)"/>
    <path id="Trazado_735040" data-name="Trazado 735040" d="M92,30.906V7.188A7.2,7.2,0,0,0,84.813,0H30.185a1.8,1.8,0,0,0,0,3.594H84.813a3.6,3.6,0,0,1,3.594,3.594V30.906A3.6,3.6,0,0,1,84.813,34.5H76.188c-.052,0-.1,0-.153.008A23.484,23.484,0,0,0,63.4,23.946L66.067,18.4l3.181,6.145a1.8,1.8,0,0,0,1.6.971h.027A1.8,1.8,0,0,0,72.464,24.5l4.487-9.344A1.8,1.8,0,0,0,73.712,13.6l-2.928,6.1L67.6,13.549a1.8,1.8,0,0,0-3.216.049l-2.928,6.1-3.18-6.145A1.8,1.8,0,0,0,55.087,15.2l3.977,7.682a23.393,23.393,0,0,0-9.734.641l4.021-8.372A1.8,1.8,0,0,0,50.112,13.6l-2.928,6.1L44,13.549a1.8,1.8,0,0,0-3.216.049l-2.928,6.1-3.181-6.145A1.8,1.8,0,0,0,31.487,15.2l4.837,9.344a1.8,1.8,0,0,0,3.215-.049l2.928-6.1,3.18,6.145a1.76,1.76,0,0,0,.19.286A23.514,23.514,0,0,0,35.378,34.5H7.188a3.6,3.6,0,0,1-3.594-3.594V7.188A3.6,3.6,0,0,1,7.188,3.594h7.366a1.8,1.8,0,0,0,0-3.594H7.188A7.2,7.2,0,0,0,0,7.188V30.906a7.2,7.2,0,0,0,7.188,7.188H33.723A23.354,23.354,0,0,0,67.337,66.251L81.6,80.513A6.093,6.093,0,1,0,90.215,71.9l-5.6-5.6a1.8,1.8,0,0,0-2.541,2.541l5.6,5.6a2.5,2.5,0,0,1-3.534,3.535L70.351,64.182a23.338,23.338,0,0,0,7.333-26.088h7.128A7.2,7.2,0,0,0,92,30.906M55.7,65.766A19.766,19.766,0,1,1,75.469,46,19.789,19.789,0,0,1,55.7,65.766"/>
    <path id="Trazado_735041" data-name="Trazado 735041" d="M430.616,342.807a1.8,1.8,0,1,0,1.27-.526,1.809,1.809,0,0,0-1.27.526" transform="translate(-352.807 -280.777)"/>
  </g>
</svg>
