<svg xmlns="http://www.w3.org/2000/svg" xmlns:xlink="http://www.w3.org/1999/xlink" width="55" height="55" viewBox="0 0 55 55">
  <defs>
    <clipPath id="clip-path">
      <rect id="Rectángulo_344794" data-name="Rectángulo 344794" width="55" height="55" transform="translate(0 -0.334)" fill="none"/>
    </clipPath>
  </defs>
  <g id="Grupo_1009861" data-name="Grupo 1009861" transform="translate(0 0.33)">
    <g id="Grupo_1009860" data-name="Grupo 1009860" transform="translate(0 0.004)" clip-path="url(#clip-path)">
      <path id="Trazado_735042" data-name="Trazado 735042" d="M111.769,7.5h-41.4a.743.743,0,0,0-.743.743v8.706h42.887V8.243a.743.743,0,0,0-.743-.743" transform="translate(-62.23 -6.707)" fill="#b9def9"/>
      <path id="Trazado_735043" data-name="Trazado 735043" d="M416.061,254.188a3.3,3.3,0,0,1-1.656-2.861l-3.323-26.392h6.25a.743.743,0,0,1,.743.743l1.428,25.649C419.5,253.149,416.545,254.467,416.061,254.188Z" transform="translate(-367.422 -201.049)" fill="#ffc344"/>
      <path id="Trazado_735044" data-name="Trazado 735044" d="M462.159,224.936h-3.287a.743.743,0,0,1,.743.743v25.649a3.3,3.3,0,0,1-1.656,2.861,3.3,3.3,0,0,0,4.942-2.861V225.679A.743.743,0,0,0,462.159,224.936Z" transform="translate(-409.322 -201.05)" fill="#feb137"/>
      <path id="Trazado_735045" data-name="Trazado 735045" d="M81.775,84.755H38.562V39.305a.743.743,0,0,1,.743-.743H79.8l3.355,4.948V83.374a1.381,1.381,0,0,1-1.381,1.381" transform="translate(-34.466 -34.47)" fill="#f0fcff"/>
      <path id="Trazado_735046" data-name="Trazado 735046" d="M430.552,64.978l.7,2.143v39.863a1.33,1.33,0,0,1-1.32,1.381h3.239a1.381,1.381,0,0,0,1.381-1.381V67.121Z" transform="translate(-384.272 -58.08)" fill="#d7ecfe"/>
      <path id="Trazado_735047" data-name="Trazado 735047" d="M426.84,38.562v4.205a.743.743,0,0,0,.743.743h4.205Z" transform="translate(-381.507 -34.47)" fill="#9dcffd"/>
      <path id="Trazado_735048" data-name="Trazado 735048" d="M51.778,223.565V194.617a.743.743,0,0,0-.743-.743H38.841l-3.3,4.949H8.243a.743.743,0,0,0-.743.743v24.006a3.292,3.292,0,0,0,3.292,3.292H55.077A3.3,3.3,0,0,1,51.778,223.565Z" transform="translate(-6.703 -173.287)" fill="#ffe177"/>
      <path id="Trazado_735049" data-name="Trazado 735049" d="M409.3,223.565h0V194.617a.743.743,0,0,0-.743-.743h-3.186a.743.743,0,0,1,.743.743v28.948h0a3.3,3.3,0,0,0,3.3,3.3H412.6a3.3,3.3,0,0,1-3.3-3.3" transform="translate(-362.319 -173.287)" fill="#f9d45d"/>
      <path id="Trazado_735050" data-name="Trazado 735050" d="M64.186,402.376h-9.35a.743.743,0,0,1-.743-.743v-5.111a.743.743,0,0,1,.743-.743h9.35a.743.743,0,0,1,.743.743v5.111a.743.743,0,0,1-.743.743" transform="translate(-48.348 -353.747)" fill="#ffc344"/>
      <path id="Trazado_735051" data-name="Trazado 735051" d="M144.528,395.778h-3.186a.743.743,0,0,1,.743.743v5.111a.743.743,0,0,1-.743.743h3.186a.743.743,0,0,0,.743-.743v-5.111a.743.743,0,0,0-.743-.743" transform="translate(-126.33 -353.747)" fill="#feb137"/>
      <path id="Trazado_735052" data-name="Trazado 735052" d="M52.838,23.093H51.079V1.54A1.542,1.542,0,0,0,49.539,0H8.138A1.542,1.542,0,0,0,6.6,1.54V3.3H4.839A1.542,1.542,0,0,0,3.3,4.839v9.666a.8.8,0,0,0,1.593,0V4.892H44.537V8.3a1.542,1.542,0,0,0,1.54,1.54h3.409V48.908a.585.585,0,0,1-.584.584H47.779V31.921a.8.8,0,1,0-1.593,0V50.282a4.075,4.075,0,0,0,.856,2.5H4.089a2.5,2.5,0,0,1-2.5-2.5V26.336H28.838a.8.8,0,0,0,.663-.355l3.063-4.594H46.186v7.062a.8.8,0,0,0,1.593,0V21.334a1.542,1.542,0,0,0-1.54-1.54h-14.1a.8.8,0,0,0-.663.355l-3.063,4.594H4.892V17.977a.8.8,0,1,0-1.593,0v6.766H1.54A1.542,1.542,0,0,0,0,26.283V50.289a4.094,4.094,0,0,0,4.089,4.089H50.282a4.1,4.1,0,0,0,4.1-4.1V24.633A1.542,1.542,0,0,0,52.838,23.093ZM8.191,1.593H49.485V7.121c-3.667-3.667-3.575-3.586-3.662-3.654l-.016-.012a.817.817,0,0,0-.434-.155H8.191ZM46.13,6.019l2.229,2.229H46.13Zm6.655,44.263a2.505,2.505,0,0,1-2.492,2.5h-.011a2.507,2.507,0,0,1-2.37-1.7H48.9a2.18,2.18,0,0,0,2.177-2.177V24.686h1.706v25.6Z" transform="translate(0 -0.003)"/>
      <path id="Trazado_735053" data-name="Trazado 735053" d="M78.453,94.78h28.042a.8.8,0,1,0,0-1.593H78.453a.8.8,0,0,0,0,1.593" transform="translate(-69.408 -83.293)"/>
      <path id="Trazado_735054" data-name="Trazado 735054" d="M78.453,147.013H96.6a.8.8,0,1,0,0-1.593H78.453a.8.8,0,1,0,0,1.593" transform="translate(-69.408 -129.979)"/>
      <path id="Trazado_735055" data-name="Trazado 735055" d="M78.453,178.075H96.6a.8.8,0,1,0,0-1.593H78.453a.8.8,0,1,0,0,1.593" transform="translate(-69.408 -157.742)"/>
      <path id="Trazado_735056" data-name="Trazado 735056" d="M57.021,394.876a.8.8,0,1,0,0,1.593h2.821a1.542,1.542,0,0,0,1.54-1.54v-5.111a1.542,1.542,0,0,0-1.54-1.54H48.133a1.542,1.542,0,0,0-1.54,1.54v5.111a1.542,1.542,0,0,0,1.54,1.54h5.416a.8.8,0,1,0,0-1.593H48.186v-5h11.6v5Z" transform="translate(-41.645 -347.043)"/>
    </g>
  </g>
</svg>
